<?xml version="1.0" standalone="no"?>
<!DOCTYPE svg PUBLIC "-//W3C//DTD SVG 1.1//EN" "http://www.w3.org/Graphics/SVG/1.1/DTD/svg11.dtd" >
<svg xmlns="http://www.w3.org/2000/svg">
<metadata>
Created by FontPrep 20130207 at Tue Apr  7 21:17:00 2015
 By Christoph
Copyright (c) 2015 by Volkswagen AG. All rights reserved.
</metadata>
<defs>
<font id="194f5394ae2e9c74dc3c441b92862d1d" >
  <font-face 
    font-family="Font"
    font-weight="400"
    font-stretch="normal"
    units-per-em="2048"
    panose-1="2 11 5 4 4 2 0 0 0 3"
    ascent="1638"
    descent="-410"
    x-height="987"
    cap-height="1393"
    bbox="-412 -451 2114 1886"
    underline-thickness="133"
    underline-position="-94"
    unicode-range="U+0020-FB02"
  />
<missing-glyph horiz-adv-x="1050" 
d="M829 119v1155h-608v-1155h608zM102 1393h846v-1393h-846v1393z" />
    <glyph glyph-name=".notdef" horiz-adv-x="1050" 
d="M829 119v1155h-608v-1155h608zM102 1393h846v-1393h-846v1393z" />
    <glyph glyph-name="glyph1" horiz-adv-x="0" 
 />
    <glyph glyph-name="glyph2" horiz-adv-x="501" 
 />
    <glyph glyph-name="space" unicode=" " horiz-adv-x="501" 
 />
    <glyph glyph-name="exclam" unicode="!" horiz-adv-x="542" 
d="M154 97q0 56 32.5 92t86.5 36t86 -35.5t32 -91.5t-31.5 -92.5t-85.5 -36.5t-87 36t-33 92zM184 1393h172v-355l-30 -614h-109l-33 614v355z" />
    <glyph glyph-name="quotedbl" unicode="&#x22;" horiz-adv-x="745" 
d="M428 1393h172v-207l-33 -359h-106l-33 359v207zM145 1393h172v-207l-32 -359h-107l-33 359v207z" />
    <glyph glyph-name="numbersign" unicode="#" horiz-adv-x="1325" 
d="M469 500h281l104 403h-281zM186 0v20l88 345h-182v135h217l105 403h-187v135h222l92 355h153v-21l-86 -334h281l92 355h154v-21l-86 -334h184v-135h-219l-105 -403h189v-135h-224l-94 -365h-153v20l88 345h-281l-94 -365h-154z" />
    <glyph glyph-name="dollar" unicode="$" 
d="M799 360q0 82 -37 131.5t-125 92.5v-453q162 43 162 229zM348 1043q0 -73 32 -124t124 -94v435q-80 -23 -118 -83.5t-38 -133.5zM502 1577h135v-156q166 -11 305 -104l-74 -135q-102 67 -231 82v-492l8 -4q168 -73 248 -163.5t80 -240.5t-89 -256t-247 -133v-237h-135
v233q-204 18 -357 146l80 135q119 -110 277 -125v512l-33 14q-295 126 -295 378q0 142 88 251.5t240 132.5v162z" />
    <glyph glyph-name="percent" unicode="%" horiz-adv-x="1531" 
d="M659 1040q0 -259 -156 -334q-52 -26 -122 -26q-134 0 -207 95q-72 95 -74 265q0 259 159 335q52 26 122 26q135 0 207 -97q71 -97 71 -264zM380 1276q-142 0 -142 -236t142 -235q142 -1 142 235t-142 236zM1430 344q0 -165 -72 -263t-207 -98q-136 1 -207 96
q-72 95 -74 265q0 256 159 335q52 26 122 26t122 -26q104 -52 139 -189q18 -66 18 -146zM1008 344q0 -236 142 -235q142 0 142 234t-141 237q-143 0 -143 -236zM238 0v20l915 1373h156v-21l-916 -1372h-155z" />
    <glyph glyph-name="ampersand" unicode="&#x26;" horiz-adv-x="1349" 
d="M428 1092q0 -62 22.5 -123.5t94.5 -139.5l10 -12l92 57q117 74 117 212q0 68 -39 124t-129 56t-129 -56t-39 -118zM510 125q102 0 177 44t140 120l-299 332l-45 -29q-92 -62 -138 -124t-46 -143t54.5 -140.5t156.5 -59.5zM121 332q0 215 256 370l49 31l-18 23
q-158 167 -158 315t92 250t252 102t254 -104.5t94 -245.5q0 -179 -199 -307l-88 -59l267 -291q29 41 54 84t54 90l78 131l129 -88l-72 -125q-78 -134 -135 -209l254 -279v-20h-197l-159 176q-202 -207 -416 -207q-186 0 -288.5 102.5t-102.5 260.5z" />
    <glyph glyph-name="quotesingle" unicode="'" horiz-adv-x="462" 
d="M145 1393h172v-207l-32 -359h-107l-33 359v207z" />
    <glyph glyph-name="parenleft" unicode="(" horiz-adv-x="575" 
d="M354 -442q-235 441 -235 954t235 954l121 -61q-178 -415 -178 -894t178 -894z" />
    <glyph glyph-name="parenright" unicode=")" horiz-adv-x="573" 
d="M219 1466q236 -443 236 -954t-236 -954l-121 59q178 405 178 894t-178 894z" />
    <glyph glyph-name="asterisk" unicode="*" horiz-adv-x="882" 
d="M379 993l-186 -125l-72 125l196 103v4l-196 102l69 127l185 -125l4 2l-10 228h143l-14 -228l4 -2l186 125l72 -125l-197 -102v-4l197 -103l-70 -127l-190 127l-2 -2l14 -229h-143l12 227z" />
    <glyph glyph-name="plus" unicode="+" 
d="M639 629h371v-152h-371v-399h-158v399h-366v152h366v397h158v-397z" />
    <glyph glyph-name="comma" unicode="," horiz-adv-x="497" 
d="M356 201v-21l-135 -510h-133v21l78 510h190z" />
    <glyph glyph-name="hyphen" unicode="-" horiz-adv-x="847" 
d="M154 477v152h540v-152h-540z" />
    <glyph glyph-name="period" unicode="." horiz-adv-x="507" 
d="M131 97q0 56 35 92t89 36t88 -35.5t34 -91.5t-34 -92.5t-88 -36.5t-89 36t-35 92z" />
    <glyph glyph-name="slash" unicode="/" horiz-adv-x="763" 
d="M63 0v20l486 1373h153v-21l-483 -1372h-156z" />
    <glyph glyph-name="zero" unicode="0" 
d="M738 1423q300 0 300 -727t-476 -727t-476 628.5t176 727t476 98.5zM264 696q0 -131 14.5 -236.5t49 -180t93 -114.5t144.5 -40t142.5 40t90 114.5t48 180t14.5 236.5t-14.5 236.5t-48 180.5t-90 115t-142.5 40t-144.5 -40t-93 -115t-49 -180.5t-14.5 -236.5z" />
    <glyph glyph-name="one" unicode="1" 
d="M229 1126v154l314 113h145v-1241h268v-152h-747v152h301v1058h-4l-250 -84h-27z" />
    <glyph glyph-name="two" unicode="2" 
d="M139 1260q175 163 374 163q198 0 318.5 -120.5t120.5 -313.5q0 -129 -48.5 -216.5t-149.5 -203.5l-379 -413v-4h590v-152h-815v143l462 521q89 106 125.5 168t36.5 138q0 138 -68 218t-178 80t-177.5 -38t-125.5 -91z" />
    <glyph glyph-name="three" unicode="3" 
d="M788 378q0 255 -272 255h-213v155h223q173 0 202.5 94.5t29.5 169t-62 145.5t-170 71q-157 0 -317 -72l-53 135q72 41 173 66.5t199 25.5q197 0 302.5 -105.5t105.5 -273.5t-72.5 -237.5t-103.5 -83.5v-4q92 -39 149.5 -128t57.5 -199q0 -201 -126.5 -312t-341.5 -111
t-376 105l59 135q149 -84 333 -84t228.5 98.5t44.5 154.5z" />
    <glyph glyph-name="four" unicode="4" 
d="M711 983h172v-528h157v-152h-157v-303h-172v303h-641v125l393 965h174l-377 -934v-4h451v528z" />
    <glyph glyph-name="five" unicode="5" 
d="M500 690q-127 0 -260 -10l-25 29l76 684h631v-152h-492l-43 -399q62 4 146 4q194 0 315 -103t121 -322t-134 -335.5t-354 -116.5q-119 0 -217 33t-131 49l45 146q161 -72 303 -72q141 0 225.5 68.5t84.5 222.5q0 274 -291 274z" />
    <glyph glyph-name="six" unicode="6" 
d="M566 754q-124 0 -197.5 -83t-73.5 -224t73 -231.5t198 -90.5t198.5 90.5t73.5 230.5q0 141 -74 224.5t-198 83.5zM626 909q74 0 149 -32.5t158 -129t83 -301.5q0 -206 -119.5 -341.5t-329.5 -135.5t-330 134.5t-120 335.5t106 386l316 568h186v-21l-319 -532l4 -4
q27 25 84.5 49t131.5 24z" />
    <glyph glyph-name="seven" unicode="7" 
d="M780 1241h-620v152h807v-138l-447 -1255h-182v20l442 1217v4z" />
    <glyph glyph-name="eight" unicode="8" 
d="M562 807q114 0 171.5 61.5t57.5 168t-57.5 169t-171.5 62.5t-172 -62.5t-58 -169t58 -168t172 -61.5zM1018 366q0 -74 -28.5 -149.5t-117 -161.5t-308.5 -86t-339 113.5t-119 292.5q0 178 91.5 256t136.5 100v4q-180 105 -180 303q0 173 102 279t306 106t305.5 -104.5
t101.5 -288.5t-176 -295v-4q154 -79 189.5 -185t35.5 -180zM563.5 125q143.5 0 210 73.5t66.5 188.5t-66 189.5t-212 74.5t-211.5 -74.5t-65.5 -189.5t67.5 -188.5t211 -73.5z" />
    <glyph glyph-name="nine" unicode="9" 
d="M559 639q125 0 197.5 83t72.5 225t-73 231.5t-197 89.5q-123 0 -197.5 -90t-74.5 -232q0 -141 73.5 -224t198.5 -83zM498 483q-74 0 -149 33t-157.5 128.5t-82.5 303.5q0 207 119.5 341t330.5 134t330 -135t119 -333t-107 -388l-315 -567h-187v20l320 533l-2 2v2
q-27 -25 -86 -49.5t-133 -24.5z" />
    <glyph glyph-name="colon" unicode=":" horiz-adv-x="552" 
d="M154 890q0 56 34 92q35 36 89 36q55 0 89 -36t34 -92t-34 -92t-88 -36t-90 36q-34 36 -34 92zM154 97q0 56 34 92q35 36 89 36q55 0 89 -36t34 -92t-34 -92t-88 -36t-90 36q-34 36 -34 92z" />
    <glyph glyph-name="semicolon" unicode=";" horiz-adv-x="573" 
d="M385 201v-21l-135 -510h-133v21l78 510h190zM176 890q0 56 35 92t89 36t88 -36t34 -92t-34 -92t-88 -36t-89 36t-35 92z" />
    <glyph glyph-name="less" unicode="&#x3c;" 
d="M987 1057v-172l-715 -328v-6l715 -328v-172h-16l-879 432v142l879 432h16z" />
    <glyph glyph-name="equal" unicode="=" 
d="M1010 410v-152h-895v152h895zM115 702v152h895v-152h-895z" />
    <glyph glyph-name="greater" unicode="&#x3e;" 
d="M137 51v172l715 328v6l-715 328v172h17l878 -432v-142l-878 -432h-17z" />
    <glyph glyph-name="question" unicode="?" horiz-adv-x="897" 
d="M283 97q0 56 32.5 92t86.5 36t87 -35.5t33 -91.5t-33 -92.5t-87 -36.5t-86.5 36t-32.5 92zM417 1423q183 0 283.5 -108.5t100.5 -290.5q0 -259 -307 -410l-23 -190h-133v285q153 65 220 129.5t67 177.5t-56 182.5t-155 69.5q-136 0 -275 -107l-73 119q168 143 351 143z
" />
    <glyph glyph-name="at" unicode="@" horiz-adv-x="1849" 
d="M688 477q0 -98 47 -155.5t128 -57.5q117 0 206 64l80 499q-71 66 -191 66q-56 0 -107.5 -37t-107 -127t-55.5 -252zM1239 311q0 -82 94 -82q45 0 94.5 28t114 125t64.5 344t-159 427t-450 180q-176 0 -312 -65.5t-228 -174t-140.5 -252t-48.5 -295.5t45 -280.5
t127 -221.5t199 -146.5t278 -53.5t330 68l45 -117q-176 -82 -426 -82q-148 0 -292 58.5t-303.5 227.5t-159.5 542q0 184 58 351t238.5 369.5t591.5 202.5q180 0 321.5 -60.5t238 -163.5t146.5 -240.5t50 -357.5t-131.5 -382t-302.5 -162q-88 0 -136 41t-71 90h-2
q-144 -106 -282 -106q-137 0 -223.5 92.5t-86.5 289.5q0 196 111 363.5t299 167.5q140 0 264 -98h2l37 74h115l-103 -586q-6 -33 -6 -115z" />
    <glyph glyph-name="A" unicode="A" horiz-adv-x="1218" 
d="M608 1219l-108 -377l-113 -338h442l-108 338l-109 377h-4zM1180 0h-181l-116 360h-547l-119 -360h-178l483 1393h174z" />
    <glyph glyph-name="B" unicode="B" horiz-adv-x="1214" 
d="M369 772h235q135 0 199.5 50t64.5 186q0 135 -65.5 184t-198.5 49h-235v-469zM1100 375q0 -176 -107.5 -275.5t-306.5 -99.5h-489v1393h419q431 0 431 -357q0 -123 -49.5 -204.5t-118.5 -108.5v-4q221 -74 221 -344zM369 152h299q119 0 186.5 53t67.5 183t-69 181.5
t-187 51.5h-297v-469z" />
    <glyph glyph-name="C" unicode="C" horiz-adv-x="1165" 
d="M728 -31q-293 0 -447 199t-154 528t153.5 528t438.5 199q162 0 342 -90l-47 -131q-135 66 -270 66q-134 0 -211.5 -41t-128 -116t-75 -180.5t-24.5 -304t103 -350t311 -151.5q158 0 295 65l47 -131q-181 -90 -333 -90z" />
    <glyph glyph-name="D" unicode="D" horiz-adv-x="1335" 
d="M526 152q288 0 394 127t106 417t-106 417.5t-394 127.5h-157v-1089h157zM197 1393h352q511 0 583 -264.5t72 -433.5q0 -347 -154.5 -521t-500.5 -174h-352v1393z" />
    <glyph glyph-name="E" unicode="E" horiz-adv-x="1140" 
d="M1010 1393v-152h-641v-455h581v-151h-581v-483h647v-152h-819v1393h813z" />
    <glyph glyph-name="F" unicode="F" horiz-adv-x="1095" 
d="M1010 1393v-152h-641v-481h581v-152h-581v-608h-172v1393h813z" />
    <glyph glyph-name="G" unicode="G" horiz-adv-x="1280" 
d="M700 125q171 0 263 65v342l-254 41v111h426v-571q-133 -99 -253 -121.5t-182 -22.5q-285 0 -428 197.5t-143 529.5t143 529.5t447 197.5q133 0 233.5 -42t177.5 -91l-61 -131q-181 109 -350 109q-412 0 -412 -572q0 -408 142.5 -489.5t250.5 -81.5z" />
    <glyph glyph-name="H" unicode="H" horiz-adv-x="1372" 
d="M1004 635h-635v-635h-172v1393h172v-607h635v607h172v-1393h-172v635z" />
    <glyph glyph-name="I" unicode="I" horiz-adv-x="565" 
d="M369 0h-172v1393h172v-1393z" />
    <glyph glyph-name="J" unicode="J" horiz-adv-x="909" 
d="M336 125q115 0 165 67.5t50 235.5v965h172v-979q0 -231 -99.5 -338t-269.5 -107q-94 0 -173 46t-130 104l86 112q41 -37 89 -71.5t110 -34.5z" />
    <glyph glyph-name="K" unicode="K" horiz-adv-x="1169" 
d="M369 637v-637h-172v1393h172v-686h4l528 686h199v-21l-553 -690l577 -662v-20h-215l-536 637h-4z" />
    <glyph glyph-name="L" unicode="L" horiz-adv-x="1024" 
d="M369 1393v-1241h585v-152h-757v1393h172z" />
    <glyph glyph-name="M" unicode="M" horiz-adv-x="1646" 
d="M1450 1393v-1393h-172v874l20 240h-4l-407 -764h-127l-408 764h-4l21 -240v-874h-172v1393h163l349 -602l112 -263h2l113 263l350 602h164z" />
    <glyph glyph-name="N" unicode="N" horiz-adv-x="1388" 
d="M1020 1393h172v-1393h-180l-656 1135h-4l17 -261v-874h-172v1393h180l655 -1135h4l-16 260v875z" />
    <glyph glyph-name="O" unicode="O" horiz-adv-x="1392" 
d="M1264 696.5q0 -153.5 -32 -287t-99.5 -231.5t-175 -153.5t-259 -55.5t-260 55.5t-177 153.5t-100.5 231.5t-32 287t32 286.5t100.5 231.5t177 153.5t260 55t259 -55t175 -153.5t99.5 -231.5t32 -286.5zM696 1268q-389 0 -389 -488t139.5 -571.5t389 -83.5t249.5 571.5
t-389 571.5z" />
    <glyph glyph-name="P" unicode="P" horiz-adv-x="1150" 
d="M371 696h250q135 0 199.5 76t64.5 196t-64.5 196.5t-199.5 76.5h-250v-545zM197 0v1393h438q205 0 316.5 -110t111.5 -312.5t-111.5 -314t-316.5 -111.5h-264v-545h-174z" />
    <glyph glyph-name="Q" unicode="Q" horiz-adv-x="1392" 
d="M696 1268q-389 0 -389 -488t139.5 -571.5t389 -83.5t249.5 571.5t-389 571.5zM268.5 168.5q-139.5 199.5 -139.5 527.5t138.5 527.5t430.5 199.5t429 -200t137 -527q0 -227 -70 -402t-223 -261l336 -158l-76 -156l-486 252l-47 -2q-290 0 -429.5 199.5z" />
    <glyph glyph-name="R" unicode="R" horiz-adv-x="1251" 
d="M668 756q123 0 187.5 62.5t64.5 179t-64.5 180t-187.5 63.5h-299v-485h299zM197 0v1393h481q195 0 307.5 -99.5t112.5 -279.5t-82 -276.5t-223 -123.5l385 -581v-33h-189l-389 604h-231v-604h-172z" />
    <glyph glyph-name="S" unicode="S" horiz-adv-x="1034" 
d="M750 347q0 101 -49.5 155.5t-159.5 101.5l-117 49q-129 55 -212 145t-83 244t113.5 267.5t305.5 113.5t349 -106l-74 -135q-138 86 -270 86q-131 0 -188.5 -68t-57.5 -150t37 -135t139 -96l117 -51q168 -73 248 -163.5t80 -250.5t-114.5 -272.5t-301.5 -112.5
q-228 0 -412 148l80 135q142 -127 332 -127q106 0 172 60.5t66 161.5z" />
    <glyph glyph-name="T" unicode="T" horiz-adv-x="1071" 
d="M997 1393v-152h-374v-1241h-177v1241h-372v152h923z" />
    <glyph glyph-name="U" unicode="U" horiz-adv-x="1355" 
d="M356 1393v-877q0 -284 120 -337.5t321.5 -53.5t201.5 391v877h172v-899q0 -246 -118.5 -385.5t-374.5 -139.5t-375 139.5t-119 387.5v897h172z" />
    <glyph glyph-name="V" unicode="V" horiz-adv-x="1214" 
d="M43 1393h180l279 -842l104 -381h4l105 383l274 840h182v-21l-479 -1372h-172l-477 1372v21z" />
    <glyph glyph-name="W" unicode="W" horiz-adv-x="1869" 
d="M66 1393h178l207 -840l73 -346h4l82 346l234 840h182l234 -840l81 -346h5l73 346l207 840h180v-21l-370 -1372h-174l-242 874l-82 351h-6l-82 -351l-240 -874h-176l-368 1372v21z" />
    <glyph glyph-name="X" unicode="X" horiz-adv-x="1132" 
d="M1065 1393v-21l-391 -676l391 -676v-20h-184l-314 569h-4l-311 -569h-184v20l389 676l-389 676v21h184l311 -572h4l314 572h184z" />
    <glyph glyph-name="Y" unicode="Y" horiz-adv-x="1081" 
d="M1053 1393v-21l-426 -782v-590h-172v590l-424 782v21h184l324 -633h4l327 633h183z" />
    <glyph glyph-name="Z" unicode="Z" horiz-adv-x="1067" 
d="M958 1393v-146l-651 -1091v-4h651v-152h-864v145l649 1092v4h-616v152h831z" />
    <glyph glyph-name="bracketleft" unicode="[" horiz-adv-x="663" 
d="M580 1434v-97l-228 -47v-1552l228 -47v-97h-400v1840h400z" />
    <glyph glyph-name="backslash" unicode="\" horiz-adv-x="763" 
d="M61 1393h154l485 -1373v-20h-155l-484 1372v21z" />
    <glyph glyph-name="bracketright" unicode="]" horiz-adv-x="663" 
d="M483 1434v-1840h-399v97l227 47v1552l-227 47v97h399z" />
    <glyph glyph-name="asciicircum" unicode="^" horiz-adv-x="966" 
d="M887 762h-156l-242 495h-8l-241 -495h-156v20l340 652h125l338 -652v-20z" />
    <glyph glyph-name="underscore" unicode="_" horiz-adv-x="962" 
d="M154 -180v135h655v-135h-655z" />
    <glyph glyph-name="grave" unicode="`" horiz-adv-x="1110" 
d="M401 1454h187l121 -248v-20h-146l-162 248v20z" />
    <glyph glyph-name="a" unicode="a" horiz-adv-x="1011" 
d="M96 268q0 310 389 310h201v63q0 167 -78 200t-133 33q-152 0 -262 -83l-70 116q143 111 334 111q192 0 284.5 -102.5t92.5 -278.5v-637h-123l-16 90h-4q-149 -121 -301 -121t-233 78t-81 221zM500 459q-232 0 -232 -191q0 -72 39 -113.5t115 -41.5t138.5 15t125.5 69v262
h-186z" />
    <glyph glyph-name="b" unicode="b" horiz-adv-x="1118" 
d="M338 918q120 100 284 100q191 0 287.5 -146.5t96.5 -377.5q0 -361 -141 -443t-217 -82q-119 0 -191.5 33.5t-147.5 87.5h-2l-20 -90h-121v1434h168v-516h4zM334 203q94 -90 237 -90q263 0 263 322.5t-91.5 380.5t-162.5 58q-152 0 -246 -90v-581z" />
    <glyph glyph-name="c" unicode="c" horiz-adv-x="948" 
d="M111 493.5q0 239.5 115.5 382t330.5 142.5q148 0 291 -74l-45 -125q-125 55 -219 55q-93 0 -146 -31.5t-88 -83.5t-51 -122t-16 -187.5t73 -227t197 -109.5t250 55l45 -125q-141 -74 -271 -74q-131 0 -214.5 39t-167.5 142.5t-84 343z" />
    <glyph glyph-name="d" unicode="d" horiz-adv-x="1118" 
d="M494 1018q168 0 286 -100h4v516h168v-1434h-118l-19 90h-4q-152 -121 -329 -121t-273 147.5t-96 377.5q0 360 140 442t241 82zM784 784q-90 90 -233 90t-204.5 -106t-61.5 -321t91 -274.5t163 -59.5q155 0 245 90v581z" />
    <glyph glyph-name="e" unicode="e" horiz-adv-x="1046" 
d="M778 591v34q0 172 -91 210.5t-149 38.5q-110 0 -179.5 -84t-77.5 -212h495q2 10 2 13zM942 595q0 -79 -10 -144h-660q0 -142 85.5 -240t222.5 -98q138 0 262 90l63 -125q-150 -109 -360 -109t-322 149t-112 371t111.5 375.5t314.5 153.5t304 -123t101 -300z" />
    <glyph glyph-name="f" unicode="f" horiz-adv-x="716" 
d="M528 1300q-127 0 -127 -157v-156h248v-137h-248v-850h-168v850h-161v98l161 39v135q0 322 279 322q65 0 137 -12v-146q-64 14 -121 14z" />
    <glyph glyph-name="g" unicode="g" horiz-adv-x="1118" 
d="M780 76q-122 -101 -282 -101q-192 0 -288.5 147.5t-96.5 375.5q0 358 141 439t242 81q158 0 313 -121h4l23 90h116v-999q0 -191 -109 -307.5t-295 -116.5t-337 71l45 123q116 -55 285 -55q111 0 177 68.5t66 197.5v107h-4zM784 784q-90 90 -235 90q-264 0 -264 -320
t91 -376.5t163 -56.5q159 0 245 90v573z" />
    <glyph glyph-name="h" unicode="h" horiz-adv-x="1118" 
d="M632 1018q154 0 241.5 -93.5t87.5 -281.5v-643h-168v614q0 260 -205 260q-103 0 -169.5 -35.5t-84.5 -50.5v-788h-168v1434h168v-514h4q141 98 294 98z" />
    <glyph glyph-name="i" unicode="i" horiz-adv-x="499" 
d="M143 1295q0 52 29 83t79 31t78.5 -30.5t28.5 -82.5t-28.5 -82t-78.5 -30t-79 29.5t-29 81.5zM166 0v987h168v-987h-168z" />
    <glyph glyph-name="j" unicode="j" horiz-adv-x="499" 
d="M143 1295q0 52 29 83t79 31t78.5 -30.5t28.5 -82.5t-28.5 -82t-78.5 -30t-79 29.5t-29 81.5zM49 -297q117 0 117 170v1114h168v-1110q0 -227 -100.5 -270t-165.5 -43t-131 14v133q46 -8 112 -8z" />
    <glyph glyph-name="k" unicode="k" horiz-adv-x="989" 
d="M334 459v-459h-168v1434h168v-906h4l387 459h195v-14l-420 -475l434 -482v-16h-207l-389 459h-4z" />
    <glyph glyph-name="l" unicode="l" horiz-adv-x="516" 
d="M174 0v1434h168v-1434h-168z" />
    <glyph glyph-name="m" unicode="m" horiz-adv-x="1728" 
d="M627 1018q191 0 270 -131h4q177 131 332 131q338 0 338 -375v-643h-168v614q0 129 -44 194.5t-167 65.5t-250 -110q10 -58 10 -121v-643h-168v614q0 129 -38.5 194.5t-162.5 65.5t-249 -88v-786h-168v987h115l18 -90h6q174 121 322 121z" />
    <glyph glyph-name="n" unicode="n" horiz-adv-x="1118" 
d="M793 614q0 260 -205 260q-95 0 -165.5 -36.5t-88.5 -51.5v-786h-168v987h119l20 -90h4q88 71 180.5 96t141.5 25q154 0 242 -93.5t88 -281.5v-643h-168v614z" />
    <glyph glyph-name="o" unicode="o" horiz-adv-x="1116" 
d="M894 116q-112 -147 -337 -147t-335.5 145t-110.5 380q0 362 162.5 443t282.5 81t205 -42t165 -146.5t80 -335.5t-112 -378zM283 493.5q0 -75.5 14 -145t46 -122t84 -83t128 -30.5t129 30.5t87 83t48.5 122t14.5 145t-14.5 145.5t-48.5 122t-87 82.5t-129 30.5t-128 -30.5
t-84 -82.5t-46 -122t-14 -145.5z" />
    <glyph glyph-name="p" unicode="p" horiz-adv-x="1118" 
d="M1006 494q0 -361 -139.5 -443t-239.5 -82q-174 0 -289 101h-4v-476h-168v1393h119l20 -90h2q152 121 330 121t273.5 -145t95.5 -379zM334 203q90 -90 235 -90q265 0 265 321.5t-90.5 380.5t-161.5 59q-158 0 -248 -90v-581z" />
    <glyph glyph-name="q" unicode="q" horiz-adv-x="1118" 
d="M952 -406h-168v476h-4q-66 -53 -130 -77t-160 -24q-188 0 -282.5 146t-94.5 379q0 362 140 443t216 81q119 0 192.5 -33t149.5 -88h4l21 90h116v-1393zM285 447.5q0 -217.5 91 -276t161 -58.5q161 0 247 90v581q-86 90 -248 90q-131 0 -191 -104.5t-60 -322z" />
    <glyph glyph-name="r" unicode="r" horiz-adv-x="714" 
d="M525 866q-126 0 -191 -131v-735h-168v987h119l20 -104h4q61 94 137 114.5t124 20.5q47 0 89 -14l-24 -150q-46 12 -110 12z" />
    <glyph glyph-name="s" unicode="s" horiz-adv-x="880" 
d="M608 259q0 58 -32.5 90t-100.5 54l-110 37q-121 41 -185.5 105.5t-64.5 183.5t93.5 204t249.5 85t304 -70l-55 -135q-120 61 -229 61t-150 -46t-41 -100t29.5 -87t99.5 -55l108 -33q256 -74 256 -287q0 -130 -94 -213.5t-251 -83.5q-158 0 -230 36t-107 58l60 134
q127 -84 268 -84q94 0 138 44t44 102z" />
    <glyph glyph-name="t" unicode="t" horiz-adv-x="747" 
d="M502 -31q-113 0 -182.5 65.5t-69.5 203.5v612h-182v98l182 39v230h168v-230h262v-137h-262v-594q0 -82 35 -112.5t79 -30.5t85.5 10t62.5 14v-139q-105 -29 -178 -29z" />
    <glyph glyph-name="u" unicode="u" horiz-adv-x="1105" 
d="M476 -31q-149 0 -233.5 93.5t-84.5 281.5v643h168v-614q0 -129 46 -194.5t150 -65.5q70 0 144 30.5t106 57.5v786h168v-987h-119l-18 90h-4q-174 -121 -323 -121z" />
    <glyph glyph-name="v" unicode="v" horiz-adv-x="985" 
d="M59 987h166l211 -625l53 -190h5l53 190l213 625h166v-20l-353 -967h-159l-355 967v20z" />
    <glyph glyph-name="w" unicode="w" horiz-adv-x="1570" 
d="M66 987h170l182 -625l41 -180h4l43 180l192 625h172l195 -625l43 -180h4l41 180l182 625h170v-20l-309 -967h-162l-203 639l-45 184h-4l-45 -184l-200 -639h-162l-309 967v20z" />
    <glyph glyph-name="x" unicode="x" horiz-adv-x="960" 
d="M72 0v20l311 474l-311 473v20h174l233 -389h4l232 389h174v-20l-311 -473l311 -474v-20h-174l-232 387h-4l-233 -387h-174z" />
    <glyph glyph-name="y" unicode="y" horiz-adv-x="985" 
d="M214 -297q60 0 96 46t65 128l45 133l-365 957v20h166l215 -625l58 -194h4l53 194l207 625h164v-20l-379 -1100q-53 -156 -130 -229.5t-184 -73.5q-72 0 -166 26v138q91 -25 151 -25z" />
    <glyph glyph-name="z" unicode="z" horiz-adv-x="874" 
d="M772 987v-102l-475 -746v-4h475v-135h-682v102l475 746v4h-448v135h655z" />
    <glyph glyph-name="braceleft" unicode="{" horiz-adv-x="671" 
d="M403 272v-374q0 -118 36 -157.5t143 -39.5v-107h-37q-262 0 -285.5 116t-23.5 184v397q0 82 -36 114.5t-110 32.5v152q74 0 110 32.5t36 114.5v398q0 150 63.5 224.5t245.5 74.5h37v-107q-107 0 -143 -39.5t-36 -157.5v-374q0 -189 -145 -240v-4q145 -51 145 -240z" />
    <glyph glyph-name="bar" unicode="|" horiz-adv-x="495" 
d="M315 -406h-135v1840h135v-1840z" />
    <glyph glyph-name="braceright" unicode="}" horiz-adv-x="671" 
d="M268 756v374q0 116 -35.5 156.5t-142.5 40.5v107h37q262 0 285.5 -116t23.5 -183v-398q0 -82 36 -114.5t110 -32.5v-152q-74 0 -110 -32.5t-36 -114.5v-397q0 -151 -64 -225.5t-245 -74.5h-37v107q107 0 142.5 40.5t35.5 156.5v374q0 191 146 240v4q-146 49 -146 240z
" />
    <glyph glyph-name="asciitilde" unicode="~" horiz-adv-x="1001" 
d="M348 551q-81 0 -158 -117l-67 96q56 107 121 135.5t109 28.5q65 0 164 -66.5t147 -66.5q47 0 79.5 15.5t69.5 66.5l68 -98q-90 -127 -222 -127q-58 0 -162 66.5t-149 66.5z" />
    <glyph glyph-name="uni00A0" unicode="&#xa0;" horiz-adv-x="501" 
 />
    <glyph glyph-name="exclamdown" unicode="&#xa1;" horiz-adv-x="507" 
d="M373 890q0 -56 -33 -92t-87 -36t-86 36t-32 92t32 92t86 36t87 -36t33 -92zM342 -406h-172v355l31 614h108l33 -614v-355z" />
    <glyph glyph-name="cent" unicode="&#xa2;" 
d="M369 493.5q0 -136.5 49 -235t145 -133.5v735q-94 -31 -144 -130.5t-50 -236zM698 -197h-135v172q-184 27 -275 167.5t-91 351.5q0 329 137 417t229 101v172h135v-170q128 -13 236 -70l-45 -125q-81 39 -191 51v-755q105 11 191 53l45 -125q-94 -54 -236 -70v-170z" />
    <glyph glyph-name="sterling" unicode="&#xa3;" 
d="M496 394q0 -72 -35 -140t-72 -98v-4h590v-152h-805v127q64 56 104.5 113t40.5 137t-16 237h-162v136h148q-21 151 -21 259q0 193 110.5 303.5t278.5 110.5t316 -88l-55 -131q-76 37 -130.5 50.5t-135.5 13.5t-144.5 -60.5t-63.5 -165.5t23 -292h356v-136h-342
q15 -148 15 -220z" />
    <glyph glyph-name="currency" unicode="&#xa4;" horiz-adv-x="1165" 
d="M433 389q48 -67 134 -67q135 0 163 92t28 138q0 95 -49 163.5t-139 68.5t-137.5 -67t-47.5 -164t48 -164zM229 551q0 128 52 219l-168 180l100 101l166 -170q75 51 195 51t202 -64l174 181l101 -101l-183 -192q43 -92 43 -205t-45 -203l183 -188l-101 -101l-174 177
q-84 -62 -202 -62t-191 49l-164 -166l-100 101l164 174q-52 91 -52 219z" />
    <glyph glyph-name="yen" unicode="&#xa5;" 
d="M1016 631h-371v-203h371v-135h-371v-293h-172v293h-364v135h364v203h-364v135h286l-346 606v21h184l324 -592h4l328 592h182v-21l-348 -606h293v-135z" />
    <glyph glyph-name="brokenbar" unicode="&#xa6;" horiz-adv-x="507" 
d="M186 754v680h136v-680h-136zM322 274v-680h-136v680h136z" />
    <glyph glyph-name="section" unicode="&#xa7;" horiz-adv-x="1073" 
d="M946 506q0 -151 -158 -268v-5q72 -47 115 -113.5t43 -143.5q0 -155 -112 -249t-304 -94q-133 0 -227 35t-182 88l74 150q70 -47 151.5 -82t185.5 -35t169 49t65 131q0 53 -42 93t-124 77l-188 82q-269 114 -269 300t160 284v6q-160 96 -160 255t109.5 258t301.5 99
t355 -90l-67 -143q-72 37 -135 57.5t-165 20.5t-161 -55t-59 -117t36.5 -103t139.5 -88l172 -80q276 -126 276 -319zM434 743q-112 -57 -112 -176t151 -184l184 -82q111 66 111 181t-154 182z" />
    <glyph glyph-name="dieresis" unicode="&#xa8;" horiz-adv-x="1110" 
d="M256 1295q0 52 28.5 83t78.5 31t79 -30.5t29 -82.5t-28.5 -82t-78.5 -30t-79 29.5t-29 81.5zM631 1295q0 52 28.5 83t78.5 31t79 -30.5t29 -82.5t-29 -82t-79 -30t-78.5 29.5t-28.5 81.5z" />
    <glyph glyph-name="copyright" unicode="&#xa9;" horiz-adv-x="1695" 
d="M850 297q-186 0 -282.5 109.5t-96.5 290t96.5 290t282.5 109.5q113 0 221 -49l-39 -115q-86 39 -191 39q-104 0 -162 -75t-58 -200t58 -199.5t162 -74.5t191 39l39 -115q-104 -49 -221 -49zM236 696q0 -131 46 -244.5t128 -196.5t194.5 -130t243.5 -47t243.5 47
t194.5 130t128 196.5t46 244.5t-46 245t-128 197t-194.5 130t-243.5 47t-243.5 -47t-194.5 -130t-128 -197t-46 -245zM121 696.5q0 153.5 55 286.5t153.5 231.5t231.5 153.5t286.5 55t287 -55t231.5 -153.5t153.5 -231.5t55.5 -286.5t-55.5 -287t-153.5 -231.5
t-231.5 -153.5t-287 -55.5t-286.5 55.5t-231.5 153.5t-153.5 231.5t-55 287z" />
    <glyph glyph-name="ordfeminine" unicode="&#xaa;" horiz-adv-x="839" 
d="M162 436v121h500v-121h-500zM353 698q-95 0 -147 52t-52 152t74.5 144t195.5 44h96v30q0 117 -114 117q-93 0 -181 -47l-41 106q99 62 224 62t189.5 -65.5t64.5 -184.5v-391h-105l-18 55h-2q-89 -74 -184 -74zM381 819q73 0 139 47v125h-78q-149 0 -149 -86t88 -86z" />
    <glyph glyph-name="guillemotleft" unicode="&#xab;" horiz-adv-x="1009" 
d="M96 565l289 428l117 -78l-217 -362l217 -363l-117 -77l-289 428v24zM489 565l289 428l117 -78l-217 -362l217 -363l-117 -77l-289 428v24z" />
    <glyph glyph-name="logicalnot" unicode="&#xac;" 
d="M866 477h-755v152h895v-412h-140v260z" />
    <glyph glyph-name="uni00AD" unicode="&#xad;" horiz-adv-x="847" 
d="M154 477v152h540v-152h-540z" />
    <glyph glyph-name="registered" unicode="&#xae;" horiz-adv-x="1175" 
d="M588 1188q39 0 57.5 11t18.5 44t-18.5 43t-57.5 10h-80v-108h80zM760 1245q0 -114 -101 -133l129 -170v-10h-104l-125 174h-51v-174h-96v446h190q78 0 118 -35.5t40 -97.5zM217 1149q0 -80 27.5 -148.5t78 -119t118 -79t147.5 -28.5t147.5 28.5t117.5 79t77.5 119
t27.5 148.5t-27.5 148.5t-77.5 119.5t-117.5 80t-147.5 29t-147.5 -29t-118 -80t-78 -119.5t-27.5 -148.5zM921 1482q134 -136 134 -334q0 -197 -134.5 -331.5t-333.5 -134.5t-332.5 135t-133.5 331q0 197 133 333.5t333 136.5t334 -136z" />
    <glyph glyph-name="macron" unicode="&#xaf;" horiz-adv-x="1110" 
d="M305 1223v151h498v-151h-498z" />
    <glyph glyph-name="degree" unicode="&#xb0;" horiz-adv-x="856" 
d="M204 1338q89 85 225 85t224 -84t88 -225.5t-88.5 -228t-223.5 -86.5t-224.5 87.5t-89.5 227t89 224.5zM258 1113q0 -77 50 -127t122 -50t122 50t50 127t-50 125t-122 48t-122 -48t-50 -125z" />
    <glyph glyph-name="plusminus" unicode="&#xb1;" 
d="M1010 152v-152h-895v152h895zM633 874h377v-151h-377v-358h-146v358h-372v151h372v398h146v-398z" />
    <glyph glyph-name="uni00B2" unicode="&#xb2;" horiz-adv-x="616" 
d="M68 1552q103 103 216 103t180 -59q68 -59 68 -149q0 -89 -32 -141t-74 -87l-168 -148v-2h283v-123h-471v105l260 239q66 58 66 124t-35 91q-34 25 -76 25q-69 0 -148 -76z" />
    <glyph glyph-name="uni00B3" unicode="&#xb3;" horiz-adv-x="618" 
d="M424 1307q119 -41 119 -185q0 -80 -68 -136t-195 -56t-223 53l35 117q92 -45 178 -45q138 0 138 96q0 45 -34 63t-100 19h-114v123h114q63 0 90 24q26 25 25 62q0 88 -113 88q-87 0 -163 -35l-39 113q84 45 204 46t184 -51q64 -51 64 -129t-32 -116t-70 -49v-2z" />
    <glyph glyph-name="acute" unicode="&#xb4;" horiz-adv-x="1110" 
d="M401 1186v20l121 248h187v-20l-162 -248h-146z" />
    <glyph glyph-name="mu" unicode="&#xb5;" horiz-adv-x="1105" 
d="M348 -406h-168v1393h168v-614q0 -129 46 -194.5t145 -65.5t168 36.5t88 51.5v786h168v-987h-119l-19 90h-4q-174 -121 -317 -121q-90 0 -172 58l16 -148v-285z" />
    <glyph glyph-name="paragraph" unicode="&#xb6;" horiz-adv-x="1038" 
d="M336 852q-115 0 -189.5 70.5t-74.5 198t73.5 200t190.5 72.5h631v-125h-176v-1674h-138v1674h-180v-1674h-137v1258z" />
    <glyph glyph-name="periodcentered" unicode="&#xb7;" horiz-adv-x="524" 
d="M139 589q0 56 35 92t89 36t88 -36t34 -92t-34 -92t-88 -36t-89 36t-35 92z" />
    <glyph glyph-name="cedilla" unicode="&#xb8;" horiz-adv-x="1110" 
d="M590 -246q0 76 -117 76l-10 20l55 164h127l-43 -112q59 -10 96 -47t37 -101q0 -104 -63.5 -147t-150.5 -43t-148 28l26 113q50 -22 97 -22t70.5 15t23.5 56z" />
    <glyph glyph-name="uni00B9" unicode="&#xb9;" horiz-adv-x="501" 
d="M49 1409v119l242 110h98v-692h-131v545h-2l-193 -82h-14z" />
    <glyph glyph-name="ordmasculine" unicode="&#xba;" horiz-adv-x="851" 
d="M176 436v121h498v-121h-498zM727 1028.5q0 -144.5 -78 -237.5t-223 -93t-223 93t-78 277t111.5 237t188.5 53t134 -26.5t112.5 -92.5t55.5 -210.5zM582 1028q0 201 -156 201t-156 -201t156 -201t156 201z" />
    <glyph glyph-name="guillemotright" unicode="&#xbb;" horiz-adv-x="1009" 
d="M520 541l-289 -428l-116 77l217 363l-217 362l116 78l289 -428v-24zM913 541l-288 -428l-117 77l217 363l-217 362l117 78l288 -428v-24z" />
    <glyph glyph-name="onequarter" unicode="&#xbc;" horiz-adv-x="1406" 
d="M1096 489h133v-221h78v-121h-78v-147h-133v147h-336v107l182 438h141l-174 -422v-2h187v221zM90 1163v119l242 111h98v-693h-131v545h-2l-193 -82h-14zM164 0v20l915 1373h156v-21l-916 -1372h-155z" />
    <glyph glyph-name="onehalf" unicode="&#xbd;" horiz-adv-x="1437" 
d="M90 1159v119l242 111h98v-693h-131v545h-2l-193 -82h-14zM1040 123h283v-123h-471v104l260 240q66 58 66 124t-34 91t-77 25q-71 0 -147 -76l-70 98q100 100 214 102q114 1 182 -58q67 -59 68 -149t-32 -142t-74 -87l-168 -147v-2zM162 0v20l915 1373h156v-21l-916 -1372
h-155z" />
    <glyph glyph-name="threequarters" unicode="&#xbe;" horiz-adv-x="1499" 
d="M1188 489h133v-221h78v-121h-78v-147h-133v147h-336v107l182 438h142l-175 -422v-2h187v221zM465 1055q119 -41 119 -185q0 -80 -68 -136t-196 -56t-222 53l35 117q92 -45 178 -45q138 0 138 96q0 45 -34 63t-100 19h-114v123h114q115 0 115 87t-113 87q-89 0 -163 -35
l-39 113q88 47 206 47q119 0 183 -52q64 -51 64 -129t-34 -116q-32 -38 -69 -49v-2zM256 0v20l915 1373h156v-21l-915 -1372h-156z" />
    <glyph glyph-name="questiondown" unicode="&#xbf;" horiz-adv-x="884" 
d="M608 890q0 -56 -33 -92t-87 -36t-86.5 36t-32.5 92t32.5 92t86.5 36t87 -36t33 -92zM468 -436q-177 0 -277.5 108.5t-100.5 290.5q0 259 307 410l23 190h133v-284q-153 -66 -220 -131t-67 -177t56 -182t155 -70q136 0 275 107l73 -119q-180 -143 -357 -143z" />
    <glyph glyph-name="Agrave" unicode="&#xc0;" horiz-adv-x="1218" 
d="M387 1808h184l123 -247v-21h-145l-162 248v20zM608 1219l-108 -377l-113 -338h442l-108 338l-109 377h-4zM1180 0h-181l-116 360h-547l-119 -360h-178l483 1393h174z" />
    <glyph glyph-name="Aacute" unicode="&#xc1;" horiz-adv-x="1218" 
d="M608 1219l-108 -377l-113 -338h442l-108 338l-109 377h-4zM1180 0h-181l-116 360h-547l-119 -360h-178l483 1393h174zM528 1540v21l123 247h185v-20l-162 -248h-146z" />
    <glyph glyph-name="Acircumflex" unicode="&#xc2;" horiz-adv-x="1218" 
d="M608 1219l-108 -377l-113 -338h442l-108 338l-109 377h-4zM1180 0h-181l-116 360h-547l-119 -360h-178l483 1393h174zM881 1540h-154l-119 146l-119 -146h-153v21l176 247h193l176 -247v-21z" />
    <glyph glyph-name="Atilde" unicode="&#xc3;" horiz-adv-x="1218" 
d="M608 1219l-108 -377l-113 -338h442l-108 338l-109 377h-4zM1180 0h-181l-116 360h-547l-119 -360h-178l483 1393h174zM319 1673q77 117 147 117t150 -41q81 -41 119 -41q63 0 111 72l51 -103q-35 -51 -75 -84q-67 -55 -157 -20q-32 13 -89 41t-107 28t-98 -71z" />
    <glyph glyph-name="Adieresis" unicode="&#xc4;" horiz-adv-x="1218" 
d="M608 1219l-108 -377l-113 -338h442l-108 338l-109 377h-4zM1180 0h-181l-116 360h-547l-119 -360h-178l483 1393h174zM709 1670q0 52 28 83q29 31 79 31t79 -31t29 -83t-29 -82t-79 -30t-79 30q-28 30 -28 82zM293 1670q0 52 29 83q28 31 78 31t79 -31t29 -83t-29 -82
t-79 -30t-78 30t-29 82z" />
    <glyph glyph-name="Aring" unicode="&#xc5;" horiz-adv-x="1218" 
d="M612 1556q-82 0 -82 -60t22.5 -80.5t59.5 -20.5t59.5 20.5t22.5 80.5t-82 60zM608 1219l-108 -377l-113 -338h442l-108 338l-109 377h-4zM420 1468q0 101 53 150t139 49t138.5 -48.5t52.5 -122.5q0 -130 -80 -181l457 -1315h-181l-116 360h-547l-119 -360h-178l457 1315
q-76 52 -76 153z" />
    <glyph glyph-name="AE" unicode="&#xc6;" horiz-adv-x="1740" 
d="M797 504v401l20 314h-4l-145 -291l-228 -424h357zM1610 1393v-152h-641v-455h581v-151h-581v-483h647v-152h-819v360h-435l-198 -360h-164v20l745 1373h865z" />
    <glyph glyph-name="Ccedilla" unicode="&#xc7;" horiz-adv-x="1165" 
d="M686 -246q0 76 -115 76l-10 20l39 130q-226 39 -348.5 230.5t-122.5 503.5q0 311 153.5 510t438.5 199q162 0 342 -90l-47 -131q-135 66 -270 66q-134 0 -211.5 -41t-128 -116t-75 -180.5t-24.5 -304t103 -350t311 -151.5q158 0 295 65l47 -131q-172 -86 -340 -90
l-23 -67q59 -10 96.5 -47t37.5 -101q0 -104 -63.5 -147t-152.5 -43t-147 28l25 113q50 -22 97 -22q48 0 70.5 15t22.5 56z" />
    <glyph glyph-name="Egrave" unicode="&#xc8;" horiz-adv-x="1140" 
d="M1010 1393v-152h-641v-455h581v-151h-581v-483h647v-152h-819v1393h813zM377 1808h184l123 -247v-21h-145l-162 248v20z" />
    <glyph glyph-name="Eacute" unicode="&#xc9;" horiz-adv-x="1140" 
d="M1010 1393v-152h-641v-455h581v-151h-581v-483h647v-152h-819v1393h813zM526 1540v21l123 247h185v-20l-162 -248h-146z" />
    <glyph glyph-name="Ecircumflex" unicode="&#xca;" horiz-adv-x="1140" 
d="M1010 1393v-152h-641v-455h581v-151h-581v-483h647v-152h-819v1393h813zM885 1540h-154l-119 146l-118 -146h-154v21l176 247h193l176 -247v-21z" />
    <glyph glyph-name="Edieresis" unicode="&#xcb;" horiz-adv-x="1140" 
d="M1010 1393v-152h-641v-455h581v-151h-581v-483h647v-152h-819v1393h813zM696 1670q0 52 29 83t79 31t79 -31t29 -83t-30 -82q-28 -30 -78 -30t-79 30t-29 82zM281 1670q0 52 28 83q29 31 79 31t79 -31t29 -83t-29 -82t-79 -30t-79 30q-28 30 -28 82z" />
    <glyph glyph-name="Igrave" unicode="&#xcc;" horiz-adv-x="565" 
d="M369 0h-172v1393h172v-1393zM49 1808h184l123 -247v-21h-145l-162 248v20z" />
    <glyph glyph-name="Iacute" unicode="&#xcd;" horiz-adv-x="565" 
d="M369 0h-172v1393h172v-1393zM205 1540v21l123 247h184v-20l-162 -248h-145z" />
    <glyph glyph-name="Icircumflex" unicode="&#xce;" horiz-adv-x="565" 
d="M369 0h-172v1393h172v-1393zM545 1540h-154l-119 146l-118 -146h-154v21l176 247h193l176 -247v-21z" />
    <glyph glyph-name="Idieresis" unicode="&#xcf;" horiz-adv-x="565" 
d="M369 0h-172v1393h172v-1393zM375 1670q0 52 28 83q29 31 79 31t79 -31t29 -83t-29 -82t-79 -30t-79 30q-28 30 -28 82zM-41 1670q0 52 29 83t79 31q51 0 79 -31t28 -83t-29 -82t-79 -30t-78 30q-29 30 -29 82z" />
    <glyph glyph-name="Eth" unicode="&#xd0;" horiz-adv-x="1341" 
d="M532 152q288 0 394 127t106 417t-106 417.5t-394 127.5h-157v-477h282v-152h-282v-460h157zM82 764h121v629h352q511 0 583 -264.5t72 -433.5q0 -347 -154.5 -521t-500.5 -174h-352v612h-121v152z" />
    <glyph glyph-name="Ntilde" unicode="&#xd1;" horiz-adv-x="1388" 
d="M1020 1393h172v-1393h-180l-656 1135h-4l17 -261v-874h-172v1393h180l655 -1135h4l-16 260v875zM397 1673q77 117 147 117t150 -41q81 -41 119 -41q61 0 111 72l51 -103q-81 -117 -150 -117q-70 1 -150 42q-80 40 -118 40q-61 0 -108 -71z" />
    <glyph glyph-name="Ograve" unicode="&#xd2;" horiz-adv-x="1392" 
d="M129 696q0 512 309 672q108 55 260 55q291 0 435 -209q131 -189 131 -516t-137 -527t-429 -201t-437 208q-132 187 -132 518zM698 125q387 0 387 571q0 405 -200 527q-74 45 -187 45q-114 0 -188 -45q-204 -123 -203 -527q0 -257 84 -403q97 -168 307 -168zM485 1808h185
l123 -247v-21h-146l-162 248v20z" />
    <glyph glyph-name="Oacute" unicode="&#xd3;" horiz-adv-x="1392" 
d="M129 696q0 512 309 672q108 55 260 55q291 0 435 -209q131 -189 131 -516t-137 -527t-429 -201t-437 208q-132 187 -132 518zM698 125q387 0 387 571q0 405 -200 527q-74 45 -187 45q-114 0 -188 -45q-204 -123 -203 -527q0 -257 84 -403q97 -168 307 -168zM623 1540v21
l122 247h185v-20l-162 -248h-145z" />
    <glyph glyph-name="Ocircumflex" unicode="&#xd4;" horiz-adv-x="1392" 
d="M129 696q0 512 309 672q108 55 260 55q291 0 435 -209q131 -189 131 -516t-137 -527t-429 -201t-437 208q-132 187 -132 518zM698 125q387 0 387 571q0 405 -200 527q-74 45 -187 45q-114 0 -188 -45q-204 -123 -203 -527q0 -257 84 -403q97 -168 307 -168zM979 1540
h-154l-118 146l-119 -146h-154v21l176 247h193l176 -247v-21z" />
    <glyph glyph-name="Otilde" unicode="&#xd5;" horiz-adv-x="1392" 
d="M129 696q0 512 309 672q108 55 260 55q291 0 435 -209q131 -189 131 -516t-137 -527t-429 -201t-437 208q-132 187 -132 518zM698 125q387 0 387 571q0 405 -200 527q-74 45 -187 45q-114 0 -188 -45q-204 -123 -203 -527q0 -257 84 -403q97 -168 307 -168zM416 1673
q76 117 154 117q46 0 78 -13t88 -41t95 -28q63 0 111 72l51 -103q-35 -51 -75 -84q-66 -55 -157 -20q-32 13 -89 41t-107 28t-98 -71z" />
    <glyph glyph-name="Odieresis" unicode="&#xd6;" horiz-adv-x="1392" 
d="M129 696q0 512 309 672q108 55 260 55q291 0 435 -209q131 -189 131 -516t-137 -527t-429 -201t-437 208q-132 187 -132 518zM698 125q387 0 387 571q0 405 -200 527q-74 45 -187 45q-114 0 -188 -45q-204 -123 -203 -527q0 -257 84 -403q97 -168 307 -168zM805 1670
q0 52 29 83q28 31 78 31t79 -31t29 -83t-29 -82t-79 -30t-78 30t-29 82zM389 1670q0 52 29 83t79 31q51 0 79 -31t28 -83t-29 -82t-79 -30t-78 30q-29 30 -29 82z" />
    <glyph glyph-name="multiply" unicode="&#xd7;" 
d="M561 651l311 322l99 -101l-312 -321l316 -324l-98 -100l-314 324l-309 -318l-98 100l307 318l-311 323l98 101z" />
    <glyph glyph-name="Oslash" unicode="&#xd8;" horiz-adv-x="1392" 
d="M710 1268q-125 0 -264 -84t-139 -488q0 -250 74 -387l545 885q-91 74 -216 74zM685 125q126 0 263 84t137 480q0 257 -73 394l-543 -884q90 -74 216 -74zM283 150q-154 189 -154 531q0 343 138.5 542.5t430.5 199.5q181 0 314 -88l75 119l113 -68l-90 -143
q154 -192 154 -547q0 -513 -207 -620t-378 -107t-296 88l-70 -108l-108 71z" />
    <glyph glyph-name="Ugrave" unicode="&#xd9;" horiz-adv-x="1355" 
d="M356 1393v-877q0 -285 179 -363q61 -28 145 -28q158 0 239 101q80 101 80 290v877h172v-899q-1 -246 -119 -385t-374 -139t-375 138q-119 140 -119 388v897h172zM444 1808h185l123 -247v-21h-146l-162 248v20z" />
    <glyph glyph-name="Uacute" unicode="&#xda;" horiz-adv-x="1355" 
d="M356 1393v-877q0 -285 179 -363q61 -28 145 -28q158 0 239 101q80 101 80 290v877h172v-899q-1 -246 -119 -385t-374 -139t-375 138q-119 140 -119 388v897h172zM586 1540v21l123 247h184v-20l-162 -248h-145z" />
    <glyph glyph-name="Ucircumflex" unicode="&#xdb;" horiz-adv-x="1355" 
d="M356 1393v-877q0 -285 179 -363q61 -28 145 -28q158 0 239 101q80 101 80 290v877h172v-899q-1 -246 -119 -385t-374 -139t-375 138q-119 140 -119 388v897h172zM942 1540h-154l-118 146l-119 -146h-154v21l176 247h193l176 -247v-21z" />
    <glyph glyph-name="Udieresis" unicode="&#xdc;" horiz-adv-x="1355" 
d="M356 1393v-877q0 -285 179 -363q61 -28 145 -28q158 0 239 101q80 101 80 290v877h172v-899q-1 -246 -119 -385t-374 -139t-375 138q-119 140 -119 388v897h172zM770 1670q0 52 29 83t79 31t78 -31t29 -83q0 -52 -29 -82q-28 -30 -78 -30t-79 30t-29 82zM354 1670
q0 52 29 83t79 31t79 -31t29 -83t-30 -82q-28 -30 -78 -30t-79 30t-29 82z" />
    <glyph glyph-name="Yacute" unicode="&#xdd;" horiz-adv-x="1081" 
d="M1053 1393v-21l-426 -782v-590h-172v590l-424 782v21h184l324 -633h4l327 633h183zM469 1540v21l123 247h184v-20l-162 -248h-145z" />
    <glyph glyph-name="Thorn" unicode="&#xde;" horiz-adv-x="1169" 
d="M371 442h264q188 0 219 106.5t31 166.5q0 119 -58.5 195.5t-191.5 76.5h-264v-545zM197 0v1393h174v-254h278q414 0 414 -367.5t-153.5 -424t-260.5 -56.5h-278v-291h-174z" />
    <glyph glyph-name="germandbls" unicode="&#xdf;" horiz-adv-x="1169" 
d="M891 392q0 136 -69.5 213t-227.5 77h-29v152h39q94 0 136 66.5t42 166.5t-53 166.5t-170 66.5t-171 -76.5t-54 -234.5v-989h-168v1004q0 329 149.5 384.5t246.5 55.5q193 0 292.5 -100.5t99.5 -268.5q0 -167 -67.5 -224.5t-98.5 -76.5v-4q107 -26 191 -120.5t84 -224.5
q0 -236 -120.5 -346t-328.5 -110q-68 0 -94 6v142q46 -4 94 -4q133 0 205 71.5t72 207.5z" />
    <glyph glyph-name="agrave" unicode="&#xe0;" horiz-adv-x="1011" 
d="M96 268q0 305 389 310h201v63q0 167 -116 216q-40 17 -95 17q-152 0 -262 -83l-70 116q143 111 334 111q193 0 285 -102t92 -279v-637h-123l-16 90h-4q-149 -121 -301 -121t-233 78t-81 221zM500 459q-230 0 -232 -191q0 -72 39 -114t115 -41q76 0 138 15t126 69v262
h-186zM276 1454h187l121 -248v-20h-146l-162 248v20z" />
    <glyph glyph-name="aacute" unicode="&#xe1;" horiz-adv-x="1011" 
d="M96 268q0 305 389 310h201v63q0 167 -116 216q-40 17 -95 17q-152 0 -262 -83l-70 116q143 111 334 111q193 0 285 -102t92 -279v-637h-123l-16 90h-4q-149 -121 -301 -121t-233 78t-81 221zM500 459q-230 0 -232 -191q0 -72 39 -114t115 -41q76 0 138 15t126 69v262
h-186zM420 1186v20l121 248h186v-20l-162 -248h-145z" />
    <glyph glyph-name="acircumflex" unicode="&#xe2;" horiz-adv-x="1011" 
d="M96 268q0 305 389 310h201v63q0 167 -116 216q-40 17 -95 17q-152 0 -262 -83l-70 116q143 111 334 111q193 0 285 -102t92 -279v-637h-123l-16 90h-4q-149 -121 -301 -121t-233 78t-81 221zM500 459q-230 0 -232 -191q0 -72 39 -114t115 -41q76 0 138 15t126 69v262
h-186zM768 1186h-154l-118 172l-119 -172h-154v20l176 248h193l176 -248v-20z" />
    <glyph glyph-name="atilde" unicode="&#xe3;" horiz-adv-x="1011" 
d="M96 268q0 305 389 310h201v63q0 167 -116 216q-40 17 -95 17q-152 0 -262 -83l-70 116q143 111 334 111q193 0 285 -102t92 -279v-637h-123l-16 90h-4q-149 -121 -301 -121t-233 78t-81 221zM500 459q-230 0 -232 -191q0 -72 39 -114t115 -41q76 0 138 15t126 69v262
h-186zM209 1298q77 117 155 117q46 0 78 -13t86 -40q55 -27 106 -28q52 -1 101 71l51 -102q-80 -117 -150 -117q-69 0 -149 40t-129 41q-50 1 -98 -71z" />
    <glyph glyph-name="adieresis" unicode="&#xe4;" horiz-adv-x="1011" 
d="M96 268q0 305 389 310h201v63q0 167 -116 216q-40 17 -95 17q-152 0 -262 -83l-70 116q143 111 334 111q193 0 285 -102t92 -279v-637h-123l-16 90h-4q-149 -121 -301 -121t-233 78t-81 221zM500 459q-230 0 -232 -191q0 -72 39 -114t115 -41q76 0 138 15t126 69v262
h-186zM203 1295q0 52 28 83q29 31 79 31t79 -31t29 -83t-29 -82q-29 -29 -79 -29t-79 29q-28 30 -28 82zM578 1295q0 52 28 83q29 31 79 31t79 -31t29 -83t-29 -82q-29 -29 -79 -29t-79 29q-28 30 -28 82z" />
    <glyph glyph-name="aring" unicode="&#xe5;" horiz-adv-x="1011" 
d="M96 268q0 305 389 310h201v63q0 167 -116 216q-40 17 -95 17q-152 0 -262 -83l-70 116q143 111 334 111q193 0 285 -102t92 -279v-637h-123l-16 90h-4q-149 -121 -301 -121t-233 78t-81 221zM500 459q-230 0 -232 -191q0 -72 39 -114t115 -41q76 0 138 15t126 69v262
h-186zM307 1307q0 92 53 141q54 49 140 49t138 -49t52 -141q0 -93 -52 -143t-138 -50t-140 50q-53 51 -53 143zM418 1307q0 -41 22 -64t60 -23t60 24q22 22 22 63t-23 63t-59 21q-36 1 -60 -21q-22 -22 -22 -63z" />
    <glyph glyph-name="ae" unicode="&#xe6;" horiz-adv-x="1593" 
d="M1325 591v34q0 174 -83 211.5t-141 37.5q-110 0 -167 -82t-66 -214h455q2 10 2 13zM1452 78q-150 -109 -310 -109q-157 0 -235.5 56.5t-132.5 162.5q-94 -152 -203 -185.5t-175 -33.5q-134 0 -217 80.5t-83 231.5t105.5 224t277.5 73h217v63q0 167 -82 200t-137 33
q-152 0 -262 -83l-70 116q143 111 328 111q215 0 330 -174q112 174 305 174t287 -122t94 -301q0 -79 -10 -144h-619q0 -142 74.5 -240t198.5 -98q94 0 149 26.5t107 63.5zM504 455q-238 0 -238 -132.5t46 -171t104 -38.5q116 0 199 91.5t83 250.5h-194z" />
    <glyph glyph-name="ccedilla" unicode="&#xe7;" horiz-adv-x="948" 
d="M553 -246q0 76 -115 76l-12 20l39 127q-169 27 -260.5 167t-91.5 364t115.5 367t330.5 143q150 0 291 -74l-45 -125q-125 55 -219 55q-93 0 -146 -31.5t-88 -83.5t-51 -122t-16 -187.5t73 -227t197 -109.5t250 55l45 -125q-115 -63 -260 -72l-25 -69q59 -10 97 -47
t38 -101q0 -104 -63.5 -147t-151.5 -43t-149 28l26 113q50 -22 97 -22t70.5 15t23.5 56z" />
    <glyph glyph-name="egrave" unicode="&#xe8;" horiz-adv-x="1046" 
d="M778 601v24q0 172 -137 230q-45 19 -103 19q-110 0 -179 -84t-78 -212h495q2 10 2 23zM272 451q0 -137 86 -238t211 -100q93 1 157 27t116 63l63 -125q-150 -109 -360 -109t-323 150t-112 371q1 220 112 374t315 154q203 0 311 -131q127 -153 84 -436h-660zM336 1454h186
l121 -248v-20h-145l-162 248v20z" />
    <glyph glyph-name="eacute" unicode="&#xe9;" horiz-adv-x="1046" 
d="M778 601v24q0 172 -137 230q-45 19 -103 19q-110 0 -179 -84t-78 -212h495q2 10 2 23zM272 451q0 -137 86 -238t211 -100q93 1 157 27t116 63l63 -125q-150 -109 -360 -109t-323 150t-112 371q1 220 112 374t315 154q203 0 311 -131q127 -153 84 -436h-660zM475 1186v20
l121 248h186v-20l-161 -248h-146z" />
    <glyph glyph-name="ecircumflex" unicode="&#xea;" horiz-adv-x="1046" 
d="M778 601v24q0 172 -137 230q-45 19 -103 19q-110 0 -179 -84t-78 -212h495q2 10 2 23zM272 451q0 -137 86 -238t211 -100q93 1 157 27t116 63l63 -125q-150 -109 -360 -109t-323 150t-112 371q1 220 112 374t315 154q203 0 311 -131q127 -153 84 -436h-660zM823 1186
h-153l-119 172l-119 -172h-153v20l176 248h192l176 -248v-20z" />
    <glyph glyph-name="edieresis" unicode="&#xeb;" horiz-adv-x="1046" 
d="M778 601v24q0 172 -137 230q-45 19 -103 19q-110 0 -179 -84t-78 -212h495q2 10 2 23zM272 451q0 -137 86 -238t211 -100q93 1 157 27t116 63l63 -125q-150 -109 -360 -109t-323 150t-112 371q1 220 112 374t315 154q203 0 311 -131q127 -153 84 -436h-660zM254 1295
q0 52 29 83t79 31t78 -31q29 -31 29 -83t-29 -82q-29 -29 -79 -29q-51 0 -79 30t-28 81zM629 1295q0 52 28 83q29 31 79 31t79 -31t29 -83t-29 -82q-29 -29 -79 -29t-79 29q-28 30 -28 82z" />
    <glyph glyph-name="igrave" unicode="&#xec;" horiz-adv-x="499" 
d="M166 0v987h168v-987h-168zM27 1454h186l121 -248v-20h-146l-161 248v20z" />
    <glyph glyph-name="iacute" unicode="&#xed;" horiz-adv-x="499" 
d="M166 0v987h168v-987h-168zM176 1186v20l121 248h186v-20l-161 -248h-146z" />
    <glyph glyph-name="icircumflex" unicode="&#xee;" horiz-adv-x="499" 
d="M166 0v987h168v-987h-168zM526 1186h-153l-119 172l-119 -172h-153v20l176 248h192l176 -248v-20z" />
    <glyph glyph-name="idieresis" unicode="&#xef;" horiz-adv-x="499" 
d="M166 0v987h168v-987h-168zM-43 1295q0 52 29 83q28 31 78 31t79 -31t29 -83t-29 -82q-29 -29 -79 -29t-78 30t-29 81zM332 1295q0 52 28 83q29 31 79 31t79 -31t29 -83t-29 -82q-29 -29 -79 -29t-79 29q-28 30 -28 82z" />
    <glyph glyph-name="eth" unicode="&#xf0;" horiz-adv-x="1142" 
d="M285 479q0 -168 78.5 -261t206.5 -93t207 93t79 261t-79 253t-207 85t-206.5 -85t-78.5 -253zM1030 500q0 -238 -121.5 -384.5t-337.5 -146.5t-338 143t-122 367t116 359t299 135q127 0 238 -84l4 4q-48 105 -170 258l-199 -57l-39 116l156 41q-40 50 -149 162v21h192
q29 -29 56.5 -66t54.5 -68l174 52l35 -117l-127 -37q278 -380 278 -698z" />
    <glyph glyph-name="ntilde" unicode="&#xf1;" horiz-adv-x="1118" 
d="M793 614q0 262 -205 260q-105 0 -207 -58q-29 -15 -47 -30v-786h-168v987h119l20 -90h4q48 39 142 80t180 41q153 0 241 -93t89 -282v-643h-168v614zM283 1298q77 117 155 117q46 0 78 -13t85 -40q54 -27 107 -28q52 -1 101 71l51 -102q-80 -117 -158 -117q-60 0 -114 28
t-84 40q-30 13 -62 14q-60 0 -108 -72z" />
    <glyph glyph-name="ograve" unicode="&#xf2;" horiz-adv-x="1116" 
d="M894 116q-112 -147 -337 -147t-337 147t-109 378q0 362 241 482q84 42 204 42t205 -42t139 -113q106 -139 106 -369t-112 -378zM283 494q0 -170 65 -277q65 -106 207 -105t216 114q61 93 63 268q0 262 -150 350q-53 30 -129 30t-128 -30q-144 -84 -144 -350zM340 1454
h186l121 -248v-20h-145l-162 248v20z" />
    <glyph glyph-name="oacute" unicode="&#xf3;" horiz-adv-x="1116" 
d="M894 116q-112 -147 -337 -147t-337 147t-109 378q0 362 241 482q84 42 204 42t205 -42t139 -113q106 -139 106 -369t-112 -378zM283 494q0 -170 65 -277q65 -106 207 -105t216 114q61 93 63 268q0 262 -150 350q-53 30 -129 30t-128 -30q-144 -84 -144 -350zM479 1186v20
l121 248h186v-20l-161 -248h-146z" />
    <glyph glyph-name="ocircumflex" unicode="&#xf4;" horiz-adv-x="1116" 
d="M894 116q-112 -147 -337 -147t-337 147t-109 378q0 362 241 482q84 42 204 42t205 -42t139 -113q106 -139 106 -369t-112 -378zM283 494q0 -170 65 -277q65 -106 207 -105t216 114q61 93 63 268q0 262 -150 350q-53 30 -129 30t-128 -30q-144 -84 -144 -350zM831 1186
h-153l-119 172l-119 -172h-153v20l176 248h192l176 -248v-20z" />
    <glyph glyph-name="otilde" unicode="&#xf5;" horiz-adv-x="1116" 
d="M894 116q-112 -147 -337 -147t-337 147t-109 378q0 362 241 482q84 42 204 42t205 -42t139 -113q106 -139 106 -369t-112 -378zM283 494q0 -170 65 -277q65 -106 207 -105t216 114q61 93 63 268q0 262 -150 350q-53 30 -129 30t-128 -30q-144 -84 -144 -350zM270 1298
q77 117 147 117t148 -40q79 -40 130 -41q50 -1 102 71l51 -102q-80 -117 -150 -117t-150 40t-129 41t-97 -71z" />
    <glyph glyph-name="odieresis" unicode="&#xf6;" horiz-adv-x="1116" 
d="M894 116q-112 -147 -337 -147t-337 147t-109 378q0 362 241 482q84 42 204 42t205 -42t139 -113q106 -139 106 -369t-112 -378zM283 494q0 -170 65 -277q65 -106 207 -105t216 114q61 93 63 268q0 262 -150 350q-53 30 -129 30t-128 -30q-144 -84 -144 -350zM262 1295
q0 52 29 83t79 31t79 -31t29 -83t-30 -82q-28 -29 -78 -29t-79 30t-29 81zM637 1295q0 52 29 83q28 31 78 31t79 -31t29 -83t-29 -82q-29 -29 -79 -29t-78 30t-29 81z" />
    <glyph glyph-name="divide" unicode="&#xf7;" 
d="M436 142q0 56 35 92t89 36t88 -36t34 -92t-34 -92t-88 -36t-89 36t-35 92zM682 962q0 -56 -34 -92t-88 -36t-89 36t-35 92t35 92t89 36t88 -36t34 -92zM1010 629v-152h-895v152h895z" />
    <glyph glyph-name="oslash" unicode="&#xf8;" horiz-adv-x="1116" 
d="M285 466q0 -104 39 -200l393 557q-63 51 -149 51t-138.5 -30.5t-84.5 -82.5t-46 -121.5t-14 -173.5zM836 466q0 142 -37 241l-389 -551q62 -43 143 -43q147 0 215 105.5t68 247.5zM113 494q0 362 162.5 443t296.5 81t235 -68l65 92l111 -75l-78 -109q103 -140 103 -364
q0 -362 -165 -443.5t-295 -81.5t-229 60l-63 -88l-106 79l69 99q-106 139 -106 375z" />
    <glyph glyph-name="ugrave" unicode="&#xf9;" horiz-adv-x="1105" 
d="M158 344v643h168v-614q0 -129 46 -195t149 -66t204 59q29 15 47 30v786h168v-987h-119l-18 90h-4q-170 -118 -321 -120q-152 -1 -236 92t-84 282zM326 1454h186l121 -248v-20h-146l-161 248v20z" />
    <glyph glyph-name="uacute" unicode="&#xfa;" horiz-adv-x="1105" 
d="M158 344v643h168v-614q0 -129 46 -195t149 -66t204 59q29 15 47 30v786h168v-987h-119l-18 90h-4q-170 -118 -321 -120q-152 -1 -236 92t-84 282zM473 1186v20l121 248h186v-20l-162 -248h-145z" />
    <glyph glyph-name="ucircumflex" unicode="&#xfb;" horiz-adv-x="1105" 
d="M158 344v643h168v-614q0 -129 46 -195t149 -66t204 59q29 15 47 30v786h168v-987h-119l-18 90h-4q-170 -118 -321 -120q-152 -1 -236 92t-84 282zM821 1186h-153l-119 172l-119 -172h-154v20l177 248h192l176 -248v-20z" />
    <glyph glyph-name="udieresis" unicode="&#xfc;" horiz-adv-x="1105" 
d="M158 344v643h168v-614q0 -129 46 -195t149 -66t204 59q29 15 47 30v786h168v-987h-119l-18 90h-4q-170 -118 -321 -120q-152 -1 -236 92t-84 282zM252 1295q0 52 29 83t79 31t78 -31q29 -31 29 -83t-29 -82q-29 -29 -79 -29q-51 0 -79 30t-28 81zM627 1295q0 52 28 83
q29 31 79 31t79 -31t29 -83t-29 -82q-29 -29 -79 -29t-79 29q-28 30 -28 82z" />
    <glyph glyph-name="yacute" unicode="&#xfd;" horiz-adv-x="985" 
d="M214 -297q60 0 96 46t65 128l45 133l-365 957v20h166l215 -625l58 -194h4l53 194l207 625h164v-20l-379 -1100q-53 -155 -130 -229t-184 -74q-72 0 -166 26v138q91 -25 151 -25zM432 1186v20l121 248h186v-20l-161 -248h-146z" />
    <glyph glyph-name="thorn" unicode="&#xfe;" horiz-adv-x="1118" 
d="M334 203q94 -90 237 -90q263 0 263 322.5t-91.5 380.5t-162.5 58q-152 0 -246 -90v-581zM166 1434h168v-516h4q49 39 114.5 69.5t167.5 30.5q189 0 287.5 -146t98.5 -378q0 -362 -141 -443.5t-217 -81.5q-120 0 -184.5 26.5t-125.5 74.5h-4v-476h-168v1840z" />
    <glyph glyph-name="ydieresis" unicode="&#xff;" horiz-adv-x="985" 
d="M214 -297q60 0 96 46t65 128l45 133l-365 957v20h166l215 -625l58 -194h4l53 194l207 625h164v-20l-379 -1100q-53 -155 -130 -229t-184 -74q-72 0 -166 26v138q91 -25 151 -25zM201 1295q0 52 28 83q29 31 79 31t79 -31t29 -83t-29 -82q-29 -29 -79 -29t-79 29
q-28 30 -28 82zM575 1295q0 52 29 83t79 31t79 -31t29 -83t-29 -82q-29 -29 -79 -29t-79 30t-29 81z" />
    <glyph glyph-name="Amacron" unicode="&#x100;" horiz-adv-x="1218" 
d="M608 1219l-108 -377l-113 -338h442l-108 338l-109 377h-4zM1180 0h-181l-116 360h-547l-119 -360h-178l483 1393h174zM360 1591v152h498v-152h-498z" />
    <glyph glyph-name="amacron" unicode="&#x101;" horiz-adv-x="1011" 
d="M96 268q0 305 389 310h201v63q0 167 -116 216q-40 17 -95 17q-152 0 -262 -83l-70 116q143 111 334 111q193 0 285 -102t92 -279v-637h-123l-16 90h-4q-149 -121 -301 -121t-233 78t-81 221zM500 459q-230 0 -232 -191q0 -72 39 -114t115 -41q76 0 138 15t126 69v262
h-186zM250 1223v151h498v-151h-498z" />
    <glyph glyph-name="Abreve" unicode="&#x102;" horiz-adv-x="1218" 
d="M608 1219l-108 -377l-113 -338h442l-108 338l-109 377h-4zM1180 0h-181l-116 360h-547l-119 -360h-178l483 1393h174zM606 1716q120 0 228 66l47 -107q-40 -40 -94 -67q-90 -45 -177 -45t-159 34q-71 34 -113 78l47 107q101 -66 221 -66z" />
    <glyph glyph-name="abreve" unicode="&#x103;" horiz-adv-x="1011" 
d="M96 268q0 305 389 310h201v63q0 167 -116 216q-40 17 -95 17q-152 0 -262 -83l-70 116q143 111 334 111q193 0 285 -102t92 -279v-637h-123l-16 90h-4q-149 -121 -301 -121t-233 78t-81 221zM500 459q-230 0 -232 -191q0 -72 39 -114t115 -41q76 0 138 15t126 69v262
h-186zM772 1298q-112 -112 -272 -112q-87 0 -158 35t-113 77l47 107q100 -66 222 -66t227 66z" />
    <glyph glyph-name="Aogonek" unicode="&#x104;" horiz-adv-x="1218" 
d="M608 1219l-108 -377l-113 -338h442l-108 338l-109 377h-4zM1206 -379q-77 -57 -163 -57t-143.5 46.5t-57.5 134.5q0 89 44 147.5t111 109.5l-114 358h-547l-119 -360h-178l483 1393h174l484 -1393q-191 -97 -191 -207q0 -88 88 -88q35 0 62.5 14.5t50.5 28.5z" />
    <glyph glyph-name="aogonek" unicode="&#x105;" horiz-adv-x="1011" 
d="M500 459q-232 0 -232 -191q0 -72 39 -113.5t115 -41.5t138.5 15t125.5 69v262h-186zM96 268q0 310 389 310h201v63q0 167 -78 200t-133 33q-152 0 -262 -83l-70 116q143 111 334 111q192 0 284.5 -102.5t92.5 -278.5v-637q-99 -55 -140.5 -104t-41.5 -103q0 -88 88 -88
q44 0 112 43l17 -127q-77 -57 -168 -57q-134 0 -165.5 70.5t-31.5 118.5q0 84 49.5 147.5t151.5 132.5l-10 57h-4q-149 -121 -301 -121t-233 78t-81 221z" />
    <glyph glyph-name="Cacute" unicode="&#x106;" horiz-adv-x="1165" 
d="M728 -31q-294 0 -447 198q-154 198 -154 528t155 529t437 199q162 0 342 -90l-47 -131q-131 64 -267 65q-137 1 -215 -40q-227 -119 -227 -531q0 -411 227 -530q78 -41 213 -41t269 65l47 -131q-181 -90 -333 -90zM604 1540v21l123 247h184v-20l-161 -248h-146z" />
    <glyph glyph-name="cacute" unicode="&#x107;" horiz-adv-x="948" 
d="M111 494q0 239 115 381q115 143 331 143q145 0 291 -74l-45 -125q-125 55 -219 55q-93 0 -146 -32q-155 -92 -155 -347t156 -351q52 -32 149 -32t215 56l45 -125q-141 -74 -271 -74q-343 0 -438 312q-28 96 -28 213zM463 1186v20l121 248h186v-20l-162 -248h-145z" />
    <glyph glyph-name="Ccircumflex" unicode="&#x108;" horiz-adv-x="1165" 
d="M728 -31q-294 0 -447 198q-154 198 -154 528t155 529t437 199q162 0 342 -90l-47 -131q-131 64 -267 65q-137 1 -215 -40q-227 -119 -227 -531q0 -411 227 -530q78 -41 213 -41t269 65l47 -131q-181 -90 -333 -90zM969 1540h-154l-119 146l-118 -146h-154v21l176 247h193
l176 -247v-21z" />
    <glyph glyph-name="ccircumflex" unicode="&#x109;" horiz-adv-x="948" 
d="M111 494q0 239 115 381q115 143 331 143q145 0 291 -74l-45 -125q-125 55 -219 55q-93 0 -146 -32q-155 -92 -155 -347t156 -351q52 -32 149 -32t215 56l45 -125q-141 -74 -271 -74q-343 0 -438 312q-28 96 -28 213zM809 1186h-154l-118 172l-119 -172h-154v20l176 248
h193l176 -248v-20z" />
    <glyph glyph-name="Cdotaccent" unicode="&#x10a;" horiz-adv-x="1165" 
d="M728 -31q-294 0 -447 198q-154 198 -154 528t155 529t437 199q162 0 342 -90l-47 -131q-131 64 -267 65q-137 1 -215 -40q-227 -119 -227 -531q0 -411 227 -530q78 -41 213 -41t269 65l47 -131q-181 -90 -333 -90zM586 1670q0 52 28 83q29 31 79 31t79 -31t29 -83
t-29 -82t-79 -30t-79 30q-28 30 -28 82z" />
    <glyph glyph-name="cdotaccent" unicode="&#x10b;" horiz-adv-x="948" 
d="M111 494q0 239 115 381q115 143 331 143q145 0 291 -74l-45 -125q-125 55 -219 55q-93 0 -146 -32q-155 -92 -155 -347t156 -351q52 -32 149 -32t215 56l45 -125q-141 -74 -271 -74q-343 0 -438 312q-28 96 -28 213zM432 1297q0 52 29 83t79 31t78 -31t29 -83
q0 -52 -29 -82q-28 -29 -78 -29t-79 30t-29 81z" />
    <glyph glyph-name="Ccaron" unicode="&#x10c;" horiz-adv-x="1165" 
d="M728 -31q-294 0 -447 198q-154 198 -154 528t155 529t437 199q162 0 342 -90l-47 -131q-131 64 -267 65q-137 1 -215 -40q-227 -119 -227 -531q0 -411 227 -530q78 -41 213 -41t269 65l47 -131q-181 -90 -333 -90zM410 1808h153l119 -145l119 145h153v-20l-176 -248h-192
l-176 248v20z" />
    <glyph glyph-name="ccaron" unicode="&#x10d;" horiz-adv-x="948" 
d="M111 494q0 239 115 381q115 143 331 143q145 0 291 -74l-45 -125q-125 55 -219 55q-93 0 -146 -32q-155 -92 -155 -347t156 -351q52 -32 149 -32t215 56l45 -125q-141 -74 -271 -74q-343 0 -438 312q-28 96 -28 213zM266 1454h154l119 -172l118 172h154v-20l-176 -248
h-193l-176 248v20z" />
    <glyph glyph-name="Dcaron" unicode="&#x10e;" horiz-adv-x="1335" 
d="M526 152q288 0 395 129t106 417t-106 415q-105 128 -395 128h-157v-1089h157zM197 1393h352q512 0 619 -399q36 -130 36 -299q0 -345 -154 -520t-501 -175h-352v1393zM362 1808h154l119 -145l119 145h153v-20l-176 -248h-192l-177 248v20z" />
    <glyph glyph-name="dcaron" unicode="&#x10f;" horiz-adv-x="1118" 
d="M784 918v516h168v-1434h-118l-19 90h-4q-152 -121 -329 -121t-274 149t-96 377q1 227 97 375t276 148t295 -100h4zM285 494q0 -261 134 -350q48 -32 120 -31q157 0 245 90v581q-92 92 -234 91t-209 -116q-56 -97 -56 -265zM1262 1393v-21l-78 -289h-133v21l36 289h175z
" />
    <glyph glyph-name="Dcroat" unicode="&#x110;" horiz-adv-x="1341" 
d="M532 152q288 0 395 129t106 417t-106 415q-105 128 -395 128h-157v-477h282v-152h-282v-460h157zM82 764h121v629h352q510 0 620 -399q35 -130 35 -299q-1 -348 -155 -521q-154 -174 -500 -174h-352v612h-121v152z" />
    <glyph glyph-name="dcroat" unicode="&#x111;" horiz-adv-x="1118" 
d="M784 784q-90 90 -233 90t-204.5 -106t-61.5 -321t91 -274.5t163 -59.5q155 0 245 90v581zM494 1018q168 0 286 -100h4v231h-213v131h213v154h168v-154h119v-131h-119v-1149h-118l-19 90h-4q-152 -121 -329 -121t-273 147.5t-96 377.5q0 360 140 442t241 82z" />
    <glyph glyph-name="Emacron" unicode="&#x112;" horiz-adv-x="1140" 
d="M1010 1393v-152h-641v-455h581v-151h-581v-483h647v-152h-819v1393h813zM362 1591v152h498v-152h-498z" />
    <glyph glyph-name="emacron" unicode="&#x113;" horiz-adv-x="1046" 
d="M778 601v24q0 172 -137 230q-45 19 -103 19q-110 0 -179 -84t-78 -212h495q2 10 2 23zM272 451q0 -137 86 -238t211 -100q93 1 157 27t116 63l63 -125q-150 -109 -360 -109t-323 150t-112 371q1 220 112 374t315 154q203 0 311 -131q127 -153 84 -436h-660zM303 1223v151
h498v-151h-498z" />
    <glyph glyph-name="Ebreve" unicode="&#x114;" horiz-adv-x="1140" 
d="M1010 1393v-152h-641v-455h581v-151h-581v-483h647v-152h-819v1393h813zM605 1716q121 0 226 66l48 -107q-40 -40 -94 -67q-90 -45 -177 -45t-159 34q-71 34 -113 78l47 107q101 -66 222 -66z" />
    <glyph glyph-name="ebreve" unicode="&#x115;" horiz-adv-x="1046" 
d="M778 601v24q0 172 -137 230q-45 19 -103 19q-110 0 -179 -84t-78 -212h495q2 10 2 23zM272 451q0 -137 86 -238t211 -100q93 1 157 27t116 63l63 -125q-150 -109 -360 -109t-323 150t-112 371q1 220 112 374t315 154q203 0 311 -131q127 -153 84 -436h-660zM558 1339
q121 0 226 66l47 -107q-112 -112 -272 -112q-87 0 -158 35t-112 77l47 107q101 -66 222 -66z" />
    <glyph glyph-name="Edotaccent" unicode="&#x116;" horiz-adv-x="1140" 
d="M1010 1393v-152h-641v-455h581v-151h-581v-483h647v-152h-819v1393h813zM504 1670q0 52 28 83q29 31 79 31t79 -31t29 -83t-29 -82t-79 -30t-79 30q-28 30 -28 82z" />
    <glyph glyph-name="edotaccent" unicode="&#x117;" horiz-adv-x="1046" 
d="M778 601v24q0 172 -137 230q-45 19 -103 19q-110 0 -179 -84t-78 -212h495q2 10 2 23zM272 451q0 -137 86 -238t211 -100q93 1 157 27t116 63l63 -125q-150 -109 -360 -109t-323 150t-112 371q1 220 112 374t315 154q203 0 311 -131q127 -153 84 -436h-660zM444 1297
q0 52 29 83t79 31t79 -31t29 -83t-30 -82q-28 -29 -78 -29t-79 30t-29 81z" />
    <glyph glyph-name="Eogonek" unicode="&#x118;" horiz-adv-x="1140" 
d="M662 -242q0 133 153 242h-618v1393h813v-152h-641v-455h581v-151h-581v-483h647v-152q-207 -98 -207 -207q0 -88 88 -88q35 0 62.5 14.5t50.5 28.5l16 -127q-77 -57 -163 -57t-143.5 46.5t-57.5 147.5z" />
    <glyph glyph-name="eogonek" unicode="&#x119;" horiz-adv-x="1046" 
d="M778 591v34q0 172 -91 210.5t-149 38.5q-110 0 -179.5 -84t-77.5 -212h495q2 10 2 13zM555 -31q-220 0 -332 149t-112 371t111.5 375.5t314.5 153.5t304 -123t101 -303q0 -76 -10 -141h-660q0 -142 85.5 -240t222.5 -98q138 0 262 90l63 -125q-10 -8 -120.5 -74.5
t-110.5 -210.5q0 -88 88 -88q44 0 112 43l17 -127q-77 -57 -168 -57q-134 0 -165.5 70.5t-31.5 154.5t88 180v4q-28 -4 -59 -4z" />
    <glyph glyph-name="Ecaron" unicode="&#x11a;" horiz-adv-x="1140" 
d="M1010 1393v-152h-641v-455h581v-151h-581v-483h647v-152h-819v1393h813zM338 1808h154l118 -145l119 145h154v-20l-176 -248h-193l-176 248v20z" />
    <glyph glyph-name="ecaron" unicode="&#x11b;" horiz-adv-x="1046" 
d="M778 601v24q0 172 -137 230q-45 19 -103 19q-110 0 -179 -84t-78 -212h495q2 10 2 23zM272 451q0 -137 86 -238t211 -100q93 1 157 27t116 63l63 -125q-150 -109 -360 -109t-323 150t-112 371q1 220 112 374t315 154q203 0 311 -131q127 -153 84 -436h-660zM279 1454h153
l119 -172l119 172h153v-20l-176 -248h-192l-176 248v20z" />
    <glyph glyph-name="Gcircumflex" unicode="&#x11c;" horiz-adv-x="1280" 
d="M700 125q175 0 263 65v342l-254 41v111h426v-571q-188 -140 -435 -144q-287 0 -434 205q-137 188 -137 520t143 531q143 198 447 198q133 0 233 -42t178 -91l-61 -131q-181 109 -350 109q-412 0 -412 -572q0 -408 210 -528q75 -43 183 -43zM969 1540h-154l-119 146
l-118 -146h-154v21l176 247h193l176 -247v-21z" />
    <glyph glyph-name="gcircumflex" unicode="&#x11d;" horiz-adv-x="1118" 
d="M780 76q-122 -101 -282 -101q-192 0 -290 149q-97 149 -96 376q1 226 98 372t274 146t325 -121h4l23 90h116v-999q0 -192 -111 -309t-298 -116q-188 1 -332 72l45 123q116 -55 285 -55q111 0 177 69t66 197v107h-4zM285 498q0 -265 133 -346q49 -31 121 -31q161 0 245 90
v573q-92 92 -236 91q-263 -2 -263 -377zM848 1186h-154l-119 172l-118 -172h-154v20l176 248h193l176 -248v-20z" />
    <glyph glyph-name="Gbreve" unicode="&#x11e;" horiz-adv-x="1280" 
d="M700 125q175 0 263 65v342l-254 41v111h426v-571q-188 -140 -435 -144q-287 0 -434 205q-137 188 -137 520t143 531q143 198 447 198q133 0 233 -42t178 -91l-61 -131q-181 109 -350 109q-412 0 -412 -572q0 -408 210 -528q75 -43 183 -43zM700 1563q-86 0 -157 34
t-113 78l47 107q100 -66 222 -66t227 66l47 -107q-112 -112 -273 -112z" />
    <glyph glyph-name="gbreve" unicode="&#x11f;" horiz-adv-x="1118" 
d="M780 76q-122 -101 -282 -101q-192 0 -290 149q-97 149 -96 376q1 226 98 372t274 146t325 -121h4l23 90h116v-999q0 -192 -111 -309t-298 -116q-188 1 -332 72l45 123q116 -55 285 -55q111 0 177 69t66 197v107h-4zM285 498q0 -265 133 -346q49 -31 121 -31q161 0 245 90
v573q-92 92 -236 91q-263 -2 -263 -377zM574 1339q122 0 227 66l47 -107q-112 -112 -273 -112q-86 0 -158 35t-112 77l47 107q100 -66 222 -66z" />
    <glyph glyph-name="Gdotaccent" unicode="&#x120;" horiz-adv-x="1280" 
d="M700 125q175 0 263 65v342l-254 41v111h426v-571q-188 -140 -435 -144q-287 0 -434 205q-137 188 -137 520t143 531q143 198 447 198q133 0 233 -42t178 -91l-61 -131q-181 109 -350 109q-412 0 -412 -572q0 -408 210 -528q75 -43 183 -43zM590 1670q0 52 28 83
q29 31 79 31t79 -31t29 -83t-29 -82t-79 -30t-79 30q-28 30 -28 82z" />
    <glyph glyph-name="gdotaccent" unicode="&#x121;" horiz-adv-x="1118" 
d="M780 76q-122 -101 -282 -101q-192 0 -290 149q-97 149 -96 376q1 226 98 372t274 146t325 -121h4l23 90h116v-999q0 -192 -111 -309t-298 -116q-188 1 -332 72l45 123q116 -55 285 -55q111 0 177 69t66 197v107h-4zM285 498q0 -265 133 -346q49 -31 121 -31q161 0 245 90
v573q-92 92 -236 91q-263 -2 -263 -377zM469 1297q0 52 29 83q28 31 78 31t79 -31t29 -83t-29 -82q-29 -29 -79 -29t-78 30t-29 81z" />
    <glyph glyph-name="uni0122" unicode="&#x122;" horiz-adv-x="1280" 
d="M700 125q175 0 263 65v342l-254 41v111h426v-571q-188 -140 -435 -144q-287 0 -434 205q-137 188 -137 520t143 531q143 198 447 198q133 0 233 -42t178 -91l-61 -131q-181 109 -350 109q-412 0 -412 -572q0 -408 210 -528q75 -43 183 -43zM786 -137v-21l-77 -288h-134
v20l37 289h174z" />
    <glyph glyph-name="uni0123" unicode="&#x123;" horiz-adv-x="1118" 
d="M780 76q-122 -101 -282 -101q-192 0 -290 149q-97 149 -96 376q1 226 98 372t274 146t325 -121h4l23 90h116v-999q0 -192 -111 -309t-298 -116q-188 1 -332 72l45 123q116 -55 285 -55q111 0 177 69t66 197v107h-4zM285 498q0 -265 133 -346q49 -31 121 -31q161 0 245 90
v573q-92 92 -236 91q-263 -2 -263 -377zM492 1165v21l77 289h133v-21l-36 -289h-174z" />
    <glyph glyph-name="Hcircumflex" unicode="&#x124;" horiz-adv-x="1372" 
d="M1004 635h-635v-635h-172v1393h172v-607h635v607h172v-1393h-172v635zM958 1540h-153l-119 146l-119 -146h-153v21l176 247h192l176 -247v-21z" />
    <glyph glyph-name="hcircumflex" unicode="&#x125;" horiz-adv-x="1118" 
d="M632 1018q154 0 240 -93q88 -93 89 -282v-643h-168v614q0 262 -205 260q-62 0 -137 -26t-117 -60v-788h-168v1434h168v-514h4q141 98 294 98zM848 1540h-154l-119 146l-118 -146h-154v21l176 247h193l176 -247v-21z" />
    <glyph glyph-name="Hbar" unicode="&#x126;" horiz-adv-x="1376" 
d="M1006 786v263h-635v-263h635zM1178 1049v-1049h-172v635h-635v-635h-172v1049h-97v151h97v193h172v-193h635v193h172v-193h98v-151h-98z" />
    <glyph glyph-name="hbar" unicode="&#x127;" horiz-adv-x="1118" 
d="M632 1018q154 0 241.5 -93.5t87.5 -281.5v-643h-168v614q0 260 -205 260q-103 0 -169.5 -35.5t-84.5 -50.5v-788h-168v1151h-119v131h119v152h168v-152h213v-131h-213v-231h4q141 98 294 98z" />
    <glyph glyph-name="Itilde" unicode="&#x128;" horiz-adv-x="565" 
d="M369 0h-172v1393h172v-1393zM-12 1673q76 117 154 117q46 0 78 -13t88 -41t95 -28q63 0 111 72l51 -103q-35 -51 -75 -84q-67 -55 -157 -20q-32 13 -89 41t-107 28t-98 -71z" />
    <glyph glyph-name="itilde" unicode="&#x129;" horiz-adv-x="499" 
d="M166 0v987h168v-987h-168zM-35 1298q77 117 147 117t148 -40q79 -40 130 -41q50 -1 102 71l51 -102q-80 -117 -150 -117t-150 40t-128 41q-49 1 -99 -71z" />
    <glyph glyph-name="Imacron" unicode="&#x12a;" horiz-adv-x="565" 
d="M369 0h-172v1393h172v-1393zM27 1591v152h497v-152h-497z" />
    <glyph glyph-name="imacron" unicode="&#x12b;" horiz-adv-x="499" 
d="M166 0v987h168v-987h-168zM6 1223v151h498v-151h-498z" />
    <glyph glyph-name="Ibreve" unicode="&#x12c;" horiz-adv-x="565" 
d="M369 0h-172v1393h172v-1393zM271 1716q122 0 227 66l47 -107q-112 -112 -273 -112q-86 0 -157 34t-113 78l47 107q100 -66 222 -66z" />
    <glyph glyph-name="ibreve" unicode="&#x12d;" horiz-adv-x="499" 
d="M166 0v987h168v-987h-168zM253 1339q121 0 226 66l47 -107q-112 -112 -272 -112q-87 0 -158 35t-112 77l47 107q101 -66 222 -66z" />
    <glyph glyph-name="Iogonek" unicode="&#x12e;" horiz-adv-x="565" 
d="M236 -436q-134 0 -165.5 71t-31.5 135q0 117 158 232v1391h172v-1393q-183 -99 -183 -207q0 -88 88 -88q45 0 113 43l16 -127q-77 -57 -167 -57z" />
    <glyph glyph-name="iogonek" unicode="&#x12f;" horiz-adv-x="501" 
d="M145 1295q0 52 29 83t79 31t78.5 -30.5t28.5 -82.5t-28.5 -82t-78.5 -30t-79 29.5t-29 81.5zM203 -436q-134 0 -165.5 70t-31.5 136q0 121 162 236v981h168v-987q-182 -100 -182 -207q0 -88 88 -88q44 0 112 43l17 -127q-77 -57 -168 -57z" />
    <glyph glyph-name="Idotaccent" unicode="&#x130;" horiz-adv-x="565" 
d="M369 0h-172v1393h172v-1393zM170 1670q0 52 29 83t79 31t78 -31q29 -31 29 -83t-29 -82t-79 -30q-51 0 -79 30t-28 82z" />
    <glyph glyph-name="dotlessi" unicode="&#x131;" horiz-adv-x="499" 
d="M166 0v987h168v-987h-168z" />
    <glyph glyph-name="IJ" unicode="&#x132;" horiz-adv-x="1474" 
d="M369 0h-172v1393h172v-1393zM902 125q62 0 100 14q114 44 114 289v965h172v-979q0 -232 -99 -338t-269 -107q-94 0 -174 46t-130 104l86 112q42 -37 90 -71t110 -35z" />
    <glyph glyph-name="ij" unicode="&#x133;" horiz-adv-x="999" 
d="M143 1295q0 52 29 83t79 31t79 -31q28 -31 28 -83t-28 -82q-28 -29 -79 -29q-50 0 -79 30t-29 81zM166 0v987h168v-987h-168zM643 1295q0 52 29 83t79 31q51 0 79 -31t28 -83t-29 -82q-29 -29 -79 -29t-78 30q-29 30 -29 81zM549 -297q117 0 117 170v1114h168v-1110
q0 -226 -151 -292q-90 -40 -247 -7v133q46 -8 113 -8z" />
    <glyph glyph-name="Jcircumflex" unicode="&#x134;" horiz-adv-x="909" 
d="M336 125q62 0 100 14q115 44 115 289v965h172v-979q0 -232 -99 -338t-270 -107q-94 0 -173 46t-130 104l86 112q41 -37 89 -71t110 -35zM920 1540h-154l-119 146l-119 -146h-153v21l176 247h192l177 -247v-21z" />
    <glyph glyph-name="jcircumflex" unicode="&#x135;" horiz-adv-x="499" 
d="M49 -297q117 0 117 170v1114h168v-1110q0 -226 -151 -292q-91 -40 -246 -7v133q46 -8 112 -8zM520 1186h-153l-119 172l-119 -172h-154v20l177 248h192l176 -248v-20z" />
    <glyph glyph-name="uni0136" unicode="&#x136;" horiz-adv-x="1169" 
d="M369 637v-637h-172v1393h172v-686h4l528 686h199v-21l-553 -690l577 -662v-20h-215l-536 637h-4zM700 -137v-21l-77 -288h-134v20l37 289h174z" />
    <glyph glyph-name="uni0137" unicode="&#x137;" horiz-adv-x="989" 
d="M334 459v-459h-168v1434h168v-906h4l387 459h195v-14l-420 -475l434 -482v-16h-207l-389 459h-4zM578 -137v-21l-78 -288h-133v20l36 289h175z" />
    <glyph glyph-name="kgreenlandic" unicode="&#x138;" horiz-adv-x="989" 
d="M334 453v-453h-168v987h168v-465h4l387 465h195v-14l-420 -481l434 -476v-16h-207l-389 453h-4z" />
    <glyph glyph-name="Lacute" unicode="&#x139;" horiz-adv-x="1024" 
d="M369 1393v-1241h585v-152h-757v1393h172zM203 1540v21l123 247h184v-20l-162 -248h-145z" />
    <glyph glyph-name="lacute" unicode="&#x13a;" horiz-adv-x="516" 
d="M174 0v1434h168v-1434h-168zM176 1540v21l123 247h184v-20l-161 -248h-146z" />
    <glyph glyph-name="uni013B" unicode="&#x13b;" horiz-adv-x="1024" 
d="M369 1393v-1241h585v-152h-757v1393h172zM672 -137v-21l-78 -288h-133v20l37 289h174z" />
    <glyph glyph-name="uni013C" unicode="&#x13c;" horiz-adv-x="516" 
d="M174 0v1434h168v-1434h-168zM344 -137v-21l-78 -288h-133v20l37 289h174z" />
    <glyph glyph-name="Lcaron" unicode="&#x13d;" horiz-adv-x="1024" 
d="M369 1393v-1241h585v-152h-757v1393h172zM774 1393v-21l-78 -289h-133v21l37 289h174z" />
    <glyph glyph-name="lcaron" unicode="&#x13e;" horiz-adv-x="516" 
d="M174 0v1434h168v-1434h-168zM649 1393v-21l-78 -289h-133v21l37 289h174z" />
    <glyph glyph-name="Ldot" unicode="&#x13f;" horiz-adv-x="1026" 
d="M369 1393v-1241h585v-152h-757v1393h172zM635 716q0 56 35 92t89 36t88 -36t34 -92t-34 -92t-88 -36t-89 36t-35 92z" />
    <glyph glyph-name="ldot" unicode="&#x140;" horiz-adv-x="645" 
d="M174 0v1434h168v-1434h-168zM459 716q0 56 35 92t89 36t88 -36t34 -92t-34 -92t-88 -36t-89 36t-35 92z" />
    <glyph glyph-name="Lslash" unicode="&#x141;" horiz-adv-x="1032" 
d="M377 1393v-531l176 107h18v-158l-194 -117v-542h586v-152h-758v590l-146 -86h-18v158l164 98v633h172z" />
    <glyph glyph-name="lslash" unicode="&#x142;" horiz-adv-x="636" 
d="M219 0v565l-143 -82h-19v158l162 92v701h168v-598l168 96h18v-158l-186 -108v-666h-168z" />
    <glyph glyph-name="Nacute" unicode="&#x143;" horiz-adv-x="1388" 
d="M1020 1393h172v-1393h-180l-656 1135h-4l17 -261v-874h-172v1393h180l655 -1135h4l-16 260v875zM594 1540v21l123 247h184v-20l-162 -248h-145z" />
    <glyph glyph-name="nacute" unicode="&#x144;" horiz-adv-x="1118" 
d="M793 614q0 262 -205 260q-105 0 -207 -58q-29 -15 -47 -30v-786h-168v987h119l20 -90h4q48 39 142 80t180 41q153 0 241 -93t89 -282v-643h-168v614zM487 1186v20l121 248h187v-20l-162 -248h-146z" />
    <glyph glyph-name="uni0145" unicode="&#x145;" horiz-adv-x="1388" 
d="M1020 1393h172v-1393h-180l-656 1135h-4l17 -261v-874h-172v1393h180l655 -1135h4l-16 260v875zM778 -137v-21l-78 -288h-133v20l37 289h174z" />
    <glyph glyph-name="uni0146" unicode="&#x146;" horiz-adv-x="1118" 
d="M793 614q0 262 -205 260q-105 0 -207 -58q-29 -15 -47 -30v-786h-168v987h119l20 -90h4q48 39 142 80t180 41q153 0 241 -93t89 -282v-643h-168v614zM641 -137v-21l-78 -288h-133v20l37 289h174z" />
    <glyph glyph-name="Ncaron" unicode="&#x147;" horiz-adv-x="1388" 
d="M1020 1393h172v-1393h-180l-656 1135h-4l17 -261v-874h-172v1393h180l655 -1135h4l-16 260v875zM416 1808h153l119 -145l119 145h154v-20l-177 -248h-192l-176 248v20z" />
    <glyph glyph-name="ncaron" unicode="&#x148;" horiz-adv-x="1118" 
d="M793 614q0 262 -205 260q-105 0 -207 -58q-29 -15 -47 -30v-786h-168v987h119l20 -90h4q48 39 142 80t180 41q153 0 241 -93t89 -282v-643h-168v614zM295 1454h154l118 -172l119 172h154v-20l-176 -248h-193l-176 248v20z" />
    <glyph glyph-name="napostrophe" unicode="&#x149;" horiz-adv-x="1118" 
d="M793 614q0 262 -205 260q-105 0 -207 -58q-29 -15 -47 -30v-786h-168v987h119l20 -90h4q48 39 142 80t180 41q153 0 241 -93t89 -282v-643h-168v614zM217 1393v-21l-78 -289h-133v21l37 289h174z" />
    <glyph glyph-name="Eng" unicode="&#x14a;" horiz-adv-x="1388" 
d="M907 -297q113 0 113 170v137l-664 1125h-4l17 -261v-874h-172v1393h180l655 -1129h4l-16 254v875h172v-1516q0 -227 -100.5 -270t-165.5 -43t-131 14v133q46 -8 112 -8z" />
    <glyph glyph-name="eng" unicode="&#x14b;" horiz-adv-x="1118" 
d="M793 614q0 260 -205 260q-95 0 -165.5 -36.5t-88.5 -51.5v-786h-168v987h119l20 -90h4q88 71 180.5 96t141.5 25q154 0 242 -93.5t88 -281.5v-766q0 -227 -100.5 -270t-165.5 -43t-132 14v133q46 -8 113 -8q117 0 117 170v741z" />
    <glyph glyph-name="Omacron" unicode="&#x14c;" horiz-adv-x="1392" 
d="M129 696q0 512 309 672q108 55 260 55q291 0 435 -209q131 -189 131 -516t-137 -527t-429 -201t-437 208q-132 187 -132 518zM698 125q387 0 387 571q0 405 -200 527q-74 45 -187 45q-114 0 -188 -45q-204 -123 -203 -527q0 -257 84 -403q97 -168 307 -168zM459 1591v152
h497v-152h-497z" />
    <glyph glyph-name="omacron" unicode="&#x14d;" horiz-adv-x="1116" 
d="M894 116q-112 -147 -337 -147t-337 147t-109 378q0 362 241 482q84 42 204 42t205 -42t139 -113q106 -139 106 -369t-112 -378zM283 494q0 -170 65 -277q65 -106 207 -105t216 114q61 93 63 268q0 262 -150 350q-53 30 -129 30t-128 -30q-144 -84 -144 -350zM311 1223
v151h498v-151h-498z" />
    <glyph glyph-name="Obreve" unicode="&#x14e;" horiz-adv-x="1392" 
d="M129 696q0 512 309 672q108 55 260 55q291 0 435 -209q131 -189 131 -516t-137 -527t-429 -201t-437 208q-132 187 -132 518zM698 125q387 0 387 571q0 405 -200 527q-74 45 -187 45q-114 0 -188 -45q-204 -123 -203 -527q0 -257 84 -403q97 -168 307 -168zM705 1563
q-118 0 -220 70q-29 19 -51 42l47 107q100 -66 222 -66t227 66l47 -107q-112 -112 -272 -112z" />
    <glyph glyph-name="obreve" unicode="&#x14f;" horiz-adv-x="1116" 
d="M894 116q-112 -147 -337 -147t-337 147t-109 378q0 362 241 482q84 42 204 42t205 -42t139 -113q106 -139 106 -369t-112 -378zM283 494q0 -170 65 -277q65 -106 207 -105t216 114q61 93 63 268q0 262 -150 350q-53 30 -129 30t-128 -30q-144 -84 -144 -350zM558 1339
q121 0 226 66l47 -107q-112 -112 -272 -112q-87 0 -158 35t-112 77l47 107q101 -66 222 -66z" />
    <glyph glyph-name="Ohungarumlaut" unicode="&#x150;" horiz-adv-x="1392" 
d="M129 696q0 512 309 672q108 55 260 55q291 0 435 -209q131 -189 131 -516t-137 -527t-429 -201t-437 208q-132 187 -132 518zM698 125q387 0 387 571q0 405 -200 527q-74 45 -187 45q-114 0 -188 -45q-204 -123 -203 -527q0 -257 84 -403q97 -168 307 -168zM791 1540v21
l120 247h185v-20l-160 -248h-145zM473 1540v21l121 247h184v-20l-160 -248h-145z" />
    <glyph glyph-name="ohungarumlaut" unicode="&#x151;" horiz-adv-x="1116" 
d="M894 116q-112 -147 -337 -147t-337 147t-109 378q0 362 241 482q84 42 204 42t205 -42t139 -113q106 -139 106 -369t-112 -378zM283 494q0 -170 65 -277q65 -106 207 -105t216 114q61 93 63 268q0 262 -150 350q-53 30 -129 30t-128 -30q-144 -84 -144 -350zM668 1186v20
l120 248h185v-20l-160 -248h-145zM350 1186v20l121 248h184v-20l-159 -248h-146z" />
    <glyph glyph-name="OE" unicode="&#x152;" horiz-adv-x="1841" 
d="M697 1268q-112 0 -186.5 -45t-119.5 -124t-64.5 -182.5t-19.5 -289.5t90 -344t301 -158q119 0 195 35v1071q-84 37 -196 37zM680 -31q-134 0 -242 55.5t-176.5 153.5t-100.5 231.5t-32 374t138.5 440t430.5 199.5q113 0 199 -30h813v-152h-643v-455h582v-151h-582v-483
h647v-152h-817q-83 -31 -217 -31z" />
    <glyph glyph-name="oe" unicode="&#x153;" horiz-adv-x="1773" 
d="M1505 591v34q0 172 -91 210.5t-149 38.5q-110 0 -179.5 -84t-77.5 -212h495q2 10 2 13zM285 493.5q0 -75.5 14 -145t46 -122t84 -83t128 -30.5t129 30.5t87 83t48.5 122t14.5 145t-14.5 145.5t-48.5 122t-87 82.5t-129 30.5t-128 -30.5t-84 -82.5t-46 -122t-14 -145.5z
M1669 595q0 -79 -10 -144h-660q0 -142 85.5 -240t222.5 -98q138 0 262 90l63 -125q-150 -109 -350 -109q-131 0 -221 57.5t-141 149.5q-51 -86 -141.5 -146.5t-216.5 -60.5q-230 0 -340.5 145t-110.5 380q0 362 162.5 443t288.5 81t217 -62.5t143 -148.5q49 90 136 150.5
t201 60.5t190.5 -36t125.5 -95.5t71.5 -136t22.5 -155.5z" />
    <glyph glyph-name="Racute" unicode="&#x154;" horiz-adv-x="1251" 
d="M668 756q124 0 188 62t64 179t-65 181t-187 63h-299v-485h299zM197 0v1393h481q196 1 308 -99t112 -280t-82 -277q-82 -96 -223 -123l385 -581v-33h-189l-389 604h-231v-604h-172zM508 1540v21l123 247h184v-20l-162 -248h-145z" />
    <glyph glyph-name="racute" unicode="&#x155;" horiz-adv-x="714" 
d="M525 866q-124 0 -191 -131v-735h-168v987h119l20 -104h4q60 92 177 126q36 9 84 9q47 0 89 -14l-24 -150q-46 12 -110 12zM301 1186v20l121 248h186v-20l-162 -248h-145z" />
    <glyph glyph-name="uni0156" unicode="&#x156;" horiz-adv-x="1251" 
d="M668 756q124 0 188 62t64 179t-65 181t-187 63h-299v-485h299zM197 0v1393h481q196 1 308 -99t112 -280t-82 -277q-82 -96 -223 -123l385 -581v-33h-189l-389 604h-231v-604h-172zM696 -137v-21l-78 -288h-133v20l37 289h174z" />
    <glyph glyph-name="uni0157" unicode="&#x157;" horiz-adv-x="714" 
d="M525 866q-124 0 -191 -131v-735h-168v987h119l20 -104h4q60 92 177 126q36 9 84 9q47 0 89 -14l-24 -150q-46 12 -110 12zM334 -137v-21l-78 -288h-133v20l37 289h174z" />
    <glyph glyph-name="Rcaron" unicode="&#x158;" horiz-adv-x="1251" 
d="M668 756q124 0 188 62t64 179t-65 181t-187 63h-299v-485h299zM197 0v1393h481q196 1 308 -99t112 -280t-82 -277q-82 -96 -223 -123l385 -581v-33h-189l-389 604h-231v-604h-172zM303 1808h154l118 -145l119 145h154v-20l-176 -248h-193l-176 248v20z" />
    <glyph glyph-name="rcaron" unicode="&#x159;" horiz-adv-x="714" 
d="M525 866q-124 0 -191 -131v-735h-168v987h119l20 -104h4q60 92 177 126q36 9 84 9q47 0 89 -14l-24 -150q-46 12 -110 12zM129 1454h154l118 -172l119 172h154v-20l-176 -248h-193l-176 248v20z" />
    <glyph glyph-name="Sacute" unicode="&#x15a;" horiz-adv-x="1034" 
d="M750 346q0 102 -50 156t-159 102l-117 49q-129 55 -212 145t-83 244t114 268t306 114q191 -1 348 -107l-74 -135q-138 86 -270 86q-131 0 -188 -68t-57 -150t36 -135q37 -53 139 -96l117 -51q163 -71 245 -162q83 -91 83 -252q0 -160 -115 -273q-115 -112 -301 -112
q-226 0 -412 148l80 135q142 -127 332 -127q106 0 172 60q66 59 66 161zM455 1540v21l123 247h184v-20l-162 -248h-145z" />
    <glyph glyph-name="sacute" unicode="&#x15b;" horiz-adv-x="880" 
d="M608 259q0 58 -33 90t-100 54l-110 37q-121 41 -168 88q-46 46 -64 90t-18 102q-1 60 23 116q47 112 175 158q63 24 149 24q153 0 300 -70l-55 -135q-120 61 -229 61t-150 -46t-41 -100q-1 -54 29 -87t100 -55l108 -33q256 -74 256 -287q0 -130 -94 -214
q-94 -83 -230 -83t-209 23t-149 71l60 134q130 -86 268 -84q94 0 138 44t44 102zM373 1186v20l121 248h186v-20l-162 -248h-145z" />
    <glyph glyph-name="Scircumflex" unicode="&#x15c;" horiz-adv-x="1034" 
d="M750 346q0 102 -50 156t-159 102l-117 49q-129 55 -212 145t-83 244t114 268t306 114q191 -1 348 -107l-74 -135q-138 86 -270 86q-131 0 -188 -68t-57 -150t36 -135q37 -53 139 -96l117 -51q163 -71 245 -162q83 -91 83 -252q0 -160 -115 -273q-115 -112 -301 -112
q-226 0 -412 148l80 135q142 -127 332 -127q106 0 172 60q66 59 66 161zM811 1540h-154l-118 146l-119 -146h-154v21l176 247h193l176 -247v-21z" />
    <glyph glyph-name="scircumflex" unicode="&#x15d;" horiz-adv-x="880" 
d="M608 259q0 58 -33 90t-100 54l-110 37q-121 41 -168 88q-46 46 -64 90t-18 102q-1 60 23 116q47 112 175 158q63 24 149 24q153 0 300 -70l-55 -135q-120 61 -229 61t-150 -46t-41 -100q-1 -54 29 -87t100 -55l108 -33q256 -74 256 -287q0 -130 -94 -214
q-94 -83 -230 -83t-209 23t-149 71l60 134q130 -86 268 -84q94 0 138 44t44 102zM731 1186h-153l-119 172l-119 -172h-154v20l176 248h193l176 -248v-20z" />
    <glyph glyph-name="Scedilla" unicode="&#x15e;" horiz-adv-x="1036" 
d="M750 347q0 101 -49.5 155.5t-159.5 101.5l-117 49q-129 55 -212 145t-83 244t113.5 267.5t305.5 113.5t349 -106l-74 -135q-138 86 -270 86q-131 0 -188.5 -68t-57.5 -150t37 -135t139 -96l117 -51q168 -73 248 -163.5t80 -242.5t-96.5 -261.5t-260.5 -127.5l-26 -71
q59 -10 96 -47t37 -101q0 -104 -63.5 -147t-152.5 -43t-147 28l25 113q50 -22 97 -22q48 0 70.5 15t22.5 56q0 76 -114 76l-10 20l38 123q-193 18 -344 144l80 135q142 -127 332 -127q106 0 172 60.5t66 161.5z" />
    <glyph glyph-name="scedilla" unicode="&#x15f;" horiz-adv-x="882" 
d="M608 259q0 58 -32.5 90t-100.5 54l-110 37q-121 41 -185.5 105.5t-64.5 183.5t93.5 204t249.5 85t304 -70l-55 -135q-120 61 -229 61t-150 -46t-41 -100t29.5 -87t99.5 -55l108 -33q256 -74 256 -287q0 -115 -74.5 -194.5t-205.5 -98.5l-27 -71q59 -10 97 -47t38 -101
q0 -104 -63.5 -147t-151.5 -43t-149 28l26 113q50 -22 97 -22t70.5 15t23.5 56q0 76 -115 76l-12 20l41 121q-92 6 -154.5 31t-122.5 61l60 134q127 -84 268 -84q94 0 138 44t44 102z" />
    <glyph glyph-name="Scaron" unicode="&#x160;" horiz-adv-x="1034" 
d="M750 346q0 102 -50 156t-159 102l-117 49q-129 55 -212 145t-83 244t114 268t306 114q191 -1 348 -107l-74 -135q-138 86 -270 86q-131 0 -188 -68t-57 -150t36 -135q37 -53 139 -96l117 -51q163 -71 245 -162q83 -91 83 -252q0 -160 -115 -273q-115 -112 -301 -112
q-226 0 -412 148l80 135q142 -127 332 -127q106 0 172 60q66 59 66 161zM270 1808h154l119 -145l119 145h153v-20l-176 -248h-193l-176 248v20z" />
    <glyph glyph-name="scaron" unicode="&#x161;" horiz-adv-x="880" 
d="M608 259q0 58 -33 90t-100 54l-110 37q-121 41 -168 88q-46 46 -64 90t-18 102q-1 60 23 116q47 112 175 158q63 24 149 24q153 0 300 -70l-55 -135q-120 61 -229 61t-150 -46t-41 -100q-1 -54 29 -87t100 -55l108 -33q256 -74 256 -287q0 -130 -94 -214
q-94 -83 -230 -83t-209 23t-149 71l60 134q130 -86 268 -84q94 0 138 44t44 102zM174 1454h154l118 -172l119 172h154v-20l-176 -248h-193l-176 248v20z" />
    <glyph glyph-name="uni0162" unicode="&#x162;" horiz-adv-x="1071" 
d="M543 -246q0 76 -117 76l-10 20l55 150h-25v1241h-372v152h923v-152h-374v-1241h-25l-43 -98q59 -10 96 -47t37 -101q0 -104 -63.5 -147t-150.5 -43t-148 28l26 113q50 -22 97 -22t70.5 15t23.5 56z" />
    <glyph glyph-name="uni0163" unicode="&#x163;" horiz-adv-x="751" 
d="M252 238v608h-182v102l182 39v230h168v-230h262v-141h-262v-590q0 -82 36 -112.5t79 -30.5t85 10t62 14v-139q-88 -26 -168 -29l-27 -67q59 -10 96.5 -47t37.5 -101q0 -104 -63.5 -147t-149.5 -43t-150 28l27 113q50 -22 94 -22q45 0 70.5 15t25.5 56q0 76 -117 76
l-10 20l43 140q-139 53 -139 248z" />
    <glyph glyph-name="Tcaron" unicode="&#x164;" horiz-adv-x="1071" 
d="M997 1393v-152h-374v-1241h-177v1241h-372v152h923zM264 1808h154l119 -145l118 145h154v-20l-176 -248h-193l-176 248v20z" />
    <glyph glyph-name="tcaron" unicode="&#x165;" horiz-adv-x="747" 
d="M250 850h-182v98l182 39v230h168v-230h262v-137h-262v-594q0 -82 36 -113q54 -47 163 -20q42 10 63 14v-139q-100 -28 -195 -28q-96 -1 -166 65t-69 203v612zM782 1393v-21l-77 -289h-134v21l37 289h174z" />
    <glyph glyph-name="Tbar" unicode="&#x166;" horiz-adv-x="1071" 
d="M997 1393v-152h-374v-407h239v-150h-239v-684h-177v684h-233v150h233v407h-372v152h923z" />
    <glyph glyph-name="tbar" unicode="&#x167;" horiz-adv-x="751" 
d="M506 -31q-113 0 -182.5 65.5t-69.5 203.5v251h-137v132h137v225h-182v102l182 39v230h168v-230h262v-141h-262v-225h194v-132h-194v-233q0 -82 36 -112.5t79 -30.5t85 10t62 14v-139q-105 -29 -178 -29z" />
    <glyph glyph-name="Utilde" unicode="&#x168;" horiz-adv-x="1355" 
d="M356 1393v-877q0 -285 179 -363q61 -28 145 -28q158 0 239 101q80 101 80 290v877h172v-899q-1 -246 -119 -385t-374 -139t-375 138q-119 140 -119 388v897h172zM383 1673q77 117 155 117q46 0 78 -13t87 -41q56 -28 96 -28q62 0 110 72l52 -103q-81 -117 -150 -117
q-70 1 -150 42q-80 40 -118 40q-62 0 -109 -71z" />
    <glyph glyph-name="utilde" unicode="&#x169;" horiz-adv-x="1105" 
d="M158 344v643h168v-614q0 -129 46 -195t149 -66t204 59q29 15 47 30v786h168v-987h-119l-18 90h-4q-170 -118 -321 -120q-152 -1 -236 92t-84 282zM260 1298q77 117 147 117t148 -40q79 -40 131 -41q51 -1 100 71l52 -102q-80 -117 -150 -117t-150 40t-129 41
q-50 1 -98 -71z" />
    <glyph glyph-name="Umacron" unicode="&#x16a;" horiz-adv-x="1355" 
d="M356 1393v-877q0 -285 179 -363q61 -28 145 -28q158 0 239 101q80 101 80 290v877h172v-899q-1 -246 -119 -385t-374 -139t-375 138q-119 140 -119 388v897h172zM424 1591v152h498v-152h-498z" />
    <glyph glyph-name="umacron" unicode="&#x16b;" horiz-adv-x="1105" 
d="M158 344v643h168v-614q0 -129 46 -195t149 -66t204 59q29 15 47 30v786h168v-987h-119l-18 90h-4q-170 -118 -321 -120q-152 -1 -236 92t-84 282zM301 1223v151h498v-151h-498z" />
    <glyph glyph-name="Ubreve" unicode="&#x16c;" horiz-adv-x="1355" 
d="M356 1393v-877q0 -285 179 -363q61 -28 145 -28q158 0 239 101q80 101 80 290v877h172v-899q-1 -246 -119 -385t-374 -139t-375 138q-119 140 -119 388v897h172zM670 1563q-121 0 -219 70q-29 19 -52 42l47 107q100 -66 222 -66t227 66l47 -107q-112 -112 -272 -112z" />
    <glyph glyph-name="ubreve" unicode="&#x16d;" horiz-adv-x="1105" 
d="M158 344v643h168v-614q0 -129 46 -195t149 -66t204 59q29 15 47 30v786h168v-987h-119l-18 90h-4q-170 -118 -321 -120q-152 -1 -236 92t-84 282zM552 1339q121 0 226 66l47 -107q-112 -112 -272 -112q-87 0 -158 35t-112 77l47 107q101 -66 222 -66z" />
    <glyph glyph-name="Uring" unicode="&#x16e;" horiz-adv-x="1355" 
d="M356 1393v-877q0 -285 179 -363q61 -28 145 -28q158 0 239 101q80 101 80 290v877h172v-899q-1 -246 -119 -385t-374 -139t-375 138q-119 140 -119 388v897h172zM481 1696q-1 92 53 141t140 49t138 -49t52 -141t-52 -142t-138 -51q-86 1 -140 51t-53 142zM592 1696
q0 -41 22 -64q22 -22 60 -22t60 22t22 64q0 40 -23 62t-59 22t-60 -22q-22 -22 -22 -62z" />
    <glyph glyph-name="uring" unicode="&#x16f;" horiz-adv-x="1105" 
d="M158 344v643h168v-614q0 -129 46 -195t149 -66t204 59q29 15 47 30v786h168v-987h-119l-18 90h-4q-170 -118 -321 -120q-152 -1 -236 92t-84 282zM358 1307q0 92 54 141t139 49q86 0 138 -49t52 -141q0 -93 -52 -143t-138 -50q-85 0 -139 50t-54 143zM469 1307
q0 -41 23 -64q24 -23 60 -23t58 24q22 22 23 63q0 41 -23 63q-24 22 -60 21q-36 1 -58 -21t-23 -63z" />
    <glyph glyph-name="Uhungarumlaut" unicode="&#x170;" horiz-adv-x="1355" 
d="M356 1393v-877q0 -285 179 -363q61 -28 145 -28q158 0 239 101q80 101 80 290v877h172v-899q-1 -246 -119 -385t-374 -139t-375 138q-119 140 -119 388v897h172zM752 1540v21l120 247h185v-20l-160 -248h-145zM434 1540v21l121 247h184v-20l-159 -248h-146z" />
    <glyph glyph-name="uhungarumlaut" unicode="&#x171;" horiz-adv-x="1105" 
d="M158 344v643h168v-614q0 -129 46 -195t149 -66t204 59q29 15 47 30v786h168v-987h-119l-18 90h-4q-170 -118 -321 -120q-152 -1 -236 92t-84 282zM635 1186v20l121 248h184v-20l-160 -248h-145zM317 1186v20l121 248h185v-20l-160 -248h-146z" />
    <glyph glyph-name="Uogonek" unicode="&#x172;" horiz-adv-x="1359" 
d="M512 -242q0 140 90 215q-215 20 -315.5 157.5t-100.5 365.5v897h172v-877q0 -284 120 -337.5t321.5 -53.5t201.5 391v877h173v-899q0 -229 -102.5 -365.5t-321.5 -155.5q-95 -21 -95 -166q0 -102 86 -102q46 0 111 43l16 -127q-77 -57 -163 -57q-130 0 -161.5 70.5
t-31.5 123.5z" />
    <glyph glyph-name="uogonek" unicode="&#x173;" horiz-adv-x="1105" 
d="M807 -436q-134 0 -165.5 70.5t-31.5 118.5q0 86 53 151t150 131l-10 55h-4q-174 -121 -323 -121t-233.5 93.5t-84.5 281.5v643h168v-614q0 -129 46 -194.5t150 -65.5q70 0 144 30.5t106 57.5v786h168v-987q-98 -56 -140 -104t-42 -103q0 -88 88 -88q44 0 112 43l17 -127
q-77 -57 -168 -57z" />
    <glyph glyph-name="Wcircumflex" unicode="&#x174;" horiz-adv-x="1869" 
d="M66 1393h178l207 -840l73 -346h4l82 346l234 840h182l234 -840l81 -346h5l73 346l207 840h180v-21l-370 -1372h-174l-242 874l-82 351h-6l-82 -351l-240 -874h-176l-368 1372v21zM1208 1540h-153l-119 146l-119 -146h-153v21l176 247h192l176 -247v-21z" />
    <glyph glyph-name="wcircumflex" unicode="&#x175;" horiz-adv-x="1570" 
d="M66 987h170l182 -625l41 -180h4l43 180l192 625h172l195 -625l43 -180h4l41 180l182 625h170v-20l-309 -967h-162l-203 639l-45 184h-4l-45 -184l-200 -639h-162l-309 967v20zM1059 1186h-154l-119 172l-118 -172h-154v20l176 248h193l176 -248v-20z" />
    <glyph glyph-name="Ycircumflex" unicode="&#x176;" horiz-adv-x="1081" 
d="M1053 1393v-21l-426 -782v-590h-172v590l-424 782v21h184l324 -633h4l327 633h183zM819 1540h-153l-119 146l-119 -146h-154v21l177 247h192l176 -247v-21z" />
    <glyph glyph-name="ycircumflex" unicode="&#x177;" horiz-adv-x="985" 
d="M214 -297q60 0 96 46t65 128l45 133l-365 957v20h166l215 -625l58 -194h4l53 194l207 625h164v-20l-379 -1100q-53 -155 -130 -229t-184 -74q-72 0 -166 26v138q91 -25 151 -25zM770 1186h-154l-118 172l-119 -172h-154v20l176 248h193l176 -248v-20z" />
    <glyph glyph-name="Ydieresis" unicode="&#x178;" horiz-adv-x="1081" 
d="M1053 1393v-21l-426 -782v-590h-172v590l-424 782v21h184l324 -633h4l327 633h183zM647 1670q0 52 29 83t79 31t79 -31q28 -31 28 -83t-28 -82t-79 -30q-50 0 -79 30t-29 82zM231 1670q0 52 29 83t79 31t79 -31q28 -31 28 -83t-28 -82t-79 -30q-50 0 -79 30t-29 82z" />
    <glyph glyph-name="Zacute" unicode="&#x179;" horiz-adv-x="1067" 
d="M958 1393v-146l-651 -1091v-4h651v-152h-864v145l649 1092v4h-616v152h831zM453 1540v21l122 247h185v-20l-162 -248h-145z" />
    <glyph glyph-name="zacute" unicode="&#x17a;" horiz-adv-x="874" 
d="M772 987v-102l-475 -746v-4h475v-135h-682v102l475 746v4h-448v135h655zM377 1186v20l121 248h186v-20l-162 -248h-145z" />
    <glyph glyph-name="Zdotaccent" unicode="&#x17b;" horiz-adv-x="1067" 
d="M958 1393v-146l-651 -1091v-4h651v-152h-864v145l649 1092v4h-616v152h831zM449 1670q0 52 28 83q29 31 79 31t79 -31t29 -83t-29 -82t-79 -30t-79 30q-28 30 -28 82z" />
    <glyph glyph-name="zdotaccent" unicode="&#x17c;" horiz-adv-x="874" 
d="M772 987v-102l-475 -746v-4h475v-135h-682v102l475 746v4h-448v135h655zM352 1297q0 52 29 83t79 31t79 -31t29 -83t-30 -82q-28 -29 -78 -29t-79 30t-29 81z" />
    <glyph glyph-name="Zcaron" unicode="&#x17d;" horiz-adv-x="1067" 
d="M958 1393v-146l-651 -1091v-4h651v-152h-864v145l649 1092v4h-616v152h831zM283 1808h153l119 -145l119 145h153v-20l-176 -248h-192l-176 248v20z" />
    <glyph glyph-name="zcaron" unicode="&#x17e;" horiz-adv-x="874" 
d="M772 987v-102l-475 -746v-4h475v-135h-682v102l475 746v4h-448v135h655zM186 1454h154l119 -172l119 172h153v-20l-176 -248h-193l-176 248v20z" />
    <glyph glyph-name="florin" unicode="&#x192;" 
d="M225 -293q123 0 148 164l123 741h-193l23 142h192l53 348q29 172 111 246.5t223 74.5q49 0 127 -12l-16 -145q-70 14 -125 14q-118 0 -148 -164l-55 -362h230l-23 -142h-229l-121 -727q-29 -172 -109 -246.5t-221 -74.5q-52 0 -127 12l16 145q63 -14 121 -14z" />
    <glyph glyph-name="Aringacute" unicode="&#x1fa;" horiz-adv-x="1218" 
d="M612 1556q-82 0 -82 -79q0 -41 23 -61t59 -21q36 0 60 20q23 20 22 62q0 79 -82 79zM608 1219l-108 -377l-113 -338h442l-108 338l-109 377h-4zM420 1477q0 141 118 179v16l122 200h183v-16l-159 -199q119 -38 119 -180q0 -110 -80 -162l457 -1315h-181l-116 360h-547
l-119 -360h-178l457 1315q-76 51 -76 162z" />
    <glyph glyph-name="aringacute" unicode="&#x1fb;" horiz-adv-x="1011" 
d="M424 1505v17l121 200h184v-16l-162 -201h-143zM96 268q0 310 389 310h201v63q0 167 -78 200t-133 33q-152 0 -262 -83l-70 116q143 111 334 111q192 0 284.5 -102.5t92.5 -278.5v-637h-123l-16 90h-4q-149 -121 -301 -121t-233 78t-81 221zM500 459q-232 0 -232 -191
q0 -72 39 -113.5t115 -41.5t138.5 15t125.5 69v262h-186zM305 1266q0 92 53.5 136t139.5 44t138 -44t52 -136t-52 -137.5t-138 -45.5t-139.5 45.5t-53.5 137.5zM498 1346q-82 0 -82 -60.5t22.5 -81t59.5 -20.5t59.5 20.5t22.5 81t-82 60.5z" />
    <glyph glyph-name="AEacute" unicode="&#x1fc;" horiz-adv-x="1740" 
d="M797 504v401l20 314h-4l-145 -291l-228 -424h357zM1610 1393v-152h-641v-455h581v-151h-581v-483h647v-152h-819v360h-435l-198 -360h-164v20l745 1373h865zM1077 1540v21l123 247h184v-20l-161 -248h-146z" />
    <glyph glyph-name="aeacute" unicode="&#x1fd;" horiz-adv-x="1593" 
d="M1325 601v24q0 174 -124 230q-42 19 -100 19q-111 0 -167 -81q-55 -81 -66 -215h455q2 10 2 23zM1452 78q-150 -109 -310 -109q-94 -1 -147 15q-98 29 -166 115q-30 40 -55 89q-133 -215 -381 -219q-133 0 -215 80t-82 232q0 151 114 230q93 65 269 67h217v63
q0 167 -122 216q-42 17 -97 17q-152 0 -262 -83l-70 116q143 111 328 111q215 0 330 -174q112 174 305 174q192 0 294 -131q85 -109 87 -295q0 -76 -10 -141h-619q0 -140 75 -240t198 -98q94 1 149 27t107 63zM504 455q-236 0 -238 -179q0 -86 46 -124t104 -39
q180 0 257 191q26 65 25 151h-194zM735 1186v20l121 248h186v-20l-161 -248h-146z" />
    <glyph glyph-name="Oslashacute" unicode="&#x1fe;" horiz-adv-x="1392" 
d="M307 696q0 -250 74 -387l545 885q-89 72 -215 73q-127 1 -201 -44q-204 -123 -203 -527zM685 125q126 0 200 45q200 122 200 519q0 255 -73 394l-543 -884q90 -74 216 -74zM129 696q0 512 309 672q109 55 275 55t299 -88l75 119l113 -68l-90 -143q154 -192 154 -532
q0 -339 -137 -540q-137 -200 -429 -202q-187 0 -315 88l-70 -108l-108 71l78 130q-154 189 -154 546zM643 1540v21l123 247h184v-20l-162 -248h-145z" />
    <glyph glyph-name="oslashacute" unicode="&#x1ff;" horiz-adv-x="1116" 
d="M285 466q0 -104 39 -200l393 557q-63 51 -149 51q-221 0 -269 -234q-14 -70 -14 -174zM836 494q0 114 -37 213l-389 -551q62 -43 143 -43q80 1 133 31q150 86 150 350zM571 1018q133 0 236 -68l65 92l111 -75l-78 -109q103 -140 103 -364q0 -362 -245 -483
q-85 -42 -215 -42t-229 60l-63 -88l-106 79l69 99q-108 142 -106 375q0 362 241 482q84 42 217 42zM479 1186v20l121 248h186v-20l-161 -248h-146z" />
    <glyph glyph-name="uni0218" unicode="&#x218;" horiz-adv-x="1034" 
d="M750 346q0 102 -50 156t-159 102l-117 49q-129 55 -212 145t-83 244t114 268t306 114q191 -1 348 -107l-74 -135q-138 86 -270 86q-131 0 -188 -68t-57 -150t36 -135q37 -53 139 -96l117 -51q163 -71 245 -162q83 -91 83 -252q0 -160 -115 -273q-115 -112 -301 -112
q-226 0 -412 148l80 135q142 -127 332 -127q106 0 172 60q66 59 66 161zM610 -137v-21l-78 -288h-133v20l37 289h174z" />
    <glyph glyph-name="uni0219" unicode="&#x219;" horiz-adv-x="880" 
d="M608 259q0 58 -33 90t-100 54l-110 37q-121 41 -168 88q-46 46 -64 90t-18 102q-1 60 23 116q47 112 175 158q63 24 149 24q153 0 300 -70l-55 -135q-120 61 -229 61t-150 -46t-41 -100q-1 -54 29 -87t100 -55l108 -33q256 -74 256 -287q0 -130 -94 -214
q-94 -83 -230 -83t-209 23t-149 71l60 134q130 -86 268 -84q94 0 138 44t44 102zM545 -137v-21l-78 -288h-133v20l37 289h174z" />
    <glyph glyph-name="uni021A" unicode="&#x21a;" horiz-adv-x="1071" 
d="M997 1393v-152h-374v-1241h-177v1241h-372v152h923zM623 -137v-21l-78 -288h-133v20l37 289h174z" />
    <glyph glyph-name="uni021B" unicode="&#x21b;" horiz-adv-x="747" 
d="M250 850h-182v98l182 39v230h168v-230h262v-137h-262v-594q0 -82 36 -113q54 -47 163 -20q42 10 63 14v-139q-100 -28 -195 -28q-96 -1 -166 65t-69 203v612zM569 -137v-21l-77 -288h-134v20l37 289h174z" />
    <glyph glyph-name="uni0237" unicode="&#x237;" horiz-adv-x="499" 
d="M49 -297q117 0 117 170v1114h168v-1110q0 -227 -100.5 -270t-165.5 -43t-131 14v133q46 -8 112 -8z" />
    <glyph glyph-name="circumflex" unicode="&#x2c6;" horiz-adv-x="1110" 
d="M827 1186h-153l-119 172l-119 -172h-153v20l176 248h192l176 -248v-20z" />
    <glyph glyph-name="caron" unicode="&#x2c7;" horiz-adv-x="1110" 
d="M283 1454h153l119 -172l119 172h153v-20l-176 -248h-192l-176 248v20z" />
    <glyph glyph-name="uni02C9" unicode="&#x2c9;" horiz-adv-x="1112" 
d="M305 1243v152h498v-152h-498z" />
    <glyph glyph-name="breve" unicode="&#x2d8;" horiz-adv-x="1110" 
d="M554 1339q124 0 224 66l47 -107q-112 -112 -235 -112t-193 34t-114 78l47 107q100 -66 224 -66z" />
    <glyph glyph-name="dotaccent" unicode="&#x2d9;" horiz-adv-x="1110" 
d="M446 1297q0 52 29 83t79 31t79 -30.5t29 -82.5t-29 -82t-79 -30t-79 29.5t-29 81.5z" />
    <glyph glyph-name="ring" unicode="&#x2da;" horiz-adv-x="1110" 
d="M362 1306.5q0 92.5 53.5 141.5t139.5 49t138 -49t52 -141.5t-52 -142.5t-138 -50t-139.5 50t-53.5 142.5zM473 1307q0 -41 22.5 -63.5t59.5 -22.5t59.5 22.5t22.5 63.5t-22.5 62.5t-59.5 21.5t-59.5 -21.5t-22.5 -62.5z" />
    <glyph glyph-name="ogonek" unicode="&#x2db;" horiz-adv-x="1110" 
d="M733 -379q-77 -57 -163 -57t-143.5 46.5t-57.5 147.5q0 128 102 203.5t156 108.5l69 -62q-180 -127 -180 -215t88 -88q35 0 62.5 14.5t50.5 28.5z" />
    <glyph glyph-name="tilde" unicode="&#x2dc;" horiz-adv-x="1110" 
d="M844 1303q-80 -117 -158 -117q-58 0 -140 41t-120 41q-59 0 -109 -72l-51 102q77 117 155 117q46 0 77.5 -13t87.5 -41t106 -28t101 72z" />
    <glyph glyph-name="hungarumlaut" unicode="&#x2dd;" horiz-adv-x="1110" 
d="M561 1186v20l121 248h184v-20l-159 -248h-146zM244 1186v20l121 248h184v-20l-160 -248h-145z" />
    <glyph glyph-name="tonos" unicode="&#x384;" horiz-adv-x="1208" 
d="M563 1145v20l60 289h170v-20l-103 -289h-127z" />
    <glyph glyph-name="dieresistonos" unicode="&#x385;" horiz-adv-x="1208" 
d="M551 1124v21l49 309h191v-20l-93 -310h-147zM831 1257.5q0 53.5 32 84t86 30.5t86 -30.5t32 -84t-31.5 -85t-85.5 -31.5t-86.5 31.5t-32.5 85zM244 1257.5q0 53.5 31.5 84t85.5 30.5t86 -30.5t32 -84t-31.5 -85t-85.5 -31.5t-86 31.5t-32 85z" />
    <glyph glyph-name="Alphatonos" unicode="&#x386;" horiz-adv-x="1271" 
d="M662 1219l-109 -377l-113 -338h443l-109 338l-108 377h-4zM1233 0h-180l-117 360h-547l-119 -360h-178l483 1393h175zM125 1083v21l49 289h174v-21l-92 -289h-131z" />
    <glyph glyph-name="anoteleia" unicode="&#x387;" horiz-adv-x="524" 
d="M139 589q0 56 35 92t89 36t88 -36t34 -92t-34 -92t-88 -36t-89 36t-35 92z" />
    <glyph glyph-name="Epsilontonos" unicode="&#x388;" horiz-adv-x="1370" 
d="M1239 1393v-152h-641v-455h582v-151h-582v-483h647v-152h-819v1393h813zM45 1083v21l49 289h174v-21l-92 -289h-131z" />
    <glyph glyph-name="Etatonos" unicode="&#x389;" horiz-adv-x="1601" 
d="M1233 635h-635v-635h-172v1393h172v-607h635v607h172v-1393h-172v635zM45 1083v21l49 289h174v-21l-92 -289h-131z" />
    <glyph glyph-name="Iotatonos" unicode="&#x38a;" horiz-adv-x="794" 
d="M598 0h-172v1393h172v-1393zM45 1083v21l49 289h174v-21l-92 -289h-131z" />
    <glyph glyph-name="Omicrontonos" unicode="&#x38c;" horiz-adv-x="1574" 
d="M311 696q0 513 310 672q109 55 261 55q292 0 433 -209q131 -189 131 -516t-137 -527t-428 -201t-438 208q-132 187 -132 518zM881 1268q-392 0 -392 -572q0 -404 204 -526q75 -45 188 -45q382 0 387 571q0 572 -387 572zM59 1083v21l50 289h174v-21l-93 -289h-131z" />
    <glyph glyph-name="Upsilontonos" unicode="&#x38e;" horiz-adv-x="1456" 
d="M1427 1393v-21l-426 -782v-590h-172v590l-423 782v21h184l323 -633h5l327 633h182zM68 1083v21l49 289h174v-21l-92 -289h-131z" />
    <glyph glyph-name="Omegatonos" unicode="&#x38f;" horiz-adv-x="1583" 
d="M578 152q-271 206 -271 590q0 122 32 250q67 269 277 376q109 55 261 55q289 0 435 -206q132 -184 132 -500q0 -177 -77 -326t-193 -239h262v-152h-457v143q131 99 208 231t77 320q0 403 -201 528q-74 46 -186 46q-385 0 -390 -572q0 -188 78 -321t207 -232v-143h-457
v152h263zM66 1083v21l49 289h174v-21l-92 -289h-131z" />
    <glyph glyph-name="iotadieresistonos" unicode="&#x390;" horiz-adv-x="548" 
d="M355 -31q-79 1 -133 61t-54 195v762h168v-764q0 -67 20 -89t63 -22t73 13v-139q-57 -17 -137 -17zM190 1124v21l50 309h190v-20l-92 -310h-148zM471 1257q0 53 32 84t86 31t86 -31t32 -84t-32 -85t-86 -32t-86 32t-32 85zM-117 1257q0 53 32 84t86 31t86 -31t32 -84
t-32 -85t-86 -32t-86 32t-32 85z" />
    <glyph glyph-name="Alpha" unicode="&#x391;" horiz-adv-x="1218" 
d="M608 1219l-108 -377l-113 -338h442l-108 338l-109 377h-4zM1180 0h-181l-116 360h-547l-119 -360h-178l483 1393h174z" />
    <glyph glyph-name="Beta" unicode="&#x392;" horiz-adv-x="1214" 
d="M369 772h235q137 0 200 50q64 50 64 186q0 135 -65 184q-66 49 -199 49h-235v-469zM686 0h-489v1393h419q431 0 431 -357q1 -123 -49 -205t-119 -108v-4q219 -74 221 -344q0 -175 -108 -275t-306 -100zM369 152h299q118 0 186 53t68 183t-69 181t-187 52h-297v-469z" />
    <glyph glyph-name="Gamma" unicode="&#x393;" horiz-adv-x="1017" 
d="M197 0v1393h751v-152h-579v-1241h-172z" />
    <glyph glyph-name="uni0394" unicode="&#x394;" horiz-adv-x="1222" 
d="M610 1219l-108 -367l-238 -709h699l-240 709l-109 367h-4zM1182 0h-1137v10l481 1383h174l482 -1383v-10z" />
    <glyph glyph-name="Epsilon" unicode="&#x395;" horiz-adv-x="1140" 
d="M1010 1393v-152h-641v-455h581v-151h-581v-483h647v-152h-819v1393h813z" />
    <glyph glyph-name="Zeta" unicode="&#x396;" horiz-adv-x="1067" 
d="M958 1393v-146l-651 -1091v-4h651v-152h-864v145l649 1092v4h-616v152h831z" />
    <glyph glyph-name="Eta" unicode="&#x397;" horiz-adv-x="1372" 
d="M1004 635h-635v-635h-172v1393h172v-607h635v607h172v-1393h-172v635z" />
    <glyph glyph-name="Theta" unicode="&#x398;" horiz-adv-x="1392" 
d="M1264 696.5q0 -153.5 -32 -287t-99.5 -231.5t-175 -153.5t-259 -55.5t-260 55.5t-177 153.5t-100.5 231.5t-32 287t32 286.5t100.5 231.5t177 153.5t260 55t259 -55t175 -153.5t99.5 -231.5t32 -286.5zM696 1268q-389 0 -389 -488t139.5 -571.5t389 -83.5t249.5 571.5
t-389 571.5zM469 625v170h457v-170h-457z" />
    <glyph glyph-name="Iota" unicode="&#x399;" horiz-adv-x="565" 
d="M369 0h-172v1393h172v-1393z" />
    <glyph glyph-name="Kappa" unicode="&#x39a;" horiz-adv-x="1169" 
d="M369 637v-637h-172v1393h172v-686h4l528 686h199v-21l-553 -690l577 -662v-20h-215l-536 637h-4z" />
    <glyph glyph-name="Lambda" unicode="&#x39b;" horiz-adv-x="1218" 
d="M217 0h-178l483 1393h174l484 -1393h-181l-278 842l-109 356h-4l-108 -356z" />
    <glyph glyph-name="Mu" unicode="&#x39c;" horiz-adv-x="1646" 
d="M1450 1393v-1393h-172v874l20 240h-4l-407 -764h-127l-408 764h-4l21 -240v-874h-172v1393h163l349 -602l112 -263h2l113 263l350 602h164z" />
    <glyph glyph-name="Nu" unicode="&#x39d;" horiz-adv-x="1388" 
d="M1020 1393h172v-1393h-180l-656 1135h-4l17 -261v-874h-172v1393h180l655 -1135h4l-16 260v875z" />
    <glyph glyph-name="Xi" unicode="&#x39e;" horiz-adv-x="1114" 
d="M133 1231v162h844v-162h-844zM199 629v162h719v-162h-719zM983 162v-162h-850v162h850z" />
    <glyph glyph-name="Omicron" unicode="&#x39f;" horiz-adv-x="1392" 
d="M129 696q0 512 309 672q108 55 260 55q291 0 435 -209q131 -189 131 -516t-137 -527t-429 -201t-437 208q-132 187 -132 518zM698 125q387 0 387 571q0 405 -200 527q-74 45 -187 45q-114 0 -188 -45q-204 -123 -203 -527q0 -257 84 -403q97 -168 307 -168z" />
    <glyph glyph-name="Pi" unicode="&#x3a0;" horiz-adv-x="1363" 
d="M995 1241h-626v-1241h-172v1393h970v-1393h-172v1241z" />
    <glyph glyph-name="Rho" unicode="&#x3a1;" horiz-adv-x="1150" 
d="M371 696h250q135 0 199 76t65 196q0 120 -65 196t-199 77h-250v-545zM197 0v1393h438q206 0 317 -111t111 -311t-112 -315q-113 -113 -316 -111h-264v-545h-174z" />
    <glyph glyph-name="Sigma" unicode="&#x3a3;" horiz-adv-x="1081" 
d="M121 1393h854v-152h-653l311 -524l-344 -565h686v-152h-883v131l350 578l-321 551v133z" />
    <glyph glyph-name="Tau" unicode="&#x3a4;" horiz-adv-x="1071" 
d="M997 1393v-152h-374v-1241h-177v1241h-372v152h923z" />
    <glyph glyph-name="Upsilon" unicode="&#x3a5;" horiz-adv-x="1081" 
d="M1053 1393v-21l-426 -782v-590h-172v590l-424 782v21h184l324 -633h4l327 633h183z" />
    <glyph glyph-name="Phi" unicode="&#x3a6;" horiz-adv-x="1527" 
d="M1121.5 991q-95.5 110 -298.5 129v-844q203 15 298.5 128.5t95.5 295t-95.5 291.5zM276 650q0 -132 85.5 -244.5t291.5 -129.5v844q-298 -27 -337.5 -182.5t-39.5 -287.5zM1254.5 305q-140.5 -155 -431.5 -174v-131h-170v131q-289 19 -422 172t-133 395q0 376 201 465.5
t354 100.5v129h170v-129q290 -19 431 -172.5t141 -392.5t-140.5 -394z" />
    <glyph glyph-name="Chi" unicode="&#x3a7;" horiz-adv-x="1132" 
d="M1065 1393v-21l-391 -676l391 -676v-20h-184l-314 569h-4l-311 -569h-184v20l389 676l-389 676v21h184l311 -572h4l314 572h184z" />
    <glyph glyph-name="Psi" unicode="&#x3a8;" horiz-adv-x="1394" 
d="M1087 858v535h173v-555q0 -246 -115 -378t-363 -134v-326h-172v326q-250 2 -362.5 134t-112.5 380v553h172v-535q0 -369 303 -377v912h172v-912q305 8 305 377z" />
    <glyph glyph-name="uni03A9" unicode="&#x3a9;" horiz-adv-x="1415" 
d="M412 152q-271 206 -271 590q0 122 32 250q67 270 278 376q109 55 261 55q289 0 434 -206q132 -184 132 -500q0 -177 -77 -326t-193 -239h262v-152h-457v143q131 99 208 231t77 320q0 403 -201 528q-73 46 -185 46q-211 0 -306 -169q-84 -147 -84 -403q0 -188 78 -321
t206 -232v-143h-456v152h262z" />
    <glyph glyph-name="Iotadieresis" unicode="&#x3aa;" horiz-adv-x="565" 
d="M369 0h-172v1393h172v-1393zM383 1670q0 52 29 83q28 31 78 31t79 -31t29 -83t-29 -82t-79 -30t-78 30t-29 82zM-33 1670q0 52 29 83t79 31t79 -31q28 -31 28 -83t-28 -82t-79 -30q-50 0 -79 30t-29 82z" />
    <glyph glyph-name="Upsilondieresis" unicode="&#x3ab;" horiz-adv-x="1081" 
d="M1053 1393v-21l-426 -782v-590h-172v590l-424 782v21h184l324 -633h4l327 633h183zM629 1670q0 52 28 83q29 31 79 31t79 -31t29 -83t-29 -82t-79 -30t-79 30q-28 30 -28 82zM213 1670q0 52 29 83q28 31 78 31t79 -31t29 -83t-29 -82t-79 -30t-78 30t-29 82z" />
    <glyph glyph-name="alphatonos" unicode="&#x3ac;" horiz-adv-x="1171" 
d="M285 492q0 -382 219 -379q98 0 170 109t104 272q-49 252 -177 348q-44 33 -97 32q-219 0 -219 -382zM504 1018q223 0 332 -275h2l57 244h168l-131 -491l131 -496h-168l-57 244h-2q-111 -275 -330 -275q-198 0 -297 149q-98 149 -96 376q0 361 213 482q74 42 178 42z
M545 1145v20l59 289h170v-20l-102 -289h-127z" />
    <glyph glyph-name="epsilontonos" unicode="&#x3ad;" horiz-adv-x="937" 
d="M285 284q0 -170 260 -171q140 0 272 61l39 -129q-129 -74 -327 -75t-309 81t-109 215q0 183 161 244v4q-57 23 -95 78t-38 139q0 127 89 207t274 80t327 -68l-34 -129q-153 53 -299 53t-173 -102q-33 -112 42 -164q44 -31 108 -33h236v-137h-246q-78 0 -128 -38t-50 -116
zM467 1145v20l59 289h170v-20l-102 -289h-127z" />
    <glyph glyph-name="etatonos" unicode="&#x3ae;" horiz-adv-x="1118" 
d="M793 614q0 262 -205 260q-105 0 -207 -58q-29 -15 -47 -30v-786h-168v987h119l20 -90h4q48 39 142 80t180 41q153 0 241 -93t89 -282v-1049h-168v1020zM526 1145v20l60 289h170v-20l-103 -289h-127z" />
    <glyph glyph-name="iotatonos" unicode="&#x3af;" horiz-adv-x="548" 
d="M355 -31q-79 1 -133 61t-54 195v762h168v-764q0 -67 20 -89t63 -22t73 13v-139q-57 -17 -137 -17zM201 1145v20l59 289h170v-20l-102 -289h-127z" />
    <glyph glyph-name="upsilondieresistonos" unicode="&#x3b0;" horiz-adv-x="1071" 
d="M950 500q0 -274 -105 -402t-295 -129q-190 0 -293 113t-103 336v569h168v-561q0 -315 229 -313q231 0 231 387q0 208 -98 487h180q86 -301 86 -487zM475 1145v20l60 289h170v-20l-103 -289h-127z" />
    <glyph glyph-name="alpha" unicode="&#x3b1;" horiz-adv-x="1171" 
d="M285 493.5q0 -380.5 219 -380.5q98 0 170.5 110.5t103.5 270.5q-49 253 -135 316.5t-139 63.5q-219 0 -219 -380.5zM113 494q0 361 143 442.5t248 81.5q223 0 332 -275h2l57 244h168l-131 -491l131 -496h-168l-57 244h-2q-111 -275 -330 -275q-198 0 -295.5 147
t-97.5 378z" />
    <glyph glyph-name="beta" unicode="&#x3b2;" horiz-adv-x="1114" 
d="M836 397q0 127 -69 208t-224 81h-76v133h86q92 0 137 67.5t45 142.5q0 131 -53.5 201t-149.5 70q-194 0 -194 -311v-790q95 -86 252 -86q113 0 179.5 78.5t66.5 205.5zM905 1065q0 -202 -168 -295v-4q179 -53 225 -172t46 -210q0 -183 -119.5 -299t-290.5 -116
q-86 0 -152.5 27t-103.5 55h-4v-457h-172v1410q0 225 96 332.5t272 107.5t273.5 -105.5t97.5 -273.5z" />
    <glyph glyph-name="gamma" unicode="&#x3b3;" horiz-adv-x="978" 
d="M557 -406h-168v416l-328 957v20h168l189 -588l57 -221h4q25 42 52 118t63 158t79.5 231t65.5 302h166v-20q-65 -417 -348 -961v-412z" />
    <glyph glyph-name="delta" unicode="&#x3b4;" horiz-adv-x="1101" 
d="M823 450q0 168 -120.5 268.5t-172.5 141.5q-170 -105 -210.5 -226.5t-40.5 -187.5q0 -139 66 -236t204 -97t206 97t68 240zM632 1300q-91 0 -126 -34.5t-35 -83.5t39 -94.5t97.5 -93.5t223 -179.5t164.5 -370.5q0 -196 -111 -335.5t-335 -139.5t-332 138t-108 324
q0 342 315 501q-121 107 -121 236q0 128 88.5 202t237.5 74q90 0 182 -23v-145q-88 24 -179 24z" />
    <glyph glyph-name="epsilon" unicode="&#x3b5;" horiz-adv-x="937" 
d="M508 874q-195 0 -195 -166q0 -61 48.5 -97t111.5 -36h236v-137h-246q-78 0 -128 -38t-50 -116q0 -170 260 -171q139 0 272 61l39 -129q-132 -76 -331 -76q-198 0 -306 81t-108 216q0 183 161 244v4q-57 23 -95 78t-38 139q0 127 89 207t274 80t327 -68l-34 -129
q-153 53 -287 53z" />
    <glyph glyph-name="zeta" unicode="&#x3b6;" horiz-adv-x="872" 
d="M823 1434v-125q-328 -425 -410.5 -553.5t-112.5 -203t-30 -144.5t37 -116t91.5 -77t118 -53.5t117.5 -54t91 -79.5t37 -134q0 -148 -148 -254l-114 98q25 16 58.5 54t33.5 83t-37 70.5t-91 49t-210 91t-156 326.5q0 149 117.5 326t413.5 554v4h-498v138h692z" />
    <glyph glyph-name="eta" unicode="&#x3b7;" horiz-adv-x="1118" 
d="M793 614q0 260 -205 260q-95 0 -165.5 -36.5t-88.5 -51.5v-786h-168v987h119l20 -90h4q88 71 180.5 96t141.5 25q154 0 242 -93.5t88 -281.5v-1049h-168v1020z" />
    <glyph glyph-name="theta" unicode="&#x3b8;" horiz-adv-x="1148" 
d="M608.5 113q106.5 0 171 134.5t72.5 377.5h-557q13 -375 110 -443.5t203.5 -68.5zM365.5 1159.5q-64.5 -140.5 -72.5 -397.5h559q-9 266 -71 402t-206.5 136t-209 -140.5zM1026 706.5q0 -737.5 -452.5 -737.5t-452.5 636t166 737.5t452.5 101.5t286.5 -737.5z" />
    <glyph glyph-name="iota" unicode="&#x3b9;" horiz-adv-x="548" 
d="M355 -31q-80 0 -133.5 60.5t-53.5 195.5v762h168v-764q0 -66 20.5 -88t61.5 -22t74 12v-139q-57 -17 -137 -17z" />
    <glyph glyph-name="kappa" unicode="&#x3ba;" horiz-adv-x="972" 
d="M332 444v-444h-166v987h166v-479h4l375 479h188v-14l-391 -488l412 -471v-14h-199l-385 444h-4z" />
    <glyph glyph-name="lambda" unicode="&#x3bb;" horiz-adv-x="983" 
d="M256 1444q105 0 162 -60t92 -172l412 -1192v-20h-166l-174 524l-78 275h-6l-82 -271l-189 -528h-168v20l363 957l-62 186q-18 53 -46.5 95t-73.5 42t-103 -14v137q60 21 119 21z" />
    <glyph glyph-name="uni03BC" unicode="&#x3bc;" horiz-adv-x="1114" 
d="M336 -406h-168v1393h168v-614q0 -129 46 -195t149 -66t204 59q29 15 47 30v786h168v-987h-119l-18 90h-4q-170 -118 -317 -121q-91 0 -173 58l17 -148v-285z" />
    <glyph glyph-name="nu" unicode="&#x3bd;" horiz-adv-x="976" 
d="M61 987h168l185 -588l57 -221h4q30 58 56.5 128t62.5 152t79.5 230t65.5 299h166v-20q-65 -418 -352 -967h-160l-332 967v20z" />
    <glyph glyph-name="xi" unicode="&#x3be;" horiz-adv-x="925" 
d="M143 1026q0 186 156 266v4h-186v138h731v-138h-266q-129 0 -196 -76.5t-67 -181.5t67 -182.5t193 -77.5h166v-137h-149q-242 0 -275.5 -102.5t-33.5 -166.5t41 -108.5t103 -73t134 -48t175.5 -65t103.5 -171.5q0 -158 -158 -266l-113 98q57 38 78 78t21 72t-41 56.5
t-103.5 46t-237.5 81t-175 301.5q0 129 61 218t160 128v4q-69 28 -129 115t-60 188z" />
    <glyph glyph-name="omicron" unicode="&#x3bf;" horiz-adv-x="1116" 
d="M894 116q-112 -147 -337 -147t-337 147t-109 378q0 362 241 482q84 42 204 42t205 -42t139 -113q106 -139 106 -369t-112 -378zM283 494q0 -170 65 -277q65 -106 207 -105t216 114q61 93 63 268q0 262 -150 350q-53 30 -129 30t-128 -30q-144 -84 -144 -350z" />
    <glyph glyph-name="pi" unicode="&#x3c0;" horiz-adv-x="1118" 
d="M711 225v625h-322v-850h-168v850h-180v137h1016v-137h-178v-627q0 -66 21.5 -88t62.5 -22t71 12v-139q-57 -17 -137 -17t-133 60.5t-53 195.5z" />
    <glyph glyph-name="rho" unicode="&#x3c1;" horiz-adv-x="1105" 
d="M154 -406v930q0 254 114 374t293 120q219 0 326.5 -145.5t107.5 -378.5q0 -360 -147.5 -442.5t-245.5 -82.5q-159 0 -272 92h-4v-467h-172zM545 113q80 0 133 31.5t85 84t46 122t14 189.5t-64 227t-198 107q-104 0 -169.5 -84.5t-65.5 -254.5v-326q41 -41 90 -68.5
t129 -27.5z" />
    <glyph glyph-name="sigma1" unicode="&#x3c2;" horiz-adv-x="890" 
d="M573 874q-94 0 -145 -33.5t-100 -114.5t-49 -229t93 -213t159.5 -95.5t122 -67.5t93 -87t37.5 -135t-45 -150.5t-104 -108.5l-113 98q52 34 71 75t19 77t-36.5 70t-93 64.5t-215 115t-158.5 354.5q0 237 118 380.5t322 143.5q136 0 282 -72l-43 -125q-121 53 -215 53z
" />
    <glyph glyph-name="sigma" unicode="&#x3c3;" horiz-adv-x="1128" 
d="M283 479.5q0 -163.5 65 -265t205 -101.5q141 0 207.5 100.5t66.5 309t-100 265t-175 56.5t-126 -30t-97 -100.5t-46 -234zM113 543.5q0 290.5 160.5 367t277.5 76.5h475v-137h-201v-4q80 -54 127 -154t47 -208q0 -229 -109 -372t-337 -143t-334 142t-106 432.5z" />
    <glyph glyph-name="tau" unicode="&#x3c4;" horiz-adv-x="892" 
d="M546 -31q-92 0 -151 62.5t-59 181.5v637h-273v137h756v-137h-315v-621q0 -116 98 -116q61 0 141 24v-139q-105 -29 -197 -29z" />
    <glyph glyph-name="upsilon" unicode="&#x3c5;" horiz-adv-x="1071" 
d="M950 500q0 -274 -105.5 -402.5t-294.5 -128.5t-292.5 113t-103.5 336v569h168v-561q0 -313 230 -313t230 387q0 211 -98 487h180q86 -301 86 -487z" />
    <glyph glyph-name="phi" unicode="&#x3c6;" horiz-adv-x="1310" 
d="M983.5 772q-40.5 102 -121.5 102t-105 -61t-24 -203v-501q233 33 262 184t29 264t-40.5 215zM283 502q0 -155 66 -265.5t216 -130.5v502q0 199 74 304.5t231 105.5t241.5 -137t84.5 -355q0 -365 -167 -450.5t-296 -98.5v-383h-168v383q-237 19 -343.5 163.5t-106.5 358.5
t112 488h185q-86 -164 -107.5 -292.5t-21.5 -192.5z" />
    <glyph glyph-name="chi" unicode="&#x3c7;" horiz-adv-x="991" 
d="M940 987v-20l-340 -676l340 -676v-21h-166l-186 377l-84 213h-6l-84 -213l-185 -377h-168v21l340 676l-340 676v20h168l189 -385l80 -207h6l82 211l186 381h168z" />
    <glyph glyph-name="psi" unicode="&#x3c8;" horiz-adv-x="1345" 
d="M1229 528q0 -292 -126.5 -422.5t-338.5 -130.5v-381h-168v381q-201 0 -320.5 111t-119.5 332v569h166v-553q0 -160 74.5 -242.5t199.5 -82.5v1325h168v-1325q208 0 252.5 145t44.5 246q0 211 -113 487h185q96 -294 96 -459z" />
    <glyph glyph-name="omega" unicode="&#x3c9;" horiz-adv-x="1579" 
d="M1462 497q0 -528 -388 -528q-190 0 -281 195h-5q-95 -195 -284 -195q-389 0 -389 531q0 191 58 314.5t91 172.5h180v-20q-161 -242 -161 -455q0 -399 212 -399t212 313v309h167v-309q0 -160 55.5 -236.5t210 -76.5t154.5 387q0 218 -159 467v20h180q147 -219 147 -490z
" />
    <glyph glyph-name="iotadieresis" unicode="&#x3ca;" horiz-adv-x="548" 
d="M355 -31q-79 1 -133 61t-54 195v762h168v-764q0 -67 20 -89t63 -22t73 13v-139q-57 -17 -137 -17zM-39 1295q0 52 29 83t79 31q51 0 79 -31t28 -83t-29 -82q-29 -29 -79 -29t-78 30q-29 30 -29 81zM336 1295q0 52 29 83t79 31t78 -31q29 -31 29 -83t-29 -82
q-29 -29 -79 -29q-51 0 -79 30t-28 81z" />
    <glyph glyph-name="upsilondieresis" unicode="&#x3cb;" horiz-adv-x="1071" 
d="M950 500q0 -274 -105 -402t-295 -129q-190 0 -293 113t-103 336v569h168v-561q0 -315 229 -313q231 0 231 387q0 208 -98 487h180q86 -301 86 -487zM233 1295q0 52 29 83t79 31t79 -31t29 -83t-29 -82q-29 -29 -79 -29t-79 30t-29 81zM608 1295q0 52 29 83t79 31t79 -31
t29 -83t-30 -82q-28 -29 -78 -29t-79 30t-29 81z" />
    <glyph glyph-name="omicrontonos" unicode="&#x3cc;" horiz-adv-x="1116" 
d="M894 116q-112 -147 -337 -147t-337 147t-109 378q0 362 241 482q84 42 204 42t205 -42t139 -113q106 -139 106 -369t-112 -378zM283 494q0 -170 65 -277q65 -106 207 -105t216 114q61 93 63 268q0 262 -150 350q-53 30 -129 30t-128 -30q-144 -84 -144 -350zM506 1145v20
l59 289h170v-20l-102 -289h-127z" />
    <glyph glyph-name="upsilontonos" unicode="&#x3cd;" horiz-adv-x="1071" 
d="M950 500q0 -274 -105 -402t-295 -129q-190 0 -293 113t-103 336v569h168v-561q0 -315 229 -313q231 0 231 387q0 208 -98 487h180q86 -301 86 -487zM469 1145v20l59 289h170v-20l-102 -289h-127z" />
    <glyph glyph-name="omegatonos" unicode="&#x3ce;" horiz-adv-x="1579" 
d="M1294 500q0 218 -159 467v20h180q103 -153 137 -358q10 -66 10 -129q0 -274 -99 -402t-278 -129q-204 0 -292 195h-5q-95 -195 -284 -195q-389 0 -389 531q0 259 149 487h180v-20q-161 -242 -161 -455q0 -399 211 -399t213 313v309h167v-309q0 -160 56 -237t155 -76
q209 0 209 387zM735 1145v20l60 289h170v-20l-103 -289h-127z" />
    <glyph glyph-name="uni0400" unicode="&#x400;" horiz-adv-x="1140" 
d="M1010 1393v-152h-641v-455h581v-151h-581v-483h647v-152h-819v1393h813zM393 1808h185l122 -247v-21h-145l-162 248v20z" />
    <glyph glyph-name="uni0401" unicode="&#x401;" horiz-adv-x="1140" 
d="M1010 1393v-152h-641v-455h581v-151h-581v-483h647v-152h-819v1393h813zM715 1670q0 52 28 83q29 31 79 31t79 -31t29 -83t-29 -82t-79 -30t-79 30q-28 30 -28 82zM299 1670q0 52 29 83t79 31q51 0 79 -31t28 -83t-29 -82t-79 -30t-78 30q-29 30 -29 82z" />
    <glyph glyph-name="uni0402" unicode="&#x402;" horiz-adv-x="1329" 
d="M1061 387q0 205 -98.5 248t-182.5 43t-264 -55v-623h-170v1241h-276v152h843v-152h-397v-467q158 55 284 55q127 0 203 -28.5t156 -114.5t80 -310t-105.5 -378t-158.5 -219l-121 104q207 253 207 504z" />
    <glyph glyph-name="uni0403" unicode="&#x403;" horiz-adv-x="1073" 
d="M1004 1393v-152h-635v-1241h-172v1393h807zM539 1540v21l123 247h184v-20l-162 -248h-145z" />
    <glyph glyph-name="uni0404" unicode="&#x404;" horiz-adv-x="1157" 
d="M728 -31q-293 0 -447 199t-154 528t153.5 528t438.5 199q162 0 342 -90l-47 -131q-135 66 -295 66q-284 0 -345 -189.5t-67 -302.5h557v-153h-557q19 -361 165 -429.5t276 -68.5t266 65l47 -131q-181 -90 -333 -90z" />
    <glyph glyph-name="uni0405" unicode="&#x405;" horiz-adv-x="1034" 
d="M750 346q0 102 -50 156t-159 102l-117 49q-129 55 -212 145t-83 244t114 268t306 114q191 -1 348 -107l-74 -135q-138 86 -270 86q-131 0 -188 -68t-57 -150t36 -135q37 -53 139 -96l117 -51q163 -71 245 -162q83 -91 83 -252q0 -160 -115 -273q-115 -112 -301 -112
q-226 0 -412 148l80 135q142 -127 332 -127q106 0 172 60q66 59 66 161z" />
    <glyph glyph-name="uni0406" unicode="&#x406;" horiz-adv-x="565" 
d="M369 0h-172v1393h172v-1393z" />
    <glyph glyph-name="uni0407" unicode="&#x407;" horiz-adv-x="565" 
d="M369 0h-172v1393h172v-1393zM385 1670q0 52 29 83t79 31q51 0 79 -31t28 -83t-29 -82t-79 -30t-78 30q-29 30 -29 82zM-31 1670q0 52 29 83t79 31t79 -31q28 -31 28 -83t-28 -82t-79 -30q-50 0 -79 30t-29 82z" />
    <glyph glyph-name="uni0408" unicode="&#x408;" horiz-adv-x="909" 
d="M336 125q62 0 100 14q115 44 115 289v965h172v-979q0 -232 -99 -338t-270 -107q-94 0 -173 46t-130 104l86 112q41 -37 89 -71t110 -35z" />
    <glyph glyph-name="uni0409" unicode="&#x409;" horiz-adv-x="1843" 
d="M1032 152h275q119 0 188.5 63.5t69.5 198.5t-69 198.5t-189 63.5h-275v-524zM1032 1393v-566h293q201 0 308.5 -106.5t107.5 -304.5t-107.5 -307t-308.5 -109h-465v1241h-418l-18 -489q-16 -357 -47 -481t-61.5 -174t-82.5 -83.5t-198 -33.5v151q53 0 92 15.5t78.5 109
t54.5 496.5l25 641h747z" />
    <glyph glyph-name="uni040A" unicode="&#x40a;" horiz-adv-x="1906" 
d="M1094 152h276q119 0 188.5 62t69.5 198q0 194 -99 229t-159 35h-276v-524zM1094 1393v-566h295q199 0 307 -107.5t108 -305.5t-108.5 -306t-306.5 -108h-465v676h-555v-676h-172v1393h172v-566h555v566h170z" />
    <glyph glyph-name="uni040B" unicode="&#x40b;" horiz-adv-x="1370" 
d="M865 948q171 0 275.5 -91t104.5 -277v-580h-172v535q0 127 -58.5 194.5t-174.5 67.5t-207.5 -27t-114.5 -33v-737h-172v1241h-276v152h843v-152h-395v-348q176 55 347 55z" />
    <glyph glyph-name="uni040C" unicode="&#x40c;" horiz-adv-x="1169" 
d="M369 637v-637h-172v1393h172v-686h4l528 686h199v-21l-553 -690l577 -662v-20h-215l-536 637h-4zM514 1540v21l123 247h184v-20l-162 -248h-145z" />
    <glyph glyph-name="uni040D" unicode="&#x40d;" horiz-adv-x="1361" 
d="M1165 1393v-1393h-172v874l17 261h-4l-623 -1135h-186v1393h172v-875l-17 -260h4l623 1135h186zM459 1808h184l123 -247v-21h-145l-162 248v20z" />
    <glyph glyph-name="uni040E" unicode="&#x40e;" horiz-adv-x="1064" 
d="M162 0v154h53q86 0 136 40t91 142l31 72l-418 964v21h178l213 -514l111 -310h6l99 310l188 514h176v-21l-410 -1063q-62 -164 -148 -237q-86 -72 -235 -72h-71zM567 1716q120 0 228 66l47 -107q-112 -112 -273 -112q-86 0 -157 34t-113 78l47 107q101 -66 221 -66z" />
    <glyph glyph-name="uni040F" unicode="&#x40f;" horiz-adv-x="1345" 
d="M197 0v1393h172v-1241h608v1241h172v-1393h-395l-15 -289h-135l-16 289h-391z" />
    <glyph glyph-name="uni0410" unicode="&#x410;" horiz-adv-x="1218" 
d="M608 1219l-108 -377l-113 -338h442l-108 338l-109 377h-4zM1180 0h-181l-116 360h-547l-119 -360h-178l483 1393h174z" />
    <glyph glyph-name="uni0411" unicode="&#x411;" horiz-adv-x="1185" 
d="M369 152h274q119 0 188.5 62t69.5 198q0 198 -99.5 230t-158.5 32h-274v-522zM1001 1393v-152h-632v-416h293q201 0 308 -106.5t107 -304.5t-107.5 -306t-307.5 -108h-465v1393h804z" />
    <glyph glyph-name="uni0412" unicode="&#x412;" horiz-adv-x="1214" 
d="M369 772h235q137 0 200 50q64 50 64 186q0 135 -65 184q-66 49 -199 49h-235v-469zM686 0h-489v1393h419q431 0 431 -357q1 -123 -49 -205t-119 -108v-4q219 -74 221 -344q0 -175 -108 -275t-306 -100zM369 152h299q118 0 186 53t68 183t-69 181t-187 52h-297v-469z" />
    <glyph glyph-name="uni0413" unicode="&#x413;" horiz-adv-x="1073" 
d="M1004 1393v-152h-635v-1241h-172v1393h807z" />
    <glyph glyph-name="uni0414" unicode="&#x414;" horiz-adv-x="1320" 
d="M924 152v1089h-422l-29 -453q-22 -372 -71.5 -482.5t-82.5 -153.5h605zM1096 1393v-1241h112l-24 -441h-133l-15 289h-825l-16 -289h-134l-24 441h92q79 108 122 249.5t58 399.5l33 592h754z" />
    <glyph glyph-name="uni0415" unicode="&#x415;" horiz-adv-x="1140" 
d="M1010 1393v-152h-641v-455h581v-151h-581v-483h647v-152h-819v1393h813z" />
    <glyph glyph-name="uni0416" unicode="&#x416;" horiz-adv-x="1759" 
d="M45 0v20l559 662l-534 690v21h202l519 -684h2v684h172v-684h4l516 684h203v-21l-535 -690l561 -662v-20h-215l-530 635h-4v-635h-172v635h-2l-533 -635h-213z" />
    <glyph glyph-name="uni0417" unicode="&#x417;" horiz-adv-x="1040" 
d="M750 383q0 247 -273 250h-213v155h223q175 0 219 146q13 43 13 90q0 104 -62 173t-170 71q-157 0 -317 -72l-53 135q72 41 173 67t199 25q197 0 303 -105t105 -275q0 -170 -114 -276q-32 -30 -62 -44v-4q92 -39 149 -128q58 -89 58 -199t-33 -185q-67 -150 -237 -209
q-84 -29 -194 -29q-220 0 -380 105l59 135q149 -84 332 -84q122 0 199 71q76 72 76 187z" />
    <glyph glyph-name="uni0418" unicode="&#x418;" horiz-adv-x="1361" 
d="M1165 1393v-1393h-172v874l17 261h-4l-623 -1135h-186v1393h172v-875l-17 -260h4l623 1135h186z" />
    <glyph glyph-name="uni0419" unicode="&#x419;" horiz-adv-x="1361" 
d="M714 1716q121 0 226 66l47 -107q-112 -112 -272 -112q-121 0 -219 70q-29 19 -52 42l48 107q101 -66 222 -66zM1165 1393v-1393h-172v874l17 261h-4l-623 -1135h-186v1393h172v-875l-17 -260h4l623 1135h186z" />
    <glyph glyph-name="uni041A" unicode="&#x41a;" horiz-adv-x="1169" 
d="M369 637v-637h-172v1393h172v-686h4l528 686h199v-21l-553 -690l577 -662v-20h-215l-536 637h-4z" />
    <glyph glyph-name="uni041B" unicode="&#x41b;" horiz-adv-x="1302" 
d="M934 1241h-492l-18 -489q-16 -361 -48 -483t-62.5 -172t-82.5 -83.5t-196 -33.5v151q53 0 92 15.5t78.5 109t54.5 496.5l25 641h821v-1393h-172v1241z" />
    <glyph glyph-name="uni041C" unicode="&#x41c;" horiz-adv-x="1646" 
d="M1450 1393v-1393h-172v874l20 240h-4l-407 -764h-127l-408 764h-4l21 -240v-874h-172v1393h163l349 -602l112 -263h2l113 263l350 602h164z" />
    <glyph glyph-name="uni041D" unicode="&#x41d;" horiz-adv-x="1372" 
d="M1004 635h-635v-635h-172v1393h172v-607h635v607h172v-1393h-172v635z" />
    <glyph glyph-name="uni041E" unicode="&#x41e;" horiz-adv-x="1392" 
d="M129 696q0 512 309 672q108 55 260 55q291 0 435 -209q131 -189 131 -516t-137 -527t-429 -201t-437 208q-132 187 -132 518zM698 125q387 0 387 571q0 405 -200 527q-74 45 -187 45q-114 0 -188 -45q-204 -123 -203 -527q0 -257 84 -403q97 -168 307 -168z" />
    <glyph glyph-name="uni041F" unicode="&#x41f;" horiz-adv-x="1363" 
d="M995 1241h-626v-1241h-172v1393h970v-1393h-172v1241z" />
    <glyph glyph-name="uni0420" unicode="&#x420;" horiz-adv-x="1150" 
d="M371 696h250q135 0 199 76t65 196q0 120 -65 196t-199 77h-250v-545zM197 0v1393h438q206 0 317 -111t111 -311t-112 -315q-113 -113 -316 -111h-264v-545h-174z" />
    <glyph glyph-name="uni0421" unicode="&#x421;" horiz-adv-x="1165" 
d="M728 -31q-294 0 -447 198q-154 198 -154 528t155 529t437 199q162 0 342 -90l-47 -131q-131 64 -267 65q-137 1 -215 -40q-227 -119 -227 -531q0 -411 227 -530q78 -41 213 -41t269 65l47 -131q-181 -90 -333 -90z" />
    <glyph glyph-name="uni0422" unicode="&#x422;" horiz-adv-x="1071" 
d="M997 1393v-152h-374v-1241h-177v1241h-372v152h923z" />
    <glyph glyph-name="uni0423" unicode="&#x423;" horiz-adv-x="1064" 
d="M162 0v154h53q86 0 136 39.5t91 142.5l31 72l-418 964v21h178l213 -514l111 -310h6l99 310l188 514h176v-21l-410 -1063q-62 -164 -147.5 -236.5t-235.5 -72.5h-71z" />
    <glyph glyph-name="uni0424" unicode="&#x424;" horiz-adv-x="1527" 
d="M1217 698q0 274 -210 376q-75 36 -184 46v-844q205 15 305 137q89 106 89 285zM276 698q0 -181 86 -293t291 -129v844q-299 -27 -358 -265q-19 -73 -19 -157zM1395 697q0 -236 -140 -391t-432 -175v-131h-170v131q-290 19 -423 171q-132 153 -132 396q0 376 296 508
q105 47 259 58v129h170v-129q152 -10 260 -58q312 -135 312 -509z" />
    <glyph glyph-name="uni0425" unicode="&#x425;" horiz-adv-x="1132" 
d="M1065 1393v-21l-391 -676l391 -676v-20h-184l-314 569h-4l-311 -569h-184v20l389 676l-389 676v21h184l311 -572h4l314 572h184z" />
    <glyph glyph-name="uni0426" unicode="&#x426;" horiz-adv-x="1374" 
d="M197 0v1393h172v-1241h608v1241h172v-1241h113l-25 -441h-133l-14 289h-893z" />
    <glyph glyph-name="uni0427" unicode="&#x427;" horiz-adv-x="1239" 
d="M523 383q-171 0 -275.5 91t-104.5 278v641h172v-596q0 -127 58.5 -194.5t175.5 -67.5t208 26.5t113 32.5v799h172v-1393h-172v438q-176 -55 -347 -55z" />
    <glyph glyph-name="uni0428" unicode="&#x428;" horiz-adv-x="1941" 
d="M197 0v1393h172v-1241h516v1241h172v-1241h516v1241h172v-1393h-1548z" />
    <glyph glyph-name="uni0429" unicode="&#x429;" horiz-adv-x="1972" 
d="M197 0v1393h172v-1241h516v1241h172v-1241h516v1241h172v-1241h115l-25 -441h-135l-14 289h-1489z" />
    <glyph glyph-name="uni042A" unicode="&#x42a;" horiz-adv-x="1314" 
d="M502 152h276q117 0 186.5 63.5t69.5 198.5t-68.5 199.5t-187.5 64.5h-276v-526zM70 1393h432v-564h295q199 0 307 -107.5t108 -305.5t-108.5 -307t-306.5 -109h-467v1241h-260v152z" />
    <glyph glyph-name="uni042B" unicode="&#x42b;" horiz-adv-x="1619" 
d="M1423 0h-172v1393h172v-1393zM369 152h276q117 0 187 63t69 199t-69 200t-187 64h-276v-526zM197 1393h172v-564h295q200 1 308 -107t108 -306t-110 -308q-108 -108 -306 -108h-467v1393z" />
    <glyph glyph-name="uni042C" unicode="&#x42c;" horiz-adv-x="1181" 
d="M369 152h276q117 0 186.5 63.5t69.5 198.5t-68.5 199.5t-187.5 64.5h-276v-526zM197 1393h172v-564h295q199 0 307 -107.5t108 -305.5t-108.5 -307t-306.5 -109h-467v1393z" />
    <glyph glyph-name="uni042D" unicode="&#x42d;" horiz-adv-x="1165" 
d="M436 1423q294 0 448 -198t154 -529t-154.5 -529t-437.5 -198q-162 0 -342 90l48 131q133 -65 294 -65q193 0 296.5 131.5t115.5 366.5h-557v153h557q-19 354 -166 423t-246 69q-160 0 -294 -66l-48 131q180 90 332 90z" />
    <glyph glyph-name="uni042E" unicode="&#x42e;" horiz-adv-x="1896" 
d="M1200 1268q-389 0 -389 -488t139.5 -571.5t389 -83.5t249.5 571.5t-389 571.5zM1630 168q-137 -199 -421 -199q-283 0 -423 182t-153 484h-264v-635h-172v1393h172v-607h266q26 452 226.5 544.5t346.5 92.5t253.5 -55t206.5 -199.5t99 -473t-137 -527.5z" />
    <glyph glyph-name="uni042F" unicode="&#x42f;" horiz-adv-x="1251" 
d="M883 739v502h-299q-123 0 -187.5 -67.5t-64.5 -184.5t64.5 -183.5t187.5 -66.5h299zM883 0v588h-232l-389 -588h-188v33l385 565q-141 27 -223 127.5t-82 280.5t112.5 283.5t306.5 103.5h482v-1393h-172z" />
    <glyph glyph-name="uni0430" unicode="&#x430;" horiz-adv-x="1011" 
d="M96 268q0 305 389 310h201v63q0 167 -116 216q-40 17 -95 17q-152 0 -262 -83l-70 116q143 111 334 111q193 0 285 -102t92 -279v-637h-123l-16 90h-4q-149 -121 -301 -121t-233 78t-81 221zM500 459q-230 0 -232 -191q0 -72 39 -114t115 -41q76 0 138 15t126 69v262
h-186z" />
    <glyph glyph-name="uni0431" unicode="&#x431;" horiz-adv-x="1134" 
d="M775 679q-77 89 -201 89t-200.5 -89t-76.5 -232t78.5 -238.5t198.5 -95.5q121 0 199.5 95t78.5 239q0 143 -77 232zM632 911q78 0 152 -33.5t156 -126t82 -302.5t-118.5 -345t-332.5 -135q-215 0 -329.5 151.5t-114.5 426.5q0 135 9.5 339t134.5 344.5t278 167t269 40.5
t153 22v-153q-37 -6 -90.5 -11.5t-150 -17t-179.5 -42.5q-82 -32 -128 -73t-86 -121t-40 -288l4 -4q57 72 106.5 102.5t98 44.5t126.5 14z" />
    <glyph glyph-name="uni0432" unicode="&#x432;" horiz-adv-x="1003" 
d="M332 571h164q92 0 136 30t44 104q0 114 -64.5 129.5t-113.5 15.5h-166v-279zM893 279q0 -279 -340 -279h-387v987h338q172 0 259 -62.5t87 -201.5q0 -80 -37 -133t-90 -76v-2q170 -59 170 -233zM332 137h207q131 0 155.5 58.5t24.5 95.5q0 74 -43 109.5t-135 35.5h-209
v-299z" />
    <glyph glyph-name="uni0433" unicode="&#x433;" horiz-adv-x="864" 
d="M803 987v-137h-471v-850h-166v987h637z" />
    <glyph glyph-name="uni0434" unicode="&#x434;" horiz-adv-x="1097" 
d="M731 141v709h-303l-16 -266q-20 -269 -48 -340.5t-49 -102.5h416zM897 987v-846h100l-26 -387h-119l-16 246h-625l-14 -246h-121l-25 387h80q58 69 89 184t38 263l23 399h616z" />
    <glyph glyph-name="uni0435" unicode="&#x435;" horiz-adv-x="1046" 
d="M778 601v24q0 172 -137 230q-45 19 -103 19q-110 0 -179 -84t-78 -212h495q2 10 2 23zM272 451q0 -137 86 -238t211 -100q93 1 157 27t116 63l63 -125q-150 -109 -360 -109t-323 150t-112 371q1 220 112 374t315 154q203 0 311 -131q127 -153 84 -436h-660z" />
    <glyph glyph-name="uni0436" unicode="&#x436;" horiz-adv-x="1449" 
d="M53 0v14l420 471l-401 488v14h192l375 -479v479h168v-479h4l375 479h190v-14l-399 -488l420 -471v-14h-199l-387 444h-4v-444h-168v444l-387 -444h-199z" />
    <glyph glyph-name="uni0437" unicode="&#x437;" horiz-adv-x="911" 
d="M385 113q250 0 250 171q0 79 -48 116.5t-124 37.5h-238v137h230q55 0 103 33t48 106t-42 116.5t-161 43.5t-262 -53l-32 129q138 68 318 68q179 0 266 -80t87 -207q0 -84 -36.5 -139t-92.5 -78v-4q156 -61 156 -244q0 -135 -105 -216t-298 -81q-194 0 -322 76l39 129
q129 -61 264 -61z" />
    <glyph glyph-name="uni0438" unicode="&#x438;" horiz-adv-x="1112" 
d="M946 987v-987h-166v551l11 217h-5l-112 -217l-320 -551h-188v987h166v-600l-10 -168h4l84 168l348 600h188z" />
    <glyph glyph-name="uni0439" unicode="&#x439;" horiz-adv-x="1112" 
d="M946 987v-987h-166v551l11 217h-5l-112 -217l-320 -551h-188v987h166v-600l-10 -168h4l84 168l348 600h188zM860 1298q-112 -112 -272 -112q-87 0 -158 35t-113 77l48 107q100 -66 222 -66q121 0 226 66z" />
    <glyph glyph-name="uni043A" unicode="&#x43a;" horiz-adv-x="972" 
d="M332 444v-444h-166v987h166v-479h4l375 479h188v-14l-391 -488l412 -471v-14h-199l-385 444h-4z" />
    <glyph glyph-name="uni043B" unicode="&#x43b;" horiz-adv-x="1091" 
d="M760 850h-352l-19 -328q-19 -341 -77 -421.5t-117.5 -97.5t-139.5 -17v139q39 0 70 13.5t64 75t44 316.5l21 457h672v-987h-166v850z" />
    <glyph glyph-name="uni043C" unicode="&#x43c;" horiz-adv-x="1298" 
d="M1133 987v-987h-166v504l10 207h-4l-109 -205l-153 -258h-125l-154 260l-106 203h-4l10 -205v-506h-166v987h160l254 -428l67 -133h2l68 133l256 428h160z" />
    <glyph glyph-name="uni043D" unicode="&#x43d;" horiz-adv-x="1110" 
d="M778 430h-446v-430h-166v987h166v-414h446v414h166v-987h-166v430z" />
    <glyph glyph-name="uni043E" unicode="&#x43e;" horiz-adv-x="1116" 
d="M894 116q-112 -147 -337 -147t-337 147t-109 378q0 362 241 482q84 42 204 42t205 -42t139 -113q106 -139 106 -369t-112 -378zM283 494q0 -170 65 -277q65 -106 207 -105t216 114q61 93 63 268q0 262 -150 350q-53 30 -129 30t-128 -30q-144 -84 -144 -350z" />
    <glyph glyph-name="uni043F" unicode="&#x43f;" horiz-adv-x="1110" 
d="M778 850h-446v-850h-166v987h778v-987h-166v850z" />
    <glyph glyph-name="uni0440" unicode="&#x440;" horiz-adv-x="1118" 
d="M1006 494q0 -361 -207 -483q-72 -42 -172 -42q-174 0 -289 101h-4v-476h-168v1393h119l20 -90h2q152 121 331 121t278 -155q90 -139 90 -369zM582 874q-160 0 -248 -90v-581q92 -92 235 -91q260 2 265 382q0 260 -133 349q-48 32 -119 31z" />
    <glyph glyph-name="uni0441" unicode="&#x441;" horiz-adv-x="948" 
d="M111 494q0 239 115 381q115 143 331 143q145 0 291 -74l-45 -125q-125 55 -219 55q-93 0 -146 -32q-155 -92 -155 -347t156 -351q52 -32 149 -32t215 56l45 -125q-141 -74 -271 -74q-343 0 -438 312q-28 96 -28 213z" />
    <glyph glyph-name="uni0442" unicode="&#x442;" horiz-adv-x="854" 
d="M791 987v-137h-283v-850h-166v850h-279v137h728z" />
    <glyph glyph-name="uni0443" unicode="&#x443;" horiz-adv-x="985" 
d="M214 -297q60 0 96 46t65 128l45 133l-365 957v20h166l215 -625l58 -194h4l53 194l207 625h164v-20l-379 -1100q-53 -155 -130 -229t-184 -74q-72 0 -166 26v138q91 -25 151 -25z" />
    <glyph glyph-name="uni0444" unicode="&#x444;" horiz-adv-x="1634" 
d="M905 944q99 74 268 74t258 -146t89 -378q0 -363 -131.5 -444t-230.5 -81t-152.5 18.5t-100.5 57.5h-4v-451h-168v451h-4q-47 -39 -100.5 -57.5t-152.5 -18.5q-183 0 -272 147t-89 378q0 361 131 442.5t227 81.5q157 0 256 -74h4v490h168v-490h4zM287 493.5
q0 -380.5 231 -380.5q127 0 215 71v619q-88 72 -215 71q-231 0 -231 -380.5zM1168 113q180 0 180 322.5t-81 380.5t-180 58t-186 -71v-619q87 -71 267 -71z" />
    <glyph glyph-name="uni0445" unicode="&#x445;" horiz-adv-x="960" 
d="M72 0v20l311 474l-311 473v20h174l233 -389h4l232 389h174v-20l-311 -473l311 -474v-20h-174l-232 387h-4l-233 -387h-174z" />
    <glyph glyph-name="uni0446" unicode="&#x446;" horiz-adv-x="1130" 
d="M166 0v987h166v-850h432v850h166v-850h100l-26 -383h-119l-15 246h-704z" />
    <glyph glyph-name="uni0447" unicode="&#x447;" horiz-adv-x="1003" 
d="M456 266q-110 0 -164 19.5t-112.5 75t-58.5 182.5v444h166v-416q0 -72 40 -117.5t151 -45.5t194 38v541h166v-987h-166v307q-106 -41 -216 -41z" />
    <glyph glyph-name="uni0448" unicode="&#x448;" horiz-adv-x="1552" 
d="M166 0v987h166v-850h360v850h166v-850h361v850h167v-987h-1220z" />
    <glyph glyph-name="uni0449" unicode="&#x449;" horiz-adv-x="1587" 
d="M166 0v987h166v-850h360v850h166v-850h361v850h167v-850h101l-27 -383h-121l-14 246h-1159z" />
    <glyph glyph-name="uni044A" unicode="&#x44a;" horiz-adv-x="1064" 
d="M430 137h199q126 0 150 63.5t24 119.5t-45.5 101.5t-128.5 45.5h-199v-330zM70 987h360v-383h213q162 0 246 -77t84 -225t-84 -225t-246 -77h-379v850h-194v137z" />
    <glyph glyph-name="uni044B" unicode="&#x44b;" horiz-adv-x="1351" 
d="M332 137h200q126 0 161 96q11 31 12 68q0 116 -98 154q-32 12 -75 12h-200v-330zM332 987v-383h213q162 0 247 -77t85 -225t-85 -225t-247 -77h-379v987h166zM1018 0v987h168v-987h-168z" />
    <glyph glyph-name="uni044C" unicode="&#x44c;" horiz-adv-x="968" 
d="M332 137h200q125 0 149 63.5t24 119.5t-45.5 101.5t-127.5 45.5h-200v-330zM332 987v-383h213q162 0 247 -77t85 -225t-85 -225t-247 -77h-379v987h166z" />
    <glyph glyph-name="uni044D" unicode="&#x44d;" horiz-adv-x="942" 
d="M357 1010q123 0 209.5 -38t145 -105.5t89 -163t30.5 -270.5t-122 -315.5t-342 -140.5q-137 0 -269 66l45 125q111 -49 234 -49t194.5 82t81.5 225h-405v137h405q-10 143 -82.5 224t-193.5 81t-234 -49l-45 127q136 64 259 64z" />
    <glyph glyph-name="uni044E" unicode="&#x44e;" horiz-adv-x="1544" 
d="M711 493.5q0 -75.5 14 -145t46 -122t84 -83t128 -30.5t129 30.5t87 83t48.5 122t14.5 145t-14.5 145.5t-48.5 122t-87 82.5t-129 30.5t-128 -30.5t-84 -82.5t-46 -122t-14 -145.5zM1322 116q-112 -147 -329 -147t-328 127t-124 334h-209v-430h-166v987h166v-418h209
q27 312 180 380.5t268 68.5t200 -42t165 -146.5t80 -335.5t-112 -378z" />
    <glyph glyph-name="uni044F" unicode="&#x44f;" horiz-adv-x="1038" 
d="M705 846h-224q-86 0 -131 -47t-45 -119t45 -120t131 -48h224v334zM705 0v371h-160l-295 -371h-176v23l291 360q-111 23 -172.5 102.5t-61.5 208.5t88.5 211t251.5 82h401v-987h-167z" />
    <glyph glyph-name="uni0450" unicode="&#x450;" horiz-adv-x="1046" 
d="M778 601v24q0 172 -137 230q-45 19 -103 19q-110 0 -179 -84t-78 -212h495q2 10 2 23zM272 451q0 -137 86 -238t211 -100q93 1 157 27t116 63l63 -125q-150 -109 -360 -109t-323 150t-112 371q1 220 112 374t315 154q203 0 311 -131q127 -153 84 -436h-660zM332 1454h186
l121 -248v-20h-145l-162 248v20z" />
    <glyph glyph-name="uni0451" unicode="&#x451;" horiz-adv-x="1046" 
d="M778 601v24q0 172 -137 230q-45 19 -103 19q-110 0 -179 -84t-78 -212h495q2 10 2 23zM272 451q0 -137 86 -238t211 -100q93 1 157 27t116 63l63 -125q-150 -109 -360 -109t-323 150t-112 371q1 220 112 374t315 154q203 0 311 -131q127 -153 84 -436h-660zM252 1295
q0 52 29 83t79 31t78 -31q29 -31 29 -83t-29 -82q-29 -29 -79 -29q-51 0 -79 30t-28 81zM627 1295q0 52 28 83q29 31 79 31t79 -31t29 -83t-29 -82q-29 -29 -79 -29t-79 29q-28 30 -28 82z" />
    <glyph glyph-name="uni0452" unicode="&#x452;" horiz-adv-x="1085" 
d="M786 545q0 172 -49 250.5t-148 78.5t-168 -40.5t-87 -55.5v-778h-168v1151h-113v131h113v152h168v-152h213v-131h-213v-233h4q143 100 289 100q331 0 331 -473q0 -412 -206 -877l-138 72q172 394 172 805z" />
    <glyph glyph-name="uni0453" unicode="&#x453;" horiz-adv-x="864" 
d="M803 987v-137h-471v-850h-166v987h637zM418 1186v20l121 248h186v-20l-162 -248h-145z" />
    <glyph glyph-name="uni0454" unicode="&#x454;" horiz-adv-x="933" 
d="M587 -23q-125 0 -211.5 38t-145 105.5t-89 163t-30.5 270.5t122 315.5t342 140.5q133 0 269 -64l-45 -127q-111 49 -233 49t-194.5 -80.5t-82.5 -224.5h405v-137h-405q10 -143 81.5 -225t193.5 -82t235 49l45 -125q-132 -66 -257 -66z" />
    <glyph glyph-name="uni0455" unicode="&#x455;" horiz-adv-x="880" 
d="M608 259q0 58 -33 90t-100 54l-110 37q-121 41 -168 88q-46 46 -64 90t-18 102q-1 60 23 116q47 112 175 158q63 24 149 24q153 0 300 -70l-55 -135q-120 61 -229 61t-150 -46t-41 -100q-1 -54 29 -87t100 -55l108 -33q256 -74 256 -287q0 -130 -94 -214
q-94 -83 -230 -83t-209 23t-149 71l60 134q130 -86 268 -84q94 0 138 44t44 102z" />
    <glyph glyph-name="uni0456" unicode="&#x456;" horiz-adv-x="499" 
d="M143 1295q0 52 29 83t79 31t79 -31q28 -31 28 -83t-28 -82q-28 -29 -79 -29q-50 0 -79 30t-29 81zM166 0v987h168v-987h-168z" />
    <glyph glyph-name="uni0457" unicode="&#x457;" horiz-adv-x="499" 
d="M166 0v987h168v-987h-168zM-51 1295q0 52 28 83q29 31 79 31t79 -31t29 -83t-29 -82q-29 -29 -79 -29t-79 29q-28 30 -28 82zM324 1295q0 52 28 83q29 31 79 31t79 -31t29 -83t-29 -82q-29 -29 -79 -29t-79 29q-28 30 -28 82z" />
    <glyph glyph-name="uni0458" unicode="&#x458;" horiz-adv-x="499" 
d="M143 1295q0 52 29 83t79 31t79 -31q28 -31 28 -83t-28 -82q-28 -29 -79 -29q-50 0 -79 30t-29 81zM49 -297q117 0 117 170v1114h168v-1110q0 -226 -151 -292q-91 -40 -246 -7v133q46 -8 112 -8z" />
    <glyph glyph-name="uni0459" unicode="&#x459;" horiz-adv-x="1497" 
d="M862 137h199q124 0 148 63.5t24 119.5t-45.5 101.5t-126.5 45.5h-199v-330zM862 987v-383h213q162 0 246 -77t84 -225t-84 -225t-246 -77h-381v850h-288l-17 -328q-19 -341 -77 -421.5t-117.5 -97.5t-139.5 -17v139q39 0 70 13.5t64 75t44 316.5l21 457h608z" />
    <glyph glyph-name="uni045A" unicode="&#x45a;" horiz-adv-x="1531" 
d="M897 137h199q124 0 148 63.5t24 120.5t-45.5 102.5t-126.5 45.5h-199v-332zM897 987v-383h213q162 0 246 -77t84 -225t-84 -225t-246 -77h-379v469h-399v-469h-166v987h166v-383h399v383h166z" />
    <glyph glyph-name="uni045B" unicode="&#x45b;" horiz-adv-x="1118" 
d="M632 1018q154 0 240 -93q88 -93 89 -282v-643h-168v614q0 262 -205 260q-62 0 -137 -26t-117 -60v-788h-168v1151h-119v131h119v152h168v-152h213v-131h-213v-231h4q141 98 294 98z" />
    <glyph glyph-name="uni045C" unicode="&#x45c;" horiz-adv-x="972" 
d="M332 444v-444h-166v987h166v-479h4l375 479h188v-14l-391 -488l412 -471v-14h-199l-385 444h-4zM438 1186v20l121 248h186v-20l-161 -248h-146z" />
    <glyph glyph-name="uni045D" unicode="&#x45d;" horiz-adv-x="1112" 
d="M946 987v-987h-166v551l11 217h-5l-112 -217l-320 -551h-188v987h166v-600l-10 -168h4l84 168l348 600h188zM358 1454h187l121 -248v-20h-146l-162 248v20z" />
    <glyph glyph-name="uni045E" unicode="&#x45e;" horiz-adv-x="985" 
d="M214 -297q60 0 96 46t65 128l45 133l-365 957v20h166l215 -625l58 -194h4l53 194l207 625h164v-20l-379 -1100q-53 -155 -130 -229t-184 -74q-72 0 -166 26v138q91 -25 151 -25zM517 1339q121 0 226 66l48 -107q-112 -112 -273 -112q-87 0 -158 35t-112 77l47 107
q101 -66 222 -66z" />
    <glyph glyph-name="uni045F" unicode="&#x45f;" horiz-adv-x="1095" 
d="M166 0v987h166v-850h432v850h166v-987h-305l-19 -246h-119l-16 246h-305z" />
    <glyph glyph-name="uni0462" unicode="&#x462;" horiz-adv-x="1339" 
d="M535 152h276q117 0 187.5 62t70.5 197.5t-69.5 199t-188.5 63.5h-276v-522zM535 1393v-156h395v-152h-395v-260h294q199 0 307.5 -106.5t108.5 -304.5t-108.5 -306t-307.5 -108h-464v1085h-279v152h279v156h170z" />
    <glyph glyph-name="uni0463" unicode="&#x463;" horiz-adv-x="1056" 
d="M430 137h201q124 0 148 63.5t24 119.5t-45.5 101.5t-126.5 45.5h-201v-330zM430 1436v-449h305v-137h-305v-246h213q162 0 247 -77t85 -225t-85 -225t-247 -77h-379v850h-194v137h194v449h166z" />
    <glyph glyph-name="uni0472" unicode="&#x472;" horiz-adv-x="1392" 
d="M1081 780q-29 488 -383 488q-189 0 -282.5 -131.5t-106.5 -356.5h772zM743.5 125q149.5 0 240 138.5t99.5 367.5h-774q14 -358 149.5 -432t285 -74zM1264 696.5q0 -153.5 -32 -287t-99.5 -231.5t-175 -153.5t-259 -55.5t-260 55.5t-177 153.5t-100.5 231.5t-32 287
t32 286.5t100.5 231.5t177 153.5t260 55t259 -55t175 -153.5t99.5 -231.5t32 -286.5z" />
    <glyph glyph-name="uni0473" unicode="&#x473;" horiz-adv-x="1116" 
d="M556 874q-124 0 -191 -84.5t-80 -220.5h544q-20 210 -113 257.5t-160 47.5zM584.5 113q97.5 0 164.5 84.5t80 224.5h-544q20 -216 111 -262.5t188.5 -46.5zM894 116q-112 -147 -337 -147t-335.5 145t-110.5 380q0 362 162.5 443t282.5 81t205 -42t165 -146.5t80 -335.5
t-112 -378z" />
    <glyph glyph-name="uni0474" unicode="&#x474;" horiz-adv-x="1271" 
d="M43 1393h180l279 -842l104 -381h4l105 383l205 621q50 143 115.5 196t187.5 53v-155q-57 0 -92 -32t-62 -110l-377 -1126h-172l-477 1372v21z" />
    <glyph glyph-name="uni0475" unicode="&#x475;" horiz-adv-x="1038" 
d="M969 1010v-146q-76 0 -113 -102l-283 -762h-159l-355 967v20h166l211 -625l53 -190h5l53 190l164 455q37 106 95.5 149.5t162.5 43.5z" />
    <glyph glyph-name="uni0490" unicode="&#x490;" horiz-adv-x="1069" 
d="M369 1241v-1241h-172v1393h628l23 288h133l23 -440h-635z" />
    <glyph glyph-name="uni0491" unicode="&#x491;" horiz-adv-x="862" 
d="M332 850v-850h-166v987h465l18 215h135l19 -352h-471z" />
    <glyph glyph-name="uni0E3F" unicode="&#xe3f;" 
d="M618 778q162 12 162 231.5t-162 227.5v-459zM342 776h147v465h-147v-465zM342 152h147v473h-147v-473zM618 152q209 0 209 238.5t-209 234.5v-473zM961 1034q0 -121 -45.5 -201.5t-108.5 -109.5v-4q203 -74 203 -342q0 -180 -99.5 -278.5t-292.5 -98.5v-221h-129v221
h-321v1393h321v184h129v-186q343 -28 343 -357z" />
    <glyph glyph-name="Wgrave" unicode="&#x1e80;" horiz-adv-x="1869" 
d="M66 1393h178l207 -840l73 -346h4l82 346l234 840h182l234 -840l81 -346h5l73 346l207 840h180v-21l-370 -1372h-174l-242 874l-82 351h-6l-82 -351l-240 -874h-176l-368 1372v21zM702 1808h185l123 -247v-21h-146l-162 248v20z" />
    <glyph glyph-name="wgrave" unicode="&#x1e81;" horiz-adv-x="1570" 
d="M66 987h170l182 -625l41 -180h4l43 180l192 625h172l195 -625l43 -180h4l41 180l182 625h170v-20l-309 -967h-162l-203 639l-45 184h-4l-45 -184l-200 -639h-162l-309 967v20zM551 1454h186l121 -248v-20h-145l-162 248v20z" />
    <glyph glyph-name="Wacute" unicode="&#x1e82;" horiz-adv-x="1869" 
d="M66 1393h178l207 -840l73 -346h4l82 346l234 840h182l234 -840l81 -346h5l73 346l207 840h180v-21l-370 -1372h-174l-242 874l-82 351h-6l-82 -351l-240 -874h-176l-368 1372v21zM872 1540v21l123 247h185v-20l-162 -248h-146z" />
    <glyph glyph-name="wacute" unicode="&#x1e83;" horiz-adv-x="1570" 
d="M66 987h170l182 -625l41 -180h4l43 180l192 625h172l195 -625l43 -180h4l41 180l182 625h170v-20l-309 -967h-162l-203 639l-45 184h-4l-45 -184l-200 -639h-162l-309 967v20zM727 1186v20l121 248h186v-20l-162 -248h-145z" />
    <glyph glyph-name="Wdieresis" unicode="&#x1e84;" horiz-adv-x="1869" 
d="M66 1393h178l207 -840l73 -346h4l82 346l234 840h182l234 -840l81 -346h5l73 346l207 840h180v-21l-370 -1372h-174l-242 874l-82 351h-6l-82 -351l-240 -874h-176l-368 1372v21zM1036 1670q0 52 29 83t79 31t79 -31t29 -83t-30 -82q-28 -30 -78 -30t-79 30t-29 82z
M621 1670q0 52 28 83q29 31 79 31t79 -31t29 -83t-29 -82t-79 -30t-79 30q-28 30 -28 82z" />
    <glyph glyph-name="wdieresis" unicode="&#x1e85;" horiz-adv-x="1570" 
d="M66 987h170l182 -625l41 -180h4l43 180l192 625h172l195 -625l43 -180h4l41 180l182 625h170v-20l-309 -967h-162l-203 639l-45 184h-4l-45 -184l-200 -639h-162l-309 967v20zM492 1295q0 52 28 83q29 31 79 31t79 -31t29 -83t-29 -82q-29 -29 -79 -29t-79 29
q-28 30 -28 82zM866 1295q0 52 29 83t79 31t79 -31t29 -83t-30 -82q-28 -29 -78 -29t-79 30t-29 81z" />
    <glyph glyph-name="uni1E9E" unicode="&#x1e9e;" horiz-adv-x="1294" 
d="M653 1268q-158 0 -226.5 -87t-68.5 -243v-938h-172v932q0 356 170 423.5t293 67.5q234 0 422 -137v-110l-237 -388v-4q152 0 259 -108.5t107 -293.5t-119.5 -299t-294.5 -114q-118 0 -221 21v155q118 -20 192 -20q131 0 199 80t68 195q0 114 -73.5 177.5t-209.5 63.5
h-106v107l264 450q-88 70 -246 70z" />
    <glyph glyph-name="Ygrave" unicode="&#x1ef2;" horiz-adv-x="1081" 
d="M1053 1393v-21l-426 -782v-590h-172v590l-424 782v21h184l324 -633h4l327 633h183zM319 1808h185l123 -247v-21h-146l-162 248v20z" />
    <glyph glyph-name="ygrave" unicode="&#x1ef3;" horiz-adv-x="985" 
d="M214 -297q60 0 96 46t65 128l45 133l-365 957v20h166l215 -625l58 -194h4l53 194l207 625h164v-20l-379 -1100q-53 -155 -130 -229t-184 -74q-72 0 -166 26v138q91 -25 151 -25zM264 1454h187l120 -248v-20h-145l-162 248v20z" />
    <glyph glyph-name="endash" unicode="&#x2013;" horiz-adv-x="1101" 
d="M154 477v152h794v-152h-794z" />
    <glyph glyph-name="emdash" unicode="&#x2014;" horiz-adv-x="1712" 
d="M154 477v152h1405v-152h-1405z" />
    <glyph glyph-name="quoteleft" unicode="&#x2018;" horiz-adv-x="505" 
d="M117 862v21l135 510h133v-21l-78 -510h-190z" />
    <glyph glyph-name="quoteright" unicode="&#x2019;" horiz-adv-x="497" 
d="M397 1393v-21l-135 -510h-133v21l78 510h190z" />
    <glyph glyph-name="quotesinglbase" unicode="&#x201a;" horiz-adv-x="497" 
d="M356 201v-21l-135 -510h-133v21l78 510h190z" />
    <glyph glyph-name="quotedblleft" unicode="&#x201c;" horiz-adv-x="868" 
d="M479 862v21l135 510h134v-21l-78 -510h-191zM117 862v21l135 510h133v-21l-78 -510h-190z" />
    <glyph glyph-name="quotedblright" unicode="&#x201d;" horiz-adv-x="860" 
d="M397 1393v-21l-135 -510h-133v21l78 510h190zM760 1393v-21l-135 -510h-133v21l77 510h191z" />
    <glyph glyph-name="quotedblbase" unicode="&#x201e;" horiz-adv-x="860" 
d="M356 201v-21l-135 -510h-133v21l78 510h190zM719 201v-21l-135 -510h-133v21l77 510h191z" />
    <glyph glyph-name="dagger" unicode="&#x2020;" horiz-adv-x="903" 
d="M385 987v447h135v-447h318v-131h-318v-1262h-135v1262h-319v131h319z" />
    <glyph glyph-name="daggerdbl" unicode="&#x2021;" horiz-adv-x="995" 
d="M432 987v447h135v-447h316v-131h-316v-684h316v-131h-316v-447h-135v447h-319v131h319v684h-319v131h319z" />
    <glyph glyph-name="bullet" unicode="&#x2022;" horiz-adv-x="712" 
d="M182 596q0 78 47 127t127 49t127 -49t47 -127t-47 -127t-127 -49t-127 49t-47 127z" />
    <glyph glyph-name="ellipsis" unicode="&#x2026;" horiz-adv-x="1384" 
d="M131 97q0 56 35 92t89 36t88 -36t34 -92t-34 -92t-88 -36t-89 36t-35 92zM567 97q0 56 35 92t89 36t88 -36t34 -92t-34 -92t-88 -36t-89 36t-35 92zM1008 97q0 56 34 92q35 36 89 36q55 0 89 -36t34 -92t-34 -92t-88 -36t-90 36q-34 36 -34 92z" />
    <glyph glyph-name="perthousand" unicode="&#x2030;" horiz-adv-x="2203" 
d="M2114 344q0 -165 -72 -263t-207 -98q-136 1 -207 96q-72 95 -74 265q0 256 159 335q52 26 122 26t122 -26q104 -52 139 -189q18 -66 18 -146zM1692 344q0 -236 142 -235q142 0 142 234t-141 237q-143 0 -143 -236zM659 1040q0 -259 -156 -334q-52 -26 -122 -26
q-134 0 -207 95q-72 95 -74 265q0 259 159 335q52 26 122 26q135 0 207 -97q71 -97 71 -264zM380 1276q-142 0 -142 -236t142 -235q142 -1 142 235t-142 236zM1430 344q0 -165 -72 -263t-207 -98q-136 1 -207 96q-72 95 -74 265q0 256 159 335q52 26 122 26t122 -26
q104 -52 139 -189q18 -66 18 -146zM1008 344q0 -236 142 -235q142 0 142 234t-141 237q-143 0 -143 -236zM242 0v20l915 1373h156v-21l-916 -1372h-155z" />
    <glyph glyph-name="guilsinglleft" unicode="&#x2039;" horiz-adv-x="616" 
d="M96 565l289 428l117 -78l-217 -362l217 -363l-117 -77l-289 428v24z" />
    <glyph glyph-name="guilsinglright" unicode="&#x203a;" horiz-adv-x="616" 
d="M520 541l-289 -428l-116 77l217 363l-217 362l116 78l289 -428v-24z" />
    <glyph glyph-name="fraction" unicode="&#x2044;" horiz-adv-x="245" 
d="M-412 0v20l916 1373h155v-21l-915 -1372h-156z" />
    <glyph glyph-name="uni2070" unicode="&#x2070;" horiz-adv-x="706" 
d="M633 1290q0 -165 -72 -263t-207 -98q-136 1 -208 97t-72 264q0 256 158 335q52 26 122 26t122 -26q157 -79 157 -335zM211 1290q1 -236 143 -235q142 0 142 234t-142 237q-143 0 -143 -236z" />
    <glyph glyph-name="uni2074" unicode="&#x2074;" horiz-adv-x="659" 
d="M385 1436h133v-222h78v-120h-78v-148h-133v148h-336v106l182 438h142l-174 -421v-3h186v222z" />
    <glyph glyph-name="uni2075" unicode="&#x2075;" horiz-adv-x="602" 
d="M504 1638v-120h-252l-16 -132h47q109 0 179 -53t70 -166t-74 -175t-189 -62q-114 0 -216 39l31 123q83 -37 172 -37q139 0 139 110q0 96 -127 97q-98 0 -147 -7l-19 23l37 360h365z" />
    <glyph glyph-name="uni2076" unicode="&#x2076;" horiz-adv-x="638" 
d="M328 1278q-121 0 -121 -113t121 -111q121 1 121 113q0 55 -33 83t-88 28zM369 1407q94 0 155 -68q62 -69 62 -169t-68 -170t-191 -70t-191 68t-68 161t47 170l190 309h141v-10l-157 -233v-2q28 14 80 14z" />
    <glyph glyph-name="uni2077" unicode="&#x2077;" horiz-adv-x="561" 
d="M375 1518h-324v120h467v-104l-258 -588h-139v10l254 560v2z" />
    <glyph glyph-name="uni2078" unicode="&#x2078;" horiz-adv-x="659" 
d="M233 1446q0 -76 99 -76q46 0 72 20t26 56t-26 58t-76 22t-72 -23q-23 -23 -23 -57zM465 1311q121 -53 121 -191q0 -78 -71 -134t-185 -56t-187 55q-72 55 -71 148q0 67 36 111t89 67v2q-99 43 -99 138t64 149t169 55q105 0 169 -54t63 -128q0 -114 -98 -160v-2zM207 1148
q-1 -42 29 -68t94 -25q64 -1 95 25q30 26 30 68t-30 69q-31 27 -95 27t-94 -28q-30 -26 -29 -68z" />
    <glyph glyph-name="uni2079" unicode="&#x2079;" horiz-adv-x="641" 
d="M190 1419q0 -55 33 -84t89 -29t89 30q33 28 33 83t-33 83t-89 28t-89 -28t-33 -83zM271 1178q-97 0 -156 67q-60 67 -61 168t66 171t190 70q122 1 193 -67q70 -68 70 -162t-47 -172l-190 -307h-146v10l162 234v2q-33 -14 -81 -14z" />
    <glyph glyph-name="uni207A" unicode="&#x207a;" horiz-adv-x="507" 
d="M309 1360h131v-103h-131v-153h-112v153h-129v103h129v149h112v-149z" />
    <glyph glyph-name="uni207B" unicode="&#x207b;" horiz-adv-x="569" 
d="M98 1257v103h373v-103h-373z" />
    <glyph glyph-name="uni207D" unicode="&#x207d;" horiz-adv-x="352" 
d="M295 1726q-204 -435 0 -870l-84 -45q-145 242 -145 459q0 218 93 404q26 52 52 98z" />
    <glyph glyph-name="uni207E" unicode="&#x207e;" horiz-adv-x="352" 
d="M141 1772q146 -242 146 -480q0 -237 -146 -481l-84 45q103 219 103 431t-103 439z" />
    <glyph glyph-name="uni2080" unicode="&#x2080;" horiz-adv-x="706" 
d="M633 100q1 -80 -17 -146q-56 -213 -262 -214q-134 0 -207 96t-73 264q0 256 158 335q52 26 122 26t122 -26q157 -79 157 -335zM354 336q-142 0 -143 -236q1 -236 143 -235q142 -1 142 235t-142 236z" />
    <glyph glyph-name="uni2081" unicode="&#x2081;" horiz-adv-x="501" 
d="M49 219v119l242 111h98v-693h-131v545h-2l-193 -82h-14z" />
    <glyph glyph-name="uni2082" unicode="&#x2082;" horiz-adv-x="616" 
d="M68 362q103 103 216 103t181 -59q67 -59 67 -148q0 -90 -32 -142t-74 -87l-168 -148v-2h283v-123h-471v105l260 239q66 58 66 124t-35 91q-34 25 -76 25q-69 0 -148 -76z" />
    <glyph glyph-name="uni2083" unicode="&#x2083;" horiz-adv-x="618" 
d="M424 117q119 -41 119 -185q0 -80 -68 -136t-195 -56t-223 53l35 117q92 -45 178 -45q138 0 138 96q0 45 -34 63t-100 19h-114v123h114q63 0 90 24q26 25 25 62q0 88 -113 88q-87 0 -163 -35l-39 113q88 47 206 47t182 -52q64 -51 64 -129t-32 -116t-70 -49v-2z" />
    <glyph glyph-name="uni2084" unicode="&#x2084;" horiz-adv-x="659" 
d="M385 246h133v-221h78v-121h-78v-148h-133v148h-336v106l182 439h142l-174 -422v-2h186v221z" />
    <glyph glyph-name="uni2085" unicode="&#x2085;" horiz-adv-x="602" 
d="M504 449v-121h-252l-16 -131h47q109 1 179 -53t70 -167t-74 -175t-189 -62q-114 0 -216 39l31 123q83 -37 172 -37q139 0 139 110q0 96 -127 97q-95 0 -147 -6l-19 22l37 361h365z" />
    <glyph glyph-name="uni2086" unicode="&#x2086;" horiz-adv-x="638" 
d="M328 88q-121 0 -121 -113t121 -111q121 1 121 113q0 55 -33 83t-88 28zM369 217q94 1 155 -67q62 -68 62 -170t-68 -170q-68 -70 -192 -70q-123 0 -191 68q-67 68 -67 161q0 92 47 170l190 310h141v-11l-157 -233v-2q28 14 80 14z" />
    <glyph glyph-name="uni2087" unicode="&#x2087;" horiz-adv-x="561" 
d="M375 328h-324v121h467v-105l-258 -588h-139v11l254 559v2z" />
    <glyph glyph-name="uni2088" unicode="&#x2088;" horiz-adv-x="659" 
d="M233 256q0 -76 99 -76q46 0 72 20t26 56t-26 58t-76 22t-72 -23q-23 -23 -23 -57zM465 121q121 -53 121 -191q0 -78 -71 -134t-185 -56t-187 55q-72 55 -71 148q0 67 36 111t89 67v2q-99 43 -99 138t64 149t169 55q105 0 169 -54t63 -128q0 -114 -98 -160v-2zM207 -42
q-1 -42 29 -68t94 -25q64 -1 95 25q30 26 30 68t-30 69q-31 27 -95 27t-94 -28q-30 -26 -29 -68z" />
    <glyph glyph-name="uni2089" unicode="&#x2089;" horiz-adv-x="641" 
d="M190 229q0 -55 33 -84t89 -29t89 30q33 28 33 83t-33 83t-89 28t-89 -28t-33 -83zM271 -12q-97 0 -156 67q-60 67 -61 168t66 171t190 70q122 1 193 -67q70 -68 70 -162t-47 -172l-190 -307h-146v11l162 233v2q-33 -14 -81 -14z" />
    <glyph glyph-name="uni208D" unicode="&#x208d;" horiz-adv-x="352" 
d="M295 537q-205 -436 0 -871l-84 -45q-145 242 -145 459q0 218 93 404q26 52 52 98z" />
    <glyph glyph-name="uni208E" unicode="&#x208e;" horiz-adv-x="352" 
d="M141 582q146 -243 146 -481q0 -237 -146 -480l-84 45q103 219 103 431q0 211 -103 440z" />
    <glyph glyph-name="colonmonetary" unicode="&#x20a1;" 
d="M315 735q0 -311 78 -446l148 950q-117 -53 -171.5 -197.5t-54.5 -306.5zM770 1264q-40 4 -80 4l-35 -2l-168 -1082q50 -35 109 -49zM133 696q0 290 115 484.5t325 234.5l27 162h111l-25 -154q49 -3 113 -12l28 166h111l-33 -195q60 -21 107 -49l-47 -131q-52 23 -88 37
l-172 -1114q130 0 260 65l47 -131q-163 -90 -322 -90l-16 2l-31 -192h-113l35 205q-68 14 -108 39l-41 -244h-111l49 311q-221 187 -221 606z" />
    <glyph glyph-name="lira" unicode="&#x20a4;" horiz-adv-x="1060" 
d="M627 1268q-84 0 -143.5 -61.5t-59.5 -184.5v-32q0 -32 4 -60h379v-135h-365l21 -203h344v-135h-332q0 -93 -34.5 -181.5t-73.5 -119.5v-4h581v-152h-803v127q63 49 105.5 111t42.5 157v62h-168v135h158l-23 203h-135v135h123q-4 54 -4 94q0 195 104.5 297t264.5 102
t339 -94l-49 -133q-151 72 -276 72z" />
    <glyph glyph-name="uni20A6" unicode="&#x20a6;" 
d="M295 1137l8 -242h96l-100 242h-4zM821 217l-8 246h-82l86 -246h4zM307 760l6 -162h203l-57 162h-152zM672 598h137l-4 162h-193zM977 463v-463h-223l-176 463h-263v-463h-176v463h-92v135h92v162h-92v135h92v498h217l195 -498h252v498h174v-498h104v-135h-104v-162h104
v-135h-104z" />
    <glyph glyph-name="uni20A8" unicode="&#x20a8;" 
d="M819 0h-188l-471 602v129h198q129 0 188.5 46t76.5 130h-482l37 135h440q-18 80 -80.5 130.5t-179.5 50.5h-217l37 170h834l-37 -136h-334v-4q122 -68 156 -211h215l-37 -135h-174q-19 -162 -133.5 -249t-276.5 -91l428 -534v-33z" />
    <glyph glyph-name="uni20AA" unicode="&#x20aa;" horiz-adv-x="1366" 
d="M1237 1393v-889q0 -288 -97 -396t-358 -108h-338v1016h174v-864h140q100 0 159.5 16t91 56t42 107.5t10.5 172.5v889h176zM754 377v512q0 104 -9.5 171.5t-54 124t-237.5 56.5h-140v-1241h-176v1393h340q258 0 355.5 -108t97.5 -396v-512h-176z" />
    <glyph glyph-name="dong" unicode="&#x20ab;" 
d="M166 0v129h741v-129h-741zM285 654q0 -125 54.5 -205t180.5 -80t215 63v445q-89 63 -219 63q-178 0 -204.5 -115t-26.5 -171zM735 997v201h-194v131h194v105h172v-105h107v-131h-107v-942h-123l-20 72h-4q-144 -99 -306 -99q-163 0 -254 121t-91 305t91 303t255 119
q163 0 276 -80h4z" />
    <glyph glyph-name="Euro" unicode="&#x20ac;" 
d="M735 1268q-145 0 -230 -90.5t-114 -247.5h547l-39 -135h-528q-2 -25 -2 -31v-77q0 -71 2 -95h487l-39 -135h-426q29 -156 113 -244t229 -88t266 65l48 -131q-163 -90 -318 -90q-213 0 -341 131t-173 357h-160l41 135h103q-4 25 -4 32v76q0 70 2 95h-142l43 135h117
q40 228 172.5 360.5t341.5 132.5q159 0 318 -90l-48 -131q-121 66 -266 66z" />
    <glyph glyph-name="uni20AD" unicode="&#x20ad;" 
d="M1051 0h-217l-400 616h-41v-616h-176v616h-123v136h123v641h176v-641h41l385 641h207v-21l-385 -620h324v-136h-320l406 -596v-20z" />
    <glyph glyph-name="uni20AE" unicode="&#x20ae;" 
d="M653 0h-174v381l-192 -74v148l192 73v140l-192 -74v147l192 74v426h-381v152h932v-152h-377v-356l189 73v-147l-189 -74v-139l189 74v-148l-189 -73v-451z" />
    <glyph glyph-name="uni20B1" unicode="&#x20b1;" 
d="M545 1241h-174v-143h397q-50 143 -223 143zM545 524q175 0 219 138h-393v-138h174zM797 834v50q0 46 -2 62h-424v-133h424q2 16 2 21zM371 373v-373h-176v662h-109v151h109v133h-109v152h109v295h364q315 0 395 -295h111v-152h-88q2 -16 2 -20v-50q0 -45 -2 -63h88v-151
h-113q-80 -289 -393 -289h-188z" />
    <glyph glyph-name="uni20B2" unicode="&#x20b2;" 
d="M287 696q0 -347 84 -444.5t145 -116.5v1116q-229 -75 -229 -555zM717 694h284v-583q-66 -55 -162 -95.5t-196 -46.5v-190h-127v198q-204 35 -307 228.5t-103 490.5q0 459 151 578t259 139v164h127v-154q181 -7 350 -129l-59 -131q-142 97 -291 105v-1143q114 4 180 61
v351l-106 28v129z" />
    <glyph glyph-name="uni20B4" unicode="&#x20b4;" 
d="M350 367q0 -117 61.5 -179.5t161.5 -62.5q177 0 322 127l72 -131q-183 -152 -377 -152t-299 111.5t-105 284.5v23q0 24 4 40h-81v135h151q44 51 139 115l166 113h-456v135h634q31 51 31 103q0 104 -64.5 171.5t-181.5 67.5q-116 0 -264 -92l-65 133q177 114 351 114
t280 -107t106 -274q0 -63 -21 -116h95v-135h-205q-61 -61 -117 -99l-188 -129h510v-135h-652q-8 -32 -8 -61z" />
    <glyph glyph-name="uni20B5" unicode="&#x20b5;" 
d="M305 640.5q0 -162.5 63.5 -310t194.5 -189.5v1110q-192 -58 -225 -253t-33 -357.5zM698 -221h-135v203q-209 39 -322.5 227.5t-113.5 486.5q0 454 165 573.5t271 141.5v166h135v-154q144 -4 308 -90l-48 -131q-123 62 -260 66v-1143q128 0 260 65l48 -131
q-164 -86 -308 -90v-190z" />
    <glyph glyph-name="uni2113" unicode="&#x2113;" horiz-adv-x="823" 
d="M590 1200q0 133 -82 133q-51 0 -72.5 -47t-21.5 -139v-377q176 208 176 430zM281 223v283q-98 -82 -166 -127l-72 115q160 106 238 174v485q0 311 229 311q104 0 161.5 -63.5t57.5 -183.5q0 -328 -315 -627v-359q0 -131 98 -131q103 0 207 88l45 -116
q-121 -103 -250 -103t-181 72t-52 182z" />
    <glyph glyph-name="uni2116" unicode="&#x2116;" horiz-adv-x="2054" 
d="M1022 1393h172v-1393h-180l-656 1135h-4l17 -261v-874h-172v1393h180l655 -1135h4l-16 260v875zM1393 436v121h497v-121h-497zM1866 791q-78 -93 -224 -93q-145 0 -222 92t-79 238q0 225 167 303q56 27 133 27q146 0 224 -92q79 -92 79 -238q0 -144 -78 -237zM1640 1229
q-153 0 -153 -200t153 -202q158 0 158 201t-158 201z" />
    <glyph glyph-name="uni2117" unicode="&#x2117;" horiz-adv-x="1695" 
d="M1008 829q0 127 -125 127h-142v-254h142q66 0 95.5 36t29.5 91zM598 313v766h295q133 0 198.5 -65.5t65.5 -181t-63.5 -184t-200.5 -68.5h-152v-267h-143zM236 696q0 -131 46 -244.5t128 -196.5t194.5 -130t243.5 -47t243.5 47t194.5 130t128 196.5t46 244.5t-46 245
t-128 197t-194.5 130t-243.5 47t-243.5 -47t-194.5 -130t-128 -197t-46 -245zM121 696.5q0 153.5 55 286.5t153.5 231.5t231.5 153.5t286.5 55t287 -55t231.5 -153.5t153.5 -231.5t55.5 -286.5t-55.5 -287t-153.5 -231.5t-231.5 -153.5t-287 -55.5t-286.5 55.5t-231.5 153.5
t-153.5 231.5t-55 287z" />
    <glyph glyph-name="trademark" unicode="&#x2122;" horiz-adv-x="1517" 
d="M1350 1434v-574h-131v260l10 142h-2l-137 -265h-105l-135 265h-2l10 -142v-260h-133v574h152l98 -174l63 -136l60 131l100 179h152zM614 1434v-109h-172v-465h-133v465h-174v109h479z" />
    <glyph glyph-name="Omega" unicode="&#x2126;" horiz-adv-x="1419" 
d="M412 152q-271 206 -271 590q0 122 32 250t100.5 224.5t177 151.5t328.5 55t359.5 -196.5t139.5 -509.5q0 -182 -77.5 -330.5t-192.5 -234.5h262v-152h-457v143q131 98 208 230.5t77 320.5q0 403 -137 488.5t-249 85.5q-209 0 -299.5 -157t-90.5 -415q0 -188 77.5 -321
t206.5 -232v-143h-456v152h262z" />
    <glyph glyph-name="estimated" unicode="&#x212e;" horiz-adv-x="1400" 
d="M710 1135q-208 0 -333 -129v-330h678v330q-137 129 -345 129zM730 -31q-272 0 -434.5 180t-162.5 446q0 267 162.5 442t419.5 175t417.5 -165t170.5 -433l-15 -20h-911v-412q133 -127 338 -127q277 0 420 217l75 -55q-96 -133 -214 -190.5t-266 -57.5z" />
    <glyph glyph-name="onethird" unicode="&#x2153;" horiz-adv-x="1462" 
d="M1237 360q119 -42 119 -185q0 -81 -68 -136t-195 -55t-223 53l35 117q92 -45 178 -45q138 0 138 96q0 45 -34 63t-100 19h-114v123h114q63 0 90 24q26 25 25 62q0 88 -112 88q-83 0 -164 -35l-39 113q84 45 204 46q121 0 185 -52t64 -129t-34 -115q-32 -38 -69 -50v-2z
M90 1163v119l242 111h98v-693h-131v545h-2l-193 -82h-14zM164 0v20l915 1373h156v-21l-916 -1372h-155z" />
    <glyph glyph-name="twothirds" unicode="&#x2154;" horiz-adv-x="1579" 
d="M1354 360q119 -42 119 -185q0 -81 -68 -136t-196 -55t-222 53l35 117q92 -45 178 -45q137 0 137 96q0 45 -33 63q-34 18 -100 19h-114v123h114q115 0 115 87t-113 87q-83 0 -164 -35l-38 113q84 45 203 46q120 0 185 -52q64 -52 64 -129t-33 -115t-69 -50v-2zM111 1303
q102 102 216 102t181 -59t67 -148q-1 -90 -33 -142t-73 -87l-168 -148v-2h283v-123h-471v105l260 239q65 58 65 124t-34 91t-76 25q-69 0 -148 -76zM281 0v20l915 1373h156v-21l-916 -1372h-155z" />
    <glyph glyph-name="oneeighth" unicode="&#x215b;" horiz-adv-x="1464" 
d="M90 1163v119l242 111h98v-693h-131v545h-2l-193 -82h-14zM164 0v20l915 1373h156v-21l-916 -1372h-155zM1106 424q47 0 73 20q25 20 25 56t-26 58t-75 22q-50 0 -73 -23t-22 -57q0 -76 98 -76zM1239 365q121 -53 121 -192q0 -79 -71 -134t-185 -55t-186 55t-72 134
q0 138 125 192v2q-99 43 -99 138t64 149t169 55q105 -1 169 -55t63 -148q0 -94 -98 -139v-2zM1104 109q64 -1 95 25q30 26 30 68t-30 68q-31 26 -95 27q-64 0 -94 -27q-30 -26 -29 -68q-1 -42 29 -68t94 -25z" />
    <glyph glyph-name="threeeighths" unicode="&#x215c;" horiz-adv-x="1556" 
d="M1198 424q47 0 73 20q25 20 25 56t-26 58t-75 22q-50 0 -73 -23t-22 -57q0 -76 98 -76zM1331 365q121 -53 121 -192q0 -79 -71 -134t-185 -55t-186 55t-72 134q0 138 125 192v2q-100 43 -98 149q-1 84 63 138t169 55q105 -1 169 -55t64 -128q1 -114 -99 -159v-2z
M1196 109q64 -1 95 25q30 26 30 68t-30 68q-31 26 -95 27q-64 0 -94 -27q-30 -26 -29 -68q-1 -42 29 -68t94 -25zM465 1055q119 -41 119 -185q0 -80 -68 -136t-196 -56t-222 53l35 117q92 -45 178 -45q138 0 138 96q0 45 -34 63t-100 19h-114v123h114q115 0 115 87t-113 87
q-89 0 -163 -35l-39 113q88 47 206 47q119 0 183 -52q64 -51 64 -129t-34 -116q-32 -38 -69 -49v-2zM256 0v20l915 1373h156v-21l-915 -1372h-156z" />
    <glyph glyph-name="fiveeighths" unicode="&#x215d;" horiz-adv-x="1529" 
d="M1073 500q0 -76 98 -76q47 0 73 20t26 56t-26 58t-76 22t-72 -23t-23 -57zM938 526q0 74 64 128t168 55q104 -1 168 -55t64 -128q1 -113 -97 -159v-2q121 -53 121 -192q0 -79 -72 -134q-70 -55 -185 -55t-187 55t-71 134q0 138 125 192v2q-98 42 -98 159zM1171 109
q63 0 94 25q29 26 29 68t-30 68t-94 27q-64 0 -94 -27t-29 -69q0 -92 124 -92zM313 1016q-95 0 -147 -6l-19 22l37 361h365v-121h-252l-16 -131h47q110 1 180 -53t70 -166t-75 -176q-75 -62 -189 -62t-216 39l31 123q83 -37 172 -37q139 0 139 111q0 96 -127 96zM229 0v20
l916 1373h155v-21l-915 -1372h-156z" />
    <glyph glyph-name="seveneighths" unicode="&#x215e;" horiz-adv-x="1439" 
d="M983 500q0 -76 98 -76q47 0 73 20t26 56t-26 58t-76 22t-72 -23t-23 -57zM1079 -16q-115 0 -187 55t-71 134q0 138 125 192v2q-98 42 -98 138q0 95 64 149t168 55q104 -1 168 -55t64 -128q1 -114 -98 -159v-2q123 -53 121 -179q-1 -92 -71 -147t-185 -55zM1080 297
q-64 0 -94 -27q-30 -26 -30 -68t30 -68t94 -25q64 0 95 25q29 26 29 68t-30 68t-94 27zM428 1272h-324v121h467v-105l-258 -588h-139v11l254 559v2zM139 0v20l916 1373h155v-21l-915 -1372h-156z" />
    <glyph glyph-name="arrowleft" unicode="&#x2190;" horiz-adv-x="1826" 
d="M1827 772v-156h-1456l604 -585l-115 -115l-778 778l778 779l115 -117l-604 -584h1456z" />
    <glyph glyph-name="arrowup" unicode="&#x2191;" horiz-adv-x="1826" 
d="M1731 784l-117 -112l-584 602l-2 -1454h-156l2 1454l-585 -602l-115 112l778 779z" />
    <glyph glyph-name="arrowright" unicode="&#x2192;" horiz-adv-x="1826" 
d="M82 616v156h1456l-606 584l117 117l778 -779l-778 -778l-117 115l606 585h-1456z" />
    <glyph glyph-name="arrowdown" unicode="&#x2193;" horiz-adv-x="1826" 
d="M1030 1563v-1454l584 602l117 -113l-779 -778l-778 778l115 113l585 -602l3 1454h153z" />
    <glyph glyph-name="uni2196" unicode="&#x2196;" horiz-adv-x="1835" 
d="M1430 1356v-166l-844 12l1030 -1030l-111 -106l-1026 1030l13 -844h-166v1104h1104z" />
    <glyph glyph-name="uni2197" unicode="&#x2197;" horiz-adv-x="1832" 
d="M1647 254h-166l12 844l-1026 -1030l-109 110l1028 1026l-843 -14v166h1104v-1102z" />
    <glyph glyph-name="uni2198" unicode="&#x2198;" horiz-adv-x="1832" 
d="M545 37v166l844 -13l-1031 1027l111 108l1026 -1028l-12 844h166v-1104h-1104z" />
    <glyph glyph-name="uni2199" unicode="&#x2199;" horiz-adv-x="1835" 
d="M326 1141h166l-13 -844l1026 1028l111 -108l-1030 -1027l844 13v-166h-1104v1104z" />
    <glyph glyph-name="partialdiff" unicode="&#x2202;" horiz-adv-x="1142" 
d="M349 722q-73 -91 -73 -245t73 -253t188 -99q292 0 292 543q-124 145 -286 145q-121 0 -194 -91zM882 149.5q-130 -180.5 -341 -180.5t-326 141t-115 361t117.5 359t308.5 139q123 0 195 -50.5t94 -74.5l4 2q-38 340 -222.5 386t-283.5 48l31 154q338 0 503 -206.5
t165 -552.5q0 -345 -130 -525.5z" />
    <glyph glyph-name="Delta" unicode="&#x2206;" horiz-adv-x="1247" 
d="M621 1219l-109 -367l-238 -709h699l-240 709l-108 367h-4zM1192 0h-1137v10l482 1383h174l481 -1383v-10z" />
    <glyph glyph-name="product" unicode="&#x220f;" horiz-adv-x="1366" 
d="M1001 1282h-636v-1688h-172v1840h981v-1840h-173v1688z" />
    <glyph glyph-name="summation" unicode="&#x2211;" horiz-adv-x="1128" 
d="M119 1434h891v-152h-711l469 -745l-500 -791h770v-152h-950v150l487 784l-456 754v152z" />
    <glyph glyph-name="minus" unicode="&#x2212;" 
d="M1010 629v-152h-895v152h895z" />
    <glyph glyph-name="uni2215" unicode="&#x2215;" horiz-adv-x="1130" 
d="M31 0v20l915 1373h156v-21l-916 -1372h-155z" />
    <glyph glyph-name="uni2219" unicode="&#x2219;" horiz-adv-x="524" 
d="M139 589q0 56 35 92t89 36t88 -36t34 -92t-34 -92t-88 -36t-89 36t-35 92z" />
    <glyph glyph-name="radical" unicode="&#x221a;" horiz-adv-x="1193" 
d="M53 455h166l170 -430l78 -258h4l66 253l462 1373h158l-594 -1799h-172l-338 840v21z" />
    <glyph glyph-name="infinity" unicode="&#x221e;" horiz-adv-x="1452" 
d="M410 395q56 0 104.5 39t116.5 121q-70 86 -115.5 121t-103.5 35t-98 -45t-40 -111t40 -113t96 -47zM1042 395q56 0 96 48.5t40 112.5t-40 109.5t-96 45.5t-102.5 -34t-118.5 -122q74 -88 119.5 -124t101.5 -36zM877.5 289.5q-66.5 43.5 -150.5 142.5
q-91 -104 -157.5 -145t-138.5 -41t-125.5 22.5t-93.5 62.5t-62.5 97t-22.5 160.5t84 187.5t213 84q76 0 142 -41.5t159 -150.5q95 111 158 151.5t135 40.5t126 -21.5t94 -60.5t63.5 -96t23.5 -127t-22.5 -127t-85 -119.5t-168.5 -62.5q-105 0 -171.5 43.5z" />
    <glyph glyph-name="integral" unicode="&#x222b;" horiz-adv-x="1026" 
d="M178 -293q119 0 148 164l198 1231q29 172 111 246.5t223 74.5q46 0 127 -12l-16 -145q-70 14 -126 14q-118 0 -147 -164l-198 -1231q-29 -172 -109 -246.5t-221 -74.5q-52 0 -127 12l16 145q63 -14 121 -14z" />
    <glyph glyph-name="approxequal" unicode="&#x2248;" 
d="M367 311q-93 0 -158 -71l-68 100q29 53 88 88t123 35t117 -16.5t107.5 -36t103.5 -36t88 -16.5q87 0 150 70l67 -102q-82 -119 -227 -119q-59 0 -158.5 36t-149 52t-83.5 16zM367 756q-92 0 -158 -72l-68 100q29 53 88 88t123 35t117 -16.5t107.5 -35.5t103.5 -35.5
t88 -16.5q86 0 150 69l67 -102q-82 -119 -227 -119q-59 0 -158.5 36t-149 52.5t-83.5 16.5z" />
    <glyph glyph-name="notequal" unicode="&#x2260;" 
d="M115 702v152h477l90 254h147v-21l-84 -233h265v-152h-318l-104 -292h422v-152h-475l-91 -258h-149v20l84 238h-264v152h319l103 292h-422z" />
    <glyph glyph-name="lessequal" unicode="&#x2264;" 
d="M997 152v-152h-895v152h895zM997 1282v-172l-716 -307v-6l716 -308v-172h-16l-879 412v141l879 412h16z" />
    <glyph glyph-name="greaterequal" unicode="&#x2265;" 
d="M1024 152v-152h-895v152h895zM129 317v172l717 308v6l-717 307v172h16l879 -412v-141l-879 -412h-16z" />
    <glyph glyph-name="lozenge" unicode="&#x25ca;" horiz-adv-x="1060" 
d="M825 700l-303 517l-289 -541l306 -502zM59 670l412 723h109l419 -682l-411 -711h-111z" />
    <glyph glyph-name="circle" unicode="&#x25cb;" horiz-adv-x="1638" 
d="M416 295q160 -164 401 -164t402 164t161 403t-161 401.5t-402 162.5q-240 0 -400.5 -162.5t-160.5 -401.5t160 -403zM123 698.5q0 147.5 53 274.5t146.5 220t220.5 146.5t274.5 53.5t275.5 -53.5t222 -146.5t147.5 -220t53.5 -274.5t-53.5 -275.5t-147.5 -222.5
t-222 -147.5t-275.5 -53t-274.5 53t-220.5 147.5t-146.5 222.5t-53 275.5z" />
    <glyph glyph-name="H18533" unicode="&#x25cf;" horiz-adv-x="1638" 
d="M123 698q0 297 200.5 496t495.5 199q147 0 275.5 -53.5t275 -200t146.5 -443.5q0 -147 -53.5 -275t-146.5 -221.5t-221 -146.5t-277 -53t-275.5 53t-220 146.5t-146.5 222t-53 276.5z" />
    <glyph glyph-name="uni25DC" unicode="&#x25dc;" horiz-adv-x="694" 
d="M694 1262q-240 0 -400.5 -162.5t-160.5 -401.5h-133q0 147 53 274.5t146.5 220.5t220.5 146.5t274 53.5v-131z" />
    <glyph glyph-name="uni25DD" unicode="&#x25dd;" horiz-adv-x="698" 
d="M0 1393q147 0 275 -53.5t275.5 -198.5t147.5 -443h-135q0 239 -161 401.5t-402 162.5v131z" />
    <glyph glyph-name="uni25DE" unicode="&#x25de;" horiz-adv-x="698" 
d="M0 131q242 0 402.5 164t160.5 403h135q0 -147 -53 -275t-147.5 -222.5t-222.5 -147.5t-275 -53v131z" />
    <glyph glyph-name="uni25DF" unicode="&#x25df;" horiz-adv-x="694" 
d="M694 0q-296 0 -442 147.5t-199 275.5t-53 275h133q0 -239 160 -403t401 -164v-131z" />
    <glyph glyph-name="uniEA01" unicode="&#xea01;" horiz-adv-x="2048" 
d="M1225 625h-400v-400h-200v961h200v-393h400v393h200v-961h-200v400zM1755 -47v1464h-1464v-1464h1464zM141 1567h1764v-1764h-1764v1764z" />
    <glyph glyph-name="uniEA02" unicode="&#xea02;" horiz-adv-x="2048" 
d="M1083 203q-123 0 -210 35.5t-147 102.5t-91 159t-31 262.5t124 307t345 136.5q143 0 277 -61l-56 -160q-103 49 -222 49q-118 0 -187.5 -91t-69.5 -239t72 -238.5t188 -90.5t219 49l56 -160q-144 -61 -267 -61zM1755 -47v1464h-1464v-1464h1464zM141 1567h1764v-1764
h-1764v1764z" />
    <glyph glyph-name="uniEA03" unicode="&#xea03;" horiz-adv-x="2048" 
d="M1027 1036q-130 0 -130 -104q0 -37 20.5 -63.5t79.5 -45.5l103 -32q135 -45 201.5 -107.5t66.5 -187.5t-96 -209t-267 -84q-170 0 -327 92l61 160q128 -82 277 -82q148 0 147 114q0 45 -28.5 71t-106.5 50l-104 33q-133 43 -182.5 111.5t-49.5 158.5q0 135 90 215t252 80
t293 -67l-57 -160q-113 57 -243 57zM1755 -47v1464h-1464v-1464h1464zM141 1567h1764v-1764h-1764v1764z" />
    <glyph glyph-name="uniEA04" unicode="&#xea04;" horiz-adv-x="2048" 
d="M1225 225h200v961h-200v-393h-400v393h-200v-961h200v400h400v-400zM141 1567h1764v-1764h-1764v1764z" />
    <glyph glyph-name="uniEA05" unicode="&#xea05;" horiz-adv-x="2048" 
d="M1088 1206q-128 0 -215 -36.5t-147 -102.5t-91 -158t-31 -262t123 -307t346 -137q129 0 277 61l-56 160q-103 -49 -191.5 -49t-135.5 24.5t-99.5 91t-52.5 213.5q0 148 69.5 239t187.5 91t222 -49l56 160q-134 61 -262 61zM141 1567h1764v-1764h-1764v1764z" />
    <glyph glyph-name="uniEA06" unicode="&#xea06;" horiz-adv-x="2048" 
d="M1368 496q0 125 -66.5 187t-201.5 108l-103 32q-59 18 -79.5 45t-20.5 64q-1 104 129 104t244 -57l57 160q-130 67 -293 67q-162 0 -252 -79.5t-90 -215.5q0 -90 49.5 -158.5t182.5 -111.5l104 -33q78 -25 106.5 -50.5t28.5 -70.5q0 -115 -149 -114q-104 0 -177 32.5
t-98 49.5l-61 -160q157 -92 327 -92t266.5 84t96.5 209zM141 1567h1764v-1764h-1764v1764z" />
    <glyph glyph-name="uniF6C3" unicode="&#xf6c3;" horiz-adv-x="1110" 
d="M659 -137v-21l-77 -288h-133v20l36 289h174z" />
    <glyph glyph-name="uniF6E1" unicode="&#xf6e1;" horiz-adv-x="380" 
d="M293 -61v-19l-109 -371h-127v21l54 369h182z" />
    <glyph glyph-name="uniF6E2" unicode="&#xf6e2;" horiz-adv-x="380" 
d="M293 1128v-18l-109 -371h-127v21l54 368h182z" />
    <glyph glyph-name="uniF6E5" unicode="&#xf6e5;" horiz-adv-x="495" 
d="M98 68v102h299v-102h-299z" />
    <glyph glyph-name="uniF6E6" unicode="&#xf6e6;" horiz-adv-x="495" 
d="M98 1257v103h299v-103h-299z" />
    <glyph glyph-name="uniF6E7" unicode="&#xf6e7;" horiz-adv-x="370" 
d="M186 -258q-44 0 -74 28t-30 75q0 48 30 76t74 28t74 -28q29 -28 29 -76q0 -47 -29 -75t-74 -28z" />
    <glyph glyph-name="uniF6E8" unicode="&#xf6e8;" horiz-adv-x="370" 
d="M82 1035q0 48 30 76t74 28t74 -28q29 -28 29 -76t-29 -76q-29 -27 -74 -27q-44 0 -74 28t-30 75z" />
    <glyph glyph-name="uniF8FF" unicode="&#xf8ff;" horiz-adv-x="1218" 
d="M913 119v1155h-608v-1155h608zM186 1393h846v-1393h-846v1393z" />
    <glyph glyph-name="uniFB01" unicode="&#xfb01;" horiz-adv-x="1179" 
d="M825 1278q0 53 29 84t79 31t78.5 -31t28.5 -84t-28.5 -85t-78.5 -32t-79 32t-29 85zM526 1282q-55 0 -89 -30.5t-34 -114.5v-150h613v-987h-168v836h-445v-836h-170v836h-161v110l161 41v135q0 170 74 246t215 76q51 0 129 -12v-164q-70 14 -125 14z" />
    <glyph glyph-name="uniFB02" unicode="&#xfb02;" horiz-adv-x="1204" 
d="M528 1300q-127 0 -127 -157v-156h248v-137h-248v-850h-168v850h-161v98l161 39v135q0 322 279 322q65 0 137 -12v-146q-64 14 -121 14zM862 0v1434h168v-1434h-168z" />
    <glyph glyph-name="zero.pnum" horiz-adv-x="1222" 
d="M614 1423q473 0 473 -727t-473 -727q-247 0 -367 197q-112 182 -112 530q0 530 261 676q91 51 218 51zM313 696q1 -131 15 -236t49 -180q72 -155 237 -155q236 0 281 335q14 105 14 236q0 280 -62 417q-70 155 -233 155q-241 0 -286 -335q-15 -106 -15 -237z" />
    <glyph glyph-name="one.pnum" horiz-adv-x="765" 
d="M80 1094v157l342 142h145v-1393h-178v1202h-4l-279 -108h-26z" />
    <glyph glyph-name="two.pnum" horiz-adv-x="1052" 
d="M104 1260q175 163 374 163q200 -1 320 -121t120 -302t-119 -335q-37 -46 -80 -96l-379 -413v-4h590v-152h-815v143l463 521q89 106 125 169q36 62 36 138q0 208 -146 274q-48 23 -129 23q-135 0 -274 -129z" />
    <glyph glyph-name="three.pnum" horiz-adv-x="1071" 
d="M762 383q0 175 -96.5 212.5t-176.5 37.5h-213v155h224q174 0 202.5 94.5t28.5 169t-62 145.5t-169 71q-158 0 -318 -72l-53 135q72 41 173 66.5t200 25.5q197 0 302 -105.5t105 -273.5t-72.5 -237.5t-103.5 -83.5v-4q92 -39 149.5 -128t57.5 -199q0 -200 -126 -311.5
t-341 -111.5q-216 0 -377 105l60 135q149 -84 331 -84q119 0 197 70.5t78 187.5z" />
    <glyph glyph-name="four.pnum" horiz-adv-x="1157" 
d="M735 983h172v-528h158v-152h-158v-303h-172v303h-657v125l393 965h174l-377 -934v-4h467v528z" />
    <glyph glyph-name="five.pnum" horiz-adv-x="1046" 
d="M461 690q-128 0 -260 -10l-25 29l76 684h631v-152h-492l-43 -399q62 4 146 4q194 0 315 -103t121 -322t-134 -335.5t-354 -116.5q-119 0 -217 33t-131 49l45 146q161 -72 303 -72q141 0 225.5 68.5t84.5 222.5q0 274 -291 274z" />
    <glyph glyph-name="six.pnum" horiz-adv-x="1099" 
d="M554 754q-124 0 -197.5 -83t-73.5 -224t73 -231.5t198 -90.5t198 91t73 231t-73.5 223.5t-197.5 83.5zM614 909q74 0 149 -32.5t158 -129t83 -302.5t-120.5 -341t-329.5 -135t-329.5 135t-120.5 334.5t107 386.5l315 568h187v-21l-320 -532l4 -4q27 25 85 49t132 24z" />
    <glyph glyph-name="seven.pnum" horiz-adv-x="958" 
d="M696 1241h-620v152h807v-138l-447 -1255h-182v20l442 1217v4z" />
    <glyph glyph-name="eight.pnum" horiz-adv-x="1165" 
d="M811 1036q0 106 -57 168t-171 64q-114 0 -172 -62q-59 -62 -59 -170q0 -106 58 -168t173 -61q114 0 171 61q57 62 57 168zM813 731q225 -115 225 -365q0 -75 -28 -150q-59 -156 -228 -216q-86 -31 -200 -31q-219 0 -337 114t-118 291t141 300q41 35 86 57v4
q-180 105 -180 303q0 171 102 278t306 107q205 0 307 -106t100 -279q0 -201 -176 -303v-4zM584 125q143 0 210 74q66 75 66 189t-66 189q-67 75 -212 75t-211 -76q-66 -74 -66 -189t68 -189t211 -73z" />
    <glyph glyph-name="nine.pnum" horiz-adv-x="1099" 
d="M547 639q125 0 197.5 83t72.5 224t-73 231.5t-196 90.5t-198.5 -90t-75.5 -231q0 -142 74 -225t199 -83zM486 483q-74 0 -149 33t-158 129.5t-83 301.5q0 206 119.5 341t329.5 135q211 0 330.5 -134t119.5 -334t-106 -388l-316 -567h-186v20l320 533l-2 2v2
q-27 -25 -86 -49.5t-133 -24.5z" />
    <glyph glyph-name="a.salt" horiz-adv-x="1118" 
d="M952 0h-118l-19 90h-2q-168 -121 -317 -121q-188 0 -285.5 147t-97.5 378q0 358 141 441t217 83q122 0 194.5 -33.5t147.5 -87.5h2l19 90h118v-987zM784 784q-90 90 -233.5 90t-204.5 -106t-61 -321t91 -274.5t204.5 -59.5t203.5 90v581z" />
    <glyph glyph-name="agrave.aalt" horiz-adv-x="1118" 
d="M496 1018q156 0 317 -121h2l19 90h118v-987h-118l-19 90h-2q-80 -57 -148 -88q-69 -31 -169 -32q-188 -2 -286 147q-99 149 -97 377q0 359 211 482q72 42 172 42zM285 494q0 -261 134 -350q48 -32 120 -31q157 0 245 90v581q-92 92 -234 91t-209 -116q-56 -97 -56 -265z
M346 1454h186l121 -248v-20h-145l-162 248v20z" />
    <glyph glyph-name="aacute.aalt" horiz-adv-x="1118" 
d="M496 1018q156 0 317 -121h2l19 90h118v-987h-118l-19 90h-2q-80 -57 -148 -88q-69 -31 -169 -32q-188 -2 -286 147q-99 149 -97 377q0 359 211 482q72 42 172 42zM285 494q0 -261 134 -350q48 -32 120 -31q157 0 245 90v581q-92 92 -234 91t-209 -116q-56 -97 -56 -265z
M496 1186v20l120 248h187v-20l-162 -248h-145z" />
    <glyph glyph-name="acircumflex.aalt" horiz-adv-x="1118" 
d="M496 1018q156 0 317 -121h2l19 90h118v-987h-118l-19 90h-2q-80 -57 -148 -88q-69 -31 -169 -32q-188 -2 -286 147q-99 149 -97 377q0 359 211 482q72 42 172 42zM285 494q0 -261 134 -350q48 -32 120 -31q157 0 245 90v581q-92 92 -234 91t-209 -116q-56 -97 -56 -265z
M846 1186h-154l-119 172l-118 -172h-154v20l176 248h193l176 -248v-20z" />
    <glyph glyph-name="atilde.aalt" horiz-adv-x="1118" 
d="M496 1018q156 0 317 -121h2l19 90h118v-987h-118l-19 90h-2q-80 -57 -148 -88q-69 -31 -169 -32q-188 -2 -286 147q-99 149 -97 377q0 359 211 482q72 42 172 42zM285 494q0 -261 134 -350q48 -32 120 -31q157 0 245 90v581q-92 92 -234 91t-209 -116q-56 -97 -56 -265z
M285 1298q77 117 155 117q46 0 78 -13t86 -40t106 -28t101 71l51 -102q-80 -117 -158 -117q-60 0 -114 28t-84 40q-30 13 -62 14q-60 0 -108 -72z" />
    <glyph glyph-name="adieresis.aalt" horiz-adv-x="1118" 
d="M496 1018q156 0 317 -121h2l19 90h118v-987h-118l-19 90h-2q-80 -57 -148 -88q-69 -31 -169 -32q-188 -2 -286 147q-99 149 -97 377q0 359 211 482q72 42 172 42zM285 494q0 -261 134 -350q48 -32 120 -31q157 0 245 90v581q-92 92 -234 91t-209 -116q-56 -97 -56 -265z
M276 1295q0 52 29 83t79 31t79 -31t29 -83t-29 -82q-29 -29 -79 -29t-79 30t-29 81zM651 1295q0 52 29 83t79 31t79 -31q28 -31 28 -83t-28 -82q-28 -29 -79 -29q-50 0 -79 30t-29 81z" />
    <glyph glyph-name="aring.aalt" horiz-adv-x="1118" 
d="M496 1018q156 0 317 -121h2l19 90h118v-987h-118l-19 90h-2q-80 -57 -148 -88q-69 -31 -169 -32q-188 -2 -286 147q-99 149 -97 377q0 359 211 482q72 42 172 42zM285 494q0 -261 134 -350q48 -32 120 -31q157 0 245 90v581q-92 92 -234 91t-209 -116q-56 -97 -56 -265z
M381 1307q0 92 53 141t139 49q87 0 139 -49t52 -141q0 -93 -52 -143t-138 -50t-140 50q-53 50 -53 143zM492 1307q0 -41 22 -64t60 -23q36 0 59 24q23 22 22 63t-23 63t-59 21q-37 1 -59 -21t-22 -63z" />
    <glyph glyph-name="amacron.aalt" horiz-adv-x="1118" 
d="M496 1018q156 0 317 -121h2l19 90h118v-987h-118l-19 90h-2q-80 -57 -148 -88q-69 -31 -169 -32q-188 -2 -286 147q-99 149 -97 377q0 359 211 482q72 42 172 42zM285 494q0 -261 134 -350q48 -32 120 -31q157 0 245 90v581q-92 92 -234 91t-209 -116q-56 -97 -56 -265z
M324 1223v151h497v-151h-497z" />
    <glyph glyph-name="abreve.aalt" horiz-adv-x="1118" 
d="M496 1018q156 0 317 -121h2l19 90h118v-987h-118l-19 90h-2q-80 -57 -148 -88q-69 -31 -169 -32q-188 -2 -286 147q-99 149 -97 377q0 359 211 482q72 42 172 42zM285 494q0 -261 134 -350q48 -32 120 -31q157 0 245 90v581q-92 92 -234 91t-209 -116q-56 -97 -56 -265z
M572 1339q122 0 227 66l47 -107q-112 -112 -273 -112q-88 0 -159 35t-111 77l47 107q100 -66 222 -66z" />
    <glyph glyph-name="aogonek.aalt" horiz-adv-x="1118" 
d="M784 784q-90 90 -233.5 90t-204.5 -106t-61 -321t91 -274.5t204.5 -59.5t203.5 90v581zM623 -249q0 95 58 160.5t144 123.5l-10 55h-2q-168 -121 -317 -121q-188 0 -285.5 147t-97.5 378q0 358 141 441t217 83q122 0 194.5 -33.5t147.5 -87.5h2l19 90h118v-987
q-182 -105 -182 -200t88 -95q35 0 62.5 14.5t50.5 28.5l16 -127q-77 -57 -163 -57t-143.5 46t-57.5 141z" />
    <glyph glyph-name="aringacute.aalt" horiz-adv-x="1118" 
d="M502 1505v17l121 200h184v-16l-162 -201h-143zM952 0h-118l-19 90h-2q-168 -121 -317 -121q-188 0 -285.5 147t-97.5 378q0 358 141 441t217 83q122 0 194.5 -33.5t147.5 -87.5h2l19 90h118v-987zM784 784q-90 90 -233.5 90t-204.5 -106t-61 -321t91 -274.5t204.5 -59.5
t203.5 90v581zM379 1259.5q0 92.5 53 136.5t139 44t138.5 -44t52.5 -136.5t-52.5 -137.5t-138.5 -45t-139 45t-53 137.5zM653 1279q0 60 -82 60t-82 -60t23 -80.5t59.5 -20.5t59 20.5t22.5 80.5z" />
    <glyph glyph-name="uni0444.aalt" horiz-adv-x="1296" 
d="M1012 535.5q0 109.5 -61.5 205.5t-221.5 119v-733q229 33 256 166t27 242.5zM561 125v735q-276 -34 -276 -367.5t276 -367.5zM1184 367.5q0 -344.5 -455 -390.5v-383h-168v383q-236 19 -342 158t-106 484t448 391v424h168v-424q240 -22 347.5 -160t107.5 -482.5z" />
    <glyph glyph-name="Euro.aalt" 
d="M735 1268q-145 0 -230 -90.5t-114 -247.5h426v-135h-446q-2 -25 -2 -31v-77q0 -71 2 -95h448v-135h-426q29 -156 113 -244t229 -88t266 65l48 -131q-163 -90 -318 -90q-213 0 -341 131t-173 357h-160v135h144q-4 25 -4 32v76q0 70 2 95h-142v135h160q40 228 172.5 360.5
t341.5 132.5q159 0 318 -90l-48 -131q-121 66 -266 66z" />
    <glyph glyph-name="uni20A8.aalt" 
d="M893 0h-191l-540 602v113h209q245 0 282 192h-493v135h489q-20 80 -86.5 138.5t-191.5 58.5h-211v154h823v-136h-276v-4q47 -39 78.5 -98t41.5 -113h156v-135h-149q-23 -162 -142.5 -249t-285.5 -91l487 -534v-33z" />
    <glyph glyph-name="registered.aalt" horiz-adv-x="1695" 
d="M864 743q129 0 129 83t-33.5 106.5t-95.5 23.5h-172v-213h172zM1143 852q0 -180 -180 -221l225 -299v-19h-158l-221 310h-117v-310h-143v766h323q271 0 271 -227zM236 696q0 -131 46 -244.5t128 -196.5t194.5 -130t243.5 -47t243.5 47t194.5 130t128 196.5t46 244.5
t-46 245t-128 197t-194.5 130t-243.5 47t-243.5 -47t-194.5 -130t-128 -197t-46 -245zM121 696.5q0 153.5 55 286.5t153.5 231.5t231.5 153.5t286.5 55t287 -55t231.5 -153.5t153.5 -231.5t55.5 -286.5t-55.5 -287t-153.5 -231.5t-231.5 -153.5t-287 -55.5t-286.5 55.5
t-231.5 153.5t-153.5 231.5t-55 287z" />
    <glyph glyph-name="guillemotleft.aalt" horiz-adv-x="1026" 
d="M115 711l288 428l117 -78l-217 -363l217 -362l-117 -78l-288 428v25zM485 711l289 428l117 -78l-217 -363l217 -362l-117 -78l-289 428v25z" />
    <glyph glyph-name="bracketleft.aalt" horiz-adv-x="684" 
d="M592 1618v-96l-227 -47v-1553l227 -47v-96h-399v1839h399z" />
    <glyph glyph-name="guilsinglright.aalt" horiz-adv-x="655" 
d="M541 686l-289 -428l-117 78l217 362l-217 363l117 78l289 -428v-25z" />
    <glyph glyph-name="bar.aalt" horiz-adv-x="520" 
d="M328 -221h-135v1839h135v-1839z" />
    <glyph glyph-name="periodcentered.aalt" horiz-adv-x="540" 
d="M147 693q0 56 35 92t89 36t88 -36t34 -92t-34 -92t-88 -36t-89 36t-35 92z" />
    <glyph glyph-name="bullet.aalt" horiz-adv-x="708" 
d="M182 696q0 78 47 127t127 49t127 -49t47 -127t-47 -127t-127 -49t-127 49t-47 127z" />
    <glyph glyph-name="emdash.aalt" horiz-adv-x="1728" 
d="M162 623v151h1405v-151h-1405z" />
    <glyph glyph-name="bracketright.aalt" horiz-adv-x="684" 
d="M492 1618v-1839h-400v96l227 47v1553l-227 47v96h400z" />
    <glyph glyph-name="endash.aalt" horiz-adv-x="1118" 
d="M162 623v151h794v-151h-794z" />
    <glyph glyph-name="hyphen.case" horiz-adv-x="864" 
d="M162 623v151h540v-151h-540z" />
    <glyph glyph-name="guillemotright.aalt" horiz-adv-x="1026" 
d="M541 686l-289 -428l-117 78l217 362l-217 363l117 78l289 -428v-25zM911 686l-288 -428l-117 78l217 362l-217 363l117 78l288 -428v-25z" />
    <glyph glyph-name="parenleft.case" horiz-adv-x="587" 
d="M360 -258q-235 441 -235 952t235 957l121 -62q-178 -415 -178 -894t178 -894z" />
    <glyph glyph-name="guilsinglleft.aalt" horiz-adv-x="655" 
d="M115 711l288 428l117 -78l-217 -363l217 -362l-117 -78l-288 428v25z" />
    <glyph glyph-name="braceright.aalt" horiz-adv-x="677" 
d="M276 940v375q0 114 -34 155t-144 41v107h37q262 0 298 -177q11 -54 11 -122v-397q0 -82 36 -115t110 -33v-151q-74 0 -110 -33t-36 -115v-397q0 -150 -56 -216q-72 -85 -253 -83h-37v106q106 0 143 41q35 42 35 156v375q0 190 146 239v4q-146 49 -146 240z" />
    <glyph glyph-name="braceleft.aalt" horiz-adv-x="677" 
d="M403 82q0 -116 34 -155q34 -40 145 -42v-106h-37q-262 0 -298 177q-11 54 -11 122v397q0 82 -36 115t-110 33v151q74 0 110 33t36 115v397q0 150 56 216q71 83 253 83h37v-107q-107 0 -142 -39t-37 -157v-375q0 -189 -145 -240v-4q147 -51 145 -239v-375z" />
    <glyph glyph-name="parenright.case" horiz-adv-x="587" 
d="M227 1651q236 -443 236 -952t-236 -957l-121 59q179 408 179 896q0 489 -179 892z" />
    <glyph glyph-name="minus.case" horiz-adv-x="1638" 
d="M391 612v152h856v-152h-856z" />
    <glyph glyph-name="zero.frac" horiz-adv-x="706" 
d="M633 1044q1 -80 -17 -146q-56 -213 -262 -214q-134 0 -207 96t-73 264q0 259 158 335q52 26 122 26q135 1 207 -97t72 -264zM354 1280q-142 0 -143 -236q1 -236 143 -235q142 -1 142 235t-142 236z" />
    <glyph glyph-name="one.frac" horiz-adv-x="501" 
d="M49 1163v119l242 111h98v-693h-131v545h-2l-193 -82h-14z" />
    <glyph glyph-name="two.frac" horiz-adv-x="616" 
d="M68 1307q102 102 216 102t181 -59t67 -148q0 -90 -32 -142t-74 -87l-168 -148v-2h283v-123h-471v105l260 239q66 59 66 125t-35 91q-34 25 -76 24q-72 0 -148 -76z" />
    <glyph glyph-name="three.frac" horiz-adv-x="618" 
d="M424 1061q119 -41 119 -185q0 -80 -68 -136t-195 -56t-223 53l35 117q92 -45 178 -45q138 0 138 96q0 45 -34 63t-100 19h-114v123h114q63 0 90 25q26 25 25 61q0 90 -113 88q-87 0 -163 -35l-39 113q88 47 206 47t182 -52t64 -129t-32 -116t-70 -49v-2z" />
    <glyph glyph-name="four.frac" horiz-adv-x="659" 
d="M385 1190h133v-221h78v-121h-78v-148h-133v148h-336v106l182 439h142l-174 -422v-2h186v221z" />
    <glyph glyph-name="five.frac" horiz-adv-x="602" 
d="M268 1016q-95 0 -147 -6l-19 22l37 361h365v-121h-252l-16 -131h47q109 1 179 -53t70 -166t-74 -176q-75 -62 -189 -62t-216 39l31 123q83 -37 172 -37q139 0 139 111q0 96 -127 96z" />
    <glyph glyph-name="six.frac" horiz-adv-x="638" 
d="M207 920q0 -112 121 -111q55 0 88 28t33 84t-33 84t-88 27q-121 0 -121 -112zM369 1161q94 1 155 -67q62 -68 62 -168t-68 -172q-68 -70 -192 -70q-123 0 -191 68q-67 68 -67 162q0 93 47 169l190 310h141v-11l-157 -233v-2q28 14 80 14z" />
    <glyph glyph-name="seven.frac" horiz-adv-x="561" 
d="M375 1272h-324v121h467v-105l-258 -588h-139v11l254 559v2z" />
    <glyph glyph-name="eight.frac" horiz-adv-x="659" 
d="M233 1200q0 -76 99 -76q46 0 72 20t26 56t-26 58t-76 22t-72 -23q-23 -23 -23 -57zM465 1065q121 -53 121 -191q0 -78 -71 -134t-185 -56t-187 55q-72 55 -71 148q0 67 36 111t89 67v2q-99 43 -99 150q0 84 64 138t169 54t169 -54q64 -53 63 -127q0 -114 -98 -161v-2z
M207 902q-1 -42 29 -68t94 -25q64 0 95 26q30 25 30 67t-30 69q-31 27 -95 27t-94 -28q-30 -26 -29 -68z" />
    <glyph glyph-name="nine.frac" horiz-adv-x="641" 
d="M190 1174q0 -55 33 -84t89 -29t89 29t33 84q0 110 -123 110q-55 0 -88 -28t-33 -82zM271 932q-97 0 -156 67q-60 67 -61 169t67 172t191 69q123 0 192 -68t69 -162t-47 -171l-190 -308h-146v11l162 233v2q-33 -14 -81 -14z" />
    <glyph glyph-name="comma.numr" horiz-adv-x="380" 
d="M293 883v-19l-109 -370h-127v20l54 369h182z" />
    <glyph glyph-name="plus.numr" horiz-adv-x="507" 
d="M309 1114h131v-102h-131v-154h-112v154h-129v102h129v150h112v-150z" />
    <glyph glyph-name="hyphen.numr" horiz-adv-x="495" 
d="M98 1012v102h299v-102h-299z" />
    <glyph glyph-name="minus.numr" horiz-adv-x="569" 
d="M98 1012v102h373v-102h-373z" />
    <glyph glyph-name="parenleft.numr" horiz-adv-x="352" 
d="M295 1481q-205 -436 0 -871l-84 -45q-145 242 -145 482q0 195 93 381q26 52 52 98z" />
    <glyph glyph-name="period.numr" horiz-adv-x="370" 
d="M186 686q-44 0 -74 28t-30 75q0 48 30 76t74 28t74 -28q29 -28 29 -76q0 -47 -29 -75t-74 -28z" />
    <glyph glyph-name="parenright.numr" horiz-adv-x="352" 
d="M141 1526q146 -243 146 -478q0 -234 -146 -483l-84 45q103 219 103 431q0 211 -103 440z" />
    <glyph glyph-name="zero.dnom" horiz-adv-x="706" 
d="M633 344q0 -80 -17.5 -146.5t-52.5 -114.5t-87 -73.5t-121.5 -25.5t-122 25.5t-88 73.5t-53 114.5t-17.5 146.5t17.5 146.5t53 114.5t88 74t122 26t121.5 -26t87 -74t52.5 -114.5t17.5 -146.5zM353.5 580q-142.5 0 -142.5 -235.5t142.5 -235.5t142.5 235.5t-142.5 235.5z
" />
    <glyph glyph-name="one.dnom" horiz-adv-x="501" 
d="M49 463v119l242 110h98v-692h-131v545h-2l-193 -82h-14z" />
    <glyph glyph-name="two.dnom" horiz-adv-x="616" 
d="M68 606q103 103 215 103t180.5 -58.5t68.5 -148.5q0 -91 -32.5 -143t-73.5 -87l-168 -147v-2h283v-123h-471v104l260 240q66 58 66 124t-34 91t-77 25q-72 0 -148 -76z" />
    <glyph glyph-name="three.dnom" horiz-adv-x="618" 
d="M424 360q119 -42 119 -185q0 -81 -67.5 -136t-195.5 -55t-223 53l35 117q92 -45 178 -45q138 0 138 96q0 45 -34 63.5t-100 18.5h-114v123h114q63 0 89 24.5t26 61.5q0 88 -113 88q-82 0 -163 -35l-39 113q88 47 206 47t182 -52.5t64 -129.5t-32.5 -115.5t-69.5 -49.5v-2
z" />
    <glyph glyph-name="four.dnom" horiz-adv-x="659" 
d="M385 489h133v-221h78v-121h-78v-147h-133v147h-336v107l182 438h142l-174 -422v-2h186v221z" />
    <glyph glyph-name="five.dnom" horiz-adv-x="602" 
d="M268 315q-95 0 -147 -6l-19 23l37 360h365v-121h-252l-16 -131h47q109 0 179 -53t70 -166t-74.5 -175t-189.5 -62t-215 39l31 122q81 -36 172 -36q139 0 139 110q0 96 -127 96z" />
    <glyph glyph-name="six.dnom" horiz-adv-x="638" 
d="M328 109q121 0 121 112q0 55 -33 83t-88 28q-121 0 -121 -112t121 -111zM369 461q94 0 155.5 -67.5t61.5 -168.5t-68.5 -171t-190 -70t-190.5 68t-69 161t47 170l190 309h141v-10l-157 -233v-3q30 15 80 15z" />
    <glyph glyph-name="seven.dnom" horiz-adv-x="561" 
d="M375 571h-324v121h467v-104l-258 -588h-139v10l254 559v2z" />
    <glyph glyph-name="eight.dnom" horiz-adv-x="659" 
d="M233 479.5q0 -55.5 99 -55.5q47 0 72.5 20.5t25.5 55.5t-25.5 57.5t-75.5 22.5t-73 -22.5t-23 -78zM465 365q121 -53 121 -192q0 -79 -71 -134t-185 -55t-186 55t-72 134q0 139 125 192v2q-99 43 -99 138t64 149.5t169 54.5t168.5 -54.5t63.5 -128.5q0 -115 -98 -159v-2z
M330 109q64 0 94.5 25.5t30.5 67.5t-30.5 68.5t-94.5 26.5t-93.5 -26.5t-29.5 -68.5t29.5 -67.5t93.5 -25.5z" />
    <glyph glyph-name="nine.dnom" horiz-adv-x="641" 
d="M434 501q0 83 -123 83q-55 0 -88 -28t-33 -83t33 -84t89 -29t89 29t33 112zM270 231q-94 0 -155.5 69t-61.5 169q0 99 68.5 169.5t190 70.5t191.5 -68t70 -162t-47 -172l-190 -307h-146v10l162 234v2q-35 -15 -82 -15z" />
    <glyph glyph-name="comma.dnom" horiz-adv-x="380" 
d="M293 182v-18l-109 -371h-127v21l54 368h182z" />
    <glyph glyph-name="plus.dnom" horiz-adv-x="507" 
d="M309 414h131v-103h-131v-153h-112v153h-129v103h129v149h112v-149z" />
    <glyph glyph-name="parenright.dnom" horiz-adv-x="352" 
d="M141 825q146 -243 146 -480t-146 -480l-84 45q103 219 103 430t-103 440z" />
    <glyph glyph-name="hyphen.dnom" horiz-adv-x="495" 
d="M98 311v103h299v-103h-299z" />
    <glyph glyph-name="minus.dnom" horiz-adv-x="569" 
d="M98 311v103h373v-103h-373z" />
    <glyph glyph-name="parenleft.dnom" horiz-adv-x="352" 
d="M211 -135q-145 242 -145 480t145 480l84 -45q-102 -217 -102 -435t102 -435z" />
    <glyph glyph-name="period.dnom" horiz-adv-x="370" 
d="M82 89q0 48 29.5 76t74.5 28t74 -28t29 -76t-29 -75.5t-74 -27.5t-74.5 27.5t-29.5 75.5z" />
    <glyph glyph-name="minus.sinf" horiz-adv-x="569" 
d="M98 68v102h373v-102h-373z" />
    <glyph glyph-name="plus.sinf" horiz-adv-x="507" 
d="M309 170h131v-102h-131v-154h-112v154h-129v102h129v149h112v-149z" />
    <glyph glyph-name="glyph715" horiz-adv-x="1110" 
d="M449 1165v21l77 289h133v-21l-36 -289h-174z" />
    <glyph glyph-name="glyph716" horiz-adv-x="1110" 
d="M659 1393v-21l-77 -289h-133v21l36 289h174z" />
    <glyph glyph-name="glyph717" horiz-adv-x="1110" 
d="M659 -137v-21l-77 -288h-133v20l36 289h174z" />
    <glyph glyph-name="glyph718" horiz-adv-x="1110" 
d="M391 1808h184l123 -247v-21h-145l-162 248v20z" />
    <glyph glyph-name="glyph719" horiz-adv-x="1110" 
d="M412 1540v21l123 247h184v-20l-162 -248h-145z" />
    <glyph glyph-name="glyph720" horiz-adv-x="1110" 
d="M827 1540h-153l-119 146l-119 -146h-153v21l176 247h192l176 -247v-21z" />
    <glyph glyph-name="glyph721" horiz-adv-x="1110" 
d="M283 1808h153l119 -145l119 145h153v-20l-176 -248h-192l-176 248v20z" />
    <glyph glyph-name="glyph722" horiz-adv-x="1110" 
d="M266 1673q77 117 155 117q46 0 77.5 -13.5t88.5 -41t95 -27.5q60 0 111 72l51 -103q-80 -116 -158 -116q-58 0 -139 40.5t-131 40.5t-99 -71z" />
    <glyph glyph-name="glyph723" horiz-adv-x="1110" 
d="M655 1670q0 52 29 83t79 31t78.5 -31t28.5 -83t-28.5 -81.5t-78.5 -29.5t-79 29.5t-29 81.5zM240 1670q0 52 28.5 83t78.5 31t79 -31t29 -83t-29 -81.5t-79 -29.5t-78.5 29.5t-28.5 81.5z" />
    <glyph glyph-name="glyph724" horiz-adv-x="1110" 
d="M305 1591v152h498v-152h-498z" />
    <glyph glyph-name="glyph725" horiz-adv-x="1208" 
d="M524 1083v21l49 289h175v-21l-93 -289h-131z" />
    <glyph glyph-name="glyph726" horiz-adv-x="1110" 
d="M554 1716q124 0 224 66l47 -107q-112 -112 -235 -112t-193 34t-114 78l47 107q100 -66 224 -66z" />
    <glyph glyph-name="glyph727" horiz-adv-x="1110" 
d="M362 1696q0 92 53.5 141t139.5 49t138 -49t52 -141t-52 -142.5t-138 -50.5t-139.5 50.5t-53.5 142.5zM473 1696q0 -41 22.5 -63.5t59.5 -22.5t59.5 22.5t22.5 63.5t-22.5 62.5t-59.5 21.5t-59.5 -21.5t-22.5 -62.5z" />
    <glyph glyph-name="glyph728" horiz-adv-x="1110" 
d="M561 1540v21l121 247h184v-20l-159 -248h-146zM244 1540v21l121 247h184v-20l-160 -248h-145z" />
    <glyph glyph-name="glyph729" horiz-adv-x="1110" 
d="M446 1670q0 52 29 83t79 31t79 -31t29 -83t-29 -81.5t-79 -29.5t-79 29.5t-29 81.5z" />
    </font>
</defs>
</svg>
