<?xml version="1.0" standalone="no"?>
<!DOCTYPE svg PUBLIC "-//W3C//DTD SVG 1.1//EN" "http://www.w3.org/Graphics/SVG/1.1/DTD/svg11.dtd" >
<svg xmlns="http://www.w3.org/2000/svg">
<metadata>
Created by FontPrep 20130207 at Tue Apr  7 21:17:03 2015
 By Christoph
Copyright (c) 2015 by Volkswagen AG. All rights reserved.
</metadata>
<defs>
<font id="194f5394ae2e9c74dc3c441b92862d1d" >
  <font-face 
    font-family="Font"
    font-weight="700"
    font-style="italic"
    font-stretch="normal"
    units-per-em="2048"
    panose-1="2 11 8 4 4 2 0 0 0 3"
    ascent="1638"
    descent="-410"
    x-height="987"
    cap-height="1393"
    bbox="-530 -451 2228 1929"
    underline-thickness="184"
    underline-position="-41"
    slope="-12"
    unicode-range="U+0020-FB02"
  />
<missing-glyph horiz-adv-x="1265" 
d="M963 119v1155h-609v-1155h609zM236 1393h845v-1393h-845v1393z" />
    <glyph glyph-name=".notdef" horiz-adv-x="1265" 
d="M963 119v1155h-609v-1155h609zM236 1393h845v-1393h-845v1393z" />
    <glyph glyph-name="glyph1" horiz-adv-x="0" 
 />
    <glyph glyph-name="glyph2" horiz-adv-x="448" 
 />
    <glyph glyph-name="space" unicode=" " horiz-adv-x="460" 
 />
    <glyph glyph-name="exclam" unicode="!" horiz-adv-x="552" 
d="M20 114q0 72 56 132.5t130 60.5t107 -37.5t33 -109.5t-58 -131.5t-130 -59.5t-105 36.5t-33 108.5zM336 481h-156l66 596l67 316h273l-66 -316z" />
    <glyph glyph-name="quotedbl" unicode="&#x22;" horiz-adv-x="851" 
d="M733 829h-153l24 369l41 195h260l-41 -195zM377 829h-154l25 369l41 195h260l-41 -195z" />
    <glyph glyph-name="numbersign" unicode="#" horiz-adv-x="1366" 
d="M492 510h266l149 364h-264zM78 0l4 20l131 316h-168l27 174h213l151 364h-157l26 175h203l141 344h205l-4 -21l-135 -323h264l143 344h205l-4 -21l-135 -323h180l-27 -175h-223l-151 -364h168l-27 -174h-213l-139 -336h-203l4 20l129 316h-266l-137 -336h-205z" />
    <glyph glyph-name="dollar" unicode="$" 
d="M702 398q0 68 -55 122l-65 -309q120 55 120 187zM494 1014q0 -94 63 -146l68 322q-66 -25 -98.5 -75t-32.5 -101zM223 979q0 184 118 301t333 139l35 158h163l-34 -160q140 -20 249 -88l-102 -199q-87 52 -192 70l-91 -416l15 -6q109 -59 182.5 -148.5t73.5 -193.5
q0 -192 -120.5 -313t-322.5 -148l-49 -237h-164l50 235q-184 17 -330 131l102 197q111 -97 275 -115l90 428l-60 33q-104 57 -162.5 142t-58.5 190z" />
    <glyph glyph-name="percent" unicode="%" horiz-adv-x="1638" 
d="M131 0l4 20l1208 1373h222l-6 -21l-1207 -1372h-221zM791 1110q0 -72 -25 -157t-73 -151q-108 -147 -287 -147q-117 0 -178 77q-62 77 -62 182q0 210 94 342q105 149 283 149q66 0 112 -23q136 -66 136 -272zM520 1247q-68 0 -121 -82t-53 -217t88 -135q83 0 129 85
q45 85 45 217t-88 132zM1524 438q0 -72 -25 -156q-52 -178 -192 -257q-71 -41 -151 -41q-135 0 -196 77t-61 182q0 205 99 348q99 142 278 142q66 0 113 -22q135 -67 135 -273zM1132 492q-53 -83 -53 -217q1 -134 89 -134q83 0 128 85t45 217t-88 132q-68 0 -121 -83z" />
    <glyph glyph-name="ampersand" unicode="&#x26;" horiz-adv-x="1382" 
d="M864 1092q0 122 -104 122q-78 0 -124 -58t-46 -130t43 -145l14 -25l62 37q72 43 113.5 89t41.5 110zM317 318q0 -55 36 -97.5t107 -42.5q120 0 269 131l-184 287q-161 -94 -194.5 -158.5t-33.5 -119.5zM51 283q0 173 105 278t266 187l20 10q-33 55 -62.5 119.5
t-29.5 145.5q0 162 122.5 281t307.5 119q139 0 227.5 -90.5t88.5 -212.5q0 -188 -116 -270t-173 -117l-57 -35l151 -217q87 78 252 287l160 -137q-168 -209 -293 -324l201 -287l-4 -20h-283l-90 137q-217 -168 -436 -168q-163 0 -260 87.5t-97 226.5z" />
    <glyph glyph-name="quotesingle" unicode="'" horiz-adv-x="495" 
d="M377 829h-154l25 369l41 195h260l-41 -195z" />
    <glyph glyph-name="parenleft" unicode="(" horiz-adv-x="593" 
d="M270 113q0 -243 45 -508l-168 -43q-57 189 -73.5 355.5t-16.5 252.5q0 710 492 1296l129 -82q-66 -100 -137.5 -217.5t-132 -270.5t-99.5 -346.5t-39 -436.5z" />
    <glyph glyph-name="parenright" unicode=")" horiz-adv-x="593" 
d="M510 858q0 -716 -492 -1296l-129 82q66 100 237 382t171 896q0 236 -45 501l168 43q90 -298 90 -608z" />
    <glyph glyph-name="asterisk" unicode="*" horiz-adv-x="907" 
d="M453 946l-209 -137l-62 180l230 92v4l-189 93l131 163l152 -137l4 2l25 228h198l-76 -228l5 -2l208 137l62 -180l-230 -90v-4l189 -94l-131 -164l-154 139l-4 -2l-22 -231h-199l76 229z" />
    <glyph glyph-name="plus" unicode="+" 
d="M686 662h367l-45 -211h-367l-84 -398h-219l86 398h-365l45 211h363l84 395h219z" />
    <glyph glyph-name="comma" unicode="," horiz-adv-x="530" 
d="M-143 -309l247 585h250l-4 -20l-309 -586h-188z" />
    <glyph glyph-name="hyphen" unicode="-" horiz-adv-x="833" 
d="M106 451l46 211h567l-45 -211h-568z" />
    <glyph glyph-name="period" unicode="." horiz-adv-x="534" 
d="M200 307q142 -1 142 -149q0 -72 -59 -130.5t-133 -58.5t-108 37t-34 88q0 94 60 153.5t132 59.5z" />
    <glyph glyph-name="slash" unicode="/" horiz-adv-x="843" 
d="M-70 0l4 20l807 1373h222l-5 -21l-804 -1372h-224z" />
    <glyph glyph-name="zero" unicode="0" 
d="M1126 932q0 -472 -153.5 -661t-273 -245.5t-233.5 -56.5q-212 0 -314.5 130.5t-102.5 368.5q0 237 56.5 418t150.5 301t216 178t238 58q213 0 314.5 -130.5t101.5 -360.5zM311 465q0 -279 158 -279q171 0 284 175.5t113 566.5q0 278 -168 278q-156 0 -271.5 -176
t-115.5 -565z" />
    <glyph glyph-name="one" unicode="1" 
d="M313 1047l49 231l332 115h183l-252 -1182h276l-45 -211h-795l45 211h265l194 911h-4l-223 -75h-25z" />
    <glyph glyph-name="two" unicode="2" 
d="M387 211h526l-45 -211h-860l41 193l561 507q88 78 143.5 150t55.5 161t-40 142t-120 53t-147.5 -45t-134.5 -102l-123 166q138 129 257.5 163.5t192.5 34.5q178 0 280.5 -100t102.5 -263q0 -230 -126 -347t-163 -150l-401 -348v-4z" />
    <glyph glyph-name="three" unicode="3" 
d="M696 442q0 156 -198 156h-209l45 215h211q126 0 184.5 70t58.5 153t-37.5 126.5t-121.5 43.5q-141 0 -307 -76l-58 201q198 92 392 92t299.5 -88t105.5 -235t-84 -251t-186 -149v-4q161 -76 161 -274t-155 -325.5t-395 -127.5t-392 105l88 198q130 -86 312 -86
q114 0 200 71t86 185z" />
    <glyph glyph-name="four" unicode="4" 
d="M1004 940l-93 -428h140l-45 -211h-140l-63 -301h-256l63 301h-604l37 178l545 914h260l-512 -881h319l93 428h256z" />
    <glyph glyph-name="five" unicode="5" 
d="M512 649q-117 0 -274 -16l-29 37l219 723h678l-45 -211h-453l-92 -316q29 2 32 2h40q269 0 324 -127t55 -237t-44 -215t-166 -212.5t-397 -107.5q-110 0 -209.5 30t-142.5 48l82 211q152 -72 305 -72q154 0 228.5 83t74.5 214q0 166 -186 166z" />
    <glyph glyph-name="six" unicode="6" 
d="M768 525q0 81 -45 129t-123 48q-125 0 -200.5 -88t-75.5 -231q0 -90 43 -143.5t111 -53.5t118.5 25t88.5 70t60.5 104t22.5 140zM719 920q140 0 225.5 -102.5t85.5 -268.5q0 -241 -155.5 -410.5t-409.5 -169.5q-199 0 -303.5 113t-104.5 294t80 298t129 178l430 541h285
l-4 -21l-412 -491l2 -2q80 41 152 41z" />
    <glyph glyph-name="seven" unicode="7" 
d="M834 1182h-568l43 211h852l-41 -191l-723 -1202h-274l4 20l707 1158v4z" />
    <glyph glyph-name="eight" unicode="8" 
d="M479 967q0 -136 135 -136q109 0 163 67.5t54 170.5q0 137 -137 137q-108 0 -161.5 -67.5t-53.5 -171.5zM219 977q0 195 125.5 320.5t374.5 125.5q184 0 281.5 -86.5t97.5 -229.5t-70 -237.5t-178 -144.5v-4q72 -33 115 -106t43 -175q0 -208 -148 -339.5t-409 -131.5
q-204 0 -314 92.5t-110 243.5q0 152 88 268.5t221 167.5v4q-117 75 -117 232zM464 186q143 0 214.5 77.5t71.5 187.5q0 72 -43 118.5t-127 46.5q-145 0 -212 -75.5t-67 -190.5q0 -72 41 -118t122 -46z" />
    <glyph glyph-name="nine" unicode="9" 
d="M406 867q0 -80 45 -128.5t122 -48.5q125 0 201 88t76 232q0 90 -43 143t-111 53t-119 -24.5t-88.5 -69.5t-60 -105t-22.5 -140zM446 473q-132 0 -217.5 103t-85.5 268q0 241 156.5 410t409.5 169q200 0 303.5 -113t103.5 -298t-82 -295.5t-129 -171.5l-428 -545h-284
l4 20l409 494l-2 2q-27 -14 -61.5 -28.5t-96.5 -14.5z" />
    <glyph glyph-name="colon" unicode=":" horiz-adv-x="585" 
d="M182 805q0 95 59 153t132 59t108 -37t35 -110t-59 -132q-59 -58 -133 -58t-108 37t-34 88zM224 307q144 -1 143 -149q1 -72 -59 -130t-134 -58t-107 36q-34 37 -34 88q0 95 59 154q60 59 132 59z" />
    <glyph glyph-name="semicolon" unicode=";" horiz-adv-x="589" 
d="M-131 -309l248 585h250l-5 -20l-309 -586h-188zM199 805q0 143 123 196q36 17 88 17t88 -38t34 -110q0 -72 -59 -132q-59 -58 -133 -58t-108 37q-33 37 -33 88z" />
    <glyph glyph-name="less" unicode="&#x3c;" 
d="M864 -8l-831 461l43 202l1028 461h16l-47 -231l-801 -336v-6l658 -336l-47 -215h-19z" />
    <glyph glyph-name="equal" unicode="=" 
d="M1006 430l-45 -211h-949l45 211h949zM111 682l45 211h948l-45 -211h-948z" />
    <glyph glyph-name="greater" unicode="&#x3e;" 
d="M-6 -8l47 231l801 336v6l-656 336l47 215h19l829 -461l-43 -202l-1026 -461h-18z" />
    <glyph glyph-name="question" unicode="?" horiz-adv-x="960" 
d="M195 92q0 95 56 155t128 60q73 0 106 -37t33 -88q0 -95 -57 -154t-129 -59t-104.5 36t-32.5 87zM698 1063q0 53 -30.5 96t-103.5 43t-135 -36t-130 -87l-104 178q122 108 238 137t177 29q176 0 274.5 -88t98.5 -233q0 -188 -118.5 -300.5t-278.5 -191.5l-54 -129h-204
l45 267q143 51 234 124.5t91 190.5z" />
    <glyph glyph-name="at" unicode="@" horiz-adv-x="1886" 
d="M705 451q0 -134 112 -134q41 0 92.5 18.5t87.5 47.5l154 416q-49 45 -125 45q-135 0 -228 -129.5t-93 -263.5zM798 -287q-351 0 -536.5 175.5t-185.5 490.5q0 213 81 409.5t225 347t343 239.5t434 89q310 0 481.5 -178t171.5 -446q0 -174 -51 -312.5t-131 -233.5
t-179 -145.5t-194 -50.5q-189 0 -233 131h-4q-61 -41 -127 -73.5t-152 -32.5q-125 0 -196.5 81.5t-71.5 193.5t40 222.5t110.5 202.5t167 152.5t220.5 60.5t214 -96h2l61 72h160l-213 -545q-76 -201 53 -201q55 0 115.5 38t144.5 156.5t84 370.5q0 325 -179 397t-339 72
t-322.5 -74.5t-279.5 -198.5t-182.5 -286.5t-65.5 -341.5q0 -244 132 -384t397 -140q124 0 333 53l39 -147q-181 -68 -367 -68z" />
    <glyph glyph-name="A" unicode="A" horiz-adv-x="1243" 
d="M752 1167l-170 -374l-142 -285h348l-22 285l-8 374h-6zM1100 0h-266l-17 305h-487l-150 -305h-280l743 1393h301z" />
    <glyph glyph-name="B" unicode="B" horiz-adv-x="1236" 
d="M664 811q143 0 197 54t54 184q0 72 -42 102.5t-136 30.5h-180l-80 -371h187zM1104 455q0 -218 -123.5 -336.5t-400.5 -118.5h-531l297 1393h430q199 0 305.5 -74t106.5 -221q0 -213 -103.5 -289t-146.5 -94v-4q166 -68 166 -256zM582 211q211 0 237.5 100.5t26.5 164.5
q0 138 -195 138h-215l-86 -403h232z" />
    <glyph glyph-name="C" unicode="C" horiz-adv-x="1148" 
d="M608 -31q-235 0 -363 150t-128 397q0 188 53 354t208 359.5t499 193.5q181 0 331 -90l-88 -194q-112 67 -268 67q-96 0 -181 -53t-185.5 -195.5t-100.5 -408.5q0 -160 64.5 -261.5t185.5 -101.5q155 0 297 68l47 -195q-188 -90 -371 -90z" />
    <glyph glyph-name="D" unicode="D" horiz-adv-x="1316" 
d="M457 211q522 0 522 670q0 150 -70.5 225.5t-244.5 75.5h-107l-207 -971h107zM1243 899q0 -899 -786 -899h-408l297 1393h367q530 0 530 -494z" />
    <glyph glyph-name="E" unicode="E" horiz-adv-x="1116" 
d="M1171 1393l-45 -211h-569l-80 -371h510l-45 -211h-510l-82 -389h576l-43 -211h-834l297 1393h825z" />
    <glyph glyph-name="F" unicode="F" horiz-adv-x="1087" 
d="M1171 1393l-45 -211h-569l-90 -416h512l-45 -211h-510l-119 -555h-256l297 1393h825z" />
    <glyph glyph-name="G" unicode="G" horiz-adv-x="1292" 
d="M896 1206q-153 0 -247 -59.5t-183 -202t-89 -422.5q0 -147 59.5 -241.5t185.5 -94.5t218 43l61 293l-209 37l37 174h473l-135 -651q-226 -113 -466 -113t-363 152.5t-123 396.5q0 172 50 335t148.5 290t245 203.5t348.5 76.5t385 -104l-92 -197q-151 84 -304 84z" />
    <glyph glyph-name="H" unicode="H" horiz-adv-x="1366" 
d="M942 600h-510l-127 -600h-256l297 1393h256l-125 -582h510l123 582h256l-295 -1393h-256z" />
    <glyph glyph-name="I" unicode="I" horiz-adv-x="600" 
d="M305 0h-256l297 1393h256z" />
    <glyph glyph-name="J" unicode="J" horiz-adv-x="919" 
d="M276 186q78 0 124 64.5t69 175.5l205 967h256l-213 -1004q-92 -420 -477 -420q-106 0 -185.5 45t-122.5 101l154 178q33 -41 72.5 -74t117.5 -33z" />
    <glyph glyph-name="K" unicode="K" horiz-adv-x="1206" 
d="M438 627l-133 -627h-256l297 1393h256l-145 -676h4l569 676h301l-4 -21l-629 -715l365 -637l-4 -20h-283l-334 627h-4z" />
    <glyph glyph-name="L" unicode="L" horiz-adv-x="1005" 
d="M602 1393l-250 -1172h527l-48 -221h-782l297 1393h256z" />
    <glyph glyph-name="M" unicode="M" horiz-adv-x="1624" 
d="M801 565l168 275l397 553h258l-295 -1393h-256l146 690l94 307h-2l-437 -647h-225l-160 647h-2l-34 -305l-148 -692h-256l297 1393h238l159 -553l54 -275h4z" />
    <glyph glyph-name="N" unicode="N" horiz-adv-x="1394" 
d="M952 342l21 270l166 781h256l-295 -1393h-262l-340 1049h-6l-21 -271l-166 -778h-256l297 1393h262l338 -1051h6z" />
    <glyph glyph-name="O" unicode="O" horiz-adv-x="1425" 
d="M1358 852q0 -142 -47 -306.5t-141.5 -292.5t-235.5 -206t-330 -78q-243 0 -365 151.5t-122 391.5q0 172 47 336t141 292t235.5 205.5t331.5 77.5q243 0 364.5 -151.5t121.5 -419.5zM381 546q0 -359 248 -360q127 0 215 66.5t168 214t80 392.5t-89.5 296t-156.5 51
q-125 0 -213 -65.5t-144.5 -164.5t-82 -218.5t-25.5 -211.5z" />
    <glyph glyph-name="P" unicode="P" horiz-adv-x="1136" 
d="M629 694q104 0 177 90.5t73 216.5q0 78 -37 129.5t-109 51.5h-176l-104 -488h176zM778 1393q177 0 273 -98t96 -259q0 -237 -138 -395t-384 -158h-217l-103 -483h-256l297 1393h432z" />
    <glyph glyph-name="Q" unicode="Q" horiz-adv-x="1425" 
d="M381 546q0 -359 248 -360q127 0 215 66.5t168 214t80 392.5t-89.5 296t-156.5 51q-125 0 -213 -65.5t-144.5 -164.5t-82 -218.5t-25.5 -211.5zM604 -31q-243 0 -365 151.5t-122 391.5q0 172 47 336t141 292t235.5 205.5t331.5 77.5q243 0 364.5 -151.5t121.5 -390.5
q0 -391 -140.5 -569.5t-232.5 -239.5l281 -170l-144 -203l-432 274q-46 -4 -86 -4z" />
    <glyph glyph-name="R" unicode="R" horiz-adv-x="1251" 
d="M721 772q104 0 166.5 73t62.5 187q0 66 -34.5 108t-106.5 42h-252l-88 -410h252zM846 1393q182 0 277.5 -86t95.5 -251t-88.5 -297t-276.5 -179l217 -547l-8 -33h-258l-203 561h-178l-119 -561h-256l297 1393h500z" />
    <glyph glyph-name="S" unicode="S" horiz-adv-x="1060" 
d="M111 301q135 -115 323 -115q104 0 172 56.5t68 159.5t-135 178l-123 67q-104 57 -162.5 142t-58.5 187q0 205 142.5 326t393.5 121q172 0 328 -94l-103 -199q-128 76 -249 76t-181.5 -58t-60.5 -152t94 -146l129 -72q109 -59 182.5 -148.5t73.5 -197.5
q0 -210 -152.5 -336.5t-379.5 -126.5t-404 135z" />
    <glyph glyph-name="T" unicode="T" horiz-adv-x="1056" 
d="M1176 1393l-46 -211h-346l-252 -1182h-256l252 1182h-346l45 211h949z" />
    <glyph glyph-name="U" unicode="U" horiz-adv-x="1341" 
d="M587 186q253 0 331 367l178 840h258l-183 -865q-61 -280 -203.5 -419.5t-407.5 -139.5t-365.5 153.5t-36.5 452.5l174 818h256l-178 -840q-73 -367 177 -367z" />
    <glyph glyph-name="V" unicode="V" horiz-adv-x="1232" 
d="M1374 1372l-725 -1372h-313l-139 1372l4 21h262l55 -795l10 -377h7l172 379l385 793h286z" />
    <glyph glyph-name="W" unicode="W" horiz-adv-x="1857" 
d="M1980 1372l-622 -1372h-305l-13 819l17 340h-4l-131 -340l-361 -819h-307l-39 1372l4 21h266l-16 -809l-12 -346h4l131 346l352 809h301l6 -809l-14 -346h4l133 346l328 809h283z" />
    <glyph glyph-name="X" unicode="X" horiz-adv-x="1163" 
d="M492 1393l137 -547h4l368 547h281l-4 -21l-492 -674l205 -678l-4 -20h-262l-135 547h-4l-371 -547h-283l5 20l491 678l-205 674l6 21h263z" />
    <glyph glyph-name="Y" unicode="Y" horiz-adv-x="1120" 
d="M446 1393l148 -598h4l401 598h285l-4 -21l-594 -807l-119 -565h-256l119 565l-252 807l4 21h264z" />
    <glyph glyph-name="Z" unicode="Z" horiz-adv-x="1095" 
d="M313 211h607l-46 -211h-913l41 195l813 983v4h-565l45 211h874l-41 -195l-815 -983v-4z" />
    <glyph glyph-name="bracketleft" unicode="[" horiz-adv-x="634" 
d="M745 1434l-28 -129l-217 -48l-318 -1486l199 -47l-27 -130h-420l392 1840h419z" />
    <glyph glyph-name="backslash" unicode="\" horiz-adv-x="817" 
d="M442 0l-223 1372l4 21h205l221 -1373l-4 -20h-203z" />
    <glyph glyph-name="bracketright" unicode="]" horiz-adv-x="638" 
d="M678 1434l-391 -1840h-422l29 134l219 47l315 1478l-201 47l29 134h422z" />
    <glyph glyph-name="asciicircum" unicode="^" horiz-adv-x="940" 
d="M1071 762h-240l-106 428h-6l-291 -428h-260l4 20l471 652h238l196 -652z" />
    <glyph glyph-name="underscore" unicode="_" horiz-adv-x="942" 
d="M-45 -219l37 174h696l-37 -174h-696z" />
    <glyph glyph-name="grave" unicode="`" horiz-adv-x="1062" 
d="M643 1460h254l84 -278l-4 -21h-209l-129 281z" />
    <glyph glyph-name="a" unicode="a" horiz-adv-x="1134" 
d="M326 391q0 -215 141 -215q69 0 174 74l109 504q-58 57 -138 57q-141 0 -213.5 -127t-72.5 -293zM368 -31q-153 0 -229 110.5t-76 258.5q0 147 33 265t94.5 210t150.5 148.5t193 56.5t166 -40t103 -79h4l51 88h191l-166 -772q-4 -23 -1 -30t25 -7h72l-41 -188
q-87 -15 -145 -15q-148 0 -156 113h-4q-59 -49 -120 -84t-145 -35z" />
    <glyph glyph-name="b" unicode="b" horiz-adv-x="1122" 
d="M707 1018q153 0 235 -111t82 -259q0 -284 -138.5 -481.5t-355.5 -197.5q-96 0 -163.5 40t-104.5 79h-4l-53 -88h-187l306 1434h251l-112 -519h4q45 43 100.5 73t139.5 30zM460 176q146 0 223 128.5t77 291.5q0 92 -36 153.5t-115 61.5t-183 -74l-107 -504q57 -57 141 -57
z" />
    <glyph glyph-name="c" unicode="c" horiz-adv-x="917" 
d="M63 379q0 276 160.5 457.5t419.5 181.5q145 0 256 -62l-72 -188q-108 43 -175 43q-139 0 -232.5 -111.5t-93.5 -291.5q0 -113 50 -172.5t130 -59.5t205 43l28 -188q-140 -62 -257 -62q-210 0 -314.5 113t-104.5 297z" />
    <glyph glyph-name="d" unicode="d" horiz-adv-x="1124" 
d="M628 811q-86 0 -139 -38t-108 -126.5t-55 -255.5q0 -92 36.5 -153.5t115.5 -61.5t184 74l108 504q-56 57 -142 57zM383 -31q-159 0 -239.5 112t-80.5 259q0 283 138.5 480.5t353.5 197.5q90 0 151.5 -34t94.5 -69h2l110 519h252l-305 -1434h-186l-17 88h-4
q-49 -43 -115.5 -81t-154.5 -38z" />
    <glyph glyph-name="e" unicode="e" horiz-adv-x="1038" 
d="M729 682q0 64 -30.5 109t-92.5 45q-100 0 -165.5 -75t-90.5 -175h363q16 32 16 96zM491 170q108 0 275 74l43 -187q-186 -88 -369 -88t-281 115.5t-98 294.5q0 256 155 447.5t390 191.5q172 0 261 -96t89 -238t-61 -262h-586q-16 -111 29 -181.5t153 -70.5z" />
    <glyph glyph-name="f" unicode="f" horiz-adv-x="727" 
d="M688 1253q-49 0 -74.5 -30.5t-42.5 -100.5l-28 -135h215l-43 -196h-215l-168 -791h-252l168 791h-152l29 139l164 57l35 158q35 160 123 229.5t210 69.5t183 -19l-41 -188q-62 16 -111 16z" />
    <glyph glyph-name="g" unicode="g" horiz-adv-x="1122" 
d="M618 82q-108 -98 -239 -98q-155 0 -235.5 107t-80.5 253t34 263.5t97.5 208.5t154.5 146.5t204 55.5q149 0 270 -121h4l52 90h188l-205 -964q-47 -217 -180 -338t-334 -121t-342 92l92 178q121 -80 241 -80t180.5 64.5t86.5 187.5l17 76h-5zM624 811q-148 0 -222 -125.5
t-74 -288.5q0 -92 35.5 -149.5t117.5 -57.5t181 70l104 494q-56 57 -142 57z" />
    <glyph glyph-name="h" unicode="h" horiz-adv-x="1110" 
d="M628 811q-72 0 -120.5 -31.5t-83.5 -66.5l-154 -713h-252l306 1434h251l-112 -527h4q45 37 109.5 74t150.5 37q166 0 233.5 -103.5t26.5 -296.5l-133 -618h-252l129 604q23 98 -4 152.5t-99 54.5z" />
    <glyph glyph-name="i" unicode="i" horiz-adv-x="536" 
d="M395 1167q-119 -1 -119 123q0 62 51 111t119 49q130 0 129 -113q0 -72 -51 -121t-129 -49zM20 0l209 987h252l-209 -987h-252z" />
    <glyph glyph-name="j" unicode="j" horiz-adv-x="538" 
d="M406 1167q-130 -1 -130 123q0 62 50 111t118 49q130 0 131 -124q0 -63 -51.5 -111t-117.5 -48zM-221 -231q57 -15 100 -15q87 0 119 144l231 1089h254l-231 -1087q-71 -336 -373 -336q-73 0 -141 14z" />
    <glyph glyph-name="k" unicode="k" horiz-adv-x="1015" 
d="M369 459l-99 -459h-252l306 1434h251l-190 -891h4l379 444h289l-4 -18l-430 -486l243 -463l-4 -20h-270l-219 459h-4z" />
    <glyph glyph-name="l" unicode="l" horiz-adv-x="534" 
d="M18 0l306 1434h251l-305 -1434h-252z" />
    <glyph glyph-name="m" unicode="m" horiz-adv-x="1705" 
d="M1208 811q-96 0 -200 -104q0 -29 -13 -86l-133 -621h-254l129 604q47 207 -97 207q-128 0 -216 -98l-152 -713h-252l209 987h205l12 -94h5q23 18 87.5 71.5t194.5 53.5q193 0 250 -148h4q148 148 326 148t243.5 -103.5t24.5 -296.5l-131 -618h-252l129 604
q23 100 0 153.5t-119 53.5z" />
    <glyph glyph-name="n" unicode="n" horiz-adv-x="1112" 
d="M731 1018q162 0 229.5 -103.5t26.5 -300.5l-131 -614h-252l129 604q48 207 -108 207q-109 0 -201 -98l-152 -713h-252l209 987h205l12 -94h5q65 57 129.5 91t150.5 34z" />
    <glyph glyph-name="o" unicode="o" horiz-adv-x="1120" 
d="M1022 588q0 -106 -39 -222t-156.5 -256.5t-375.5 -140.5q-184 0 -286 116.5t-102 295.5q0 267 159.5 452t410.5 185q188 0 288.5 -115t100.5 -315zM324 384q0 -93 37.5 -150.5t107.5 -57.5q131 0 211 121t80 299q0 100 -38 157.5t-109 57.5t-123 -34t-88.5 -90t-57 -133
t-20.5 -170z" />
    <glyph glyph-name="p" unicode="p" horiz-adv-x="1122" 
d="M460 176q146 0 223 128.5t77 291.5q0 92 -36 153.5t-115 61.5t-183 -74l-107 -504q57 -57 141 -57zM436 899q119 119 273 119t234.5 -112t80.5 -259q0 -280 -139.5 -479t-352.5 -199q-144 0 -241 103h-4l-103 -478h-252l297 1393h185l18 -88h4z" />
    <glyph glyph-name="q" unicode="q" horiz-adv-x="1122" 
d="M626 811q-86 0 -139 -38t-108 -126.5t-55 -255.5q0 -92 36.5 -153.5t115.5 -61.5t183 74l109 504q-56 57 -142 57zM551 1018q145 0 270 -119h4l54 88h188l-297 -1393h-252l103 478h-5q-45 -43 -99 -73t-139 -30q-155 0 -236 110t-81 258q0 282 137.5 481.5t352.5 199.5z
" />
    <glyph glyph-name="r" unicode="r" horiz-adv-x="720" 
d="M614 803q-57 0 -110 -37t-82 -74l-150 -692h-252l209 987h207l10 -117h5q50 69 100.5 108.5t126.5 39.5q33 0 84 -12l-45 -211q-46 8 -103 8z" />
    <glyph glyph-name="s" unicode="s" horiz-adv-x="897" 
d="M506 281q0 68 -96 106l-109 47q-120 48 -152 123.5t-32 124.5q0 162 106.5 249t293.5 87t331 -72l-84 -182q-112 57 -242 57q-154 0 -153 -108q0 -66 88 -103l108 -47q78 -35 135.5 -96t57.5 -154q0 -174 -111.5 -259t-314.5 -85t-342 94l92 185q126 -82 264 -82
q160 0 160 115z" />
    <glyph glyph-name="t" unicode="t" horiz-adv-x="763" 
d="M475 176q67 0 152 29l-43 -203q-115 -33 -199 -33q-313 0 -246 299l111 523h-158l29 139l170 57l49 230h252l-49 -230h243l-43 -196h-241l-107 -502q-25 -113 80 -113z" />
    <glyph glyph-name="u" unicode="u" horiz-adv-x="1099" 
d="M612 94q-139 -125 -272 -125q-166 0 -229.5 103.5t-22.5 300.5l131 614h252l-129 -604q-48 -207 100 -207q63 0 112.5 32t84.5 62l154 717h251l-208 -987h-207l-15 94h-2z" />
    <glyph glyph-name="v" unicode="v" horiz-adv-x="1019" 
d="M1059 967l-537 -967h-276l-127 967l4 20h237l50 -571l6 -207h4l94 207l291 571h258z" />
    <glyph glyph-name="w" unicode="w" horiz-adv-x="1560" 
d="M1589 967l-463 -967h-276l-35 584l8 202h-4l-80 -202l-282 -584h-275l-51 967l4 20h232l8 -581l-15 -199h5l81 199l271 581h274l25 -581l-2 -199h4l69 199l252 581h254z" />
    <glyph glyph-name="x" unicode="x" horiz-adv-x="1013" 
d="M471 360l-262 -360h-279l4 20l381 474l-180 473l4 20h256l109 -362h4l262 362h279l-7 -20l-378 -473l178 -474l-4 -20h-250l-113 360h-4z" />
    <glyph glyph-name="y" unicode="y" horiz-adv-x="1001" 
d="M38 -246q46 0 84 34t79 108l63 114l-147 957l4 20h246l45 -545l4 -204h6l90 204l268 545h269l-5 -20l-634 -1135q-149 -268 -371 -268q-94 0 -178 24l39 185q92 -19 138 -19z" />
    <glyph glyph-name="z" unicode="z" horiz-adv-x="892" 
d="M305 190h414l-41 -190h-721l29 139l553 654v4h-385l41 190h694l-31 -139l-553 -653v-5z" />
    <glyph glyph-name="braceleft" unicode="{" horiz-adv-x="708" 
d="M725 1434h88l-31 -144q-196 0 -241 -217l-64 -307q-25 -117 -72 -179.5t-139 -80.5v-4q82 -18 103.5 -81t-2.5 -179l-64 -287q-23 -104 11 -160.5t139 -56.5l-31 -144h-47q-287 0 -291 153t16 251l56 262q16 80 -20 120t-107 40l41 188q72 0 125 40t69 120l68 322
q36 169 119.5 256.5t273.5 87.5z" />
    <glyph glyph-name="bar" unicode="|" horiz-adv-x="450" 
d="M98 -406h-164l392 1840h163z" />
    <glyph glyph-name="braceright" unicode="}" horiz-adv-x="708" 
d="M-43 -406h-88l31 144q196 0 241 217l64 307q25 117 72 179.5t139 80.5v4q-82 18 -103.5 81t2.5 179l64 287q23 104 -11 160.5t-139 56.5l31 144h47q287 0 291 -153t-16 -251l-56 -262q-16 -80 20 -120t107 -40l-41 -188q-72 0 -125 -40t-69 -120l-68 -321
q-35 -170 -120.5 -257.5t-272.5 -87.5z" />
    <glyph glyph-name="asciitilde" unicode="~" horiz-adv-x="1071" 
d="M162 446l-64 146q49 57 119.5 102t138.5 45t116 -23.5t93 -53t93 -53t108 -23.5t133 82l64 -146q-123 -137 -254 -137q-80 0 -198 77t-168 77q-102 0 -181 -93z" />
    <glyph glyph-name="uni00A0" unicode="&#xa0;" horiz-adv-x="460" 
 />
    <glyph glyph-name="exclamdown" unicode="&#xa1;" horiz-adv-x="536" 
d="M302 680q-140 0 -140 146q0 72 57 132t129 60t106.5 -36t34.5 -87q0 -96 -57.5 -155.5t-129.5 -59.5zM174 506h156l-68 -596l-67 -316h-273l68 316z" />
    <glyph glyph-name="cent" unicode="&#xa2;" 
d="M426 406q0 -145 82 -199l123 577q-88 -41 -146.5 -137t-58.5 -241zM164 366q0 272 141 447t375 201l37 170h162l-37 -174q92 -14 157 -54l-71 -188q-87 32 -129 39l-133 -627q44 6 145 39l29 -188q-94 -41 -219 -58l-35 -170h-162l37 177q-147 29 -222 137.5t-75 248.5z
" />
    <glyph glyph-name="sterling" unicode="&#xa3;" 
d="M379 211h543l-45 -211h-838l39 184q148 80 168 210t26 192h-149l41 194h129q24 287 140 465t392 178q191 0 338 -90l-88 -198q-131 71 -265 71t-189 -106.5t-68 -319.5h309l-41 -194h-280q-13 -214 -162 -371v-4z" />
    <glyph glyph-name="currency" unicode="&#xa4;" horiz-adv-x="1103" 
d="M408 492q0 -60 25.5 -95t68.5 -35q76 0 128 69t52 179q0 63 -25.5 98t-66.5 35t-73 -17t-56.5 -50t-38.5 -78.5t-14 -105.5zM893 631q0 -150 -86 -273l127 -188l-152 -133l-133 182q-92 -45 -174 -45t-156 43l-202 -182l-115 153l205 185q-12 54 -12 96q0 151 90 289
l-125 186l155 131l127 -180q80 37 168 37t156 -47l213 188l113 -151l-211 -193q12 -40 12 -98z" />
    <glyph glyph-name="yen" unicode="&#xa5;" 
d="M1024 604h-328l-34 -158h329l-41 -194h-329l-54 -252h-256l54 252h-338l41 194h338l34 158h-338l41 195h238l-164 573l4 21h266l119 -557h4l351 557h282l-6 -21l-403 -573h233z" />
    <glyph glyph-name="brokenbar" unicode="&#xa6;" horiz-adv-x="477" 
d="M193 754l145 680h164l-144 -680h-165zM256 274l-145 -680h-164l145 680h164z" />
    <glyph glyph-name="section" unicode="&#xa7;" horiz-adv-x="1091" 
d="M762 252q108 -70 108 -232q0 -78 -37.5 -153.5t-143.5 -155.5t-329 -80t-413 107l108 221q180 -113 326 -113q102 0 160.5 44t58.5 110q0 92 -111 139l-194 86q-191 87 -191 252q0 195 218 305v4q-107 89 -107 228q0 178 134 293.5t361 115.5t367 -75l-98 -211
q-134 71 -259 71t-180 -48.5t-55 -112.5q0 -92 97 -132l161 -67q125 -53 181.5 -119.5t56.5 -157.5q0 -165 -219 -313v-6zM371 549q0 -41 18.5 -69.5t65.5 -51.5l178 -84q41 29 60.5 72t19.5 80q0 84 -78 120l-182 84q-35 -23 -58.5 -66.5t-23.5 -84.5z" />
    <glyph glyph-name="dieresis" unicode="&#xa8;" horiz-adv-x="1062" 
d="M591 1169q-130 -1 -130 123q0 62 50.5 111t118.5 49q130 0 130 -113q0 -72 -51.5 -121t-117.5 -49zM1028 1452q131 0 131 -123q0 -62 -51 -111t-129 -49q-119 -1 -119 123q0 62 50.5 111t117.5 49z" />
    <glyph glyph-name="copyright" unicode="&#xa9;" horiz-adv-x="1650" 
d="M819 297q-179 0 -267.5 86.5t-88.5 230.5q0 213 124 347.5t341 134.5q117 0 217 -49l-60 -148q-77 41 -149 41q-122 0 -199.5 -86.5t-77.5 -216.5q0 -84 41 -134t122 -50t177 41l37 -148q-115 -49 -217 -49zM268 608q0 -228 129.5 -363.5t341.5 -135.5q141 0 267.5 56
t221.5 151.5t150.5 222.5t55.5 249q0 229 -127 362.5t-332 133.5q-141 0 -269 -55t-225.5 -149.5t-155 -222t-57.5 -249.5zM121 596q0 152 71.5 307.5t191.5 271t276 182t308 66.5q284 0 448.5 -173t164.5 -429q0 -178 -71.5 -332.5t-191.5 -270.5t-276 -182.5t-308 -66.5
t-262 46t-187.5 128t-120.5 191.5t-43 261.5z" />
    <glyph glyph-name="ordfeminine" unicode="&#xaa;" horiz-adv-x="727" 
d="M76 412l33 157h512l-33 -157h-512zM327 698q-87 0 -129 48.5t-42 111.5q0 240 297 240h102l4 22q8 39 -6 63.5t-85 24.5t-181 -41l-19 142q139 49 258 49t175.5 -70.5t29.5 -193.5l-80 -377h-131l-18 55h-2q-86 -74 -173 -74zM446 983q-47 0 -75.5 -23.5t-28.5 -64.5
q0 -49 47 -49q64 0 119 39l20 98h-82z" />
    <glyph glyph-name="guillemotleft" unicode="&#xab;" horiz-adv-x="1075" 
d="M76 565l391 449l145 -111l-258 -362l107 -361l-180 -88l-211 449zM512 565l391 449l146 -111l-258 -362l106 -361l-180 -88l-211 449z" />
    <glyph glyph-name="logicalnot" unicode="&#xac;" 
d="M831 451h-778l45 211h949l-99 -459h-168z" />
    <glyph glyph-name="uni00AD" unicode="&#xad;" horiz-adv-x="833" 
d="M106 451l46 211h567l-45 -211h-568z" />
    <glyph glyph-name="registered" unicode="&#xae;" horiz-adv-x="1105" 
d="M764 1245q0 39 -49 39h-82l-23 -98h84q35 0 52.5 18.5t17.5 40.5zM739 1378q72 0 106 -32.5t34 -87.5t-35 -96.5t-96 -57.5l83 -162l-2 -10h-114l-76 164h-47l-35 -164h-111l95 446h198zM317 1094q0 -139 80.5 -222.5t208.5 -83.5q171 0 296.5 127.5t125.5 303.5
q0 124 -75.5 207t-202.5 83q-171 0 -267 -93t-131 -170.5t-35 -151.5zM205 1092q0 98 46 197.5t169 214t340 114.5q169 0 276 -113.5t107 -279.5q0 -228 -169 -385.5t-388 -157.5q-171 0 -276 112.5t-105 297.5z" />
    <glyph glyph-name="macron" unicode="&#xaf;" horiz-adv-x="1064" 
d="M522 1186l45 211h527l-45 -211h-527z" />
    <glyph glyph-name="degree" unicode="&#xb0;" horiz-adv-x="876" 
d="M190 1026q0 179 125 288t273 109t228.5 -77.5t80.5 -187.5q0 -196 -126 -306.5t-272 -110.5q-147 0 -228 78t-81 207zM385 1040q0 -52 35 -88.5t82 -36.5q89 0 146 59t57 131t-34 110t-80 38t-82 -15t-63.5 -43t-44 -65.5t-16.5 -89.5z" />
    <glyph glyph-name="plusminus" unicode="&#xb1;" 
d="M961 211l-46 -211h-948l45 211h949zM727 887h377l-45 -211h-377l-61 -295h-199l63 295h-374l45 211h374l84 395h197z" />
    <glyph glyph-name="uni00B2" unicode="&#xb2;" horiz-adv-x="641" 
d="M752 1452q0 -132 -95 -212q-31 -28 -67 -54l-152 -113v-4h244l-33 -151h-512l29 137l336 250q66 47 65 114q0 29 -17 51t-58 23q-41 0 -78 -26t-76 -58l-94 119q120 120 276 123q98 1 165 -53t67 -146z" />
    <glyph glyph-name="uni00B3" unicode="&#xb3;" horiz-adv-x="628" 
d="M360 1061q86 1 116 23t30 69t-88 47h-131l30 152h129q103 0 103 86q0 55 -88 55t-168 -35l-39 146q118 45 235 46t183 -47t65 -130q0 -120 -95 -173q-26 -14 -50 -20v-2q92 -36 92 -139q0 -104 -77 -171t-225 -67t-241 55l56 150q78 -45 163 -45z" />
    <glyph glyph-name="acute" unicode="&#xb4;" horiz-adv-x="1062" 
d="M1044 1442l-247 -281h-226l4 21l203 278h271z" />
    <glyph glyph-name="mu" unicode="&#xb5;" horiz-adv-x="1110" 
d="M342 -31q-43 0 -88 17l-14 -131l-56 -261h-252l297 1393h250l-129 -625q-37 -186 103 -186q61 0 110 31t86 61l154 719h252l-209 -987h-207l-14 94h-2q-45 -43 -114 -84t-167 -41z" />
    <glyph glyph-name="paragraph" unicode="&#xb6;" horiz-adv-x="1114" 
d="M150 945q0 213 129 330.5t299 117.5h645l-33 -154h-172l-350 -1645h-160l350 1645h-151l-351 -1645h-161l229 1078q-121 0 -197.5 77.5t-76.5 195.5z" />
    <glyph glyph-name="periodcentered" unicode="&#xb7;" horiz-adv-x="548" 
d="M109 545q0 142 122 196q37 17 89 17t88 -38t34 -110q0 -72 -59 -132q-59 -58 -133 -58t-108 37q-33 37 -33 88z" />
    <glyph glyph-name="cedilla" unicode="&#xb8;" horiz-adv-x="1064" 
d="M659 -210q0 -97 -62 -161.5t-185 -64.5q-76 0 -129 24l41 129q39 -16 73 -16q74 0 74 61q0 33 -31.5 39t-62.5 6l-4 13l108 194h148l-66 -106q96 -21 96 -118z" />
    <glyph glyph-name="uni00B9" unicode="&#xb9;" horiz-adv-x="495" 
d="M203 1360l35 166l270 110h131l-154 -718h-174l113 524h-2l-205 -82h-14z" />
    <glyph glyph-name="ordmasculine" unicode="&#xba;" horiz-adv-x="741" 
d="M72 412l32 157h514l-32 -157h-514zM776 1078q0 -66 -26.5 -137t-103 -157t-240.5 -86q-122 0 -191.5 78t-69.5 175q0 179 105.5 293t265.5 114q124 0 192 -77t68 -203zM540 910q50 54 50 172t-102 118q-51 0 -104.5 -55t-53.5 -172t108 -117q52 0 102 54z" />
    <glyph glyph-name="guillemotright" unicode="&#xbb;" horiz-adv-x="1077" 
d="M555 541l-391 -449l-146 111l258 362l-106 361l180 88l211 -449zM991 541l-391 -449l-145 111l258 362l-107 361l180 88l211 -449z" />
    <glyph glyph-name="onequarter" unicode="&#xbc;" horiz-adv-x="1458" 
d="M39 0l4 20l1208 1373h222l-7 -21l-1206 -1372h-221zM186 1114l35 166l271 111h131l-154 -719h-174l113 524h-2l-205 -82h-15zM1288 487l-39 -182h76l-33 -153h-75l-33 -152h-172l32 152h-323l29 139l254 428h182l-236 -412l-2 -2h129l37 182h174z" />
    <glyph glyph-name="onehalf" unicode="&#xbd;" horiz-adv-x="1513" 
d="M41 0l4 20l1208 1373h222l-7 -21l-1206 -1372h-221zM186 1110l35 166l271 110h131l-154 -718h-174l113 524h-2l-205 -82h-15zM1169 733q98 0 165 -53t67 -145q0 -130 -94 -212q-31 -28 -68 -55l-152 -112v-4h244l-33 -152h-512l29 137l336 250q66 47 66 115q1 30 -17 52
t-59 22t-78 -26t-76 -58l-94 118q123 123 276 123z" />
    <glyph glyph-name="threequarters" unicode="&#xbe;" horiz-adv-x="1579" 
d="M123 0l4 20l1208 1373h221l-6 -21l-1206 -1372h-221zM1413 487l-39 -182h76l-33 -153h-76l-32 -152h-172l32 152h-323l28 139l254 428h183l-236 -412l-2 -2h129l37 182h174zM339 809q85 1 116 23t30 69q0 47 -88 47h-131l31 152h129q104 0 102 86q0 55 -88 55t-168 -35
l-39 146q118 45 236 46q117 1 183 -47t65 -129q0 -81 -43 -129t-103 -65v-2q93 -36 93 -140q0 -103 -77 -170t-226 -67t-240 56l55 149q78 -45 163 -45z" />
    <glyph glyph-name="questiondown" unicode="&#xbf;" horiz-adv-x="952" 
d="M723 895q0 -94 -56.5 -154.5t-128.5 -60.5q-73 0 -106 37t-33 88q0 93 58 153t129 60t104 -36t33 -87zM219 -76q0 -53 31.5 -96t103.5 -43t134.5 36t129.5 87l105 -178q-122 -107 -238 -136.5t-178 -29.5q-176 0 -274.5 88t-98.5 233q0 190 113 296.5t285 195.5l53 129
h205l-45 -266q-143 -51 -234.5 -125t-91.5 -191z" />
    <glyph glyph-name="Agrave" unicode="&#xc0;" horiz-adv-x="1243" 
d="M752 1167l-170 -374l-142 -285h348l-22 285l-8 374h-6zM1100 0h-266l-17 305h-487l-150 -305h-280l743 1393h301zM629 1835h270l68 -279l-4 -20h-228l-110 281z" />
    <glyph glyph-name="Aacute" unicode="&#xc1;" horiz-adv-x="1243" 
d="M752 1167l-170 -374l-142 -285h348l-22 285l-8 374h-6zM1100 0h-266l-17 305h-487l-150 -305h-280l743 1393h301zM1161 1817l-229 -281h-244l4 20l187 279h286z" />
    <glyph glyph-name="Acircumflex" unicode="&#xc2;" horiz-adv-x="1243" 
d="M752 1167l-170 -374l-142 -285h348l-22 285l-8 374h-6zM1100 0h-266l-17 305h-487l-150 -305h-280l743 1393h301zM1153 1556l-4 -20h-199l-80 162l-145 -162h-215l4 20l266 279h226z" />
    <glyph glyph-name="Atilde" unicode="&#xc3;" horiz-adv-x="1243" 
d="M752 1167l-170 -374l-142 -285h348l-22 285l-8 374h-6zM1100 0h-266l-17 305h-487l-150 -305h-280l743 1393h301zM752 1837q58 0 130 -46q76 -46 114 -46q40 0 82 19t71 51l29 -140q-98 -137 -209 -137q-59 0 -138 46q-31 18 -59 32t-61 14q-81 0 -144 -71l-28 143
q97 135 213 135z" />
    <glyph glyph-name="Adieresis" unicode="&#xc4;" horiz-adv-x="1243" 
d="M752 1167l-170 -374l-142 -285h348l-22 285l-8 374h-6zM1100 0h-266l-17 305h-487l-150 -305h-280l743 1393h301zM1074 1534q-130 0 -130 124q0 62 51 110t119 48t98 -30q31 -30 31 -92t-51 -111q-52 -49 -118 -49zM590 1534q-119 0 -119 124q0 62 50 110q51 48 119 48
t99 -30t31 -92t-51 -111t-129 -49z" />
    <glyph glyph-name="Aring" unicode="&#xc5;" horiz-adv-x="1236" 
d="M737 1507q0 -63 62 -63q41 0 67.5 28.5t26.5 65.5q0 72 -59 72q-41 0 -69 -30t-28 -73zM750 1167l-170 -374l-142 -285h348l-22 285l-8 374h-6zM586 1474q0 125 74 200t176 75t155 -46t53 -129q0 -153 -102 -224l156 -1350h-267l-16 305h-487l-150 -305h-280l731 1358
q-43 48 -43 116z" />
    <glyph glyph-name="AE" unicode="&#xc6;" horiz-adv-x="1753" 
d="M942 1157l-203 -307l-239 -342h295l71 342l82 307h-6zM-145 20l1019 1373h934l-43 -211h-571l-80 -371h512l-45 -211h-510l-84 -389h578l-45 -211h-834l66 305h-408l-219 -305h-275z" />
    <glyph glyph-name="Ccedilla" unicode="&#xc7;" horiz-adv-x="1148" 
d="M674 -210q0 -97 -62.5 -161.5t-185.5 -64.5q-76 0 -129 24l41 129q39 -16 74 -16q74 0 73 61q0 33 -31.5 39t-62.5 6l-4 13l90 164q-180 41 -270 182.5t-90 339.5q0 397 208 657t552 260q181 0 331 -90l-88 -194q-112 67 -268 67q-96 0 -181 -53t-185.5 -195.5
t-100.5 -408.5q0 -160 64.5 -261.5t185.5 -101.5q155 0 297 68l47 -195q-184 -90 -365 -90l-36 -61q96 -21 96 -118z" />
    <glyph glyph-name="Egrave" unicode="&#xc8;" horiz-adv-x="1116" 
d="M1171 1393l-45 -211h-569l-80 -371h510l-45 -211h-510l-82 -389h576l-43 -211h-834l297 1393h825zM582 1835h270l68 -279l-5 -20h-227l-110 281z" />
    <glyph glyph-name="Eacute" unicode="&#xc9;" horiz-adv-x="1116" 
d="M1171 1393l-45 -211h-569l-80 -371h510l-45 -211h-510l-82 -389h576l-43 -211h-834l297 1393h825zM1139 1817l-230 -281h-243l4 20l186 279h287z" />
    <glyph glyph-name="Ecircumflex" unicode="&#xca;" horiz-adv-x="1116" 
d="M1171 1393l-45 -211h-569l-80 -371h510l-45 -211h-510l-82 -389h576l-43 -211h-834l297 1393h825zM1108 1556l-4 -20h-199l-80 162l-145 -162h-215l4 20l266 279h226z" />
    <glyph glyph-name="Edieresis" unicode="&#xcb;" horiz-adv-x="1116" 
d="M1171 1393l-45 -211h-569l-80 -371h510l-45 -211h-510l-82 -389h576l-43 -211h-834l297 1393h825zM1028 1534q-130 0 -131 124q0 62 51 110q50 48 118 48t99 -30t31 -92t-51 -111t-117 -49zM543 1534q-119 0 -119 124q0 62 50 110t118 48t100 -30q31 -30 31 -92t-51 -111
t-129 -49z" />
    <glyph glyph-name="Igrave" unicode="&#xcc;" horiz-adv-x="600" 
d="M305 0h-256l297 1393h256zM287 1835h270l68 -279l-4 -20h-228l-110 281z" />
    <glyph glyph-name="Iacute" unicode="&#xcd;" horiz-adv-x="600" 
d="M305 0h-256l297 1393h256zM850 1817l-229 -281h-244l4 20l186 279h287z" />
    <glyph glyph-name="Icircumflex" unicode="&#xce;" horiz-adv-x="600" 
d="M305 0h-256l297 1393h256zM819 1556l-4 -20h-199l-79 162l-146 -162h-215l4 20l266 279h226z" />
    <glyph glyph-name="Idieresis" unicode="&#xcf;" horiz-adv-x="600" 
d="M305 0h-256l297 1393h256zM742 1534q-130 0 -130 124q0 62 52 110t118 48q68 0 99 -30t31 -92t-52 -111t-118 -49zM258 1534q-119 0 -119 124q0 62 50 110q51 48 119 48t100 -30t30 -92q0 -62 -51 -111t-129 -49z" />
    <glyph glyph-name="Eth" unicode="&#xd0;" horiz-adv-x="1318" 
d="M459 211q522 0 522 670q0 150 -70.5 225.5t-244.5 75.5h-107l-84 -389h199l-45 -211h-199l-78 -371h107zM1245 899q0 -899 -786 -899h-408l123 582h-96l45 211h96l129 600h367q530 0 530 -494z" />
    <glyph glyph-name="Ntilde" unicode="&#xd1;" horiz-adv-x="1394" 
d="M952 342l21 270l166 781h256l-295 -1393h-262l-340 1049h-6l-21 -271l-166 -778h-256l297 1393h262l338 -1051h6zM807 1837q61 0 130 -46q76 -46 114 -46q39 0 82 19t71 51l29 -140q-98 -137 -209 -137q-60 0 -137 46q-31 18 -60 32t-61 14q-82 0 -143 -71l-29 143
q97 135 213 135z" />
    <glyph glyph-name="Ograve" unicode="&#xd2;" horiz-adv-x="1425" 
d="M1358 852q0 -142 -47 -307q-47 -164 -141 -292t-236 -206q-141 -78 -330 -78q-243 0 -366 153t-121 390q0 172 47 336q99 345 377 498q141 78 331 77q125 0 218 -42q268 -122 268 -529zM381 546q0 -359 248 -360q127 0 215 67t143 168q105 193 105 437t-133 322
q-46 27 -113 26q-125 0 -213 -65q-173 -129 -227 -384q-26 -119 -25 -211zM735 1835h271l67 -279l-4 -20h-227l-111 281z" />
    <glyph glyph-name="Oacute" unicode="&#xd3;" horiz-adv-x="1425" 
d="M1358 852q0 -142 -47 -307q-47 -164 -141 -292t-236 -206q-141 -78 -330 -78q-243 0 -366 153t-121 390q0 172 47 336q99 345 377 498q141 78 331 77q125 0 218 -42q268 -122 268 -529zM381 546q0 -359 248 -360q127 0 215 67t143 168q105 193 105 437t-133 322
q-46 27 -113 26q-125 0 -213 -65q-173 -129 -227 -384q-26 -119 -25 -211zM1266 1817l-230 -281h-243l4 20l186 279h287z" />
    <glyph glyph-name="Ocircumflex" unicode="&#xd4;" horiz-adv-x="1425" 
d="M1358 852q0 -142 -47 -307q-47 -164 -141 -292t-236 -206q-141 -78 -330 -78q-243 0 -366 153t-121 390q0 172 47 336q99 345 377 498q141 78 331 77q125 0 218 -42q268 -122 268 -529zM381 546q0 -359 248 -360q127 0 215 67t143 168q105 193 105 437t-133 322
q-46 27 -113 26q-125 0 -213 -65q-173 -129 -227 -384q-26 -119 -25 -211zM1255 1556l-4 -20h-198l-80 162l-146 -162h-215l4 20l267 279h225z" />
    <glyph glyph-name="Otilde" unicode="&#xd5;" horiz-adv-x="1425" 
d="M1358 852q0 -142 -47 -307q-47 -164 -141 -292t-236 -206q-141 -78 -330 -78q-243 0 -366 153t-121 390q0 172 47 336q99 345 377 498q141 78 331 77q125 0 218 -42q268 -122 268 -529zM381 546q0 -359 248 -360q127 0 215 67t143 168q105 193 105 437t-133 322
q-46 27 -113 26q-125 0 -213 -65q-173 -129 -227 -384q-26 -119 -25 -211zM846 1837q61 0 130 -46q76 -46 114 -46q40 0 82 19t71 51l29 -140q-98 -137 -209 -137q-60 0 -137 46q-31 18 -60 32t-61 14q-82 0 -143 -71l-29 143q97 135 213 135z" />
    <glyph glyph-name="Odieresis" unicode="&#xd6;" horiz-adv-x="1425" 
d="M1358 852q0 -142 -47 -307q-47 -164 -141 -292t-236 -206q-141 -78 -330 -78q-243 0 -366 153t-121 390q0 172 47 336q99 345 377 498q141 78 331 77q125 0 218 -42q268 -122 268 -529zM381 546q0 -359 248 -360q127 0 215 67t143 168q105 193 105 437t-133 322
q-46 27 -113 26q-125 0 -213 -65q-173 -129 -227 -384q-26 -119 -25 -211zM1168 1534q-130 0 -130 124q0 62 52 110t118 48q68 0 99 -30t31 -92t-52 -111t-118 -49zM684 1534q-119 0 -119 124q0 62 50 110q51 48 119 48t100 -30t30 -92q0 -62 -51 -111t-129 -49z" />
    <glyph glyph-name="multiply" unicode="&#xd7;" 
d="M424 561l-227 320l155 135l228 -320l368 324l111 -148l-371 -325l227 -316l-157 -135l-226 316l-370 -324l-109 148z" />
    <glyph glyph-name="Oslash" unicode="&#xd8;" horiz-adv-x="1425" 
d="M825 1206q-104 0 -192 -65.5t-170 -209t-82 -405.5q0 -61 8 -108l602 739q-62 49 -166 49zM1092 847q0 87 -13 146l-612 -745q61 -62 175 -62t202 66.5t143 168t80 220.5t25 206zM117 499q0 185 47 349t141 292t235.5 205.5t317.5 77.5t289 -73l104 127l138 -105
l-119 -145q88 -141 88 -329q0 -189 -47 -353t-141.5 -292t-236 -206t-325.5 -78t-299 86l-100 -123l-129 107l117 143q-80 132 -80 317z" />
    <glyph glyph-name="Ugrave" unicode="&#xd9;" horiz-adv-x="1341" 
d="M392 406q-3 -220 195 -220q252 0 331 367l178 840h258l-183 -865q-61 -279 -203 -419t-408 -140q-265 0 -365 154t-37 452l174 818h256l-178 -840q-16 -80 -18 -147zM664 1835h270l67 -279l-4 -20h-227l-111 281z" />
    <glyph glyph-name="Uacute" unicode="&#xda;" horiz-adv-x="1341" 
d="M392 406q-3 -220 195 -220q252 0 331 367l178 840h258l-183 -865q-61 -279 -203 -419t-408 -140q-265 0 -365 154t-37 452l174 818h256l-178 -840q-16 -80 -18 -147zM1217 1817l-230 -281h-244l5 20l186 279h287z" />
    <glyph glyph-name="Ucircumflex" unicode="&#xdb;" horiz-adv-x="1341" 
d="M392 406q-3 -220 195 -220q252 0 331 367l178 840h258l-183 -865q-61 -279 -203 -419t-408 -140q-265 0 -365 154t-37 452l174 818h256l-178 -840q-16 -80 -18 -147zM1186 1556l-4 -20h-199l-80 162l-145 -162h-215l4 20l266 279h225z" />
    <glyph glyph-name="Udieresis" unicode="&#xdc;" horiz-adv-x="1341" 
d="M392 406q-3 -220 195 -220q252 0 331 367l178 840h258l-183 -865q-61 -279 -203 -419t-408 -140q-265 0 -365 154t-37 452l174 818h256l-178 -840q-16 -80 -18 -147zM1110 1534q-130 0 -131 124q0 62 51 110q50 48 118 48t99 -30t31 -92t-51 -111t-117 -49zM625 1534
q-119 0 -119 124q0 62 50 110t118 48t100 -30q31 -30 31 -92t-51 -111t-129 -49z" />
    <glyph glyph-name="Yacute" unicode="&#xdd;" horiz-adv-x="1120" 
d="M446 1393l148 -598h4l401 598h285l-4 -21l-594 -807l-119 -565h-256l119 565l-252 807l4 21h264zM1112 1817l-229 -281h-244l4 20l186 279h287z" />
    <glyph glyph-name="Thorn" unicode="&#xde;" horiz-adv-x="1153" 
d="M598 465q111 0 172 96.5t61 222.5q0 72 -30.5 120t-98.5 48h-194l-105 -487h195zM748 1163q177 0 264.5 -93.5t87.5 -246.5q0 -245 -122.5 -407t-383.5 -162h-236l-53 -254h-256l297 1393h254l-47 -230h195z" />
    <glyph glyph-name="germandbls" unicode="&#xdf;" horiz-adv-x="1204" 
d="M1124 1119q0 -140 -62.5 -232t-148.5 -131v-4q66 -31 116 -106t50 -179q0 -242 -139 -370t-422 -128q-68 0 -117 15l45 213q133 -28 254 21t121 251q0 78 -49 121t-149 43h-50l50 225h45q86 0 141 64.5t55 181.5q0 61 -32.5 101t-121.5 40t-144.5 -62.5t-84.5 -203.5
l-209 -979h-252l209 987q47 229 181.5 343t321.5 114t289.5 -92.5t102.5 -232.5z" />
    <glyph glyph-name="agrave" unicode="&#xe0;" horiz-adv-x="1134" 
d="M326 391q0 -213 141 -215q47 0 90 23t84 51l109 504q-58 57 -138 57q-141 -1 -213 -127q-73 -126 -73 -293zM368 -31q-153 0 -228 109t-76 258t32 267q69 248 245 359q89 56 193 56t166 -40q61 -40 103 -79h4l51 88h191l-166 -772q-4 -23 -1 -30t25 -7h72l-41 -188
q-79 -13 -145 -15q-148 0 -156 113h-4q-59 -49 -121 -84q-60 -35 -144 -35zM446 1460h254l84 -278l-4 -21h-209l-129 281z" />
    <glyph glyph-name="aacute" unicode="&#xe1;" horiz-adv-x="1134" 
d="M326 391q0 -213 141 -215q47 0 90 23t84 51l109 504q-58 57 -138 57q-141 -1 -213 -127q-73 -126 -73 -293zM368 -31q-153 0 -228 109t-76 258t32 267q69 248 245 359q89 56 193 56t166 -40q61 -40 103 -79h4l51 88h191l-166 -772q-4 -23 -1 -30t25 -7h72l-41 -188
q-79 -13 -145 -15q-148 0 -156 113h-4q-59 -49 -121 -84q-60 -35 -144 -35zM1020 1442l-248 -281h-225l4 21l203 278h270z" />
    <glyph glyph-name="acircumflex" unicode="&#xe2;" horiz-adv-x="1134" 
d="M326 391q0 -213 141 -215q47 0 90 23t84 51l109 504q-58 57 -138 57q-141 -1 -213 -127q-73 -126 -73 -293zM368 -31q-153 0 -228 109t-76 258t32 267q69 248 245 359q89 56 193 56t166 -40q61 -40 103 -79h4l51 88h191l-166 -772q-4 -23 -1 -30t25 -7h72l-41 -188
q-79 -13 -145 -15q-148 0 -156 113h-4q-59 -49 -121 -84q-60 -35 -144 -35zM985 1182l-4 -21h-199l-59 162l-127 -162h-215l4 21l223 278h273z" />
    <glyph glyph-name="atilde" unicode="&#xe3;" horiz-adv-x="1134" 
d="M326 391q0 -213 141 -215q47 0 90 23t84 51l109 504q-58 57 -138 57q-141 -1 -213 -127q-73 -126 -73 -293zM368 -31q-153 0 -228 109t-76 258t32 267q69 248 245 359q89 56 193 56t166 -40q61 -40 103 -79h4l51 88h191l-166 -772q-4 -23 -1 -30t25 -7h72l-41 -188
q-79 -13 -145 -15q-148 0 -156 113h-4q-59 -49 -121 -84q-60 -35 -144 -35zM612 1460q61 0 130 -46q76 -46 114 -46q39 0 82 20t72 50l28 -140q-98 -137 -209 -137q-53 -1 -111 31t-86 46t-61 15q-80 0 -143 -71l-29 143q97 135 213 135z" />
    <glyph glyph-name="adieresis" unicode="&#xe4;" horiz-adv-x="1134" 
d="M326 391q0 -213 141 -215q47 0 90 23t84 51l109 504q-58 57 -138 57q-141 -1 -213 -127q-73 -126 -73 -293zM368 -31q-153 0 -228 109t-76 258t32 267q69 248 245 359q89 56 193 56t166 -40q61 -40 103 -79h4l51 88h191l-166 -772q-4 -23 -1 -30t25 -7h72l-41 -188
q-79 -13 -145 -15q-148 0 -156 113h-4q-59 -49 -121 -84q-60 -35 -144 -35zM538 1452q130 0 130 -124q0 -62 -52 -110t-118 -48q-130 -2 -129 122q0 62 51 111q50 49 118 49zM936 1452q132 0 131 -124q0 -62 -51 -110t-129 -49q-119 -1 -119 123q0 62 50 111t118 49z" />
    <glyph glyph-name="aring" unicode="&#xe5;" horiz-adv-x="1134" 
d="M326 391q0 -213 141 -215q47 0 90 23t84 51l109 504q-58 57 -138 57q-141 -1 -213 -127q-73 -126 -73 -293zM368 -31q-153 0 -228 109t-76 258t32 267q69 248 245 359q89 56 193 56t166 -40q61 -40 103 -79h4l51 88h191l-166 -772q-4 -23 -1 -30t25 -7h72l-41 -188
q-79 -13 -145 -15q-148 0 -156 113h-4q-59 -49 -121 -84q-60 -35 -144 -35zM492 1258q0 198 159 263q49 19 121 19t125 -46t53 -152t-74 -178q-74 -73 -192 -72q-84 0 -138 46t-54 120zM799 1337q0 62 -60 64q-41 0 -69 -30t-27 -73q0 -63 62 -63q41 0 67 29t27 73z" />
    <glyph glyph-name="ae" unicode="&#xe6;" horiz-adv-x="1601" 
d="M1292 688q0 148 -131 148q-122 0 -170.5 -101.5t-60.5 -148.5h346q16 53 16 102zM295 -31q-129 0 -206 67.5t-77 184.5q0 199 130 287t354 88h174l10 45q21 95 -26.5 132.5t-110.5 37.5q-119 0 -318 -78l-45 193q226 92 400 92q98 0 169.5 -36t104.5 -101
q137 137 315 137t264.5 -95.5t86.5 -240.5q0 -91 -26 -165.5t-36 -94.5h-567q-16 -111 22.5 -181.5t151.5 -70.5t266 66l39 -179q-181 -88 -362 -88q-123 0 -191.5 49.5t-111.5 131.5q-181 -181 -410 -181zM260 258q0 -92 92 -92t175 75.5t106 190.5h-150q-104 0 -163.5 -44
t-59.5 -130z" />
    <glyph glyph-name="ccedilla" unicode="&#xe7;" horiz-adv-x="917" 
d="M528 -210q0 -97 -62.5 -161.5t-184.5 -64.5q-76 0 -129 24l41 129q39 -16 73 -16q74 0 74 61q0 33 -32 39t-62 6l-4 13l92 166q-133 35 -202 139.5t-69 246.5q0 283 160.5 464.5t419.5 181.5q145 0 256 -62l-72 -188q-108 43 -175 43q-139 0 -232.5 -111.5t-93.5 -291.5
q0 -113 50 -172.5t130 -59.5t205 43l28 -188q-125 -58 -270 -62l-37 -61q96 -21 96 -118z" />
    <glyph glyph-name="egrave" unicode="&#xe8;" horiz-adv-x="1038" 
d="M729 682q0 64 -31 108q-31 46 -92 46t-99 -22q-116 -67 -157 -228h363q16 32 16 96zM492 170q109 0 274 74l43 -187q-186 -88 -370 -88t-281 116t-97 294q0 256 155 447q155 192 390 192q173 0 261 -96q89 -96 89 -238t-61 -262h-586q-16 -112 29 -182t154 -70zM473 1460
h254l84 -278l-4 -21h-209l-129 281z" />
    <glyph glyph-name="eacute" unicode="&#xe9;" horiz-adv-x="1038" 
d="M729 682q0 64 -31 108q-31 46 -92 46t-99 -22q-116 -67 -157 -228h363q16 32 16 96zM492 170q109 0 274 74l43 -187q-186 -88 -370 -88t-281 116t-97 294q0 256 155 447q155 192 390 192q173 0 261 -96q89 -96 89 -238t-61 -262h-586q-16 -112 29 -182t154 -70z
M1026 1442l-248 -281h-225l4 21l203 278h270z" />
    <glyph glyph-name="ecircumflex" unicode="&#xea;" horiz-adv-x="1038" 
d="M729 682q0 64 -31 108q-31 46 -92 46t-99 -22q-116 -67 -157 -228h363q16 32 16 96zM492 170q109 0 274 74l43 -187q-186 -88 -370 -88t-281 116t-97 294q0 256 155 447q155 192 390 192q173 0 261 -96q89 -96 89 -238t-61 -262h-586q-16 -112 29 -182t154 -70zM975 1182
l-4 -21h-199l-59 162l-127 -162h-215l4 21l223 278h272z" />
    <glyph glyph-name="edieresis" unicode="&#xeb;" horiz-adv-x="1038" 
d="M729 682q0 64 -31 108q-31 46 -92 46t-99 -22q-116 -67 -157 -228h363q16 32 16 96zM492 170q109 0 274 74l43 -187q-186 -88 -370 -88t-281 116t-97 294q0 256 155 447q155 192 390 192q173 0 261 -96q89 -96 89 -238t-61 -262h-586q-16 -112 29 -182t154 -70zM522 1452
q132 0 130 -124q0 -62 -52 -110t-118 -48t-98 30t-32 92t51 111t119 49zM920 1452q132 0 131 -124q1 -62 -51 -110t-130 -49q-118 -1 -118 123q0 62 50 111t118 49z" />
    <glyph glyph-name="igrave" unicode="&#xec;" horiz-adv-x="534" 
d="M170 1460h254l84 -278l-4 -21h-209l-129 281zM20 0l209 987h252l-209 -987h-252z" />
    <glyph glyph-name="iacute" unicode="&#xed;" horiz-adv-x="536" 
d="M745 1442l-247 -281h-226l4 21l203 278h271zM20 0l209 987h252l-209 -987h-252z" />
    <glyph glyph-name="icircumflex" unicode="&#xee;" horiz-adv-x="534" 
d="M20 0l209 987h252l-209 -987h-252zM690 1182l-4 -21h-199l-59 162l-127 -162h-215l4 21l223 278h273z" />
    <glyph glyph-name="idieresis" unicode="&#xef;" horiz-adv-x="534" 
d="M244 1452q130 0 129 -124q0 -62 -51 -110q-52 -48 -118 -48q-130 -2 -130 122q0 62 51 111t119 49zM640 1452q132 0 132 -124q0 -62 -51 -110t-129 -49q-119 -1 -119 123q0 62 50 111q49 49 117 49zM20 0l209 987h252l-209 -987h-252z" />
    <glyph glyph-name="eth" unicode="&#xf0;" horiz-adv-x="1146" 
d="M782 582q0 194 -172 194q-146 0 -217 -108.5t-71 -280.5q0 -207 165 -207q148 0 221.5 114.5t73.5 287.5zM1047 586q0 -100 -37 -218t-153.5 -258.5t-375.5 -140.5q-199 0 -308.5 121.5t-109.5 298.5q0 255 143.5 425.5t344.5 170.5q86 0 152.5 -24.5t89.5 -49.5l4 4
q-24 92 -90 220l-222 -60l-30 142l188 47q-97 147 -98 149l4 21h235q53 -88 60 -103l182 47l29 -139l-152 -35q90 -198 117 -358t27 -260z" />
    <glyph glyph-name="ntilde" unicode="&#xf1;" horiz-adv-x="1112" 
d="M731 1018q162 0 230 -104t26 -300l-131 -614h-252l129 604q48 207 -108 207q-106 0 -201 -98l-152 -713h-252l209 987h205l12 -94h5q67 58 131 92q64 33 149 33zM600 1460q61 0 130 -46q76 -46 114 -46q39 0 82 20t71 50l29 -140q-98 -137 -209 -137q-56 -1 -112 31
q-57 32 -85 46t-61 15q-82 0 -143 -71l-29 143q97 135 213 135z" />
    <glyph glyph-name="ograve" unicode="&#xf2;" horiz-adv-x="1120" 
d="M1022 588q0 -106 -39 -222t-113 -204q-161 -191 -419 -193q-184 0 -286 117t-102 295q0 269 159 453t411 184q188 0 292 -119q97 -111 97 -311zM324 384q0 -93 37 -151q38 -57 108 -57q131 0 210 119t81 301q0 100 -38 158t-109 57q-71 0 -123 -34t-89 -90t-57 -133
t-20 -170zM461 1460h254l84 -278l-4 -21h-209l-129 281z" />
    <glyph glyph-name="oacute" unicode="&#xf3;" horiz-adv-x="1120" 
d="M1022 588q0 -106 -39 -222t-113 -204q-161 -191 -419 -193q-184 0 -286 117t-102 295q0 269 159 453t411 184q188 0 292 -119q97 -111 97 -311zM324 384q0 -93 37 -151q38 -57 108 -57q131 0 210 119t81 301q0 100 -38 158t-109 57q-71 0 -123 -34t-89 -90t-57 -133
t-20 -170zM1042 1442l-247 -281h-226l4 21l203 278h271z" />
    <glyph glyph-name="ocircumflex" unicode="&#xf4;" horiz-adv-x="1120" 
d="M1022 588q0 -106 -39 -222t-113 -204q-161 -191 -419 -193q-184 0 -286 117t-102 295q0 269 159 453t411 184q188 0 292 -119q97 -111 97 -311zM324 384q0 -93 37 -151q38 -57 108 -57q131 0 210 119t81 301q0 100 -38 158t-109 57q-71 0 -123 -34t-89 -90t-57 -133
t-20 -170zM987 1182l-4 -21h-199l-59 162l-127 -162h-215l4 21l223 278h273z" />
    <glyph glyph-name="otilde" unicode="&#xf5;" horiz-adv-x="1120" 
d="M1022 588q0 -106 -39 -222t-113 -204q-161 -191 -419 -193q-184 0 -286 117t-102 295q0 269 159 453t411 184q188 0 292 -119q97 -111 97 -311zM324 384q0 -93 37 -151q38 -57 108 -57q131 0 210 119t81 301q0 100 -38 158t-109 57q-71 0 -123 -34t-89 -90t-57 -133
t-20 -170zM604 1460q61 0 130 -46q76 -46 114 -46q39 0 82 20t71 50l29 -140q-98 -137 -209 -137q-53 -1 -111 31t-86 46t-61 15q-82 0 -143 -71l-29 143q97 135 213 135z" />
    <glyph glyph-name="odieresis" unicode="&#xf6;" horiz-adv-x="1120" 
d="M1022 588q0 -106 -39 -222t-113 -204q-161 -191 -419 -193q-184 0 -286 117t-102 295q0 269 159 453t411 184q188 0 292 -119q97 -111 97 -311zM324 384q0 -93 37 -151q38 -57 108 -57q131 0 210 119t81 301q0 100 -38 158t-109 57q-71 0 -123 -34t-89 -90t-57 -133
t-20 -170zM536 1452q130 0 130 -124q0 -62 -52 -110t-118 -48q-130 -2 -129 122q0 62 51 111q50 49 118 49zM934 1452q132 0 131 -124q0 -62 -51 -110t-129 -49q-119 -1 -119 123q0 62 50 111t118 49z" />
    <glyph glyph-name="divide" unicode="&#xf7;" 
d="M1065 662l-45 -211h-948l45 211h948zM492 307q143 -1 143 -149q1 -72 -59 -130t-134 -58t-107 36q-34 37 -34 88q0 95 59 154t132 59zM479 934q0 95 59 153t132 59t108 -37q35 -39 35 -111t-59 -130t-133 -59q-74 0 -108 37t-34 88z" />
    <glyph glyph-name="oslash" unicode="&#xf8;" horiz-adv-x="1120" 
d="M600 811q-58 0 -110 -34t-109 -121.5t-57 -264.5v-10l370 401q-36 29 -94 29zM476 176q124 0 204 121t80 299v20l-379 -407q33 -33 95 -33zM449 -31q-137 0 -230 68l-104 -113l-109 115l109 117q-51 96 -52 294t159 383t411 185q134 0 223 -60l96 103l117 -113l-102 -110
q55 -98 55 -228t-39 -245t-112.5 -203t-179 -140.5t-242.5 -52.5z" />
    <glyph glyph-name="ugrave" unicode="&#xf9;" horiz-adv-x="1099" 
d="M436 176q68 0 118 32t85 62l154 717h251l-208 -987h-207l-15 94h-2q-136 -122 -272 -125q-166 -1 -229 103t-23 301l131 614h252l-129 -604q-23 -99 1 -153t93 -54zM444 1460h254l84 -278l-4 -21h-209l-129 281z" />
    <glyph glyph-name="uacute" unicode="&#xfa;" horiz-adv-x="1099" 
d="M436 176q68 0 118 32t85 62l154 717h251l-208 -987h-207l-15 94h-2q-136 -122 -272 -125q-166 -1 -229 103t-23 301l131 614h252l-129 -604q-23 -99 1 -153t93 -54zM1028 1442l-248 -281h-225l4 21l203 278h270z" />
    <glyph glyph-name="ucircumflex" unicode="&#xfb;" horiz-adv-x="1099" 
d="M436 176q68 0 118 32t85 62l154 717h251l-208 -987h-207l-15 94h-2q-136 -122 -272 -125q-166 -1 -229 103t-23 301l131 614h252l-129 -604q-23 -99 1 -153t93 -54zM965 1182l-4 -21h-199l-60 162l-127 -162h-215l5 21l223 278h272z" />
    <glyph glyph-name="udieresis" unicode="&#xfc;" horiz-adv-x="1099" 
d="M436 176q68 0 118 32t85 62l154 717h251l-208 -987h-207l-15 94h-2q-136 -122 -272 -125q-166 -1 -229 103t-23 301l131 614h252l-129 -604q-23 -99 1 -153t93 -54zM524 1452q132 0 130 -124q0 -62 -52 -110t-118 -48t-98 30t-32 92t52 111t118 49zM922 1452
q132 0 131 -124q1 -62 -51 -110t-130 -49q-118 -1 -118 123q0 62 50 111t118 49z" />
    <glyph glyph-name="yacute" unicode="&#xfd;" horiz-adv-x="1001" 
d="M38 -246q46 0 84 34t79 108l63 114l-147 957l4 20h246l45 -545l4 -204h6l90 204l268 545h269l-5 -20l-634 -1135q-150 -270 -371 -268q-91 0 -178 24l39 185q92 -19 138 -19zM983 1442l-248 -281h-225l4 21l203 278h270z" />
    <glyph glyph-name="thorn" unicode="&#xfe;" horiz-adv-x="1122" 
d="M460 176q146 0 223 128.5t77 291.5q0 92 -36 153.5t-115 61.5t-183 -74l-107 -504q57 -57 141 -57zM709 1018q156 0 235.5 -111t79.5 -257t-35 -265t-98.5 -211t-154 -148.5t-192.5 -56.5t-160 35t-93 68h-4l-103 -478h-252l392 1840h251l-110 -519h4q45 39 100.5 71
t139.5 32z" />
    <glyph glyph-name="ydieresis" unicode="&#xff;" horiz-adv-x="1001" 
d="M38 -246q46 0 84 34t79 108l63 114l-147 957l4 20h246l45 -545l4 -204h6l90 204l268 545h269l-5 -20l-634 -1135q-150 -270 -371 -268q-91 0 -178 24l39 185q92 -19 138 -19zM480 1452q130 0 130 -124q0 -62 -51 -110t-117 -48t-99 30q-32 30 -32 92t51 111q50 49 118 49
zM878 1452q132 0 132 -124q0 -62 -52 -110t-129 -49q-118 -1 -118 123q0 62 50 111q49 49 117 49z" />
    <glyph glyph-name="Amacron" unicode="&#x100;" horiz-adv-x="1243" 
d="M752 1167l-170 -374l-142 -285h348l-22 285l-8 374h-6zM1100 0h-266l-17 305h-487l-150 -305h-280l743 1393h301zM569 1554l45 211h527l-45 -211h-527z" />
    <glyph glyph-name="amacron" unicode="&#x101;" horiz-adv-x="1134" 
d="M326 391q0 -213 141 -215q47 0 90 23t84 51l109 504q-58 57 -138 57q-141 -1 -213 -127q-73 -126 -73 -293zM368 -31q-153 0 -228 109t-76 258t32 267q69 248 245 359q89 56 193 56t166 -40q61 -40 103 -79h4l51 88h191l-166 -772q-4 -23 -1 -30t25 -7h72l-41 -188
q-79 -13 -145 -15q-148 0 -156 113h-4q-59 -49 -121 -84q-60 -35 -144 -35zM430 1186l45 211h526l-45 -211h-526z" />
    <glyph glyph-name="Abreve" unicode="&#x102;" horiz-adv-x="1243" 
d="M752 1167l-170 -374l-142 -285h348l-22 285l-8 374h-6zM1100 0h-266l-17 305h-487l-150 -305h-280l743 1393h301zM868 1755q128 0 256 70l35 -160q-156 -129 -332 -129q-120 0 -222 94q-26 25 -44 49l82 146q97 -70 225 -70z" />
    <glyph glyph-name="abreve" unicode="&#x103;" horiz-adv-x="1134" 
d="M326 391q0 -213 141 -215q47 0 90 23t84 51l109 504q-58 57 -138 57q-141 -1 -213 -127q-73 -126 -73 -293zM368 -31q-153 0 -228 109t-76 258t32 267q69 248 245 359q89 56 193 56t166 -40q61 -40 103 -79h4l51 88h191l-166 -772q-4 -23 -1 -30t25 -7h72l-41 -188
q-79 -13 -145 -15q-148 0 -156 113h-4q-59 -49 -121 -84q-60 -35 -144 -35zM725 1380q130 0 256 70l35 -160q-156 -129 -330 -129q-126 0 -224 94q-26 25 -44 50l84 145q93 -70 223 -70z" />
    <glyph glyph-name="Aogonek" unicode="&#x104;" horiz-adv-x="1243" 
d="M752 1167l-170 -374l-142 -285h348l-22 285l-8 374h-6zM909 -258q57 0 109 37l-4 -164q-33 -20 -87.5 -35.5t-97.5 -15.5q-84 0 -135 54.5t-51 115.5q0 97 51.5 156.5t139.5 111.5l-17 303h-487l-150 -305h-280l743 1393h301l156 -1393q-125 -26 -186.5 -84.5
t-61.5 -115.5q0 -58 57 -58z" />
    <glyph glyph-name="aogonek" unicode="&#x105;" horiz-adv-x="1134" 
d="M326 391q0 -215 141 -215q69 0 174 74l109 504q-58 57 -138 57q-141 0 -213.5 -127t-72.5 -293zM770 -207q0 -51 59.5 -51t108.5 37l-6 -164q-33 -20 -86 -35.5t-94 -15.5q-98 0 -145.5 52t-47.5 134q0 140 172 232q-90 18 -94 106h-4q-59 -49 -120 -84t-145 -35
q-153 0 -229 110.5t-76 258.5q0 147 33 265t94.5 210t150.5 148.5t193 56.5t166 -40t103 -79h4l51 88h191l-166 -772q-4 -23 -1 -30t25 -7h72l-41 -188q-105 -42 -136.5 -94t-31.5 -103z" />
    <glyph glyph-name="Cacute" unicode="&#x106;" horiz-adv-x="1148" 
d="M608 -31q-236 0 -363 151q-128 151 -128 396q0 388 205 643q98 123 238 194t319 71t329 -91l-88 -194q-112 67 -268 67q-96 0 -181 -53t-149 -143q-138 -195 -137 -461q0 -160 65 -261t185 -102q155 0 297 68l47 -195q-188 -90 -371 -90zM1245 1817l-229 -281h-244l4 20
l187 279h286z" />
    <glyph glyph-name="cacute" unicode="&#x107;" horiz-adv-x="917" 
d="M63 379q0 276 160 458q160 181 420 181q145 0 256 -62l-72 -188q-108 43 -175 43q-68 0 -126 -28q-119 -57 -174 -206q-26 -75 -26 -179t50 -162q50 -60 132 -60t203 43l28 -188q-135 -60 -255 -61q-211 -2 -316 112q-105 113 -105 297zM1040 1442l-247 -281h-226l4 21
l203 278h270z" />
    <glyph glyph-name="Ccircumflex" unicode="&#x108;" horiz-adv-x="1148" 
d="M608 -31q-236 0 -363 151q-128 151 -128 396q0 388 205 643q98 123 238 194t319 71t329 -91l-88 -194q-112 67 -268 67q-96 0 -181 -53t-149 -143q-138 -195 -137 -461q0 -160 65 -261t185 -102q155 0 297 68l47 -195q-188 -90 -371 -90zM1231 1556l-4 -20h-199l-80 162
l-145 -162h-215l4 20l266 279h225z" />
    <glyph glyph-name="ccircumflex" unicode="&#x109;" horiz-adv-x="917" 
d="M63 379q0 276 160 458q160 181 420 181q145 0 256 -62l-72 -188q-108 43 -175 43q-68 0 -126 -28q-119 -57 -174 -206q-26 -75 -26 -179t50 -162q50 -60 132 -60t203 43l28 -188q-135 -60 -255 -61q-211 -2 -316 112q-105 113 -105 297zM967 1182l-4 -21h-199l-59 162
l-127 -162h-216l5 21l223 278h272z" />
    <glyph glyph-name="Cdotaccent" unicode="&#x10a;" horiz-adv-x="1148" 
d="M608 -31q-236 0 -363 151q-128 151 -128 396q0 388 205 643q98 123 238 194t319 71t329 -91l-88 -194q-112 67 -268 67q-96 0 -181 -53t-149 -143q-138 -195 -137 -461q0 -160 65 -261t185 -102q155 0 297 68l47 -195q-188 -90 -371 -90zM918 1534q-119 0 -119 124
q0 62 50 110q51 48 119 48t99 -30t31 -92t-51 -111t-129 -49z" />
    <glyph glyph-name="cdotaccent" unicode="&#x10b;" horiz-adv-x="917" 
d="M63 379q0 276 160 458q160 181 420 181q145 0 256 -62l-72 -188q-108 43 -175 43q-68 0 -126 -28q-119 -57 -174 -206q-26 -75 -26 -179t50 -162q50 -60 132 -60t203 43l28 -188q-135 -60 -255 -61q-211 -2 -316 112q-105 113 -105 297zM712 1450q130 0 130 -124
q0 -62 -51 -110t-129 -49q-119 -1 -119 123q0 62 50 111q51 49 119 49z" />
    <glyph glyph-name="Ccaron" unicode="&#x10c;" horiz-adv-x="1148" 
d="M608 -31q-236 0 -363 151q-128 151 -128 396q0 388 205 643q98 123 238 194t319 71t329 -91l-88 -194q-112 67 -268 67q-96 0 -181 -53t-149 -143q-138 -195 -137 -461q0 -160 65 -261t185 -102q155 0 297 68l47 -195q-188 -90 -371 -90zM649 1815l4 20h199l80 -162
l145 162h215l-4 -20l-266 -279h-225z" />
    <glyph glyph-name="ccaron" unicode="&#x10d;" horiz-adv-x="917" 
d="M63 379q0 276 160 458q160 181 420 181q145 0 256 -62l-72 -188q-108 43 -175 43q-68 0 -126 -28q-119 -57 -174 -206q-26 -75 -26 -179t50 -162q50 -60 132 -60t203 43l28 -188q-135 -60 -255 -61q-211 -2 -316 112q-105 113 -105 297zM422 1440l4 20h199l59 -162
l129 162h213l-4 -20l-223 -279h-273z" />
    <glyph glyph-name="Dcaron" unicode="&#x10e;" horiz-adv-x="1316" 
d="M457 211q522 1 522 653q0 168 -71 242q-71 76 -244 76h-107l-207 -971h107zM1243 888q0 -888 -786 -888h-408l297 1393h367q530 0 530 -505zM555 1815l4 20h199l80 -162l145 162h215l-4 -20l-266 -279h-226z" />
    <glyph glyph-name="dcaron" unicode="&#x10f;" horiz-adv-x="1124" 
d="M628 811q-86 0 -139 -38t-90 -97q-73 -116 -73 -285q0 -92 36 -153q36 -62 113 -62q76 0 187 74l108 504q-56 57 -142 57zM555 1018q149 0 246 -103h2l110 519h252l-305 -1434h-186l-17 88h-4q-49 -43 -115 -81t-155 -38q-157 0 -237 111t-82 259q-1 148 34 266
q72 244 254 358q90 55 203 55zM1169 1073l113 320h258l-4 -21l-176 -319h-195z" />
    <glyph glyph-name="Dcroat" unicode="&#x110;" horiz-adv-x="1318" 
d="M459 211q522 1 522 653q0 168 -71 242q-71 76 -244 76h-107l-84 -389h199l-45 -211h-199l-78 -371h107zM1245 888q0 -888 -786 -888h-408l123 582h-96l45 211h96l129 600h367q530 0 530 -505z" />
    <glyph glyph-name="dcroat" unicode="&#x111;" horiz-adv-x="1124" 
d="M628 811q-86 0 -139 -38t-108 -126.5t-55 -255.5q0 -92 36.5 -153.5t115.5 -61.5t184 74l108 504q-56 57 -142 57zM383 -31q-159 0 -239.5 112t-80.5 259q0 283 138.5 480.5t353.5 197.5q90 0 151.5 -34t94.5 -69h2l43 203h-189l39 191h191l26 125h252l-26 -125h84
l-41 -191h-84l-238 -1118h-186l-17 88h-4q-49 -43 -115.5 -81t-154.5 -38z" />
    <glyph glyph-name="Emacron" unicode="&#x112;" horiz-adv-x="1116" 
d="M1171 1393l-45 -211h-569l-80 -371h510l-45 -211h-510l-82 -389h576l-43 -211h-834l297 1393h825zM528 1554l45 211h527l-45 -211h-527z" />
    <glyph glyph-name="emacron" unicode="&#x113;" horiz-adv-x="1038" 
d="M729 682q0 64 -31 108q-31 46 -92 46t-99 -22q-116 -67 -157 -228h363q16 32 16 96zM492 170q109 0 274 74l43 -187q-186 -88 -370 -88t-281 116t-97 294q0 256 155 447q155 192 390 192q173 0 261 -96q89 -96 89 -238t-61 -262h-586q-16 -112 29 -182t154 -70zM414 1186
l45 211h526l-45 -211h-526z" />
    <glyph glyph-name="Ebreve" unicode="&#x114;" horiz-adv-x="1116" 
d="M1171 1393l-45 -211h-569l-80 -371h510l-45 -211h-510l-82 -389h576l-43 -211h-834l297 1393h825zM797 1536q-121 0 -223 94q-26 25 -44 49l82 146q97 -70 224 -70t258 70l34 -160q-156 -129 -331 -129z" />
    <glyph glyph-name="ebreve" unicode="&#x115;" horiz-adv-x="1038" 
d="M729 682q0 64 -31 108q-31 46 -92 46t-99 -22q-116 -67 -157 -228h363q16 32 16 96zM492 170q109 0 274 74l43 -187q-186 -88 -370 -88t-281 116t-97 294q0 256 155 447q155 192 390 192q173 0 261 -96q89 -96 89 -238t-61 -262h-586q-16 -112 29 -182t154 -70zM717 1380
q130 0 256 70l35 -160q-156 -129 -330 -129q-126 0 -224 94q-26 25 -44 50l84 145q93 -70 223 -70z" />
    <glyph glyph-name="Edotaccent" unicode="&#x116;" horiz-adv-x="1116" 
d="M1171 1393l-45 -211h-569l-80 -371h510l-45 -211h-510l-82 -389h576l-43 -211h-834l297 1393h825zM797 1534q-119 0 -119 124q0 62 50 110t118 48t100 -30q31 -30 31 -92t-51 -111t-129 -49z" />
    <glyph glyph-name="edotaccent" unicode="&#x117;" horiz-adv-x="1038" 
d="M729 682q0 64 -31 108q-31 46 -92 46t-99 -22q-116 -67 -157 -228h363q16 32 16 96zM492 170q109 0 274 74l43 -187q-186 -88 -370 -88t-281 116t-97 294q0 256 155 447q155 192 390 192q173 0 261 -96q89 -96 89 -238t-61 -262h-586q-16 -112 29 -182t154 -70zM722 1450
q130 0 130 -124q0 -62 -51 -110t-129 -49q-119 -1 -119 123q0 62 50 111q51 49 119 49z" />
    <glyph glyph-name="Eogonek" unicode="&#x118;" horiz-adv-x="1116" 
d="M741.5 -258q59.5 0 106.5 37l-6 -164q-35 -20 -88.5 -35.5t-94.5 -15.5q-88 0 -136 50t-48 128q0 139 197 258h-623l297 1393h825l-45 -211h-569l-80 -371h510l-45 -211h-510l-82 -389h576l-43 -211q-73 -24 -137 -86.5t-64 -117.5q0 -54 59.5 -54z" />
    <glyph glyph-name="eogonek" unicode="&#x119;" horiz-adv-x="1038" 
d="M729 682q0 64 -30.5 109t-92.5 45q-100 0 -165.5 -75t-90.5 -175h363q16 32 16 96zM340 -260q0 125 123 225v4h-27q-179 0 -277 115.5t-98 294.5q0 256 155 447.5t390 191.5q172 0 261 -96t89 -238t-61 -262h-586q-16 -111 29 -181.5t153 -70.5t275 74l43 -187
q-18 -10 -38.5 -18.5t-45.5 -22.5q-65 -38 -119.5 -94t-54.5 -118t58 -62t110 37l-6 -164q-33 -20 -86.5 -35.5t-94.5 -15.5q-98 0 -145 52t-47 124z" />
    <glyph glyph-name="Ecaron" unicode="&#x11a;" horiz-adv-x="1116" 
d="M1171 1393l-45 -211h-569l-80 -371h510l-45 -211h-510l-82 -389h576l-43 -211h-834l297 1393h825zM543 1815l4 20h198l80 -162l146 162h215l-4 -20l-267 -279h-225z" />
    <glyph glyph-name="ecaron" unicode="&#x11b;" horiz-adv-x="1038" 
d="M729 682q0 64 -31 108q-31 46 -92 46t-99 -22q-116 -67 -157 -228h363q16 32 16 96zM492 170q109 0 274 74l43 -187q-186 -88 -370 -88t-281 116t-97 294q0 256 155 447q155 192 390 192q173 0 261 -96q89 -96 89 -238t-61 -262h-586q-16 -112 29 -182t154 -70zM430 1440
l4 20h199l59 -162l129 162h213l-4 -20l-223 -279h-272z" />
    <glyph glyph-name="Gcircumflex" unicode="&#x11c;" horiz-adv-x="1292" 
d="M377 522q0 -147 59 -241q59 -95 185 -95t219 43l61 293l-209 37l37 174h473l-135 -651q-226 -113 -466 -113t-364 154t-122 395q0 172 50 335q105 343 393 494q146 77 347 77t387 -105l-92 -197q-154 86 -328 84q-245 0 -377 -216q-118 -191 -118 -468zM1225 1556l-4 -20
h-199l-80 162l-145 -162h-215l4 20l266 279h225z" />
    <glyph glyph-name="gcircumflex" unicode="&#x11d;" horiz-adv-x="1122" 
d="M553 1018q152 0 270 -121h4l52 90h188l-205 -964q-47 -217 -180 -338t-334 -121t-342 92l92 178q121 -80 241 -80t180 65t87 187l17 76h-5q-109 -99 -251 -98q-141 1 -221 106q-80 106 -82 253q-2 284 131 473q63 90 154 146t204 56zM624 811q-148 0 -222 -125t-74 -289
q0 -92 36 -149q36 -58 116 -58t182 70l104 494q-56 57 -142 57zM1012 1182l-4 -21h-199l-59 162l-127 -162h-215l4 21l223 278h272z" />
    <glyph glyph-name="Gbreve" unicode="&#x11e;" horiz-adv-x="1292" 
d="M377 522q0 -147 59 -241q59 -95 185 -95t219 43l61 293l-209 37l37 174h473l-135 -651q-226 -113 -466 -113t-364 154t-122 395q0 172 50 335q105 343 393 494q146 77 347 77t387 -105l-92 -197q-154 86 -328 84q-245 0 -377 -216q-118 -191 -118 -468zM1237 1665
q-156 -129 -324 -129q-167 0 -274 143l82 146q97 -70 224 -70q126 0 257 70z" />
    <glyph glyph-name="gbreve" unicode="&#x11f;" horiz-adv-x="1122" 
d="M553 1018q152 0 270 -121h4l52 90h188l-205 -964q-47 -217 -180 -338t-334 -121t-342 92l92 178q121 -80 241 -80t180 65t87 187l17 76h-5q-109 -99 -251 -98q-141 1 -221 106q-80 106 -82 253q-2 284 131 473q63 90 154 146t204 56zM624 811q-148 0 -222 -125t-74 -289
q0 -92 36 -149q36 -58 116 -58t182 70l104 494q-56 57 -142 57zM746 1380q131 0 255 70l35 -160q-156 -129 -329 -129q-123 0 -225 94q-26 25 -44 50l84 145q93 -70 224 -70z" />
    <glyph glyph-name="Gdotaccent" unicode="&#x120;" horiz-adv-x="1292" 
d="M377 522q0 -147 59 -241q59 -95 185 -95t219 43l61 293l-209 37l37 174h473l-135 -651q-226 -113 -466 -113t-364 154t-122 395q0 172 50 335q105 343 393 494q146 77 347 77t387 -105l-92 -197q-154 86 -328 84q-245 0 -377 -216q-118 -191 -118 -468zM905 1534
q-119 0 -119 124q0 62 50 110t120 48q68 0 99 -30t31 -92t-52 -111q-51 -49 -129 -49z" />
    <glyph glyph-name="gdotaccent" unicode="&#x121;" horiz-adv-x="1122" 
d="M553 1018q152 0 270 -121h4l52 90h188l-205 -964q-47 -217 -180 -338t-334 -121t-342 92l92 178q121 -80 241 -80t180 65t87 187l17 76h-5q-109 -99 -251 -98q-141 1 -221 106q-80 106 -82 253q-2 284 131 473q63 90 154 146t204 56zM624 811q-148 0 -222 -125t-74 -289
q0 -92 36 -149q36 -58 116 -58t182 70l104 494q-56 57 -142 57zM756 1450q130 0 131 -124q0 -62 -51 -110t-129 -49q-119 -1 -119 123q0 62 50 111t118 49z" />
    <glyph glyph-name="uni0122" unicode="&#x122;" horiz-adv-x="1292" 
d="M377 522q0 -147 59 -241q59 -95 185 -95t219 43l61 293l-209 37l37 174h473l-135 -651q-226 -113 -466 -113t-364 154t-122 395q0 172 50 335q105 343 393 494q146 77 347 77t387 -105l-92 -197q-154 86 -328 84q-245 0 -377 -216q-118 -191 -118 -468zM317 -446l117 340
h250l-4 -21l-176 -319h-187z" />
    <glyph glyph-name="uni0123" unicode="&#x123;" horiz-adv-x="1122" 
d="M553 1018q152 0 270 -121h4l52 90h188l-205 -964q-47 -217 -180 -338t-334 -121t-342 92l92 178q121 -80 241 -80t180 65t87 187l17 76h-5q-109 -99 -251 -98q-141 1 -221 106q-80 106 -82 253q-2 284 131 473q63 90 154 146t204 56zM624 811q-148 0 -222 -125t-74 -289
q0 -92 36 -149q36 -58 116 -58t182 70l104 494q-56 57 -142 57zM938 1460l-115 -319h-248l5 20l176 320h186z" />
    <glyph glyph-name="Hcircumflex" unicode="&#x124;" horiz-adv-x="1366" 
d="M942 600h-510l-127 -600h-256l297 1393h256l-125 -582h510l123 582h256l-295 -1393h-256zM1200 1556l-4 -20h-199l-79 162l-146 -162h-215l4 20l266 279h226z" />
    <glyph glyph-name="hcircumflex" unicode="&#x125;" horiz-adv-x="1110" 
d="M628 811q-72 0 -121 -32q-48 -32 -83 -66l-154 -713h-252l306 1434h251l-112 -527h4q45 37 110 74t150 37q166 0 234 -104t26 -296l-133 -618h-252l129 604q23 98 -4 152t-99 55zM1083 1556l-4 -20h-198l-80 162l-146 -162h-215l4 20l267 279h225z" />
    <glyph glyph-name="Hbar" unicode="&#x126;" horiz-adv-x="1370" 
d="M991 811l43 203h-510l-43 -203h510zM1290 1014l-215 -1014h-256l127 600h-510l-127 -600h-256l215 1014h-94l45 211h94l37 168h256l-37 -168h510l35 168h256l-35 -168h97l-46 -211h-96z" />
    <glyph glyph-name="hbar" unicode="&#x127;" horiz-adv-x="1110" 
d="M628 811q-72 0 -120.5 -31.5t-83.5 -66.5l-154 -713h-252l238 1116h-86l39 191h88l27 127h251l-26 -127h186l-41 -191h-186l-45 -209h4q45 37 109.5 74t150.5 37q166 0 233.5 -103.5t26.5 -296.5l-133 -618h-252l129 604q23 98 -4 152.5t-99 54.5z" />
    <glyph glyph-name="Itilde" unicode="&#x128;" horiz-adv-x="600" 
d="M305 0h-256l297 1393h256zM424 1837q61 0 130 -46q76 -46 114 -46q39 0 82 19t71 51l29 -140q-98 -137 -209 -137q-60 0 -137 46q-31 18 -60 32t-61 14q-82 0 -143 -71l-29 143q97 135 213 135z" />
    <glyph glyph-name="itilde" unicode="&#x129;" horiz-adv-x="534" 
d="M313 1460q61 0 130 -46q76 -46 114 -46q39 0 82 20t72 50l28 -140q-98 -137 -209 -137q-53 -1 -111 31q-57 32 -85 46t-62 15q-80 0 -143 -71l-29 143q97 135 213 135zM20 0l209 987h252l-209 -987h-252z" />
    <glyph glyph-name="Imacron" unicode="&#x12a;" horiz-adv-x="600" 
d="M305 0h-256l297 1393h256zM238 1554l45 211h526l-45 -211h-526z" />
    <glyph glyph-name="imacron" unicode="&#x12b;" horiz-adv-x="534" 
d="M133 1186l45 211h527l-46 -211h-526zM20 0l209 987h252l-209 -987h-252z" />
    <glyph glyph-name="Ibreve" unicode="&#x12c;" horiz-adv-x="600" 
d="M305 0h-256l297 1393h256zM539 1755q127 0 258 70l34 -160q-156 -129 -321 -129q-164 0 -277 143l82 146q97 -70 224 -70z" />
    <glyph glyph-name="ibreve" unicode="&#x12d;" horiz-adv-x="534" 
d="M430 1380q130 0 256 70l35 -160q-156 -129 -330 -129q-126 0 -224 94q-26 25 -44 50l84 145q93 -70 223 -70zM20 0l209 987h252l-209 -987h-252z" />
    <glyph glyph-name="Iogonek" unicode="&#x12e;" horiz-adv-x="600" 
d="M80 -203q0 -55 58.5 -55t105.5 37l-4 -164q-33 -20 -86.5 -35.5t-94.5 -15.5q-90 0 -139 50t-49 112q0 102 48.5 163t129.5 111l297 1393h256l-297 -1393q-158 -39 -191.5 -107.5t-33.5 -95.5z" />
    <glyph glyph-name="iogonek" unicode="&#x12f;" horiz-adv-x="536" 
d="M404 1167q-130 -1 -130 123q0 62 51 111t119 49q130 0 131 -123q0 -62 -52.5 -111t-118.5 -49zM47 -203q0 -55 60 -55t104 37l-4 -164q-33 -20 -86 -35.5t-94 -15.5q-90 0 -139.5 50t-49.5 112q0 100 49.5 162t130.5 114l211 985h252l-211 -987q-156 -40 -189.5 -108
t-33.5 -95z" />
    <glyph glyph-name="Idotaccent" unicode="&#x130;" horiz-adv-x="600" 
d="M305 0h-256l297 1393h256zM500 1534q-119 0 -119 124q0 62 50 110q51 48 119 48t99 -30t31 -92t-51 -111t-129 -49z" />
    <glyph glyph-name="dotlessi" unicode="&#x131;" horiz-adv-x="536" 
d="M20 0l209 987h252l-209 -987h-252z" />
    <glyph glyph-name="IJ" unicode="&#x132;" horiz-adv-x="1519" 
d="M305 0h-256l297 1393h256zM876 186q78 0 124 65t69 175l205 967h256l-213 -1004q-91 -418 -477 -420q-106 0 -186 45t-122 101l154 178q33 -41 72 -74q40 -33 118 -33z" />
    <glyph glyph-name="ij" unicode="&#x133;" horiz-adv-x="1075" 
d="M446 1450q132 0 130 -124q0 -62 -52 -110q-51 -48 -129 -49q-119 -1 -119 123q0 62 50 111q52 49 120 49zM20 0l209 987h252l-209 -987h-252zM944 1167q-130 -1 -131 123q0 62 50 111q49 49 117 49q132 0 132 -124q0 -62 -51 -111q-51 -48 -117 -48zM416 -246
q85 0 119 144l231 1089h254l-232 -1087q-71 -336 -372 -336q-74 0 -142 14l41 191q58 -15 101 -15z" />
    <glyph glyph-name="Jcircumflex" unicode="&#x134;" horiz-adv-x="919" 
d="M276 186q78 0 124 65t69 175l205 967h256l-213 -1004q-91 -418 -477 -420q-106 0 -186 45t-122 101l154 178q33 -41 72 -74q40 -33 118 -33zM1165 1556l-4 -20h-198l-80 162l-146 -162h-215l4 20l267 279h225z" />
    <glyph glyph-name="jcircumflex" unicode="&#x135;" horiz-adv-x="534" 
d="M-221 -231q57 -15 100 -15q87 0 119 144l231 1089h254l-231 -1087q-71 -336 -373 -336q-73 0 -141 14zM694 1182l-4 -21h-198l-60 162l-127 -162h-215l4 21l223 278h273z" />
    <glyph glyph-name="uni0136" unicode="&#x136;" horiz-adv-x="1206" 
d="M438 627l-133 -627h-256l297 1393h256l-145 -676h4l569 676h301l-4 -21l-629 -715l365 -637l-4 -20h-283l-334 627h-4zM225 -426l113 320h250l-4 -21l-176 -319h-187z" />
    <glyph glyph-name="uni0137" unicode="&#x137;" horiz-adv-x="1015" 
d="M369 459l-99 -459h-252l306 1434h251l-190 -891h4l379 444h289l-4 -18l-430 -486l243 -463l-4 -20h-270l-219 459h-4zM141 -426l113 320h250l-4 -21l-176 -319h-187z" />
    <glyph glyph-name="kgreenlandic" unicode="&#x138;" horiz-adv-x="1017" 
d="M369 453l-97 -453h-252l209 987h252l-94 -450h4l377 450h291l-4 -18l-439 -490l252 -459l-4 -20h-272l-219 453h-4z" />
    <glyph glyph-name="Lacute" unicode="&#x139;" horiz-adv-x="1005" 
d="M602 1393l-250 -1172h527l-48 -221h-782l297 1393h256zM850 1817l-229 -281h-244l4 20l186 279h287z" />
    <glyph glyph-name="lacute" unicode="&#x13a;" horiz-adv-x="534" 
d="M18 0l306 1434h251l-305 -1434h-252zM811 1817l-229 -281h-244l4 20l186 279h287z" />
    <glyph glyph-name="uni013B" unicode="&#x13b;" horiz-adv-x="1005" 
d="M602 1393l-250 -1172h527l-48 -221h-782l297 1393h256zM186 -426l113 320h250l-4 -21l-176 -319h-187z" />
    <glyph glyph-name="uni013C" unicode="&#x13c;" horiz-adv-x="534" 
d="M18 0l306 1434h251l-305 -1434h-252zM-125 -426l113 320h250l-5 -21l-176 -319h-186z" />
    <glyph glyph-name="Lcaron" unicode="&#x13d;" horiz-adv-x="1005" 
d="M602 1393l-250 -1172h527l-48 -221h-782l297 1393h256zM674 1073l112 320h258l-4 -21l-176 -319h-194z" />
    <glyph glyph-name="lcaron" unicode="&#x13e;" horiz-adv-x="534" 
d="M18 0l306 1434h251l-305 -1434h-252zM573 1073l113 320h258l-4 -21l-176 -319h-195z" />
    <glyph glyph-name="Ldot" unicode="&#x13f;" horiz-adv-x="1009" 
d="M602 1393l-250 -1172h527l-48 -221h-782l297 1393h256zM824 901q143 -1 143 -149q1 -72 -59 -130t-134 -58t-107 36q-34 37 -34 88q0 95 59 154t132 59z" />
    <glyph glyph-name="ldot" unicode="&#x140;" horiz-adv-x="735" 
d="M18 0l306 1434h251l-305 -1434h-252zM690 901q144 -1 144 -149q0 -72 -60 -130t-132 -58q-74 0 -108 36q-34 37 -34 88q0 95 59 154t131 59z" />
    <glyph glyph-name="Lslash" unicode="&#x141;" horiz-adv-x="1032" 
d="M631 1393l-111 -514l219 110h17l-47 -223l-238 -121l-90 -424h528l-47 -221h-784l108 504l-141 -72h-18l47 223l162 82l139 656h256z" />
    <glyph glyph-name="lslash" unicode="&#x142;" horiz-adv-x="659" 
d="M66 0l104 487l-121 -59h-18l47 223l141 70l152 713h252l-121 -572l160 82h18l-47 -223l-180 -92l-136 -629h-251z" />
    <glyph glyph-name="Nacute" unicode="&#x143;" horiz-adv-x="1394" 
d="M952 342l21 270l166 781h256l-295 -1393h-262l-340 1049h-6l-21 -271l-166 -778h-256l297 1393h262l338 -1051h6zM1235 1817l-229 -281h-244l4 20l186 279h287z" />
    <glyph glyph-name="nacute" unicode="&#x144;" horiz-adv-x="1112" 
d="M731 1018q162 0 230 -104t26 -300l-131 -614h-252l129 604q48 207 -108 207q-106 0 -201 -98l-152 -713h-252l209 987h205l12 -94h5q67 58 131 92q64 33 149 33zM1047 1442l-248 -281h-226l5 21l202 278h271z" />
    <glyph glyph-name="uni0145" unicode="&#x145;" horiz-adv-x="1394" 
d="M952 342l21 270l166 781h256l-295 -1393h-262l-340 1049h-6l-21 -271l-166 -778h-256l297 1393h262l338 -1051h6zM303 -426l113 320h250l-4 -21l-177 -319h-186z" />
    <glyph glyph-name="uni0146" unicode="&#x146;" horiz-adv-x="1112" 
d="M731 1018q162 0 230 -104t26 -300l-131 -614h-252l129 604q48 207 -108 207q-106 0 -201 -98l-152 -713h-252l209 987h205l12 -94h5q67 58 131 92q64 33 149 33zM172 -426l113 320h250l-5 -21l-176 -319h-186z" />
    <glyph glyph-name="Ncaron" unicode="&#x147;" horiz-adv-x="1394" 
d="M952 342l21 270l166 781h256l-295 -1393h-262l-340 1049h-6l-21 -271l-166 -778h-256l297 1393h262l338 -1051h6zM639 1815l4 20h199l80 -162l145 162h215l-4 -20l-266 -279h-226z" />
    <glyph glyph-name="ncaron" unicode="&#x148;" horiz-adv-x="1112" 
d="M731 1018q162 0 230 -104t26 -300l-131 -614h-252l129 604q48 207 -108 207q-106 0 -201 -98l-152 -713h-252l209 987h205l12 -94h5q67 58 131 92q64 33 149 33zM451 1440l4 20h198l60 -162l129 162h213l-4 -20l-224 -279h-272z" />
    <glyph glyph-name="napostrophe" unicode="&#x149;" horiz-adv-x="1110" 
d="M731 1018q162 0 230 -104t26 -300l-131 -614h-252l129 604q48 207 -108 207q-106 0 -201 -98l-152 -713h-252l209 987h205l12 -94h5q67 58 131 92q64 33 149 33zM43 1073l113 320h258l-4 -21l-177 -319h-194z" />
    <glyph glyph-name="Eng" unicode="&#x14a;" horiz-adv-x="1394" 
d="M709 -246q84 0 114 144l23 108l-342 1051h-6l-27 -279l-166 -778h-256l297 1393h270l326 -1053h6l25 272l166 781h258l-316 -1481q-41 -186 -135 -267t-235 -81q-78 0 -146 14l41 191q43 -15 103 -15z" />
    <glyph glyph-name="eng" unicode="&#x14b;" horiz-adv-x="1112" 
d="M469 -246q84 0 115 144l149 706q48 207 -108 207q-105 0 -199 -94l-154 -717h-252l209 987h205l12 -94h5q23 18 90 71.5t190 53.5q160 0 229.5 -102.5t28.5 -294.5l-151 -709q-41 -186 -135.5 -267t-235.5 -81q-80 0 -145 14l40 191q43 -15 107 -15z" />
    <glyph glyph-name="Omacron" unicode="&#x14c;" horiz-adv-x="1425" 
d="M1358 852q0 -142 -47 -307q-47 -164 -141 -292t-236 -206q-141 -78 -330 -78q-243 0 -366 153t-121 390q0 172 47 336q99 345 377 498q141 78 331 77q125 0 218 -42q268 -122 268 -529zM381 546q0 -359 248 -360q127 0 215 67t143 168q105 193 105 437t-133 322
q-46 27 -113 26q-125 0 -213 -65q-173 -129 -227 -384q-26 -119 -25 -211zM659 1554l46 211h526l-45 -211h-527z" />
    <glyph glyph-name="omacron" unicode="&#x14d;" horiz-adv-x="1120" 
d="M1022 588q0 -106 -39 -222t-113 -204q-161 -191 -419 -193q-184 0 -286 117t-102 295q0 269 159 453t411 184q188 0 292 -119q97 -111 97 -311zM324 384q0 -93 37 -151q38 -57 108 -57q131 0 210 119t81 301q0 100 -38 158t-109 57q-71 0 -123 -34t-89 -90t-57 -133
t-20 -170zM424 1186l45 211h526l-45 -211h-526z" />
    <glyph glyph-name="Obreve" unicode="&#x14e;" horiz-adv-x="1425" 
d="M1358 852q0 -142 -47 -307q-47 -164 -141 -292t-236 -206q-141 -78 -330 -78q-243 0 -366 153t-121 390q0 172 47 336q99 345 377 498q141 78 331 77q125 0 218 -42q268 -122 268 -529zM381 546q0 -359 248 -360q127 0 215 67t143 168q105 193 105 437t-133 322
q-46 27 -113 26q-125 0 -213 -65q-173 -129 -227 -384q-26 -119 -25 -211zM735 1825q97 -70 224 -70t258 70l34 -160q-156 -129 -331 -129q-121 0 -223 94q-26 25 -44 49z" />
    <glyph glyph-name="obreve" unicode="&#x14f;" horiz-adv-x="1120" 
d="M1022 588q0 -106 -39 -222t-113 -204q-161 -191 -419 -193q-184 0 -286 117t-102 295q0 269 159 453t411 184q188 0 292 -119q97 -111 97 -311zM324 384q0 -93 37 -151q38 -57 108 -57q131 0 210 119t81 301q0 100 -38 158t-109 57q-71 0 -123 -34t-89 -90t-57 -133
t-20 -170zM719 1380q130 0 256 70l35 -160q-156 -129 -330 -129q-126 0 -224 94q-26 25 -44 50l84 145q93 -70 223 -70z" />
    <glyph glyph-name="Ohungarumlaut" unicode="&#x150;" horiz-adv-x="1425" 
d="M1358 852q0 -142 -47 -307q-47 -164 -141 -292t-236 -206q-141 -78 -330 -78q-243 0 -366 153t-121 390q0 172 47 336q99 345 377 498q141 78 331 77q125 0 218 -42q268 -122 268 -529zM381 546q0 -359 248 -360q127 0 215 67t143 168q105 193 105 437t-133 322
q-46 27 -113 26q-125 0 -213 -65q-173 -129 -227 -384q-26 -119 -25 -211zM1483 1815l-246 -279h-225l4 20l205 279h266zM1100 1815l-246 -279h-225l4 20l203 279h268z" />
    <glyph glyph-name="ohungarumlaut" unicode="&#x151;" horiz-adv-x="1120" 
d="M1022 588q0 -106 -39 -222t-113 -204q-161 -191 -419 -193q-184 0 -286 117t-102 295q0 269 159 453t411 184q188 0 292 -119q97 -111 97 -311zM324 384q0 -93 37 -151q38 -57 108 -57q131 0 210 119t81 301q0 100 -38 158t-109 57q-71 0 -123 -34t-89 -90t-57 -133
t-20 -170zM1227 1442l-246 -281h-225l4 21l205 278h266zM844 1442l-246 -281h-225l4 21l203 278h268z" />
    <glyph glyph-name="OE" unicode="&#x152;" horiz-adv-x="1851" 
d="M658 186q96 0 178 47l196 926q-66 47 -188 47t-210.5 -65.5t-170.5 -211.5t-82 -393t90.5 -298.5t186.5 -51.5zM580 -31q-103 0 -195 42t-180 151.5t-88 351.5q0 370 141 562t282.5 269.5t305.5 77.5t244 -30h817l-45 -211h-568l-80 -371h510l-43 -211h-512l-82 -389h576
l-45 -211h-827q-108 -31 -211 -31z" />
    <glyph glyph-name="oe" unicode="&#x153;" horiz-adv-x="1716" 
d="M1407 682q0 64 -30.5 109t-92.5 45q-100 0 -168 -74.5t-94 -175.5h369q16 32 16 96zM324 384q0 -93 37.5 -150.5t107.5 -57.5q131 0 211 121t80 299q0 100 -38 157.5t-109 57.5t-123 -34t-88.5 -90t-57 -133t-20.5 -170zM1169 170q108 0 275 74l43 -187
q-186 -88 -380 -88q-193 0 -282 152q-144 -152 -374 -152q-184 0 -286 116.5t-102 295.5q0 267 159.5 452t410.5 185q213 0 305 -154q141 154 346 154q172 0 261 -96t89 -236q0 -139 -61 -264h-586q-16 -111 29 -181.5t153 -70.5z" />
    <glyph glyph-name="Racute" unicode="&#x154;" horiz-adv-x="1251" 
d="M721 772q102 0 166 73q63 73 63 187q0 66 -35 108t-106 42h-252l-88 -410h252zM846 1393q182 0 277 -86t96 -234q-1 -182 -89 -314t-276 -179l217 -547l-8 -33h-258l-203 561h-178l-119 -561h-256l297 1393h500zM1135 1817l-230 -281h-243l4 20l186 279h287z" />
    <glyph glyph-name="racute" unicode="&#x155;" horiz-adv-x="720" 
d="M614 803q-57 0 -110 -37t-82 -74l-150 -692h-252l209 987h207l10 -117h5q52 72 85 97q66 51 142 51q36 0 84 -12l-45 -211q-46 8 -103 8zM852 1442l-248 -281h-225l4 21l203 278h270z" />
    <glyph glyph-name="uni0156" unicode="&#x156;" horiz-adv-x="1251" 
d="M721 772q102 0 166 73q63 73 63 187q0 66 -35 108t-106 42h-252l-88 -410h252zM846 1393q182 0 277 -86t96 -234q-1 -182 -89 -314t-276 -179l217 -547l-8 -33h-258l-203 561h-178l-119 -561h-256l297 1393h500zM233 -426l113 320h250l-4 -21l-176 -319h-187z" />
    <glyph glyph-name="uni0157" unicode="&#x157;" horiz-adv-x="720" 
d="M614 803q-57 0 -110 -37t-82 -74l-150 -692h-252l209 987h207l10 -117h5q52 72 85 97q66 51 142 51q36 0 84 -12l-45 -211q-46 8 -103 8zM-117 -426l113 320h250l-4 -21l-176 -319h-187z" />
    <glyph glyph-name="Rcaron" unicode="&#x158;" horiz-adv-x="1251" 
d="M721 772q102 0 166 73q63 73 63 187q0 66 -35 108t-106 42h-252l-88 -410h252zM846 1393q182 0 277 -86t96 -234q-1 -182 -89 -314t-276 -179l217 -547l-8 -33h-258l-203 561h-178l-119 -561h-256l297 1393h500zM541 1815l4 20h198l80 -162l146 162h215l-4 -20l-267 -279
h-225z" />
    <glyph glyph-name="rcaron" unicode="&#x159;" horiz-adv-x="720" 
d="M614 803q-57 0 -110 -37t-82 -74l-150 -692h-252l209 987h207l10 -117h5q52 72 85 97q66 51 142 51q36 0 84 -12l-45 -211q-46 8 -103 8zM285 1440l4 20h198l60 -162l129 162h213l-4 -20l-223 -279h-273z" />
    <glyph glyph-name="Sacute" unicode="&#x15a;" horiz-adv-x="1060" 
d="M111 301q135 -115 323 -115q104 0 172 56t68 160q0 103 -135 178l-123 67q-104 57 -162 143t-59 187q0 204 144 326t392 120q172 0 328 -94l-103 -199q-128 76 -249 76t-181 -58t-61 -153q0 -95 94 -145l129 -72q108 -59 182 -148q74 -90 74 -198q0 -209 -151 -336
q-155 -127 -382 -127t-403 135zM1092 1817l-230 -281h-244l5 20l186 279h287z" />
    <glyph glyph-name="sacute" unicode="&#x15b;" horiz-adv-x="897" 
d="M506 281q0 67 -96 106l-109 47q-122 49 -168 160q-16 39 -16 88q0 162 106 249q105 87 293 87t332 -72l-84 -182q-112 57 -242 57q-154 0 -153 -108q0 -66 88 -103l108 -47q78 -35 135 -96t58 -154q0 -174 -112 -259t-312 -85t-344 94l92 185q129 -84 264 -82
q160 0 160 115zM915 1442l-247 -281h-226l4 21l203 278h271z" />
    <glyph glyph-name="Scircumflex" unicode="&#x15c;" horiz-adv-x="1060" 
d="M111 301q135 -115 323 -115q104 0 172 56t68 160q0 103 -135 178l-123 67q-104 57 -162 143t-59 187q0 204 144 326t392 120q172 0 328 -94l-103 -199q-128 76 -249 76t-181 -58t-61 -153q0 -95 94 -145l129 -72q108 -59 182 -148q74 -90 74 -198q0 -209 -151 -336
q-155 -127 -382 -127t-403 135zM1057 1556l-4 -20h-199l-80 162l-145 -162h-215l4 20l266 279h225z" />
    <glyph glyph-name="scircumflex" unicode="&#x15d;" horiz-adv-x="897" 
d="M506 281q0 67 -96 106l-109 47q-122 49 -168 160q-16 39 -16 88q0 162 106 249q105 87 293 87t332 -72l-84 -182q-112 57 -242 57q-154 0 -153 -108q0 -66 88 -103l108 -47q78 -35 135 -96t58 -154q0 -174 -112 -259t-312 -85t-344 94l92 185q129 -84 264 -82
q160 0 160 115zM877 1182l-5 -21h-198l-60 162l-127 -162h-215l4 21l224 278h272z" />
    <glyph glyph-name="Scedilla" unicode="&#x15e;" horiz-adv-x="1060" 
d="M111 301q135 -115 323 -115q104 0 172 56.5t68 159.5t-135 178l-123 67q-104 57 -162.5 142t-58.5 187q0 205 142.5 326t393.5 121q172 0 328 -94l-103 -199q-128 76 -249 76t-181.5 -58t-60.5 -152t94 -146l129 -72q109 -59 182.5 -148.5t73.5 -195.5
q0 -197 -132 -320.5t-353 -142.5l-39 -63q96 -20 96 -118q0 -97 -62.5 -161.5t-185.5 -64.5q-74 0 -129 24l41 129q39 -16 74 -16q74 0 74 61q0 33 -32 39t-63 6l-4 13l86 155q-169 21 -307 129z" />
    <glyph glyph-name="scedilla" unicode="&#x15f;" horiz-adv-x="897" 
d="M506 281q0 68 -96 106l-109 47q-120 48 -152 123.5t-32 124.5q0 162 106.5 249t293.5 87t331 -72l-84 -182q-112 57 -242 57q-154 0 -153 -108q0 -66 88 -103l108 -47q78 -35 135.5 -96t57.5 -154q0 -162 -97.5 -245.5t-271.5 -96.5l-39 -63q96 -20 96 -118
q0 -97 -62 -161.5t-185 -64.5q-76 0 -129 24l41 129q39 -16 73 -16q74 0 74 61q0 33 -31.5 39t-62.5 6l-4 13l86 155q-151 20 -256 88l92 185q126 -82 264 -82q160 0 160 115z" />
    <glyph glyph-name="Scaron" unicode="&#x160;" horiz-adv-x="1060" 
d="M111 301q135 -115 323 -115q104 0 172 56t68 160q0 103 -135 178l-123 67q-104 57 -162 143t-59 187q0 204 144 326t392 120q172 0 328 -94l-103 -199q-128 76 -249 76t-181 -58t-61 -153q0 -95 94 -145l129 -72q108 -59 182 -148q74 -90 74 -198q0 -209 -151 -336
q-155 -127 -382 -127t-403 135zM481 1815l4 20h199l80 -162l145 162h215l-4 -20l-266 -279h-225z" />
    <glyph glyph-name="scaron" unicode="&#x161;" horiz-adv-x="897" 
d="M506 281q0 67 -96 106l-109 47q-122 49 -168 160q-16 39 -16 88q0 162 106 249q105 87 293 87t332 -72l-84 -182q-112 57 -242 57q-154 0 -153 -108q0 -66 88 -103l108 -47q78 -35 135 -96t58 -154q0 -174 -112 -259t-312 -85t-344 94l92 185q129 -84 264 -82
q160 0 160 115zM338 1440l4 20h199l59 -162l129 162h213l-4 -20l-223 -279h-273z" />
    <glyph glyph-name="uni0162" unicode="&#x162;" horiz-adv-x="1056" 
d="M514 -210q0 -97 -62.5 -161.5t-185.5 -64.5q-74 0 -129 24l41 129q39 -16 74 -16q74 0 74 61q0 33 -32 39t-63 6l-4 13l101 180h-52l252 1182h-346l45 211h949l-46 -211h-346l-252 -1182h-59l-55 -92q96 -21 96 -118z" />
    <glyph glyph-name="uni0163" unicode="&#x163;" horiz-adv-x="763" 
d="M430 -210q0 -97 -62.5 -161.5t-185.5 -64.5q-74 0 -129 24l41 129q39 -16 74 -16q74 0 74 61q0 33 -32 39t-63 6l-4 13l97 174q-147 59 -101 274l111 523h-158l29 139l170 57l49 230h252l-49 -230h252l-43 -196h-250l-107 -502q-25 -113 80 -113q57 0 146 27l-43 -203
q-120 -31 -193 -31h-14l-37 -61q96 -21 96 -118z" />
    <glyph glyph-name="Tcaron" unicode="&#x164;" horiz-adv-x="1056" 
d="M1176 1393l-46 -211h-346l-252 -1182h-256l252 1182h-346l45 211h949zM475 1815l4 20h199l80 -162l145 162h215l-4 -20l-266 -279h-225z" />
    <glyph glyph-name="tcaron" unicode="&#x165;" horiz-adv-x="763" 
d="M475 176q74 0 152 29l-43 -203q-111 -32 -199 -33q-313 0 -246 299l111 523h-158l29 139l170 57l49 230h252l-49 -230h243l-43 -196h-241l-107 -502q-25 -113 80 -113zM692 1073l113 320h258l-4 -21l-176 -319h-195z" />
    <glyph glyph-name="Tbar" unicode="&#x166;" horiz-adv-x="1056" 
d="M1176 1393l-46 -211h-346l-71 -334h207l-41 -197h-207l-140 -651h-256l140 651h-207l41 197h207l71 334h-346l45 211h949z" />
    <glyph glyph-name="tbar" unicode="&#x167;" horiz-adv-x="763" 
d="M475 176q57 0 146 27l-43 -203q-120 -31 -193 -31q-313 0 -246 299l35 170h-117l41 191h117l35 162h-158l29 139l170 57l49 230h252l-49 -230h252l-43 -196h-250l-35 -162h158l-41 -191h-158l-31 -149q-25 -113 80 -113z" />
    <glyph glyph-name="Utilde" unicode="&#x168;" horiz-adv-x="1341" 
d="M392 406q-3 -220 195 -220q252 0 331 367l178 840h258l-183 -865q-61 -279 -203 -419t-408 -140q-265 0 -365 154t-37 452l174 818h256l-178 -840q-16 -80 -18 -147zM786 1837q61 0 130 -46q76 -46 114 -46q39 0 82 19t72 51l28 -140q-98 -137 -208 -137q-59 0 -138 46
q-32 18 -60 32t-61 14q-80 0 -143 -71l-29 143q97 135 213 135z" />
    <glyph glyph-name="utilde" unicode="&#x169;" horiz-adv-x="1099" 
d="M436 176q68 0 118 32t85 62l154 717h251l-208 -987h-207l-15 94h-2q-136 -122 -272 -125q-166 -1 -229 103t-23 301l131 614h252l-129 -604q-23 -99 1 -153t93 -54zM590 1460q61 0 130 -46q76 -46 114 -46q40 0 82 20t71 50l29 -140q-98 -137 -209 -137q-56 -1 -112 31
t-85 46t-61 15q-82 0 -143 -71l-29 143q97 135 213 135z" />
    <glyph glyph-name="Umacron" unicode="&#x16a;" horiz-adv-x="1341" 
d="M392 406q-3 -220 195 -220q252 0 331 367l178 840h258l-183 -865q-61 -279 -203 -419t-408 -140q-265 0 -365 154t-37 452l174 818h256l-178 -840q-16 -80 -18 -147zM606 1554l45 211h527l-45 -211h-527z" />
    <glyph glyph-name="umacron" unicode="&#x16b;" horiz-adv-x="1099" 
d="M436 176q68 0 118 32t85 62l154 717h251l-208 -987h-207l-15 94h-2q-136 -122 -272 -125q-166 -1 -229 103t-23 301l131 614h252l-129 -604q-23 -99 1 -153t93 -54zM414 1186l45 211h526l-45 -211h-526z" />
    <glyph glyph-name="Ubreve" unicode="&#x16c;" horiz-adv-x="1341" 
d="M392 406q-3 -220 195 -220q252 0 331 367l178 840h258l-183 -865q-61 -279 -203 -419t-408 -140q-265 0 -365 154t-37 452l174 818h256l-178 -840q-16 -80 -18 -147zM676 1825q97 -70 224 -70q126 0 257 70l35 -160q-156 -129 -324 -129q-167 0 -274 143z" />
    <glyph glyph-name="ubreve" unicode="&#x16d;" horiz-adv-x="1099" 
d="M436 176q68 0 118 32t85 62l154 717h251l-208 -987h-207l-15 94h-2q-136 -122 -272 -125q-166 -1 -229 103t-23 301l131 614h252l-129 -604q-23 -99 1 -153t93 -54zM708 1380q130 0 257 70l34 -160q-156 -129 -329 -129q-123 0 -225 94q-26 25 -44 50l84 145
q93 -70 223 -70z" />
    <glyph glyph-name="Uring" unicode="&#x16e;" horiz-adv-x="1341" 
d="M392 406q-3 -220 195 -220q252 0 331 367l178 840h258l-183 -865q-61 -279 -203 -419t-408 -140q-265 0 -365 154t-37 452l174 818h256l-178 -840q-16 -80 -18 -147zM674 1648q0 136 76 207q74 74 175 74t154 -46q53 -45 53 -151t-73 -179q-74 -73 -193 -72
q-84 0 -138 46q-54 47 -54 121zM981 1726q0 64 -59 64q-41 0 -69 -30t-28 -72q0 -63 62 -64q41 0 67 29t27 73z" />
    <glyph glyph-name="uring" unicode="&#x16f;" horiz-adv-x="1099" 
d="M436 176q68 0 118 32t85 62l154 717h251l-208 -987h-207l-15 94h-2q-136 -122 -272 -125q-166 -1 -229 103t-23 301l131 614h252l-129 -604q-23 -99 1 -153t93 -54zM465 1258q0 197 160 263q49 19 121 19t124 -46q54 -46 54 -152t-74 -178q-74 -73 -193 -72
q-84 0 -138 46t-54 120zM772 1337q0 62 -59 64q-41 0 -69 -30t-28 -73q0 -63 62 -63q42 0 68 29t26 73z" />
    <glyph glyph-name="Uhungarumlaut" unicode="&#x170;" horiz-adv-x="1341" 
d="M392 406q-3 -220 195 -220q252 0 331 367l178 840h258l-183 -865q-61 -279 -203 -419t-408 -140q-265 0 -365 154t-37 452l174 818h256l-178 -840q-16 -80 -18 -147zM1409 1815l-246 -279h-225l4 20l205 279h266zM1026 1815l-246 -279h-225l4 20l203 279h268z" />
    <glyph glyph-name="uhungarumlaut" unicode="&#x171;" horiz-adv-x="1099" 
d="M436 176q68 0 118 32t85 62l154 717h251l-208 -987h-207l-15 94h-2q-136 -122 -272 -125q-166 -1 -229 103t-23 301l131 614h252l-129 -604q-23 -99 1 -153t93 -54zM1212 1442l-245 -281h-226l4 21l205 278h267zM829 1442l-245 -281h-226l4 21l203 278h269z" />
    <glyph glyph-name="Uogonek" unicode="&#x172;" horiz-adv-x="1341" 
d="M522 -178q0 -80 59.5 -80t108.5 37l-6 -164q-33 -20 -86 -35.5t-94 -15.5q-98 0 -145.5 52t-47.5 124q0 144 140 237q-410 62 -293 598l174 818h256l-178 -840q-73 -367 178 -367q128 0 210.5 96.5t119.5 270.5l178 840h258l-183 -865q-85 -395 -257.5 -471.5
t-292.5 -85.5q-47 -11 -73 -55t-26 -94z" />
    <glyph glyph-name="uogonek" unicode="&#x173;" horiz-adv-x="1099" 
d="M639 -203q0 -55 57 -55t109 37l-4 -164q-35 -20 -88.5 -35.5t-94.5 -15.5q-90 0 -139 50t-49 114q0 101 51 156.5t146 119.5l-13 90h-2q-139 -125 -272 -125q-166 0 -229.5 103.5t-22.5 300.5l131 614h252l-129 -604q-48 -207 100 -207q63 0 112.5 32t84.5 62l154 717
h251l-208 -987q-77 -26 -137 -87t-60 -116z" />
    <glyph glyph-name="Wcircumflex" unicode="&#x174;" horiz-adv-x="1857" 
d="M1980 1372l-622 -1372h-305l-13 819l17 340h-4l-131 -340l-361 -819h-307l-39 1372l4 21h266l-16 -809l-12 -346h4l131 346l352 809h301l6 -809l-14 -346h4l133 346l328 809h283zM1456 1556l-4 -20h-199l-79 162l-146 -162h-215l4 20l266 279h226z" />
    <glyph glyph-name="wcircumflex" unicode="&#x175;" horiz-adv-x="1560" 
d="M1589 967l-463 -967h-276l-35 584l8 202h-4l-80 -202l-282 -584h-275l-51 967l4 20h232l8 -581l-15 -199h5l81 199l271 581h274l25 -581l-2 -199h4l69 199l252 581h254zM1196 1182l-4 -21h-199l-59 162l-127 -162h-215l4 21l223 278h273z" />
    <glyph glyph-name="Ycircumflex" unicode="&#x176;" horiz-adv-x="1120" 
d="M446 1393l148 -598h4l401 598h285l-4 -21l-594 -807l-119 -565h-256l119 565l-252 807l4 21h264zM1092 1556l-5 -20h-198l-80 162l-145 -162h-215l4 20l266 279h225z" />
    <glyph glyph-name="ycircumflex" unicode="&#x177;" horiz-adv-x="1001" 
d="M38 -246q46 0 84 34t79 108l63 114l-147 957l4 20h246l45 -545l4 -204h6l90 204l268 545h269l-5 -20l-634 -1135q-150 -270 -371 -268q-91 0 -178 24l39 185q92 -19 138 -19zM926 1182l-4 -21h-199l-59 162l-127 -162h-215l4 21l223 278h272z" />
    <glyph glyph-name="Ydieresis" unicode="&#x178;" horiz-adv-x="1120" 
d="M446 1393l148 -598h4l401 598h285l-4 -21l-594 -807l-119 -565h-256l119 565l-252 807l4 21h264zM1018 1534q-130 0 -131 124q0 62 51 110q50 48 118 48t99 -30t31 -92t-51 -111t-117 -49zM532 1534q-118 0 -118 124q0 62 50 110t118 48t100 -30q31 -30 31 -92t-51 -111
t-130 -49z" />
    <glyph glyph-name="Zacute" unicode="&#x179;" horiz-adv-x="1095" 
d="M313 211h607l-46 -211h-913l41 195l813 983v4h-565l45 211h874l-41 -195l-815 -983v-4zM1102 1817l-230 -281h-243l4 20l186 279h287z" />
    <glyph glyph-name="zacute" unicode="&#x17a;" horiz-adv-x="892" 
d="M305 190h414l-41 -190h-721l29 139l553 654v4h-385l41 190h694l-31 -139l-553 -653v-5zM905 1442l-248 -281h-225l4 21l203 278h270z" />
    <glyph glyph-name="Zdotaccent" unicode="&#x17b;" horiz-adv-x="1095" 
d="M313 211h607l-46 -211h-913l41 195l813 983v4h-565l45 211h874l-41 -195l-815 -983v-4zM780 1534q-118 0 -118 124q0 62 50 110t118 48t100 -30q31 -30 31 -92q1 -62 -51 -111t-130 -49z" />
    <glyph glyph-name="zdotaccent" unicode="&#x17c;" horiz-adv-x="892" 
d="M305 190h414l-41 -190h-721l29 139l553 654v4h-385l41 190h694l-31 -139l-553 -653v-5zM634 1450q130 0 130 -124q0 -62 -51 -110t-129 -49q-119 -1 -119 123q0 62 50 111q51 49 119 49z" />
    <glyph glyph-name="Zcaron" unicode="&#x17d;" horiz-adv-x="1095" 
d="M313 211h607l-46 -211h-913l41 195l813 983v4h-565l45 211h874l-41 -195l-815 -983v-4zM512 1815l4 20h199l80 -162l145 162h215l-4 -20l-266 -279h-226z" />
    <glyph glyph-name="zcaron" unicode="&#x17e;" horiz-adv-x="892" 
d="M305 190h414l-41 -190h-721l29 139l553 654v4h-385l41 190h694l-31 -139l-553 -653v-5zM344 1440l4 20h199l59 -162l129 162h213l-4 -20l-223 -279h-272z" />
    <glyph glyph-name="florin" unicode="&#x192;" 
d="M59 -246q49 0 79 40t55 108l253 688h-159l71 196h160l115 312q63 174 155.5 249.5t207.5 75.5t182 -14l-48 -190q-54 14 -107 14q-54 0 -85 -40t-55 -108l-109 -299h199l-76 -196h-197l-260 -701q-66 -172 -153.5 -248.5t-201.5 -76.5t-179 14l47 191q57 -15 106 -15z
" />
    <glyph glyph-name="Aringacute" unicode="&#x1fa;" horiz-adv-x="1236" 
d="M893 1546q0 62 -59 64q-41 0 -69 -30t-28 -73q0 -63 62 -63q41 0 67 29t27 73zM750 1167l-170 -374l-142 -285h348l-22 285l-8 374h-6zM1044 1569q0 -145 -102 -219l156 -1350h-267l-16 305h-487l-150 -305h-280l731 1358q-43 48 -43 116q0 128 73 199q73 72 180 76
l108 127h273l-4 -14l-198 -190q26 -41 26 -103z" />
    <glyph glyph-name="aringacute" unicode="&#x1fb;" horiz-adv-x="1134" 
d="M326 391q0 -213 141 -215q47 0 90 23t84 51l109 504q-58 57 -138 57q-141 -1 -213 -127q-73 -126 -73 -293zM368 -31q-153 0 -228 109t-76 258t32 267q69 248 245 359q89 56 193 56t166 -40q61 -40 103 -79h4l51 88h191l-166 -772q-4 -23 -1 -30t25 -7h72l-41 -188
q-79 -13 -145 -15q-148 0 -156 113h-4q-59 -49 -121 -84q-60 -35 -144 -35zM942 1343q0 -121 -72 -192t-172 -71t-154 46t-53 118q-1 128 73 202t191 74h1l90 101h248l-4 -14l-175 -161q27 -41 27 -103zM793 1321q0 62 -58 62q-39 0 -67 -29t-28 -71q0 -62 61 -62
q40 0 66 28t26 72z" />
    <glyph glyph-name="AEacute" unicode="&#x1fc;" horiz-adv-x="1753" 
d="M942 1157l-203 -307l-239 -342h295l71 342l82 307h-6zM-145 20l1019 1373h934l-43 -211h-571l-80 -371h512l-45 -211h-510l-84 -389h578l-45 -211h-834l66 305h-408l-219 -305h-275zM1700 1817l-230 -281h-243l4 20l186 279h287z" />
    <glyph glyph-name="aeacute" unicode="&#x1fd;" horiz-adv-x="1601" 
d="M1292 693q0 54 -27 99q-27 44 -87 44q-140 0 -214 -158q-22 -45 -34 -92h346q16 53 16 107zM12 221q0 199 130 287t354 88h174l10 45q22 96 -36 139q-41 31 -127 31t-292 -78l-45 193q226 92 400 92q98 0 170 -36t104 -101q137 137 314 137t264 -94q86 -94 88 -242
q0 -87 -41 -210q-10 -30 -21 -50h-567q-15 -112 23 -182t137 -70q133 0 280 66l39 -179q-181 -88 -362 -88q-123 0 -192 49q-68 50 -111 132q-178 -178 -410 -181q-129 0 -206 68t-77 184zM260 258q0 -94 94 -93q93 1 175 77t104 190h-150q-103 0 -163 -44t-60 -130z
M1315 1442l-248 -281h-225l4 21l203 278h270z" />
    <glyph glyph-name="Oslashacute" unicode="&#x1fe;" horiz-adv-x="1425" 
d="M825 1206q-104 0 -192 -66q-173 -129 -226 -383q-26 -120 -26 -206t8 -133l602 739q-62 49 -166 49zM1092 847q0 87 -13 146l-612 -745q61 -62 175 -62t202 67t143 168t80 220t25 206zM117 499q0 185 47 349q99 345 377 498q141 78 318 78t288 -74l104 127l138 -105
l-119 -145q88 -141 88 -329q0 -390 -189 -645q-94 -128 -235 -206q-142 -78 -326 -78t-299 86l-100 -123l-129 107l117 143q-80 132 -80 317zM1284 1817l-229 -281h-244l4 20l186 279h287z" />
    <glyph glyph-name="oslashacute" unicode="&#x1ff;" horiz-adv-x="1120" 
d="M1042 1442l-247 -281h-226l4 21l203 278h271zM600 811q-118 0 -197 -120t-79 -300v-10l370 401q-36 29 -94 29zM476 176q124 0 203 119t81 301v20l-379 -407q33 -33 95 -33zM633 1018q134 0 223 -60l96 103l117 -113l-102 -110q55 -98 55 -228t-39 -244
q-39 -116 -113 -204t-179 -140t-241 -52t-231 67l-104 -113l-109 115l109 117q-51 96 -52 225q0 269 159 453q160 184 411 184z" />
    <glyph glyph-name="uni0218" unicode="&#x218;" horiz-adv-x="1060" 
d="M111 301q135 -115 323 -115q104 0 172 56t68 160q0 103 -135 178l-123 67q-104 57 -162 143t-59 187q0 204 144 326t392 120q172 0 328 -94l-103 -199q-128 76 -249 76t-181 -58t-61 -153q0 -95 94 -145l129 -72q108 -59 182 -148q74 -90 74 -198q0 -209 -151 -336
q-155 -127 -382 -127t-403 135zM160 -426l112 320h250l-4 -21l-176 -319h-186z" />
    <glyph glyph-name="uni0219" unicode="&#x219;" horiz-adv-x="897" 
d="M506 281q0 67 -96 106l-109 47q-122 49 -168 160q-16 39 -16 88q0 162 106 249q105 87 293 87t332 -72l-84 -182q-112 57 -242 57q-154 0 -153 -108q0 -66 88 -103l108 -47q78 -35 135 -96t58 -154q0 -174 -112 -259t-312 -85t-344 94l92 185q129 -84 264 -82
q160 0 160 115zM94 -426l113 320h250l-4 -21l-177 -319h-186z" />
    <glyph glyph-name="uni021A" unicode="&#x21a;" horiz-adv-x="1056" 
d="M1176 1393l-46 -211h-346l-252 -1182h-256l252 1182h-346l45 211h949zM147 -426l113 320h250l-4 -21l-176 -319h-187z" />
    <glyph glyph-name="uni021B" unicode="&#x21b;" horiz-adv-x="763" 
d="M475 176q74 0 152 29l-43 -203q-111 -32 -199 -33q-313 0 -246 299l111 523h-158l29 139l170 57l49 230h252l-49 -230h243l-43 -196h-241l-107 -502q-25 -113 80 -113zM45 -426l113 320h250l-5 -21l-176 -319h-186z" />
    <glyph glyph-name="uni0237" unicode="&#x237;" horiz-adv-x="538" 
d="M-221 -231q57 -15 100 -15q87 0 119 144l231 1089h254l-231 -1087q-71 -336 -373 -336q-73 0 -141 14z" />
    <glyph glyph-name="circumflex" unicode="&#x2c6;" horiz-adv-x="1064" 
d="M1083 1182l-4 -21h-198l-60 162l-127 -162h-215l4 21l224 278h272z" />
    <glyph glyph-name="caron" unicode="&#x2c7;" horiz-adv-x="1064" 
d="M539 1440l4 20h198l60 -162l129 162h213l-4 -20l-224 -279h-272z" />
    <glyph glyph-name="uni02C9" unicode="&#x2c9;" horiz-adv-x="1064" 
d="M522 1206l45 211h527l-45 -211h-527z" />
    <glyph glyph-name="breve" unicode="&#x2d8;" horiz-adv-x="1064" 
d="M778 1161q-124 0 -187 59.5t-81 84.5l84 145q93 -70 224 -70t255 70l35 -160q-156 -129 -330 -129z" />
    <glyph glyph-name="dotaccent" unicode="&#x2d9;" horiz-adv-x="1064" 
d="M780 1167q-118 -1 -118 123q0 62 50 111t118 49q130 0 131 -113q0 -72 -51.5 -121t-129.5 -49z" />
    <glyph glyph-name="ring" unicode="&#x2da;" horiz-adv-x="1067" 
d="M584 1258q0 132 74 207t176 75t155 -46t53 -152t-73 -178t-175 -72t-156 46t-54 120zM891 1337q0 64 -60 64q-41 0 -68.5 -30t-27.5 -73q0 -63 62 -63q41 0 67.5 28.5t26.5 73.5z" />
    <glyph glyph-name="ogonek" unicode="&#x2db;" horiz-adv-x="1064" 
d="M556 -258q58 0 110 37l-7 -164q-33 -20 -86 -35.5t-94 -15.5q-98 0 -145 52t-47 122q0 118 83 193.5t216 129.5l78 -49q-53 -21 -109.5 -79t-56.5 -124.5t58 -66.5z" />
    <glyph glyph-name="tilde" unicode="&#x2dc;" horiz-adv-x="1064" 
d="M700 1460q59 0 108.5 -31.5t78 -46t62.5 -14.5t77 19.5t72 50.5l28 -140q-98 -137 -208 -137q-56 0 -112 32t-85 46t-62 14q-80 0 -143 -71l-29 143q97 135 213 135z" />
    <glyph glyph-name="hungarumlaut" unicode="&#x2dd;" horiz-adv-x="1062" 
d="M1235 1442l-246 -281h-225l4 21l205 278h266zM852 1442l-246 -281h-225l4 21l203 278h268z" />
    <glyph glyph-name="tonos" unicode="&#x384;" horiz-adv-x="1183" 
d="M1120 1466l-182 -321h-205l4 20l133 320h254z" />
    <glyph glyph-name="dieresistonos" unicode="&#x385;" horiz-adv-x="1185" 
d="M1254 1090q-144 0 -144 134q0 64 55 116.5t129 52.5q144 -1 144 -135q0 -64 -55 -116t-129 -52zM1128 1436l-188 -342h-205l4 20l140 340h254zM514 1090q-144 0 -143 134q0 64 54.5 116.5t128.5 52.5q144 -1 144 -135q0 -64 -55 -116t-129 -52z" />
    <glyph glyph-name="Alphatonos" unicode="&#x386;" horiz-adv-x="1347" 
d="M856 1167l-170 -374l-141 -285h348l-23 285l-8 374h-6zM1204 0h-266l-16 305h-488l-149 -305h-281l744 1393h301zM551 1374l-176 -321h-211l4 20l127 320h260z" />
    <glyph glyph-name="anoteleia" unicode="&#x387;" horiz-adv-x="548" 
d="M109 545q0 142 122 196q37 17 89 17t88 -38t34 -110q0 -72 -59 -132q-59 -58 -133 -58t-108 37q-33 37 -33 88z" />
    <glyph glyph-name="Epsilontonos" unicode="&#x388;" horiz-adv-x="1415" 
d="M1470 1393l-45 -211h-569l-80 -371h510l-45 -211h-510l-82 -389h576l-43 -211h-834l297 1393h825zM520 1374l-176 -321h-211l4 20l127 320h260z" />
    <glyph glyph-name="Etatonos" unicode="&#x389;" horiz-adv-x="1665" 
d="M1241 600h-510l-127 -600h-256l297 1393h256l-125 -582h510l123 582h256l-295 -1393h-256zM520 1374l-176 -321h-211l4 20l127 320h260z" />
    <glyph glyph-name="Iotatonos" unicode="&#x38a;" horiz-adv-x="899" 
d="M604 0h-256l297 1393h256zM520 1374l-176 -321h-211l4 20l127 320h260z" />
    <glyph glyph-name="Omicrontonos" unicode="&#x38c;" horiz-adv-x="1652" 
d="M1585 852q0 -142 -47 -307q-99 -345 -377 -498q-141 -78 -330 -78q-244 0 -366 152q-121 152 -121 391q0 172 47 336q99 345 377 498q141 78 332 77q125 0 217 -42q268 -122 268 -529zM608 546q0 -360 248 -360q127 0 215 67t143 168q105 193 105 437t-132 322
q-46 27 -114 26q-125 0 -213 -66t-144 -164q-56 -99 -82 -219q-26 -119 -26 -211zM520 1374l-176 -321h-211l4 20l127 320h260z" />
    <glyph glyph-name="Upsilontonos" unicode="&#x38e;" horiz-adv-x="1581" 
d="M907 1393l148 -598h4l401 598h285l-4 -21l-594 -807l-119 -565h-256l119 565l-252 807l4 21h264zM535 1374l-177 -321h-211l5 20l127 320h260z" />
    <glyph glyph-name="Omegatonos" unicode="&#x38f;" horiz-adv-x="1669" 
d="M373 665q0 103 46 244t138 256t229 187t293 72t249 -44q182 -84 243 -285q29 -95 29 -210q-1 -226 -117 -410q-115 -185 -269 -264h256l-45 -211h-524l41 190q305 171 363 466q18 96 18 188q0 259 -130 336q-46 27 -112 26q-131 0 -219 -70t-140 -169q-52 -100 -75 -214
t-22 -200q0 -242 161 -363l-41 -190h-524l45 211h271q-35 25 -65 67q-99 139 -99 387zM526 1374l-176 -321h-211l4 20l127 320h260z" />
    <glyph glyph-name="iotadieresistonos" unicode="&#x390;" horiz-adv-x="589" 
d="M385 176q33 0 82 14l-31 -202q-86 -19 -153 -19q-121 0 -179 76q-57 76 -20 248l147 694h250l-151 -715q-23 -96 55 -96zM818 1090q-144 0 -144 134q0 64 55 116t129 52t108 -34q36 -36 36 -100t-56 -116q-54 -52 -128 -52zM692 1436l-188 -342h-205l4 20l139 340h254z
M-66 1224q0 64 56 116t128 52q74 0 109 -34q35 -36 35 -100t-55 -116t-129 -52q-144 0 -144 134z" />
    <glyph glyph-name="Alpha" unicode="&#x391;" horiz-adv-x="1243" 
d="M752 1167l-170 -374l-142 -285h348l-22 285l-8 374h-6zM1100 0h-266l-17 305h-487l-150 -305h-280l743 1393h301z" />
    <glyph glyph-name="Beta" unicode="&#x392;" horiz-adv-x="1236" 
d="M664 811q143 0 197 54t54 184q0 73 -42 103t-136 30h-180l-80 -371h187zM776 1393q199 0 305 -74q107 -74 107 -219t-74 -244t-176 -141v-4q166 -68 166 -256q0 -217 -123 -336t-401 -119h-531l297 1393h430zM582 211q213 0 252 154q12 47 12 111q0 139 -195 138h-215
l-86 -403h232z" />
    <glyph glyph-name="Gamma" unicode="&#x393;" horiz-adv-x="1011" 
d="M49 0l297 1393h782l-47 -222h-526l-250 -1171h-256z" />
    <glyph glyph-name="uni0394" unicode="&#x394;" horiz-adv-x="1239" 
d="M752 1167l-170 -368l-293 -596h528l-49 596l-10 368h-6zM1096 0h-1192l2 10l739 1383h301l152 -1383z" />
    <glyph glyph-name="Epsilon" unicode="&#x395;" horiz-adv-x="1116" 
d="M1171 1393l-45 -211h-569l-80 -371h510l-45 -211h-510l-82 -389h576l-43 -211h-834l297 1393h825z" />
    <glyph glyph-name="Zeta" unicode="&#x396;" horiz-adv-x="1095" 
d="M313 211h607l-46 -211h-913l41 195l813 983v4h-565l45 211h874l-41 -195l-815 -983v-4z" />
    <glyph glyph-name="Eta" unicode="&#x397;" horiz-adv-x="1366" 
d="M942 600h-510l-127 -600h-256l297 1393h256l-125 -582h510l123 582h256l-295 -1393h-256z" />
    <glyph glyph-name="Theta" unicode="&#x398;" horiz-adv-x="1425" 
d="M1358 852q0 -142 -47 -306.5t-141.5 -292.5t-235.5 -206t-330 -78q-243 0 -365 151.5t-122 391.5q0 172 47 336t141 292t235.5 205.5t331.5 77.5q243 0 364.5 -151.5t121.5 -419.5zM381 546q0 -359 248 -360q127 0 215 66.5t168 214t80 392.5t-89.5 296t-156.5 51
q-125 0 -213 -65.5t-144.5 -164.5t-82 -218.5t-25.5 -211.5zM494 584l51 237h432l-51 -237h-432z" />
    <glyph glyph-name="Iota" unicode="&#x399;" horiz-adv-x="600" 
d="M305 0h-256l297 1393h256z" />
    <glyph glyph-name="Kappa" unicode="&#x39a;" horiz-adv-x="1206" 
d="M438 627l-133 -627h-256l297 1393h256l-145 -676h4l569 676h301l-4 -21l-629 -715l365 -637l-4 -20h-283l-334 627h-4z" />
    <glyph glyph-name="Lambda" unicode="&#x39b;" horiz-adv-x="1243" 
d="M180 0h-280l743 1393h301l156 -1393h-266l-68 793l-12 354h-6l-166 -354z" />
    <glyph glyph-name="Mu" unicode="&#x39c;" horiz-adv-x="1624" 
d="M801 565l168 275l397 553h258l-295 -1393h-256l146 690l94 307h-2l-437 -647h-225l-160 647h-2l-34 -305l-148 -692h-256l297 1393h238l159 -553l54 -275h4z" />
    <glyph glyph-name="Nu" unicode="&#x39d;" horiz-adv-x="1394" 
d="M952 342l21 270l166 781h256l-295 -1393h-262l-340 1049h-6l-21 -271l-166 -778h-256l297 1393h262l338 -1051h6z" />
    <glyph glyph-name="Xi" unicode="&#x39e;" horiz-adv-x="1101" 
d="M244 1169l49 224h860l-47 -224h-862zM180 590l49 223h742l-47 -223h-744zM911 223l-49 -223h-866l47 223h868z" />
    <glyph glyph-name="Omicron" unicode="&#x39f;" horiz-adv-x="1425" 
d="M1358 852q0 -142 -47 -307q-47 -164 -141 -292t-236 -206q-141 -78 -330 -78q-243 0 -366 153t-121 390q0 172 47 336q99 345 377 498q141 78 331 77q125 0 218 -42q268 -122 268 -529zM381 546q0 -359 248 -360q127 0 215 67t143 168q105 193 105 437t-133 322
q-46 27 -113 26q-125 0 -213 -65q-173 -129 -227 -384q-26 -119 -25 -211z" />
    <glyph glyph-name="Pi" unicode="&#x3a0;" horiz-adv-x="1368" 
d="M1069 1182h-512l-252 -1182h-256l297 1393h1022l-295 -1393h-256z" />
    <glyph glyph-name="Rho" unicode="&#x3a1;" horiz-adv-x="1136" 
d="M629 694q102 0 175 89t75 218q0 78 -37 129t-109 52h-176l-104 -488h176zM778 1393q177 0 273 -98t96 -259q0 -236 -138 -395q-138 -158 -384 -158h-217l-103 -483h-256l297 1393h432z" />
    <glyph glyph-name="Sigma" unicode="&#x3a3;" horiz-adv-x="1114" 
d="M12 190l422 519l-180 491l41 193h897l-45 -211h-629l195 -492l-391 -479h618l-43 -211h-926z" />
    <glyph glyph-name="Tau" unicode="&#x3a4;" horiz-adv-x="1056" 
d="M1176 1393l-46 -211h-346l-252 -1182h-256l252 1182h-346l45 211h949z" />
    <glyph glyph-name="Upsilon" unicode="&#x3a5;" horiz-adv-x="1120" 
d="M446 1393l148 -598h4l401 598h285l-4 -21l-594 -807l-119 -565h-256l119 565l-252 807l4 21h264z" />
    <glyph glyph-name="Phi" unicode="&#x3a6;" horiz-adv-x="1550" 
d="M850 315q381 67 381 483q0 241 -219 277zM369 592q0 -173 80.5 -220.5t144.5 -56.5l162 762q-180 -25 -283.5 -146.5t-103.5 -338.5zM1053 1270q450 -44 450 -480q0 -108 -35.5 -224.5t-165 -264.5t-493.5 -178l-25 -123h-256l25 121q-457 45 -457 481q0 108 36 225
t165.5 264t499.5 179l26 123h256z" />
    <glyph glyph-name="Chi" unicode="&#x3a7;" horiz-adv-x="1163" 
d="M492 1393l137 -547h4l368 547h281l-4 -21l-492 -674l205 -678l-4 -20h-262l-135 547h-4l-371 -547h-283l5 20l491 678l-205 674l6 21h263z" />
    <glyph glyph-name="Psi" unicode="&#x3a8;" horiz-adv-x="1433" 
d="M836 539q121 10 186 91t102 255l109 508h258l-113 -529q-55 -260 -193 -399t-397 -146l-67 -319h-256l67 319q-252 12 -331.5 158t-18.5 432l103 484h256l-109 -508q-37 -174 -6 -256t154 -90l180 854h256z" />
    <glyph glyph-name="uni03A9" unicode="&#x3a9;" horiz-adv-x="1447" 
d="M154 665q0 103 46 244t138 256t229 187t293 72t249 -44q182 -84 243 -285q28 -95 28 -210q-1 -227 -117 -412q-116 -184 -268 -262h256l-45 -211h-524l41 190q307 172 363 470q55 298 -37 447q-64 101 -191 100t-215 -71t-140 -169q-52 -100 -75 -214t-22 -200
q0 -242 161 -363l-41 -190h-524l45 211h270q-35 25 -64 67q-99 139 -99 387z" />
    <glyph glyph-name="Iotadieresis" unicode="&#x3aa;" horiz-adv-x="600" 
d="M305 0h-256l297 1393h256zM625 1658q0 62 51 110q50 48 118 48t99 -30t31 -92t-52 -111t-118 -49q-130 0 -129 124zM270 1534q-118 0 -118 124q0 62 50 110t118 48t100 -30q31 -30 31 -92q1 -62 -51 -111t-130 -49z" />
    <glyph glyph-name="Upsilondieresis" unicode="&#x3ab;" horiz-adv-x="1120" 
d="M446 1393l148 -598h4l401 598h285l-4 -21l-594 -807l-119 -565h-256l119 565l-252 807l4 21h264zM996 1534q-130 0 -130 124q0 62 52 110t118 48t98 -30t32 -92t-52 -111t-118 -49zM512 1534q-119 0 -119 124q0 62 50 110q51 48 119 48t100 -30t30 -92q0 -62 -51 -111
t-129 -49z" />
    <glyph glyph-name="alphatonos" unicode="&#x3ac;" horiz-adv-x="1171" 
d="M446 176q130 0 279 318q-9 317 -151 317q-42 0 -90 -33q-100 -70 -143 -224q-22 -77 -22 -170q0 -92 34 -150t93 -58zM61 396q0 114 41 232t112 205q151 185 374 185q114 0 178 -58t86 -143h4l62 170h256l-228 -491l17 -496h-240l12 170h-4q-60 -91 -110 -128
q-98 -72 -197 -72q-98 -1 -162 29t-107 83q-44 53 -69 127q-25 73 -25 187zM1030 1466l-182 -321h-205l4 20l133 320h254z" />
    <glyph glyph-name="epsilontonos" unicode="&#x3ad;" horiz-adv-x="942" 
d="M950 1466l-182 -321h-205l4 20l133 320h254zM399 672q0 -80 97 -78h229l-41 -197h-244q-88 1 -122 -33t-33 -94q0 -100 151 -100q178 0 312 59l38 -186q-157 -72 -369 -73t-304 68q-93 69 -93 182q0 112 58 190t162 114v4q-92 51 -90 170q0 222 244 294q84 26 184 26
q188 0 327 -68l-65 -184q-138 51 -230 51q-94 0 -130 -15q-66 -27 -77 -84q-4 -26 -4 -46z" />
    <glyph glyph-name="etatonos" unicode="&#x3ae;" horiz-adv-x="1112" 
d="M731 1018q162 0 230 -104t26 -300l-217 -1020h-252l215 1010q48 207 -108 207q-106 0 -201 -98l-152 -713h-252l209 987h205l12 -94h5q67 58 131 92q64 33 149 33zM969 1466l-183 -321h-204l4 20l133 320h254z" />
    <glyph glyph-name="iotatonos" unicode="&#x3af;" horiz-adv-x="591" 
d="M385 176q33 0 82 14l-31 -202q-86 -19 -153 -19q-121 0 -179 76q-57 76 -20 248l147 694h250l-151 -715q-23 -96 55 -96zM688 1466l-182 -321h-205l4 20l133 320h254z" />
    <glyph glyph-name="upsilondieresistonos" unicode="&#x3b0;" horiz-adv-x="1091" 
d="M948 1466l-182 -321h-205l4 20l133 320h254zM993 782q0 -813 -549 -813q-211 0 -302 119t-44 340l119 559h250l-121 -571q-27 -124 2 -182t119 -58q114 0 194 156t78 448v48l-4 159h254q4 -70 4 -205z" />
    <glyph glyph-name="alpha" unicode="&#x3b1;" horiz-adv-x="1171" 
d="M725 494q-9 317 -151 317q-42 0 -90 -33t-106.5 -123t-58.5 -266q0 -98 34 -155.5t93 -57.5q130 0 279 318zM155 82q-94 113 -94 271q0 291 152 478t375 187q113 0 179 -58.5t85 -142.5h4l62 170h256l-228 -491l17 -496h-240l12 170h-4q-60 -91 -135.5 -146t-210.5 -55
q-136 0 -230 113z" />
    <glyph glyph-name="beta" unicode="&#x3b2;" horiz-adv-x="1122" 
d="M745 469q0 78 -48 127t-148 49h-53l41 191h49q92 0 144 72.5t52 178.5q0 59 -25 104.5t-87 45.5t-114 -60.5t-83 -201.5l-156 -735q51 -64 171 -64t188.5 83t68.5 210zM811 745q186 -64 186 -319q0 -90 -39.5 -181t-140.5 -183.5t-305 -92.5q-72 0 -134.5 24.5
t-96.5 53.5h-5l-96 -453h-248l293 1375q53 248 171 361.5t323 113.5q147 0 236 -89t89 -229t-70 -239t-163 -137v-5z" />
    <glyph glyph-name="gamma" unicode="&#x3b3;" horiz-adv-x="1003" 
d="M408 240h4q26 38 61 108.5t83 147.5q122 198 232 491h256l-4 -20q-177 -441 -553 -971l-86 -402h-247l88 412l-121 961l4 20h244l39 -541v-206z" />
    <glyph glyph-name="delta" unicode="&#x3b4;" horiz-adv-x="1103" 
d="M590 813q-283 -177 -283 -449q0 -82 40.5 -135t104.5 -53q123 0 204 92t81 242q0 151 -147 303zM808 1237q-75 0 -115 -35t-40 -79t26 -77.5t63.5 -71.5t145 -150.5t107.5 -313.5q0 -96 -38.5 -193.5t-158 -222.5t-364.5 -125q-179 0 -281 115.5t-102 292.5t113 326
t301 243q-20 35 -42 75.5t-22 112.5q0 143 118.5 226.5t281.5 83.5q104 0 174 -19l-23 -206q-69 18 -144 18z" />
    <glyph glyph-name="epsilon" unicode="&#x3b5;" horiz-adv-x="942" 
d="M399 672q0 -78 97 -78h229l-41 -197h-244q-88 0 -121.5 -33.5t-33.5 -93.5q0 -100 162 -100t301 59l38 -186q-161 -74 -372 -74q-394 0 -394 258q0 106 58.5 183t161.5 114v4q-90 50 -90 170q0 221 164 270.5t264 49.5q188 0 327 -68l-65 -184q-138 51 -230 51
q-93 0 -129.5 -15.5t-59 -42.5t-22.5 -87z" />
    <glyph glyph-name="zeta" unicode="&#x3b6;" horiz-adv-x="894" 
d="M287 -240q106 84 106 145t-64.5 106.5t-175 117.5t-110.5 235q0 115 41 202t121 182.5t198.5 211t276.5 273.5v4h-416l41 197h729l-37 -179q-201 -203 -334 -336t-211.5 -225t-110.5 -156.5t-32 -120.5t25.5 -90t65.5 -64t151 -98t111 -227t-232 -319z" />
    <glyph glyph-name="eta" unicode="&#x3b7;" horiz-adv-x="1112" 
d="M731 1018q162 0 229.5 -103.5t26.5 -300.5l-217 -1020h-252l215 1010q48 207 -108 207q-109 0 -201 -98l-152 -713h-252l209 987h205l12 -94h5q65 57 129.5 91t150.5 34z" />
    <glyph glyph-name="theta" unicode="&#x3b8;" horiz-adv-x="1120" 
d="M473 176q102 0 172 109.5t123 320.5h-410q-23 -125 -22 -209q0 -221 137 -221zM700 1237q-102 0 -174.5 -113.5t-126.5 -324.5h412q50 284 4.5 361t-115.5 77zM96 377q0 143 38 323q77 366 218 555t371 189q352 0 352 -410q0 -142 -39 -322q-80 -371 -218 -557t-367 -186
q-355 0 -355 408z" />
    <glyph glyph-name="iota" unicode="&#x3b9;" horiz-adv-x="591" 
d="M385 176q33 0 82 14l-31 -202q-86 -19 -153 -19q-121 0 -178.5 76t-20.5 248l147 694h250l-151 -715q-23 -96 55 -96z" />
    <glyph glyph-name="kappa" unicode="&#x3ba;" horiz-adv-x="1013" 
d="M354 432l-92 -432h-242l209 987h242l-100 -471h4l395 471h281l-2 -14l-449 -506l260 -453l-2 -14h-260l-240 432h-4z" />
    <glyph glyph-name="lambda" unicode="&#x3bb;" horiz-adv-x="999" 
d="M380 1237q-38 0 -83 -10l22 198q63 19 138 19t141 -52.5t82 -174.5l162 -1197l-4 -20h-250l-39 465l-6 248h-6l-115 -244l-242 -469h-266l4 20l555 957l-16 145q-6 49 -22.5 82t-54.5 33z" />
    <glyph glyph-name="uni03BC" unicode="&#x3bc;" horiz-adv-x="1110" 
d="M366 -31q-74 0 -112 17l-14 -131l-56 -261h-252l297 1393h250l-129 -625q-37 -186 103 -186q61 0 110 31t86 61l154 719h252l-209 -987h-207l-14 94h-2q-45 -43 -114 -84t-143 -41z" />
    <glyph glyph-name="nu" unicode="&#x3bd;" horiz-adv-x="1007" 
d="M410 240h4q24 34 61 106t84 151q123 208 232 490h256l-5 -20q-171 -439 -538 -967h-273l-108 967l4 20h244l39 -541v-206z" />
    <glyph glyph-name="xi" unicode="&#x3be;" horiz-adv-x="909" 
d="M395 1243h-186l41 191h792l-38 -191h-246q-137 0 -211 -80.5t-74 -189.5q0 -72 46 -118t149 -46h133l-41 -197h-133q-244 0 -280 -89t-36 -136t31 -79t76 -58.5t174 -88.5t129 -208t-97.5 -224.5t-142.5 -109.5l-139 143q39 33 75 71t36 76t-30 65.5t-75 53t-98 53.5
t-128 86.5t-75 180.5q0 154 86 249t227 138v4q-57 25 -100 81.5t-43 144.5t50 163.5t128 110.5v4z" />
    <glyph glyph-name="omicron" unicode="&#x3bf;" horiz-adv-x="1120" 
d="M1022 588q0 -106 -39 -222t-113 -204q-161 -191 -419 -193q-184 0 -286 117t-102 295q0 269 159 453t411 184q188 0 292 -119q97 -111 97 -311zM324 384q0 -93 37 -151q38 -57 108 -57q131 0 210 119t81 301q0 100 -38 158t-109 57q-71 0 -123 -34t-89 -90t-57 -133
t-20 -170z" />
    <glyph glyph-name="pi" unicode="&#x3c0;" horiz-adv-x="1232" 
d="M967 176q37 0 82 14l-43 -204q-88 -17 -142 -17q-123 0 -178 75t-20 243l106 504h-248l-168 -791h-250l168 791h-176l41 196h1096l-41 -196h-174l-111 -519q-23 -96 58 -96z" />
    <glyph glyph-name="rho" unicode="&#x3c1;" horiz-adv-x="1110" 
d="M912.5 903q99.5 -115 99.5 -291q0 -255 -104.5 -394.5t-200 -194t-192.5 -54.5t-156.5 30t-88.5 62h-4l-98 -467h-248l201 947q52 238 186 357.5t320 119.5t285.5 -115zM480 176q64 0 120.5 42t106 134.5t49.5 243.5t-57.5 183t-100.5 32q-78 0 -140.5 -73.5
t-86.5 -190.5l-66 -301q55 -70 175 -70z" />
    <glyph glyph-name="sigma1" unicode="&#x3c2;" horiz-adv-x="880" 
d="M336 453q0 -94 61.5 -146.5t105.5 -82t105.5 -87.5t61.5 -166q0 -191 -234 -352l-141 154q41 35 72.5 68.5t31.5 70.5t-24.5 65.5t-61.5 57t-140 108t-103 268.5q0 270 152 438.5t419 168.5q135 0 258 -60l-70 -190q-108 43 -213 43t-192.5 -100.5t-87.5 -257.5z" />
    <glyph glyph-name="sigma" unicode="&#x3c3;" horiz-adv-x="1136" 
d="M317 395q0 -98 43 -148t117 -50q121 0 200 97t79 271q0 98 -43 146.5t-117 48.5q-119 0 -199 -95.5t-80 -269.5zM1001 554q0 -247 -155 -416t-397 -169q-188 0 -289 115.5t-101 290.5q0 250 157.5 431t408.5 181h522l-45 -211h-170v-4q69 -90 69 -218z" />
    <glyph glyph-name="tau" unicode="&#x3c4;" horiz-adv-x="913" 
d="M484.5 206q9.5 -30 58.5 -30t151 29l-30 -205q-112 -31 -207 -31q-147 0 -201.5 75t-19.5 239l108 508h-252l41 196h793l-41 -196h-293l-107 -502q-10 -53 -0.5 -83z" />
    <glyph glyph-name="upsilon" unicode="&#x3c5;" horiz-adv-x="1091" 
d="M993 782q0 -813 -549 -813q-211 0 -302 119t-44 340l119 559h250l-121 -571q-27 -123 2 -181.5t119 -58.5q114 0 193 153t79 451v12l-4 195h254q4 -70 4 -205z" />
    <glyph glyph-name="phi" unicode="&#x3c6;" horiz-adv-x="1370" 
d="M942 811q-45 0 -76.5 -45t-58.5 -164l-88 -422q167 33 236 160.5t69 298.5q0 172 -82 172zM317 420q0 -108 36 -166.5t118 -75.5l90 418q43 207 141.5 314.5t260.5 107.5t238.5 -112t76.5 -246q0 -276 -146 -460t-454 -214l-84 -392h-248l82 388q-272 34 -316 181.5
t-44 256t51 237t166 330.5h256q-224 -380 -224 -567z" />
    <glyph glyph-name="chi" unicode="&#x3c7;" horiz-adv-x="989" 
d="M358 987l72 -352l21 -193h2l108 197l219 348h267l-5 -20l-454 -674l168 -678l-4 -21h-250l-70 349l-22 198h-2l-107 -198l-217 -349h-270l4 21l454 678l-168 674l7 20h247z" />
    <glyph glyph-name="psi" unicode="&#x3c8;" horiz-adv-x="1404" 
d="M1311 718q0 -175 -43 -322.5t-162 -288t-406 -132.5l-79 -381h-250l80 381q-223 10 -310.5 123t-40.5 336l117 553h250l-121 -571q-29 -135 9 -190.5t137 -55.5l270 1264h250l-271 -1264q51 0 107.5 30.5t132.5 144.5t76 392q0 122 -10 250h256q8 -94 8 -269z" />
    <glyph glyph-name="omega" unicode="&#x3c9;" horiz-adv-x="1552" 
d="M1444 627q0 -311 -130 -484.5t-366 -173.5q-207 0 -252 203h-4q-51 -80 -136 -141.5t-210 -61.5t-207 91.5t-82 275.5q0 238 103.5 404.5t156.5 246.5h271l-4 -20q-131 -174 -202 -318.5t-71 -304.5q0 -74 27.5 -121t83.5 -47t110 58.5t80 181.5l68 319h248l-70 -332
q-25 -117 6 -172t86 -55q102 0 171 127t69 304t-62 360l5 20h253q58 -197 58 -360z" />
    <glyph glyph-name="iotadieresis" unicode="&#x3ca;" horiz-adv-x="589" 
d="M385 176q33 0 82 14l-31 -202q-86 -19 -153 -19q-121 0 -179 76q-57 76 -20 248l147 694h250l-151 -715q-23 -96 55 -96zM248 1452q130 0 129 -124q0 -62 -51 -110q-52 -48 -118 -48t-98 30t-32 92t51 111t119 49zM644 1452q132 0 132 -124q0 -62 -51 -110t-129 -49
q-119 -1 -119 123q0 62 50 111q49 49 117 49z" />
    <glyph glyph-name="upsilondieresis" unicode="&#x3cb;" horiz-adv-x="1091" 
d="M993 782q0 -813 -549 -813q-211 0 -302 119t-44 340l119 559h250l-121 -571q-27 -124 2 -182t119 -58q114 0 194 156t78 448v48l-4 159h254q4 -70 4 -205zM504 1452q130 0 129 -124q0 -62 -51 -110q-52 -48 -118 -48t-98 30t-32 92t51 111t119 49zM900 1452
q132 0 132 -124q0 -62 -51 -110t-129 -49q-119 -1 -119 123q0 62 50 111q49 49 117 49z" />
    <glyph glyph-name="omicrontonos" unicode="&#x3cc;" horiz-adv-x="1120" 
d="M1022 588q0 -106 -39 -222t-113 -204q-161 -191 -419 -193q-184 0 -286 117t-102 295q0 269 159 453t411 184q188 0 292 -119q97 -111 97 -311zM324 384q0 -93 37 -151q38 -57 108 -57q131 0 210 119t81 301q0 100 -38 158t-109 57q-71 0 -123 -34t-89 -90t-57 -133
t-20 -170zM969 1466l-183 -321h-204l4 20l133 320h254z" />
    <glyph glyph-name="upsilontonos" unicode="&#x3cd;" horiz-adv-x="1091" 
d="M961 1466l-183 -321h-205l5 20l133 320h254zM993 782q0 -813 -549 -813q-211 0 -302 119t-44 340l119 559h250l-121 -571q-27 -124 2 -182t119 -58q114 0 194 156t78 448v48l-4 159h254q4 -70 4 -205z" />
    <glyph glyph-name="omegatonos" unicode="&#x3ce;" horiz-adv-x="1552" 
d="M948 -31q-207 0 -252 203h-4q-51 -80 -136 -141t-210 -61t-207 90q-82 91 -82 276q0 240 160 495q47 76 100 156h271l-4 -20q-131 -173 -181 -276q-90 -183 -92 -347q0 -74 27 -121q28 -47 84 -47t110 58t80 182l68 319h248l-70 -332q-25 -117 6 -172t86 -55
q103 0 170 125q68 125 69 305q1 181 -61 361l5 20h253q56 -191 58 -360q0 -311 -130 -485t-366 -173zM1188 1466l-182 -321h-205l4 20l133 320h254z" />
    <glyph glyph-name="uni0400" unicode="&#x400;" horiz-adv-x="1116" 
d="M1171 1393l-45 -211h-569l-80 -371h510l-45 -211h-510l-82 -389h576l-43 -211h-834l297 1393h825zM612 1835h271l67 -279l-4 -20h-227l-111 281z" />
    <glyph glyph-name="uni0401" unicode="&#x401;" horiz-adv-x="1116" 
d="M1171 1393l-45 -211h-569l-80 -371h510l-45 -211h-510l-82 -389h576l-43 -211h-834l297 1393h825zM1042 1534q-130 0 -131 124q-1 62 51 110t120 48t98 -30t30 -92t-51 -111t-117 -49zM557 1534q-119 0 -119 124q0 62 50 110t118 48t100 -30t32 -92t-52 -111
q-51 -49 -129 -49z" />
    <glyph glyph-name="uni0402" unicode="&#x402;" horiz-adv-x="1318" 
d="M839 852q195 0 286.5 -99.5t91.5 -246.5q0 -148 -49.5 -260.5t-121 -210.5t-151.5 -179t-139 -143l-170 178q55 57 205.5 216t150.5 358q0 72 -34 124t-106 52q-108 0 -243 -39l-129 -602h-256l252 1182h-246l45 211h852l-45 -211h-350l-80 -369q130 39 237 39z" />
    <glyph glyph-name="uni0403" unicode="&#x403;" horiz-adv-x="1050" 
d="M1169 1393l-45 -211h-567l-252 -1182h-256l297 1393h823zM1159 1817l-229 -281h-244l4 20l187 279h286z" />
    <glyph glyph-name="uni0404" unicode="&#x404;" horiz-adv-x="1142" 
d="M608 -31q-235 0 -363 150t-128 397q0 188 53 354t208 359.5t499 193.5q181 0 331 -90l-88 -194q-112 67 -261 67t-266 -113.5t-171 -289.5h496l-46 -213h-487v-41q0 -160 64.5 -261.5t185.5 -101.5q155 0 297 68l47 -195q-188 -90 -371 -90z" />
    <glyph glyph-name="uni0405" unicode="&#x405;" horiz-adv-x="1060" 
d="M111 301q135 -115 323 -115q104 0 172 56t68 160q0 103 -135 178l-123 67q-104 57 -162 143t-59 187q0 204 144 326t392 120q172 0 328 -94l-103 -199q-128 76 -249 76t-181 -58t-61 -153q0 -95 94 -145l129 -72q108 -59 182 -148q74 -90 74 -198q0 -209 -151 -336
q-155 -127 -382 -127t-403 135z" />
    <glyph glyph-name="uni0406" unicode="&#x406;" horiz-adv-x="600" 
d="M305 0h-256l297 1393h256z" />
    <glyph glyph-name="uni0407" unicode="&#x407;" horiz-adv-x="600" 
d="M305 0h-256l297 1393h256zM742 1534q-130 0 -130 124q0 62 52 110t118 48q68 0 99 -30t31 -92t-52 -111t-118 -49zM258 1534q-119 0 -119 124q0 62 50 110q51 48 119 48t100 -30t30 -92q0 -62 -51 -111t-129 -49z" />
    <glyph glyph-name="uni0408" unicode="&#x408;" horiz-adv-x="919" 
d="M276 186q78 0 124 65t69 175l205 967h256l-213 -1004q-91 -418 -477 -420q-106 0 -186 45t-122 101l154 178q33 -41 72 -74q40 -33 118 -33z" />
    <glyph glyph-name="uni0409" unicode="&#x409;" horiz-adv-x="1859" 
d="M1483 498q0 157 -140 157h-235l-94 -444h235q117 0 175.5 85t58.5 202zM1384 866q186 0 280.5 -86t94.5 -243q0 -250 -128 -393.5t-388 -143.5h-530l252 1182h-316l-119 -453q-126 -469 -235 -584.5t-197 -140t-196 -24.5l47 219q49 0 91 18.5t105.5 104.5t147.5 423
l164 648h809l-113 -527h231z" />
    <glyph glyph-name="uni040A" unicode="&#x40a;" horiz-adv-x="1912" 
d="M1536 498q0 159 -141 159h-234l-94 -446h231q118 0 178 84.5t60 202.5zM1438 868q184 0 279 -87t95 -246q0 -252 -129 -393.5t-391 -141.5h-528l139 657h-459l-139 -657h-256l297 1393h256l-113 -525h459l111 525h260l-113 -525h232z" />
    <glyph glyph-name="uni040B" unicode="&#x40b;" horiz-adv-x="1333" 
d="M936 944q164 0 248 -105.5t41 -303.5l-113 -535h-256l111 522q44 209 -142 209q-114 0 -250 -53l-143 -678h-256l252 1182h-248l45 211h854l-45 -211h-350l-63 -297q151 59 315 59z" />
    <glyph glyph-name="uni040C" unicode="&#x40c;" horiz-adv-x="1206" 
d="M438 627l-133 -627h-256l297 1393h256l-145 -676h4l569 676h301l-4 -21l-629 -715l365 -637l-4 -20h-283l-334 627h-4zM1174 1817l-230 -281h-244l5 20l186 279h287z" />
    <glyph glyph-name="uni040D" unicode="&#x40d;" horiz-adv-x="1374" 
d="M352 358l748 1035h276l-297 -1393h-256l166 778l88 254h-6l-745 -1032h-277l297 1393h256l-166 -781l-90 -254h6zM684 1835h270l68 -279l-4 -20h-227l-111 281z" />
    <glyph glyph-name="uni040E" unicode="&#x40e;" horiz-adv-x="1058" 
d="M119 211q84 0 137 34t100 120l29 51l-188 956l4 21h276l58 -441l18 -268h4l133 268l238 441h278l-4 -21l-600 -1034q-123 -206 -218 -272t-269 -66h-97l45 211h56zM748 1536q-121 0 -223 94q-26 25 -44 49l82 146q97 -70 225 -70t256 70l35 -160q-156 -129 -331 -129z
" />
    <glyph glyph-name="uni040F" unicode="&#x40f;" horiz-adv-x="1349" 
d="M397 -289l41 289h-389l297 1393h256l-252 -1182h494l252 1182h256l-297 -1393h-389l-82 -289h-187z" />
    <glyph glyph-name="uni0410" unicode="&#x410;" horiz-adv-x="1243" 
d="M752 1167l-170 -374l-142 -285h348l-22 285l-8 374h-6zM1100 0h-266l-17 305h-487l-150 -305h-280l743 1393h301z" />
    <glyph glyph-name="uni0411" unicode="&#x411;" horiz-adv-x="1208" 
d="M821 498q0 159 -141 159h-236l-94 -446h236q114 0 174.5 83.5t60.5 203.5zM723 868q184 0 278.5 -86t94.5 -245q0 -250 -129 -393.5t-389 -143.5h-529l297 1393h844l-45 -211h-588l-68 -314h234z" />
    <glyph glyph-name="uni0412" unicode="&#x412;" horiz-adv-x="1236" 
d="M664 811q143 0 197 54t54 184q0 73 -42 103t-136 30h-180l-80 -371h187zM776 1393q199 0 305 -74q107 -74 107 -219t-74 -244t-176 -141v-4q166 -68 166 -256q0 -217 -123 -336t-401 -119h-531l297 1393h430zM582 211q213 0 252 154q12 47 12 111q0 139 -195 138h-215
l-86 -403h232z" />
    <glyph glyph-name="uni0413" unicode="&#x413;" horiz-adv-x="1050" 
d="M1169 1393l-45 -211h-567l-252 -1182h-256l297 1393h823z" />
    <glyph glyph-name="uni0414" unicode="&#x414;" horiz-adv-x="1349" 
d="M793 211l206 971h-337l-93 -346q-57 -217 -112.5 -378t-120.5 -247h457zM-129 -289l70 500h112q92 100 156.5 255t120.5 372l141 555h829l-251 -1182h141l-141 -500h-187l43 289h-770l-78 -289h-186z" />
    <glyph glyph-name="uni0415" unicode="&#x415;" horiz-adv-x="1116" 
d="M1171 1393l-45 -211h-569l-80 -371h510l-45 -211h-510l-82 -389h576l-43 -211h-834l297 1393h825z" />
    <glyph glyph-name="uni0416" unicode="&#x416;" horiz-adv-x="1822" 
d="M791 623l-572 -623h-313l4 20l637 685l-326 667l4 21h273l313 -674h2l143 674h258l-143 -674h4l570 674h301l-4 -21l-619 -708l354 -644l-4 -20h-282l-336 623h-4l-133 -623h-259l134 623h-2z" />
    <glyph glyph-name="uni0417" unicode="&#x417;" horiz-adv-x="1050" 
d="M674 442q0 156 -199 156h-209l45 215h211q123 0 184 70q60 70 60 153q0 170 -160 170q-143 0 -307 -76l-57 201q198 92 393 92t300 -89t104 -237t-86 -250q-85 -103 -185 -147v-4q162 -76 162 -274t-156 -326q-156 -127 -395 -127t-391 105l88 198q130 -86 311 -86
q115 0 201 71t86 185z" />
    <glyph glyph-name="uni0418" unicode="&#x418;" horiz-adv-x="1374" 
d="M352 358l748 1035h276l-297 -1393h-256l166 778l88 254h-6l-745 -1032h-277l297 1393h256l-166 -781l-90 -254h6z" />
    <glyph glyph-name="uni0419" unicode="&#x419;" horiz-adv-x="1374" 
d="M352 358l748 1035h276l-297 -1393h-256l166 778l88 254h-6l-745 -1032h-277l297 1393h256l-166 -781l-90 -254h6zM733 1825q97 -70 225 -70t256 70l35 -160q-156 -129 -331 -129q-121 0 -223 94q-26 25 -44 49z" />
    <glyph glyph-name="uni041A" unicode="&#x41a;" horiz-adv-x="1206" 
d="M438 627l-133 -627h-256l297 1393h256l-145 -676h4l569 676h301l-4 -21l-629 -715l365 -637l-4 -20h-283l-334 627h-4z" />
    <glyph glyph-name="uni041B" unicode="&#x41b;" horiz-adv-x="1333" 
d="M1034 1182h-387l-119 -453q-116 -444 -223.5 -567t-198 -152.5t-206.5 -29.5l47 217q49 0 137.5 38t206.5 510l164 648h880l-297 -1393h-256z" />
    <glyph glyph-name="uni041C" unicode="&#x41c;" horiz-adv-x="1624" 
d="M801 565l168 275l397 553h258l-295 -1393h-256l146 690l94 307h-2l-437 -647h-225l-160 647h-2l-34 -305l-148 -692h-256l297 1393h238l159 -553l54 -275h4z" />
    <glyph glyph-name="uni041D" unicode="&#x41d;" horiz-adv-x="1366" 
d="M942 600h-510l-127 -600h-256l297 1393h256l-125 -582h510l123 582h256l-295 -1393h-256z" />
    <glyph glyph-name="uni041E" unicode="&#x41e;" horiz-adv-x="1425" 
d="M1358 852q0 -142 -47 -307q-47 -164 -141 -292t-236 -206q-141 -78 -330 -78q-243 0 -366 153t-121 390q0 172 47 336q99 345 377 498q141 78 331 77q125 0 218 -42q268 -122 268 -529zM381 546q0 -359 248 -360q127 0 215 67t143 168q105 193 105 437t-133 322
q-46 27 -113 26q-125 0 -213 -65q-173 -129 -227 -384q-26 -119 -25 -211z" />
    <glyph glyph-name="uni041F" unicode="&#x41f;" horiz-adv-x="1368" 
d="M1069 1182h-512l-252 -1182h-256l297 1393h1022l-295 -1393h-256z" />
    <glyph glyph-name="uni0420" unicode="&#x420;" horiz-adv-x="1136" 
d="M629 694q102 0 175 89t75 218q0 78 -37 129t-109 52h-176l-104 -488h176zM778 1393q177 0 273 -98t96 -259q0 -236 -138 -395q-138 -158 -384 -158h-217l-103 -483h-256l297 1393h432z" />
    <glyph glyph-name="uni0421" unicode="&#x421;" horiz-adv-x="1148" 
d="M608 -31q-236 0 -363 151q-128 151 -128 396q0 388 205 643q98 123 238 194t319 71t329 -91l-88 -194q-112 67 -268 67q-96 0 -181 -53t-149 -143q-138 -195 -137 -461q0 -160 65 -261t185 -102q155 0 297 68l47 -195q-188 -90 -371 -90z" />
    <glyph glyph-name="uni0422" unicode="&#x422;" horiz-adv-x="1056" 
d="M1176 1393l-46 -211h-346l-252 -1182h-256l252 1182h-346l45 211h949z" />
    <glyph glyph-name="uni0423" unicode="&#x423;" horiz-adv-x="1058" 
d="M119 211q84 0 137 34t100 120l29 51l-188 956l4 21h276l58 -441l18 -268h4l133 268l238 441h278l-4 -21l-600 -1034q-123 -205 -218.5 -271.5t-268.5 -66.5h-97l45 211h56z" />
    <glyph glyph-name="uni0424" unicode="&#x424;" horiz-adv-x="1550" 
d="M1231 798q0 241 -219 277l-162 -760q131 23 207 81q174 133 174 402zM369 592q0 -170 118 -243q43 -26 107 -34l162 762q-180 -25 -284 -146q-103 -122 -103 -339zM96 602q0 108 36 224q75 246 334 366q134 61 331 78l26 123h256l-26 -123q233 -23 343 -148t107 -313
q0 -439 -368 -608q-133 -61 -326 -78l-25 -123h-256l25 121q-457 45 -457 481z" />
    <glyph glyph-name="uni0425" unicode="&#x425;" horiz-adv-x="1163" 
d="M492 1393l137 -547h4l368 547h281l-4 -21l-492 -674l205 -678l-4 -20h-262l-135 547h-4l-371 -547h-283l5 20l491 678l-205 674l6 21h263z" />
    <glyph glyph-name="uni0426" unicode="&#x426;" horiz-adv-x="1402" 
d="M913 -289l43 289h-907l297 1393h256l-252 -1182h494l252 1182h256l-252 -1182h143l-143 -500h-187z" />
    <glyph glyph-name="uni0427" unicode="&#x427;" horiz-adv-x="1228" 
d="M555 602q159 0 262 53l158 738h256l-297 -1393h-256l94 446q-90 -37 -179 -48t-124 -11q-176 0 -261 104.5t-44 294.5l129 607h256l-127 -596q-41 -195 133 -195z" />
    <glyph glyph-name="uni0428" unicode="&#x428;" horiz-adv-x="1916" 
d="M49 0l297 1393h256l-252 -1182h404l252 1182h256l-252 -1182h401l250 1182h256l-295 -1393h-1573z" />
    <glyph glyph-name="uni0429" unicode="&#x429;" horiz-adv-x="1968" 
d="M1481 -289l43 289h-1475l297 1393h256l-252 -1182h404l252 1182h256l-252 -1182h401l250 1182h256l-250 -1182h141l-143 -500h-184z" />
    <glyph glyph-name="uni042A" unicode="&#x42a;" horiz-adv-x="1306" 
d="M930 498q0 159 -139 159h-236l-94 -446h233q116 0 176 84.5t60 202.5zM834 868q184 0 278 -86t94 -245q0 -252 -128 -394.5t-390 -142.5h-528l252 1182h-234l43 211h492l-113 -525h234z" />
    <glyph glyph-name="uni042B" unicode="&#x42b;" horiz-adv-x="1685" 
d="M1391 0h-256l297 1393h256zM819 498q0 159 -139 159h-236l-94 -446h234q112 0 174 83q61 84 61 204zM723 868q186 0 279 -86t94 -245q0 -253 -128 -395t-390 -142h-529l297 1393h256l-113 -525h234z" />
    <glyph glyph-name="uni042C" unicode="&#x42c;" horiz-adv-x="1196" 
d="M819 498q0 159 -139 159h-236l-94 -446h234q114 0 174.5 83.5t60.5 203.5zM723 868q186 0 279.5 -86t93.5 -245q0 -252 -128 -394.5t-390 -142.5h-529l297 1393h256l-113 -525h234z" />
    <glyph glyph-name="uni042D" unicode="&#x42d;" horiz-adv-x="1148" 
d="M547 1206q-133 0 -281 -71l-49 198q190 90 371 90q232 0 361.5 -149t129.5 -410q0 -379 -149.5 -565t-290.5 -258t-321 -72t-330 90l88 195q111 -68 258 -68t267 111.5t169 292.5h-494l46 213h489q4 40 4 78q-2 150 -68.5 237.5t-199.5 87.5z" />
    <glyph glyph-name="uni042E" unicode="&#x42e;" horiz-adv-x="1992" 
d="M948 546q0 -359 248 -360q127 0 215 66.5t168 213t80 392.5t-89 297t-157 51q-125 0 -213 -65.5t-144.5 -164.5t-82 -218.5t-25.5 -211.5zM1925 852q0 -142 -47 -306.5t-141.5 -292.5t-235.5 -206t-330 -78q-243 0 -365 151.5t-122 391.5v30q0 31 2 54h-254l-127 -596
h-256l297 1393h256l-125 -586h242q112 431 342.5 523.5t366.5 92.5t228.5 -42t152 -115.5t88 -172.5t28.5 -241z" />
    <glyph glyph-name="uni042F" unicode="&#x42f;" horiz-adv-x="1259" 
d="M709 1182q-107 0 -168.5 -79.5t-61.5 -168.5q0 -178 139 -178h252l91 426h-252zM209 912q0 86 29.5 179t129.5 197.5t353 104.5h541l-297 -1393h-256l116 545h-159l-437 -545h-278l6 33l451 551q-134 65 -166.5 153.5t-32.5 174.5z" />
    <glyph glyph-name="uni0430" unicode="&#x430;" horiz-adv-x="1134" 
d="M326 391q0 -213 141 -215q47 0 90 23t84 51l109 504q-58 57 -138 57q-141 -1 -213 -127q-73 -126 -73 -293zM368 -31q-153 0 -228 109t-76 258t32 267q69 248 245 359q89 56 193 56t166 -40q61 -40 103 -79h4l51 88h191l-166 -772q-4 -23 -1 -30t25 -7h72l-41 -188
q-79 -13 -145 -15q-148 0 -156 113h-4q-59 -49 -121 -84q-60 -35 -144 -35z" />
    <glyph glyph-name="uni0431" unicode="&#x431;" horiz-adv-x="1148" 
d="M782 528q0 78 -41 133.5t-107 55.5q-124 0 -203 -97t-79 -237q0 -90 40 -148.5t106 -58.5t117 28.5t87.5 76t58 108.5t21.5 139zM1042 565q0 -245 -152.5 -420.5t-404.5 -175.5q-381 0 -381 471q0 439 171 672t423 291q88 20 272.5 34.5t225.5 24.5l-49 -229
q-30 -8 -199.5 -20.5t-220.5 -24.5q-143 -35 -225 -137.5t-123 -276.5h6q121 150 331 150q138 0 232 -98.5t94 -260.5z" />
    <glyph glyph-name="uni0432" unicode="&#x432;" horiz-adv-x="1026" 
d="M518 584q156 0 156 139q0 33 -20.5 60.5t-86.5 27.5h-133l-49 -227h133zM930 762q0 -178 -176 -266v-2q51 -20 84.5 -66.5t33.5 -112.5q0 -315 -383 -315h-469l209 987h412q133 0 211 -55t78 -170zM473 176q87 0 122.5 51.5t35.5 96.5t-22.5 71.5t-84.5 26.5h-172
l-53 -246h174z" />
    <glyph glyph-name="uni0433" unicode="&#x433;" horiz-adv-x="854" 
d="M889 987l-43 -196h-416l-168 -791h-242l209 987h660z" />
    <glyph glyph-name="uni0434" unicode="&#x434;" horiz-adv-x="1138" 
d="M633 201l125 590h-244l-45 -166q-68 -249 -97.5 -321.5t-49.5 -102.5h311zM-104 -246l57 447h100q103 103 185 420l92 366h710l-166 -786h99l-129 -447h-168l29 246h-570l-72 -246h-167z" />
    <glyph glyph-name="uni0435" unicode="&#x435;" horiz-adv-x="1038" 
d="M729 682q0 64 -31 108q-31 46 -92 46t-99 -22q-116 -67 -157 -228h363q16 32 16 96zM492 170q109 0 274 74l43 -187q-186 -88 -370 -88t-281 116t-97 294q0 256 155 447q155 192 390 192q173 0 261 -96q89 -96 89 -238t-61 -262h-586q-16 -112 29 -182t154 -70z" />
    <glyph glyph-name="uni0436" unicode="&#x436;" horiz-adv-x="1501" 
d="M592 428q-102 -106 -196.5 -214t-194.5 -214h-289l2 14l467 488l-246 471l2 14h254l219 -471h4l101 471h248l-101 -471h4l394 471h280l-4 -14l-449 -500l263 -459l-4 -14h-259l-239 432h-4l-90 -432h-248l90 428h-4z" />
    <glyph glyph-name="uni0437" unicode="&#x437;" horiz-adv-x="927" 
d="M520 322q0 75 -106 75h-240l43 197h223q84 0 112 40t28 93q0 94 -123 94q-147 0 -279 -51l-28 180q169 68 343 68t261.5 -67.5t87.5 -174.5q0 -203 -178 -272v-4q108 -53 108 -187q0 -344 -473 -344q-190 0 -328 76l62 188q115 -63 283 -63t186 61.5t18 90.5z" />
    <glyph glyph-name="uni0438" unicode="&#x438;" horiz-adv-x="1124" 
d="M328 336l96 149l373 502h272l-209 -987h-242l99 459l49 192h-6l-125 -192l-342 -459h-273l209 987h242l-109 -504l-40 -147h6z" />
    <glyph glyph-name="uni0439" unicode="&#x439;" horiz-adv-x="1124" 
d="M749 1380q130 0 257 70l34 -160q-156 -129 -329 -129q-123 0 -225 94q-26 25 -44 50l84 145q93 -70 223 -70zM328 336l96 149l373 502h272l-209 -987h-242l99 459l49 192h-6l-125 -192l-342 -459h-273l209 987h242l-109 -504l-40 -147h6z" />
    <glyph glyph-name="uni043A" unicode="&#x43a;" horiz-adv-x="1007" 
d="M354 432l-92 -432h-242l209 987h242l-100 -471h4l395 471h281l-2 -14l-443 -500l254 -459l-2 -14h-260l-240 432h-4z" />
    <glyph glyph-name="uni043B" unicode="&#x43b;" horiz-adv-x="1099" 
d="M762 791h-264l-82 -289q-86 -307 -194.5 -411.5t-303.5 -104.5l29 202q120 0 171.5 117t78.5 219l120 463h727l-210 -987h-240z" />
    <glyph glyph-name="uni043C" unicode="&#x43c;" horiz-adv-x="1296" 
d="M614 453l82 127l301 407h244l-209 -987h-241l90 426l49 180h-2l-109 -168l-145 -202h-197l-55 202l-37 168h-4l-29 -180l-90 -426h-242l209 987h224l129 -407l28 -127h4z" />
    <glyph glyph-name="uni043D" unicode="&#x43d;" horiz-adv-x="1112" 
d="M692 393h-346l-84 -393h-242l209 987h242l-82 -393h344l84 393h240l-209 -987h-240z" />
    <glyph glyph-name="uni043E" unicode="&#x43e;" horiz-adv-x="1120" 
d="M1022 588q0 -106 -39 -222t-113 -204q-161 -191 -419 -193q-184 0 -286 117t-102 295q0 269 159 453t411 184q188 0 292 -119q97 -111 97 -311zM324 384q0 -93 37 -151q38 -57 108 -57q131 0 210 119t81 301q0 100 -38 158t-109 57q-71 0 -123 -34t-89 -90t-57 -133
t-20 -170z" />
    <glyph glyph-name="uni043F" unicode="&#x43f;" horiz-adv-x="1112" 
d="M776 791h-346l-168 -791h-242l209 987h828l-209 -987h-240z" />
    <glyph glyph-name="uni0440" unicode="&#x440;" horiz-adv-x="1122" 
d="M460 176q146 0 222 126t78 294q0 92 -36 154t-113 61q-77 0 -185 -74l-107 -504q57 -57 141 -57zM436 899q119 119 273 119t235 -112q80 -112 80 -259q0 -279 -139 -478q-139 -198 -353 -200q-144 0 -241 103h-4l-103 -478h-252l297 1393h185l18 -88h4z" />
    <glyph glyph-name="uni0441" unicode="&#x441;" horiz-adv-x="917" 
d="M63 379q0 276 160 458q160 181 420 181q145 0 256 -62l-72 -188q-108 43 -175 43q-68 0 -126 -28q-119 -57 -174 -206q-26 -75 -26 -179t50 -162q50 -60 132 -60t203 43l28 -188q-135 -60 -255 -61q-211 -2 -316 112q-105 113 -105 297z" />
    <glyph glyph-name="uni0442" unicode="&#x442;" horiz-adv-x="864" 
d="M899 987l-41 -196h-260l-168 -791h-242l168 791h-258l41 196h760z" />
    <glyph glyph-name="uni0443" unicode="&#x443;" horiz-adv-x="1001" 
d="M38 -246q46 0 84 34t79 108l63 114l-147 957l4 20h246l45 -545l4 -204h6l90 204l268 545h269l-5 -20l-634 -1135q-150 -270 -371 -268q-91 0 -178 24l39 185q92 -19 138 -19z" />
    <glyph glyph-name="uni0444" unicode="&#x444;" horiz-adv-x="1626" 
d="M1217 1018q161 0 236 -104.5t75 -246.5q0 -143 -30 -262.5t-89 -217t-148.5 -158t-212.5 -60.5t-219 74h-4l-96 -449h-250l96 449h-4q-47 -29 -97 -51.5t-122 -22.5q-139 0 -214 104.5t-75 245.5q0 284 126.5 491.5t349.5 207.5q133 0 225 -66h4l102 482h250l-102 -482h4
q101 66 195 66zM322 379q0 -203 135 -203q78 0 153 45l119 557q-48 33 -119 33q-135 0 -211.5 -114.5t-76.5 -317.5zM1133 811q-74 0 -154 -45l-119 -557q57 -33 128 -33q72 0 117.5 27.5t105 116t59.5 290.5q0 201 -137 201z" />
    <glyph glyph-name="uni0445" unicode="&#x445;" horiz-adv-x="1013" 
d="M471 360l-262 -360h-279l4 20l381 474l-180 473l4 20h256l109 -362h4l262 362h279l-7 -20l-378 -473l178 -474l-4 -20h-250l-113 360h-4z" />
    <glyph glyph-name="uni0446" unicode="&#x446;" horiz-adv-x="1153" 
d="M705 -246l30 246h-715l209 987h242l-168 -792h330l168 792h243l-167 -792h127l-132 -441h-167z" />
    <glyph glyph-name="uni0447" unicode="&#x447;" horiz-adv-x="991" 
d="M346 266q-150 0 -215 90t-37 226l86 405h242l-86 -405q-22 -113 91 -113q97 0 165 35l102 483h242l-211 -987h-242l68 311q-102 -45 -205 -45z" />
    <glyph glyph-name="uni0448" unicode="&#x448;" horiz-adv-x="1533" 
d="M20 0l209 987h242l-168 -792h262l168 792h242l-168 -792h258l170 792h244l-211 -987h-1248z" />
    <glyph glyph-name="uni0449" unicode="&#x449;" horiz-adv-x="1587" 
d="M1137 -246l30 246h-1147l209 987h242l-168 -792h262l168 792h242l-168 -792h258l170 792h244l-170 -792h127l-131 -441h-168z" />
    <glyph glyph-name="uni044A" unicode="&#x44a;" horiz-adv-x="1058" 
d="M545 188q78 0 107.5 57t29.5 101q0 43 -16.5 75t-65.5 32h-164l-57 -265h166zM635 645q154 0 230.5 -65.5t76.5 -186.5q0 -190 -93 -291.5t-310 -101.5h-441l168 791h-170l41 196h412l-74 -342h160z" />
    <glyph glyph-name="uni044B" unicode="&#x44b;" horiz-adv-x="1425" 
d="M604 356q0 97 -82 97h-164l-57 -265h166q80 0 115 69q22 44 22 99zM557 643q155 -1 231 -65t76 -185q0 -193 -94 -293t-309 -100h-441l209 987h242l-72 -344h158zM909 0l209 987h252l-209 -987h-252z" />
    <glyph glyph-name="uni044C" unicode="&#x44c;" horiz-adv-x="980" 
d="M467 188q79 0 108 56t29 101q0 44 -16.5 76t-65.5 32h-164l-57 -265h166zM557 643q154 0 230.5 -64.5t76.5 -185.5q0 -193 -94 -293t-309 -100h-441l209 987h242l-72 -344h158z" />
    <glyph glyph-name="uni044D" unicode="&#x44d;" horiz-adv-x="931" 
d="M400 1010q218 0 326 -112t108 -294q0 -271 -159.5 -449t-424.5 -178q-155 0 -266 66l84 190q104 -53 195 -53t168 53.5t110 159.5h-346l41 197h337q4 98 -41 158.5t-115 60.5t-117.5 -14.5t-113.5 -40.5l-51 192q139 64 265 64z" />
    <glyph glyph-name="uni044E" unicode="&#x44e;" horiz-adv-x="1593" 
d="M797 384q0 -93 37.5 -150.5t107.5 -57.5q131 0 211 121t80 299q0 100 -38 157.5t-109 57.5t-123 -34t-88.5 -90t-57 -133t-20.5 -170zM1495 588q0 -106 -39 -222t-156.5 -256.5t-375.5 -140.5q-184 0 -285.5 116t-101.5 296v16h-191l-84 -397h-242l209 987h242l-82 -393
h176q55 189 198.5 306.5t337.5 117.5t294 -115t100 -315z" />
    <glyph glyph-name="uni044F" unicode="&#x44f;" horiz-adv-x="1046" 
d="M381 621q0 -99 84 -99h186l56 269h-185q-72 0 -106.5 -53.5t-34.5 -116.5zM121 592q0 174 97 284.5t314 110.5h459l-211 -987h-241l69 326h-84l-317 -326h-262l4 23l332 335q-72 29 -116 90.5t-44 143.5z" />
    <glyph glyph-name="uni0450" unicode="&#x450;" horiz-adv-x="1038" 
d="M729 682q0 64 -31 108q-31 46 -92 46t-99 -22q-116 -67 -157 -228h363q16 32 16 96zM492 170q109 0 274 74l43 -187q-186 -88 -370 -88t-281 116t-97 294q0 256 155 447q155 192 390 192q173 0 261 -96q89 -96 89 -238t-61 -262h-586q-16 -112 29 -182t154 -70zM485 1460
h254l84 -278l-4 -21h-209l-129 281z" />
    <glyph glyph-name="uni0451" unicode="&#x451;" horiz-adv-x="1038" 
d="M729 682q0 64 -31 108q-31 46 -92 46t-99 -22q-116 -67 -157 -228h363q16 32 16 96zM492 170q109 0 274 74l43 -187q-186 -88 -370 -88t-281 116t-97 294q0 256 155 447q155 192 390 192q173 0 261 -96q89 -96 89 -238t-61 -262h-586q-16 -112 29 -182t154 -70zM532 1452
q130 0 130 -124q0 -62 -52 -110t-118 -48t-98 30t-32 92t52 111q50 49 118 49zM930 1452q132 0 131 -124q0 -62 -51 -110t-129 -49q-119 -1 -119 123q0 62 50 111t118 49z" />
    <glyph glyph-name="uni0452" unicode="&#x452;" horiz-adv-x="1099" 
d="M724 1018q130 0 199.5 -92t69.5 -230q0 -239 -102 -480.5t-281 -537.5l-194 115q213 367 265 572.5t52 275.5q0 170 -110 170q-100 0 -205 -102l-152 -709h-248l238 1116h-90l41 191h90l27 127h247l-26 -127h188l-41 -191h-188l-45 -211h4q131 113 261 113z" />
    <glyph glyph-name="uni0453" unicode="&#x453;" horiz-adv-x="854" 
d="M965 1442l-248 -281h-225l4 21l202 278h271zM889 987l-43 -196h-416l-168 -791h-242l209 987h660z" />
    <glyph glyph-name="uni0454" unicode="&#x454;" horiz-adv-x="927" 
d="M63 383q0 271 159.5 449t424.5 178q155 0 266 -66l-84 -190q-104 53 -195 53t-168 -55.5t-110 -161.5h346l-40 -197h-338q-4 -98 41 -156.5t115 -58.5t117.5 14.5t113.5 40.5l51 -192q-140 -64 -265 -64q-218 0 -326 112t-108 294z" />
    <glyph glyph-name="uni0455" unicode="&#x455;" horiz-adv-x="897" 
d="M506 281q0 67 -96 106l-109 47q-122 49 -168 160q-16 39 -16 88q0 162 106 249q105 87 293 87t332 -72l-84 -182q-112 57 -242 57q-154 0 -153 -108q0 -66 88 -103l108 -47q78 -35 135 -96t58 -154q0 -174 -112 -259t-312 -85t-344 94l92 185q129 -84 264 -82
q160 0 160 115z" />
    <glyph glyph-name="uni0456" unicode="&#x456;" horiz-adv-x="536" 
d="M446 1450q132 0 130 -124q0 -62 -52 -110q-51 -48 -129 -49q-119 -1 -119 123q0 62 50 111q52 49 120 49zM20 0l209 987h252l-209 -987h-252z" />
    <glyph glyph-name="uni0457" unicode="&#x457;" horiz-adv-x="534" 
d="M244 1452q130 0 129 -124q0 -62 -51 -110q-52 -48 -118 -48q-130 -2 -130 122q0 62 51 111t119 49zM640 1452q132 0 132 -124q0 -62 -51 -110t-129 -49q-119 -1 -119 123q0 62 50 111q49 49 117 49zM20 0l209 987h252l-209 -987h-252z" />
    <glyph glyph-name="uni0458" unicode="&#x458;" horiz-adv-x="538" 
d="M406 1167q-130 -1 -130 123q0 62 50 111t118 49q132 0 132 -124q0 -62 -52 -111q-52 -48 -118 -48zM-221 -231q57 -15 100 -15q87 0 119 144l231 1089h254l-231 -1087q-71 -336 -373 -336q-73 0 -141 14z" />
    <glyph glyph-name="uni0459" unicode="&#x459;" horiz-adv-x="1486" 
d="M1110 354q0 92 -82 92h-166l-53 -251h166q66 0 100.5 47t34.5 112zM1063 643q154 0 230.5 -64.5t76.5 -185.5q0 -193 -94 -293t-309 -100h-441l168 791h-198l-80 -289q-91 -308 -200 -412t-300 -104l29 202q120 0 171.5 117t78.5 219l122 463h660l-72 -344h158z" />
    <glyph glyph-name="uni045A" unicode="&#x45a;" horiz-adv-x="1538" 
d="M1024 195q68 0 102.5 47t34.5 96t-17.5 78.5t-66.5 29.5h-164l-53 -251h164zM1114 643q154 0 230.5 -64.5t76.5 -185.5q0 -193 -94 -293t-309 -100h-440l94 446h-316l-94 -446h-242l209 987h242l-72 -344h314l73 344h242l-74 -344h160z" />
    <glyph glyph-name="uni045B" unicode="&#x45b;" horiz-adv-x="1110" 
d="M628 811q-72 0 -121 -32q-48 -32 -83 -66l-154 -713h-252l238 1116h-86l39 191h88l27 127h251l-26 -127h186l-41 -191h-186l-45 -209h4q45 37 110 74t150 37q166 0 234 -104t26 -296l-133 -618h-252l129 604q23 98 -4 152t-99 55z" />
    <glyph glyph-name="uni045C" unicode="&#x45c;" horiz-adv-x="1007" 
d="M1012 1442l-248 -281h-225l4 21l202 278h271zM354 432l-92 -432h-242l209 987h242l-100 -471h4l395 471h281l-2 -14l-443 -500l254 -459l-2 -14h-260l-240 432h-4z" />
    <glyph glyph-name="uni045D" unicode="&#x45d;" horiz-adv-x="1124" 
d="M502 1460h254l84 -278l-4 -21h-209l-129 281zM328 336l96 149l373 502h272l-209 -987h-242l99 459l49 192h-6l-125 -192l-342 -459h-273l209 987h242l-109 -504l-40 -147h6z" />
    <glyph glyph-name="uni045E" unicode="&#x45e;" horiz-adv-x="1001" 
d="M38 -246q46 0 84 34t79 108l63 114l-147 957l4 20h246l45 -545l4 -204h6l90 204l268 545h269l-5 -20l-634 -1135q-150 -270 -371 -268q-91 0 -178 24l39 185q92 -19 138 -19zM612 1161q-126 0 -224 94q-26 25 -44 50l84 145q93 -70 224 -70t255 70l35 -160
q-156 -129 -330 -129z" />
    <glyph glyph-name="uni045F" unicode="&#x45f;" horiz-adv-x="1099" 
d="M295 -246l24 246h-299l209 987h242l-168 -792h330l168 792h243l-208 -987h-297l-78 -246h-166z" />
    <glyph glyph-name="uni0462" unicode="&#x462;" horiz-adv-x="1339" 
d="M967 498q0 159 -140 159h-235l-94 -446h235q117 0 175.5 85t58.5 202zM870 868q184 0 278.5 -86t94.5 -245q0 -252 -127 -394.5t-389 -142.5h-530l225 1057h-250l45 211h250l27 125h256l-27 -125h346l-45 -211h-346l-41 -189h233z" />
    <glyph glyph-name="uni0463" unicode="&#x463;" horiz-adv-x="1062" 
d="M551 195q82 0 109.5 56t27.5 96q0 99 -84 99h-164l-53 -251h164zM641 643q154 0 230.5 -64.5t76.5 -185.5q0 -193 -94 -293t-309 -100h-441l168 791h-172l41 196h172l97 449h241l-96 -449h287l-43 -196h-285l-33 -148h160z" />
    <glyph glyph-name="uni0472" unicode="&#x472;" horiz-adv-x="1425" 
d="M836 1206q-153 0 -261.5 -114.5t-156.5 -288.5h672l2 63q0 237 -89 288.5t-167 51.5zM381 579v-80q0 -45 31.5 -179t207.5 -134q177 0 284 119t153 299h-674q-2 -20 -2 -25zM1358 852q0 -142 -47 -306.5t-141.5 -292.5t-235.5 -206t-330 -78q-243 0 -365 151.5
t-122 391.5q0 172 47 336t141 292t235.5 205.5t331.5 77.5q243 0 364.5 -151.5t121.5 -419.5z" />
    <glyph glyph-name="uni0473" unicode="&#x473;" horiz-adv-x="1120" 
d="M760 596q0 215 -160 215q-84 0 -148.5 -62.5t-99.5 -162.5h408v10zM324 391q0 -215 158 -215q83 0 148.5 62.5t98.5 162.5h-405v-10zM1022 588q0 -106 -39 -222t-156.5 -256.5t-375.5 -140.5q-184 0 -286 116.5t-102 295.5q0 267 159.5 452t410.5 185q188 0 288.5 -115
t100.5 -315z" />
    <glyph glyph-name="uni0474" unicode="&#x474;" horiz-adv-x="1257" 
d="M651 0h-315l-139 1372l4 21h258l55 -795l10 -377h6l172 379l263 543q70 145 168 212.5t258 67.5l-41 -217q-53 0 -91 -42t-73 -109z" />
    <glyph glyph-name="uni0475" unicode="&#x475;" horiz-adv-x="1028" 
d="M700 788q53 106 135.5 164t227.5 58l-41 -201q-39 0 -65.5 -34t-43.5 -64l-391 -711h-276l-127 967l4 20h237l50 -571l6 -207h4l94 207z" />
    <glyph glyph-name="uni0490" unicode="&#x490;" horiz-adv-x="1046" 
d="M1200 1681l-76 -499h-567l-252 -1182h-256l297 1393h563l92 288h199z" />
    <glyph glyph-name="uni0491" unicode="&#x491;" horiz-adv-x="849" 
d="M918 1204l-72 -413h-416l-168 -791h-242l209 987h441l75 217h173z" />
    <glyph glyph-name="uni0E3F" unicode="&#xe3f;" 
d="M836 1030q0 72 -18.5 104.5t-57.5 36.5l-74 -350q72 2 111 69.5t39 139.5zM449 817h88l77 359h-90zM322 217h88l84 395h-88zM739 491q0 113 -98 117l-84 -389q88 0 135 79.5t47 192.5zM1008 469q0 -212 -111 -335t-385 -134l-47 -221h-148l48 221h-351l297 1393h348
l39 184h148l-39 -188q139 -10 213 -88t74 -211q0 -204 -88 -281.5t-129 -97.5v-4q131 -69 131 -238z" />
    <glyph glyph-name="Wgrave" unicode="&#x1e80;" horiz-adv-x="1857" 
d="M1980 1372l-622 -1372h-305l-13 819l17 340h-4l-131 -340l-361 -819h-307l-39 1372l4 21h266l-16 -809l-12 -346h4l131 346l352 809h301l6 -809l-14 -346h4l133 346l328 809h283zM915 1835h271l67 -279l-4 -20h-227l-111 281z" />
    <glyph glyph-name="wgrave" unicode="&#x1e81;" horiz-adv-x="1560" 
d="M1589 967l-463 -967h-276l-35 584l8 202h-4l-80 -202l-282 -584h-275l-51 967l4 20h232l8 -581l-15 -199h5l81 199l271 581h274l25 -581l-2 -199h4l69 199l252 581h254zM668 1460h254l84 -278l-5 -21h-208l-129 281z" />
    <glyph glyph-name="Wacute" unicode="&#x1e82;" horiz-adv-x="1857" 
d="M1980 1372l-622 -1372h-305l-13 819l17 340h-4l-131 -340l-361 -819h-307l-39 1372l4 21h266l-16 -809l-12 -346h4l131 346l352 809h301l6 -809l-14 -346h4l133 346l328 809h283zM1491 1817l-229 -281h-244l4 20l186 279h287z" />
    <glyph glyph-name="wacute" unicode="&#x1e83;" horiz-adv-x="1560" 
d="M1589 967l-463 -967h-276l-35 584l8 202h-4l-80 -202l-282 -584h-275l-51 967l4 20h232l8 -581l-15 -199h5l81 199l271 581h274l25 -581l-2 -199h4l69 199l252 581h254zM1272 1442l-248 -281h-225l4 21l203 278h270z" />
    <glyph glyph-name="Wdieresis" unicode="&#x1e84;" horiz-adv-x="1857" 
d="M1980 1372l-622 -1372h-305l-13 819l17 340h-4l-131 -340l-361 -819h-307l-39 1372l4 21h266l-16 -809l-12 -346h4l131 346l352 809h301l6 -809l-14 -346h4l133 346l328 809h283zM1382 1534q-130 0 -131 124q-1 62 51 110t120 48t98 -30t30 -92t-51 -111t-117 -49z
M897 1534q-119 0 -119 124q0 62 50 110t118 48t100 -30t32 -92t-52 -111q-51 -49 -129 -49z" />
    <glyph glyph-name="wdieresis" unicode="&#x1e85;" horiz-adv-x="1560" 
d="M1589 967l-463 -967h-276l-35 584l8 202h-4l-80 -202l-282 -584h-275l-51 967l4 20h232l8 -581l-15 -199h5l81 199l271 581h274l25 -581l-2 -199h4l69 199l252 581h254zM754 1452q130 0 129 -124q1 -62 -51 -110t-118 -48q-130 -2 -130 122q0 62 51 111t119 49z
M1150 1452q132 0 132 -124q0 -62 -51 -110t-129 -49q-119 -1 -119 123q0 62 50 111q49 49 117 49z" />
    <glyph glyph-name="uni1E9E" unicode="&#x1e9e;" horiz-adv-x="1320" 
d="M928 461q0 61 -33 103t-113 42h-133l39 180l293 371q-66 43 -184 43q-248 0 -310 -293l-192 -907h-258l192 903q109 520 607 520q121 0 233.5 -43t190.5 -102l-37 -170l-269 -317v-5q117 -23 183.5 -98.5t66.5 -196.5q0 -235 -143.5 -378.5t-368.5 -143.5q-130 0 -233 25
l47 215q83 -25 155 -25q130 0 198.5 81t68.5 196z" />
    <glyph glyph-name="Ygrave" unicode="&#x1ef2;" horiz-adv-x="1120" 
d="M446 1393l148 -598h4l401 598h285l-4 -21l-594 -807l-119 -565h-256l119 565l-252 807l4 21h264zM545 1835h270l68 -279l-4 -20h-228l-110 281z" />
    <glyph glyph-name="ygrave" unicode="&#x1ef3;" horiz-adv-x="1001" 
d="M38 -246q46 0 84 34t79 108l63 114l-147 957l4 20h246l45 -545l4 -204h6l90 204l268 545h269l-5 -20l-634 -1135q-150 -270 -371 -268q-91 0 -178 24l39 185q92 -19 138 -19zM395 1460h254l84 -278l-4 -21h-209l-129 281z" />
    <glyph glyph-name="endash" unicode="&#x2013;" horiz-adv-x="1101" 
d="M106 451l46 211h835l-45 -211h-836z" />
    <glyph glyph-name="emdash" unicode="&#x2014;" horiz-adv-x="1695" 
d="M106 451l46 211h1429l-45 -211h-1430z" />
    <glyph glyph-name="quoteleft" unicode="&#x2018;" horiz-adv-x="550" 
d="M631 1372l-248 -586h-250l4 21l312 586h186z" />
    <glyph glyph-name="quoteright" unicode="&#x2019;" horiz-adv-x="546" 
d="M147 807l248 586h250l-4 -21l-309 -586h-189z" />
    <glyph glyph-name="quotesinglbase" unicode="&#x201a;" horiz-adv-x="530" 
d="M-143 -309l247 585h250l-4 -20l-309 -586h-188z" />
    <glyph glyph-name="quotedblleft" unicode="&#x201c;" horiz-adv-x="974" 
d="M1055 1372l-248 -586h-250l4 21l311 586h187zM631 1372l-248 -586h-250l4 21l312 586h186z" />
    <glyph glyph-name="quotedblright" unicode="&#x201d;" horiz-adv-x="972" 
d="M147 807l248 586h250l-4 -21l-309 -586h-189zM573 807l248 586h250l-4 -21l-309 -586h-189z" />
    <glyph glyph-name="quotedblbase" unicode="&#x201e;" horiz-adv-x="956" 
d="M-143 -309l247 585h250l-4 -20l-309 -586h-188zM283 -309l247 585h250l-4 -20l-309 -586h-188z" />
    <glyph glyph-name="dagger" unicode="&#x2020;" horiz-adv-x="874" 
d="M444 987l95 447h161l-94 -447h299l-35 -166h-299l-260 -1227h-164l263 1227h-301l34 166h301z" />
    <glyph glyph-name="daggerdbl" unicode="&#x2021;" horiz-adv-x="980" 
d="M502 987l94 447h162l-94 -447h297l-35 -166h-297l-131 -614h297l-35 -166h-297l-94 -447h-164l96 447h-301l35 166h301l131 614h-301l35 166h301z" />
    <glyph glyph-name="bullet" unicode="&#x2022;" horiz-adv-x="772" 
d="M152 536q0 134 82 213.5t188 79.5t154.5 -51.5t48.5 -121.5q0 -134 -83.5 -214t-188.5 -80t-153 52t-48 122z" />
    <glyph glyph-name="ellipsis" unicode="&#x2026;" horiz-adv-x="1509" 
d="M200 307q142 -1 142 -149q0 -72 -59 -130t-133 -58t-108 36q-34 37 -34 88q0 94 60 154t132 59zM688 307q144 -1 144 -149q0 -72 -60 -130q-58 -58 -132 -58t-109 36q-33 37 -33 88q0 95 59 154t131 59zM1174 307q143 -1 143 -149q1 -72 -59 -130t-134 -58t-107 36
q-34 37 -34 88q0 95 59 154t132 59z" />
    <glyph glyph-name="perthousand" unicode="&#x2030;" horiz-adv-x="2332" 
d="M131 0l4 20l1208 1373h222l-6 -21l-1207 -1372h-221zM2228 438q0 -72 -24 -156q-51 -179 -193 -257q-71 -41 -151 -41q-134 0 -195 77t-61 182q0 208 99 349t277 141q125 0 187 -80q61 -80 61 -215zM1866 141q90 0 135 85t45 217t-88 132q-70 0 -122 -82t-52 -217
t82 -135zM791 1110q0 -72 -25 -157t-73 -151q-108 -147 -287 -147q-117 0 -178 77q-62 77 -62 182q0 210 94 342q105 149 283 149q66 0 112 -23q136 -66 136 -272zM520 1247q-68 0 -121 -82t-53 -217t88 -135q83 0 129 85q45 85 45 217t-88 132zM1524 438q0 -72 -25 -156
q-52 -178 -192 -257q-71 -41 -151 -41q-135 0 -196 77t-61 182q0 205 99 348q99 142 278 142q66 0 113 -22q135 -67 135 -273zM1132 492q-53 -83 -53 -217q1 -134 89 -134q83 0 128 85t45 217t-88 132q-68 0 -121 -83z" />
    <glyph glyph-name="guilsinglleft" unicode="&#x2039;" horiz-adv-x="638" 
d="M76 565l391 449l145 -111l-258 -362l107 -361l-180 -88l-211 449z" />
    <glyph glyph-name="guilsinglright" unicode="&#x203a;" horiz-adv-x="641" 
d="M555 541l-391 -449l-146 111l258 362l-106 361l180 88l211 -449z" />
    <glyph glyph-name="fraction" unicode="&#x2044;" horiz-adv-x="321" 
d="M-530 0l4 20l1208 1373h221l-6 -21l-1206 -1372h-221z" />
    <glyph glyph-name="uni2070" unicode="&#x2070;" horiz-adv-x="724" 
d="M823 1356q-1 -72 -25 -157t-72 -151q-108 -147 -288 -147q-116 0 -177 77q-62 77 -62 182q0 210 94 342q105 149 282 149q66 0 113 -23q135 -66 135 -272zM461 1059q91 0 138 92q42 78 42 210t-88 132q-69 0 -122 -82q-52 -82 -52 -217t82 -135z" />
    <glyph glyph-name="uni2074" unicode="&#x2074;" horiz-adv-x="655" 
d="M717 1405l-39 -182h76l-33 -154h-76l-33 -151h-172l33 151h-323l28 139l254 428h182l-235 -411l-2 -2h129l37 182h174z" />
    <glyph glyph-name="uni2075" unicode="&#x2075;" horiz-adv-x="604" 
d="M444 1384q226 0 228 -186q0 -139 -84 -218t-230 -79t-229 41l53 156q72 -37 146 -37q143 0 154 66q3 17 3 42q0 59 -100 59q-57 0 -143 -9l-17 16l117 401h401l-32 -155h-250l-27 -97h10z" />
    <glyph glyph-name="uni2076" unicode="&#x2076;" horiz-adv-x="643" 
d="M428 1057q121 0 121 129q0 72 -78 71q-57 -1 -89 -33t-32 -91q0 -76 78 -76zM557 1395q72 0 123 -50q51 -51 51 -129q1 -78 -23 -134q-47 -113 -165 -158q-57 -23 -123 -23q-66 1 -114 19q-134 54 -134 200q0 66 24 119t80 123l230 274h207l-2 -12l-224 -240v-2
q32 13 70 13z" />
    <glyph glyph-name="uni2077" unicode="&#x2077;" horiz-adv-x="585" 
d="M549 1481h-313l32 155h508l-31 -143l-403 -575h-190l2 10l395 551v2z" />
    <glyph glyph-name="uni2078" unicode="&#x2078;" horiz-adv-x="667" 
d="M428 1417q0 -61 64 -61t89 30q23 30 23 60q-1 67 -72 67q-56 -1 -80 -31t-24 -65zM268 1433q0 90 75 154t193 64q118 -1 175 -53t57 -127t-45 -123q-29 -33 -92 -62v-2q96 -36 96 -146t-86 -173t-214 -63t-194 51q-65 52 -65 136q0 83 49 137t121 79v2q-70 36 -70 126z
M342 1108q0 -66 81 -66t107 32t25 71q1 69 -93 69q-93 0 -115 -70q-5 -19 -5 -36z" />
    <glyph glyph-name="uni2079" unicode="&#x2079;" horiz-adv-x="643" 
d="M512 1497q-121 0 -121 -129q0 -72 78 -72q57 0 89 33t32 92q0 76 -78 76zM367 1159q-56 0 -107 50q-51 51 -51 129q0 144 89 230q89 85 218 85q128 0 190 -64t62 -142q0 -79 -24 -132t-80 -123l-230 -274h-207l2 12l224 239v2q-30 -12 -86 -12z" />
    <glyph glyph-name="uni207A" unicode="&#x207a;" horiz-adv-x="491" 
d="M479 1354h121l-29 -140h-122l-31 -145h-142l33 145h-119l29 140h119l31 147h141z" />
    <glyph glyph-name="uni207B" unicode="&#x207b;" horiz-adv-x="546" 
d="M219 1214l29 140h381l-29 -140h-381z" />
    <glyph glyph-name="uni207D" unicode="&#x207d;" horiz-adv-x="366" 
d="M188 1122q0 291 192 552q50 69 93 122l90 -78q-120 -176 -156 -266q-67 -171 -67 -347t29 -308l-107 -39q-74 175 -74 364z" />
    <glyph glyph-name="uni207E" unicode="&#x207e;" horiz-adv-x="368" 
d="M477 1432q0 -292 -191 -552q-50 -69 -93 -122l-91 78q123 181 157 269q112 289 38 652l106 39q74 -175 74 -364z" />
    <glyph glyph-name="uni2080" unicode="&#x2080;" horiz-adv-x="724" 
d="M578 194q0 -72 -25 -156q-53 -179 -193 -257q-72 -41 -151 -41q-134 0 -195 77t-61 182q0 208 100 350t277 140q66 0 112 -22q136 -67 136 -273zM133 30q0 -134 87 -133t133 93q42 78 42 210t-88 132q-35 0 -65 -22q-109 -77 -109 -280z" />
    <glyph glyph-name="uni2081" unicode="&#x2081;" horiz-adv-x="495" 
d="M-43 199l35 166l270 110h131l-153 -719h-174l112 525h-2l-205 -82h-14z" />
    <glyph glyph-name="uni2082" unicode="&#x2082;" horiz-adv-x="641" 
d="M274 489q98 0 165 -53t67 -145q0 -130 -94 -212q-31 -28 -68 -54l-151 -113v-4h243l-33 -152h-512l29 138l336 249q66 47 66 115q0 30 -18 52t-58 22q-41 0 -78 -26t-76 -58l-94 119q122 122 276 122z" />
    <glyph glyph-name="uni2083" unicode="&#x2083;" horiz-adv-x="628" 
d="M114 -100q86 0 116 22t30 70q0 47 -88 47h-131l31 151h129q59 0 81 25t21 61q0 54 -88 55t-168 -34l-39 145q123 47 238 47q114 0 180 -48t66 -130q0 -118 -96 -172q-26 -14 -50 -20v-2q94 -37 93 -140q-1 -104 -78 -171q-77 -66 -226 -66t-239 55l55 150q78 -45 163 -45
z" />
    <glyph glyph-name="uni2084" unicode="&#x2084;" horiz-adv-x="655" 
d="M471 244l-39 -183h76l-33 -153h-76l-32 -152h-172l32 152h-323l28 139l254 428h183l-236 -412l-2 -2h129l37 183h174z" />
    <glyph glyph-name="uni2085" unicode="&#x2085;" horiz-adv-x="604" 
d="M199 223q103 0 165 -45t62 -141q0 -139 -84 -218t-229 -79t-230 41l54 156q72 -37 146 -37q73 0 99 10q58 23 58 90t-84 67q-83 1 -160 -10l-16 17l116 401h402l-33 -156h-250l-27 -96h11z" />
    <glyph glyph-name="uni2086" unicode="&#x2086;" horiz-adv-x="643" 
d="M303 25q0 72 -78 71q-57 0 -89 -33t-32 -92q0 -76 78 -75q121 0 121 129zM311 233q72 0 123 -50t51 -128q0 -145 -90 -231t-219 -85t-188 64q-60 63 -61 142q-1 80 23 133t81 123l229 274h207l-2 -12l-223 -240v-2q30 12 69 12z" />
    <glyph glyph-name="uni2087" unicode="&#x2087;" horiz-adv-x="585" 
d="M303 319h-313l33 156h507l-30 -143l-404 -576h-190l2 11l395 550v2z" />
    <glyph glyph-name="uni2088" unicode="&#x2088;" horiz-adv-x="669" 
d="M184 256q0 -61 64 -61q64 -1 89 29q23 30 23 61q-1 67 -71 67q-55 0 -80 -30t-25 -66zM292 489q118 0 175 -52t57 -127t-45 -124q-27 -31 -92 -61v-2q98 -36 97 -146q-1 -109 -87 -173t-214 -64q-127 0 -193 52t-66 136t49 138t121 77v2q-71 37 -70 127t75 154
q75 63 193 63zM98 -53q0 -66 81 -66t107 32t25 71q0 69 -93 69t-115 -70q-5 -19 -5 -36z" />
    <glyph glyph-name="uni2089" unicode="&#x2089;" horiz-adv-x="643" 
d="M266 336q-121 0 -121 -129q0 -72 78 -72q57 0 89 33t32 92q0 76 -78 76zM-37 176q0 142 89 231q89 85 218 85q128 0 190 -64t62 -143t-24 -131t-80 -123l-230 -275h-206l2 13l223 239v2q-30 -12 -86 -12t-107 50t-51 128z" />
    <glyph glyph-name="uni208D" unicode="&#x208d;" horiz-adv-x="366" 
d="M-57 -39q0 288 191 552q50 69 93 122l90 -78q-121 -178 -156 -268q-65 -170 -66 -345t28 -309l-107 -38q-73 172 -73 364z" />
    <glyph glyph-name="uni208E" unicode="&#x208e;" horiz-adv-x="366" 
d="M231 270q0 -288 -191 -552q-50 -69 -93 -121l-90 77q120 177 155 267q66 171 67 347t-28 308l107 39q73 -172 73 -365z" />
    <glyph glyph-name="colonmonetary" unicode="&#x20a1;" 
d="M336 589q0 -171 24 -255l308 852q-137 -70 -234.5 -248t-97.5 -349zM825 1202h-18l-358 -958q43 -32 75 -41l373 991q-32 8 -72 8zM246 70q-170 144 -170 456q0 158 47 311.5t187 344t456 233.5l63 162h129l-61 -154q59 -5 88 -10l64 164h129l-74 -195q51 -23 104 -49
l-112 -205l-82 37l-365 -972q123 8 262 71l47 -205q-188 -90 -395 -90h-4l-74 -190h-129l78 203l-82 22l-86 -225h-129z" />
    <glyph glyph-name="lira" unicode="&#x20a4;" horiz-adv-x="1060" 
d="M324 1200q37 223 459 223q203 0 364 -92l-94 -213q-141 74 -279 74q-84 0 -135 -45t-72 -150q-2 -8 -2 -14t-4 -14h348l-41 -195h-329l-19 -158h316l-43 -194h-304q-20 -55 -57 -113.5t-78 -93.5l-2 -4h547l-45 -211h-854l37 176q86 47 124 105t56 141h-145l41 194h125
q0 1 18 158h-109l41 195h97q2 8 39 231z" />
    <glyph glyph-name="uni20A6" unicode="&#x20a6;" 
d="M397 1206l-41 -260h84l-37 260h-6zM766 199l47 254h-88l35 -254h6zM328 776l-27 -153h186l-18 153h-141zM698 623h144l28 153h-192zM1042 453l-96 -453h-373l-61 453h-244l-96 -453h-242l97 453h-90l36 170h90l33 153h-92l37 170h90l96 447h375l49 -447h254l94 447h242
l-94 -447h92l-37 -170h-92l-33 -153h92l-36 -170h-91z" />
    <glyph glyph-name="uni20A8" unicode="&#x20a8;" 
d="M354 723q174 0 226 117h-424l100 204h367q0 59 -45.5 91t-126.5 32h-226l107 238h882l-96 -195h-334v-4q53 -29 70.5 -76t22.5 -86h262l-99 -204h-196q-104 -298 -418 -328l295 -467l-8 -33h-281l-311 535l37 176h196z" />
    <glyph glyph-name="uni20AA" unicode="&#x20aa;" horiz-adv-x="1366" 
d="M741 217q128 0 190 67.5t99 245.5l184 865h265l-183 -858q-60 -289 -185 -413t-396 -124h-418l211 995h227l-166 -778h172zM635 1176h-174l-250 -1176h-264l297 1393h415q267 0 326 -97.5t59 -199t-30 -240.5l-99 -459h-221l99 465q37 177 2.5 245.5t-160.5 68.5z" />
    <glyph glyph-name="dong" unicode="&#x20ab;" 
d="M27 0l34 166h797l-35 -166h-796zM621 893q-127 0 -194 -81.5t-67 -201.5q0 -74 37 -121t108 -47t165 43l80 381q-55 27 -129 27zM659 322q-107 -80 -246 -80q-154 0 -237.5 96t-83.5 242q0 208 126 362t352 154q128 0 212 -64h4l31 146h-178l37 165h178l18 91h258
l-18 -91h80l-35 -165h-82l-192 -912h-207l-12 56h-5z" />
    <glyph glyph-name="Euro" unicode="&#x20ac;" 
d="M436 422q12 -221 229 -221q112 0 261 71l45 -217q-172 -86 -371 -86t-313.5 121t-124.5 332h-146l99 194h59q12 81 35 158h-117l96 195h91q98 209 244.5 331.5t346.5 122.5t330 -90l-94 -213q-122 72 -231 72q-213 0 -320 -223h473l-96 -195h-463q-27 -75 -35 -158h438
l-96 -194h-340z" />
    <glyph glyph-name="uni20AD" unicode="&#x20ad;" 
d="M754 588l215 -568l-4 -20h-306l-184 588h-51l-125 -588h-266l125 588h-97l41 194h97l131 611h266l-131 -611h51l428 611h297l-4 -21l-449 -590h275l-41 -194h-268z" />
    <glyph glyph-name="uni20AE" unicode="&#x20ae;" 
d="M854 492l-195 -70l-90 -422h-266l70 326l-193 -68l37 170l193 68l28 137l-192 -68l37 170l190 68l80 373h-354l47 217h977l-47 -217h-357l-57 -277l194 70l-36 -170l-195 -70l-29 -137l195 70z" />
    <glyph glyph-name="uni20B1" unicode="&#x20b1;" 
d="M637 1180h-88l-23 -113h256q-2 41 -41 77t-104 36zM496 518q68 0 120 37t70 80h-252l-24 -117h86zM467 795h295q15 43 24 112h-294zM670 1393q174 0 273 -87t114 -235h123l-35 -164h-96q-8 -66 -23 -112h94l-35 -164h-118q-165 -326 -488 -326h-106l-66 -305h-264
l133 631h-88l35 164h88l25 112h-89l35 164h88l70 322h330z" />
    <glyph glyph-name="uni20B2" unicode="&#x20b2;" 
d="M352 488q0 -225 74 -275l203 958q-115 -70 -196 -264t-81 -419zM84 460q0 177 40 330.5t115.5 281.5t186.5 220t254 127l35 158h155l-30 -154q100 -4 183 -34.5t134 -65.5l-100 -201q-108 74 -266 78l-213 -1007q72 0 141 36l61 293l-69 23l43 203h311l-139 -666
q-162 -98 -396 -111l-41 -192h-157l43 201q-145 29 -218 166t-73 314z" />
    <glyph glyph-name="uni20B4" unicode="&#x20b4;" 
d="M322 1323q196 100 402 100q62 0 133 -24.5t142.5 -88.5t71.5 -196q0 -78 -31 -145h68l-41 -195h-199q-29 -20 -62.5 -47t-62.5 -43l-106 -68h395l-41 -194h-614q-17 -42 -17 -98t35 -96t129 -40t198.5 48.5t135.5 68.5l55 -203q-77 -47 -206 -90t-226 -43
q-182 0 -281.5 88t-99.5 234q0 62 23 131h-66l41 194h199q27 23 65.5 50.5t61.5 44.5l88 63h-379l41 195h614q21 37 21 95t-34 99t-111 41t-165.5 -34.5t-125.5 -53.5z" />
    <glyph glyph-name="uni20B5" unicode="&#x20b5;" 
d="M344 542q0 -124 35 -214t100 -119l207 971q-137 -52 -239.5 -231t-102.5 -407zM430 -18q-354 72 -354 580q0 136 45 284.5t129 267.5t207 201t278 106l35 156h164l-33 -154q137 -7 279 -90l-82 -205q-122 65 -244 72l-213 -1007q131 8 274 71l66 -205q-174 -81 -389 -90
l-39 -190h-166z" />
    <glyph glyph-name="uni2113" unicode="&#x2113;" horiz-adv-x="788" 
d="M467 817q87 79 146 191t59 188t-55 76t-78 -113zM668 1464q86 0 142 -56t56 -151q0 -172 -116.5 -339.5t-333.5 -342.5l-64 -294q-24 -117 64 -117q72 0 159 61l43 -172q-115 -84 -242 -84t-183 71t-25 216l43 188q-28 -21 -60.5 -43.5t-74.5 -52.5l-51 158
q76 47 147.5 104.5t85.5 71.5l94 440q74 342 316 342z" />
    <glyph glyph-name="uni2116" unicode="&#x2116;" horiz-adv-x="2033" 
d="M934 342l20 270l166 781h256l-295 -1393h-262l-340 1049h-6l-20 -271l-166 -778h-256l297 1393h262l338 -1051h6zM1339 412l33 157h514l-33 -157h-514zM2044 1078q0 -66 -27 -137t-75 -125q-104 -118 -269 -118q-119 0 -188 77q-70 77 -71 174q-1 99 26 169
q55 143 192 208q68 32 142 32t122 -22q148 -66 148 -258zM1808 910q50 54 50 172t-103 118q-51 0 -105 -55t-53 -172t109 -117q52 0 102 54z" />
    <glyph glyph-name="uni2117" unicode="&#x2117;" horiz-adv-x="1650" 
d="M268 608q0 -228 129.5 -363.5t341.5 -135.5q141 0 267.5 56t221.5 151.5t150.5 222.5t55.5 249q0 229 -127 362.5t-332 133.5q-141 0 -269 -55t-225.5 -149.5t-155 -222t-57.5 -249.5zM121 596q0 152 71.5 307.5t191.5 271t276 182t308 66.5q284 0 448.5 -173t164.5 -429
q0 -178 -71.5 -332.5t-191.5 -270.5t-276 -182.5t-308 -66.5t-262 46t-187.5 128t-120.5 191.5t-43 261.5zM893 702q80 0 102.5 43t22.5 107q0 76 -78 76h-98l-47 -226h98zM979 1079q235 0 235 -220q0 -124 -76 -216t-239 -92h-137l-51 -238h-185l162 766h291z" />
    <glyph glyph-name="trademark" unicode="&#x2122;" horiz-adv-x="1503" 
d="M1141 1118q23 31 42 65t42 66l131 185h184l-123 -574h-164l41 199l62 186h-2l-166 -268h-135l-54 268h-2l-18 -186l-43 -199h-160l121 574h170l47 -181zM797 1434l-27 -131h-164l-94 -443h-164l94 443h-166l29 131h492z" />
    <glyph glyph-name="Omega" unicode="&#x2126;" horiz-adv-x="1458" 
d="M1106 845q0 361 -245 361q-128 0 -216 -69.5t-140 -170t-74.5 -214t-22.5 -199.5q0 -242 161 -363l-41 -190h-524l45 211h270q-109 78 -136 213.5t-27 239.5t46 245.5t138 256t229 186t293 71.5t249 -43t182 -151t89 -339t-116 -414.5t-269 -264.5h256l-45 -211h-524
l41 190q307 172 344 368t37 287z" />
    <glyph glyph-name="estimated" unicode="&#x212e;" horiz-adv-x="1376" 
d="M704 1135q-208 0 -333 -129v-330h678v330q-137 129 -345 129zM724 -31q-273 0 -435 180t-162 446t161.5 441.5t419.5 175.5q257 0 418.5 -165.5t169.5 -432.5l-14 -20h-911v-412q133 -127 338 -127q277 0 419 217l76 -55q-96 -133 -214 -190.5t-266 -57.5z" />
    <glyph glyph-name="onethird" unicode="&#x2153;" horiz-adv-x="1540" 
d="M41 0l4 20l1208 1373h222l-7 -21l-1206 -1372h-221zM188 1114l35 166l271 111h131l-154 -719h-174l113 524h-2l-205 -82h-15zM1198 236q0 47 -88 47h-131l31 151h129q59 0 81 25t21 61q0 55 -87 55t-169 -34l-39 145q123 47 238 47q114 0 180 -48t66 -130
q0 -118 -96 -172q-26 -14 -50 -21v-2q94 -37 93 -140t-78 -170q-77 -66 -226 -66t-239 55l55 149q74 -43 176 -45q133 0 133 93z" />
    <glyph glyph-name="twothirds" unicode="&#x2154;" horiz-adv-x="1652" 
d="M154 0l4 20l1208 1373h221l-6 -21l-1206 -1372h-221zM504 1401q98 0 165 -53t67 -145t-44 -154q-35 -54 -119 -113l-151 -113v-4h244l-33 -151h-512l29 137l335 250q66 47 66 114q0 29 -17 52q-16 23 -58 23t-79 -26t-75 -59l-95 119q123 123 277 123zM1313 236
q0 47 -88 47h-131l30 151h129q103 0 103 86q0 55 -87 55t-169 -34l-39 145q123 47 237 47q115 0 181 -48t65 -130q0 -151 -145 -193v-2q92 -36 92 -139q0 -104 -77 -171q-77 -66 -226 -66t-240 55l56 149q74 -43 176 -45q133 0 133 93z" />
    <glyph glyph-name="oneeighth" unicode="&#x215b;" horiz-adv-x="1538" 
d="M41 0l4 20l1208 1373h222l-7 -21l-1206 -1372h-221zM188 1114l35 166l271 111h131l-154 -719h-174l113 524h-2l-205 -82h-15zM1081 500q1 -62 65 -62t88 30t24 61q-1 67 -72 67q-55 0 -80 -31t-25 -65zM1189 733q118 0 175 -52t57 -126q0 -129 -137 -186v-2
q43 -17 70 -53t26 -91q0 -113 -86 -176t-214 -63t-194 52t-65 136q0 84 49 137t121 78v2q-71 37 -70 127t75 154q75 63 193 63zM995 190q0 -65 81 -65t107 32t25 70q0 68 -93 69t-115 -70q-5 -19 -5 -36z" />
    <glyph glyph-name="threeeighths" unicode="&#x215c;" horiz-adv-x="1617" 
d="M121 0l4 20l1208 1373h221l-6 -21l-1206 -1372h-221zM1161 500q1 -62 65 -62t88 30t24 61q-1 67 -72 67q-55 0 -80 -31t-25 -65zM1001 516q0 90 75 154t193 63q118 0 175 -52t57 -126q0 -129 -137 -186v-2q43 -17 70 -53t26 -91q0 -113 -86 -176t-214 -63t-194 52
t-65 136q0 84 49 137t121 78v2q-70 37 -70 127zM1075 190q0 -65 81 -65t107 32t25 70q0 68 -93 69t-115 -70q-5 -19 -5 -36zM339 809q85 1 116 23t30 69q0 47 -88 47h-131l31 152h129q104 0 102 86q0 55 -88 55t-168 -35l-39 146q118 45 236 46q117 1 183 -47t65 -129
q0 -81 -43 -129t-103 -65v-2q93 -36 93 -140q0 -103 -77 -170t-226 -67t-240 56l55 149q78 -45 163 -45z" />
    <glyph glyph-name="fiveeighths" unicode="&#x215d;" horiz-adv-x="1579" 
d="M82 0l4 20l1208 1373h222l-7 -21l-1206 -1372h-221zM375 983q-65 0 -152 -10l-16 16l117 402h401l-33 -156h-250l-26 -96h10q227 0 227 -187q0 -139 -84 -218t-227 -79t-231 41l53 156q72 -37 164 -37q91 0 119 35q20 22 20 63q0 70 -92 70zM1122 500q0 -62 64 -62t89 30
q23 30 23 61q-1 67 -71 67q-55 0 -80 -31t-25 -65zM1230 733q118 0 175 -52t57 -126q0 -129 -137 -186v-2q43 -17 70 -53t26 -91q0 -113 -86 -176t-214 -63q-127 0 -193 52t-66 136t49 137t121 78v2q-71 37 -70 127t75 154q75 63 193 63zM1036 190q0 -65 81 -65t107 32
t25 70q0 68 -93 69t-115 -70q-5 -19 -5 -36z" />
    <glyph glyph-name="seveneighths" unicode="&#x215e;" horiz-adv-x="1509" 
d="M12 0l4 20l1209 1373h221l-6 -21l-1207 -1372h-221zM1117 438q64 0 88 30t24 61q0 67 -72 67q-55 0 -80 -31t-24 -65q0 -62 64 -62zM1160 733q118 0 175 -52t58 -126q0 -131 -138 -186v-2q97 -36 97 -147q0 -110 -86 -173t-214 -63t-194 52t-66 136t50 137q49 53 121 78
v2q-72 37 -71 127q2 90 76 154t192 63zM967 190q0 -65 81 -65q80 0 106 32q26 31 26 65q0 73 -86 75q-104 0 -122 -71q-5 -19 -5 -36zM547 1235h-314l33 156h508l-31 -144l-403 -575h-190l2 10l395 551v2z" />
    <glyph glyph-name="arrowleft" unicode="&#x2190;" horiz-adv-x="1826" 
d="M1827 815v-242h-1292l507 -475l-182 -182l-778 778l778 779l182 -183l-507 -475h1292z" />
    <glyph glyph-name="arrowup" unicode="&#x2191;" horiz-adv-x="1826" 
d="M1731 784l-183 -182l-475 510l-2 -1292h-242l2 1292l-475 -510l-182 182l778 779z" />
    <glyph glyph-name="arrowright" unicode="&#x2192;" horiz-adv-x="1826" 
d="M82 573v242h1292l-508 475l183 183l778 -779l-778 -778l-183 182l508 475h-1292z" />
    <glyph glyph-name="arrowdown" unicode="&#x2193;" horiz-adv-x="1826" 
d="M174 598l182 182l475 -510l3 1293h241l-2 -1293l475 510l183 -182l-779 -778z" />
    <glyph glyph-name="uni2196" unicode="&#x2196;" horiz-adv-x="1818" 
d="M1427 1356v-258l-694 22l914 -911l-174 -174l-914 915l25 -696h-258v1102h1101z" />
    <glyph glyph-name="uni2197" unicode="&#x2197;" horiz-adv-x="1818" 
d="M1647 254h-258l22 694l-911 -913l-174 174l915 913l-696 -22v256h1102v-1102z" />
    <glyph glyph-name="uni2198" unicode="&#x2198;" horiz-adv-x="1818" 
d="M545 37v258l694 -23l-913 912l174 174l913 -916l-24 697h258v-1102h-1102z" />
    <glyph glyph-name="uni2199" unicode="&#x2199;" horiz-adv-x="1818" 
d="M326 1139h258l-23 -695l912 914l174 -174l-916 -914l696 25v-258h-1101v1102z" />
    <glyph glyph-name="partialdiff" unicode="&#x2202;" horiz-adv-x="1165" 
d="M807 612q-75 156 -203 156t-208.5 -109t-80.5 -270q0 -98 41.5 -150.5t103.5 -52.5q123 0 222 118.5t125 307.5zM545 985q193 0 303 -151h4q12 170 -86 274t-307 109l55 217q274 0 425 -159t151 -419q0 -178 -48.5 -339t-136.5 -282.5t-211 -193.5t-285 -72t-259 115
t-97 273q0 159 43 272.5t113 192.5t158 121t178 42z" />
    <glyph glyph-name="Delta" unicode="&#x2206;" horiz-adv-x="1302" 
d="M784 1167l-170 -368l-292 -596h528l-49 596l-10 368h-7zM1128 0h-1191l2 10l739 1383h301l151 -1383z" />
    <glyph glyph-name="product" unicode="&#x220f;" horiz-adv-x="1331" 
d="M1059 1223h-512l-346 -1629h-256l391 1840h1022l-389 -1840h-256z" />
    <glyph glyph-name="summation" unicode="&#x2211;" horiz-adv-x="1140" 
d="M-84 -195l651 723l-323 695l47 211h921l-45 -211h-669l346 -707l-639 -711h690l-45 -211h-979z" />
    <glyph glyph-name="minus" unicode="&#x2212;" 
d="M1055 662l-45 -211h-949l45 211h949z" />
    <glyph glyph-name="uni2215" unicode="&#x2215;" horiz-adv-x="1173" 
d="M-104 0l4 20l1208 1373h221l-6 -21l-1206 -1372h-221z" />
    <glyph glyph-name="uni2219" unicode="&#x2219;" horiz-adv-x="548" 
d="M109 545q0 142 122 196q37 17 89 17t88 -38t34 -110q0 -72 -59 -132q-59 -58 -133 -58t-108 37q-33 37 -33 88z" />
    <glyph glyph-name="radical" unicode="&#x221a;" horiz-adv-x="1210" 
d="M6 455h225l66 -394l16 -241h4l111 248l690 1325h236l-944 -1799h-260l-148 840z" />
    <glyph glyph-name="infinity" unicode="&#x221e;" horiz-adv-x="1394" 
d="M383 432q37 0 77 28.5t103 94.5q-39 66 -63.5 93.5t-71.5 27.5t-87 -45t-40 -95t22.5 -77t59.5 -27zM956 432q45 0 86 44t41 94t-22.5 78t-60.5 28t-75.5 -27.5t-103.5 -95.5q41 -66 65.5 -93.5t69.5 -27.5zM168 312q-72 70 -72 186q0 157 99 262.5t237 105.5
q90 0 152.5 -40t128.5 -132q115 107 165 133.5t82.5 32.5t78.5 6q101 0 175 -67.5t74 -205.5q0 -137 -100.5 -244t-213.5 -107t-177 40t-121 130q-109 -101 -177 -135.5t-163 -34.5q-96 0 -168 70z" />
    <glyph glyph-name="integral" unicode="&#x222b;" horiz-adv-x="968" 
d="M947 1233q-54 0 -82.5 -40t-53.5 -108l-440 -1196q-63 -174 -154.5 -249.5t-226.5 -75.5q-92 0 -160 14l47 191q58 -15 107 -15t79.5 40t55.5 108l440 1196q63 174 154.5 249.5t206.5 75.5t182 -14l-47 -190q-54 14 -108 14z" />
    <glyph glyph-name="approxequal" unicode="&#x2248;" 
d="M239 276q-68 0 -120 -51l-70 129q113 133 264 133q85 0 186 -38.5t155.5 -56t102.5 -17.5t76.5 10t63.5 39l70 -129q-111 -131 -260 -131q-75 0 -181 39t-162.5 56t-124.5 17zM337 737q-66 0 -120 -51l-70 129q113 133 265 133q83 0 184.5 -39t156 -56t102.5 -17t77 10
t63 39l70 -129q-111 -131 -260 -131q-77 0 -182 38.5t-162.5 56t-123.5 17.5z" />
    <glyph glyph-name="notequal" unicode="&#x2260;" 
d="M377 430l147 252h-413l45 211h493l125 215h209l-4 -21l-115 -194h240l-45 -211h-318l-147 -252h412l-45 -211h-492l-127 -219h-209l4 20l115 199h-240l45 211h320z" />
    <glyph glyph-name="lessequal" unicode="&#x2264;" 
d="M944 211l-43 -211h-946l45 211h944zM942 279l-844 399l43 203l1014 399h16l-47 -231l-764 -275v-6l648 -274l-50 -215h-16z" />
    <glyph glyph-name="greaterequal" unicode="&#x2265;" 
d="M969 211l-43 -211h-946l45 211h944zM39 279l47 231l766 274v7l-647 274l47 215h18l842 -399l-43 -203l-1012 -399h-18z" />
    <glyph glyph-name="lozenge" unicode="&#x25ca;" horiz-adv-x="1071" 
d="M795 696l-146 437l-323 -453l149 -422zM82 711l504 682h192l260 -723l-503 -670h-193z" />
    <glyph glyph-name="circle" unicode="&#x25cb;" horiz-adv-x="1638" 
d="M416 294.5q160 -163.5 403 -163.5t402 164.5t159 400.5q0 237 -159 401.5t-402 164.5t-403 -164t-160 -402t160 -401.5zM123 696.5q0 147.5 53 275.5t146.5 221t221.5 146.5t275.5 53.5t275.5 -53.5t221 -146.5t146.5 -221t53.5 -275.5t-53.5 -275.5t-146.5 -221.5
t-221 -146.5t-275.5 -53t-275.5 53t-221.5 146.5t-146.5 221.5t-53 275.5z" />
    <glyph glyph-name="H18533" unicode="&#x25cf;" horiz-adv-x="1638" 
d="M123 698.5q0 147.5 53 274.5t146.5 220t220.5 146.5t274.5 53.5t275.5 -53.5t222 -146.5t147.5 -220t53.5 -274.5t-53.5 -275.5t-147.5 -222.5t-222 -147.5t-275.5 -53t-274.5 53t-220.5 147.5t-146.5 222.5t-53 275.5z" />
    <glyph glyph-name="uni25DC" unicode="&#x25dc;" horiz-adv-x="696" 
d="M696 1262q-243 0 -403 -164t-160 -402h-133q0 147 53 275.5t146.5 221.5t221.5 146.5t275 53.5v-131z" />
    <glyph glyph-name="uni25DD" unicode="&#x25dd;" horiz-adv-x="696" 
d="M0 1393q147 0 275 -53.5t221.5 -146.5t146.5 -221t53 -276h-135q0 237 -159 401.5t-402 164.5v131z" />
    <glyph glyph-name="uni25DE" unicode="&#x25de;" horiz-adv-x="696" 
d="M0 131q243 0 402 164.5t159 400.5h135q0 -147 -53 -275t-146.5 -221.5t-221.5 -146.5t-275 -53v131z" />
    <glyph glyph-name="uni25DF" unicode="&#x25df;" horiz-adv-x="696" 
d="M696 0q-147 0 -275 53t-221.5 146.5t-146.5 221.5t-53 275h133q0 -237 160 -401t403 -164v-131z" />
    <glyph glyph-name="uniEA01" unicode="&#xea01;" horiz-adv-x="2048" 
d="M1206 610h-360v-385h-238v961h238v-385h360v385h236v-961h-236v385zM1755 -47v1464h-1464v-1464h1464zM141 1567h1764v-1764h-1764v1764z" />
    <glyph glyph-name="uniEA02" unicode="&#xea02;" horiz-adv-x="2048" 
d="M1082 203q-128 0 -218 35.5t-151.5 102.5t-93 159t-31.5 262.5t127 307t356 136.5q149 0 283 -61l-62 -189q-66 31 -112.5 42.5t-108.5 11.5q-98 0 -165.5 -76t-67.5 -229.5t67.5 -228.5t168.5 -75t218 52l62 -189q-144 -61 -272 -61zM1755 -47v1464h-1464v-1464h1464z
M141 1567h1764v-1764h-1764v1764z" />
    <glyph glyph-name="uniEA03" unicode="&#xea03;" horiz-adv-x="2048" 
d="M1028 1014q-63 0 -91 -25.5t-28 -60.5t17.5 -54.5t70.5 -35.5l107 -33q141 -43 208.5 -106.5t67.5 -176.5q0 -147 -104.5 -233t-279.5 -86q-174 0 -341 86l60 188q87 -49 170.5 -64.5t120.5 -15.5q131 0 131 97q0 35 -25 54t-100 44l-111 35q-135 45 -185 115.5
t-50 162.5q0 141 98 221t263 80t306 -61l-61 -189q-118 58 -244 58zM1755 -47v1464h-1464v-1464h1464zM141 1567h1764v-1764h-1764v1764z" />
    <glyph glyph-name="uniEA04" unicode="&#xea04;" horiz-adv-x="2048" 
d="M1206 225h236v961h-236v-385h-360v385h-238v-961h238v385h360v-385zM141 1567h1764v-1764h-1764v1764z" />
    <glyph glyph-name="uniEA05" unicode="&#xea05;" horiz-adv-x="2048" 
d="M1087 1206q-133 0 -223 -36.5t-151.5 -102.5t-93 -158t-31.5 -262t125.5 -307t357.5 -137q135 0 283 61l-62 189q-118 -52 -219 -52q-100 0 -167.5 75t-67.5 228.5t67.5 229.5t170.5 76t216 -54l62 189q-134 61 -267 61zM141 1567h1764v-1764h-1764v1764z" />
    <glyph glyph-name="uniEA06" unicode="&#xea06;" horiz-adv-x="2048" 
d="M1380 522q0 113 -67.5 176.5t-208.5 106.5l-107 33q-53 16 -70.5 35.5t-17.5 54.5t28 60.5t91 25.5q124 0 244 -58l61 189q-142 61 -306 61q-165 0 -263 -79.5t-98 -221.5q0 -92 50 -162.5t185 -115.5l111 -35q76 -25 100.5 -44.5t24.5 -53.5q0 -96 -131 -97
q-103 0 -185 33t-106 47l-60 -188q164 -86 340 -86t280.5 86t104.5 233zM141 1567h1764v-1764h-1764v1764z" />
    <glyph glyph-name="uniF6C3" unicode="&#xf6c3;" horiz-adv-x="1064" 
d="M295 -426l113 320h249l-4 -21l-176 -319h-186z" />
    <glyph glyph-name="uniF6E1" unicode="&#xf6e1;" horiz-adv-x="376" 
d="M-176 -434l166 440h200l-4 -16l-215 -441h-151z" />
    <glyph glyph-name="uniF6E2" unicode="&#xf6e2;" horiz-adv-x="374" 
d="M63 709l170 456h201l-4 -16l-215 -440h-152z" />
    <glyph glyph-name="uniF6E5" unicode="&#xf6e5;" horiz-adv-x="512" 
d="M-27 53l29 140h348l-31 -140h-346z" />
    <glyph glyph-name="uniF6E6" unicode="&#xf6e6;" horiz-adv-x="512" 
d="M219 1214l29 140h348l-31 -140h-346z" />
    <glyph glyph-name="uniF6E7" unicode="&#xf6e7;" horiz-adv-x="376" 
d="M60 2q112 0 112 -115q0 -59 -46 -101t-112 -42q-102 0 -102 112q0 60 46 103t102 43z" />
    <glyph glyph-name="uniF6E8" unicode="&#xf6e8;" horiz-adv-x="376" 
d="M306 1163q112 -1 112 -115q0 -60 -46 -101q-46 -42 -112 -42q-102 -1 -102 113q0 60 46 102t102 43z" />
    <glyph glyph-name="uniF8FF" unicode="&#xf8ff;" horiz-adv-x="1265" 
d="M963 119v1155h-609v-1155h609zM236 1393h845v-1393h-845v1393z" />
    <glyph glyph-name="uniFB01" unicode="&#xfb01;" horiz-adv-x="1212" 
d="M688 1253q-49 0 -74.5 -30.5t-42.5 -100.5l-28 -135h614l-211 -987h-250l170 791h-366l-168 -791h-252l168 791h-152l29 139l164 57l35 158q35 160 123 229.5t210 69.5t183 -19l-41 -188q-62 16 -111 16zM1117 1442q128 0 128 -132q0 -64 -52 -117.5t-130 -53.5
q-115 1 -115 131q0 66 51.5 119t117.5 53z" />
    <glyph glyph-name="uniFB02" unicode="&#xfb02;" horiz-adv-x="1220" 
d="M688 1253q-49 -1 -75 -31t-42 -100l-28 -135h215l-43 -196h-215l-168 -791h-252l168 791h-152l29 139l164 57l35 158q34 159 122 229t210 70t184 -19l-41 -188q-62 16 -111 16zM705 0l305 1434h252l-306 -1434h-251z" />
    <glyph glyph-name="zero.pnum" horiz-adv-x="1273" 
d="M1200 932q0 -471 -212 -732q-95 -118 -215 -174q-121 -56 -235 -56q-315 -1 -392 290q-24 90 -23 201q0 465 207 726q94 120 216 178t238 58q314 0 393 -290q23 -90 23 -201zM385 465q0 -279 158 -279q171 0 272 158q125 195 125 584q0 280 -168 278q-156 0 -261 -159
q-126 -194 -126 -582z" />
    <glyph glyph-name="one.pnum" horiz-adv-x="772" 
d="M164 1028l47 232l399 133h185l-297 -1393h-256l241 1128h-4l-291 -100h-24z" />
    <glyph glyph-name="two.pnum" horiz-adv-x="1075" 
d="M365 211h526l-45 -211h-860l41 193l561 507q88 78 143 150t55 161t-40 142t-120 53t-147 -45q-68 -45 -135 -102l-123 166q139 131 309 179q68 19 142 19q178 0 280 -100t103 -274q0 -212 -202 -406q-50 -47 -87 -80l-401 -348v-4z" />
    <glyph glyph-name="three.pnum" horiz-adv-x="1083" 
d="M678 442q0 156 -199 156h-209l45 215h211q123 0 184 70q60 70 60 153q0 170 -160 170q-143 0 -307 -76l-57 201q198 92 393 92t300 -89t104 -237t-86 -250q-85 -103 -185 -147v-4q162 -76 162 -274t-156 -326q-156 -127 -395 -127t-391 105l88 198q130 -86 311 -86
q115 0 201 71t86 185z" />
    <glyph glyph-name="four.pnum" horiz-adv-x="1191" 
d="M1042 940l-92 -428h158l-45 -211h-158l-63 -301h-256l63 301h-631l37 178l553 914h260l-520 -881h346l92 428h256z" />
    <glyph glyph-name="five.pnum" horiz-adv-x="1054" 
d="M479 649q-117 0 -274 -16l-29 37l219 723h678l-45 -211h-453l-92 -316q29 2 43 2h29q178 0 273 -83q106 -89 106 -259q0 -263 -166 -410t-440 -147q-107 -1 -208 29t-145 49l82 211q146 -69 303 -71q156 -1 231 82t75 214q0 166 -187 166z" />
    <glyph glyph-name="six.pnum" horiz-adv-x="1128" 
d="M770 525q0 81 -45 129t-123 48q-125 0 -201 -88t-75 -231q0 -90 43 -143q43 -54 111 -54q126 -1 208 96t82 243zM467 -31q-199 0 -303 113q-105 113 -105 292t122 361q38 55 87 117l430 541h285l-4 -21l-412 -491l2 -2q76 40 150 40q140 1 228 -103q87 -104 85 -267
q0 -238 -156 -409t-409 -171z" />
    <glyph glyph-name="seven.pnum" horiz-adv-x="985" 
d="M766 1182h-567l43 211h852l-41 -191l-723 -1202h-275l4 20l707 1158v4z" />
    <glyph glyph-name="eight.pnum" horiz-adv-x="1187" 
d="M864 1048q0 158 -131 158q-115 0 -168 -67t-53 -172q0 -136 135 -136q107 0 162 67q55 68 55 150zM252 977q0 194 126 320t374 126q186 0 283 -88t96 -227q-1 -140 -80 -252q-60 -81 -168 -131v-4q73 -33 115 -107t42 -175q0 -208 -149 -339t-408 -131q-201 0 -313 92
q-111 92 -111 244t89 268t221 168v4q-117 75 -117 232zM613 616q-279 0 -279 -275q0 -63 41 -109t122 -46q209 0 268 164q17 47 17 110q0 64 -43 110t-126 46z" />
    <glyph glyph-name="nine.pnum" horiz-adv-x="1128" 
d="M408 867q0 -81 45 -129t122 -48q125 0 201 88t76 232q0 90 -43 143t-111 53q-126 0 -208 -96q-82 -95 -82 -243zM448 473q-128 0 -216 103q-87 103 -87 268q0 241 156 410t410 169q200 0 304 -113q105 -113 104 -271q-1 -157 -59 -273q-34 -66 -153 -221l-428 -545h-284
l4 20l409 494l-2 2q-28 -14 -62 -28t-96 -15z" />
    <glyph glyph-name="uni0444.aalt" horiz-adv-x="1361" 
d="M1006 578q0 172 -158 206l-123 -583q281 57 281 377zM600 786q-281 -46 -281 -398q0 -160 156 -189zM63 404q0 91 33 197t143.5 241.5t405.5 163.5l92 428h250l-92 -433q369 -60 369 -405q0 -233 -142 -406.5t-444 -203.5l-82 -392h-250l82 388q-184 26 -274.5 136
t-90.5 286z" />
    <glyph glyph-name="Euro.aalt" horiz-adv-x="1103" 
d="M627 201q82 0 143 15t148 56l45 -213q-180 -90 -374 -90t-308.5 121t-124.5 332h-125l41 194h96q14 90 33 158h-95l41 195h125q209 454 605 454q183 0 315 -90l-94 -213q-122 72 -231 72q-211 0 -318 -223h346l-41 -195h-399q-25 -101 -33 -158h399l-41 -194h-350
q4 -111 59.5 -166t137.5 -55z" />
    <glyph glyph-name="uni20A8.aalt" 
d="M379 711q190 0 250 123h-432l39 194h436q-4 59 -52.5 99t-142.5 40h-209l45 226h846l-41 -195h-284v-4q84 -59 92 -166h155l-41 -194h-139q-101 -304 -428 -334l342 -467l-6 -33h-297l-371 539l35 172h203z" />
    <glyph glyph-name="registered.aalt" horiz-adv-x="1650" 
d="M268 608q0 -228 129.5 -363.5t341.5 -135.5q141 0 267.5 56t221.5 151.5t150.5 222.5t55.5 249q0 229 -127 362.5t-332 133.5q-141 0 -269 -55t-225.5 -149.5t-155 -222t-57.5 -249.5zM121 596q0 152 71.5 307.5t191.5 271t276 182t308 66.5q284 0 448.5 -173t164.5 -429
q0 -178 -71.5 -332.5t-191.5 -270.5t-276 -182.5t-308 -66.5t-262 46t-187.5 128t-120.5 191.5t-43 261.5zM999 862q0 66 -77 66h-152l-37 -174h152q68 0 91 35.5t23 72.5zM950 1079q246 0 246 -196q0 -96 -54.5 -168t-164.5 -101l143 -282l-4 -19h-194l-131 289h-91
l-61 -289h-184l161 766h334z" />
    <glyph glyph-name="guillemotleft.aalt" horiz-adv-x="1077" 
d="M125 711l391 448l146 -110l-259 -363l107 -360l-180 -88l-211 448zM526 711l392 448l145 -110l-258 -363l106 -360l-180 -88l-211 448z" />
    <glyph glyph-name="bracketleft.aalt" horiz-adv-x="653" 
d="M795 1618l-29 -129l-217 -47l-318 -1487l199 -47l-27 -129h-419l391 1839h420z" />
    <glyph glyph-name="guilsinglright.aalt" horiz-adv-x="675" 
d="M602 686l-391 -448l-145 110l258 363l-107 360l180 88l211 -448z" />
    <glyph glyph-name="bar.aalt" horiz-adv-x="471" 
d="M147 -221h-163l391 1839h164z" />
    <glyph glyph-name="periodcentered.aalt" horiz-adv-x="567" 
d="M328 858q142 0 143 -148q0 -72 -59 -131t-133 -59t-108 37t-34 88q-1 93 59 153t132 60z" />
    <glyph glyph-name="bullet.aalt" horiz-adv-x="765" 
d="M170 636q0 70 22 122q43 106 151 150q52 22 128 22t124 -51t48 -122q0 -133 -84 -215q-84 -81 -203 -79q-90 0 -138 51q-48 52 -48 122z" />
    <glyph glyph-name="emdash.aalt" horiz-adv-x="1714" 
d="M145 596l45 211h1430l-45 -211h-1430z" />
    <glyph glyph-name="bracketright.aalt" horiz-adv-x="657" 
d="M725 1618l-391 -1839h-422l29 133l219 47l315 1479l-201 47l29 133h422z" />
    <glyph glyph-name="endash.aalt" horiz-adv-x="1120" 
d="M145 596l45 211h836l-45 -211h-836z" />
    <glyph glyph-name="hyphen.case" horiz-adv-x="854" 
d="M145 592l45 211h568l-45 -211h-568z" />
    <glyph glyph-name="guillemotright.aalt" horiz-adv-x="1079" 
d="M602 686l-391 -448l-145 110l258 363l-107 360l180 88l211 -448zM1006 686l-392 -448l-145 110l258 363l-106 360l180 88l211 -448z" />
    <glyph glyph-name="parenleft.case" horiz-adv-x="608" 
d="M195 -254q-91 301 -91 636q0 360 151 717q122 289 341 552l129 -82q-66 -100 -137 -218q-158 -259 -232 -617q-40 -194 -39 -436q0 -242 45 -509z" />
    <glyph glyph-name="guilsinglleft.aalt" horiz-adv-x="675" 
d="M125 711l391 448l146 -110l-259 -363l107 -360l-180 -88l-211 448z" />
    <glyph glyph-name="braceright.aalt" horiz-adv-x="718" 
d="M354 1618q287 0 293 -229q2 -76 -18 -175l-56 -262q-16 -80 20 -120t107 -39l-41 -189q-73 0 -125 -40t-69 -120l-68 -321q-34 -166 -112 -249q-95 -97 -281 -95h-88l31 143q196 0 241 217l64 307q25 118 72 180t139 81v4q-82 19 -104 81t3 179l64 286q23 105 -11 161
t-139 57l31 143h47z" />
    <glyph glyph-name="braceleft.aalt" horiz-adv-x="718" 
d="M766 1618h88l-31 -143q-104 -1 -161 -57t-80 -161l-64 -307q-25 -117 -72 -179t-139 -81v-4q82 -18 104 -80t-3 -180l-64 -287q-23 -105 11 -161t139 -56l-31 -143h-47q-287 0 -293 229q-2 76 18 174l56 262q16 80 -20 120t-107 40l41 189q72 0 125 40t69 119l68 322
q35 166 111 249q91 95 282 95z" />
    <glyph glyph-name="parenright.case" horiz-adv-x="608" 
d="M342 1106q0 249 -45 502l168 43q56 -184 73 -353q17 -170 17 -256q0 -711 -492 -1296l-129 82q66 100 138 218q270 443 270 1060z" />
    <glyph glyph-name="minus.case" horiz-adv-x="1605" 
d="M479 594l41 190h897l-41 -190h-897z" />
    <glyph glyph-name="zero.frac" horiz-adv-x="724" 
d="M772 1110q0 -72 -24 -157t-73 -151q-108 -147 -288 -147q-116 0 -177 76t-62 183q-2 207 98 349t278 142q66 0 113 -23q135 -66 135 -272zM410 813q90 0 135 85t45 217t-88 132q-71 0 -122 -82q-52 -82 -52 -217t82 -135z" />
    <glyph glyph-name="one.frac" horiz-adv-x="495" 
d="M150 1114l34 166l271 111h131l-154 -719h-174l113 524h-2l-205 -82h-14z" />
    <glyph glyph-name="two.frac" horiz-adv-x="643" 
d="M469 1405q98 0 165 -53q66 -53 66 -145t-43 -154q-34 -52 -118 -113l-152 -113v-4h244l-33 -151h-512l29 137l336 250q66 47 65 115q0 30 -17 52t-59 22t-78 -26q-37 -26 -75 -59l-94 119q123 123 276 123z" />
    <glyph glyph-name="three.frac" horiz-adv-x="626" 
d="M319 815q134 0 134 92q0 47 -88 47h-132l31 152h129q103 0 103 86q0 55 -88 55t-168 -35l-39 146q123 47 237 47t180 -48t66 -130q0 -151 -145 -193v-2q92 -36 92 -139q0 -104 -77 -171t-226 -67t-240 56l55 149q77 -45 176 -45z" />
    <glyph glyph-name="four.frac" horiz-adv-x="655" 
d="M664 1159l-39 -182h75l-32 -154h-76l-33 -151h-172l33 151h-324l29 140l254 428h182l-235 -412l-2 -2h129l36 182h175z" />
    <glyph glyph-name="five.frac" horiz-adv-x="604" 
d="M332 983q-57 0 -144 -10l-16 16l117 402h401l-33 -156h-249l-27 -96h10q227 0 227 -187q0 -139 -84 -218t-227 -79q-144 0 -231 41l53 156q72 -37 146 -37q143 0 154 67q3 18 3 42q0 60 -100 59z" />
    <glyph glyph-name="six.frac" horiz-adv-x="643" 
d="M377 811q121 0 121 129q0 72 -78 72q-57 0 -89 -33t-32 -92q0 -76 78 -76zM522 1149q56 0 107 -50t51 -128q0 -142 -89 -231q-89 -85 -218 -85q-128 0 -190 64t-62 142q0 79 23 132q24 53 81 123l230 275h207l-3 -13l-223 -239v-2q30 12 86 12z" />
    <glyph glyph-name="seven.frac" horiz-adv-x="583" 
d="M496 1235h-314l33 156h508l-31 -144l-403 -575h-191l2 10l396 551v2z" />
    <glyph glyph-name="eight.frac" horiz-adv-x="669" 
d="M441 1110q64 0 88 30t24 66q1 60 -63 61t-89 -30t-24 -66q0 -61 64 -61zM217 1188q1 90 75 154t192 63q118 0 175 -52t57 -128t-44 -123q-29 -33 -92 -62v-2q96 -36 96 -146t-86 -173t-214 -63t-194 52t-66 136t50 137q49 53 121 78v2q-70 37 -70 127zM291 862
q0 -65 81 -65q80 -1 106 31t26 66q0 73 -86 75q-104 0 -122 -71q-5 -19 -5 -36z" />
    <glyph glyph-name="nine.frac" horiz-adv-x="643" 
d="M338 1122q0 -72 78 -71q57 1 89 33t32 92q0 76 -78 75q-121 0 -121 -129zM156 1092q0 145 89 230t219 85t192 -68q57 -59 58 -138t-23 -132t-81 -123l-229 -274h-207l2 12l223 240v2q-28 -11 -85 -12q-56 0 -107 50t-51 128z" />
    <glyph glyph-name="comma.numr" horiz-adv-x="374" 
d="M10 463l170 457h201l-4 -17l-215 -440h-152z" />
    <glyph glyph-name="plus.numr" horiz-adv-x="491" 
d="M428 1108h121l-29 -139h-123l-30 -146h-142l33 146h-119l29 139h119l30 147h142z" />
    <glyph glyph-name="hyphen.numr" horiz-adv-x="509" 
d="M164 969l29 139h348l-31 -139h-346z" />
    <glyph glyph-name="minus.numr" horiz-adv-x="542" 
d="M164 969l29 139h380l-28 -139h-381z" />
    <glyph glyph-name="parenleft.numr" horiz-adv-x="368" 
d="M137 877q0 290 192 551q50 69 93 122l90 -77q-119 -175 -155 -266q-68 -172 -68 -345t28 -311l-106 -39q-74 175 -74 365z" />
    <glyph glyph-name="period.numr" horiz-adv-x="374" 
d="M207 659q-103 -1 -103 113q0 60 46 102t103 44q56 0 84 -28t28 -88q-1 -60 -47 -101q-46 -42 -111 -42z" />
    <glyph glyph-name="parenright.numr" horiz-adv-x="368" 
d="M350 1550q74 -175 74 -370q0 -196 -98 -394q-60 -118 -187 -274l-90 78q120 176 156 266q67 171 67 344t-28 311z" />
    <glyph glyph-name="zero.dnom" horiz-adv-x="724" 
d="M629 438q0 -72 -24.5 -156.5t-103.5 -191t-257 -106.5q-119 0 -179.5 77t-60.5 182q0 208 99.5 349t280.5 141t213 -111.5t32 -183.5zM266 141q89 0 134.5 85.5t45.5 216.5q0 132 -88 132q-69 0 -121.5 -83t-52.5 -217t82 -134z" />
    <glyph glyph-name="one.dnom" horiz-adv-x="493" 
d="M6 442l35 166l270 111h131l-153 -719h-174l112 524h-2l-205 -82h-14z" />
    <glyph glyph-name="two.dnom" horiz-adv-x="643" 
d="M326 733q98 0 164.5 -53t66.5 -145q0 -129 -62.5 -184.5t-99.5 -82.5l-151 -112v-4h243l-32 -152h-512l28 137l336 250q66 47 66 115q0 29 -17.5 51t-58.5 22t-78 -25.5t-76 -57.5l-94 118q123 123 277 123z" />
    <glyph glyph-name="three.dnom" horiz-adv-x="626" 
d="M163 143q85 0 115.5 22.5t30.5 70t-88 47.5h-131l31 151h129q102 0 102 86q0 55 -87 55t-169 -34l-39 145q123 47 238 47t180.5 -48t65.5 -130q0 -120 -60.5 -153t-85.5 -40v-2q92 -36 92 -139q0 -104 -76.5 -170.5t-225.5 -66.5t-240 55l55 149q78 -45 163 -45z" />
    <glyph glyph-name="four.dnom" horiz-adv-x="655" 
d="M522 487l-39 -182h76l-33 -153h-75l-33 -152h-172l33 152h-324l29 139l254 428h182l-236 -412l-2 -2h129l37 182h174z" />
    <glyph glyph-name="five.dnom" horiz-adv-x="606" 
d="M199 311q-65 0 -152 -10l-16 16l116 402h402l-33 -156h-250l-26 -96h10q104 0 165.5 -45t61.5 -141q0 -139 -84 -218t-229 -79t-230 41l54 155q72 -37 145.5 -37t99 10.5t42 28t16.5 60.5q0 69 -92 69z" />
    <glyph glyph-name="six.dnom" horiz-adv-x="643" 
d="M233 139q121 0 121 129q0 72 -78 72q-57 0 -88.5 -33t-31.5 -92q0 -76 77 -76zM378 477q56 0 107.5 -50t51.5 -128q0 -144 -89 -229.5t-218 -85.5t-191 64t-62 142q0 79 24 132t81 122l229 275h207l-2 -12l-223 -240v-2q29 12 85 12z" />
    <glyph glyph-name="seven.dnom" horiz-adv-x="583" 
d="M352 563h-313l33 156h508l-31 -144l-404 -575h-190l2 10l395 551v2z" />
    <glyph glyph-name="eight.dnom" horiz-adv-x="667" 
d="M233 500q1 -62 65 -62t88 30t24 61q0 67 -72 67q-55 0 -80 -30.5t-25 -65.5zM74 515q0 91 74.5 154.5t192.5 63.5t175 -52t57 -126q0 -131 -137 -186v-2q96 -36 96 -146q0 -111 -86 -174t-214 -63t-193.5 52t-65.5 136t49.5 137t120.5 78v2q-69 35 -69 126zM147 190
q-1 -65 81 -65t107 31.5t25 65.5q0 75 -94 75t-106.5 -45t-12.5 -62z" />
    <glyph glyph-name="nine.dnom" horiz-adv-x="643" 
d="M317 580q-120 0 -120 -129q0 -72 77 -72q57 0 89 32.5t32 92.5q0 76 -78 76zM172 242q-56 0 -107 50t-51 128q0 145 89 230t217 85t190.5 -63t62.5 -143q0 -79 -23.5 -132t-80.5 -123l-229 -274h-207l2 12l223 240v2q-30 -12 -86 -12z" />
    <glyph glyph-name="comma.dnom" horiz-adv-x="374" 
d="M-127 -190l166 440h201l-4 -17l-216 -440h-151z" />
    <glyph glyph-name="plus.dnom" horiz-adv-x="491" 
d="M285 436h121l-29 -139h-123l-31 -145h-141l33 145h-119l29 139h118l31 148h141z" />
    <glyph glyph-name="parenright.dnom" horiz-adv-x="462" 
d="M330 514q0 -288 -121 -454t-164 -220l-90 78q121 177 172 309t51 303q0 170 -28 310l106 39q74 -175 74 -365z" />
    <glyph glyph-name="hyphen.dnom" horiz-adv-x="512" 
d="M23 297l28 139h348l-30 -139h-346z" />
    <glyph glyph-name="minus.dnom" horiz-adv-x="544" 
d="M23 297l28 139h381l-29 -139h-380z" />
    <glyph glyph-name="parenleft.dnom" horiz-adv-x="366" 
d="M-6 205q0 292 121 456t164 218l90 -78q-120 -177 -172 -309t-52 -300t29 -313l-106 -39q-74 175 -74 365z" />
    <glyph glyph-name="period.dnom" horiz-adv-x="376" 
d="M112 246q112 0 111 -116q0 -60 -46 -101t-111 -41q-103 0 -103 112q0 60 46.5 103t102.5 43z" />
    <glyph glyph-name="minus.sinf" horiz-adv-x="546" 
d="M-27 53l29 140h381l-29 -140h-381z" />
    <glyph glyph-name="plus.sinf" horiz-adv-x="491" 
d="M236 193h120l-28 -140h-123l-31 -145h-141l33 145h-119l28 140h119l31 147h141z" />
    <glyph glyph-name="glyph704" horiz-adv-x="1064" 
d="M991 1460l-114 -319h-248l4 20l176 320h186z" />
    <glyph glyph-name="glyph705" horiz-adv-x="1064" 
d="M610 1073l113 320h258l-4 -21l-176 -319h-195z" />
    <glyph glyph-name="glyph706" horiz-adv-x="1064" 
d="M295 -426l113 320h249l-4 -21l-176 -319h-186z" />
    <glyph glyph-name="glyph707" horiz-adv-x="1062" 
d="M713 1835h270l68 -279l-4 -20h-228l-110 281z" />
    <glyph glyph-name="glyph708" horiz-adv-x="1064" 
d="M1135 1817l-230 -281h-243l4 20l186 279h287z" />
    <glyph glyph-name="glyph709" horiz-adv-x="1062" 
d="M1182 1556l-4 -20h-199l-80 162l-145 -162h-215l4 20l266 279h225z" />
    <glyph glyph-name="glyph710" horiz-adv-x="1064" 
d="M598 1815l4 20h199l80 -162l145 162h215l-4 -20l-266 -279h-226z" />
    <glyph glyph-name="glyph711" horiz-adv-x="1064" 
d="M780 1837q56 0 107 -31.5t79.5 -46t62.5 -14.5t77 19.5t72 50.5l28 -140q-98 -137 -209 -137q-55 0 -111.5 32t-85 46t-61.5 14q-78 0 -143 -71l-29 143q97 135 213 135z" />
    <glyph glyph-name="glyph712" horiz-adv-x="1062" 
d="M1105 1534q-130 0 -130 124q0 62 50.5 110.5t118.5 48.5q130 1 130 -123q0 -62 -51.5 -111t-117.5 -49zM670 1817q130 1 131 -123q0 -62 -51.5 -111t-128.5 -49q-119 0 -119 124q0 62 50 110.5t118 48.5z" />
    <glyph glyph-name="glyph713" horiz-adv-x="1064" 
d="M600 1554l45 211h526l-45 -211h-526z" />
    <glyph glyph-name="glyph714" horiz-adv-x="1183" 
d="M1087 1374l-176 -321h-211l5 20l126 320h261z" />
    <glyph glyph-name="glyph715" horiz-adv-x="1064" 
d="M897 1755q128 0 256 70l35 -160q-156 -129 -324 -129q-167 0 -274 143l82 146q97 -70 225 -70z" />
    <glyph glyph-name="glyph716" horiz-adv-x="1064" 
d="M668 1648q0 132 74 206.5t176 74.5t155 -45.5t53 -151.5t-73 -178.5t-175 -72.5t-156 46.5t-54 120.5zM975 1726q0 64 -60 64q-41 0 -68.5 -29.5t-27.5 -72.5q0 -63 62 -64q41 0 67.5 28.5t26.5 73.5z" />
    <glyph glyph-name="glyph717" horiz-adv-x="1062" 
d="M1315 1815l-246 -279h-225l4 20l205 279h266zM932 1815l-246 -279h-225l4 20l203 279h268z" />
    <glyph glyph-name="glyph718" horiz-adv-x="1064" 
d="M908 1817q130 1 130 -123q0 -62 -51 -111t-129 -49q-119 0 -119 124q0 62 50.5 110.5t118.5 48.5z" />
    </font>
</defs>
</svg>
