<?xml version="1.0" standalone="no"?>
<!DOCTYPE svg PUBLIC "-//W3C//DTD SVG 1.1//EN" "http://www.w3.org/Graphics/SVG/1.1/DTD/svg11.dtd" >
<svg xmlns="http://www.w3.org/2000/svg">
<metadata>
Created by FontPrep 20130207 at Tue Apr  7 21:16:58 2015
 By Christoph
Copyright (c) 2015 by Volkswagen AG. All rights reserved.
</metadata>
<defs>
<font id="194f5394ae2e9c74dc3c441b92862d1d" >
  <font-face 
    font-family="Font"
    font-weight="400"
    font-style="italic"
    font-stretch="normal"
    units-per-em="2048"
    panose-1="2 11 5 4 4 2 0 0 0 3"
    ascent="1638"
    descent="-410"
    x-height="987"
    cap-height="1393"
    bbox="-532 -451 2052 1886"
    underline-thickness="133"
    underline-position="-94"
    slope="-12"
    unicode-range="U+0020-FB02"
  />
<missing-glyph horiz-adv-x="1290" 
d="M975 119v1155h-608v-1155h608zM248 1393h846v-1393h-846v1393z" />
    <glyph glyph-name=".notdef" horiz-adv-x="1290" 
d="M975 119v1155h-608v-1155h608zM248 1393h846v-1393h-846v1393z" />
    <glyph glyph-name="glyph1" horiz-adv-x="0" 
 />
    <glyph glyph-name="glyph2" horiz-adv-x="489" 
 />
    <glyph glyph-name="space" unicode=" " horiz-adv-x="501" 
 />
    <glyph glyph-name="exclam" unicode="!" horiz-adv-x="509" 
d="M127 -31q-94 -1 -94 111q0 56 43 100.5t98 44.5t78.5 -27.5t23.5 -81.5t-41.5 -100.5t-107.5 -46.5zM279 424h-109l96 614l76 355h172l-74 -355z" />
    <glyph glyph-name="quotedbl" unicode="&#x22;" horiz-adv-x="737" 
d="M612 827h-106l43 359l45 207h172l-45 -207zM332 827h-107l43 359l45 207h172l-45 -207z" />
    <glyph glyph-name="numbersign" unicode="#" horiz-adv-x="1304" 
d="M457 500h270l164 403h-268zM90 0l4 20l142 345h-173l23 135h207l166 403h-176l22 135h211l146 355h159l-4 -21l-137 -334h268l148 355h157l-4 -21l-137 -334h182l-22 -135h-215l-166 -403h184l-22 -135h-219l-152 -365h-158l4 20l142 345h-271l-149 -365h-160z" />
    <glyph glyph-name="dollar" unicode="$" 
d="M444 1034q0 -128 111 -205l92 431q-98 -23 -150.5 -90.5t-52.5 -135.5zM743 385q0 106 -110 188l-92 -440q92 20 147 83t55 169zM262 978q0 183 114 302.5t304 138.5l35 158h133l-35 -158q132 -17 254 -102l-80 -135q-100 66 -207 82l-106 -504l6 -4q248 -147 248 -332
q0 -191 -115.5 -312t-306.5 -139l-49 -235h-133l49 235q-168 20 -303 144l86 135q102 -111 250 -125l110 520l-35 23q-94 57 -156.5 135t-62.5 173z" />
    <glyph glyph-name="percent" unicode="%" horiz-adv-x="1519" 
d="M104 0l5 20l1189 1373h164l-6 -21l-1188 -1372h-164zM560 1401q100 -1 154 -73t54 -176q0 -201 -95 -337q-95 -135 -261 -135q-115 0 -169 74q-55 74 -55 178q-1 202 96 336q96 133 276 133zM428 805q97 0 149 88t53 235t-102 148q-92 0 -147 -88t-55 -236
q0 -147 102 -147zM1380 454q0 -104 -24 -187q-49 -172 -179 -247q-67 -36 -167 -36t-155 74q-54 74 -54 178q0 317 204 432q67 37 167 37t154 -73q54 -74 54 -178zM1040 109q97 0 150 90t53 235t-102 146q-92 0 -147 -89q-56 -89 -56 -235q0 -147 102 -147z" />
    <glyph glyph-name="ampersand" unicode="&#x26;" horiz-adv-x="1318" 
d="M866 1116q0 67 -36 108.5t-94 41.5q-106 0 -157 -70.5t-51 -171.5t56 -186l12 -19l98 58q80 45 126 108.5t46 130.5zM244 301q0 -176 134 -176t212 48t158 124l-216 317l-49 -28q-113 -66 -176 -133.5t-63 -151.5zM416 -31q-179 0 -267 85.5t-88 225.5q0 241 340 433
l54 30l-19 31q-88 143 -88 256q0 158 109 275.5t291 117.5q135 0 215.5 -87t80.5 -210q0 -186 -110.5 -267t-165.5 -111l-94 -54l190 -272q77 86 252 305l117 -94q-135 -176 -281 -334l191 -279l-4 -20h-191l-119 172q-109 -92 -211 -147.5t-202 -55.5z" />
    <glyph glyph-name="quotesingle" unicode="'" horiz-adv-x="456" 
d="M332 827h-107l43 359l45 207h172l-45 -207z" />
    <glyph glyph-name="parenleft" unicode="(" horiz-adv-x="589" 
d="M655 1395q-411 -655 -411 -1264q0 -297 49 -528l-131 -45q-88 302 -88 551q0 248 38 431t126.5 406.5t308.5 519.5z" />
    <glyph glyph-name="parenright" unicode=")" horiz-adv-x="589" 
d="M487 915q0 -248 -67.5 -578t-405.5 -779l-108 71q207 328 309 647.5t102 627.5t-49 517l131 45q88 -303 88 -551z" />
    <glyph glyph-name="asterisk" unicode="*" horiz-adv-x="880" 
d="M465 993l-209 -125l-45 133l215 103v4l-170 102l96 119l154 -125l4 2l39 228h141l-61 -228l2 -2l209 125l45 -133l-215 -102v-4l172 -103l-97 -119l-159 127l-4 -2l-33 -229h-143l61 227z" />
    <glyph glyph-name="plus" unicode="+" 
d="M649 629h363l-31 -152h-365l-84 -399h-157l86 399h-361l33 152h359l83 397h158z" />
    <glyph glyph-name="comma" unicode="," horiz-adv-x="491" 
d="M-100 -309l186 510h190l-6 -21l-241 -510h-133z" />
    <glyph glyph-name="hyphen" unicode="-" horiz-adv-x="839" 
d="M133 477l33 152h530l-32 -152h-531z" />
    <glyph glyph-name="period" unicode="." horiz-adv-x="495" 
d="M131 -31q-108 -1 -108 113q0 56 46 99.5t100 43.5q105 -1 105 -111q0 -56 -44 -100.5t-99 -44.5z" />
    <glyph glyph-name="slash" unicode="/" horiz-adv-x="768" 
d="M-57 0l4 20l770 1373h160l-5 -21l-766 -1372h-163z" />
    <glyph glyph-name="zero" unicode="0" 
d="M1094 946q0 -475 -144.5 -667.5t-259.5 -251t-222 -58.5q-386 0 -386 501q0 241 56.5 425t148.5 302t206.5 172t220.5 54q193 0 286.5 -126t93.5 -351zM918 946q0 322 -205 322q-190 0 -322.5 -200.5t-132.5 -616.5q0 -147 48 -236.5t163 -89.5q82 0 163 44t183.5 201.5
t102.5 575.5z" />
    <glyph glyph-name="one" unicode="1" 
d="M336 1120l33 160l331 113h144l-264 -1241h282l-33 -152h-735l33 152h274l226 1052h-4l-261 -84h-26z" />
    <glyph glyph-name="two" unicode="2" 
d="M305 152h565l-32 -152h-801l31 143l563 521q117 108 176 187.5t59 185.5t-49 168.5t-145 62.5t-171 -43t-141 -97l-86 132q122 107 236 135t188 28q152 0 251.5 -99.5t99.5 -257.5t-55.5 -244.5t-109 -139.5t-122.5 -117l-457 -409v-4z" />
    <glyph glyph-name="three" unicode="3" 
d="M412 125q138 0 233.5 89t95.5 230q0 78 -48 133.5t-173 55.5h-209l35 155h217q136 0 209.5 86.5t73.5 209.5q0 124 -72 154t-125 30q-137 0 -309 -72l-45 135q180 92 365 92q186 0 279 -89t93 -229t-77 -246t-177 -159v-4q142 -74 142 -252q0 -212 -149.5 -343.5
t-373.5 -131.5t-360 105l67 135q127 -84 308 -84z" />
    <glyph glyph-name="four" unicode="4" 
d="M973 983l-113 -528h154l-33 -152h-154l-63 -303h-172l63 303h-626l26 125l590 965h176l-565 -938h432l113 528h172z" />
    <glyph glyph-name="five" unicode="5" 
d="M567 846q166 0 266.5 -80t100.5 -252q0 -262 -152 -403.5t-415 -141.5q-115 0 -206 33t-120 49l55 146q144 -72 298 -72t256 89t102 271q0 205 -236 205q-124 0 -256 -10l-18 29l219 684h620l-32 -152h-471l-127 -399q62 4 116 4z" />
    <glyph glyph-name="six" unicode="6" 
d="M821 534q0 94 -55.5 157t-141.5 63q-156 0 -254 -109t-98 -276q0 -109 53.5 -176.5t139.5 -67.5t148.5 31.5t108.5 85t72.5 126t26.5 166.5zM483 846q78 63 213 63t221.5 -100.5t86.5 -263.5q0 -241 -150.5 -408.5t-386.5 -167.5q-179 0 -278 107.5t-99 255.5
q0 268 189 508l434 553h198l-4 -21l-428 -522z" />
    <glyph glyph-name="seven" unicode="7" 
d="M903 1241h-600l31 152h794l-30 -138l-705 -1255h-188l4 20l694 1217v4z" />
    <glyph glyph-name="eight" unicode="8" 
d="M610 807q135 0 207 82t72 205q0 80 -44 127t-125 47q-142 0 -217 -79t-75 -208q0 -80 45 -127t137 -47zM704 1423q189 0 278 -86.5t89 -220.5q0 -214 -104.5 -291t-145.5 -100v-4q66 -37 110 -113t44 -171q0 -199 -138.5 -333.5t-383.5 -134.5q-192 0 -293 95.5
t-101 242.5t91 262t219 172v4q-43 31 -82 89.5t-39 147.5t27.5 168t86 139.5t147.5 97t195 36.5zM448 125q178 0 264.5 92.5t86.5 231.5q0 90 -52.5 146t-154.5 56q-182 0 -266 -93t-84 -230q0 -90 53 -146.5t153 -56.5z" />
    <glyph glyph-name="nine" unicode="9" 
d="M354 858q0 -94 55.5 -156.5t141.5 -62.5q158 0 255 108.5t97 276.5q0 109 -53.5 176.5t-139.5 67.5t-148 -32t-108 -85t-73 -126t-27 -167zM492 483q-147 0 -233.5 101t-86.5 264q0 241 150 408t387 167q179 0 277.5 -107t98.5 -256q0 -269 -188 -507l-434 -553h-199
l4 20l432 533l-4 4q-92 -74 -204 -74z" />
    <glyph glyph-name="colon" unicode=":" horiz-adv-x="552" 
d="M364 1018q106 0 105 -111q0 -55 -44 -100q-43 -45 -99 -45q-108 0 -109 112q0 56 46 100q47 44 101 44zM196 225q106 -1 105 -111q0 -56 -44 -100q-43 -45 -99 -45q-108 -1 -109 113q0 56 46 100q47 44 101 43z" />
    <glyph glyph-name="semicolon" unicode=";" horiz-adv-x="571" 
d="M-74 -309l187 510h190l-6 -21l-242 -510h-133zM384 1018q108 0 106 -111q0 -55 -45 -100q-44 -45 -99 -45q-108 0 -108 112q0 56 46 100t100 44z" />
    <glyph glyph-name="less" unicode="&#x3c;" 
d="M850 51l-772 432l31 142l954 432h16l-37 -183l-772 -327v-6l633 -328l-37 -162h-16z" />
    <glyph glyph-name="equal" unicode="=" 
d="M965 410l-31 -152h-881l33 152h879zM147 702l33 152h879l-31 -152h-881z" />
    <glyph glyph-name="greater" unicode="&#x3e;" 
d="M35 51l37 180l772 328v6l-631 328l35 164h16l772 -432l-30 -142l-955 -432h-16z" />
    <glyph glyph-name="question" unicode="?" horiz-adv-x="901" 
d="M281 -31q-97 -1 -97 111q0 56 43 100.5t99 44.5q104 0 104 -100q0 -66 -43 -111t-106 -45zM567 1268q-132 0 -291 -107l-71 119q128 95 224.5 119t148.5 24q160 0 245.5 -86.5t85.5 -210.5t-37.5 -204t-112 -157t-251.5 -159l-62 -182h-133l60 285q189 76 247 129
t82.5 109.5t24.5 136t-40 132t-120 52.5z" />
    <glyph glyph-name="at" unicode="@" horiz-adv-x="1880" 
d="M1016 893q-64 0 -130.5 -47t-115.5 -118t-76.5 -153.5t-27.5 -154.5t34.5 -114t112.5 -42t201 70l182 500q-46 59 -180 59zM768 -287q-183 0 -301.5 47t-245.5 179.5t-127 429.5q0 209 77 405.5t218 350t339 246.5t439 93q292 0 456.5 -177t164.5 -437
q0 -184 -53.5 -324.5t-136 -235.5t-183 -143.5t-189.5 -48.5t-128 41t-51 90h-3q-145 -106 -272 -106t-201.5 74.5t-74.5 190.5t39.5 229.5t108.5 207t161.5 152.5t190.5 59q164 0 268 -98h2l53 74h115l-226 -586q-47 -128 -18.5 -162.5t74.5 -34.5t114 40t164 168.5
t96 404.5q0 212 -121 351.5t-342 139.5t-386.5 -83t-284.5 -216t-184.5 -301.5t-65.5 -314.5q0 -270 130 -422t361 -152q174 0 357 68l39 -117q-190 -82 -373 -82z" />
    <glyph glyph-name="A" unicode="A" horiz-adv-x="1193" 
d="M739 1219l-186 -377l-182 -338h432l-35 338l-25 377h-4zM1034 0h-174l-37 360h-532l-193 -360h-184l768 1393h176z" />
    <glyph glyph-name="B" unicode="B" horiz-adv-x="1206" 
d="M639 772q166 0 241.5 73t75.5 230q0 94 -55 130t-162 36h-229l-100 -469h229zM1055 446q0 -211 -132 -328.5t-368 -117.5h-481l297 1393h411q180 0 269.5 -77t89.5 -217t-74 -251t-176 -150v-4q164 -63 164 -248zM569 152q145 0 225 77.5t80 219.5q0 94 -55 133t-153 39
h-289l-98 -469h290z" />
    <glyph glyph-name="C" unicode="C" horiz-adv-x="1150" 
d="M137 508q0 385 145.5 576.5t282.5 265t310 73.5t321 -90l-68 -133q-136 68 -270 68t-238 -65.5t-204.5 -222.5t-100.5 -466q0 -176 75 -282.5t226 -106.5t310 72l43 -138q-197 -90 -334 -90q-138 0 -225.5 38t-180 146t-92.5 355z" />
    <glyph glyph-name="D" unicode="D" horiz-adv-x="1337" 
d="M430 152q304 0 467.5 171.5t163.5 563.5q0 176 -90 265t-309 89h-152l-231 -1089h151zM717 1393q403 0 463.5 -191.5t60.5 -310.5q0 -491 -224 -691t-597 -200h-346l297 1393h346z" />
    <glyph glyph-name="E" unicode="E" 
d="M1167 1393l-32 -152h-625l-96 -455h567l-33 -151h-567l-102 -483h630l-30 -152h-805l297 1393h796z" />
    <glyph glyph-name="F" unicode="F" horiz-adv-x="1095" 
d="M1167 1393l-32 -152h-625l-102 -481h567l-33 -152h-567l-129 -608h-172l297 1393h796z" />
    <glyph glyph-name="G" unicode="G" horiz-adv-x="1277" 
d="M873 1268q-163 0 -269 -72t-195.5 -230t-89.5 -444t105.5 -341.5t183.5 -55.5q152 0 271 74l71 333l-239 41l24 111h420l-125 -586q-216 -129 -440 -129t-337.5 145t-113.5 382q0 385 131 576.5t274.5 271t348.5 79.5t385 -133l-88 -131q-154 109 -317 109z" />
    <glyph glyph-name="H" unicode="H" horiz-adv-x="1355" 
d="M999 635h-618l-135 -635h-172l297 1393h172l-129 -607h616l129 607h172l-295 -1393h-172z" />
    <glyph glyph-name="I" unicode="I" horiz-adv-x="565" 
d="M246 0h-172l297 1393h172z" />
    <glyph glyph-name="J" unicode="J" horiz-adv-x="897" 
d="M236 125q113 0 174.5 67.5t97.5 235.5l205 965h172l-209 -979q-94 -445 -443 -445q-92 0 -166.5 46t-113.5 104l96 106q35 -37 80 -68.5t107 -31.5z" />
    <glyph glyph-name="K" unicode="K" horiz-adv-x="1153" 
d="M381 637l-135 -637h-172l297 1393h172l-148 -686h4l652 686h209l-5 -21l-684 -706l420 -646l-4 -20h-199l-403 637h-4z" />
    <glyph glyph-name="L" unicode="L" horiz-adv-x="1001" 
d="M543 1393l-264 -1241h571l-33 -152h-743l297 1393h172z" />
    <glyph glyph-name="M" unicode="M" horiz-adv-x="1624" 
d="M791 528l165 263l469 602h174l-294 -1393h-172l186 874l70 240h-5l-557 -764h-129l-231 764h-4l-31 -240l-186 -874h-172l297 1393h153l209 -602l55 -263h3z" />
    <glyph glyph-name="N" unicode="N" horiz-adv-x="1372" 
d="M952 258l37 260l187 875h172l-295 -1393h-176l-402 1135h-4l-39 -261l-186 -874h-172l297 1393h176l401 -1135h4z" />
    <glyph glyph-name="O" unicode="O" horiz-adv-x="1404" 
d="M1315 874q0 -138 -40 -305.5t-127 -300.5t-224.5 -216t-329.5 -83q-230 0 -342.5 143t-112.5 382q0 375 128 569t265.5 277t329.5 83q228 0 340.5 -142.5t112.5 -406.5zM319 488q0 -156 68.5 -259.5t206.5 -103.5q139 0 227 48t169 151.5t113 276t32 273.5
q0 193 -68 293.5t-217 100.5q-301 0 -416 -254t-115 -526z" />
    <glyph glyph-name="P" unicode="P" horiz-adv-x="1148" 
d="M637 696q154 0 239 97.5t85 240.5q0 92 -49.5 149.5t-157.5 57.5h-242l-117 -545h242zM780 1393q174 0 269.5 -95.5t95.5 -250.5q0 -238 -134 -370t-370 -132h-279l-114 -545h-174l297 1393h409z" />
    <glyph glyph-name="Q" unicode="Q" horiz-adv-x="1404" 
d="M319 488q0 -156 68.5 -259.5t206.5 -103.5q139 0 227 48t169 151.5t113 276t32 273.5q0 193 -68 293.5t-217 100.5q-301 0 -416 -254t-115 -526zM594 -31q-230 0 -342.5 143t-112.5 382q0 375 128 569t265.5 277t329.5 83q228 0 340.5 -143t112.5 -404t-113 -506
t-330 -343l314 -172l-101 -146l-436 264q-28 -4 -55 -4z" />
    <glyph glyph-name="R" unicode="R" horiz-adv-x="1236" 
d="M698 756q147 0 225 82t78 219q0 88 -50 136t-150 48h-291l-104 -485h292zM823 1393q170 0 265.5 -82t95.5 -232q0 -199 -106.5 -317.5t-284.5 -147.5l251 -581l-8 -33h-172l-252 604h-237l-129 -604h-172l297 1393h452z" />
    <glyph glyph-name="S" unicode="S" horiz-adv-x="1026" 
d="M696 384q0 128 -157 222l-105 64q-219 133 -219 318t133.5 310t347.5 125q173 0 324 -106l-80 -135q-130 86 -261 86t-206.5 -73.5t-75.5 -187.5t131 -190l105 -61q248 -147 248 -335q0 -208 -135 -330t-351 -122q-129 0 -217 43t-155 105l86 135q123 -127 299 -127
q125 0 206.5 65.5t81.5 193.5z" />
    <glyph glyph-name="T" unicode="T" horiz-adv-x="1038" 
d="M1145 1393l-33 -152h-367l-264 -1241h-176l264 1241h-364l33 152h907z" />
    <glyph glyph-name="U" unicode="U" horiz-adv-x="1339" 
d="M576 125q164 0 260 105.5t135 285.5l186 877h170l-192 -912q-52 -249 -185.5 -380.5t-380.5 -131.5q-246 0 -349 140.5t-50 398.5l188 885h172l-186 -877q-39 -180 14.5 -285.5t217.5 -105.5z" />
    <glyph glyph-name="V" unicode="V" horiz-adv-x="1191" 
d="M1319 1372l-760 -1372h-174l-174 1372l4 21h172l92 -842l21 -381h4l184 383l445 840h190z" />
    <glyph glyph-name="W" unicode="W" horiz-adv-x="1828" 
d="M1937 1372l-653 -1372h-176l-49 874l-4 351h-6l-154 -351l-420 -874h-178l-68 1372l4 21h170l23 -840l-2 -346h4l154 346l405 840h184l48 -840l6 -346h4l145 346l379 840h189z" />
    <glyph glyph-name="X" unicode="X" horiz-adv-x="1118" 
d="M418 1393l180 -572h4l426 572h195l-4 -21l-527 -676l240 -676l-4 -20h-174l-185 569h-4l-424 -569h-194l4 20l524 676l-237 676l6 21h174z" />
    <glyph glyph-name="Y" unicode="Y" horiz-adv-x="1060" 
d="M375 1393l180 -633h4l455 633h192l-4 -21l-584 -782l-124 -590h-172l124 590l-249 782l4 21h174z" />
    <glyph glyph-name="Z" unicode="Z" horiz-adv-x="1050" 
d="M217 152h637l-33 -152h-850l31 145l870 1092v4h-604l31 152h817l-31 -146l-868 -1091v-4z" />
    <glyph glyph-name="bracketleft" unicode="[" horiz-adv-x="638" 
d="M739 1434l-20 -97l-234 -47l-329 -1552l213 -47l-21 -97h-393l391 1840h393z" />
    <glyph glyph-name="backslash" unicode="\" horiz-adv-x="753" 
d="M420 0l-184 1372l4 21h145l184 -1373l-4 -20h-145z" />
    <glyph glyph-name="bracketright" unicode="]" horiz-adv-x="641" 
d="M659 1434l-391 -1840h-393l21 97l231 47l332 1552l-213 47l20 97h393z" />
    <glyph glyph-name="asciicircum" unicode="^" horiz-adv-x="948" 
d="M1032 762h-147l-129 495h-8l-342 -495h-164l4 20l471 652h127l194 -652z" />
    <glyph glyph-name="underscore" unicode="_" horiz-adv-x="925" 
d="M-18 -180l28 135h645l-28 -135h-645z" />
    <glyph glyph-name="grave" unicode="`" horiz-adv-x="1087" 
d="M705 1454h178l65 -248l-4 -20h-137l-107 248z" />
    <glyph glyph-name="a" unicode="a" horiz-adv-x="1124" 
d="M262 369q0 -256 184 -256q118 0 236 100l125 575q-81 86 -192 86t-175.5 -51t-121 -160.5t-56.5 -293.5zM394 -31q-162 0 -235 107t-73 251q0 291 125.5 491t351.5 200q104 0 179 -40t116 -81h2l37 90h121l-172 -809q-6 -27 1 -40t46 -13h55l-30 -133q-157 -41 -190.5 3
t-39.5 95h-4q-53 -41 -127 -81t-163 -40z" />
    <glyph glyph-name="b" unicode="b" horiz-adv-x="1114" 
d="M687 1018q155 0 231.5 -109.5t76.5 -250.5q0 -284 -130.5 -486.5t-356.5 -202.5q-167 0 -301 121h-2l-41 -90h-121l305 1434h168l-110 -516h4q78 54 136 77t141 23zM473 113q100 0 167 53t123 164.5t56 289.5t-66.5 216t-126.5 38q-128 0 -249 -96l-123 -581
q69 -84 219 -84z" />
    <glyph glyph-name="c" unicode="c" horiz-adv-x="937" 
d="M84 367q0 275 146.5 463t402.5 188q146 0 268 -74l-57 -125q-93 55 -197 55q-181 0 -283 -149.5t-102 -336.5t76 -231t129 -44q120 0 246 59l39 -125q-140 -78 -310 -78q-169 0 -263.5 109t-94.5 289z" />
    <glyph glyph-name="d" unicode="d" horiz-adv-x="1116" 
d="M322.5 663q-60.5 -109 -60.5 -290q0 -182 69 -221t127 -39t124.5 27.5t119.5 72.5l125 575q-81 86 -232 86q-81 0 -146.5 -51t-126 -160zM705 90q-155 -121 -301 -121q-162 0 -240 109t-78 250t29.5 261t90 215t152 154.5t213.5 59.5q166 0 281 -100h2l111 516h168
l-306 -1434h-118v90h-4z" />
    <glyph glyph-name="e" unicode="e" horiz-adv-x="1040" 
d="M788 691q0 73 -46 128t-147 55t-188 -85t-120 -211h485q16 40 16 113zM950 666q0 -79 -53 -215h-645q-28 -137 32 -237.5t185 -100.5q92 0 158.5 27.5t126.5 64.5l57 -127q-172 -109 -359 -109q-186 0 -278 115t-92 287q0 119 37 235.5t104.5 207.5t165 147.5t203.5 56.5
t170.5 -28.5t106.5 -76t61.5 -108t19.5 -139.5z" />
    <glyph glyph-name="f" unicode="f" horiz-adv-x="696" 
d="M666 1300q-123 0 -156 -157l-33 -156h242l-31 -137h-242l-180 -850h-168l181 850h-158l20 98l166 39l33 150q35 160 111.5 233.5t218.5 73.5q87 0 141 -14l-31 -144q-56 14 -114 14z" />
    <glyph glyph-name="g" unicode="g" horiz-adv-x="1116" 
d="M339 -297q254 0 312 266l23 107h-4q-55 -39 -116.5 -70t-151.5 -31q-159 0 -238.5 108.5t-79.5 249.5q0 142 30.5 261t91 213t152 152.5t213.5 58.5q180 0 301 -121h5l41 90h118l-213 -999q-41 -193 -164.5 -308.5t-302.5 -115.5q-178 0 -317 76l51 129q121 -66 249 -66z
M623 874q-119 0 -185.5 -53t-122 -164t-55.5 -286t67 -212.5t125 -37.5t128.5 24.5t124.5 71.5l120 574q-83 83 -202 83z" />
    <glyph glyph-name="h" unicode="h" horiz-adv-x="1103" 
d="M643 874q-90 0 -167 -38.5t-97 -53.5l-168 -782h-168l305 1434h168l-110 -514h4q25 14 54.5 31.5t91.5 42t139 24.5q157 0 229.5 -98.5t31.5 -292.5l-133 -627h-168l131 614q55 260 -143 260z" />
    <glyph glyph-name="i" unicode="i" horiz-adv-x="501" 
d="M428 1409q88 0 88 -88q0 -61 -38 -99t-97 -38q-86 0 -86 86q0 59 37 99t96 40zM45 0l209 987h168l-209 -987h-168z" />
    <glyph glyph-name="j" unicode="j" horiz-adv-x="499" 
d="M426 1409q88 0 88 -88q0 -61 -37 -99t-98 -38q-86 0 -86 86q0 59 37 99t96 40zM-133 -297q113 0 149 170l238 1114h166l-240 -1126q-29 -135 -106.5 -216t-220.5 -81q-61 0 -123 24l28 131q61 -16 109 -16z" />
    <glyph glyph-name="k" unicode="k" horiz-adv-x="968" 
d="M309 459l-98 -459h-168l305 1434h168l-192 -906h4l458 459h209l-4 -14l-508 -496l320 -461l-4 -16h-185l-301 459h-4z" />
    <glyph glyph-name="l" unicode="l" horiz-adv-x="516" 
d="M51 0l305 1434h168l-305 -1434h-168z" />
    <glyph glyph-name="m" unicode="m" horiz-adv-x="1703" 
d="M1232 874q-124 0 -263 -104q0 -65 -15 -127l-137 -643h-168l131 614q30 136 3 198t-121 62q-93 0 -163.5 -32.5t-117.5 -61.5l-168 -780h-168l209 987h121l2 -90h4q127 81 194.5 101t118.5 20q186 0 250 -127h4q171 127 339 127q167 0 239.5 -94.5t29.5 -294.5l-133 -629
h-168l131 614q27 129 -1.5 194.5t-152.5 65.5z" />
    <glyph glyph-name="n" unicode="n" horiz-adv-x="1105" 
d="M645 874q-63 0 -147.5 -34t-116.5 -58l-168 -782h-168l209 987h121l2 -90h4q174 121 324 121t222 -97.5t31 -297.5l-133 -623h-168l131 614q55 260 -143 260z" />
    <glyph glyph-name="o" unicode="o" horiz-adv-x="1122" 
d="M1001 602q0 -100 -32.5 -217t-142 -266.5t-377.5 -149.5q-180 0 -272.5 109t-92.5 287q0 265 140 459t407 194q184 0 277 -111.5t93 -304.5zM258 384q0 -272 199 -271q183 0 276.5 155.5t93.5 342.5t-75.5 225t-130.5 38q-184 0 -255 -124.5t-89.5 -213t-18.5 -152.5z
" />
    <glyph glyph-name="p" unicode="p" horiz-adv-x="1116" 
d="M473 113q100 0 167 53t123 164.5t56 289.5t-66.5 216t-126.5 38q-128 0 -249 -96l-123 -581q69 -84 219 -84zM373 987v-90h2q29 18 62.5 39.5t98.5 51.5t150 30q158 0 233.5 -106t75.5 -248q0 -290 -127 -492.5t-358 -202.5q-180 0 -281 101h-4l-100 -476h-168l297 1393
h119z" />
    <glyph glyph-name="q" unicode="q" horiz-adv-x="1118" 
d="M322.5 663q-60.5 -109 -60.5 -290q0 -182 69 -221t127 -39t124.5 27.5t119.5 72.5l125 575q-81 86 -232 86q-81 0 -146.5 -51t-126 -160zM573 1018q163 0 304 -121h4l41 90h116l-297 -1393h-168l103 476h-4q-82 -56 -138.5 -78.5t-139.5 -22.5q-153 0 -230.5 106
t-77.5 248t28.5 262t88 216t151.5 156.5t219 60.5z" />
    <glyph glyph-name="r" unicode="r" horiz-adv-x="690" 
d="M635 1018q53 0 92 -14l-39 -150q-40 12 -103 12q-121 0 -216 -137l-156 -729h-168l209 987h121l-2 -104h4q114 135 258 135z" />
    <glyph glyph-name="s" unicode="s" horiz-adv-x="870" 
d="M535 253q0 106 -105 157l-102 49q-80 39 -136.5 92t-56.5 133q0 152 107 243t272 91q166 0 295 -70l-64 -135q-109 61 -221 61t-163.5 -48t-51.5 -118t105 -118l98 -47q197 -96 197 -249q0 -152 -103.5 -238.5t-283.5 -86.5q-117 0 -186.5 24.5t-127.5 69.5l68 134
q110 -84 231 -84t174.5 43t53.5 97z" />
    <glyph glyph-name="t" unicode="t" horiz-adv-x="722" 
d="M334 256q-28 -143 90 -143q51 0 147 26l-28 -139q-254 -77 -331 17.5t-46 236.5l127 596h-178l20 98l187 39l49 230h168l-50 -230h246l-28 -137h-246z" />
    <glyph glyph-name="u" unicode="u" horiz-adv-x="1091" 
d="M352 -31q-139 0 -211.5 95.5t-29.5 295.5l133 627h168l-131 -614q-29 -129 1.5 -194.5t134.5 -65.5t259 94l168 780h168l-209 -987h-121l2 90h-4q-189 -121 -328 -121z" />
    <glyph glyph-name="v" unicode="v" horiz-adv-x="968" 
d="M989 967l-549 -967h-161l-142 967l4 20h158l74 -625l10 -190h4l92 190l340 625h174z" />
    <glyph glyph-name="w" unicode="w" horiz-adv-x="1544" 
d="M1559 967l-508 -967h-162l-62 639l-4 184h-4l-84 -184l-332 -639h-161l-97 967l5 20h161l43 -625l2 -180h4l80 180l320 625h174l55 -625l4 -180h4l78 180l309 625h179z" />
    <glyph glyph-name="x" unicode="x" horiz-adv-x="944" 
d="M438 387l-309 -387h-182l4 20l405 474l-204 473l4 20h170l143 -389h4l307 389h183l-7 -20l-403 -473l203 -474l-4 -20h-166l-144 387h-4z" />
    <glyph glyph-name="y" unicode="y" horiz-adv-x="968" 
d="M30 -297q56 0 100 46t89 128l72 133l-154 957l4 20h166l76 -625l12 -186h4l88 186l334 625h174l-6 -20l-620 -1129q-74 -135 -157 -204.5t-175 -69.5t-182 26l28 138q91 -25 147 -25z" />
    <glyph glyph-name="z" unicode="z" horiz-adv-x="862" 
d="M217 135h449l-29 -135h-670l23 102l606 746v4h-422l29 135h645l-23 -102l-608 -746v-4z" />
    <glyph glyph-name="braceleft" unicode="{" horiz-adv-x="663" 
d="M698 1434h58l-23 -107q-105 0 -149 -40t-68 -157l-80 -382q-42 -192 -194 -240v-4q132 -50 92 -240l-80 -366q-25 -118 1.5 -157.5t131.5 -39.5l-22 -107h-17q-266 0 -270 122t12 196l82 379q16 82 -12.5 114.5t-100.5 32.5l33 152q72 0 115 32.5t59 114.5l86 410
q29 146 99.5 216.5t246.5 70.5z" />
    <glyph glyph-name="bar" unicode="|" horiz-adv-x="460" 
d="M88 -406h-133l391 1840h133z" />
    <glyph glyph-name="braceright" unicode="}" horiz-adv-x="665" 
d="M-61 -406h-58l23 107q105 0 149 40t68 157l80 383q42 191 194 239v4q-132 50 -92 240l80 366q25 118 -1.5 157.5t-131.5 39.5l22 107h17q266 0 270 -122t-12 -196l-82 -379q-16 -82 12.5 -114.5t100.5 -32.5l-33 -152q-72 0 -115 -32.5t-59 -114.5l-86 -410
q-28 -144 -99.5 -215.5t-246.5 -71.5z" />
    <glyph glyph-name="asciitilde" unicode="~" horiz-adv-x="1005" 
d="M358 694q67 0 130 -46t98.5 -66.5t75.5 -20.5q80 0 161 88l49 -114q-108 -117 -221 -117q-59 0 -128.5 46t-105.5 66.5t-76 20.5t-81 -31t-94 -92l-49 113q113 153 241 153z" />
    <glyph glyph-name="uni00A0" unicode="&#xa0;" horiz-adv-x="501" 
 />
    <glyph glyph-name="exclamdown" unicode="&#xa1;" horiz-adv-x="491" 
d="M338 1018q94 0 94 -110q0 -56 -43 -101t-98 -45t-79 28t-24 82t42 100t108 46zM188 563h109l-98 -614l-76 -355h-172l76 355z" />
    <glyph glyph-name="cent" unicode="&#xa2;" 
d="M354 383q0 -82 29 -153.5t94 -100.5l156 731q-125 -38 -202 -176t-77 -301zM176 356q0 269 130.5 451t359.5 207l36 170h134l-37 -172q116 -22 194 -68l-51 -125q-85 41 -174 51l-160 -755q100 11 197 53l39 -125q-124 -63 -266 -72l-35 -168h-133l36 177
q-135 29 -202.5 134.5t-67.5 241.5z" />
    <glyph glyph-name="sterling" unicode="&#xa3;" 
d="M309 152h576l-33 -152h-791l27 127q127 84 169.5 186t59.5 301h-157l28 136h144q20 281 128 477t359 196q166 0 291 -88l-61 -131q-66 37 -118 50.5t-128 13.5q-264 0 -295 -518h350l-29 -136h-333q-22 -234 -76.5 -324.5t-110.5 -133.5v-4z" />
    <glyph glyph-name="currency" unicode="&#xa4;" horiz-adv-x="1103" 
d="M350 484q0 -62 33 -112t95 -50q113 0 181 88.5t68 178.5q0 195 -143 195q-102 0 -168 -89t-66 -211zM885 635q0 -163 -99 -299l140 -189l-113 -90l-133 181q-104 -64 -204 -64t-179 53l-197 -166l-88 111l199 174q-21 52 -21 119q0 181 105 319l-127 181l113 88l125 -174
q94 53 204 53q109 0 183 -62l208 181l86 -117l-219 -193q17 -65 17 -106z" />
    <glyph glyph-name="yen" unicode="&#xa5;" 
d="M1016 631h-363l-43 -203h363l-29 -135h-362l-62 -293h-172l62 293h-357l29 135h356l43 203h-356l29 135h278l-207 606l4 21h177l188 -592h4l442 592h191l-4 -21l-467 -606h284z" />
    <glyph glyph-name="brokenbar" unicode="&#xa6;" horiz-adv-x="487" 
d="M213 754l145 680h134l-144 -680h-135zM246 274l-146 -680h-133l146 680h133z" />
    <glyph glyph-name="section" unicode="&#xa7;" horiz-adv-x="1058" 
d="M809 4q0 -166 -127 -268.5t-340 -102.5q-131 0 -217 35t-160 88l84 150q142 -117 305 -117q117 0 194 58.5t77 149.5t-127 153l-170 83q-203 100 -203 259q0 113 64.5 195.5t156.5 133.5v6q-106 83 -106 207q0 168 123 278.5t327 110.5t344 -90l-76 -143
q-63 37 -120.5 57.5t-132.5 20.5q-134 0 -207.5 -63t-73.5 -149q0 -87 137 -161l150 -80q211 -114 211 -279t-217 -315v-6q104 -82 104 -211zM313 537q0 -98 111 -154l164 -82q147 78 147 205q0 103 -112 158l-160 79q-150 -71 -150 -206z" />
    <glyph glyph-name="dieresis" unicode="&#xa8;" horiz-adv-x="1087" 
d="M653 1409q88 0 88 -88q0 -61 -37.5 -99t-97.5 -38q-86 0 -86 86q0 59 37 99t96 40zM889 1270q0 59 37 99t87 40q97 0 97 -88q0 -61 -38 -99t-97 -38q-86 0 -86 86z" />
    <glyph glyph-name="copyright" unicode="&#xa9;" horiz-adv-x="1687" 
d="M807 297q-160 0 -241 88.5t-81 208.5q0 230 121.5 366t329.5 136q111 0 207 -49l-43 -115q-76 39 -157 39q-144 0 -225 -100.5t-81 -247.5q0 -92 44 -146.5t136 -54.5t182 39l35 -115q-116 -49 -227 -49zM254 600q0 -241 134 -381.5t349 -140.5q150 0 285 58.5
t237.5 158.5t163 234.5t60.5 262.5q0 242 -134 382.5t-350 140.5q-147 0 -282 -58.5t-238.5 -159t-164 -234t-60.5 -263.5zM139 596q0 152 72 307.5t191.5 271t275.5 182t308 66.5q285 0 449 -173.5t164 -428.5q0 -178 -71.5 -332.5t-191 -270.5t-276 -182.5t-308.5 -66.5
t-261.5 46t-187.5 128t-121 191.5t-43 261.5z" />
    <glyph glyph-name="ordfeminine" unicode="&#xaa;" horiz-adv-x="737" 
d="M94 436l27 121h489l-24 -121h-492zM347 698q-81 0 -126 45t-45 113q0 130 82.5 182t230.5 52h95l6 30q24 117 -86 117q-94 0 -189 -47l-26 106q108 62 232 62t177.5 -65.5t28.5 -184.5l-84 -391h-102l-6 55h-3q-104 -74 -185 -74zM485 991q-98 0 -132 -30.5t-34 -77.5
q0 -63 70 -63t148 46l26 125h-78z" />
    <glyph glyph-name="guillemotleft" unicode="&#xab;" horiz-adv-x="999" 
d="M96 565l373 428l100 -88l-288 -362l135 -363l-123 -67l-203 428zM483 565l373 428l100 -88l-288 -362l135 -363l-123 -67l-203 428z" />
    <glyph glyph-name="logicalnot" unicode="&#xac;" 
d="M834 477h-742l33 152h879l-86 -412h-140z" />
    <glyph glyph-name="uni00AD" unicode="&#xad;" horiz-adv-x="839" 
d="M133 477l33 152h530l-32 -152h-531z" />
    <glyph glyph-name="registered" unicode="&#xae;" horiz-adv-x="1140" 
d="M698 1188q88 0 88 62q0 30 -16 38t-49 8h-78l-22 -108h77zM741 1378q72 0 107 -31.5t35 -83.5t-32 -95.5t-99 -55.5l90 -170l-2 -10h-97l-86 174h-55l-37 -174h-94l94 446h176zM317 1090q0 -146 81 -231t212 -85q184 0 317.5 133.5t133.5 313.5q0 132 -80.5 218.5
t-210.5 86.5q-180 0 -279.5 -96.5t-136.5 -178.5t-37 -161zM221 1090q0 98 46 197t123 173t178.5 116t198.5 42q182 0 287 -113.5t105 -277.5q0 -227 -168.5 -386t-390.5 -159q-167 0 -273 112.5t-106 295.5z" />
    <glyph glyph-name="macron" unicode="&#xaf;" horiz-adv-x="1087" 
d="M557 1223l33 151h489l-32 -151h-490z" />
    <glyph glyph-name="degree" unicode="&#xb0;" horiz-adv-x="845" 
d="M217 1046q0 176 111 276.5t247 100.5t206.5 -70.5t70.5 -170.5q0 -178 -110.5 -280.5t-244.5 -102.5q-135 0 -207.5 73.5t-72.5 173.5zM365 1070q0 -54 36.5 -94t88.5 -40q93 0 156 62t63 136t-36.5 113t-88.5 39t-89.5 -15.5t-66.5 -43t-46 -65.5t-17 -92z" />
    <glyph glyph-name="plusminus" unicode="&#xb1;" 
d="M915 152l-30 -152h-881l33 152h878zM700 874h369l-31 -151h-370l-76 -358h-146l78 358h-366l32 151h365l86 398h143z" />
    <glyph glyph-name="uni00B2" unicode="&#xb2;" horiz-adv-x="618" 
d="M580 1448q0 79 -88 82q-47 0 -86 -24t-74 -52l-70 98q60 47 115 75t139 28t144 -51q60 -50 60 -140t-38 -145q-39 -55 -98 -100l-195 -148v-2h256l-27 -123h-462l22 105l326 254q76 57 76 143z" />
    <glyph glyph-name="uni00B3" unicode="&#xb3;" horiz-adv-x="612" 
d="M367 1055q155 0 155 112q0 66 -114 66h-113l27 123h112q74 0 104 32t29 72q0 70 -89 70t-173 -35l-35 113q92 45 205 46t173 -49t60 -122t-39 -121q-40 -49 -98 -68v-2q86 -37 85 -138t-71 -163q-71 -61 -207 -61t-216 53l39 117q83 -45 166 -45z" />
    <glyph glyph-name="acute" unicode="&#xb4;" horiz-adv-x="1087" 
d="M1006 1434l-213 -248h-154l4 20l172 248h195z" />
    <glyph glyph-name="mu" unicode="&#xb5;" horiz-adv-x="1093" 
d="M356 -31q-91 0 -159 58l-15 -148l-61 -285h-168l297 1393h168l-131 -614q-29 -129 1.5 -194.5t126.5 -65.5t171.5 40t95.5 54l168 780h168l-209 -987h-121v90h-4q-95 -76 -186.5 -98.5t-141.5 -22.5z" />
    <glyph glyph-name="paragraph" unicode="&#xb6;" horiz-adv-x="1030" 
d="M178 1058q0 160 97 247.5t233 87.5h618l-26 -125h-172l-357 -1674h-135l357 1674h-177l-356 -1674h-135l268 1258q-94 0 -154.5 58.5t-60.5 147.5z" />
    <glyph glyph-name="periodcentered" unicode="&#xb7;" horiz-adv-x="518" 
d="M242 461q-108 1 -109 113q0 56 46 99q46 44 108 44q98 1 98 -111q0 -56 -44 -100q-43 -44 -99 -45z" />
    <glyph glyph-name="cedilla" unicode="&#xb8;" horiz-adv-x="1087" 
d="M526 -229q0 59 -100 59l-6 20l90 164h125l-66 -112q47 -10 75 -43t28 -80q0 -111 -70 -163t-164 -52t-149 28l39 113q44 -22 94 -22t77 19t27 69z" />
    <glyph glyph-name="uni00B9" unicode="&#xb9;" horiz-adv-x="477" 
d="M223 1403l25 125l262 110h96l-145 -692h-131l114 539h-2l-204 -82h-15z" />
    <glyph glyph-name="ordmasculine" unicode="&#xba;" horiz-adv-x="757" 
d="M96 436l27 121h487l-24 -121h-490zM774 1082q0 -64 -24.5 -136t-98 -160t-243.5 -88q-122 0 -184 74.5t-62 169.5q0 180 99 298t274 118t207 -106t32 -170zM627 1087q0 142 -119 142q-98 0 -149.5 -76t-51.5 -188q0 -137 115 -138q99 0 152 72.5t53 187.5z" />
    <glyph glyph-name="guillemotright" unicode="&#xbb;" horiz-adv-x="1001" 
d="M508 541l-375 -428l-100 88l289 362l-136 363l123 67l203 -428zM895 541l-375 -428l-100 88l289 362l-136 363l123 67l203 -428z" />
    <glyph glyph-name="onequarter" unicode="&#xbc;" horiz-adv-x="1376" 
d="M25 0l4 20l1190 1373h163l-6 -21l-1188 -1372h-163zM213 1157l25 125l262 111h96l-145 -693h-132l115 539h-2l-205 -82h-14zM836 268h174l47 221h133l-47 -221h76l-27 -121h-76l-31 -147h-133l33 147h-330l23 107l270 438h148l-260 -422v-2z" />
    <glyph glyph-name="onehalf" unicode="&#xbd;" horiz-adv-x="1415" 
d="M27 0l4 20l1190 1373h163l-6 -21l-1188 -1372h-163zM215 1153l25 125l262 111h96l-145 -693h-131l114 539h-2l-205 -82h-14zM1143 502q0 79 -88 82q-47 0 -86 -24t-74 -52l-70 98q92 71 147 87q56 15 99 16q93 1 153 -51t60 -141t-39 -144t-98 -101l-195 -147v-2h256
l-26 -123h-463l22 104l326 254q76 57 76 144z" />
    <glyph glyph-name="threequarters" unicode="&#xbe;" horiz-adv-x="1464" 
d="M111 0l4 20l1190 1373h163l-6 -21l-1188 -1372h-163zM924 268h174l47 221h133l-47 -221h76l-27 -121h-76l-30 -147h-134l33 147h-330l23 107l270 438h148l-260 -422v-2zM350 803q156 0 156 112q0 66 -115 66h-112l26 123h113q74 0 104 32t29 72q0 70 -89 70t-173 -35
l-35 113q96 47 208 47q110 0 170 -50t60 -124t-40 -121q-40 -48 -97 -66v-2q84 -36 84 -138q0 -100 -71 -162t-207 -62t-216 53l39 117q83 -45 166 -45z" />
    <glyph glyph-name="questiondown" unicode="&#xbf;" horiz-adv-x="888" 
d="M578 1018q96 0 96 -110q0 -56 -43 -101t-99 -45q-104 0 -104 100q0 66 43 111t107 45zM291 -281q132 0 291 107l71 -119q-128 -95 -224.5 -119t-147.5 -24q-160 0 -246 87t-86 211t37 203.5t110 155.5t254 160l62 182h133l-60 -284q-187 -75 -246 -129t-83.5 -110
t-24.5 -136t40 -132.5t120 -52.5z" />
    <glyph glyph-name="Agrave" unicode="&#xc0;" horiz-adv-x="1193" 
d="M739 1219l-186 -377l-182 -338h432l-35 338l-25 377h-4zM1034 0h-174l-37 360h-532l-193 -360h-184l768 1393h176zM643 1808h176l68 -247l-4 -21h-138l-106 248z" />
    <glyph glyph-name="Aacute" unicode="&#xc1;" horiz-adv-x="1193" 
d="M739 1219l-186 -377l-182 -338h432l-35 338l-25 377h-4zM1034 0h-174l-37 360h-532l-193 -360h-184l768 1393h176zM1083 1788l-213 -248h-153l4 21l174 247h192z" />
    <glyph glyph-name="Acircumflex" unicode="&#xc2;" horiz-adv-x="1193" 
d="M739 1219l-186 -377l-182 -338h432l-35 338l-25 377h-4zM1034 0h-174l-37 360h-532l-193 -360h-184l768 1393h176zM1073 1561l-4 -21h-145l-86 146l-146 -146h-162l5 21l227 247h190z" />
    <glyph glyph-name="Atilde" unicode="&#xc3;" horiz-adv-x="1193" 
d="M739 1219l-186 -377l-182 -338h432l-35 338l-25 377h-4zM1034 0h-174l-37 360h-532l-193 -360h-184l768 1393h176zM539 1673q100 117 172 117q45 0 73 -13t78 -41q51 -28 88 -28q69 0 129 72l37 -103q-104 -117 -168 -117q-65 1 -132 41q-28 15 -54 28t-57 13
q-68 0 -130 -71z" />
    <glyph glyph-name="Adieresis" unicode="&#xc4;" horiz-adv-x="1193" 
d="M739 1219l-186 -377l-182 -338h432l-35 338l-25 377h-4zM1034 0h-174l-37 360h-532l-193 -360h-184l768 1393h176zM926 1645q0 59 37 99t88 40q96 0 96 -88q0 -62 -37 -100t-98 -37q-86 0 -86 86zM640 1784q98 0 98 -98q0 -50 -39 -90q-38 -38 -99 -37q-84 0 -84 86
q0 59 37 99t87 40z" />
    <glyph glyph-name="Aring" unicode="&#xc5;" horiz-adv-x="1196" 
d="M709 1456q0 -66 63 -65q43 0 72.5 28.5t29.5 77.5q0 63 -65 64q-43 0 -71.5 -28t-28.5 -77zM739 1219l-186 -377l-182 -338h432l-35 338l-25 377h-4zM985 1513q0 -150 -117 -206l166 -1307h-174l-37 360h-532l-193 -360h-184l731 1321q-49 39 -49 135t63.5 153.5
t151.5 57.5t131 -41t43 -113z" />
    <glyph glyph-name="AE" unicode="&#xc6;" horiz-adv-x="1708" 
d="M928 1219l-195 -291l-311 -424h340l84 401l86 314h-4zM-125 20l1022 1373h850l-31 -152h-626l-97 -455h568l-33 -151h-567l-103 -483h633l-33 -152h-805l78 360h-418l-270 -360h-172z" />
    <glyph glyph-name="Ccedilla" unicode="&#xc7;" horiz-adv-x="1150" 
d="M514 -229q0 59 -100 59l-6 20l73 136q-166 39 -255 175.5t-89 334.5t50.5 364t145.5 291t232 198.5t310 73.5t321 -90l-68 -133q-136 68 -270 68t-238 -65.5t-204.5 -222.5t-100.5 -466q0 -176 75 -282.5t226 -106.5t310 72l43 -138q-191 -90 -373 -90l-39 -67
q47 -10 74.5 -43t27.5 -80q0 -111 -69.5 -163t-162.5 -52t-151 28l39 113q44 -22 95 -22t77.5 19t26.5 69z" />
    <glyph glyph-name="Egrave" unicode="&#xc8;" 
d="M1167 1393l-32 -152h-625l-96 -455h567l-33 -151h-567l-102 -483h630l-30 -152h-805l297 1393h796zM637 1808h176l68 -247l-4 -21h-138l-106 248z" />
    <glyph glyph-name="Eacute" unicode="&#xc9;" 
d="M1167 1393l-32 -152h-625l-96 -455h567l-33 -151h-567l-102 -483h630l-30 -152h-805l297 1393h796zM1085 1788l-213 -248h-153l4 21l174 247h193z" />
    <glyph glyph-name="Ecircumflex" unicode="&#xca;" 
d="M1167 1393l-32 -152h-625l-96 -455h567l-33 -151h-567l-102 -483h630l-30 -152h-805l297 1393h796zM1083 1561l-4 -21h-145l-86 146l-146 -146h-161l4 21l227 247h191z" />
    <glyph glyph-name="Edieresis" unicode="&#xcb;" 
d="M1167 1393l-32 -152h-625l-96 -455h567l-33 -151h-567l-102 -483h630l-30 -152h-805l297 1393h796zM918 1645q0 59 36 99t88 40q96 0 97 -88q0 -62 -37 -100t-98 -37q-86 0 -86 86zM632 1784q98 0 98 -98q0 -50 -39 -90q-38 -38 -99 -37q-84 0 -84 86q0 59 37 99t87 40z
" />
    <glyph glyph-name="Igrave" unicode="&#xcc;" horiz-adv-x="565" 
d="M246 0h-172l297 1393h172zM315 1808h177l67 -247l-4 -21h-137l-107 248z" />
    <glyph glyph-name="Iacute" unicode="&#xcd;" horiz-adv-x="565" 
d="M246 0h-172l297 1393h172zM768 1788l-213 -248h-154l5 21l174 247h192z" />
    <glyph glyph-name="Icircumflex" unicode="&#xce;" horiz-adv-x="565" 
d="M246 0h-172l297 1393h172zM750 1561l-5 -21h-145l-86 146l-145 -146h-162l4 21l227 247h191z" />
    <glyph glyph-name="Idieresis" unicode="&#xcf;" horiz-adv-x="565" 
d="M246 0h-172l297 1393h172zM600 1645q0 59 37 99t88 40q98 0 96 -88q0 -62 -37 -100t-98 -37q-86 0 -86 86zM190 1645q0 59 37 99t87 40q98 0 98 -88q0 -62 -38 -100t-100 -37q-84 0 -84 86z" />
    <glyph glyph-name="Eth" unicode="&#xd0;" horiz-adv-x="1341" 
d="M434 152q304 0 467.5 171.5t163.5 563.5q0 176 -90 265t-309 89h-152l-102 -477h278l-33 -152h-276l-98 -460h151zM721 1393q403 0 463.5 -191.5t60.5 -310.5q0 -491 -224 -691t-597 -200h-346l131 612h-115l33 152h113l135 629h346z" />
    <glyph glyph-name="Ntilde" unicode="&#xd1;" horiz-adv-x="1372" 
d="M952 258l37 260l187 875h172l-295 -1393h-176l-402 1135h-4l-39 -261l-186 -874h-172l297 1393h176l401 -1135h4zM616 1673q100 117 172 117q46 0 74 -13t77 -41q50 -28 89 -28q69 0 129 72l37 -103q-104 -117 -168 -117q-65 1 -132 41q-28 15 -54 28t-57 13
q-68 0 -130 -71z" />
    <glyph glyph-name="Ograve" unicode="&#xd2;" horiz-adv-x="1404" 
d="M1315 874q0 -138 -40 -306q-40 -167 -127 -300t-224 -216t-330 -83q-231 0 -343 145t-112 380q0 375 169 631q87 132 224 215t330 83q119 0 205 -40q248 -115 248 -509zM319 488q1 -157 69 -260t206 -103t227 48q225 123 289 466q20 109 23 223q8 406 -283 406
q-299 0 -437 -301q-94 -207 -94 -479zM760 1808h176l68 -247l-5 -21h-137l-106 248z" />
    <glyph glyph-name="Oacute" unicode="&#xd3;" horiz-adv-x="1404" 
d="M1315 874q0 -138 -40 -306q-40 -167 -127 -300t-224 -216t-330 -83q-231 0 -343 145t-112 380q0 375 169 631q87 132 224 215t330 83q119 0 205 -40q248 -115 248 -509zM319 488q1 -157 69 -260t206 -103t227 48q225 123 289 466q20 109 23 223q8 406 -283 406
q-299 0 -437 -301q-94 -207 -94 -479zM1192 1788l-213 -248h-154l4 21l175 247h192z" />
    <glyph glyph-name="Ocircumflex" unicode="&#xd4;" horiz-adv-x="1404" 
d="M1315 874q0 -138 -40 -306q-40 -167 -127 -300t-224 -216t-330 -83q-231 0 -343 145t-112 380q0 375 169 631q87 132 224 215t330 83q119 0 205 -40q248 -115 248 -509zM319 488q1 -157 69 -260t206 -103t227 48q225 123 289 466q20 109 23 223q8 406 -283 406
q-299 0 -437 -301q-94 -207 -94 -479zM1190 1561l-4 -21h-146l-86 146l-145 -146h-162l4 21l228 247h190z" />
    <glyph glyph-name="Otilde" unicode="&#xd5;" horiz-adv-x="1404" 
d="M1315 874q0 -138 -40 -306q-40 -167 -127 -300t-224 -216t-330 -83q-231 0 -343 145t-112 380q0 375 169 631q87 132 224 215t330 83q119 0 205 -40q248 -115 248 -509zM319 488q1 -157 69 -260t206 -103t227 48q225 123 289 466q20 109 23 223q8 406 -283 406
q-299 0 -437 -301q-94 -207 -94 -479zM649 1673q101 117 173 117q46 0 72 -13q28 -13 78 -41t89 -28q67 0 129 72l37 -103q-45 -51 -89 -84q-75 -56 -156 -20q-28 13 -79 41q-51 29 -84 28q-71 0 -133 -71z" />
    <glyph glyph-name="Odieresis" unicode="&#xd6;" horiz-adv-x="1404" 
d="M1315 874q0 -138 -40 -306q-40 -167 -127 -300t-224 -216t-330 -83q-231 0 -343 145t-112 380q0 375 169 631q87 132 224 215t330 83q119 0 205 -40q248 -115 248 -509zM319 488q1 -157 69 -260t206 -103t227 48q225 123 289 466q20 109 23 223q8 406 -283 406
q-299 0 -437 -301q-94 -207 -94 -479zM1036 1645q0 59 37 99t88 40q98 0 96 -88q0 -61 -36 -100q-37 -38 -99 -37q-86 0 -86 86zM751 1784q97 0 97 -98q0 -50 -38 -90q-38 -38 -99 -37q-84 0 -84 86q0 59 37 99t87 40z" />
    <glyph glyph-name="multiply" unicode="&#xd7;" 
d="M459 563l-232 316l113 94l231 -314l373 320l84 -107l-377 -323l242 -324l-115 -94l-237 322l-375 -320l-82 107z" />
    <glyph glyph-name="Oslash" unicode="&#xd8;" horiz-adv-x="1404" 
d="M413 967q-38 -84 -66 -200t-28 -241t23 -200l705 864q-74 78 -193 78t-203 -41t-142 -108.5t-96 -151.5zM1135 882q0 109 -21 183l-706 -862q74 -78 199 -78q126 0 214 48t169 151.5t113 276t32 281.5zM139 480q0 182 41 347.5t128 297.5t224.5 215t325.5 83t299 -98
l109 133l106 -78l-131 -159q74 -125 74 -306q0 -180 -40 -347t-127 -300t-224.5 -216t-328.5 -83t-298 97l-100 -123l-101 82l117 143q-74 130 -74 312z" />
    <glyph glyph-name="Ugrave" unicode="&#xd9;" horiz-adv-x="1339" 
d="M576 125q165 0 261 105q95 105 134 286l186 877h170l-192 -912q-53 -250 -186 -381q-134 -131 -380 -131q-246 1 -349 141t-50 398l188 885h172l-186 -877q-39 -180 14 -286t218 -105zM707 1808h176l67 -247l-4 -21h-137l-107 248z" />
    <glyph glyph-name="Uacute" unicode="&#xda;" horiz-adv-x="1339" 
d="M576 125q165 0 261 105q95 105 134 286l186 877h170l-192 -912q-53 -250 -186 -381q-134 -131 -380 -131q-246 1 -349 141t-50 398l188 885h172l-186 -877q-39 -180 14 -286t218 -105zM1143 1788l-213 -248h-154l4 21l174 247h193z" />
    <glyph glyph-name="Ucircumflex" unicode="&#xdb;" horiz-adv-x="1339" 
d="M576 125q165 0 261 105q95 105 134 286l186 877h170l-192 -912q-53 -250 -186 -381q-134 -131 -380 -131q-246 1 -349 141t-50 398l188 885h172l-186 -877q-39 -180 14 -286t218 -105zM1143 1561l-4 -21h-146l-86 146l-145 -146h-162l4 21l227 247h191z" />
    <glyph glyph-name="Udieresis" unicode="&#xdc;" horiz-adv-x="1339" 
d="M576 125q165 0 261 105q95 105 134 286l186 877h170l-192 -912q-53 -250 -186 -381q-134 -131 -380 -131q-246 1 -349 141t-50 398l188 885h172l-186 -877q-39 -180 14 -286t218 -105zM991 1645q0 59 37 99t88 40q98 0 96 -88q0 -61 -36 -100q-37 -38 -99 -37
q-86 0 -86 86zM582 1645q0 59 36 99q38 40 88 40q98 0 97 -88q0 -62 -38 -100t-99 -37q-84 0 -84 86z" />
    <glyph glyph-name="Yacute" unicode="&#xdd;" horiz-adv-x="1060" 
d="M375 1393l180 -633h4l455 633h192l-4 -21l-584 -782l-124 -590h-172l124 590l-249 782l4 21h174zM1024 1788l-213 -248h-154l5 21l174 247h192z" />
    <glyph glyph-name="Thorn" unicode="&#xde;" horiz-adv-x="1163" 
d="M598 442q155 0 232 101t77 245q0 86 -44 142.5t-148 56.5h-258l-115 -545h256zM739 1139q180 0 266.5 -85.5t86.5 -217.5q0 -257 -120.5 -401t-371.5 -144h-291l-61 -291h-174l297 1393h172l-54 -254h250z" />
    <glyph glyph-name="germandbls" unicode="&#xdf;" horiz-adv-x="1165" 
d="M1059 1143q0 -261 -238 -383v-4q132 -36 166.5 -134t34.5 -186t-37 -180t-140.5 -189.5t-346.5 -97.5q-51 0 -111 13l29 141q47 -10 92 -10q166 0 253 96t87 262q0 94 -55.5 152.5t-182.5 58.5h-30l32 152h39q109 0 170.5 88.5t61.5 183.5q0 194 -170 194
q-121 0 -188.5 -75.5t-102.5 -235.5l-211 -989h-168l213 1004q94 440 450 440q178 0 265.5 -84t87.5 -217z" />
    <glyph glyph-name="agrave" unicode="&#xe0;" horiz-adv-x="1124" 
d="M448 113q114 0 234 100l125 575q-83 88 -209 86q-94 0 -159 -51t-103 -127q-71 -140 -73 -294q-1 -154 29 -201q30 -48 64 -68t92 -20zM394 -31q-89 0 -146 31q-162 88 -162 352t117 452q132 212 360 214q104 0 179 -40t116 -81h2l37 90h121l-172 -809q-6 -27 1 -40
t46 -13h55l-30 -133q-158 -41 -200 15q-24 32 -30 83h-4q-53 -41 -127 -81t-163 -40zM514 1454h178l66 -248l-4 -20h-138l-106 248z" />
    <glyph glyph-name="aacute" unicode="&#xe1;" horiz-adv-x="1124" 
d="M448 113q114 0 234 100l125 575q-83 88 -209 86q-94 0 -159 -51t-103 -127q-71 -140 -73 -294q-1 -154 29 -201q30 -48 64 -68t92 -20zM394 -31q-89 0 -146 31q-162 88 -162 352t117 452q132 212 360 214q104 0 179 -40t116 -81h2l37 90h121l-172 -809q-6 -27 1 -40
t46 -13h55l-30 -133q-158 -41 -200 15q-24 32 -30 83h-4q-53 -41 -127 -81t-163 -40zM963 1434l-213 -248h-154l4 20l172 248h195z" />
    <glyph glyph-name="acircumflex" unicode="&#xe2;" horiz-adv-x="1124" 
d="M448 113q114 0 234 100l125 575q-83 88 -209 86q-94 0 -159 -51t-103 -127q-71 -140 -73 -294q-1 -154 29 -201q30 -48 64 -68t92 -20zM394 -31q-89 0 -146 31q-162 88 -162 352t117 452q132 212 360 214q104 0 179 -40t116 -81h2l37 90h121l-172 -809q-6 -27 1 -40
t46 -13h55l-30 -133q-158 -41 -200 15q-24 32 -30 83h-4q-53 -41 -127 -81t-163 -40zM954 1206l-4 -20h-145l-78 172l-152 -172h-161l4 20l225 248h193z" />
    <glyph glyph-name="atilde" unicode="&#xe3;" horiz-adv-x="1124" 
d="M448 113q114 0 234 100l125 575q-83 88 -209 86q-94 0 -159 -51t-103 -127q-71 -140 -73 -294q-1 -154 29 -201q30 -48 64 -68t92 -20zM394 -31q-89 0 -146 31q-162 88 -162 352t117 452q132 212 360 214q104 0 179 -40t116 -81h2l37 90h121l-172 -809q-6 -27 1 -40
t46 -13h55l-30 -133q-158 -41 -200 15q-24 32 -30 83h-4q-53 -41 -127 -81t-163 -40zM1001 1303q-103 -117 -175 -117q-42 0 -70 12t-78 40q-51 28 -84 29q-71 1 -133 -71l-37 102q100 117 172 117q45 0 73 -13t76 -40t102 -28t118 71z" />
    <glyph glyph-name="adieresis" unicode="&#xe4;" horiz-adv-x="1124" 
d="M448 113q114 0 234 100l125 575q-83 88 -209 86q-94 0 -159 -51t-103 -127q-71 -140 -73 -294q-1 -154 29 -201q30 -48 64 -68t92 -20zM394 -31q-89 0 -146 31q-162 88 -162 352t117 452q132 212 360 214q104 0 179 -40t116 -81h2l37 90h121l-172 -809q-6 -27 1 -40
t46 -13h55l-30 -133q-158 -41 -200 15q-24 32 -30 83h-4q-53 -41 -127 -81t-163 -40zM418 1270q0 59 37 99t88 40q96 0 96 -88q0 -61 -38 -99t-97 -38q-86 0 -86 86zM786 1270q0 59 37 99t87 40q98 0 98 -88q0 -61 -38 -99t-98 -38q-86 0 -86 86z" />
    <glyph glyph-name="aring" unicode="&#xe5;" horiz-adv-x="1124" 
d="M448 113q114 0 234 100l125 575q-83 88 -209 86q-94 0 -159 -51t-103 -127q-71 -140 -73 -294q-1 -154 29 -201q30 -48 64 -68t92 -20zM394 -31q-89 0 -146 31q-162 88 -162 352t117 452q132 212 360 214q104 0 179 -40t116 -81h2l37 90h121l-172 -809q-6 -27 1 -40
t46 -13h55l-30 -133q-158 -41 -200 15q-24 32 -30 83h-4q-53 -41 -127 -81t-163 -40zM520 1270q0 111 64 169t151 58q88 0 131 -41q43 -42 43 -132t-63 -150q-64 -60 -152 -60t-131 42t-43 114zM633 1286q0 -66 63 -65q43 1 73 29t30 77q0 63 -66 64q-43 0 -71 -28t-29 -77z
" />
    <glyph glyph-name="ae" unicode="&#xe6;" horiz-adv-x="1574" 
d="M1323 703q0 63 -41 117t-133 54q-158 0 -215 -117.5t-74 -178.5h447q16 62 16 125zM27 232q0 78 65 212t367 134h229l14 63q23 100 -16 166.5t-147 66.5q-148 0 -277 -83l-63 116q163 111 346 111q212 0 286 -174q151 174 322 174t251.5 -96t80.5 -216t-53 -255h-607
q-29 -143 22.5 -240.5t172.5 -97.5q92 0 151.5 26.5t118.5 63.5l56 -125q-68 -43 -151 -76t-206 -33t-190.5 60.5t-100.5 158.5q-182 -219 -413 -219q-176 0 -217 92.5t-41 170.5zM201 236q0 -123 129 -123q97 0 197.5 90t136.5 252h-189q-143 0 -208.5 -59.5t-65.5 -159.5z
" />
    <glyph glyph-name="ccedilla" unicode="&#xe7;" horiz-adv-x="937" 
d="M383 -229q0 59 -100 59l-7 20l72 132q-133 29 -198.5 133.5t-65.5 244.5q0 282 146.5 470t402.5 188q146 0 268 -74l-57 -125q-93 55 -197 55q-181 0 -283 -149.5t-102 -336.5t76 -231t129 -44q120 0 246 59l39 -125q-125 -70 -287 -78l-39 -67q47 -10 74.5 -43t27.5 -80
q0 -111 -69.5 -163t-162.5 -52t-151 28l39 113q44 -22 94 -22t77.5 19t27.5 69z" />
    <glyph glyph-name="egrave" unicode="&#xe8;" horiz-adv-x="1040" 
d="M788 691q0 73 -46 128t-146 55t-189 -86q-88 -86 -120 -210h485q16 40 16 113zM592 1018q186 0 272 -98t86 -240q0 -101 -53 -229h-645q-28 -136 33 -238t184 -100q92 -1 159 27t126 65l57 -127q-172 -109 -359 -109q-186 0 -279 116t-91 286q0 119 37 235
q77 243 269 356q98 56 204 56zM526 1454h179l65 -248l-4 -20h-137l-107 248z" />
    <glyph glyph-name="eacute" unicode="&#xe9;" horiz-adv-x="1040" 
d="M788 691q0 73 -46 128t-146 55t-189 -86q-88 -86 -120 -210h485q16 40 16 113zM592 1018q186 0 272 -98t86 -240q0 -101 -53 -229h-645q-28 -136 33 -238t184 -100q92 -1 159 27t126 65l57 -127q-172 -109 -359 -109q-186 0 -279 116t-91 286q0 119 37 235
q77 243 269 356q98 56 204 56zM969 1434l-213 -248h-154l4 20l172 248h195z" />
    <glyph glyph-name="ecircumflex" unicode="&#xea;" horiz-adv-x="1040" 
d="M788 691q0 73 -46 128t-146 55t-189 -86q-88 -86 -120 -210h485q16 40 16 113zM592 1018q186 0 272 -98t86 -240q0 -101 -53 -229h-645q-28 -136 33 -238t184 -100q92 -1 159 27t126 65l57 -127q-172 -109 -359 -109q-186 0 -279 116t-91 286q0 119 37 235
q77 243 269 356q98 56 204 56zM956 1206l-4 -20h-145l-78 172l-151 -172h-162l4 20l225 248h193z" />
    <glyph glyph-name="edieresis" unicode="&#xeb;" horiz-adv-x="1040" 
d="M788 691q0 73 -46 128t-146 55t-189 -86q-88 -86 -120 -210h485q16 40 16 113zM592 1018q186 0 272 -98t86 -240q0 -101 -53 -229h-645q-28 -136 33 -238t184 -100q92 -1 159 27t126 65l57 -127q-172 -109 -359 -109q-186 0 -279 116t-91 286q0 119 37 235
q77 243 269 356q98 56 204 56zM410 1270q0 59 36 99t88 40q96 0 97 -88q0 -61 -38 -99t-97 -38q-86 0 -86 86zM902 1409q98 -1 98 -99q0 -50 -38 -88t-98 -38q-86 0 -86 86q0 59 37 99t87 40z" />
    <glyph glyph-name="igrave" unicode="&#xec;" horiz-adv-x="499" 
d="M217 1454h178l66 -248l-4 -20h-138l-106 248zM45 0l209 987h168l-209 -987h-168z" />
    <glyph glyph-name="iacute" unicode="&#xed;" horiz-adv-x="501" 
d="M670 1434l-213 -248h-154l4 20l172 248h195zM45 0l209 987h168l-209 -987h-168z" />
    <glyph glyph-name="icircumflex" unicode="&#xee;" horiz-adv-x="499" 
d="M45 0l209 987h168l-209 -987h-168zM651 1206l-4 -20h-145l-78 172l-152 -172h-161l4 20l225 248h192z" />
    <glyph glyph-name="idieresis" unicode="&#xef;" horiz-adv-x="499" 
d="M111 1270q0 59 36 99q37 40 89 40q96 0 96 -88q0 -61 -38 -99t-97 -38q-86 0 -86 86zM603 1409q97 -1 97 -99q0 -50 -38 -88t-97 -38q-86 0 -86 86q0 59 37 99t87 40zM45 0l209 987h168l-209 -987h-168z" />
    <glyph glyph-name="eth" unicode="&#xf0;" horiz-adv-x="1146" 
d="M260 372q0 -112 56.5 -179.5t146.5 -67.5q171 0 275 126t104 320q0 123 -57.5 184.5t-148.5 61.5t-157.5 -29.5t-115 -85t-76 -137t-27.5 -193.5zM874 1198q150 -288 150 -574t-148 -470.5t-393 -184.5q-186 0 -292.5 115.5t-106.5 298.5q0 254 139 422t348 168
q128 0 189 -36t74 -48l4 4q-24 117 -117 258l-197 -53l-24 112l162 41q-37 66 -111 162l4 21h190q23 -29 41.5 -66t36.5 -68l183 52l22 -113z" />
    <glyph glyph-name="ntilde" unicode="&#xf1;" horiz-adv-x="1105" 
d="M645 874q-88 0 -212 -62q-32 -15 -52 -30l-168 -782h-168l209 987h121l2 -90h4q174 121 322 121t222 -95q74 -99 33 -300l-133 -623h-168l131 614q55 260 -143 260zM1006 1303q-103 -117 -168 -117t-136 40q-72 40 -105 41q-71 1 -132 -71l-37 102q100 117 172 117
q45 0 73 -13t76 -40t102 -28t118 71z" />
    <glyph glyph-name="ograve" unicode="&#xf2;" horiz-adv-x="1122" 
d="M1001 602q-1 -100 -33 -217t-100 -209q-152 -205 -419 -207q-180 0 -272 109q-93 109 -93 287q0 262 130 445q150 208 417 208q98 0 168 -32q202 -92 202 -384zM258 384q0 -271 199 -271q186 0 285 170q85 143 85 329t-111 242q-40 20 -95 20q-185 0 -283 -174
q-44 -76 -62 -164t-18 -152zM535 1454h178l65 -248l-4 -20h-137l-107 248z" />
    <glyph glyph-name="oacute" unicode="&#xf3;" horiz-adv-x="1122" 
d="M1001 602q-1 -100 -33 -217t-100 -209q-152 -205 -419 -207q-180 0 -272 109q-93 109 -93 287q0 262 130 445q150 208 417 208q98 0 168 -32q202 -92 202 -384zM258 384q0 -271 199 -271q186 0 285 170q85 143 85 329t-111 242q-40 20 -95 20q-185 0 -283 -174
q-44 -76 -62 -164t-18 -152zM977 1434l-213 -248h-154l4 20l172 248h195z" />
    <glyph glyph-name="ocircumflex" unicode="&#xf4;" horiz-adv-x="1122" 
d="M1001 602q-1 -100 -33 -217t-100 -209q-152 -205 -419 -207q-180 0 -272 109q-93 109 -93 287q0 262 130 445q150 208 417 208q98 0 168 -32q202 -92 202 -384zM258 384q0 -271 199 -271q186 0 285 170q85 143 85 329t-111 242q-40 20 -95 20q-185 0 -283 -174
q-44 -76 -62 -164t-18 -152zM967 1206l-4 -20h-146l-78 172l-151 -172h-162l4 20l225 248h193z" />
    <glyph glyph-name="otilde" unicode="&#xf5;" horiz-adv-x="1122" 
d="M1001 602q-1 -100 -33 -217t-100 -209q-152 -205 -419 -207q-180 0 -272 109q-93 109 -93 287q0 262 130 445q150 208 417 208q98 0 168 -32q202 -92 202 -384zM258 384q0 -271 199 -271q186 0 285 170q85 143 85 329t-111 242q-40 20 -95 20q-185 0 -283 -174
q-44 -76 -62 -164t-18 -152zM997 1303q-103 -117 -175 -117q-42 0 -70 12t-78 40q-51 28 -84 29q-71 1 -133 -71l-37 102q100 117 172 117q45 0 73 -13t76 -40t102 -28t118 71z" />
    <glyph glyph-name="odieresis" unicode="&#xf6;" horiz-adv-x="1122" 
d="M1001 602q-1 -100 -33 -217t-100 -209q-152 -205 -419 -207q-180 0 -272 109q-93 109 -93 287q0 262 130 445q150 208 417 208q98 0 168 -32q202 -92 202 -384zM258 384q0 -271 199 -271q186 0 285 170q85 143 85 329t-111 242q-40 20 -95 20q-185 0 -283 -174
q-44 -76 -62 -164t-18 -152zM420 1270q0 59 37 99t88 40q96 0 96 -88q0 -61 -38 -99t-97 -38q-86 0 -86 86zM788 1270q0 59 37 99t87 40q98 0 98 -88q0 -61 -38 -99t-98 -38q-86 0 -86 86z" />
    <glyph glyph-name="divide" unicode="&#xf7;" 
d="M1022 629l-31 -152h-880l32 152h879zM486 270q106 0 106 -110q0 -56 -44 -101t-100 -45q-108 0 -108 114q0 56 46 98q46 44 100 44zM622 834q-108 0 -108 112q0 56 46 100t108 44q98 0 98 -112q0 -56 -44 -100t-100 -44z" />
    <glyph glyph-name="oslash" unicode="&#xf8;" horiz-adv-x="1122" 
d="M612 874q-93 0 -162 -49t-130.5 -157t-61.5 -295q0 -50 8 -94l492 542q-53 53 -146 53zM806.5 443q20.5 87 20.5 150t-8 99l-487 -536q45 -43 136 -43t160.5 48t113.5 121.5t64.5 160.5zM84 354q0 275 140 469.5t407 194.5q147 0 237 -74l95 103l102 -84l-113 -123
q49 -96 49 -217q0 -266 -142 -460t-410 -194q-139 0 -226 66l-90 -98l-96 88l100 110q-53 89 -53 219z" />
    <glyph glyph-name="ugrave" unicode="&#xf9;" horiz-adv-x="1091" 
d="M412 987l-131 -614q-29 -129 2 -195t143 -66t250 95l168 780h168l-209 -987h-121l2 90h-4q-125 -80 -196 -100q-70 -20 -119 -21q-152 -1 -225 95t-29 296l133 627h168zM508 1454h178l66 -248l-4 -20h-138l-106 248z" />
    <glyph glyph-name="uacute" unicode="&#xfa;" horiz-adv-x="1091" 
d="M412 987l-131 -614q-29 -129 2 -195t143 -66t250 95l168 780h168l-209 -987h-121l2 90h-4q-125 -80 -196 -100q-70 -20 -119 -21q-152 -1 -225 95t-29 296l133 627h168zM958 1434l-213 -248h-153l4 20l172 248h195z" />
    <glyph glyph-name="ucircumflex" unicode="&#xfb;" horiz-adv-x="1091" 
d="M412 987l-131 -614q-29 -129 2 -195t143 -66t250 95l168 780h168l-209 -987h-121l2 90h-4q-125 -80 -196 -100q-70 -20 -119 -21q-152 -1 -225 95t-29 296l133 627h168zM940 1206l-4 -20h-145l-78 172l-152 -172h-162l4 20l226 248h192z" />
    <glyph glyph-name="udieresis" unicode="&#xfc;" horiz-adv-x="1091" 
d="M412 987l-131 -614q-29 -129 2 -195t143 -66t250 95l168 780h168l-209 -987h-121l2 90h-4q-125 -80 -196 -100q-70 -20 -119 -21q-152 -1 -225 95t-29 296l133 627h168zM401 1270q0 59 37 99q36 40 88 40q96 0 97 -88q0 -61 -38 -99t-98 -38q-86 0 -86 86zM894 1409
q98 -1 98 -99q0 -50 -39 -88q-38 -38 -97 -38q-86 0 -86 86q0 59 37 99t87 40z" />
    <glyph glyph-name="yacute" unicode="&#xfd;" horiz-adv-x="968" 
d="M30 -297q56 0 100 46t89 128l72 133l-154 957l4 20h166l76 -625l12 -186h4l88 186l334 625h174l-6 -20l-620 -1129q-74 -135 -157 -205t-187 -69q-41 0 -99 11t-71 15l28 138q91 -25 147 -25zM918 1434l-213 -248h-154l4 20l172 248h195z" />
    <glyph glyph-name="thorn" unicode="&#xfe;" horiz-adv-x="1116" 
d="M473 113q100 0 167 53t123 164.5t56 289.5t-66.5 216t-126.5 38q-128 0 -249 -96l-123 -581q69 -84 219 -84zM702 1018q66 0 123.5 -31t113.5 -108.5t56 -218.5q0 -140 -28.5 -258.5t-89 -215t-153 -157t-206.5 -60.5t-179 32t-110 69h-4l-100 -476h-168l391 1840h168
l-110 -516h4q98 73 162 86.5t130 13.5z" />
    <glyph glyph-name="ydieresis" unicode="&#xff;" horiz-adv-x="968" 
d="M30 -297q56 0 100 46t89 128l72 133l-154 957l4 20h166l76 -625l12 -186h4l88 186l334 625h174l-6 -20l-620 -1129q-74 -135 -157 -205t-187 -69q-41 0 -99 11t-71 15l28 138q91 -25 147 -25zM346 1270q0 59 37 99t88 40q98 0 96 -88q0 -61 -38 -99t-97 -38q-86 0 -86 86
zM839 1409q97 -1 97 -99q0 -50 -38 -88t-97 -38q-86 0 -86 86q0 59 37 99t87 40z" />
    <glyph glyph-name="Amacron" unicode="&#x100;" horiz-adv-x="1193" 
d="M739 1219l-186 -377l-182 -338h432l-35 338l-25 377h-4zM1034 0h-174l-37 360h-532l-193 -360h-184l768 1393h176zM571 1591l33 152h490l-33 -152h-490z" />
    <glyph glyph-name="amacron" unicode="&#x101;" horiz-adv-x="1124" 
d="M448 113q114 0 234 100l125 575q-83 88 -209 86q-94 0 -159 -51t-103 -127q-71 -140 -73 -294q-1 -154 29 -201q30 -48 64 -68t92 -20zM394 -31q-89 0 -146 31q-162 88 -162 352t117 452q132 212 360 214q104 0 179 -40t116 -81h2l37 90h121l-172 -809q-6 -27 1 -40
t46 -13h55l-30 -133q-158 -41 -200 15q-24 32 -30 83h-4q-53 -41 -127 -81t-163 -40zM453 1223l32 151h490l-33 -151h-489z" />
    <glyph glyph-name="Abreve" unicode="&#x102;" horiz-adv-x="1193" 
d="M739 1219l-186 -377l-182 -338h432l-35 338l-25 377h-4zM1034 0h-174l-37 360h-532l-193 -360h-184l768 1393h176zM829 1716q117 0 240 66l33 -115q-125 -106 -283 -105t-252 119l62 101q83 -66 200 -66z" />
    <glyph glyph-name="abreve" unicode="&#x103;" horiz-adv-x="1124" 
d="M448 113q114 0 234 100l125 575q-83 88 -209 86q-94 0 -159 -51t-103 -127q-71 -140 -73 -294q-1 -154 29 -201q30 -48 64 -68t92 -20zM394 -31q-89 0 -146 31q-162 88 -162 352t117 452q132 212 360 214q104 0 179 -40t116 -81h2l37 90h121l-172 -809q-6 -27 1 -40
t46 -13h55l-30 -133q-158 -41 -200 15q-24 32 -30 83h-4q-53 -41 -127 -81t-163 -40zM708 1339q117 0 240 66l33 -115q-125 -106 -282 -105q-158 1 -253 120l62 100q83 -66 200 -66z" />
    <glyph glyph-name="Aogonek" unicode="&#x104;" horiz-adv-x="1193" 
d="M739 1219l-186 -377l-182 -338h432l-35 338l-25 377h-4zM643 -292q0 62 17.5 100t50 76t149.5 118l-37 358h-532l-193 -360h-184l768 1393h176l176 -1393q-233 -110 -233 -229q0 -66 69 -66q45 0 119 43v-127q-83 -57 -165 -57q-83 0 -132 41t-49 103z" />
    <glyph glyph-name="aogonek" unicode="&#x105;" horiz-adv-x="1124" 
d="M262 369q0 -256 184 -256q118 0 236 100l125 575q-81 86 -192 86t-175.5 -51t-121 -160.5t-56.5 -293.5zM714 -436q-81 0 -129 41t-48 125t59 145.5t149 114.5q-48 20 -57 100h-4q-53 -41 -127 -81t-163 -40q-162 0 -235 107t-73 251q0 291 125.5 491t351.5 200
q104 0 179 -40t116 -81h2l37 90h121l-172 -809q-6 -27 1 -40t46 -13h55l-30 -133q-98 -63 -161 -110.5t-63 -111.5t70 -65q35 0 64.5 14.5t54.5 28.5v-127q-88 -57 -169 -57z" />
    <glyph glyph-name="Cacute" unicode="&#x106;" horiz-adv-x="1150" 
d="M137 540q0 154 50 320q49 166 145 291t233 199t310 74t321 -91l-68 -133q-132 66 -269 67q-136 1 -239 -65t-171 -171q-134 -207 -134 -517q0 -176 75 -282t228 -107q153 0 308 72l43 -138q-197 -90 -334 -90t-225 38q-272 119 -273 533zM1171 1788l-213 -248h-153l4 21
l174 247h193z" />
    <glyph glyph-name="cacute" unicode="&#x107;" horiz-adv-x="937" 
d="M84 367q0 275 147 463t402 188q142 0 268 -74l-57 -125q-93 55 -197 55q-182 0 -284 -150q-101 -150 -101 -336t113 -253q39 -23 92 -22q123 0 246 59l39 -125q-140 -78 -310 -78q-169 0 -263 109q-95 109 -95 289zM961 1434l-213 -248h-154l4 20l172 248h195z" />
    <glyph glyph-name="Ccircumflex" unicode="&#x108;" horiz-adv-x="1150" 
d="M137 540q0 154 50 320q49 166 145 291t233 199t310 74t321 -91l-68 -133q-132 66 -269 67q-136 1 -239 -65t-171 -171q-134 -207 -134 -517q0 -176 75 -282t228 -107q153 0 308 72l43 -138q-197 -90 -334 -90t-225 38q-272 119 -273 533zM1178 1561l-4 -21h-146l-86 146
l-145 -146h-162l4 21l227 247h191z" />
    <glyph glyph-name="ccircumflex" unicode="&#x109;" horiz-adv-x="937" 
d="M84 367q0 275 147 463t402 188q142 0 268 -74l-57 -125q-93 55 -197 55q-182 0 -284 -150q-101 -150 -101 -336t113 -253q39 -23 92 -22q123 0 246 59l39 -125q-140 -78 -310 -78q-169 0 -263 109q-95 109 -95 289zM942 1206l-4 -20h-145l-78 172l-152 -172h-162l5 20
l225 248h192z" />
    <glyph glyph-name="Cdotaccent" unicode="&#x10a;" horiz-adv-x="1150" 
d="M137 540q0 154 50 320q49 166 145 291t233 199t310 74t321 -91l-68 -133q-132 66 -269 67q-136 1 -239 -65t-171 -171q-134 -207 -134 -517q0 -176 75 -282t228 -107q153 0 308 72l43 -138q-197 -90 -334 -90t-225 38q-272 119 -273 533zM819 1645q0 59 37 99t88 40
q98 0 96 -88q0 -62 -38 -100t-99 -37q-84 0 -84 86z" />
    <glyph glyph-name="cdotaccent" unicode="&#x10b;" horiz-adv-x="937" 
d="M84 367q0 275 147 463t402 188q142 0 268 -74l-57 -125q-93 55 -197 55q-182 0 -284 -150q-101 -150 -101 -336t113 -253q39 -23 92 -22q123 0 246 59l39 -125q-140 -78 -310 -78q-169 0 -263 109q-95 109 -95 289zM719 1411q88 0 88 -88q0 -61 -37 -99t-98 -38
q-86 0 -86 86q0 59 37 99t96 40z" />
    <glyph glyph-name="Ccaron" unicode="&#x10c;" horiz-adv-x="1150" 
d="M137 540q0 154 50 320q49 166 145 291t233 199t310 74t321 -91l-68 -133q-132 66 -269 67q-136 1 -239 -65t-171 -171q-134 -207 -134 -517q0 -176 75 -282t228 -107q153 0 308 72l43 -138q-197 -90 -334 -90t-225 38q-272 119 -273 533zM674 1788l4 20h145l84 -145
l148 145h162l-5 -20l-227 -248h-190z" />
    <glyph glyph-name="ccaron" unicode="&#x10d;" horiz-adv-x="937" 
d="M84 367q0 275 147 463t402 188q142 0 268 -74l-57 -125q-93 55 -197 55q-182 0 -284 -150q-101 -150 -101 -336t113 -253q39 -23 92 -22q123 0 246 59l39 -125q-140 -78 -310 -78q-169 0 -263 109q-95 109 -95 289zM457 1434l4 20h145l78 -172l154 172h159l-4 -20
l-225 -248h-193z" />
    <glyph glyph-name="Dcaron" unicode="&#x10e;" horiz-adv-x="1337" 
d="M430 152q304 0 467 172q164 172 164 563q0 176 -90 265t-309 89h-152l-231 -1089h151zM717 1393q524 0 524 -502q0 -491 -246 -711q-203 -180 -575 -180h-346l297 1393h346zM616 1788l5 20h145l84 -145l147 145h162l-4 -20l-227 -248h-191z" />
    <glyph glyph-name="dcaron" unicode="&#x10f;" horiz-adv-x="1116" 
d="M459 113q57 -1 124 27t119 73l125 575q-83 86 -232 86q-81 0 -147 -51t-107 -127q-76 -138 -79 -327q0 -256 197 -256zM709 0v90h-4q-155 -121 -309 -121q-155 0 -232 109q-78 109 -78 250q0 286 120 476q134 212 365 214q166 0 281 -100h2l111 516h168l-306 -1434h-118z
M1151 1104l98 289h183l-5 -21l-139 -289h-141z" />
    <glyph glyph-name="Dcroat" unicode="&#x110;" horiz-adv-x="1341" 
d="M434 152q304 0 467 172q164 172 164 563q0 176 -90 265t-309 89h-152l-102 -477h278l-33 -152h-276l-98 -460h151zM721 1393q524 0 524 -502q0 -491 -246 -711q-203 -180 -575 -180h-346l131 612h-115l33 152h113l135 629h346z" />
    <glyph glyph-name="dcroat" unicode="&#x111;" horiz-adv-x="1116" 
d="M322.5 663q-60.5 -109 -60.5 -290q0 -182 69 -221t127 -39t124.5 27.5t119.5 72.5l125 575q-81 86 -232 86q-81 0 -146.5 -51t-126 -160zM705 90q-155 -121 -301 -121q-162 0 -240 109t-78 250t29.5 261t90 215t152 154.5t213.5 59.5q166 0 281 -100h2l49 231h-207
l27 131h209l33 154h168l-33 -154h114l-26 -131h-117l-244 -1149h-118v90h-4z" />
    <glyph glyph-name="Emacron" unicode="&#x112;" 
d="M1167 1393l-32 -152h-625l-96 -455h567l-33 -151h-567l-102 -483h630l-30 -152h-805l297 1393h796zM575 1591l33 152h490l-33 -152h-490z" />
    <glyph glyph-name="emacron" unicode="&#x113;" horiz-adv-x="1040" 
d="M788 691q0 73 -46 128t-146 55t-189 -86q-88 -86 -120 -210h485q16 40 16 113zM592 1018q186 0 272 -98t86 -240q0 -101 -53 -229h-645q-28 -136 33 -238t184 -100q92 -1 159 27t126 65l57 -127q-172 -109 -359 -109q-186 0 -279 116t-91 286q0 119 37 235
q77 243 269 356q98 56 204 56zM446 1223l33 151h490l-33 -151h-490z" />
    <glyph glyph-name="Ebreve" unicode="&#x114;" 
d="M1167 1393l-32 -152h-625l-96 -455h567l-33 -151h-567l-102 -483h630l-30 -152h-805l297 1393h796zM829 1716q117 0 240 66l33 -115q-125 -106 -283 -105t-252 119l62 101q83 -66 200 -66z" />
    <glyph glyph-name="ebreve" unicode="&#x115;" horiz-adv-x="1040" 
d="M788 691q0 73 -46 128t-146 55t-189 -86q-88 -86 -120 -210h485q16 40 16 113zM592 1018q186 0 272 -98t86 -240q0 -101 -53 -229h-645q-28 -136 33 -238t184 -100q92 -1 159 27t126 65l57 -127q-172 -109 -359 -109q-186 0 -279 116t-91 286q0 119 37 235
q77 243 269 356q98 56 204 56zM708 1339q117 0 240 66l33 -115q-125 -106 -282 -105q-158 1 -253 120l62 100q83 -66 200 -66z" />
    <glyph glyph-name="Edotaccent" unicode="&#x116;" 
d="M1167 1393l-32 -152h-625l-96 -455h567l-33 -151h-567l-102 -483h630l-30 -152h-805l297 1393h796zM727 1645q0 59 37 99t88 40q98 0 96 -88q0 -62 -38 -100t-99 -37q-84 0 -84 86z" />
    <glyph glyph-name="edotaccent" unicode="&#x117;" horiz-adv-x="1040" 
d="M788 691q0 73 -46 128t-146 55t-189 -86q-88 -86 -120 -210h485q16 40 16 113zM592 1018q186 0 272 -98t86 -240q0 -101 -53 -229h-645q-28 -136 33 -238t184 -100q92 -1 159 27t126 65l57 -127q-172 -109 -359 -109q-186 0 -279 116t-91 286q0 119 37 235
q77 243 269 356q98 56 204 56zM598 1272q0 59 37 99t88 40q98 0 96 -88q0 -61 -37 -99t-98 -38q-86 0 -86 86z" />
    <glyph glyph-name="Eogonek" unicode="&#x118;" 
d="M473 -273q0 87 58.5 151.5t148.5 121.5h-606l297 1393h796l-32 -152h-625l-96 -455h567l-33 -151h-567l-102 -483h630l-30 -152q-250 -109 -250 -229q0 -66 71 -66q35 0 64 14.5t55 28.5l-2 -127q-88 -57 -166 -57t-128 38t-50 125z" />
    <glyph glyph-name="eogonek" unicode="&#x119;" horiz-adv-x="1040" 
d="M788 691q0 73 -46 128t-147 55t-188 -85t-120 -211h485q16 40 16 113zM346 -276q0 120 137 243v4l-39 -2q-178 0 -270 115t-92 287q0 119 37 235.5t104.5 207.5t165 147.5t203.5 56.5q185 0 271.5 -98t86.5 -215.5t-53 -253.5h-645q-28 -137 32 -237.5t185 -100.5
q92 0 158.5 27.5t126.5 64.5l57 -127q-12 -8 -25.5 -15t-45.5 -27q-108 -65 -172 -130t-64 -135q0 -66 69 -66q45 0 119 43v-127q-88 -57 -169 -57t-129 41t-48 119z" />
    <glyph glyph-name="Ecaron" unicode="&#x11a;" 
d="M1167 1393l-32 -152h-625l-96 -455h567l-33 -151h-567l-102 -483h630l-30 -152h-805l297 1393h796zM592 1788l4 20h145l84 -145l148 145h162l-5 -20l-227 -248h-190z" />
    <glyph glyph-name="ecaron" unicode="&#x11b;" horiz-adv-x="1040" 
d="M788 691q0 73 -46 128t-146 55t-189 -86q-88 -86 -120 -210h485q16 40 16 113zM592 1018q186 0 272 -98t86 -240q0 -101 -53 -229h-645q-28 -136 33 -238t184 -100q92 -1 159 27t126 65l57 -127q-172 -109 -359 -109q-186 0 -279 116t-91 286q0 119 37 235
q77 243 269 356q98 56 204 56zM463 1434l4 20h145l78 -172l154 172h160l-5 -20l-225 -248h-192z" />
    <glyph glyph-name="Gcircumflex" unicode="&#x11c;" horiz-adv-x="1277" 
d="M873 1268q-163 0 -269 -72t-168 -182q-116 -206 -117 -493q0 -286 157 -367q54 -29 132 -29q152 0 271 74l71 333l-239 41l24 111h420l-125 -586q-216 -129 -440 -129q-225 0 -338 146t-113 381q0 387 172 637q89 131 233 211t349 79q205 0 385 -133l-88 -131
q-154 109 -317 109zM1180 1561l-4 -21h-146l-86 146l-145 -146h-162l4 21l227 247h191z" />
    <glyph glyph-name="gcircumflex" unicode="&#x11d;" horiz-adv-x="1116" 
d="M339 -297q254 0 312 266l23 107h-4q-54 -39 -116 -70t-152 -31t-148 31q-170 92 -170 351t128 459t359 202q180 0 301 -121h5l41 90h118l-213 -999q-63 -297 -302 -394q-79 -30 -175 -30q-169 1 -307 76l51 129q121 -66 249 -66zM260 379q0 -181 98 -239q36 -19 94 -19
q58 1 129 25t124 71l120 574q-85 85 -219 83q-102 0 -169 -53q-122 -97 -161 -296q-16 -87 -16 -146zM983 1206l-4 -20h-145l-78 172l-152 -172h-162l4 20l226 248h192z" />
    <glyph glyph-name="Gbreve" unicode="&#x11e;" horiz-adv-x="1277" 
d="M873 1268q-163 0 -269 -72t-168 -182q-116 -206 -117 -493q0 -286 157 -367q54 -29 132 -29q152 0 271 74l71 333l-239 41l24 111h420l-125 -586q-216 -129 -440 -129q-225 0 -338 146t-113 381q0 387 172 637q89 131 233 211t349 79q205 0 385 -133l-88 -131
q-154 109 -317 109zM932 1716q116 0 242 66l32 -115q-125 -106 -293 -104q-86 1 -146 37t-95 81l61 101q83 -66 199 -66z" />
    <glyph glyph-name="gbreve" unicode="&#x11f;" horiz-adv-x="1116" 
d="M339 -297q254 0 312 266l23 107h-4q-54 -39 -116 -70t-152 -31t-148 31q-170 92 -170 351t128 459t359 202q180 0 301 -121h5l41 90h118l-213 -999q-63 -297 -302 -394q-79 -30 -175 -30q-169 1 -307 76l51 129q121 -66 249 -66zM260 379q0 -181 98 -239q36 -19 94 -19
q58 1 129 25t124 71l120 574q-85 85 -219 83q-102 0 -169 -53q-122 -97 -161 -296q-16 -87 -16 -146zM727 1339q116 0 242 66l32 -115q-125 -106 -292 -104q-87 0 -147 37t-95 82l61 100q83 -66 199 -66z" />
    <glyph glyph-name="Gdotaccent" unicode="&#x120;" horiz-adv-x="1277" 
d="M873 1268q-163 0 -269 -72t-168 -182q-116 -206 -117 -493q0 -286 157 -367q54 -29 132 -29q152 0 271 74l71 333l-239 41l24 111h420l-125 -586q-216 -129 -440 -129q-225 0 -338 146t-113 381q0 387 172 637q89 131 233 211t349 79q205 0 385 -133l-88 -131
q-154 109 -317 109zM825 1645q0 59 37 99t88 40q97 0 97 -88q0 -62 -38 -100t-100 -37q-84 0 -84 86z" />
    <glyph glyph-name="gdotaccent" unicode="&#x121;" horiz-adv-x="1116" 
d="M339 -297q254 0 312 266l23 107h-4q-54 -39 -116 -70t-152 -31t-148 31q-170 92 -170 351t128 459t359 202q180 0 301 -121h5l41 90h118l-213 -999q-63 -297 -302 -394q-79 -30 -175 -30q-169 1 -307 76l51 129q121 -66 249 -66zM260 379q0 -181 98 -239q36 -19 94 -19
q58 1 129 25t124 71l120 574q-85 85 -219 83q-102 0 -169 -53q-122 -97 -161 -296q-16 -87 -16 -146zM758 1411q88 0 88 -88q0 -61 -37 -99t-98 -38q-86 0 -86 86q0 59 37 99t96 40z" />
    <glyph glyph-name="uni0122" unicode="&#x122;" horiz-adv-x="1277" 
d="M873 1268q-163 0 -269 -72t-168 -182q-116 -206 -117 -493q0 -286 157 -367q54 -29 132 -29q152 0 271 74l71 333l-239 41l24 111h420l-125 -586q-216 -129 -440 -129q-225 0 -338 146t-113 381q0 387 172 637q89 131 233 211t349 79q205 0 385 -133l-88 -131
q-154 109 -317 109zM362 -446l103 309h174l-4 -21l-139 -288h-134z" />
    <glyph glyph-name="uni0123" unicode="&#x123;" horiz-adv-x="1116" 
d="M339 -297q254 0 312 266l23 107h-4q-54 -39 -116 -70t-152 -31t-148 31q-170 92 -170 351t128 459t359 202q180 0 301 -121h5l41 90h118l-213 -999q-63 -297 -302 -394q-79 -30 -175 -30q-169 1 -307 76l51 129q121 -66 249 -66zM260 379q0 -181 98 -239q36 -19 94 -19
q58 1 129 25t124 71l120 574q-85 85 -219 83q-102 0 -169 -53q-122 -97 -161 -296q-16 -87 -16 -146zM893 1454l-98 -289h-174l4 21l139 289h133z" />
    <glyph glyph-name="Hcircumflex" unicode="&#x124;" horiz-adv-x="1355" 
d="M999 635h-618l-135 -635h-172l297 1393h172l-129 -607h616l129 607h172l-295 -1393h-172zM1155 1561l-4 -21h-145l-86 146l-146 -146h-162l4 21l228 247h190z" />
    <glyph glyph-name="hcircumflex" unicode="&#x125;" horiz-adv-x="1103" 
d="M643 874q-97 0 -212 -61q-32 -16 -52 -31l-168 -782h-168l305 1434h168l-110 -514h4q24 14 54 31q116 67 212 67q172 0 247 -95q74 -99 33 -296l-133 -627h-168l131 614q55 260 -143 260zM1049 1561l-5 -21h-145l-86 146l-145 -146h-162l4 21l227 247h191z" />
    <glyph glyph-name="Hbar" unicode="&#x126;" horiz-adv-x="1355" 
d="M1032 786l55 263h-616l-55 -263h616zM1260 1049l-222 -1049h-172l135 635h-618l-135 -635h-172l223 1049h-94l31 151h96l41 193h172l-41 -193h616l41 193h172l-41 -193h97l-33 -151h-96z" />
    <glyph glyph-name="hbar" unicode="&#x127;" horiz-adv-x="1103" 
d="M643 874q-90 0 -167 -38.5t-97 -53.5l-168 -782h-168l244 1151h-115l29 131h114l33 152h168l-33 -152h209l-28 -131h-209l-49 -231h4q25 14 54.5 31.5t91.5 42t139 24.5q157 0 229.5 -98.5t31.5 -292.5l-133 -627h-168l131 614q55 260 -143 260z" />
    <glyph glyph-name="Itilde" unicode="&#x128;" horiz-adv-x="565" 
d="M246 0h-172l297 1393h172zM217 1673q100 117 172 117q45 0 73 -13t78 -41t89 -28q67 0 129 72l37 -103q-45 -51 -89 -84q-75 -56 -156 -20q-28 13 -79 41t-84 28q-73 0 -133 -71z" />
    <glyph glyph-name="itilde" unicode="&#x129;" horiz-adv-x="499" 
d="M692 1303q-103 -117 -168 -117t-136 40q-72 40 -104 41q-70 1 -132 -71l-37 102q100 117 172 117q45 0 73 -13t76 -40q49 -27 103 -28t116 71zM45 0l209 987h168l-209 -987h-168z" />
    <glyph glyph-name="Imacron" unicode="&#x12a;" horiz-adv-x="565" 
d="M246 0h-172l297 1393h172zM246 1591l33 152h489l-33 -152h-489z" />
    <glyph glyph-name="imacron" unicode="&#x12b;" horiz-adv-x="499" 
d="M147 1223l33 151h490l-33 -151h-490zM45 0l209 987h168l-209 -987h-168z" />
    <glyph glyph-name="Ibreve" unicode="&#x12c;" horiz-adv-x="565" 
d="M246 0h-172l297 1393h172zM501 1716q117 0 240 66l33 -115q-125 -106 -293 -104q-86 1 -146 37t-95 81l61 101q83 -66 200 -66z" />
    <glyph glyph-name="ibreve" unicode="&#x12d;" horiz-adv-x="499" 
d="M403 1339q117 0 240 66l33 -115q-125 -106 -282 -105q-158 1 -253 120l62 100q83 -66 200 -66zM45 0l209 987h168l-209 -987h-168z" />
    <glyph glyph-name="Iogonek" unicode="&#x12e;" horiz-adv-x="565" 
d="M-137 -274q0 124 83 184.5t128 91.5l297 1391h172l-297 -1393q-127 -63 -176.5 -116.5t-49.5 -112.5q0 -66 70 -66q35 0 64.5 14.5t54.5 28.5v-127q-88 -57 -166 -57t-129 39t-51 123z" />
    <glyph glyph-name="iogonek" unicode="&#x12f;" horiz-adv-x="501" 
d="M428 1409q88 0 88 -88q0 -61 -37 -99t-98 -38q-86 0 -86 86q0 59 37 99t96 40zM176 -379q-88 -57 -189 -57t-129 59.5t-28 100.5q0 96 60.5 159.5t156.5 122.5l207 981h168l-209 -987q-123 -61 -174 -115.5t-51 -113.5q0 -66 69 -66q45 0 119 43v-127z" />
    <glyph glyph-name="Idotaccent" unicode="&#x130;" horiz-adv-x="565" 
d="M246 0h-172l297 1393h172zM399 1645q0 59 37 99t88 40q97 0 97 -88q0 -62 -38 -100t-100 -37q-84 0 -84 86z" />
    <glyph glyph-name="dotlessi" unicode="&#x131;" horiz-adv-x="501" 
d="M45 0l209 987h168l-209 -987h-168z" />
    <glyph glyph-name="IJ" unicode="&#x132;" horiz-adv-x="1462" 
d="M246 0h-172l297 1393h172zM800 125q62 0 101 14q79 29 128 143q26 58 44 146l205 965h172l-209 -979q-93 -443 -442 -445q-92 0 -167 46t-114 104l96 106q35 -37 80 -69q44 -32 106 -31z" />
    <glyph glyph-name="ij" unicode="&#x133;" horiz-adv-x="1001" 
d="M295 1270q0 59 37 99t88 40q98 0 96 -88q0 -61 -38 -99t-97 -38q-86 0 -86 86zM45 0l209 987h168l-209 -987h-168zM795 1270q0 59 36 99q37 40 89 40q96 0 96 -88q0 -61 -37 -99t-98 -38q-86 0 -86 86zM369 -297q113 0 149 170l238 1114h166l-240 -1126
q-29 -135 -107 -216t-221 -81q-58 0 -123 24l29 131q61 -16 109 -16z" />
    <glyph glyph-name="Jcircumflex" unicode="&#x134;" horiz-adv-x="897" 
d="M236 125q62 0 100 14q79 29 128 143q26 58 44 146l205 965h172l-209 -979q-93 -443 -443 -445q-93 0 -167 46t-113 104l96 106q35 -37 80 -69t107 -31zM1116 1561l-4 -21h-145l-86 146l-146 -146h-162l5 21l227 247h190z" />
    <glyph glyph-name="jcircumflex" unicode="&#x135;" horiz-adv-x="499" 
d="M-133 -297q113 0 149 170l238 1114h166l-240 -1126q-28 -135 -106 -216t-221 -81q-61 0 -123 24l28 131q61 -16 109 -16zM645 1206l-4 -20h-145l-78 172l-152 -172h-162l5 20l225 248h192z" />
    <glyph glyph-name="uni0136" unicode="&#x136;" horiz-adv-x="1153" 
d="M381 637l-135 -637h-172l297 1393h172l-148 -686h4l652 686h209l-5 -21l-684 -706l420 -646l-4 -20h-199l-403 637h-4zM270 -426l99 289h174l-4 -21l-140 -288h-133z" />
    <glyph glyph-name="uni0137" unicode="&#x137;" horiz-adv-x="968" 
d="M309 459l-98 -459h-168l305 1434h168l-192 -906h4l458 459h209l-4 -14l-508 -496l320 -461l-4 -16h-185l-301 459h-4zM147 -426l99 289h174l-4 -21l-140 -288h-133z" />
    <glyph glyph-name="kgreenlandic" unicode="&#x138;" horiz-adv-x="968" 
d="M309 453l-96 -453h-168l209 987h168l-98 -465h4l460 465h209l-4 -14l-512 -498l324 -459l-4 -16h-191l-297 453h-4z" />
    <glyph glyph-name="Lacute" unicode="&#x139;" horiz-adv-x="1001" 
d="M543 1393l-264 -1241h571l-33 -152h-743l297 1393h172zM766 1788l-213 -248h-154l4 21l175 247h192z" />
    <glyph glyph-name="lacute" unicode="&#x13a;" horiz-adv-x="516" 
d="M51 0l305 1434h168l-305 -1434h-168zM739 1788l-213 -248h-153l4 21l174 247h192z" />
    <glyph glyph-name="uni013B" unicode="&#x13b;" horiz-adv-x="1001" 
d="M543 1393l-264 -1241h571l-33 -152h-743l297 1393h172zM242 -426l98 289h174l-4 -21l-139 -288h-133z" />
    <glyph glyph-name="uni013C" unicode="&#x13c;" horiz-adv-x="516" 
d="M51 0l305 1434h168l-305 -1434h-168zM-80 -426l98 289h175l-5 -21l-139 -288h-133z" />
    <glyph glyph-name="Lcaron" unicode="&#x13d;" horiz-adv-x="1001" 
d="M543 1393l-264 -1241h571l-33 -152h-743l297 1393h172zM659 1083l103 310h182l-4 -21l-139 -289h-142z" />
    <glyph glyph-name="lcaron" unicode="&#x13e;" horiz-adv-x="516" 
d="M51 0l305 1434h168l-305 -1434h-168zM539 1104l98 289h182l-4 -21l-139 -289h-141z" />
    <glyph glyph-name="Ldot" unicode="&#x13f;" horiz-adv-x="1003" 
d="M543 1393l-264 -1241h571l-33 -152h-743l297 1393h172zM758 588q-109 0 -109 112q0 56 46 100t108 44q101 0 99 -112q0 -56 -45 -100q-44 -44 -99 -44z" />
    <glyph glyph-name="ldot" unicode="&#x140;" horiz-adv-x="630" 
d="M51 0l305 1434h168l-305 -1434h-168zM586 588q-108 0 -109 112q0 56 46 100t108 44q98 0 98 -112q0 -56 -44 -100q-43 -44 -99 -44z" />
    <glyph glyph-name="Lslash" unicode="&#x141;" horiz-adv-x="1021" 
d="M563 1393l-112 -531l196 107h19l-35 -158l-215 -117l-115 -542h571l-32 -152h-744l125 590l-160 -86h-18l33 158l182 98l133 633h172z" />
    <glyph glyph-name="lslash" unicode="&#x142;" horiz-adv-x="651" 
d="M98 0l119 565l-156 -82h-18l33 158l178 92l147 701h168l-127 -598l185 96h18l-33 -158l-204 -108l-142 -666h-168z" />
    <glyph glyph-name="Nacute" unicode="&#x143;" horiz-adv-x="1372" 
d="M952 258l37 260l187 875h172l-295 -1393h-176l-402 1135h-4l-39 -261l-186 -874h-172l297 1393h176l401 -1135h4zM1151 1788l-213 -248h-154l4 21l175 247h192z" />
    <glyph glyph-name="nacute" unicode="&#x144;" horiz-adv-x="1105" 
d="M645 874q-88 0 -212 -62q-32 -15 -52 -30l-168 -782h-168l209 987h121l2 -90h4q174 121 322 121t222 -95q74 -99 33 -300l-133 -623h-168l131 614q55 260 -143 260zM977 1434l-213 -248h-154l4 20l172 248h195z" />
    <glyph glyph-name="uni0145" unicode="&#x145;" horiz-adv-x="1372" 
d="M952 258l37 260l187 875h172l-295 -1393h-176l-402 1135h-4l-39 -261l-186 -874h-172l297 1393h176l401 -1135h4zM346 -426l98 289h174l-4 -21l-139 -288h-133z" />
    <glyph glyph-name="uni0146" unicode="&#x146;" horiz-adv-x="1105" 
d="M645 874q-88 0 -212 -62q-32 -15 -52 -30l-168 -782h-168l209 987h121l2 -90h4q174 121 322 121t222 -95q74 -99 33 -300l-133 -623h-168l131 614q55 260 -143 260zM213 -426l98 289h174l-4 -21l-139 -288h-133z" />
    <glyph glyph-name="Ncaron" unicode="&#x147;" horiz-adv-x="1372" 
d="M952 258l37 260l187 875h172l-295 -1393h-176l-402 1135h-4l-39 -261l-186 -874h-172l297 1393h176l401 -1135h4zM668 1788l4 20h145l84 -145l148 145h161l-4 -20l-227 -248h-191z" />
    <glyph glyph-name="ncaron" unicode="&#x148;" horiz-adv-x="1105" 
d="M645 874q-88 0 -212 -62q-32 -15 -52 -30l-168 -782h-168l209 987h121l2 -90h4q174 121 322 121t222 -95q74 -99 33 -300l-133 -623h-168l131 614q55 260 -143 260zM477 1434l4 20h146l78 -172l153 172h160l-4 -20l-226 -248h-192z" />
    <glyph glyph-name="napostrophe" unicode="&#x149;" horiz-adv-x="1103" 
d="M645 874q-88 0 -212 -62q-32 -15 -52 -30l-168 -782h-168l209 987h121l2 -90h4q174 121 322 121t222 -95q74 -99 33 -300l-133 -623h-168l131 614q55 260 -143 260zM115 1104l98 289h182l-4 -21l-139 -289h-141z" />
    <glyph glyph-name="Eng" unicode="&#x14a;" horiz-adv-x="1370" 
d="M705 -297q113 0 149 170l29 137l-408 1133h-4l-39 -269l-186 -874h-172l297 1393h180l397 -1137h4l37 262l187 875h172l-322 -1516q-31 -147 -109.5 -230t-201.5 -83q-76 0 -146 24l29 131q61 -16 107 -16z" />
    <glyph glyph-name="eng" unicode="&#x14b;" horiz-adv-x="1105" 
d="M489 -436q-75 0 -145 24l29 131q61 -16 108 -16q113 0 150 170l157 741q55 260 -143 260q-63 0 -147.5 -34t-116.5 -58l-168 -782h-168l209 987h121l2 -90h4q174 121 324 121t222 -99t31 -298l-157 -744q-31 -147 -110 -230t-202 -83z" />
    <glyph glyph-name="Omacron" unicode="&#x14c;" horiz-adv-x="1404" 
d="M1315 874q0 -138 -40 -306q-40 -167 -127 -300t-224 -216t-330 -83q-231 0 -343 145t-112 380q0 375 169 631q87 132 224 215t330 83q119 0 205 -40q248 -115 248 -509zM319 488q1 -157 69 -260t206 -103t227 48q225 123 289 466q20 109 23 223q8 406 -283 406
q-299 0 -437 -301q-94 -207 -94 -479zM682 1591l33 152h489l-33 -152h-489z" />
    <glyph glyph-name="omacron" unicode="&#x14d;" horiz-adv-x="1122" 
d="M1001 602q-1 -100 -33 -217t-100 -209q-152 -205 -419 -207q-180 0 -272 109q-93 109 -93 287q0 262 130 445q150 208 417 208q98 0 168 -32q202 -92 202 -384zM258 384q0 -271 199 -271q186 0 285 170q85 143 85 329t-111 242q-40 20 -95 20q-185 0 -283 -174
q-44 -76 -62 -164t-18 -152zM457 1223l32 151h490l-33 -151h-489z" />
    <glyph glyph-name="Obreve" unicode="&#x14e;" horiz-adv-x="1404" 
d="M1315 874q0 -138 -40 -306q-40 -167 -127 -300t-224 -216t-330 -83q-231 0 -343 145t-112 380q0 375 169 631q87 132 224 215t330 83q119 0 205 -40q248 -115 248 -509zM319 488q1 -157 69 -260t206 -103t227 48q225 123 289 466q20 109 23 223q8 406 -283 406
q-299 0 -437 -301q-94 -207 -94 -479zM737 1782q83 -66 199 -66t242 66l32 -115q-125 -106 -292 -104q-86 1 -146 37t-96 81z" />
    <glyph glyph-name="obreve" unicode="&#x14f;" horiz-adv-x="1122" 
d="M1001 602q-1 -100 -33 -217t-100 -209q-152 -205 -419 -207q-180 0 -272 109q-93 109 -93 287q0 262 130 445q150 208 417 208q98 0 168 -32q202 -92 202 -384zM258 384q0 -271 199 -271q186 0 285 170q85 143 85 329t-111 242q-40 20 -95 20q-185 0 -283 -174
q-44 -76 -62 -164t-18 -152zM712 1339q117 0 240 66l33 -115q-125 -106 -293 -104q-86 0 -146 37t-95 82l61 100q83 -66 200 -66z" />
    <glyph glyph-name="Ohungarumlaut" unicode="&#x150;" horiz-adv-x="1404" 
d="M1315 874q0 -138 -40 -306q-40 -167 -127 -300t-224 -216t-330 -83q-231 0 -343 145t-112 380q0 375 169 631q87 132 224 215t330 83q119 0 205 -40q248 -115 248 -509zM319 488q1 -157 69 -260t206 -103t227 48q225 123 289 466q20 109 23 223q8 406 -283 406
q-299 0 -437 -301q-94 -207 -94 -479zM1358 1788l-211 -248h-154l4 21l172 247h193zM1044 1788l-210 -248h-154l4 21l172 247h193z" />
    <glyph glyph-name="ohungarumlaut" unicode="&#x151;" horiz-adv-x="1122" 
d="M1001 602q-1 -100 -33 -217t-100 -209q-152 -205 -419 -207q-180 0 -272 109q-93 109 -93 287q0 262 130 445q150 208 417 208q98 0 168 -32q202 -92 202 -384zM258 384q0 -271 199 -271q186 0 285 170q85 143 85 329t-111 242q-40 20 -95 20q-185 0 -283 -174
q-44 -76 -62 -164t-18 -152zM1159 1434l-211 -248h-153l4 20l172 248h192zM846 1434l-211 -248h-154l4 20l172 248h193z" />
    <glyph glyph-name="OE" unicode="&#x152;" horiz-adv-x="1826" 
d="M848 1268q-109 0 -192 -40t-165.5 -132t-127 -267t-44.5 -290q0 -205 69 -309.5t220 -104.5q113 0 197 35l229 1071q-77 37 -186 37zM580 -31q-105 0 -191 40t-168 145t-82 340q0 375 128 569t265 277t330 83q136 0 209 -30h799l-33 -152h-627l-98 -455h567l-30 -151
h-568l-104 -483h633l-33 -152h-801q-91 -31 -196 -31z" />
    <glyph glyph-name="oe" unicode="&#x153;" horiz-adv-x="1755" 
d="M1503 691q0 73 -46 128t-147 55t-187 -83t-122 -213h486q16 40 16 113zM258 384q0 -272 199 -271q183 0 276.5 155.5t93.5 342.5t-75.5 225t-130.5 38q-184 0 -255 -124.5t-89.5 -213t-18.5 -152.5zM1665 704.5q0 -117.5 -53 -253.5h-645q-28 -137 32 -237.5t185 -100.5
q92 0 158.5 27.5t125.5 64.5l58 -127q-172 -109 -367 -109q-125 0 -200.5 54.5t-110.5 140.5q-140 -195 -399 -195q-180 0 -272.5 109t-92.5 287q0 265 140 459t407 194q237 0 315 -205q147 205 377 205q169 0 255.5 -98t86.5 -215.5z" />
    <glyph glyph-name="Racute" unicode="&#x154;" horiz-adv-x="1236" 
d="M698 756q147 0 226 82q78 82 77 219q0 88 -50 136t-150 48h-291l-104 -485h292zM823 1393q169 0 265 -82t96 -232q0 -199 -106 -317t-285 -148l251 -581l-8 -33h-172l-252 604h-237l-129 -604h-172l297 1393h452zM1067 1788l-213 -248h-154l5 21l174 247h192z" />
    <glyph glyph-name="racute" unicode="&#x155;" horiz-adv-x="690" 
d="M635 1018q53 0 92 -14l-39 -150q-40 12 -103 12q-119 0 -216 -137l-156 -729h-168l209 987h121l-2 -104h4q114 135 258 135zM791 1434l-213 -248h-154l4 20l172 248h195z" />
    <glyph glyph-name="uni0156" unicode="&#x156;" horiz-adv-x="1236" 
d="M698 756q147 0 226 82q78 82 77 219q0 88 -50 136t-150 48h-291l-104 -485h292zM823 1393q169 0 265 -82t96 -232q0 -199 -106 -317t-285 -148l251 -581l-8 -33h-172l-252 604h-237l-129 -604h-172l297 1393h452zM266 -426l99 289h174l-4 -21l-140 -288h-133z" />
    <glyph glyph-name="uni0157" unicode="&#x157;" horiz-adv-x="690" 
d="M635 1018q53 0 92 -14l-39 -150q-40 12 -103 12q-119 0 -216 -137l-156 -729h-168l209 987h121l-2 -104h4q114 135 258 135zM-88 -426l98 289h174l-4 -21l-139 -288h-133z" />
    <glyph glyph-name="Rcaron" unicode="&#x158;" horiz-adv-x="1236" 
d="M698 756q147 0 226 82q78 82 77 219q0 88 -50 136t-150 48h-291l-104 -485h292zM823 1393q169 0 265 -82t96 -232q0 -199 -106 -317t-285 -148l251 -581l-8 -33h-172l-252 604h-237l-129 -604h-172l297 1393h452zM559 1788l4 20h146l84 -145l147 145h162l-4 -20
l-228 -248h-190z" />
    <glyph glyph-name="rcaron" unicode="&#x159;" horiz-adv-x="690" 
d="M635 1018q53 0 92 -14l-39 -150q-40 12 -103 12q-119 0 -216 -137l-156 -729h-168l209 987h121l-2 -104h4q114 135 258 135zM313 1434l4 20h146l78 -172l153 172h160l-4 -20l-225 -248h-193z" />
    <glyph glyph-name="Sacute" unicode="&#x15a;" horiz-adv-x="1026" 
d="M696 384q0 128 -157 222l-105 64q-217 132 -218 318t133 311q134 126 347 124q176 0 324 -106l-80 -135q-130 86 -261 86t-205 -72q-75 -72 -76 -188q-1 -115 130 -191l105 -61q248 -147 248 -335q0 -107 -35 -189q-69 -164 -253 -231q-89 -32 -208 -32q-202 0 -362 148
l86 135q123 -127 299 -127q124 -1 206 65t82 194zM1014 1788l-213 -248h-154l4 21l174 247h193z" />
    <glyph glyph-name="sacute" unicode="&#x15b;" horiz-adv-x="870" 
d="M135 684q0 149 106 242q107 92 273 92t295 -70l-64 -135q-109 61 -221 61t-164 -48t-51 -118q0 -70 105 -118l98 -47q195 -95 196 -248q2 -153 -102 -239t-284 -87q-117 0 -187 25t-127 69l68 134q112 -86 232 -85t173 44t53 97q1 105 -104 157l-102 49q-80 39 -137 92
q-56 53 -56 133zM858 1434l-213 -248h-153l4 20l172 248h194z" />
    <glyph glyph-name="Scircumflex" unicode="&#x15c;" horiz-adv-x="1026" 
d="M696 384q0 128 -157 222l-105 64q-217 132 -218 318t133 311q134 126 347 124q176 0 324 -106l-80 -135q-130 86 -261 86t-205 -72q-75 -72 -76 -188q-1 -115 130 -191l105 -61q248 -147 248 -335q0 -107 -35 -189q-69 -164 -253 -231q-89 -32 -208 -32q-202 0 -362 148
l86 135q123 -127 299 -127q124 -1 206 65t82 194zM1008 1561l-4 -21h-146l-86 146l-145 -146h-162l4 21l227 247h191z" />
    <glyph glyph-name="scircumflex" unicode="&#x15d;" horiz-adv-x="870" 
d="M135 684q0 149 106 242q107 92 273 92t295 -70l-64 -135q-109 61 -221 61t-164 -48t-51 -118q0 -70 105 -118l98 -47q195 -95 196 -248q2 -153 -102 -239t-284 -87q-117 0 -187 25t-127 69l68 134q112 -86 232 -85t173 44t53 97q1 105 -104 157l-102 49q-80 39 -137 92
q-56 53 -56 133zM854 1206l-4 -20h-145l-78 172l-152 -172h-162l4 20l226 248h192z" />
    <glyph glyph-name="Scedilla" unicode="&#x15e;" horiz-adv-x="1026" 
d="M696 384q0 128 -157 222l-105 64q-219 133 -219 318t133.5 310t347.5 125q173 0 324 -106l-80 -135q-130 86 -261 86t-206.5 -73.5t-75.5 -187.5t131 -190l105 -61q248 -147 248 -333q0 -200 -122 -320t-325 -132l-39 -69q47 -10 75 -43t28 -80q0 -111 -70 -163t-164 -52
t-149 28l39 113q44 -22 94 -22t77 19t27 69q0 59 -100 59l-6 20l67 125q-167 21 -290 142l86 135q123 -127 299 -127q125 0 206.5 65.5t81.5 193.5z" />
    <glyph glyph-name="scedilla" unicode="&#x15f;" horiz-adv-x="870" 
d="M535 253q0 106 -105 157l-102 49q-80 39 -136.5 92t-56.5 133q0 152 107 243t272 91q166 0 295 -70l-64 -135q-109 61 -221 61t-163.5 -48t-51.5 -118t105 -118l98 -47q197 -96 197 -258q0 -135 -93.5 -219t-253.5 -95l-38 -69q47 -10 74.5 -43t27.5 -80
q0 -111 -69.5 -163t-163.5 -52t-150 28l39 113q44 -22 94 -22t77.5 19t27.5 69q0 59 -101 59l-6 20l68 123q-134 13 -234 90l68 134q110 -84 231 -84t174.5 43t53.5 97z" />
    <glyph glyph-name="Scaron" unicode="&#x160;" horiz-adv-x="1026" 
d="M696 384q0 128 -157 222l-105 64q-217 132 -218 318t133 311q134 126 347 124q176 0 324 -106l-80 -135q-130 86 -261 86t-205 -72q-75 -72 -76 -188q-1 -115 130 -191l105 -61q248 -147 248 -335q0 -107 -35 -189q-69 -164 -253 -231q-89 -32 -208 -32q-202 0 -362 148
l86 135q123 -127 299 -127q124 -1 206 65t82 194zM522 1788l4 20h146l84 -145l147 145h162l-4 -20l-227 -248h-191z" />
    <glyph glyph-name="scaron" unicode="&#x161;" horiz-adv-x="870" 
d="M135 684q0 149 106 242q107 92 273 92t295 -70l-64 -135q-109 61 -221 61t-164 -48t-51 -118q0 -70 105 -118l98 -47q195 -95 196 -248q2 -153 -102 -239t-284 -87q-117 0 -187 25t-127 69l68 134q112 -86 232 -85t173 44t53 97q1 105 -104 157l-102 49q-80 39 -137 92
q-56 53 -56 133zM354 1434l4 20h146l78 -172l153 172h160l-4 -20l-225 -248h-193z" />
    <glyph glyph-name="uni0162" unicode="&#x162;" horiz-adv-x="1036" 
d="M352 -229q0 59 -100 59l-6 20l82 150h-23l264 1241h-364l33 152h905l-31 -152h-367l-264 -1241h-28l-58 -98q47 -10 75 -43t28 -80q0 -111 -70 -163t-164 -52t-149 28l39 113q44 -22 94 -22t77 19t27 69z" />
    <glyph glyph-name="uni0163" unicode="&#x163;" horiz-adv-x="722" 
d="M283 -229q0 59 -101 59l-6 20l78 144q-131 65 -88 260l127 596h-178l20 98l187 39l49 230h168l-50 -230h256l-28 -137h-256l-127 -594q-16 -82 11.5 -112.5t69.5 -30.5t85 10t65 14l-28 -139q-31 -8 -71 -18.5t-93 -10.5h-8l-39 -67q47 -10 74.5 -43t27.5 -80
q0 -111 -69.5 -163t-162.5 -52t-151 28l39 113q44 -22 94 -22t77.5 19t27.5 69z" />
    <glyph glyph-name="Tcaron" unicode="&#x164;" horiz-adv-x="1038" 
d="M1145 1393l-33 -152h-367l-264 -1241h-176l264 1241h-364l33 152h907zM506 1788l4 20h145l84 -145l148 145h162l-5 -20l-227 -248h-190z" />
    <glyph glyph-name="tcaron" unicode="&#x165;" horiz-adv-x="722" 
d="M539 1217l-50 -230h246l-28 -137h-246l-127 -594q-16 -82 12 -113t79 -30q52 1 146 26l-28 -139q-98 -30 -161 -30q-196 -2 -223 156q-9 54 7 128l127 596h-178l20 98l187 39l49 230h168zM659 1104l99 289h182l-4 -21l-139 -289h-142z" />
    <glyph glyph-name="Tbar" unicode="&#x166;" horiz-adv-x="1038" 
d="M1147 1393l-33 -152h-366l-86 -407h233l-33 -150h-233l-146 -684h-176l146 684h-228l31 150h229l86 407h-364l33 152h907z" />
    <glyph glyph-name="tbar" unicode="&#x167;" horiz-adv-x="724" 
d="M417 113q42 0 85 10t65 14l-28 -139q-31 -8 -71 -18.5t-94 -10.5q-120 0 -178.5 71.5t-27.5 213.5l49 235h-129l29 132h129l49 229h-178l20 98l187 39l49 230h168l-49 -230h256l-29 -137h-256l-49 -229h192l-26 -132h-195l-49 -233q-16 -82 11.5 -112.5t69.5 -30.5z" />
    <glyph glyph-name="Utilde" unicode="&#x168;" horiz-adv-x="1339" 
d="M576 125q165 0 261 105q95 105 134 286l186 877h170l-192 -912q-53 -250 -186 -381q-134 -131 -380 -131q-246 1 -349 141t-50 398l188 885h172l-186 -877q-39 -180 14 -286t218 -105zM606 1673q100 117 172 117q46 0 74 -13t77 -41q50 -28 89 -28q67 0 129 72l37 -103
q-45 -51 -89 -84q-75 -56 -156 -20q-28 13 -79 41t-84 28q-71 0 -133 -71z" />
    <glyph glyph-name="utilde" unicode="&#x169;" horiz-adv-x="1091" 
d="M412 987l-131 -614q-29 -129 2 -195t143 -66t250 95l168 780h168l-209 -987h-121l2 90h-4q-125 -80 -196 -100q-70 -20 -119 -21q-152 -1 -225 95t-29 296l133 627h168zM979 1303q-103 -117 -168 -117t-132 40q-29 15 -55 28q-60 29 -121 -6q-36 -19 -65 -52l-37 102
q101 117 173 117q46 0 72 -13q28 -13 76 -40t103 -28t117 71z" />
    <glyph glyph-name="Umacron" unicode="&#x16a;" horiz-adv-x="1339" 
d="M576 125q165 0 261 105q95 105 134 286l186 877h170l-192 -912q-53 -250 -186 -381q-134 -131 -380 -131q-246 1 -349 141t-50 398l188 885h172l-186 -877q-39 -180 14 -286t218 -105zM637 1591l33 152h489l-33 -152h-489z" />
    <glyph glyph-name="umacron" unicode="&#x16b;" horiz-adv-x="1091" 
d="M412 987l-131 -614q-29 -129 2 -195t143 -66t250 95l168 780h168l-209 -987h-121l2 90h-4q-125 -80 -196 -100q-70 -20 -119 -21q-152 -1 -225 95t-29 296l133 627h168zM438 1223l33 151h490l-33 -151h-490z" />
    <glyph glyph-name="Ubreve" unicode="&#x16c;" horiz-adv-x="1339" 
d="M576 125q165 0 261 105q95 105 134 286l186 877h170l-192 -912q-53 -250 -186 -381q-134 -131 -380 -131q-246 1 -349 141t-50 398l188 885h172l-186 -877q-39 -180 14 -286t218 -105zM692 1782q83 -66 199 -66t242 66l32 -115q-125 -106 -293 -104q-86 1 -146 37t-95 81
z" />
    <glyph glyph-name="ubreve" unicode="&#x16d;" horiz-adv-x="1091" 
d="M412 987l-131 -614q-29 -129 2 -195t143 -66t250 95l168 780h168l-209 -987h-121l2 90h-4q-125 -80 -196 -100q-70 -20 -119 -21q-152 -1 -225 95t-29 296l133 627h168zM694 1339q117 0 240 66l33 -115q-125 -106 -293 -104q-86 0 -146 37t-96 82l62 100q83 -66 200 -66z
" />
    <glyph glyph-name="Uring" unicode="&#x16e;" horiz-adv-x="1339" 
d="M576 125q165 0 261 105q95 105 134 286l186 877h170l-192 -912q-53 -250 -186 -381q-134 -131 -380 -131q-246 1 -349 141t-50 398l188 885h172l-186 -877q-39 -180 14 -286t218 -105zM709 1659q0 111 63 169q64 58 152 58t131 -41t43 -112q0 -109 -64 -169t-152 -60
t-130 41q-42 42 -43 114zM821 1675q0 -66 64 -65q43 0 73 28t29 78q0 63 -65 64q-43 0 -72 -28t-29 -77z" />
    <glyph glyph-name="uring" unicode="&#x16f;" horiz-adv-x="1091" 
d="M412 987l-131 -614q-29 -129 2 -195t143 -66t250 95l168 780h168l-209 -987h-121l2 90h-4q-125 -80 -196 -100q-70 -20 -119 -21q-152 -1 -225 95t-29 296l133 627h168zM502 1270q0 111 63 169t151 58t132 -41q43 -42 43 -132q1 -90 -63 -150t-152 -60t-131 42t-43 114z
M614 1286q0 -66 64 -65q43 1 73 29t29 77q0 63 -65 64q-43 0 -72 -28t-29 -77z" />
    <glyph glyph-name="Uhungarumlaut" unicode="&#x170;" horiz-adv-x="1339" 
d="M576 125q165 0 261 105q95 105 134 286l186 877h170l-192 -912q-53 -250 -186 -381q-134 -131 -380 -131q-246 1 -349 141t-50 398l188 885h172l-186 -877q-39 -180 14 -286t218 -105zM1307 1788l-211 -248h-154l4 21l172 247h193zM993 1788l-211 -248h-153l4 21l172 247
h192z" />
    <glyph glyph-name="uhungarumlaut" unicode="&#x171;" horiz-adv-x="1091" 
d="M412 987l-131 -614q-29 -129 2 -195t143 -66t250 95l168 780h168l-209 -987h-121l2 90h-4q-125 -80 -196 -100q-70 -20 -119 -21q-152 -1 -225 95t-29 296l133 627h168zM1116 1434l-211 -248h-153l4 20l172 248h192zM803 1434l-211 -248h-154l4 20l172 248h193z" />
    <glyph glyph-name="Uogonek" unicode="&#x172;" horiz-adv-x="1339" 
d="M501 -436q-81 0 -129 41t-48 120t46 138t117 110q-199 23 -282.5 160t-34.5 375l188 885h172l-186 -877q-39 -180 14.5 -285.5t217.5 -105.5t260 105.5t135 285.5l186 877h170l-192 -912q-72 -342 -223.5 -417.5t-260.5 -88.5q-110 -27 -140 -97.5t-30 -106.5
q0 -66 70 -66q35 0 64.5 14.5t54.5 28.5v-127q-88 -57 -169 -57z" />
    <glyph glyph-name="uogonek" unicode="&#x173;" horiz-adv-x="1091" 
d="M352 -31q-139 0 -211.5 95.5t-29.5 295.5l133 627h168l-131 -614q-29 -129 1.5 -194.5t134.5 -65.5t259 94l168 780h168l-209 -987q-119 -61 -172 -115.5t-53 -113.5q0 -66 69 -66q35 0 64.5 14.5t56.5 28.5l-2 -127q-83 -57 -185 -57q-103 0 -131 59.5t-28 106.5
q0 89 63.5 157t196.5 148l2 55h-4q-189 -121 -328 -121z" />
    <glyph glyph-name="Wcircumflex" unicode="&#x174;" horiz-adv-x="1828" 
d="M1937 1372l-653 -1372h-176l-49 874l-4 351h-6l-154 -351l-420 -874h-178l-68 1372l4 21h170l23 -840l-2 -346h4l154 346l405 840h184l48 -840l6 -346h4l145 346l379 840h189zM1389 1561l-5 -21h-145l-86 146l-145 -146h-162l4 21l227 247h191z" />
    <glyph glyph-name="wcircumflex" unicode="&#x175;" horiz-adv-x="1544" 
d="M1559 967l-508 -967h-162l-62 639l-4 184h-4l-84 -184l-332 -639h-161l-97 967l5 20h161l43 -625l2 -180h4l80 180l320 625h174l55 -625l4 -180h4l78 180l309 625h179zM1165 1206l-4 -20h-145l-78 172l-152 -172h-161l4 20l225 248h193z" />
    <glyph glyph-name="Ycircumflex" unicode="&#x176;" horiz-adv-x="1060" 
d="M375 1393l180 -633h4l455 633h192l-4 -21l-584 -782l-124 -590h-172l124 590l-249 782l4 21h174zM1010 1561l-4 -21h-146l-86 146l-145 -146h-162l4 21l227 247h191z" />
    <glyph glyph-name="ycircumflex" unicode="&#x177;" horiz-adv-x="968" 
d="M30 -297q56 0 100 46t89 128l72 133l-154 957l4 20h166l76 -625l12 -186h4l88 186l334 625h174l-6 -20l-620 -1129q-74 -135 -157 -205t-187 -69q-41 0 -99 11t-71 15l28 138q91 -25 147 -25zM887 1206l-4 -20h-146l-78 172l-151 -172h-162l4 20l225 248h193z" />
    <glyph glyph-name="Ydieresis" unicode="&#x178;" horiz-adv-x="1060" 
d="M375 1393l180 -633h4l455 633h192l-4 -21l-584 -782l-124 -590h-172l124 590l-249 782l4 21h174zM862 1645q0 59 37 99t88 40q98 0 96 -88q0 -61 -36 -100q-37 -38 -99 -37q-86 0 -86 86zM453 1645q0 59 36 99q37 40 87 40q98 0 98 -88q0 -62 -38 -100t-99 -37
q-84 0 -84 86z" />
    <glyph glyph-name="Zacute" unicode="&#x179;" horiz-adv-x="1050" 
d="M217 152h637l-33 -152h-850l31 145l870 1092v4h-604l31 152h817l-31 -146l-868 -1091v-4zM1012 1788l-213 -248h-154l4 21l174 247h193z" />
    <glyph glyph-name="zacute" unicode="&#x17a;" horiz-adv-x="862" 
d="M217 135h449l-29 -135h-670l23 102l606 746v4h-422l29 135h645l-23 -102l-608 -746v-4zM827 1434l-213 -248h-153l4 20l172 248h194z" />
    <glyph glyph-name="Zdotaccent" unicode="&#x17b;" horiz-adv-x="1050" 
d="M217 152h637l-33 -152h-850l31 145l870 1092v4h-604l31 152h817l-31 -146l-868 -1091v-4zM670 1645q0 59 37 99t88 40q96 0 96 -88q0 -62 -38 -100t-99 -37q-84 0 -84 86z" />
    <glyph glyph-name="zdotaccent" unicode="&#x17c;" horiz-adv-x="862" 
d="M217 135h449l-29 -135h-670l23 102l606 746v4h-422l29 135h645l-23 -102l-608 -746v-4zM629 1411q88 0 88 -88q0 -61 -37 -99t-98 -38q-86 0 -86 86q0 59 36 99q37 40 97 40z" />
    <glyph glyph-name="Zcaron" unicode="&#x17d;" horiz-adv-x="1050" 
d="M217 152h637l-33 -152h-850l31 145l870 1092v4h-604l31 152h817l-31 -146l-868 -1091v-4zM537 1788l4 20h145l84 -145l148 145h161l-4 -20l-227 -248h-191z" />
    <glyph glyph-name="zcaron" unicode="&#x17e;" horiz-adv-x="862" 
d="M217 135h449l-29 -135h-670l23 102l606 746v4h-422l29 135h645l-23 -102l-608 -746v-4zM365 1434l4 20h145l78 -172l153 172h160l-4 -20l-225 -248h-193z" />
    <glyph glyph-name="florin" unicode="&#x192;" 
d="M44 -293q112 0 173 164l279 741h-189l53 142h187l127 348q63 172 152 246.5t229 74.5q48 0 123 -12l-27 -145q-63 14 -107 14q-131 0 -190 -164l-131 -362h223l-51 -142h-225l-273 -727q-69 -179 -152 -250t-218 -71q-57 0 -123 12l26 145q56 -14 114 -14z" />
    <glyph glyph-name="Aringacute" unicode="&#x1fa;" horiz-adv-x="1196" 
d="M709 1456q0 -66 63 -65q43 1 73 29t29 77q0 63 -65 64q-43 0 -71 -28t-29 -77zM739 1219l-186 -377l-182 -338h432l-35 338l-25 377h-4zM985 1513q0 -149 -117 -206l166 -1307h-174l-37 360h-532l-193 -360h-184l731 1321q-49 39 -49 135t63 153q40 37 95 50l3 13
l173 200h191l-4 -16l-211 -201h-10q89 -33 89 -142z" />
    <glyph glyph-name="aringacute" unicode="&#x1fb;" horiz-adv-x="1124" 
d="M448 113q114 0 234 100l125 575q-83 88 -209 86q-94 0 -159 -51t-103 -127q-71 -140 -73 -294q-1 -154 29 -201q30 -48 64 -68t92 -20zM394 -31q-89 0 -146 31q-162 88 -162 352t117 452q132 212 360 214q104 0 179 -40t116 -81h2l37 90h121l-172 -809q-6 -27 1 -40
t46 -13h55l-30 -133q-158 -41 -200 15q-24 32 -30 83h-4q-53 -41 -127 -81t-163 -40zM528 1248q0 86 56 138t131 58l128 156h182l-4 -16l-174 -170q4 -4 9 -8q41 -38 41 -124t-60 -144t-154 -57q-155 1 -155 167zM635 1245q0 -62 60 -63q41 0 69 28t28 74q0 60 -62 60
q-41 0 -68 -26t-27 -73z" />
    <glyph glyph-name="AEacute" unicode="&#x1fc;" horiz-adv-x="1708" 
d="M928 1219l-195 -291l-311 -424h340l84 401l86 314h-4zM-125 20l1022 1373h850l-31 -152h-626l-97 -455h568l-33 -151h-567l-103 -483h633l-33 -152h-805l78 360h-418l-270 -360h-172zM1612 1788l-213 -248h-154l4 21l174 247h193z" />
    <glyph glyph-name="aeacute" unicode="&#x1fd;" horiz-adv-x="1574" 
d="M1323 703q0 63 -41 117t-133 54q-156 0 -246 -181q-27 -54 -43 -115h447q16 62 16 125zM27 232q0 167 119 256q119 88 313 90h229l14 63q23 100 -16 167t-147 66q-150 0 -277 -83l-63 116q163 111 346 111q212 0 286 -174q151 174 321 174t251 -95q148 -175 29 -472h-607
q-29 -142 24 -241t171 -97q92 1 151 27t119 63l56 -125q-68 -43 -151 -76t-206 -33q-123 1 -191 61t-100 158q-180 -217 -413 -219q-178 0 -238 139q-20 46 -20 124zM475 455q-143 1 -209 -59t-65 -160q0 -125 129 -123q99 0 199 90q99 90 135 252h-189zM1221 1434
l-213 -248h-154l4 20l172 248h195z" />
    <glyph glyph-name="Oslashacute" unicode="&#x1fe;" horiz-adv-x="1404" 
d="M354 798q-35 -149 -35 -273t23 -199l705 864q-72 76 -192 77t-204 -40q-217 -106 -297 -429zM1135 928q0 64 -21 137l-706 -862q74 -78 199 -78q226 0 361 171q144 186 162 499q5 69 5 133zM858 1423q189 0 299 -98l109 133l106 -78l-131 -159q72 -122 73 -304t-39 -349
t-127 -300t-224 -216t-327 -83t-300 97l-100 -123l-101 82l117 143q-72 125 -73 310q-1 184 40 350t128 297q87 132 224 215t326 83zM1212 1788l-213 -248h-153l4 21l174 247h193z" />
    <glyph glyph-name="oslashacute" unicode="&#x1ff;" horiz-adv-x="1122" 
d="M977 1434l-213 -248h-154l4 20l172 248h195zM612 874q-93 0 -162 -49q-131 -93 -174 -288q-18 -88 -18 -151t8 -107l492 542q-53 53 -146 53zM806 444q20 86 21 148q0 62 -8 100l-487 -536q45 -43 136 -43t161 48q132 91 177 283zM84 354q0 273 130 456q150 208 417 208
q147 0 237 -74l95 103l102 -84l-113 -123q49 -96 49 -217q0 -267 -133 -447q-152 -205 -419 -207q-137 0 -226 66l-90 -98l-96 88l100 110q-53 89 -53 219z" />
    <glyph glyph-name="uni0218" unicode="&#x218;" horiz-adv-x="1026" 
d="M696 384q0 128 -157 222l-105 64q-217 132 -218 318t133 311q134 126 347 124q176 0 324 -106l-80 -135q-130 86 -261 86t-205 -72q-75 -72 -76 -188q-1 -115 130 -191l105 -61q248 -147 248 -335q0 -107 -35 -189q-69 -164 -253 -231q-89 -32 -208 -32q-202 0 -362 148
l86 135q123 -127 299 -127q124 -1 206 65t82 194zM178 -426l98 289h175l-5 -21l-139 -288h-133z" />
    <glyph glyph-name="uni0219" unicode="&#x219;" horiz-adv-x="870" 
d="M135 684q0 149 106 242q107 92 273 92t295 -70l-64 -135q-109 61 -221 61t-164 -48t-51 -118q0 -70 105 -118l98 -47q195 -95 196 -248q2 -153 -102 -239t-284 -87q-117 0 -187 25t-127 69l68 134q112 -86 232 -85t173 44t53 97q1 105 -104 157l-102 49q-80 39 -137 92
q-56 53 -56 133zM115 -426l98 289h174l-4 -21l-139 -288h-133z" />
    <glyph glyph-name="uni021A" unicode="&#x21a;" horiz-adv-x="1038" 
d="M1145 1393l-33 -152h-367l-264 -1241h-176l264 1241h-364l33 152h907zM180 -426l99 289h174l-4 -21l-140 -288h-133z" />
    <glyph glyph-name="uni021B" unicode="&#x21b;" horiz-adv-x="722" 
d="M539 1217l-50 -230h246l-28 -137h-246l-127 -594q-16 -82 12 -113t79 -30q52 1 146 26l-28 -139q-98 -30 -161 -30q-196 -2 -223 156q-9 54 7 128l127 596h-178l20 98l187 39l49 230h168zM127 -426l98 289h174l-4 -21l-139 -288h-133z" />
    <glyph glyph-name="uni0237" unicode="&#x237;" horiz-adv-x="499" 
d="M-133 -297q113 0 149 170l238 1114h166l-240 -1126q-29 -135 -106.5 -216t-220.5 -81q-61 0 -123 24l28 131q61 -16 109 -16z" />
    <glyph glyph-name="circumflex" unicode="&#x2c6;" horiz-adv-x="1085" 
d="M1067 1206l-4 -20h-145l-78 172l-152 -172h-162l4 20l226 248h192z" />
    <glyph glyph-name="caron" unicode="&#x2c7;" horiz-adv-x="1085" 
d="M580 1434l4 20h145l78 -172l154 172h159l-4 -20l-225 -248h-193z" />
    <glyph glyph-name="uni02C9" unicode="&#x2c9;" horiz-adv-x="1089" 
d="M557 1243l33 152h489l-32 -152h-490z" />
    <glyph glyph-name="breve" unicode="&#x2d8;" horiz-adv-x="1087" 
d="M815 1339q120 0 238 66l32 -115q-122 -104 -292 -104q-86 0 -146.5 37t-95.5 82l61 100q83 -66 203 -66z" />
    <glyph glyph-name="dotaccent" unicode="&#x2d9;" horiz-adv-x="1087" 
d="M842 1411q88 0 88 -88q0 -61 -37 -99t-98 -38q-86 0 -86 86q0 59 36.5 99t96.5 40z" />
    <glyph glyph-name="ring" unicode="&#x2da;" horiz-adv-x="1087" 
d="M627 1270q0 111 63.5 169t151.5 58t131 -41.5t43 -131.5t-63.5 -150t-151.5 -60t-131 42t-43 114zM739 1286q0 -66 64 -65q43 0 72.5 28.5t29.5 77.5q0 63 -65 64q-43 0 -72 -28t-29 -77z" />
    <glyph glyph-name="ogonek" unicode="&#x2db;" horiz-adv-x="1087" 
d="M303 -286q0 115 79 189t245 167l57 -62q-98 -63 -160.5 -118.5t-62.5 -119.5t69 -65q45 0 119 43v-127q-88 -57 -169 -57t-129 41t-48 109z" />
    <glyph glyph-name="tilde" unicode="&#x2dc;" horiz-adv-x="1085" 
d="M1104 1303q-103 -117 -175 -117q-55 0 -104 27.5t-75.5 41t-57.5 13.5q-66 0 -129 -72l-37 102q100 117 172 117q46 0 73.5 -13t77 -41t102 -28t116.5 72z" />
    <glyph glyph-name="hungarumlaut" unicode="&#x2dd;" horiz-adv-x="1087" 
d="M1161 1434l-211 -248h-153l4 20l172 248h192zM848 1434l-211 -248h-154l4 20l172 248h193z" />
    <glyph glyph-name="tonos" unicode="&#x384;" horiz-adv-x="1181" 
d="M1085 1434l-161 -289h-136l5 20l120 289h177z" />
    <glyph glyph-name="dieresistonos" unicode="&#x385;" horiz-adv-x="1185" 
d="M1200 1372q107 0 107 -100q0 -51 -41 -91t-107 -40q-94 0 -94 101q0 52 40 91t95 39zM1073 1434l-162 -289h-135l4 20l121 289h176zM592 1141q-94 0 -94 101q0 52 40 91t95 39q106 0 106 -90q0 -61 -41 -101t-106 -40z" />
    <glyph glyph-name="Alphatonos" unicode="&#x386;" horiz-adv-x="1247" 
d="M793 1219l-187 -377l-182 -338h432l-35 338l-24 377h-4zM1087 0h-174l-36 360h-533l-192 -360h-185l768 1393h176zM510 1372l-154 -289h-131l4 21l111 289h174z" />
    <glyph glyph-name="anoteleia" unicode="&#x387;" horiz-adv-x="518" 
d="M242 461q-108 1 -109 113q0 56 46 99q46 44 108 44q98 1 98 -111q0 -56 -44 -100q-43 -44 -99 -45z" />
    <glyph glyph-name="Epsilontonos" unicode="&#x388;" horiz-adv-x="1357" 
d="M1399 1393l-33 -152h-625l-96 -455h567l-32 -151h-568l-102 -483h631l-31 -152h-805l297 1393h797zM444 1372l-153 -289h-131l4 21l110 289h175z" />
    <glyph glyph-name="Etatonos" unicode="&#x389;" horiz-adv-x="1587" 
d="M1231 635h-619l-135 -635h-172l297 1393h172l-129 -607h617l129 607h172l-295 -1393h-172zM444 1372l-153 -289h-131l4 21l110 289h175z" />
    <glyph glyph-name="Iotatonos" unicode="&#x38a;" horiz-adv-x="796" 
d="M477 0h-172l297 1393h172zM444 1372l-153 -289h-131l4 21l110 289h175z" />
    <glyph glyph-name="Omicrontonos" unicode="&#x38c;" horiz-adv-x="1564" 
d="M1475 874q0 -138 -40 -306q-85 -356 -352 -516q-137 -83 -329 -83q-231 0 -343 145t-112 380q0 375 169 631q87 132 224 215t330 83q119 0 205 -40q248 -115 248 -509zM479 488q1 -157 69 -260t206 -103t227 48q225 123 289 466q24 129 24 233q0 197 -68 296
q-68 100 -216 100q-213 0 -341 -150q-58 -68 -112 -185q-78 -170 -78 -445zM446 1372l-153 -289h-131l4 21l110 289h175z" />
    <glyph glyph-name="Upsilontonos" unicode="&#x38e;" horiz-adv-x="1433" 
d="M748 1393l180 -633h4l454 633h193l-4 -21l-584 -782l-125 -590h-172l125 590l-250 782l4 21h175zM457 1372l-154 -289h-131l4 21l111 289h174z" />
    <glyph glyph-name="Omegatonos" unicode="&#x38f;" horiz-adv-x="1562" 
d="M1020 1423q229 0 343 -146t114 -392q0 -245 -132 -456q-104 -167 -274 -277h250l-33 -152h-450l30 143q209 140 308 296q118 191 117 453t-151 346q-54 30 -148 30q-186 0 -312 -139q-98 -107 -144 -261t-49 -301q0 -252 179 -424l-31 -143h-451l33 152h264
q-73 69 -121 187q-47 118 -48 256q-1 137 39 283t125 267t219 200t323 78zM453 1372l-154 -289h-131l4 21l111 289h174z" />
    <glyph glyph-name="iotadieresistonos" unicode="&#x390;" horiz-adv-x="540" 
d="M233 -31q-75 -1 -121 61t-18 201l162 756h166l-162 -764q-24 -113 44 -111q54 1 89 13l-20 -137q-65 -19 -140 -19zM729 1372q107 0 107 -100q0 -51 -41 -91t-107 -40q-94 0 -94 101q0 52 40 91t95 39zM602 1434l-162 -289h-135l4 20l121 289h176zM162 1372
q106 0 106 -100q0 -51 -41 -91t-106 -40q-94 0 -94 101q0 52 40 91t95 39z" />
    <glyph glyph-name="Alpha" unicode="&#x391;" horiz-adv-x="1193" 
d="M739 1219l-186 -377l-182 -338h432l-35 338l-25 377h-4zM1034 0h-174l-37 360h-532l-193 -360h-184l768 1393h176z" />
    <glyph glyph-name="Beta" unicode="&#x392;" horiz-adv-x="1206" 
d="M639 772q166 0 242 73t75 230q0 94 -55 130t-162 36h-229l-100 -469h229zM1055 446q0 -210 -132 -328t-368 -118h-481l297 1393h411q180 0 270 -77t89 -217q0 -140 -75 -251t-175 -150v-4q164 -63 164 -248zM569 152q145 0 226 77q80 78 79 220q0 94 -55 133t-153 39
h-289l-98 -469h290z" />
    <glyph glyph-name="Gamma" unicode="&#x393;" horiz-adv-x="1003" 
d="M74 0l297 1393h737l-33 -152h-565l-264 -1241h-172z" />
    <glyph glyph-name="uni0394" unicode="&#x394;" horiz-adv-x="1196" 
d="M741 1219l-184 -367l-381 -709h678l-82 709l-27 367h-4zM1034 0h-1116l2 10l764 1383h176l176 -1383z" />
    <glyph glyph-name="Epsilon" unicode="&#x395;" 
d="M1167 1393l-32 -152h-625l-96 -455h567l-33 -151h-567l-102 -483h630l-30 -152h-805l297 1393h796z" />
    <glyph glyph-name="Zeta" unicode="&#x396;" horiz-adv-x="1050" 
d="M217 152h637l-33 -152h-850l31 145l870 1092v4h-604l31 152h817l-31 -146l-868 -1091v-4z" />
    <glyph glyph-name="Eta" unicode="&#x397;" horiz-adv-x="1355" 
d="M999 635h-618l-135 -635h-172l297 1393h172l-129 -607h616l129 607h172l-295 -1393h-172z" />
    <glyph glyph-name="Theta" unicode="&#x398;" horiz-adv-x="1404" 
d="M1315 874q0 -138 -40 -305.5t-127 -300.5t-224.5 -216t-329.5 -83q-230 0 -342.5 143t-112.5 382q0 375 128 569t265.5 277t329.5 83q228 0 340.5 -142.5t112.5 -406.5zM319 488q0 -156 68.5 -259.5t206.5 -103.5q139 0 227 48t169 151.5t113 276t32 273.5
q0 193 -68 293.5t-217 100.5q-301 0 -416 -254t-115 -526zM489 625l35 170h449l-37 -170h-447z" />
    <glyph glyph-name="Iota" unicode="&#x399;" horiz-adv-x="565" 
d="M246 0h-172l297 1393h172z" />
    <glyph glyph-name="Kappa" unicode="&#x39a;" horiz-adv-x="1153" 
d="M381 637l-135 -637h-172l297 1393h172l-148 -686h4l652 686h209l-5 -21l-684 -706l420 -646l-4 -20h-199l-403 637h-4z" />
    <glyph glyph-name="Lambda" unicode="&#x39b;" horiz-adv-x="1193" 
d="M100 0h-186l768 1393h176l176 -1393h-172l-92 842l-29 356h-4l-182 -356z" />
    <glyph glyph-name="Mu" unicode="&#x39c;" horiz-adv-x="1624" 
d="M791 528l165 263l469 602h174l-294 -1393h-172l186 874l70 240h-5l-557 -764h-129l-231 764h-4l-31 -240l-186 -874h-172l297 1393h153l209 -602l55 -263h3z" />
    <glyph glyph-name="Nu" unicode="&#x39d;" horiz-adv-x="1372" 
d="M952 258l37 260l187 875h172l-295 -1393h-176l-402 1135h-4l-39 -261l-186 -874h-172l297 1393h176l401 -1135h4z" />
    <glyph glyph-name="Xi" unicode="&#x39e;" horiz-adv-x="1087" 
d="M266 1231l35 162h827l-34 -162h-828zM203 629l33 162h706l-35 -162h-704zM872 162l-34 -162h-834l35 162h833z" />
    <glyph glyph-name="Omicron" unicode="&#x39f;" horiz-adv-x="1404" 
d="M1315 874q0 -138 -40 -306q-40 -167 -127 -300t-224 -216t-330 -83q-231 0 -343 145t-112 380q0 375 169 631q87 132 224 215t330 83q119 0 205 -40q248 -115 248 -509zM319 488q1 -157 69 -260t206 -103t227 48q225 123 289 466q20 109 23 223q8 406 -283 406
q-299 0 -437 -301q-94 -207 -94 -479z" />
    <glyph glyph-name="Pi" unicode="&#x3a0;" horiz-adv-x="1347" 
d="M1120 1241h-610l-264 -1241h-172l297 1393h952l-295 -1393h-172z" />
    <glyph glyph-name="Rho" unicode="&#x3a1;" horiz-adv-x="1148" 
d="M637 696q152 0 237 96t87 242q1 92 -49 150t-158 57h-242l-117 -545h242zM780 1393q174 1 270 -95t95 -251q0 -238 -134 -370t-370 -132h-279l-114 -545h-174l297 1393h409z" />
    <glyph glyph-name="Sigma" unicode="&#x3a3;" horiz-adv-x="1062" 
d="M-2 131l465 578l-199 551l29 133h840l-33 -152h-654l205 -549l-438 -540h655l-30 -152h-869z" />
    <glyph glyph-name="Tau" unicode="&#x3a4;" horiz-adv-x="1038" 
d="M1145 1393l-33 -152h-367l-264 -1241h-176l264 1241h-364l33 152h907z" />
    <glyph glyph-name="Upsilon" unicode="&#x3a5;" horiz-adv-x="1060" 
d="M375 1393l180 -633h4l455 633h192l-4 -21l-584 -782l-124 -590h-172l124 590l-249 782l4 21h174z" />
    <glyph glyph-name="Phi" unicode="&#x3a6;" horiz-adv-x="1490" 
d="M1245 820q0 108 -69.5 196t-235.5 104l-180 -844q252 18 368.5 171t116.5 373zM297 596q0 -294 293 -320l180 844q-272 -25 -372.5 -178.5t-100.5 -345.5zM1427 788q0 -108 -39.5 -226t-175.5 -265t-483 -166l-27 -131h-172l29 131q-228 15 -335 139.5t-107 309.5
q0 443 244.5 558t439.5 126l26 129h170l-26 -129q230 -15 343 -141.5t113 -334.5z" />
    <glyph glyph-name="Chi" unicode="&#x3a7;" horiz-adv-x="1118" 
d="M418 1393l180 -572h4l426 572h195l-4 -21l-527 -676l240 -676l-4 -20h-174l-185 569h-4l-424 -569h-194l4 20l524 676l-237 676l6 21h174z" />
    <glyph glyph-name="Psi" unicode="&#x3a8;" horiz-adv-x="1380" 
d="M756 481q298 8 374 377l113 535h174l-123 -576q-53 -244 -190 -366.5t-383 -124.5l-68 -326h-172l68 326q-240 14 -324 144t-26 398l110 525h172l-112 -535q-37 -174 11 -273.5t204 -103.5l192 912h172z" />
    <glyph glyph-name="uni03A9" unicode="&#x3a9;" horiz-adv-x="1411" 
d="M340 567q0 -253 178 -424l-31 -143h-450l33 152h264q-75 70 -122 188q-48 118 -48 256q0 136 40 282t125 267t219 200t322 78q227 0 349 -152q108 -139 108 -385q0 -245 -132 -457q-105 -168 -273 -277h249l-32 -152h-451l31 143q210 141 307 296q117 189 117 452
t-151 347q-54 30 -148 30q-184 0 -312 -139q-101 -109 -146 -267q-46 -158 -46 -295z" />
    <glyph glyph-name="Iotadieresis" unicode="&#x3aa;" horiz-adv-x="565" 
d="M246 0h-172l297 1393h172zM608 1645q0 59 37 99t88 40q98 0 96 -88q0 -61 -36 -100q-37 -38 -99 -37q-86 0 -86 86zM323 1784q97 0 97 -98q0 -50 -38 -90q-38 -38 -99 -37q-84 0 -84 86q0 59 37 99t87 40z" />
    <glyph glyph-name="Upsilondieresis" unicode="&#x3ab;" horiz-adv-x="1060" 
d="M375 1393l180 -633h4l455 633h192l-4 -21l-584 -782l-124 -590h-172l124 590l-249 782l4 21h174zM844 1645q0 59 37 99t88 40q96 0 96 -88q0 -62 -37 -100t-98 -37q-86 0 -86 86zM558 1784q98 0 98 -98q0 -50 -39 -90q-38 -38 -99 -37q-84 0 -84 86q0 59 37 99t87 40z
" />
    <glyph glyph-name="alphatonos" unicode="&#x3ac;" horiz-adv-x="1161" 
d="M351 745q-97 -146 -97 -390t156 -242q142 0 278 240q39 69 70 141q0 168 -32 241q-32 74 -68 107q-36 32 -92 32q-127 -2 -215 -129zM580 1018q223 0 280 -275h2l107 244h174l-232 -491l23 -496h-162l-4 244h-2q-35 -57 -74 -108q-130 -167 -303 -167q-144 0 -224 108
q-81 108 -81 250q0 289 121 477q136 212 375 214zM961 1434l-162 -289h-135l4 20l120 289h177z" />
    <glyph glyph-name="epsilontonos" unicode="&#x3ad;" horiz-adv-x="929" 
d="M879 1434l-162 -289h-135l4 20l121 289h176zM593 874q-101 0 -145 -20t-75 -59t-31 -101q0 -63 40 -91t91 -28h229l-28 -137h-242q-88 0 -148 -47t-61 -135q0 -143 193 -143q165 0 309 61l31 -129q-144 -74 -341 -75t-285 73q-87 74 -87 181q0 108 55 184t162 112v4
q-35 23 -62 67q-28 45 -28 109q0 136 100 224q111 94 291 94q179 0 320 -68l-47 -129q-141 53 -241 53z" />
    <glyph glyph-name="etatonos" unicode="&#x3ae;" horiz-adv-x="1105" 
d="M645 874q-88 0 -212 -62q-32 -15 -52 -30l-168 -782h-168l209 987h121l2 -90h4q174 121 322 121t222 -95q74 -99 33 -300l-219 -1029h-168l217 1020q55 260 -143 260zM909 1434l-161 -289h-136l4 20l121 289h176z" />
    <glyph glyph-name="iotatonos" unicode="&#x3af;" horiz-adv-x="540" 
d="M233 -31q-75 -1 -121 61t-18 201l162 756h166l-162 -764q-24 -113 44 -111q54 1 89 13l-20 -137q-65 -19 -140 -19zM614 1434l-161 -289h-136l5 20l120 289h176z" />
    <glyph glyph-name="upsilondieresistonos" unicode="&#x3b0;" horiz-adv-x="1071" 
d="M883 1434l-162 -289h-135l4 20l121 289h176zM948 745q0 -381 -129 -579t-383 -197q-188 0 -275 115t-38 350l119 553h168l-119 -561q-69 -315 155 -313q158 0 244 159t86 435q0 98 -14 280h178q8 -80 8 -242z" />
    <glyph glyph-name="alpha" unicode="&#x3b1;" horiz-adv-x="1161" 
d="M566 874q-56 0 -113.5 -31.5t-128 -136.5t-70.5 -362q0 -98 36 -164.5t120 -66.5q141 0 229 154.5t119 226.5q0 256 -68 318t-124 62zM84 327q0 291 129.5 491t359.5 200t287 -275h2l107 244h174l-232 -491l23 -496h-162l-4 244h-2q-81 -131 -168 -203t-184 -72
q-168 0 -249 108t-81 250z" />
    <glyph glyph-name="beta" unicode="&#x3b2;" horiz-adv-x="1105" 
d="M258 199q77 -86 217 -86t229 103.5t89 250.5q0 100 -55.5 159.5t-178.5 59.5h-74l29 133h84q106 0 169.5 86.5t63.5 186.5q0 208 -145 208q-100 0 -162.5 -75.5t-97.5 -235.5zM770 754q195 -63 195 -319q0 -87 -41 -178t-108.5 -154.5t-154 -98.5t-178.5 -35t-157.5 27
t-96.5 55h-4l-96 -457h-172l299 1410q91 440 436 440q150 0 233 -87t83 -220q0 -215 -100.5 -287t-137.5 -92v-4z" />
    <glyph glyph-name="gamma" unicode="&#x3b3;" horiz-adv-x="958" 
d="M170 -406l90 416l-119 957l4 20h162l60 -588l8 -221h4q16 20 32.5 49t34 58.5t34 58.5t30.5 51q182 281 295 592h172l-4 -20q-158 -418 -547 -961l-88 -412h-168z" />
    <glyph glyph-name="delta" unicode="&#x3b4;" horiz-adv-x="1099" 
d="M742.5 680.5q-52.5 79.5 -152.5 179.5q-233 -134 -288.5 -274t-55.5 -208q0 -128 50 -196.5t145 -68.5t161 37.5t129.5 124t63.5 206.5t-52.5 199.5zM600 1171q0 -51 27.5 -92t68.5 -86t157 -171t116 -312q0 -88 -32 -183.5t-140 -226.5t-361 -131q-175 0 -269.5 109
t-94.5 268q0 405 434 608q-82 91 -82 189q0 152 102.5 226.5t264.5 74.5q109 0 174 -23l-11 -145q-84 24 -155 24q-110 0 -154.5 -39t-44.5 -90z" />
    <glyph glyph-name="epsilon" unicode="&#x3b5;" horiz-adv-x="929" 
d="M593 874q-100 0 -145 -20t-75.5 -59t-30.5 -101q0 -63 40 -91t91 -28h229l-28 -137h-242q-88 0 -148.5 -47t-60.5 -135q0 -143 193 -143q165 0 309 61l31 -129q-148 -76 -343 -76t-282.5 74t-87.5 181t55.5 183t161.5 113v4q-35 23 -62.5 67.5t-27.5 108.5
q0 141 106.5 229.5t285.5 88.5t319 -68l-47 -129q-141 53 -241 53z" />
    <glyph glyph-name="zeta" unicode="&#x3b6;" horiz-adv-x="864" 
d="M236 377q0 -63 28.5 -103.5t70.5 -69t92 -53t120.5 -72.5t70.5 -153q0 -139 -82.5 -199.5t-123.5 -86.5l-97 106q74 37 99.5 81t25.5 73t-28.5 53t-70.5 47t-92 49.5t-121 94t-71 206.5q0 98 46.5 191.5t135.5 202t220 240.5t301 308v4h-471l28 138h682l-26 -125
q-448 -461 -558 -594t-144.5 -204t-34.5 -134z" />
    <glyph glyph-name="eta" unicode="&#x3b7;" horiz-adv-x="1105" 
d="M645 874q-63 0 -147.5 -34t-116.5 -58l-168 -782h-168l209 987h121l2 -90h4q174 121 324 121t222 -97.5t31 -297.5l-219 -1029h-168l217 1020q55 260 -143 260z" />
    <glyph glyph-name="theta" unicode="&#x3b8;" horiz-adv-x="1148" 
d="M475 113q200 0 275 198.5t104 313.5h-545q-58 -309 2 -410.5t164 -101.5zM913 1044q0 115 -42 185.5t-130 70.5t-147 -38.5t-124.5 -136.5t-133.5 -363h547q30 167 30 282zM737 1444q182 0 264 -110.5t82 -275.5q0 -166 -39 -346q-79 -366 -217 -554.5t-362 -188.5
q-182 0 -265 109.5t-83 275.5t38 346q77 366 217 555t365 189z" />
    <glyph glyph-name="iota" unicode="&#x3b9;" horiz-adv-x="540" 
d="M233 -31q-75 0 -121 61.5t-18 200.5l162 756h166l-162 -764q-24 -110 44 -110q52 0 89 12l-20 -137q-65 -19 -140 -19z" />
    <glyph glyph-name="kappa" unicode="&#x3ba;" horiz-adv-x="958" 
d="M305 444l-94 -444h-166l209 987h166l-101 -479h5l452 479h201l-2 -14l-492 -508l308 -451l-3 -14h-184l-295 444h-4z" />
    <glyph glyph-name="lambda" unicode="&#x3bb;" horiz-adv-x="962" 
d="M420 1444q102 0 148 -63.5t61 -168.5l155 -1192l-4 -20h-157l-58 524l-18 275h-6l-138 -271l-294 -528h-177l5 20l559 957l-21 186q-15 137 -89 137q-44 0 -101 -14l8 137q65 21 127 21z" />
    <glyph glyph-name="uni03BC" unicode="&#x3bc;" horiz-adv-x="1101" 
d="M692 0v90h-4q-97 -78 -231 -109q-47 -11 -97 -12q-91 0 -159 58l-15 -148l-61 -285h-168l297 1393h168l-131 -614q-29 -129 2 -195t129 -66t213 64q31 16 51 31l168 780h168l-209 -987h-121z" />
    <glyph glyph-name="nu" unicode="&#x3bd;" horiz-adv-x="958" 
d="M973 967q-153 -415 -551 -967h-162l-119 967l4 20h162l55 -588l9 -221h4q35 45 70 109.5t97 158.5q151 231 263 541h172z" />
    <glyph glyph-name="xi" unicode="&#x3be;" horiz-adv-x="892" 
d="M236 987q0 211 215 305v4h-181l29 138h719l-29 -138h-260q-147 0 -232 -97t-85 -225q0 -129 74.5 -162.5t129.5 -33.5h162l-28 -137h-148q-192 0 -276 -88.5t-84 -198.5q0 -111 84 -153.5t142 -63t142 -63t84 -142.5q0 -130 -87 -199t-130 -93l-92 112q129 74 129 148
q0 35 -34 57.5t-83 42.5t-191.5 77.5t-142.5 248.5q0 139 83.5 250t215.5 157v4q-53 35 -89.5 99.5t-36.5 150.5z" />
    <glyph glyph-name="omicron" unicode="&#x3bf;" horiz-adv-x="1122" 
d="M1001 602q-1 -100 -33 -217t-100 -209q-152 -205 -419 -207q-180 0 -272 109q-93 109 -93 287q0 262 130 445q150 208 417 208q98 0 168 -32q202 -92 202 -384zM258 384q0 -271 199 -271q186 0 285 170q85 143 85 329t-111 242q-40 20 -95 20q-185 0 -283 -174
q-44 -76 -62 -164t-18 -152z" />
    <glyph glyph-name="pi" unicode="&#x3c0;" horiz-adv-x="1155" 
d="M815 223q-23 -110 46 -110q49 0 85 12l-28 -139q-59 -16 -113 -17q-92 0 -139.5 62.5t-16.5 210.5l131 608h-313l-180 -850h-168l180 850h-176l29 137h999l-29 -137h-174z" />
    <glyph glyph-name="rho" unicode="&#x3c1;" horiz-adv-x="1103" 
d="M889.5 910q93.5 -108 93.5 -283q0 -262 -134 -460t-370 -198q-90 0 -157.5 29t-102.5 63h-4l-98 -467h-172l198 930q54 253 181 373.5t300 120.5q172 0 265.5 -108zM716.5 269.5q90.5 156.5 90.5 339.5t-69.5 224t-121.5 41q-102 0 -183 -83.5t-118 -255.5l-67 -326
q76 -96 186 -96q192 0 282.5 156.5z" />
    <glyph glyph-name="sigma1" unicode="&#x3c2;" horiz-adv-x="878" 
d="M266 440q0 -109 71 -168t120 -88.5t119.5 -85t70.5 -155.5q0 -140 -84 -208.5t-125 -94.5l-92 110q70 40 94.5 86.5t24.5 79.5t-27.5 62.5t-69.5 58.5t-160 105.5t-118 261.5q0 260 146 437t391 177q133 0 260 -72l-47 -125q-109 53 -207 53q-170 0 -268.5 -130
t-98.5 -304z" />
    <glyph glyph-name="sigma" unicode="&#x3c3;" horiz-adv-x="1124" 
d="M256 380q0 -266 197 -267q181 0 271.5 148.5t90.5 325.5t-74.5 217t-151.5 40t-143.5 -45t-108.5 -115t-61.5 -154t-19.5 -150zM983 547q0 -90 -29.5 -194.5t-137 -244t-372.5 -139.5q-173 0 -267.5 109t-94.5 276q0 256 134 444.5t402 188.5h488l-29 -137h-196v-4
q47 -47 74.5 -128t27.5 -171z" />
    <glyph glyph-name="tau" unicode="&#x3c4;" horiz-adv-x="874" 
d="M418 229q-27 -116 65 -116q58 0 150 24l-15 -139q-112 -29 -182 -29q-111 0 -162 65.5t-22 203.5l129 612h-266l28 137h744l-29 -137h-309z" />
    <glyph glyph-name="upsilon" unicode="&#x3c5;" horiz-adv-x="1071" 
d="M948 745q0 -381 -129 -578.5t-383 -197.5q-188 0 -275 115t-38 350l119 553h168l-119 -561q-68 -313 155 -313q158 0 244 158.5t86 435.5q0 98 -14 280h178q8 -80 8 -242z" />
    <glyph glyph-name="phi" unicode="&#x3c6;" horiz-adv-x="1308" 
d="M994 816q-26 58 -94 58q-67 0 -100.5 -67.5t-62.5 -196.5l-106 -501q177 25 254.5 125t106 198t28.5 212t-26 172zM500 987q-242 -350 -242 -599t205 -282l112 531q37 176 121 278.5t225 102.5t207 -99t66 -234q0 -291 -137 -487.5t-455 -220.5l-82 -383h-168l82 383
q-178 15 -263 125t-85 279q0 215 96.5 380t134.5 226h183z" />
    <glyph glyph-name="chi" unicode="&#x3c7;" horiz-adv-x="948" 
d="M287 987l100 -385l35 -207h4l125 211l262 381h176l-4 -20l-475 -676l188 -676l-4 -21h-157l-103 377l-35 213h-6l-127 -213l-260 -377h-176l4 21l475 676l-188 676l6 20h160z" />
    <glyph glyph-name="psi" unicode="&#x3c8;" horiz-adv-x="1337" 
d="M1217 669q0 -152 -85 -423t-505 -271l-82 -381h-168l82 381q-314 6 -336.5 175t2.5 288l117 549h164l-117 -553q-71 -325 198 -325l281 1325h168l-281 -1325q168 0 280 144t112 419q0 145 -27 315h184q13 -166 13 -318z" />
    <glyph glyph-name="omega" unicode="&#x3c9;" horiz-adv-x="1572" 
d="M1444 667q0 -335 -129 -516.5t-365 -181.5q-187 0 -245 195h-5q-133 -195 -329 -195q-137 0 -215 92.5t-78 272.5q0 338 274 653h180l-4 -20q-131 -151 -205.5 -300t-74.5 -321q0 -233 145 -233q205 0 273 313l65 309h168l-65 -309q-35 -160 2.5 -236.5t125.5 -76.5
q154 0 232 150.5t78 346.5t-72 357l4 20h180q60 -141 60 -320z" />
    <glyph glyph-name="iotadieresis" unicode="&#x3ca;" horiz-adv-x="540" 
d="M233 -31q-75 -1 -121 61t-18 201l162 756h166l-162 -764q-24 -113 44 -111q54 1 89 13l-20 -137q-65 -19 -140 -19zM115 1270q0 59 37 99t88 40q96 0 96 -88q0 -61 -38 -99t-97 -38q-86 0 -86 86zM607 1409q98 -1 98 -99q0 -50 -38 -88t-98 -38q-86 0 -86 86q0 59 37 99
t87 40z" />
    <glyph glyph-name="upsilondieresis" unicode="&#x3cb;" horiz-adv-x="1071" 
d="M948 745q0 -381 -129 -579t-383 -197q-188 0 -275 115t-38 350l119 553h168l-119 -561q-69 -315 155 -313q158 0 244 159t86 435q0 98 -14 280h178q8 -80 8 -242zM381 1270q0 59 37 99t88 40q98 0 96 -88q0 -61 -38 -99t-97 -38q-86 0 -86 86zM750 1270q0 59 36 99
q38 40 88 40q98 0 97 -88q0 -61 -38 -99t-97 -38q-86 0 -86 86z" />
    <glyph glyph-name="omicrontonos" unicode="&#x3cc;" horiz-adv-x="1122" 
d="M1001 602q-1 -100 -33 -217t-100 -209q-152 -205 -419 -207q-180 0 -272 109q-93 109 -93 287q0 262 130 445q150 208 417 208q98 0 168 -32q202 -92 202 -384zM258 384q0 -271 199 -271q186 0 285 170q85 143 85 329t-111 242q-40 20 -95 20q-185 0 -283 -174
q-44 -76 -62 -164t-18 -152zM922 1434l-162 -289h-135l4 20l121 289h176z" />
    <glyph glyph-name="upsilontonos" unicode="&#x3cd;" horiz-adv-x="1071" 
d="M877 1434l-162 -289h-135l4 20l121 289h176zM948 745q0 -381 -129 -579t-383 -197q-188 0 -275 115t-38 350l119 553h168l-119 -561q-69 -315 155 -313q158 0 244 159t86 435q0 98 -14 280h178q8 -80 8 -242z" />
    <glyph glyph-name="omegatonos" unicode="&#x3ce;" horiz-adv-x="1572" 
d="M1384 987q60 -141 60 -404q0 -95 -32 -218q-65 -251 -249 -348q-92 -48 -213 -48q-185 0 -245 195h-5q-133 -195 -329 -195q-137 0 -215 92t-78 273q0 338 274 653h180l-4 -20q-129 -148 -183 -256q-54 -107 -76 -190t-21 -175q0 -233 145 -233q205 0 273 313l65 309h168
l-65 -309q-35 -160 3 -237t126 -77q153 1 237 162q70 136 71 334t-71 359l4 20h180zM1141 1434l-162 -289h-135l4 20l121 289h176z" />
    <glyph glyph-name="uni0400" unicode="&#x400;" 
d="M1167 1393l-32 -152h-625l-96 -455h567l-33 -151h-567l-102 -483h630l-30 -152h-805l297 1393h796zM653 1808h176l68 -247l-4 -21h-137l-107 248z" />
    <glyph glyph-name="uni0401" unicode="&#x401;" 
d="M1167 1393l-32 -152h-625l-96 -455h567l-33 -151h-567l-102 -483h630l-30 -152h-805l297 1393h796zM934 1645q0 59 37 99t88 40q98 0 96 -88q0 -62 -37 -100t-98 -37q-86 0 -86 86zM648 1784q98 0 98 -98q0 -50 -38 -90q-38 -38 -100 -37q-84 0 -84 86q0 59 37 99t87 40z
" />
    <glyph glyph-name="uni0402" unicode="&#x402;" horiz-adv-x="1310" 
d="M1004 461q0 100 -51.5 158.5t-152.5 58.5t-286 -55l-133 -623h-170l264 1241h-270l33 152h827l-33 -152h-387l-100 -467q167 55 315 55t238 -94t90 -254q0 -258 -164 -441t-244 -261l-104 112q328 328 328 570z" />
    <glyph glyph-name="uni0403" unicode="&#x403;" horiz-adv-x="1058" 
d="M1161 1393l-31 -152h-620l-264 -1241h-172l297 1393h790zM1096 1788l-213 -248h-154l4 21l174 247h193z" />
    <glyph glyph-name="uni0404" unicode="&#x404;" horiz-adv-x="1148" 
d="M137 508q0 385 145.5 576.5t282.5 265t310 73.5t321 -90l-68 -133q-136 68 -254 68q-215 0 -345 -134t-185 -358h561l-33 -153h-553q-4 -58 -4 -109q0 -176 75 -282.5t226 -106.5t310 72l43 -138q-197 -90 -334 -90q-138 0 -225.5 38t-180 146t-92.5 355z" />
    <glyph glyph-name="uni0405" unicode="&#x405;" horiz-adv-x="1026" 
d="M696 384q0 128 -157 222l-105 64q-217 132 -218 318t133 311q134 126 347 124q176 0 324 -106l-80 -135q-130 86 -261 86t-205 -72q-75 -72 -76 -188q-1 -115 130 -191l105 -61q248 -147 248 -335q0 -107 -35 -189q-69 -164 -253 -231q-89 -32 -208 -32q-202 0 -362 148
l86 135q123 -127 299 -127q124 -1 206 65t82 194z" />
    <glyph glyph-name="uni0406" unicode="&#x406;" horiz-adv-x="565" 
d="M246 0h-172l297 1393h172z" />
    <glyph glyph-name="uni0407" unicode="&#x407;" horiz-adv-x="565" 
d="M246 0h-172l297 1393h172zM610 1645q0 59 37 99t88 40q98 0 96 -88q0 -61 -36 -100q-37 -38 -99 -37q-86 0 -86 86zM325 1784q97 0 97 -98q0 -50 -38 -90q-38 -38 -99 -37q-84 0 -84 86q0 59 37 99t87 40z" />
    <glyph glyph-name="uni0408" unicode="&#x408;" horiz-adv-x="897" 
d="M236 125q62 0 100 14q79 29 128 143q26 58 44 146l205 965h172l-209 -979q-93 -443 -443 -445q-93 0 -167 46t-113 104l96 106q35 -37 80 -69t107 -31z" />
    <glyph glyph-name="uni0409" unicode="&#x409;" horiz-adv-x="1812" 
d="M1509 483q0 193 -202 193h-269l-110 -524h266q143 0 229 83.5t86 247.5zM1335 827q174 0 265.5 -85t91.5 -218q0 -253 -131.5 -388.5t-358.5 -135.5h-479l264 1241h-405l-123 -489q-91 -360 -148 -482.5t-97 -172.5t-98 -83.5t-206 -33.5l33 151q51 0 92 15.5t98.5 105.5
t161.5 500l160 641h737l-121 -566h264z" />
    <glyph glyph-name="uni040A" unicode="&#x40a;" horiz-adv-x="1873" 
d="M1257 152q143 0 229.5 82.5t86.5 244.5q0 100 -54.5 148.5t-148.5 48.5h-270l-111 -524h268zM1399 827q172 0 263 -86t91 -220q0 -250 -129.5 -385.5t-359.5 -135.5h-478l144 676h-541l-143 -676h-172l297 1393h172l-121 -566h541l118 566h172l-120 -566h266z" />
    <glyph glyph-name="uni040B" unicode="&#x40b;" horiz-adv-x="1339" 
d="M1036 535q59 262 -170 262q-113 0 -208 -27t-117 -33l-158 -737h-172l264 1241h-270l33 152h827l-33 -152h-385l-74 -348q186 55 299 55q206 0 293.5 -97.5t46.5 -295.5l-118 -555h-170z" />
    <glyph glyph-name="uni040C" unicode="&#x40c;" horiz-adv-x="1153" 
d="M381 637l-135 -637h-172l297 1393h172l-148 -686h4l652 686h209l-5 -21l-684 -706l420 -646l-4 -20h-199l-403 637h-4zM1075 1788l-213 -248h-153l4 21l174 247h192z" />
    <glyph glyph-name="uni040D" unicode="&#x40d;" horiz-adv-x="1345" 
d="M289 274l848 1119h186l-297 -1393h-172l186 874l72 244h-4l-848 -1118h-186l297 1393h172l-187 -875l-71 -244h4zM719 1808h176l68 -247l-5 -21h-137l-106 248z" />
    <glyph glyph-name="uni040E" unicode="&#x40e;" horiz-adv-x="1042" 
d="M117 0h-90l32 154h54q83 0 126 31q74 52 134 151l45 72l-205 964l4 21h172l96 -514l41 -310h6l162 310l293 514h184l-4 -21l-626 -1063q-139 -242 -297 -292q-57 -17 -127 -17zM780 1716q117 0 240 66l33 -115q-125 -106 -293 -104q-86 1 -146 37t-96 81l62 101
q83 -66 200 -66z" />
    <glyph glyph-name="uni040F" unicode="&#x40f;" horiz-adv-x="1329" 
d="M412 -289l45 289h-383l297 1393h172l-264 -1241h591l265 1241h172l-297 -1393h-387l-76 -289h-135z" />
    <glyph glyph-name="uni0410" unicode="&#x410;" horiz-adv-x="1193" 
d="M739 1219l-186 -377l-182 -338h432l-35 338l-25 377h-4zM1034 0h-174l-37 360h-532l-193 -360h-184l768 1393h176z" />
    <glyph glyph-name="uni0411" unicode="&#x411;" horiz-adv-x="1179" 
d="M860 481q0 193 -203 193h-268l-110 -522h266q143 0 229 82.5t86 246.5zM686 825q174 0 265 -85t91 -218q0 -251 -129.5 -386.5t-361.5 -135.5h-477l297 1393h790l-33 -152h-618l-88 -416h264z" />
    <glyph glyph-name="uni0412" unicode="&#x412;" horiz-adv-x="1206" 
d="M639 772q166 0 242 73t75 230q0 94 -55 130t-162 36h-229l-100 -469h229zM1055 446q0 -210 -132 -328t-368 -118h-481l297 1393h411q180 0 270 -77t89 -217q0 -140 -75 -251t-175 -150v-4q164 -63 164 -248zM569 152q145 0 226 77q80 78 79 220q0 94 -55 133t-153 39
h-289l-98 -469h290z" />
    <glyph glyph-name="uni0413" unicode="&#x413;" horiz-adv-x="1058" 
d="M1161 1393l-31 -152h-620l-264 -1241h-172l297 1393h790z" />
    <glyph glyph-name="uni0414" unicode="&#x414;" horiz-adv-x="1294" 
d="M807 152l231 1089h-409l-125 -453q-107 -383 -175.5 -488t-109.5 -148h588zM-131 -289l70 441h90q103 112 173.5 250t139.5 399l158 592h743l-264 -1241h111l-117 -441h-133l47 289h-807l-78 -289h-133z" />
    <glyph glyph-name="uni0415" unicode="&#x415;" 
d="M1167 1393l-32 -152h-625l-96 -455h567l-33 -151h-567l-102 -483h630l-30 -152h-805l297 1393h796z" />
    <glyph glyph-name="uni0416" unicode="&#x416;" horiz-adv-x="1728" 
d="M788 635l-641 -635h-225l4 20l690 678l-378 674l4 21h190l373 -684h2l145 684h172l-145 -684h4l635 684h215l-4 -21l-672 -706l410 -646l-4 -20h-201l-395 635h-4l-136 -635h-172l136 635h-3z" />
    <glyph glyph-name="uni0417" unicode="&#x417;" horiz-adv-x="1036" 
d="M369 125q138 0 234 90t95 229q0 78 -48 134t-173 55h-209l35 155h217q136 0 208 85q73 85 74 210t-106 169q-37 15 -90 16q-137 0 -309 -72l-45 135q183 94 367 93t278 -91t93 -227q-1 -138 -78 -245t-177 -161v-4q142 -74 142 -252q0 -211 -150 -343t-373 -132t-360 105
l67 135q127 -84 308 -84z" />
    <glyph glyph-name="uni0418" unicode="&#x418;" horiz-adv-x="1345" 
d="M289 274l848 1119h186l-297 -1393h-172l186 874l72 244h-4l-848 -1118h-186l297 1393h172l-187 -875l-71 -244h4z" />
    <glyph glyph-name="uni0419" unicode="&#x419;" horiz-adv-x="1345" 
d="M289 274l848 1119h186l-297 -1393h-172l186 874l72 244h-4l-848 -1118h-186l297 1393h172l-187 -875l-71 -244h4zM932 1716q116 0 242 66l32 -115q-125 -106 -293 -104q-86 1 -146 37t-95 81l61 101q83 -66 199 -66z" />
    <glyph glyph-name="uni041A" unicode="&#x41a;" horiz-adv-x="1153" 
d="M381 637l-135 -637h-172l297 1393h172l-148 -686h4l652 686h209l-5 -21l-684 -706l420 -646l-4 -20h-199l-403 637h-4z" />
    <glyph glyph-name="uni041B" unicode="&#x41b;" horiz-adv-x="1286" 
d="M1059 1241h-477l-123 -489q-66 -256 -122 -409t-117.5 -233.5t-136.5 -105t-173 -24.5l33 151q51 0 92 15.5t98.5 105.5t161.5 500l160 641h809l-297 -1393h-172z" />
    <glyph glyph-name="uni041C" unicode="&#x41c;" horiz-adv-x="1624" 
d="M791 528l165 263l469 602h174l-294 -1393h-172l186 874l70 240h-5l-557 -764h-129l-231 764h-4l-31 -240l-186 -874h-172l297 1393h153l209 -602l55 -263h3z" />
    <glyph glyph-name="uni041D" unicode="&#x41d;" horiz-adv-x="1355" 
d="M999 635h-618l-135 -635h-172l297 1393h172l-129 -607h616l129 607h172l-295 -1393h-172z" />
    <glyph glyph-name="uni041E" unicode="&#x41e;" horiz-adv-x="1404" 
d="M1315 874q0 -138 -40 -306q-40 -167 -127 -300t-224 -216t-330 -83q-231 0 -343 145t-112 380q0 375 169 631q87 132 224 215t330 83q119 0 205 -40q248 -115 248 -509zM319 488q1 -157 69 -260t206 -103t227 48q225 123 289 466q20 109 23 223q8 406 -283 406
q-299 0 -437 -301q-94 -207 -94 -479z" />
    <glyph glyph-name="uni041F" unicode="&#x41f;" horiz-adv-x="1347" 
d="M1120 1241h-610l-264 -1241h-172l297 1393h952l-295 -1393h-172z" />
    <glyph glyph-name="uni0420" unicode="&#x420;" horiz-adv-x="1148" 
d="M637 696q152 0 237 96t87 242q1 92 -49 150t-158 57h-242l-117 -545h242zM780 1393q174 1 270 -95t95 -251q0 -238 -134 -370t-370 -132h-279l-114 -545h-174l297 1393h409z" />
    <glyph glyph-name="uni0421" unicode="&#x421;" horiz-adv-x="1150" 
d="M137 540q0 154 50 320q49 166 145 291t233 199t310 74t321 -91l-68 -133q-132 66 -269 67q-136 1 -239 -65t-171 -171q-134 -207 -134 -517q0 -176 75 -282t228 -107q153 0 308 72l43 -138q-197 -90 -334 -90t-225 38q-272 119 -273 533z" />
    <glyph glyph-name="uni0422" unicode="&#x422;" horiz-adv-x="1038" 
d="M1145 1393l-33 -152h-367l-264 -1241h-176l264 1241h-364l33 152h907z" />
    <glyph glyph-name="uni0423" unicode="&#x423;" horiz-adv-x="1042" 
d="M117 0h-90l32 154h54q82 0 140 40.5t120 141.5l45 72l-205 964l4 21h172l96 -514l41 -310h6l162 310l293 514h184l-4 -21l-626 -1063q-140 -243 -247.5 -276t-176.5 -33z" />
    <glyph glyph-name="uni0424" unicode="&#x424;" horiz-adv-x="1490" 
d="M1245 820q0 108 -69 196q-70 88 -236 104l-180 -844q137 10 230 61q255 138 255 483zM297 596q0 -211 156 -287q55 -27 137 -33l180 844q-154 -14 -247 -71q-226 -138 -226 -453zM971 1264q230 -15 344 -143q114 -127 112 -314q0 -277 -164 -455q-185 -200 -534 -221
l-27 -131h-172l29 131q-229 15 -336 141q-108 125 -106 308q0 443 358 612q131 61 326 72l26 129h170z" />
    <glyph glyph-name="uni0425" unicode="&#x425;" horiz-adv-x="1118" 
d="M418 1393l180 -572h4l426 572h195l-4 -21l-527 -676l240 -676l-4 -20h-174l-185 569h-4l-424 -569h-194l4 20l524 676l-237 676l6 21h174z" />
    <glyph glyph-name="uni0426" unicode="&#x426;" horiz-adv-x="1357" 
d="M903 -289l47 289h-876l297 1393h172l-264 -1241h591l265 1241h172l-265 -1241h111l-117 -441h-133z" />
    <glyph glyph-name="uni0427" unicode="&#x427;" horiz-adv-x="1220" 
d="M523 383q-205 0 -293.5 103t-45.5 298l131 609h170l-127 -596q-29 -129 14.5 -195.5t159.5 -66.5t209 26.5t115 32.5l170 799h172l-297 -1393h-172l92 438q-185 -55 -298 -55z" />
    <glyph glyph-name="uni0428" unicode="&#x428;" horiz-adv-x="1912" 
d="M74 0l297 1393h172l-264 -1241h501l264 1241h173l-265 -1241h502l262 1241h172l-295 -1393h-1519z" />
    <glyph glyph-name="uni0429" unicode="&#x429;" horiz-adv-x="1943" 
d="M1487 -289l47 289h-1460l297 1393h172l-264 -1241h501l264 1241h173l-265 -1241h502l262 1241h172l-262 -1241h113l-119 -441h-133z" />
    <glyph glyph-name="uni042A" unicode="&#x42a;" horiz-adv-x="1284" 
d="M979 483q0 195 -201 195h-270l-111 -526h269q141 0 227 83.5t86 247.5zM809 829q170 0 262 -87t92 -221q0 -251 -131 -386t-360 -135h-479l264 1241h-254l30 152h429l-121 -564h268z" />
    <glyph glyph-name="uni042B" unicode="&#x42b;" horiz-adv-x="1599" 
d="M1280 0h-172l297 1393h172zM860 483q0 195 -201 195h-270l-110 -526h268q141 0 227 84t86 247zM690 829q172 0 263 -86t91 -220q0 -251 -131 -387t-360 -136h-479l297 1393h172l-121 -564h268z" />
    <glyph glyph-name="uni042C" unicode="&#x42c;" horiz-adv-x="1165" 
d="M860 483q0 195 -201 195h-270l-110 -526h268q141 0 227 83.5t86 247.5zM690 829q172 0 263 -86t91 -220q0 -251 -132 -387t-359 -136h-479l297 1393h172l-121 -564h268z" />
    <glyph glyph-name="uni042D" unicode="&#x42d;" horiz-adv-x="1157" 
d="M889 908q0 160 -75.5 260t-223.5 100t-307 -72l-43 137q193 90 335 90q255 0 374.5 -148t119.5 -396q0 -392 -147.5 -579t-284.5 -259t-312 -72t-315 90l56 131q117 -65 289 -65t305.5 135.5t183.5 362.5h-543l33 153h545q10 63 10 132z" />
    <glyph glyph-name="uni042E" unicode="&#x42e;" horiz-adv-x="1890" 
d="M807 488q0 -155 67.5 -259t207.5 -104q139 0 227 48t168 151.5t112.5 273t32.5 273.5q0 196 -67.5 296.5t-217.5 100.5q-211 0 -370.5 -184t-159.5 -596zM1802 874q0 -138 -40 -305.5t-127 -300.5t-224 -216t-330 -83q-231 0 -342.5 143t-111.5 382q0 70 6 141h-252
l-135 -635h-172l297 1393h172l-129 -607h243q58 277 234 457t459 180q227 0 339.5 -142.5t112.5 -406.5z" />
    <glyph glyph-name="uni042F" unicode="&#x42f;" horiz-adv-x="1236" 
d="M719 1241q-144 0 -224.5 -88t-80.5 -223q0 -90 49 -140.5t149 -50.5h291l107 502h-291zM229 910q0 218 130 350.5t362 132.5h493l-296 -1393h-173l125 588h-219l-504 -588h-192l6 33l498 573q-106 31 -168 112.5t-62 191.5z" />
    <glyph glyph-name="uni0430" unicode="&#x430;" horiz-adv-x="1124" 
d="M448 113q114 0 234 100l125 575q-83 88 -209 86q-94 0 -159 -51t-103 -127q-71 -140 -73 -294q-1 -154 29 -201q30 -48 64 -68t92 -20zM394 -31q-89 0 -146 31q-162 88 -162 352t117 452q132 212 360 214q104 0 179 -40t116 -81h2l37 90h121l-172 -809q-6 -27 1 -40
t46 -13h55l-30 -133q-158 -41 -200 15q-24 32 -30 83h-4q-53 -41 -127 -81t-163 -40z" />
    <glyph glyph-name="uni0431" unicode="&#x431;" horiz-adv-x="1144" 
d="M840 538q0 96 -55.5 163t-142.5 67q-162 0 -261.5 -116t-99.5 -286t78.5 -211.5t140.5 -41.5t125 33.5t111 91t76 131t28 169.5zM682 911q151 0 241.5 -101t90.5 -263q0 -233 -152 -405.5t-383 -172.5q-180 0 -271 109.5t-91 320.5q0 339 155 640t399 346t350.5 56
t141.5 19l-30 -153q-37 -6 -91.5 -11.5t-247.5 -28t-306 -169t-164 -344.5l4 -4q134 161 354 161z" />
    <glyph glyph-name="uni0432" unicode="&#x432;" horiz-adv-x="999" 
d="M700 743q0 107 -147 107h-162l-59 -279h160q115 0 161.5 40t46.5 132zM827 313q0 -141 -90 -227t-288 -86h-404l209 987h315q312 0 312 -213q0 -109 -53.5 -175.5t-125.5 -94.5v-2q125 -48 125 -189zM442 137q106 0 158.5 52.5t52.5 136.5q0 111 -145 110h-205l-63 -299
h202z" />
    <glyph glyph-name="uni0433" unicode="&#x433;" horiz-adv-x="856" 
d="M881 987l-29 -137h-461l-180 -850h-166l209 987h627z" />
    <glyph glyph-name="uni0434" unicode="&#x434;" horiz-adv-x="1081" 
d="M621 141l149 709h-295l-72 -266q-88 -325 -186 -443h404zM-104 -246l57 387h80q135 135 217 447l106 399h609l-179 -846h99l-109 -387h-119l35 246h-610l-66 -246h-120z" />
    <glyph glyph-name="uni0435" unicode="&#x435;" horiz-adv-x="1040" 
d="M788 691q0 73 -46 128t-146 55t-189 -86q-88 -86 -120 -210h485q16 40 16 113zM592 1018q186 0 272 -98t86 -240q0 -101 -53 -229h-645q-28 -136 33 -238t184 -100q92 -1 159 27t126 65l57 -127q-172 -109 -359 -109q-186 0 -279 116t-91 286q0 119 37 235
q77 243 269 356q98 56 204 56z" />
    <glyph glyph-name="uni0436" unicode="&#x436;" horiz-adv-x="1421" 
d="M594 440q-121 -109 -229.5 -219t-223.5 -221h-213l2 14l510 488l-286 471l2 14h178l272 -479h4l103 479h168l-103 -479h4l453 479h205l-4 -14l-494 -502l311 -457l-4 -14h-182l-297 444h-4l-94 -444h-168l94 440h-4z" />
    <glyph glyph-name="uni0437" unicode="&#x437;" horiz-adv-x="907" 
d="M284 113q144 0 211.5 56t67.5 153q0 57 -38 86.5t-103 29.5h-232l29 137h225q69 0 125 45.5t56 129.5q0 53 -33 88.5t-140 35.5t-264 -53l-24 129q149 68 317 68t246 -70t78 -174t-53.5 -174t-126.5 -98v-4q108 -57 108 -185q0 -156 -116.5 -250t-318.5 -94t-312 76
l45 129q109 -61 253 -61z" />
    <glyph glyph-name="uni0438" unicode="&#x438;" horiz-adv-x="1101" 
d="M252 227l117 168l465 592h188l-209 -987h-166l117 543l55 217h-4l-153 -217l-429 -543h-188l209 987h166l-127 -592l-45 -168h4z" />
    <glyph glyph-name="uni0439" unicode="&#x439;" horiz-adv-x="1101" 
d="M731 1339q116 0 242 66l33 -115q-125 -106 -293 -104q-87 0 -147 37t-95 82l61 100q83 -66 199 -66zM252 227l117 168l465 592h188l-209 -987h-166l117 543l55 217h-4l-153 -217l-429 -543h-188l209 987h166l-127 -592l-45 -168h4z" />
    <glyph glyph-name="uni043A" unicode="&#x43a;" horiz-adv-x="954" 
d="M305 444l-94 -444h-166l209 987h166l-101 -479h5l452 479h201l-2 -14l-488 -502l304 -457l-3 -14h-184l-295 444h-4z" />
    <glyph glyph-name="uni043B" unicode="&#x43b;" horiz-adv-x="1060" 
d="M786 850h-342l-88 -328q-91 -343 -161 -422.5t-129.5 -96.5t-139.5 -17l15 139q84 0 140.5 77.5t121.5 327.5l116 457h662l-211 -987h-164z" />
    <glyph glyph-name="uni043C" unicode="&#x43c;" horiz-adv-x="1284" 
d="M602 426l94 133l340 428h168l-209 -987h-166l107 504l55 207h-4l-149 -205l-203 -258h-125l-94 260l-60 203h-4l-35 -205l-106 -506h-166l209 987h152l157 -428l37 -133h2z" />
    <glyph glyph-name="uni043D" unicode="&#x43d;" horiz-adv-x="1099" 
d="M735 430h-432l-92 -430h-166l209 987h166l-88 -414h434l88 414h166l-209 -987h-166z" />
    <glyph glyph-name="uni043E" unicode="&#x43e;" horiz-adv-x="1122" 
d="M1001 602q-1 -100 -33 -217t-100 -209q-152 -205 -419 -207q-180 0 -272 109q-93 109 -93 287q0 262 130 445q150 208 417 208q98 0 168 -32q202 -92 202 -384zM258 384q0 -271 199 -271q186 0 285 170q85 143 85 329t-111 242q-40 20 -95 20q-185 0 -283 -174
q-44 -76 -62 -164t-18 -152z" />
    <glyph glyph-name="uni043F" unicode="&#x43f;" horiz-adv-x="1099" 
d="M825 850h-434l-180 -850h-166l209 987h766l-209 -987h-166z" />
    <glyph glyph-name="uni0440" unicode="&#x440;" horiz-adv-x="1116" 
d="M819 614q0 261 -184 260q-136 0 -258 -96l-123 -581q69 -84 219 -84q100 0 167 53q124 98 163 299q16 89 16 149zM373 987v-90h2q29 18 63 40q123 81 263 81q141 0 218 -106q76 -106 76 -248q0 -459 -269 -634q-91 -60 -216 -61q-180 0 -281 101h-4l-100 -476h-168
l297 1393h119z" />
    <glyph glyph-name="uni0441" unicode="&#x441;" horiz-adv-x="937" 
d="M84 367q0 275 147 463t402 188q142 0 268 -74l-57 -125q-93 55 -197 55q-182 0 -284 -150q-101 -150 -101 -336t113 -253q39 -23 92 -22q123 0 246 59l39 -125q-140 -78 -310 -78q-169 0 -263 109q-95 109 -95 289z" />
    <glyph glyph-name="uni0442" unicode="&#x442;" horiz-adv-x="837" 
d="M862 987l-28 -137h-277l-180 -850h-166l180 850h-272l28 137h715z" />
    <glyph glyph-name="uni0443" unicode="&#x443;" horiz-adv-x="968" 
d="M30 -297q56 0 100 46t89 128l72 133l-154 957l4 20h166l76 -625l12 -186h4l88 186l334 625h174l-6 -20l-620 -1129q-74 -135 -157 -205t-187 -69q-41 0 -99 11t-71 15l28 138q91 -25 147 -25z" />
    <glyph glyph-name="uni0444" unicode="&#x444;" horiz-adv-x="1630" 
d="M981 944q112 74 248.5 74t208 -104.5t71.5 -243.5q0 -140 -27.5 -260.5t-85 -218t-145.5 -160t-209 -62.5q-169 0 -254 76h-4l-94 -451h-168l94 451h-4q-53 -39 -106 -57.5t-132 -18.5q-147 0 -218.5 104t-71.5 244t27.5 260.5t84 218t144.5 160t228 62.5t237 -74h4
l102 490h168l-102 -490h4zM778 809q-65 65 -203 65t-209 -115.5t-88.5 -221t-18.5 -145.5l-1 -40q0 -110 28.5 -155t59.5 -64.5t84 -19.5q102 0 217 77zM815 178q65 -65 200 -65t227.5 139.5t92.5 401.5q0 89 -38.5 154.5t-115.5 65.5q-124 0 -235 -77z" />
    <glyph glyph-name="uni0445" unicode="&#x445;" horiz-adv-x="944" 
d="M438 387l-309 -387h-182l4 20l405 474l-204 473l4 20h170l143 -389h4l307 389h183l-7 -20l-403 -473l203 -474l-4 -20h-166l-144 387h-4z" />
    <glyph glyph-name="uni0446" unicode="&#x446;" horiz-adv-x="1120" 
d="M698 -246l39 246h-692l209 987h166l-180 -850h419l181 850h166l-181 -850h101l-109 -383h-119z" />
    <glyph glyph-name="uni0447" unicode="&#x447;" horiz-adv-x="987" 
d="M352 266q-129 0 -199.5 77t-39.5 218l90 426h166l-88 -416q-16 -72 12.5 -117.5t102.5 -45.5q138 0 231 38l114 541h166l-211 -987h-166l66 307q-115 -41 -244 -41z" />
    <glyph glyph-name="uni0448" unicode="&#x448;" horiz-adv-x="1533" 
d="M45 0l209 987h166l-180 -850h350l180 850h166l-180 -850h348l182 850h168l-211 -987h-1198z" />
    <glyph glyph-name="uni0449" unicode="&#x449;" horiz-adv-x="1566" 
d="M1143 -246l39 246h-1137l209 987h166l-180 -850h350l180 850h166l-180 -850h348l182 850h168l-182 -850h100l-108 -383h-121z" />
    <glyph glyph-name="uni044A" unicode="&#x44a;" horiz-adv-x="1036" 
d="M516 137q100 0 154.5 57.5t54.5 129.5q0 142 -139 143h-193l-69 -330h192zM608 604q141 0 216 -64.5t75 -177.5q0 -174 -95 -268t-282 -94h-395l182 850h-190l28 137h357l-82 -383h186z" />
    <glyph glyph-name="uni044B" unicode="&#x44b;" horiz-adv-x="1339" 
d="M436 137q100 -1 152 57t53 130q0 142 -135 143h-197l-69 -330h196zM526 604q141 0 217 -64t76 -178q0 -174 -97 -268t-284 -94h-393l209 987h166l-80 -383h186zM883 0l209 987h168l-209 -987h-168z" />
    <glyph glyph-name="uni044C" unicode="&#x44c;" horiz-adv-x="956" 
d="M436 137q100 0 152.5 57.5t52.5 129.5q0 142 -135 143h-197l-69 -330h196zM526 604q141 0 217 -64.5t76 -177.5q0 -174 -97 -268t-284 -94h-393l209 987h166l-80 -383h186z" />
    <glyph glyph-name="uni044D" unicode="&#x44d;" horiz-adv-x="935" 
d="M403 1010q121 0 193 -30t145.5 -109.5t73.5 -260.5q0 -273 -153.5 -453t-347 -180t-312.5 66l53 131q100 -55 218 -55t209 81t128 226h-401l31 137h395q18 143 -35 224t-172 81t-238 -49l-36 127q128 64 249 64z" />
    <glyph glyph-name="uni044E" unicode="&#x44e;" horiz-adv-x="1536" 
d="M672 384q0 -272 198 -271q184 0 277.5 155.5t93.5 342.5t-75.5 225t-154.5 38t-147.5 -49t-111.5 -124.5t-61.5 -164t-18.5 -152.5zM1415 602q0 -100 -32.5 -217t-143 -266.5t-377.5 -149.5q-179 0 -271.5 109t-92.5 287v25q0 24 2 40h-197l-92 -430h-166l209 987h166
l-88 -418h188q43 193 177.5 321t332.5 128q199 0 292 -111.5t93 -304.5z" />
    <glyph glyph-name="uni044F" unicode="&#x44f;" horiz-adv-x="1032" 
d="M537 846q-98 0 -154.5 -60t-56.5 -130q0 -144 139 -144h219l70 334h-217zM150 627q0 162 97 261t290 99h415l-211 -987h-168l80 371h-145l-367 -371h-184l4 23l369 366q-80 25 -130 86.5t-50 151.5z" />
    <glyph glyph-name="uni0450" unicode="&#x450;" horiz-adv-x="1040" 
d="M788 691q0 73 -46 128t-146 55t-189 -86q-88 -86 -120 -210h485q16 40 16 113zM592 1018q186 0 272 -98t86 -240q0 -101 -53 -229h-645q-28 -136 33 -238t184 -100q92 -1 159 27t126 65l57 -127q-172 -109 -359 -109q-186 0 -279 116t-91 286q0 119 37 235
q77 243 269 356q98 56 204 56zM524 1454h178l66 -248l-4 -20h-137l-107 248z" />
    <glyph glyph-name="uni0451" unicode="&#x451;" horiz-adv-x="1040" 
d="M788 691q0 73 -46 128t-146 55t-189 -86q-88 -86 -120 -210h485q16 40 16 113zM592 1018q186 0 272 -98t86 -240q0 -101 -53 -229h-645q-28 -136 33 -238t184 -100q92 -1 159 27t126 65l57 -127q-172 -109 -359 -109q-186 0 -279 116t-91 286q0 119 37 235
q77 243 269 356q98 56 204 56zM410 1270q0 59 36 99t88 40q96 0 97 -88q0 -61 -38 -99t-97 -38q-86 0 -86 86zM902 1409q98 -1 98 -99q0 -50 -38 -88t-98 -38q-86 0 -86 86q0 59 37 99t87 40z" />
    <glyph glyph-name="uni0452" unicode="&#x452;" horiz-adv-x="1083" 
d="M890 941q73 -77 73 -225q0 -252 -113.5 -506t-300.5 -542l-131 82q256 404 312 619t56 307q0 199 -145 198q-97 0 -170.5 -44t-93.5 -60l-166 -770h-168l244 1151h-109l29 131h108l33 152h168l-33 -152h209l-28 -131h-209l-49 -233h4q25 14 95 57t191 43t194 -77z" />
    <glyph glyph-name="uni0453" unicode="&#x453;" horiz-adv-x="856" 
d="M907 1434l-213 -248h-153l4 20l172 248h194zM881 987l-29 -137h-461l-180 -850h-166l209 987h627z" />
    <glyph glyph-name="uni0454" unicode="&#x454;" horiz-adv-x="927" 
d="M496 -23q-121 0 -193 30t-145.5 109.5t-73.5 260.5q0 273 153.5 453t347 180t312.5 -66l-53 -131q-100 55 -218 55t-210 -79.5t-129 -225.5h403l-31 -137h-397q-18 -143 36 -225t173 -82t238 49l36 -127q-128 -64 -249 -64z" />
    <glyph glyph-name="uni0455" unicode="&#x455;" horiz-adv-x="870" 
d="M135 684q0 149 106 242q107 92 273 92t295 -70l-64 -135q-109 61 -221 61t-164 -48t-51 -118q0 -70 105 -118l98 -47q195 -95 196 -248q2 -153 -102 -239t-284 -87q-117 0 -187 25t-127 69l68 134q112 -86 232 -85t173 44t53 97q1 105 -104 157l-102 49q-80 39 -137 92
q-56 53 -56 133z" />
    <glyph glyph-name="uni0456" unicode="&#x456;" horiz-adv-x="501" 
d="M295 1270q0 59 37 99t88 40q98 0 96 -88q0 -61 -38 -99t-97 -38q-86 0 -86 86zM45 0l209 987h168l-209 -987h-168z" />
    <glyph glyph-name="uni0457" unicode="&#x457;" horiz-adv-x="499" 
d="M102 1270q0 59 37 99t89 40q96 0 96 -88q0 -61 -38 -99t-98 -38q-86 0 -86 86zM595 1409q97 -1 97 -99q0 -50 -38 -88t-97 -38q-86 0 -86 86q0 59 37 99t87 40zM45 0l209 987h168l-209 -987h-168z" />
    <glyph glyph-name="uni0458" unicode="&#x458;" horiz-adv-x="499" 
d="M293 1270q0 59 37 99t88 40q98 0 96 -88q0 -61 -37 -99t-98 -38q-86 0 -86 86zM-133 -297q113 0 149 170l238 1114h166l-240 -1126q-28 -135 -106 -216t-221 -81q-61 0 -123 24l28 131q61 -16 109 -16z" />
    <glyph glyph-name="uni0459" unicode="&#x459;" horiz-adv-x="1452" 
d="M932 137q98 0 151.5 57.5t53.5 129.5q0 142 -136 143h-194l-70 -330h195zM1024 604q141 0 216 -64.5t75 -177.5q0 -174 -96.5 -268t-282.5 -94h-395l180 850h-279l-86 -328q-89 -336 -162 -419t-132.5 -100t-135.5 -17l15 139q84 0 140.5 77.5t121.5 327.5l116 457h599
l-80 -383h186z" />
    <glyph glyph-name="uni045A" unicode="&#x45a;" horiz-adv-x="1509" 
d="M987 137q98 0 152.5 57.5t54.5 131.5q0 144 -135 143h-195l-69 -332h192zM1079 604q141 0 216 -64.5t75 -177.5q0 -174 -95 -268t-282 -94h-393l98 469h-387l-100 -469h-166l209 987h166l-80 -383h387l82 383h166l-82 -383h186z" />
    <glyph glyph-name="uni045B" unicode="&#x45b;" horiz-adv-x="1103" 
d="M643 874q-97 0 -212 -61q-32 -16 -52 -31l-168 -782h-168l244 1151h-115l29 131h114l33 152h168l-33 -152h209l-28 -131h-209l-49 -231h4q24 14 54 31q116 67 212 67q172 0 247 -95q74 -99 33 -296l-133 -627h-168l131 614q55 260 -143 260z" />
    <glyph glyph-name="uni045C" unicode="&#x45c;" horiz-adv-x="954" 
d="M928 1434l-213 -248h-154l4 20l172 248h195zM305 444l-94 -444h-166l209 987h166l-101 -479h5l452 479h201l-2 -14l-488 -502l304 -457l-3 -14h-184l-295 444h-4z" />
    <glyph glyph-name="uni045D" unicode="&#x45d;" horiz-adv-x="1101" 
d="M545 1454h178l65 -248l-4 -20h-137l-106 248zM252 227l117 168l465 592h188l-209 -987h-166l117 543l55 217h-4l-153 -217l-429 -543h-188l209 987h166l-127 -592l-45 -168h4z" />
    <glyph glyph-name="uni045E" unicode="&#x45e;" horiz-adv-x="968" 
d="M30 -297q56 0 100 46t89 128l72 133l-154 957l4 20h166l76 -625l12 -186h4l88 186l334 625h174l-6 -20l-620 -1129q-74 -135 -157 -205t-187 -69q-41 0 -99 11t-71 15l28 138q91 -25 147 -25zM626 1339q117 0 240 66l33 -115q-125 -106 -293 -104q-86 0 -146 37t-95 82
l61 100q83 -66 200 -66z" />
    <glyph glyph-name="uni045F" unicode="&#x45f;" horiz-adv-x="1085" 
d="M309 -246l35 246h-299l209 987h166l-180 -850h419l181 850h166l-209 -987h-299l-72 -246h-117z" />
    <glyph glyph-name="uni0462" unicode="&#x462;" horiz-adv-x="1320" 
d="M700 152q141 0 227.5 81.5t86.5 245.5q0 98 -53.5 146.5t-149.5 48.5h-270l-111 -522h270zM840 825q172 0 264 -86t92 -219q0 -247 -129 -383.5t-360 -136.5h-480l232 1085h-273l33 152h273l32 156h170l-32 -156h385l-33 -152h-385l-56 -260h267z" />
    <glyph glyph-name="uni0463" unicode="&#x463;" horiz-adv-x="1038" 
d="M518 137q100 0 153.5 57.5t53.5 129.5q0 142 -137 143h-195l-69 -330h194zM608 604q141 0 217 -64.5t76 -177.5q0 -174 -96 -268t-283 -94h-393l180 850h-190l28 137h191l96 449h164l-94 -449h299l-31 -137h-297l-53 -246h186z" />
    <glyph glyph-name="uni0472" unicode="&#x472;" horiz-adv-x="1404" 
d="M832 1268q-98 0 -184.5 -44t-166 -137.5t-131.5 -306.5h778q13 166 -4.5 248t-51.5 132t-88 79t-152 29zM319 488q0 -157 68.5 -260t205.5 -103q138 0 291 82.5t224 423.5h-782q-7 -75 -7 -143zM1315 874q0 -138 -40 -305.5t-127 -300.5t-224.5 -216t-329.5 -83
q-230 0 -342.5 143t-112.5 382q0 375 128 569t265.5 277t329.5 83q228 0 340.5 -142.5t112.5 -406.5z" />
    <glyph glyph-name="uni0473" unicode="&#x473;" horiz-adv-x="1122" 
d="M612 874q-125 0 -208 -85.5t-119 -219.5h540l2 41q0 188 -75.5 226t-139.5 38zM258 406v-54q0 -32 24.5 -135.5t176.5 -103.5q197 0 261 123.5t81 185.5h-541q-2 -12 -2 -16zM1001 602q0 -100 -32.5 -217t-142 -266.5t-377.5 -149.5q-180 0 -272.5 109t-92.5 287
q0 265 140 459t407 194q184 0 277 -111.5t93 -304.5z" />
    <glyph glyph-name="uni0474" unicode="&#x474;" horiz-adv-x="1245" 
d="M559 0h-174l-174 1372l4 21h166l92 -842l21 -381h4l184 383l330 621q77 141 159.5 195t202.5 54l-28 -155q-55 0 -97.5 -32t-83.5 -110z" />
    <glyph glyph-name="uni0475" unicode="&#x475;" horiz-adv-x="1011" 
d="M733 817q57 102 127 147.5t178 45.5l-30 -146q-73 0 -131 -102l-439 -762h-159l-142 967l4 20h156l74 -625l10 -190h4l94 190z" />
    <glyph glyph-name="uni0490" unicode="&#x490;" horiz-adv-x="1054" 
d="M1200 1681l-70 -440h-620l-264 -1241h-172l297 1393h612l84 288h133z" />
    <glyph glyph-name="uni0491" unicode="&#x491;" horiz-adv-x="854" 
d="M907 1202l-55 -352h-461l-180 -850h-166l209 987h457l63 215h133z" />
    <glyph glyph-name="uni0E3F" unicode="&#xe3f;" 
d="M874 1083q0 147 -118 154l-99 -459q217 19 217 305zM389 776h141l99 465h-142zM256 152h141l101 473h-142zM788 461q0 168 -163 164l-101 -473q129 0 196.5 82t67.5 227zM1061 1104q0 -212 -93.5 -296.5t-136.5 -102.5v-5q139 -58 139 -258t-121.5 -321t-354.5 -121
l-48 -221h-127l48 221h-318l297 1393h316l38 184h127l-39 -186q135 -10 204 -87t69 -200z" />
    <glyph glyph-name="Wgrave" unicode="&#x1e80;" horiz-adv-x="1828" 
d="M1937 1372l-653 -1372h-176l-49 874l-4 351h-6l-154 -351l-420 -874h-178l-68 1372l4 21h170l23 -840l-2 -346h4l154 346l405 840h184l48 -840l6 -346h4l145 346l379 840h189zM944 1808h176l68 -247l-4 -21h-137l-107 248z" />
    <glyph glyph-name="wgrave" unicode="&#x1e81;" horiz-adv-x="1544" 
d="M1559 967l-508 -967h-162l-62 639l-4 184h-4l-84 -184l-332 -639h-161l-97 967l5 20h161l43 -625l2 -180h4l80 180l320 625h174l55 -625l4 -180h4l78 180l309 625h179zM727 1454h178l66 -248l-4 -20h-138l-106 248z" />
    <glyph glyph-name="Wacute" unicode="&#x1e82;" horiz-adv-x="1828" 
d="M1937 1372l-653 -1372h-176l-49 874l-4 351h-6l-154 -351l-420 -874h-178l-68 1372l4 21h170l23 -840l-2 -346h4l154 346l405 840h184l48 -840l6 -346h4l145 346l379 840h189zM1415 1788l-213 -248h-153l4 21l174 247h192z" />
    <glyph glyph-name="wacute" unicode="&#x1e83;" horiz-adv-x="1544" 
d="M1559 967l-508 -967h-162l-62 639l-4 184h-4l-84 -184l-332 -639h-161l-97 967l5 20h161l43 -625l2 -180h4l80 180l320 625h174l55 -625l4 -180h4l78 180l309 625h179zM1202 1434l-213 -248h-153l4 20l172 248h194z" />
    <glyph glyph-name="Wdieresis" unicode="&#x1e84;" horiz-adv-x="1828" 
d="M1937 1372l-653 -1372h-176l-49 874l-4 351h-6l-154 -351l-420 -874h-178l-68 1372l4 21h170l23 -840l-2 -346h4l154 346l405 840h184l48 -840l6 -346h4l145 346l379 840h189zM1241 1645q0 59 37 99t88 40q98 0 96 -88q0 -62 -37 -100t-98 -37q-86 0 -86 86zM831 1645
q0 59 37 99q38 40 88 40q98 0 97 -88q0 -62 -38 -100t-100 -37q-84 0 -84 86z" />
    <glyph glyph-name="wdieresis" unicode="&#x1e85;" horiz-adv-x="1544" 
d="M1559 967l-508 -967h-162l-62 639l-4 184h-4l-84 -184l-332 -639h-161l-97 967l5 20h161l43 -625l2 -180h4l80 180l320 625h174l55 -625l4 -180h4l78 180l309 625h179zM629 1270q0 59 37 99t88 40q96 0 96 -88q0 -61 -38 -99t-97 -38q-86 0 -86 86zM1121 1409
q98 -1 98 -99q0 -50 -38 -88t-98 -38q-86 0 -86 86q0 59 37 99t87 40z" />
    <glyph glyph-name="uni1E9E" unicode="&#x1e9e;" horiz-adv-x="1282" 
d="M784 1268q-276 0 -350 -330l-198 -938h-173l199 932q53 237 180 364t370 127t394 -137l-22 -110l-318 -402v-4q125 -10 207 -88t82 -200q0 -226 -143.5 -369.5t-343.5 -143.5q-107 0 -234 27l33 156q111 -27 188 -27q141 0 230.5 98t89.5 209t-58.5 160t-168.5 49h-107
l23 115l348 452q-82 60 -228 60z" />
    <glyph glyph-name="Ygrave" unicode="&#x1ef2;" horiz-adv-x="1060" 
d="M375 1393l180 -633h4l455 633h192l-4 -21l-584 -782l-124 -590h-172l124 590l-249 782l4 21h174zM571 1808h177l67 -247l-4 -21h-137l-107 248z" />
    <glyph glyph-name="ygrave" unicode="&#x1ef3;" horiz-adv-x="968" 
d="M30 -297q56 0 100 46t89 128l72 133l-154 957l4 20h166l76 -625l12 -186h4l88 186l334 625h174l-6 -20l-620 -1129q-74 -135 -157 -205t-187 -69q-41 0 -99 11t-71 15l28 138q91 -25 147 -25zM449 1454h178l65 -248l-4 -20h-137l-107 248z" />
    <glyph glyph-name="endash" unicode="&#x2013;" horiz-adv-x="1089" 
d="M133 477l33 152h780l-33 -152h-780z" />
    <glyph glyph-name="emdash" unicode="&#x2014;" horiz-adv-x="1687" 
d="M133 477l33 152h1378l-33 -152h-1378z" />
    <glyph glyph-name="quoteleft" unicode="&#x2018;" horiz-adv-x="503" 
d="M557 1393l-192 -531h-189l4 21l244 510h133z" />
    <glyph glyph-name="quoteright" unicode="&#x2019;" horiz-adv-x="499" 
d="M193 883l186 510h190l-6 -21l-241 -510h-134z" />
    <glyph glyph-name="quotesinglbase" unicode="&#x201a;" horiz-adv-x="491" 
d="M-100 -309l186 510h190l-6 -21l-241 -510h-133z" />
    <glyph glyph-name="quotedblleft" unicode="&#x201c;" horiz-adv-x="862" 
d="M915 1393l-192 -531h-188l4 21l243 510h133zM557 1393l-192 -531h-189l4 21l244 510h133z" />
    <glyph glyph-name="quotedblright" unicode="&#x201d;" horiz-adv-x="858" 
d="M193 883l186 510h190l-6 -21l-241 -510h-134zM551 883l186 510h191l-6 -21l-242 -510h-133z" />
    <glyph glyph-name="quotedblbase" unicode="&#x201e;" horiz-adv-x="849" 
d="M-100 -309l186 510h190l-6 -21l-241 -510h-133zM258 -309l186 510h191l-6 -21l-242 -510h-133z" />
    <glyph glyph-name="dagger" unicode="&#x2020;" horiz-adv-x="880" 
d="M461 987l96 447h133l-96 -447h311l-26 -131h-312l-268 -1262h-133l268 1262h-313l29 131h311z" />
    <glyph glyph-name="daggerdbl" unicode="&#x2021;" horiz-adv-x="1001" 
d="M526 987l95 447h133l-95 -447h310l-29 -131h-309l-146 -684h310l-27 -131h-309l-94 -447h-136l97 447h-314l29 131h311l146 684h-312l27 131h313z" />
    <glyph glyph-name="bullet" unicode="&#x2022;" horiz-adv-x="708" 
d="M381 772q154 0 154 -154q0 -78 -60.5 -138t-155.5 -60q-141 0 -141 154q0 78 61.5 138t141.5 60z" />
    <glyph glyph-name="ellipsis" unicode="&#x2026;" horiz-adv-x="1359" 
d="M169 225q105 -1 105 -111q0 -56 -44 -100q-44 -45 -99 -45q-108 -1 -108 113q0 56 46 100t100 43zM599 225q106 -1 106 -111q-1 -56 -45 -100q-44 -45 -99 -45q-108 -1 -108 113q0 56 46 100t100 43zM1033 225q106 -1 106 -111q0 -56 -44 -100q-43 -45 -99 -45
q-108 -1 -109 113q0 56 46 100t100 43z" />
    <glyph glyph-name="perthousand" unicode="&#x2030;" horiz-adv-x="2177" 
d="M109 0l4 20l1190 1373h163l-6 -21l-1188 -1372h-163zM2052 454q0 -104 -24 -187q-49 -172 -180 -247q-67 -36 -167 -36t-154 74t-54 178q0 316 203 432q68 37 168 37t154 -73q54 -74 54 -178zM1712 109q97 0 150 90t53 235t-103 146q-93 0 -147 -89q-55 -89 -55 -235
q0 -147 102 -147zM560 1401q100 -1 154 -73t54 -176q0 -201 -95 -337q-95 -135 -261 -135q-115 0 -169 74q-55 74 -55 178q-1 202 96 336q96 133 276 133zM428 805q97 0 149 88t53 235t-102 148q-92 0 -147 -88t-55 -236q0 -147 102 -147zM1380 454q0 -104 -24 -187
q-49 -172 -179 -247q-67 -36 -167 -36t-155 74q-54 74 -54 178q0 317 204 432q67 37 167 37t154 -73q54 -74 54 -178zM1040 109q97 0 150 90t53 235t-102 146q-92 0 -147 -89q-56 -89 -56 -235q0 -147 102 -147z" />
    <glyph glyph-name="guilsinglleft" unicode="&#x2039;" horiz-adv-x="612" 
d="M96 565l373 428l100 -88l-288 -362l135 -363l-123 -67l-203 428z" />
    <glyph glyph-name="guilsinglright" unicode="&#x203a;" horiz-adv-x="614" 
d="M508 541l-375 -428l-100 88l289 362l-136 363l123 67l203 -428z" />
    <glyph glyph-name="fraction" unicode="&#x2044;" horiz-adv-x="241" 
d="M-532 0l4 20l1190 1373h163l-6 -21l-1188 -1372h-163z" />
    <glyph glyph-name="uni2070" unicode="&#x2070;" horiz-adv-x="712" 
d="M590 1651q100 -1 154 -73t55 -176q0 -203 -95 -338q-95 -134 -262 -134q-115 0 -169 74t-54 178q0 202 96 336q95 133 275 133zM356 1202q0 -146 101 -147q101 0 151 89q51 89 53 235q1 146 -102 147q-92 0 -148 -89q-55 -89 -55 -235z" />
    <glyph glyph-name="uni2074" unicode="&#x2074;" horiz-adv-x="645" 
d="M346 1214h174l47 222h133l-47 -222h76l-27 -120h-75l-31 -148h-133l33 148h-330l22 106l271 438h147l-260 -421v-3z" />
    <glyph glyph-name="uni2075" unicode="&#x2075;" horiz-adv-x="589" 
d="M508 1186q0 76 -101 76t-151 -7l-12 23l112 360h359l-27 -120h-242l-43 -132h23q100 0 162 -46t61 -136q0 -129 -85 -202t-228 -72q-102 0 -186 39l36 123q72 -37 160 -37q162 0 162 131z" />
    <glyph glyph-name="uni2076" unicode="&#x2076;" horiz-adv-x="634" 
d="M573 1192q0 86 -98 86q-69 0 -107 -36t-38 -101q0 -86 98 -86q66 -1 106 35t39 102zM528 1407q86 0 136 -58t49 -127q0 -130 -82 -212t-203 -81t-179 62q-59 61 -59 158t84 201l240 288h156l-2 -10l-205 -231v-2q30 12 65 12z" />
    <glyph glyph-name="uni2077" unicode="&#x2077;" horiz-adv-x="559" 
d="M559 1518h-309l26 120h459l-20 -104l-379 -588h-148l2 10l369 560v2z" />
    <glyph glyph-name="uni2078" unicode="&#x2078;" horiz-adv-x="657" 
d="M500 1370q53 0 83 25t29 65q0 64 -73 65t-97 -28t-24 -67q0 -60 82 -60zM285 1446q-1 90 71 150t180 59q108 0 161 -49q55 -49 55 -124t-43 -117t-91 -62v-3q87 -40 87 -142q-1 -102 -79 -165t-196 -63t-180 50q-61 50 -62 128q0 78 48 131t118 82v2q-69 33 -69 123z
M432 1055q72 -1 107 31t34 79q0 80 -100 78q-78 0 -112 -34t-33 -81q0 -73 104 -73z" />
    <glyph glyph-name="uni2079" unicode="&#x2079;" horiz-adv-x="636" 
d="M367 1393q0 -88 98 -86q69 -1 107 35t38 102q0 86 -98 86q-66 0 -106 -36t-39 -101zM412 1178q-86 0 -136 58q-49 58 -49 158t81 180q81 81 203 81q122 1 180 -61q59 -62 59 -126t-16 -116q-16 -51 -68 -117l-240 -289h-156l2 10l205 232v2q-30 -12 -65 -12z" />
    <glyph glyph-name="uni207A" unicode="&#x207a;" horiz-adv-x="503" 
d="M473 1360h127l-20 -103h-129l-33 -153h-111l33 153h-127l23 103h124l33 149h111z" />
    <glyph glyph-name="uni207B" unicode="&#x207b;" horiz-adv-x="557" 
d="M240 1257l22 103h365l-21 -103h-366z" />
    <glyph glyph-name="uni207D" unicode="&#x207d;" horiz-adv-x="362" 
d="M207 1153q0 252 172 497q47 67 90 122l74 -66q-97 -131 -155 -269q-58 -139 -58 -313t24 -286l-86 -27q-61 154 -61 342z" />
    <glyph glyph-name="uni207E" unicode="&#x207e;" horiz-adv-x="364" 
d="M461 1430q0 -255 -172 -497q-47 -67 -90 -122l-74 66q98 131 156 269q57 138 57 317t-25 282l86 27q62 -156 62 -342z" />
    <glyph glyph-name="uni2080" unicode="&#x2080;" horiz-adv-x="710" 
d="M336 461q100 -1 155 -73q54 -72 54 -176q0 -201 -95 -337q-95 -135 -262 -135q-115 0 -169 74t-54 178q0 201 95 335t276 134zM102 12q0 -146 101 -147q101 0 151 89q51 89 53 235q1 146 -102 147q-92 0 -148 -89q-55 -89 -55 -235z" />
    <glyph glyph-name="uni2081" unicode="&#x2081;" horiz-adv-x="477" 
d="M-29 213l25 125l262 111h96l-145 -693h-131l115 539h-3l-204 -82h-15z" />
    <glyph glyph-name="uni2082" unicode="&#x2082;" horiz-adv-x="618" 
d="M328 256q0 84 -88 84q-47 0 -86 -24t-74 -52l-70 98q90 70 146 86q57 17 100 17q92 0 152 -51q60 -50 61 -140q0 -90 -39 -145t-98 -100l-195 -148v-2h256l-26 -123h-463l22 105l326 254q76 57 76 141z" />
    <glyph glyph-name="uni2083" unicode="&#x2083;" horiz-adv-x="612" 
d="M115 -135q155 0 155 112q0 66 -114 66h-113l27 123h112q74 0 104 32t29 72q0 70 -89 70t-173 -35l-35 113q96 47 208 47q110 0 170 -50t60 -122t-39 -122q-40 -50 -98 -67v-2q86 -37 85 -138t-71 -163q-71 -61 -207 -61t-216 53l39 117q83 -45 166 -45z" />
    <glyph glyph-name="uni2084" unicode="&#x2084;" horiz-adv-x="645" 
d="M94 25h174l47 221h134l-48 -221h76l-26 -121h-76l-31 -148h-133l33 148h-330l23 106l270 439h147l-260 -422v-2z" />
    <glyph glyph-name="uni2085" unicode="&#x2085;" horiz-adv-x="591" 
d="M258 -4q0 76 -100 76t-152 -6l-12 22l112 361h359l-27 -121h-241l-43 -131h22q100 0 162 -46t61 -137q0 -130 -85 -202t-207 -72t-207 39l37 123q72 -37 159 -37q162 0 162 131z" />
    <glyph glyph-name="uni2086" unicode="&#x2086;" horiz-adv-x="636" 
d="M324 2q0 88 -99 86q-69 0 -107 -36t-38 -101q0 -86 98 -86q66 -1 106 35t40 102zM279 217q86 0 135 -58t49 -127q0 -130 -82 -212t-203 -81t-179 62t-58 144q0 47 15 98t69 117l239 289h156l-2 -11l-205 -231v-2q30 12 66 12z" />
    <glyph glyph-name="uni2087" unicode="&#x2087;" horiz-adv-x="557" 
d="M307 328h-309l27 121h458l-20 -105l-379 -588h-147l2 11l368 559v2z" />
    <glyph glyph-name="uni2088" unicode="&#x2088;" horiz-adv-x="657" 
d="M248 180q53 0 83 25t29 65q0 64 -72 65t-98 -28q-25 -29 -24 -67q0 -60 82 -60zM33 256q0 90 71 150q72 59 180 59t161 -49q55 -49 55 -124t-43 -117t-90 -62v-2q86 -40 86 -143q-1 -103 -79 -165q-78 -63 -196 -63t-180 50q-61 50 -61 128t48 131t117 82v2
q-69 33 -69 123zM76 -61q0 -74 104 -74q72 0 107 32q35 33 35 73q0 85 -101 83q-77 0 -111 -34t-34 -80z" />
    <glyph glyph-name="uni2089" unicode="&#x2089;" horiz-adv-x="636" 
d="M115 203q0 -88 98 -86q69 0 107 36t38 101q0 86 -98 86q-66 0 -106 -36t-39 -101zM160 -12q-86 0 -135 58t-49 158t80 180q81 81 203 81q122 1 180 -61q59 -62 59 -126t-16 -116q-16 -51 -68 -117l-240 -289h-156l2 11l205 231v2q-30 -12 -65 -12z" />
    <glyph glyph-name="uni208D" unicode="&#x208d;" horiz-adv-x="362" 
d="M-43 -37q0 252 172 497q47 67 90 122l74 -66q-97 -131 -155 -269q-58 -139 -58 -313t24 -286l-86 -27q-61 154 -61 342z" />
    <glyph glyph-name="uni208E" unicode="&#x208e;" horiz-adv-x="362" 
d="M207 240q0 -255 -172 -497q-47 -67 -90 -122l-74 66q98 131 156 269q57 138 57 317t-25 282l86 27q62 -156 62 -342z" />
    <glyph glyph-name="colonmonetary" unicode="&#x20a1;" 
d="M682 1239q-176 -75 -271.5 -292.5t-95.5 -478.5q0 -128 19 -185zM816 1268q-5 0 -15 -2l-395 -1082q45 -36 96 -49l409 1129q-16 4 -21 4h-74zM254 90q-119 128 -119 428q0 148 44 303.5t173.5 349.5t399.5 244l59 162h111l-58 -154q40 -3 107 -12l63 166h109l-72 -195
q49 -20 94 -49l-75 -131q-20 10 -41 19.5t-37 17.5l-406 -1114q129 0 268 65l39 -131q-180 -90 -356 -90l-14 2l-72 -192h-111l78 205q-57 12 -98 39l-90 -244h-111z" />
    <glyph glyph-name="lira" unicode="&#x20a4;" horiz-adv-x="1060" 
d="M502.5 1322q113.5 101 272.5 101t317 -94l-58 -133q-72 39 -128 55.5t-134 16.5t-147.5 -61.5t-96.5 -184.5q-4 -23 -9 -43.5t-7 -48.5h371l-29 -135h-356l-23 -203h336l-29 -135h-323q-33 -146 -92.5 -217.5t-77.5 -83.5l-2 -4h569l-33 -152h-788l26 127
q166 101 201 268l12 62h-161l28 135h154l20 203h-131l29 135h119q4 27 8 48t8 46q41 197 154.5 298z" />
    <glyph glyph-name="uni20A6" unicode="&#x20a6;" 
d="M418 1137l-43 -242h92l-45 242h-4zM739 217l45 246h-79l30 -246h4zM350 760l-28 -162h196l-20 162h-148zM674 598h135l31 162h-189zM948 463l-98 -463h-225l-74 463h-256l-98 -463h-177l99 463h-90l28 135h90l35 162h-90l29 135h90l106 498h220l81 -498h248l105 498h174
l-107 -498h103l-29 -135h-102l-33 -162h100l-28 -135h-101z" />
    <glyph glyph-name="uni20A8" unicode="&#x20a8;" 
d="M389 731q127 0 193.5 45t101.5 131h-469l66 135h428q0 80 -50.5 130.5t-162.5 50.5h-215l73 170h820l-66 -136h-328v-4q59 -39 83 -98t24 -113h213l-66 -135h-172q-57 -174 -183 -255t-288 -85l305 -534l-8 -33h-188l-332 602l27 129h194z" />
    <glyph glyph-name="uni20AA" unicode="&#x20aa;" horiz-adv-x="1366" 
d="M668 152q187 0 243 56t80.5 123.5t46.5 172.5l189 889h176l-189 -889q-31 -145 -70.5 -241.5t-125.5 -179.5t-338 -83h-354l215 1016h174l-185 -864h138zM600 1241h-137l-264 -1241h-176l296 1393h316q256 0 337.5 -110.5t20.5 -393.5l-108 -512h-176l108 512
q23 104 28 171.5t-16.5 107.5t-76 56.5t-152.5 16.5z" />
    <glyph glyph-name="dong" unicode="&#x20ab;" 
d="M53 0l27 129h731l-29 -129h-729zM616 940q-100 0 -156.5 -35t-107.5 -112.5t-51 -219.5q0 -84 40 -144t141 -60t220 71l95 445q-81 55 -181 55zM559 1077q163 0 260 -80h4l41 201h-188l26 131h191l22 105h172l-22 -105h104l-28 -131h-105l-198 -942h-125l-4 72h-4
q-51 -35 -119 -67t-156 -32q-159 0 -234 92.5t-75 212.5q0 235 116 389t322 154z" />
    <glyph glyph-name="Euro" unicode="&#x20ac;" 
d="M373 457q-9 -332 262 -332q141 0 274 65l43 -135q-172 -86 -334 -86q-211 0 -318 130t-103 358h-156l70 135h98q17 110 41 203h-137l71 135h113q196 493 590 493q155 0 293 -90l-56 -131q-103 66 -245 66q-275 0 -406 -338h533l-68 -135h-516q-28 -86 -43 -203h477
l-68 -135h-415z" />
    <glyph glyph-name="uni20AD" unicode="&#x20ad;" 
d="M649 616l277 -596l-4 -20h-195l-278 616h-41l-132 -616h-176l131 616h-118l28 136h119l137 641h176l-137 -641h41l498 641h219l-4 -21l-502 -620h309l-28 -136h-320z" />
    <glyph glyph-name="uni20AE" unicode="&#x20ae;" 
d="M821 524l-200 -73l-97 -451h-174l82 381l-205 -74l31 148l205 73l29 140l-203 -74l30 147l205 74l90 426h-372l32 152h916l-33 -152h-369l-75 -356l200 73l-32 -147l-199 -74l-31 -139l201 74z" />
    <glyph glyph-name="uni20B1" unicode="&#x20b1;" 
d="M874 1098q-17 143 -190 143h-166l-31 -143h387zM532 524q173 0 242 138h-379l-30 -138h167zM426 813h412q21 68 28 133h-411zM535 373h-201l-80 -373h-176l141 662h-106l32 151h105l29 133h-105l31 152h106l64 295h336q162 0 250 -76t96 -219h108l-30 -152h-88
q-10 -74 -27 -133h86l-33 -151h-104q-68 -141 -172.5 -215t-261.5 -74z" />
    <glyph glyph-name="uni20B2" unicode="&#x20b2;" 
d="M297 490q0 -311 135 -355l238 1116q-187 -61 -260.5 -251.5t-93 -311t-19.5 -198.5zM399 -23q-282 53 -282 515q0 123 32.5 282.5t104.5 295.5t182.5 233.5t268.5 119.5l34 154h125l-33 -154q109 -4 181.5 -43t126.5 -86l-78 -131q-120 97 -262 105l-244 -1143
q113 10 188 61l74 351l-96 28l27 129h280l-123 -594q-168 -118 -383 -131l-41 -190h-125z" />
    <glyph glyph-name="uni20B4" unicode="&#x20b4;" 
d="M303 294q0 -76 46 -122.5t128 -46.5q168 0 342 127l64 -131q-211 -152 -418 -152q-151 0 -240.5 87.5t-89.5 226.5q0 87 29 145h-80l29 135h149q59 55 160 115l184 113h-444l28 135h621q59 72 59 151q0 78 -46 134.5t-154 56.5t-275 -92l-55 133q199 114 358 114
q158 0 249 -87t91 -218q0 -76 -19.5 -120t-35.5 -72h92l-28 -135h-201q-26 -22 -33 -27l-47 -35q-41 -29 -55 -37l-209 -129h495l-28 -135h-637q-29 -58 -29 -134z" />
    <glyph glyph-name="uni20B5" unicode="&#x20b5;" 
d="M319 490q0 -129 38 -224.5t124 -124.5l236 1110q-188 -60 -293 -278.5t-105 -482.5zM139 470q0 368 166 632.5t445 318.5l36 156h134l-33 -154q131 -4 264 -84l-57 -137q-122 62 -240 66l-244 -1143q125 0 269 65l41 -131q-179 -85 -342 -90l-41 -190h-134l43 203
q-156 33 -231.5 168t-75.5 320z" />
    <glyph glyph-name="uni2113" unicode="&#x2113;" horiz-adv-x="823" 
d="M719 1249q0 84 -60 84q-49 0 -79.5 -47t-51.5 -139l-79 -377q270 261 270 479zM667 1464q89 0 142 -51t53 -139q0 -329 -452 -690l-76 -353q-23 -131 69 -131q95 0 220 88l39 -116q-140 -103 -266 -103t-172 74t-19 197l55 260q-55 -44 -186 -127l-47 121q20 12 75.5 44
t192.5 130l102 485q37 176 109 243.5t161 67.5z" />
    <glyph glyph-name="uni2116" unicode="&#x2116;" horiz-adv-x="1996" 
d="M928 258l37 260l186 875h172l-295 -1393h-176l-401 1135h-5l-38 -261l-187 -874h-172l297 1393h176l402 -1135h4zM1313 436l26 121h488l-25 -121h-489zM1991 1082q0 -64 -25 -136q-52 -151 -185 -215q-69 -33 -146 -33q-194 0 -242 162q-35 119 13 258q49 139 182 206
q69 34 145 34t122 -22q136 -64 136 -254zM1843 1087q0 142 -119 142q-97 0 -148 -75q-52 -75 -52 -189q0 -137 114 -138q101 0 153 72q52 71 52 188z" />
    <glyph glyph-name="uni2117" unicode="&#x2117;" horiz-adv-x="1687" 
d="M254 600q0 -241 134 -381.5t349 -140.5q150 0 285 58.5t237.5 158.5t163 234.5t60.5 262.5q0 242 -134 382.5t-350 140.5q-147 0 -282 -58.5t-238.5 -159t-164 -234t-60.5 -263.5zM139 596q0 152 72 307.5t191.5 271t275.5 182t308 66.5q285 0 449 -173.5t164 -428.5
q0 -178 -71.5 -332.5t-191 -270.5t-276 -182.5t-308.5 -66.5t-261.5 46t-187.5 128t-121 191.5t-43 261.5zM905 702q80 0 116 48.5t36 100.5t-22.5 78.5t-76.5 26.5h-137l-53 -254h137zM979 1079q114 0 172.5 -56.5t58.5 -133.5q0 -143 -78 -226t-229 -83h-162l-57 -267
h-141l162 766h274z" />
    <glyph glyph-name="trademark" unicode="&#x2122;" horiz-adv-x="1488" 
d="M1126 1124q30 50 86 131l136 179h157l-121 -574h-131l43 195l54 207h-2l-189 -265h-104l-76 265h-2l-33 -207l-41 -195h-133l123 574h141l60 -174zM784 1434l-22 -109h-168l-100 -465h-132l99 465h-170l22 109h471z" />
    <glyph glyph-name="Omega" unicode="&#x2126;" horiz-adv-x="1415" 
d="M340 567q0 -255 178 -424l-31 -143h-450l33 152h264q-112 106 -141 240t-29 238t40 249t125 266t219 199.5t322 78.5q228 0 342.5 -145t114.5 -391t-117 -434t-288 -301h249l-32 -152h-451l31 143q212 142 318 313.5t106 435.5q0 263 -102.5 319.5t-196.5 56.5t-174 -38
t-159 -124t-125 -244.5t-46 -294.5z" />
    <glyph glyph-name="estimated" unicode="&#x212e;" horiz-adv-x="1411" 
d="M723 1135q-207 0 -334 -129v-330h678v330q-137 129 -344 129zM742 -31q-272 0 -434.5 180t-162.5 446q0 267 162.5 442t418.5 175t418.5 -165t170.5 -433l-15 -20h-911v-412q133 -127 338 -127q277 0 420 217l76 -55q-96 -133 -214.5 -190.5t-266.5 -57.5z" />
    <glyph glyph-name="onethird" unicode="&#x2153;" horiz-adv-x="1439" 
d="M25 0l4 20l1190 1373h163l-6 -21l-1188 -1372h-163zM213 1157l25 125l262 111h96l-145 -693h-132l115 539h-2l-205 -82h-14zM967 109q155 0 155 112q0 66 -114 66h-113l27 123h112q74 0 104 32t29 72q0 70 -86 70t-176 -35l-35 113q92 45 205 46q113 0 173 -50t60 -122
t-39 -121q-40 -50 -98 -67v-2q86 -37 85 -138t-71 -163q-71 -61 -207 -61t-216 53l39 117q83 -45 166 -45z" />
    <glyph glyph-name="twothirds" unicode="&#x2154;" horiz-adv-x="1560" 
d="M145 0l5 20l1189 1373h164l-6 -21l-1188 -1372h-164zM479 1280q-47 0 -86 -24t-74 -52l-69 99q56 44 113 73t141 29t144 -51t60 -140q0 -88 -38 -144q-39 -56 -99 -101l-194 -148v-2h256l-27 -123h-463l23 105l326 254q76 57 75 143q0 82 -88 82zM1243 221q0 66 -115 66
h-112l26 123h113q73 0 103 32t30 72q0 70 -86 70t-176 -35l-35 113q92 45 205 46q114 0 174 -50t60 -122t-40 -121q-40 -48 -98 -67v-2q86 -37 85 -138t-71 -163q-71 -61 -207 -61t-216 53l39 117q83 -45 165 -45q156 0 156 112z" />
    <glyph glyph-name="oneeighth" unicode="&#x215b;" horiz-adv-x="1439" 
d="M25 0l4 20l1190 1373h163l-6 -21l-1188 -1372h-163zM213 1157l25 125l262 111h96l-145 -693h-132l115 539h-2l-205 -82h-14zM1055 424q53 0 83 25t29 65q0 64 -73 65q-74 1 -98 -28t-23 -68q0 -59 82 -59zM840 500q0 90 72 150t178 59q108 1 162 -49t55 -121
q0 -124 -133 -183v-2q86 -40 86 -142t-78 -165t-198 -63q-118 0 -179 50t-62 128q1 78 49 131t117 82v2q-69 33 -69 123zM987 109q72 -1 107 31t34 79q0 78 -100 78q-78 0 -112 -34t-33 -81q0 -73 104 -73z" />
    <glyph glyph-name="threeeighths" unicode="&#x215c;" horiz-adv-x="1527" 
d="M113 0l4 20l1190 1373h163l-6 -21l-1188 -1372h-163zM1143 424q53 0 83 25t29 65q-1 64 -73 65t-97 -28t-24 -68q0 -59 82 -59zM928 500q0 90 72 150t178 59q108 1 162 -49t55 -121q0 -124 -133 -183v-2q86 -40 86 -142t-78 -165t-198 -63q-118 0 -179 50t-62 128
q1 78 49 131t117 82v2q-69 33 -69 123zM971 182q0 -73 104 -73q72 -1 107 31t35 79q0 78 -101 78q-78 0 -112 -34t-33 -81zM352 803q156 0 156 112q0 66 -115 66h-112l26 123h113q74 0 104 32t29 72q0 70 -89 70t-173 -35l-35 113q96 47 208 47q110 0 170 -50t60 -124
t-40 -121q-40 -48 -97 -66v-2q84 -36 84 -138q0 -100 -71 -162t-207 -62t-216 53l39 117q83 -45 166 -45z" />
    <glyph glyph-name="fiveeighths" unicode="&#x215d;" horiz-adv-x="1495" 
d="M80 0l4 20l1190 1373h164l-6 -21l-1188 -1372h-164zM498 940q0 76 -100 76t-152 -6l-13 22l113 361h359l-27 -121h-242l-43 -131h23q100 0 162 -46t61 -137q0 -130 -85 -202t-208 -72t-207 39l37 123q72 -37 160 -37q162 0 162 131zM1028 483q0 -59 82 -59q53 0 83 25
t30 65q0 64 -73 65q-74 1 -98 -28t-24 -68zM895 500q-1 90 71 150t180 59q108 1 162 -49t54 -121q0 -124 -133 -183v-2q86 -40 86 -142q-1 -102 -79 -165t-196 -63t-180 50q-61 50 -61 128t48 131t118 82v2q-70 33 -70 123zM938 182q0 -73 104 -73q72 -1 107 31t35 79
q0 78 -101 78q-77 0 -111 -34t-34 -81z" />
    <glyph glyph-name="seveneighths" unicode="&#x215e;" horiz-adv-x="1421" 
d="M6 0l4 20l1190 1373h164l-6 -21l-1188 -1372h-164zM954 483q0 -59 82 -59q53 0 83 25t30 65q0 64 -73 65q-74 1 -98 -28t-24 -68zM1072 709q108 1 162 -49t54 -121q0 -124 -133 -183v-2q88 -41 87 -143q-2 -103 -80 -165t-196 -62t-180 50q-61 50 -61 128t48 131t118 82
v2q-68 33 -69 123q-2 90 70 150t180 59zM864 182q0 -73 105 -73q73 -1 107 31t34 73q0 84 -100 84q-78 0 -112 -34t-34 -81zM563 1272h-309l27 121h458l-20 -105l-379 -588h-147l2 11l368 559v2z" />
    <glyph glyph-name="arrowleft" unicode="&#x2190;" horiz-adv-x="1826" 
d="M1827 772v-156h-1456l604 -585l-115 -115l-778 778l778 779l115 -117l-604 -584h1456z" />
    <glyph glyph-name="arrowup" unicode="&#x2191;" horiz-adv-x="1826" 
d="M1731 784l-117 -112l-584 602l-2 -1454h-156l2 1454l-585 -602l-115 112l778 779z" />
    <glyph glyph-name="arrowright" unicode="&#x2192;" horiz-adv-x="1826" 
d="M82 616v156h1456l-606 584l117 117l778 -779l-778 -778l-117 115l606 585h-1456z" />
    <glyph glyph-name="arrowdown" unicode="&#x2193;" horiz-adv-x="1826" 
d="M1030 1563v-1454l584 602l117 -113l-779 -778l-778 778l115 113l585 -602l3 1454h153z" />
    <glyph glyph-name="uni2196" unicode="&#x2196;" horiz-adv-x="1835" 
d="M1430 1356v-166l-844 12l1030 -1030l-111 -106l-1026 1030l13 -844h-166v1104h1104z" />
    <glyph glyph-name="uni2197" unicode="&#x2197;" horiz-adv-x="1832" 
d="M1647 254h-166l12 844l-1026 -1030l-109 110l1028 1026l-843 -14v166h1104v-1102z" />
    <glyph glyph-name="uni2198" unicode="&#x2198;" horiz-adv-x="1832" 
d="M545 37v166l844 -13l-1031 1027l111 108l1026 -1028l-12 844h166v-1104h-1104z" />
    <glyph glyph-name="uni2199" unicode="&#x2199;" horiz-adv-x="1835" 
d="M326 1141h166l-13 -844l1026 1028l111 -108l-1030 -1027l844 13v-166h-1104v1104z" />
    <glyph glyph-name="partialdiff" unicode="&#x2202;" horiz-adv-x="1153" 
d="M604 813q-161 0 -258.5 -122t-97.5 -302t72 -222t132 -42t127.5 35t155.5 140t119 362q-29 61 -96.5 106t-153.5 45zM1053 821q0 -166 -50.5 -332.5t-135.5 -282.5t-199 -176.5t-222 -60.5q-190 0 -284 109t-94 260q0 288 148.5 459.5t369.5 171.5q134 0 200 -50.5
t82 -74.5h4q17 344 -146 389t-259 47l41 154q266 0 372.5 -120t139.5 -223.5t33 -269.5z" />
    <glyph glyph-name="Delta" unicode="&#x2206;" horiz-adv-x="1234" 
d="M764 1219l-184 -367l-381 -709h678l-82 709l-27 367h-4zM1057 0h-1116l2 10l764 1383h176l176 -1383z" />
    <glyph glyph-name="product" unicode="&#x220f;" horiz-adv-x="1308" 
d="M1114 1282h-620l-359 -1688h-172l391 1840h963l-389 -1840h-172z" />
    <glyph glyph-name="summation" unicode="&#x2211;" horiz-adv-x="1105" 
d="M-90 -256l645 784l-289 754l33 152h875l-33 -152h-709l316 -766l-644 -770h738l-31 -152h-934z" />
    <glyph glyph-name="minus" unicode="&#x2212;" 
d="M1012 629l-31 -152h-881l33 152h879z" />
    <glyph glyph-name="uni2215" unicode="&#x2215;" 
d="M-90 0l4 20l1190 1373h164l-6 -21l-1188 -1372h-164z" />
    <glyph glyph-name="uni2219" unicode="&#x2219;" horiz-adv-x="518" 
d="M242 461q-108 1 -109 113q0 56 46 99q46 44 108 44q98 1 98 -111q0 -56 -44 -100q-43 -44 -99 -45z" />
    <glyph glyph-name="radical" unicode="&#x221a;" horiz-adv-x="1173" 
d="M20 455h158l74 -430l22 -258h2l119 253l744 1373h166l-963 -1799h-174l-152 840z" />
    <glyph glyph-name="infinity" unicode="&#x221e;" horiz-adv-x="1433" 
d="M373 395q49 0 104 39t139 121q-49 86 -86.5 121t-78.5 35q-79 0 -132 -55t-53 -121t29 -103t78 -37zM970 395q78 0 131.5 60.5t53.5 122.5q0 63 -29.5 98t-79.5 35t-101.5 -34t-139.5 -122q53 -88 89 -124t76 -36zM185.5 316.5q-70.5 70.5 -70.5 185.5q0 154 98 256
t233 102q90 0 151.5 -49t125.5 -143q114 110 181.5 151t133.5 41q119 0 194 -67.5t75 -202.5t-100.5 -239.5t-214.5 -104.5q-115 0 -177 49t-119 137q-113 -104 -182 -145t-163 -41q-95 0 -165.5 70.5z" />
    <glyph glyph-name="integral" unicode="&#x222b;" horiz-adv-x="991" 
d="M981 1280q-127 0 -186 -164l-457 -1231q-67 -175 -152.5 -248t-222.5 -73q-54 0 -123 12l27 145q56 -14 108 -14q121 0 181 164l456 1231q68 177 156 249t223 72q51 0 123 -12l-27 -145q-63 14 -106 14z" />
    <glyph glyph-name="approxequal" unicode="&#x2248;" 
d="M344 463q59 0 150.5 -36t137.5 -52.5t83 -16.5q82 0 159 70l54 -102q-107 -119 -248 -119q-57 0 -148.5 36t-136.5 52t-80 16q-88 0 -170 -71l-53 100q95 123 252 123zM809 803q82 0 160 69l53 -102q-103 -119 -248 -119q-58 0 -148.5 36t-136 52.5t-79.5 16.5
q-90 0 -168 -72l-56 100q95 123 252 123q59 0 150.5 -35.5t137.5 -52t83 -16.5z" />
    <glyph glyph-name="notequal" unicode="&#x2260;" 
d="M397 410l162 292h-412l33 152h467l141 254h154l-4 -21l-133 -233h254l-31 -152h-307l-166 -292h410l-31 -152h-463l-143 -258h-156l4 20l133 238h-256l33 152h311z" />
    <glyph glyph-name="lessequal" unicode="&#x2264;" 
d="M899 152l-31 -152h-880l32 152h879zM920 317l-777 412l29 141l952 412h17l-37 -180l-768 -307v-7l635 -307l-35 -164h-16z" />
    <glyph glyph-name="greaterequal" unicode="&#x2265;" 
d="M928 152l-31 -152h-881l33 152h879zM84 317l37 181l768 307v6l-637 307l37 164h16l776 -412l-30 -141l-951 -412h-16z" />
    <glyph glyph-name="lozenge" unicode="&#x25ca;" horiz-adv-x="1028" 
d="M827 700l-184 517l-397 -541l190 -502zM86 711l518 682h113l272 -723l-518 -670h-113z" />
    <glyph glyph-name="circle" unicode="&#x25cb;" horiz-adv-x="1638" 
d="M416 295q160 -164 401 -164t402 164t161 403t-161 401.5t-402 162.5q-240 0 -400.5 -162.5t-160.5 -401.5t160 -403zM123 698.5q0 147.5 53 274.5t146.5 220t220.5 146.5t274.5 53.5t275.5 -53.5t222 -146.5t147.5 -220t53.5 -274.5t-53.5 -275.5t-147.5 -222.5
t-222 -147.5t-275.5 -53t-274.5 53t-220.5 147.5t-146.5 222.5t-53 275.5z" />
    <glyph glyph-name="H18533" unicode="&#x25cf;" horiz-adv-x="1638" 
d="M123 698q0 297 200.5 496t495.5 199q147 0 275.5 -53.5t275 -200t146.5 -443.5q0 -147 -53.5 -275t-146.5 -221.5t-221 -146.5t-277 -53t-275.5 53t-220 146.5t-146.5 222t-53 276.5z" />
    <glyph glyph-name="uni25DC" unicode="&#x25dc;" horiz-adv-x="694" 
d="M694 1262q-240 0 -400.5 -162.5t-160.5 -401.5h-133q0 147 53 274.5t146.5 220.5t220.5 146.5t274 53.5v-131z" />
    <glyph glyph-name="uni25DD" unicode="&#x25dd;" horiz-adv-x="698" 
d="M0 1393q147 0 275 -53.5t275.5 -198.5t147.5 -443h-135q0 239 -161 401.5t-402 162.5v131z" />
    <glyph glyph-name="uni25DE" unicode="&#x25de;" horiz-adv-x="698" 
d="M0 131q242 0 402.5 164t160.5 403h135q0 -147 -53 -275t-147.5 -222.5t-222.5 -147.5t-275 -53v131z" />
    <glyph glyph-name="uni25DF" unicode="&#x25df;" horiz-adv-x="694" 
d="M694 0q-296 0 -442 147.5t-199 275.5t-53 275h133q0 -239 160 -403t401 -164v-131z" />
    <glyph glyph-name="uniEA01" unicode="&#xea01;" horiz-adv-x="2048" 
d="M1225 625h-400v-400h-200v961h200v-393h400v393h200v-961h-200v400zM1755 -47v1464h-1464v-1464h1464zM141 1567h1764v-1764h-1764v1764z" />
    <glyph glyph-name="uniEA02" unicode="&#xea02;" horiz-adv-x="2048" 
d="M1083 203q-123 0 -210 35.5t-147 102.5t-91 159t-31 262.5t124 307t345 136.5q143 0 277 -61l-56 -160q-103 49 -222 49q-118 0 -187.5 -91t-69.5 -239t72 -238.5t188 -90.5t219 49l56 -160q-144 -61 -267 -61zM1755 -47v1464h-1464v-1464h1464zM141 1567h1764v-1764
h-1764v1764z" />
    <glyph glyph-name="uniEA03" unicode="&#xea03;" horiz-adv-x="2048" 
d="M1027 1036q-130 0 -130 -104q0 -37 20.5 -63.5t79.5 -45.5l103 -32q135 -45 201.5 -107.5t66.5 -187.5t-96 -209t-267 -84q-170 0 -327 92l61 160q47 -33 124 -57.5t151 -24.5q150 0 149 114q0 45 -28.5 71t-106.5 50l-104 33q-133 43 -182.5 111.5t-49.5 158.5
q0 135 90 215t252 80t293 -67l-57 -160q-113 57 -243 57zM1755 -47v1464h-1464v-1464h1464zM141 1567h1764v-1764h-1764v1764z" />
    <glyph glyph-name="uniEA04" unicode="&#xea04;" horiz-adv-x="2048" 
d="M1225 225h200v961h-200v-393h-400v393h-200v-961h200v400h400v-400zM141 1567h1764v-1764h-1764v1764z" />
    <glyph glyph-name="uniEA05" unicode="&#xea05;" horiz-adv-x="2048" 
d="M1088 1206q-128 0 -215 -36.5t-147 -102.5t-91 -158t-31 -262t123 -307t346 -137q129 0 277 61l-56 160q-103 -49 -191.5 -49t-135.5 24.5t-99.5 91t-52.5 213.5q0 148 69.5 239t187.5 91t222 -49l56 160q-134 61 -262 61zM141 1567h1764v-1764h-1764v1764z" />
    <glyph glyph-name="uniEA06" unicode="&#xea06;" horiz-adv-x="2048" 
d="M1368 496q0 125 -66.5 187t-201.5 108l-103 32q-59 18 -79.5 45t-20.5 64q-1 104 129 104t244 -57l57 160q-130 67 -293 67q-162 0 -252 -79.5t-90 -215.5q0 -90 49.5 -158.5t182.5 -111.5l104 -33q78 -25 106.5 -50.5t28.5 -70.5q0 -115 -149 -114q-74 0 -151 24.5
t-124 57.5l-61 -160q157 -92 327 -92t266.5 84t96.5 209zM141 1567h1764v-1764h-1764v1764z" />
    <glyph glyph-name="uniF6C3" unicode="&#xf6c3;" horiz-adv-x="1087" 
d="M346 -426l98 289h174l-4 -21l-139 -288h-133z" />
    <glyph glyph-name="uniF6E1" unicode="&#xf6e1;" horiz-adv-x="380" 
d="M-152 -430l132 369h180l-4 -19l-187 -371h-125z" />
    <glyph glyph-name="uniF6E2" unicode="&#xf6e2;" horiz-adv-x="378" 
d="M98 760l131 368h181l-4 -18l-187 -371h-125z" />
    <glyph glyph-name="uniF6E5" unicode="&#xf6e5;" horiz-adv-x="489" 
d="M-10 68l22 102h295l-22 -102h-295z" />
    <glyph glyph-name="uniF6E6" unicode="&#xf6e6;" horiz-adv-x="487" 
d="M240 1257l22 103h295l-22 -103h-295z" />
    <glyph glyph-name="uniF6E7" unicode="&#xf6e7;" horiz-adv-x="368" 
d="M47 -51q91 1 91 -91q0 -48 -38 -82q-37 -34 -90 -34q-84 0 -84 91q0 48 38 82t83 34z" />
    <glyph glyph-name="uniF6E8" unicode="&#xf6e8;" horiz-adv-x="364" 
d="M297 1139q91 1 91 -91q0 -48 -38 -82q-37 -34 -90 -34q-84 0 -84 91q0 48 38 82t83 34z" />
    <glyph glyph-name="uniF8FF" unicode="&#xf8ff;" horiz-adv-x="1290" 
d="M975 119v1155h-608v-1155h608zM248 1393h846v-1393h-846v1393z" />
    <glyph glyph-name="uniFB01" unicode="&#xfb01;" horiz-adv-x="1159" 
d="M666 1300q-123 0 -156 -157l-33 -156h602l-211 -987h-168l183 850h-437l-180 -850h-168l181 850h-158l20 98l166 39l33 150q35 160 111.5 233.5t218.5 73.5q87 0 141 -14l-31 -144q-56 14 -114 14zM1032 1161q-86 1 -86 101q0 54 38 92.5t97 38.5q86 0 86 -88
q0 -61 -37.5 -102.5t-97.5 -41.5z" />
    <glyph glyph-name="uniFB02" unicode="&#xfb02;" horiz-adv-x="1179" 
d="M666 1300q-123 0 -156 -157l-33 -156h242l-31 -137h-242l-180 -850h-168l181 850h-158l20 98l166 39l33 150q35 159 112 233t218 74q87 0 141 -14l-31 -144q-56 14 -114 14zM715 0l305 1434h168l-305 -1434h-168z" />
    <glyph glyph-name="zero.pnum" horiz-adv-x="1251" 
d="M1157 946q0 -478 -199 -740q-90 -120 -204 -178t-222 -58q-290 -1 -364 284q-23 88 -23 197q0 483 205 746q92 118 207 172t220 54q195 0 287 -126q93 -126 93 -351zM776 1268q-190 0 -312 -186q-64 -98 -104 -252q-38 -156 -38 -341t48 -275t162 -89q82 0 163 44
q172 93 247 395q39 157 39 343q0 185 -47 273t-158 88z" />
    <glyph glyph-name="one.pnum" horiz-adv-x="727" 
d="M184 1085l33 166l367 142h145l-297 -1393h-178l256 1194h-4l-295 -109h-27z" />
    <glyph glyph-name="two.pnum" horiz-adv-x="1046" 
d="M268 152h566l-33 -152h-801l31 143l563 521q116 107 158 162q77 103 77 210q0 230 -204 232q-86 0 -161 -43t-140 -97l-86 132q77 68 186 115q109 48 210 48q268 0 352 -213q26 -66 26 -148q0 -158 -74 -269q-37 -57 -90 -111t-123 -117l-457 -409v-4z" />
    <glyph glyph-name="three.pnum" horiz-adv-x="1056" 
d="M711 444q0 78 -48 134t-174 55h-208l34 155h217q134 0 209 86q74 86 74 210t-106 168q-37 15 -91 16q-137 0 -309 -72l-45 135q183 94 368 93t278 -91t92 -226q-1 -137 -84 -257q-70 -97 -170 -150v-4q141 -74 141 -252q0 -211 -150 -343t-372 -132t-361 105l68 135
q127 -84 307 -84q138 0 234 90q96 89 96 229z" />
    <glyph glyph-name="four.pnum" horiz-adv-x="1140" 
d="M989 983l-112 -528h155l-33 -152h-155l-64 -303h-172l64 303h-643l26 125l590 965h178l-567 -938h449l112 528h172z" />
    <glyph glyph-name="five.pnum" horiz-adv-x="1032" 
d="M522 846q166 0 266 -80t100 -232q1 -280 -151 -423q-153 -142 -415 -142q-115 0 -257 51q-40 14 -69 31l55 146q145 -72 299 -72t255 89t102 271q0 205 -236 205q-124 0 -256 -10l-18 29l219 684h620l-32 -152h-472l-126 -399q62 4 116 4z" />
    <glyph glyph-name="six.pnum" horiz-adv-x="1107" 
d="M815 534q0 94 -55 156q-56 62 -142 64q-156 1 -254 -109q-98 -109 -98 -276q0 -109 53 -177t139 -67q154 0 256 116q101 115 101 293zM477 846q78 63 213 63t222 -102t85 -262q0 -238 -150 -407t-386 -169q-179 0 -278 107t-99 256q0 269 188 508l435 553h198l-4 -21
l-428 -522z" />
    <glyph glyph-name="seven.pnum" horiz-adv-x="942" 
d="M813 1241h-600l31 152h794l-30 -138l-705 -1255h-188l4 20l694 1217v4z" />
    <glyph glyph-name="eight.pnum" horiz-adv-x="1161" 
d="M629 807q135 0 207 82t71 205q0 80 -44 127t-125 47q-140 0 -215 -78t-77 -209q0 -80 46 -127t137 -47zM1090 1116q0 -257 -250 -391v-4q66 -37 110 -113t43 -171q0 -199 -140 -334q-140 -134 -382 -134q-191 0 -293 96t-101 244t92 261q91 114 218 171v4q-43 31 -82 89
t-39 148q0 189 122 315t351 126q174 -1 262 -87q89 -86 89 -220zM466 125q259 0 331 200q20 58 20 136t-52 134q-53 56 -155 56q-102 -1 -166 -27t-104 -71q-41 -45 -60 -103q-20 -58 -20 -135t53 -133t153 -57z" />
    <glyph glyph-name="nine.pnum" horiz-adv-x="1110" 
d="M348 858q0 -94 55 -156t141 -63q155 0 254 108t99 277q0 108 -53 176q-54 68 -140 68q-154 0 -255 -116q-101 -115 -101 -294zM702 1423q180 0 279 -108q100 -108 98 -275q0 -251 -188 -487l-434 -553h-199l4 20l432 533l-4 4q-92 -74 -221 -74t-217 102t-86 263
q0 239 150 407t386 168z" />
    <glyph glyph-name="uni0444.aalt" horiz-adv-x="1300" 
d="M1004 603q0 220 -213 257l-156 -733q168 25 268.5 140.5t100.5 335.5zM262 385q0 -163 74 -207.5t131 -52.5l156 735q-164 -20 -262.5 -138t-98.5 -337zM86 387q0 90 26.5 197.5t132 254.5t410.5 171l90 424h168l-90 -424q185 -23 270 -129t85 -267q0 -393 -201 -508.5
t-373 -128.5l-82 -383h-168l82 383q-350 36 -350 410z" />
    <glyph glyph-name="Euro.aalt" horiz-adv-x="1103" 
d="M375 457q-9 -332 260 -332q139 0 276 65l39 -131q-180 -90 -329 -90q-215 0 -320.5 131t-101.5 357h-156l29 135h141q19 118 41 203h-139l28 135h156q136 358 310.5 425.5t264.5 67.5q170 0 308 -90l-56 -131q-107 66 -247 66q-271 0 -406 -338h416l-29 -135h-438
q-28 -83 -43 -203h440l-28 -135h-416z" />
    <glyph glyph-name="uni20A8.aalt" 
d="M399 715q135 0 208 53t108 139h-482l29 135h477q-7 138 -87.5 167.5t-141.5 29.5h-207l33 154h809l-29 -136h-301v-4q41 -29 69.5 -85t28.5 -126h156l-29 -135h-145q-78 -243 -243 -290.5t-246 -49.5l362 -534l-6 -33h-182l-406 608l21 107h204z" />
    <glyph glyph-name="registered.aalt" horiz-adv-x="1687" 
d="M254 600q0 -241 134 -381.5t349 -140.5q150 0 285 58.5t237.5 158.5t163 234.5t60.5 262.5q0 242 -134 382.5t-350 140.5q-147 0 -282 -58.5t-238.5 -159t-164 -234t-60.5 -263.5zM139 596q0 152 72 307.5t191.5 271t275.5 182t308 66.5q285 0 449 -173.5t164 -428.5
q0 -178 -71.5 -332.5t-191 -270.5t-276 -182.5t-308.5 -66.5t-261.5 46t-187.5 128t-121 191.5t-43 261.5zM1047 877q0 79 -107 79h-168l-45 -213h168q152 0 152 134zM965 1079q233 0 233 -193q0 -97 -61.5 -165t-167.5 -90l155 -299l-4 -19h-147l-150 310h-123l-65 -310
h-141l161 766h310z" />
    <glyph glyph-name="guillemotleft.aalt" horiz-adv-x="1011" 
d="M143 711l373 428l100 -88l-288 -363l135 -362l-123 -68l-203 428zM508 711l373 428l100 -88l-289 -363l135 -362l-122 -68l-203 428z" />
    <glyph glyph-name="bracketleft.aalt" horiz-adv-x="655" 
d="M786 1618l-20 -96l-234 -47l-329 -1553l213 -47l-21 -96h-393l391 1839h393z" />
    <glyph glyph-name="guilsinglright.aalt" horiz-adv-x="651" 
d="M559 686l-375 -428l-100 88l289 363l-135 362l122 68l203 -428z" />
    <glyph glyph-name="bar.aalt" horiz-adv-x="477" 
d="M135 -221h-133l391 1839h133z" />
    <glyph glyph-name="periodcentered.aalt" horiz-adv-x="536" 
d="M310 821q106 -1 106 -111q0 -56 -44 -100q-44 -45 -100 -45q-108 -1 -108 113q0 56 46 100t100 43z" />
    <glyph glyph-name="bullet.aalt" horiz-adv-x="702" 
d="M197 674q0 78 61 138q62 60 142 60t116 -38t37 -115q0 -78 -60 -138t-155 -61q-141 0 -141 154z" />
    <glyph glyph-name="emdash.aalt" horiz-adv-x="1703" 
d="M170 623l33 151h1378l-33 -151h-1378z" />
    <glyph glyph-name="bracketright.aalt" horiz-adv-x="653" 
d="M702 1618l-391 -1839h-393l21 96l231 47l332 1553l-213 47l20 96h393z" />
    <glyph glyph-name="endash.aalt" horiz-adv-x="1105" 
d="M170 623l33 151h780l-33 -151h-780z" />
    <glyph glyph-name="hyphen.case" horiz-adv-x="856" 
d="M170 623l33 151h530l-33 -151h-530z" />
    <glyph glyph-name="guillemotright.aalt" horiz-adv-x="1015" 
d="M559 686l-375 -428l-100 88l289 363l-135 362l122 68l203 -428zM924 686l-375 -428l-100 88l288 363l-135 362l123 68l203 -428z" />
    <glyph glyph-name="parenleft.case" horiz-adv-x="604" 
d="M121 293q0 248 38 431q73 352 253 653q86 144 182 274l108 -72q-207 -330 -309 -648t-102 -659q0 -250 49 -485l-131 -45q-88 303 -88 551z" />
    <glyph glyph-name="guilsinglleft.aalt" horiz-adv-x="647" 
d="M143 711l373 428l100 -88l-288 -363l135 -362l-123 -68l-203 428z" />
    <glyph glyph-name="braceright.aalt" horiz-adv-x="677" 
d="M336 1618q180 0 242 -85q50 -73 16 -233l-82 -378q-16 -82 12 -115t101 -33l-33 -151q-72 0 -115 -33t-59 -115l-86 -409q-29 -146 -89 -206q-83 -83 -257 -81h-58l23 106q104 0 147 39t70 158l80 383q42 189 194 240v4q-133 50 -92 239l80 367q25 117 -2 157
q-26 39 -131 39l22 107h17z" />
    <glyph glyph-name="braceleft.aalt" horiz-adv-x="677" 
d="M743 1618h58l-23 -107q-106 0 -148 -40t-69 -156l-80 -383q-42 -190 -194 -240v-4q134 -50 92 -239l-80 -367q-25 -117 1 -156t132 -41l-22 -106h-17q-266 0 -272 185q-2 58 14 132l82 379q16 82 -12 115q-29 33 -101 33l33 151q72 0 115 33t59 115l86 409q29 146 89 206
q81 81 257 81z" />
    <glyph glyph-name="parenright.case" horiz-adv-x="604" 
d="M532 1100q0 -248 -38 -431q-70 -343 -252 -654q-86 -144 -183 -273l-108 72q207 328 309 647t102 625t-49 520l131 45q88 -303 88 -551z" />
    <glyph glyph-name="minus.case" horiz-adv-x="1603" 
d="M512 612l33 152h839l-30 -152h-842z" />
    <glyph glyph-name="zero.frac" horiz-adv-x="712" 
d="M537 1405q100 -1 154 -73t54 -176q0 -204 -95 -338t-261 -134q-115 0 -169 74t-54 178q0 204 95 337q96 132 276 132zM406 809q97 0 149 90q53 90 53 235q0 146 -102 146q-91 0 -147 -88t-56 -236q0 -147 103 -147z" />
    <glyph glyph-name="one.frac" horiz-adv-x="477" 
d="M170 1157l25 125l262 111h96l-145 -693h-132l115 539h-2l-205 -82h-14z" />
    <glyph glyph-name="two.frac" horiz-adv-x="618" 
d="M438 1284q-70 0 -159 -76l-70 99q56 44 113 73t141 29t144 -51q61 -51 61 -140q0 -88 -39 -144t-99 -101l-194 -148v-2h256l-27 -123h-463l23 105l326 254q76 57 75 143q0 82 -88 82z" />
    <glyph glyph-name="three.frac" horiz-adv-x="612" 
d="M315 809q156 0 156 113q0 66 -115 65h-112l26 123h113q73 0 103 32t30 72q0 70 -89 70t-173 -35l-35 113q96 47 208 47q111 0 171 -50t59 -124q0 -74 -46 -126q-36 -45 -91 -60v-2q86 -37 85 -139q-1 -101 -71 -163q-71 -61 -207 -61t-216 53l39 117q83 -45 165 -45z" />
    <glyph glyph-name="four.frac" horiz-adv-x="645" 
d="M293 969h174l47 221h133l-47 -221h76l-27 -121h-76l-30 -148h-133l32 148h-329l22 106l271 439h147l-260 -422v-2z" />
    <glyph glyph-name="five.frac" horiz-adv-x="591" 
d="M457 940q0 76 -100 76t-152 -6l-12 22l112 361h359l-27 -121h-242l-43 -131h23q99 0 161 -46t62 -137q0 -130 -85 -202t-208 -72t-207 39l37 123q72 -37 160 -37q162 0 162 131z" />
    <glyph glyph-name="six.frac" horiz-adv-x="636" 
d="M522 946q0 88 -98 86q-68 0 -107 -36t-38 -101q0 -86 98 -86q65 -1 105 35t40 102zM477 1161q86 0 135 -58q50 -59 50 -127q1 -196 -169 -268q-54 -24 -122 -24q-115 0 -173 61t-58 158t83 201l240 289h155l-2 -11l-204 -231v-2q30 12 65 12z" />
    <glyph glyph-name="seven.frac" horiz-adv-x="557" 
d="M506 1272h-309l26 121h459l-20 -105l-379 -588h-148l2 11l369 559v2z" />
    <glyph glyph-name="eight.frac" horiz-adv-x="657" 
d="M446 1124q53 0 83 25t30 65q0 66 -73 66q-74 0 -98 -29t-23 -67q0 -60 81 -60zM482 1409q108 0 162 -49t54 -124t-43 -117t-90 -62v-2q88 -41 87 -144q-2 -103 -80 -165t-196 -62t-179 50t-62 128q0 78 48 131t118 82v2q-68 33 -69 123q-2 90 70 150t180 59zM274 883
q0 -74 105 -74q73 0 107 32t34 79q0 79 -100 77q-78 1 -112 -33t-34 -81z" />
    <glyph glyph-name="nine.frac" horiz-adv-x="636" 
d="M313 1147q0 -88 99 -86q68 0 106 36t39 101q0 86 -98 86q-66 0 -106 -36t-40 -101zM358 932q-86 0 -135 58t-49 158t81 180q81 81 203 81t180 -61t58 -144q0 -47 -15 -98t-69 -117l-239 -289h-156l2 11l205 231v2q-30 -12 -66 -12z" />
    <glyph glyph-name="comma.numr" horiz-adv-x="378" 
d="M47 514l131 369h180l-4 -19l-186 -370h-125z" />
    <glyph glyph-name="plus.numr" horiz-adv-x="505" 
d="M422 1114h127l-21 -102h-129l-32 -154h-111l33 154h-127l22 102h125l33 150h111z" />
    <glyph glyph-name="hyphen.numr" horiz-adv-x="487" 
d="M188 1012l23 102h295l-23 -102h-295z" />
    <glyph glyph-name="minus.numr" horiz-adv-x="559" 
d="M188 1012l23 102h364l-20 -102h-367z" />
    <glyph glyph-name="parenleft.numr" horiz-adv-x="362" 
d="M156 907q0 255 172 497q47 67 90 122l74 -66q-98 -131 -156 -269q-58 -139 -57 -313q0 -174 24 -286l-86 -27q-61 154 -61 342z" />
    <glyph glyph-name="period.numr" horiz-adv-x="366" 
d="M209 686q-84 0 -84 91q0 48 38 82t83 34q90 0 90 -82q0 -57 -37 -91t-90 -34z" />
    <glyph glyph-name="parenright.numr" horiz-adv-x="364" 
d="M408 1184q0 -255 -172 -497q-47 -67 -91 -122l-73 66q98 131 155 269t57 310t-24 289l86 27q62 -156 62 -342z" />
    <glyph glyph-name="zero.dnom" horiz-adv-x="712" 
d="M596 454q0 -204 -94.5 -337t-261.5 -133q-115 0 -169.5 74t-54.5 178q0 206 96 337.5t261 131.5q115 0 169 -73.5t54 -177.5zM459 435q0 144 -103 145q-92 0 -147 -89t-55 -236q0 -146 100 -146t152.5 91t52.5 235z" />
    <glyph glyph-name="one.dnom" horiz-adv-x="477" 
d="M20 457l25 125l262 110h96l-145 -692h-131l115 539h-2l-205 -82h-15z" />
    <glyph glyph-name="two.dnom" horiz-adv-x="618" 
d="M377 502q0 82 -88 82q-47 0 -86 -23.5t-74 -52.5l-70 98q92 71 147.5 87t98.5 16q92 0 152.5 -51.5t60.5 -140.5t-39 -144.5t-98 -100.5l-195 -147v-2h256l-26 -123h-463l22 104l326 254q76 57 76 144z" />
    <glyph glyph-name="three.dnom" horiz-adv-x="612" 
d="M166 109q156 0 156 112q0 66 -115 66h-113l27 123h112q74 0 104 31.5t30 72.5q0 70 -87 70t-176 -35l-34 113q96 47 208 47q111 0 170.5 -50.5t59.5 -122.5t-42.5 -123t-94.5 -65v-2q84 -36 84 -138q0 -101 -71 -162.5t-207 -61.5t-216 53l39 117q83 -45 166 -45z" />
    <glyph glyph-name="four.dnom" horiz-adv-x="647" 
d="M145 268h174l48 221h133l-47 -221h75l-26 -121h-76l-31 -147h-133l33 147h-330l23 107l270 438h148l-261 -422v-2z" />
    <glyph glyph-name="five.dnom" horiz-adv-x="591" 
d="M307 240q0 76 -100 76t-152 -7l-12 23l113 360h358l-27 -121h-241l-43 -131h22q100 0 162 -46t62 -136q0 -129 -85 -201.5t-208 -72.5t-207 39l37 122q70 -36 159 -36q162 0 162 131z" />
    <glyph glyph-name="six.dnom" horiz-adv-x="636" 
d="M373 246q0 86 -99 86q-68 0 -106.5 -36t-38.5 -101q0 -86 98 -86q66 0 106 35.5t40 101.5zM328 461q86 0 135 -58.5t49 -126.5q0 -131 -81.5 -211.5t-202.5 -80.5q-122 0 -180 61t-58 143q0 47 15 98.5t69 116.5l239 289h156l-2 -10l-205 -231v-2q30 12 66 12z" />
    <glyph glyph-name="seven.dnom" horiz-adv-x="559" 
d="M358 571h-309l27 121h459l-21 -104l-379 -588h-147l2 10l368 559v2z" />
    <glyph glyph-name="eight.dnom" horiz-adv-x="657" 
d="M217 483q0 -59 82 -59q53 0 83 24.5t30 59.5q0 72 -73 72t-97.5 -29t-24.5 -68zM84 500q0 90 71 149.5t179 59.5t162.5 -49.5t54.5 -120.5q0 -124 -133 -183v-2q86 -40 86 -143t-78.5 -165t-196.5 -62q-119 0 -180 50t-61 128t48 131t118 82v2q-70 33 -70 123zM127 182
q0 -73 104 -73q72 0 107 31.5t35 78.5q0 78 -101 78q-78 0 -111.5 -34t-33.5 -81z" />
    <glyph glyph-name="nine.dnom" horiz-adv-x="634" 
d="M164 446q0 -86 98 -86q68 0 107 36t39 102q0 86 -99 86q-66 0 -105.5 -36t-39.5 -102zM25 416q0 132 80.5 212.5t202.5 80.5t180.5 -61.5t58.5 -158.5t-84 -200l-240 -289h-155l2 10l204 232v2q-32 -13 -65 -13q-86 0 -135 58.5t-49 126.5z" />
    <glyph glyph-name="comma.dnom" horiz-adv-x="382" 
d="M-100 -186l131 368h180l-4 -18l-187 -371h-124z" />
    <glyph glyph-name="plus.dnom" horiz-adv-x="501" 
d="M270 414h127l-20 -103h-129l-33 -153h-111l33 153h-127l23 103h125l32 149h111z" />
    <glyph glyph-name="parenright.dnom" horiz-adv-x="468" 
d="M311 483q0 -253 -109.5 -408t-152.5 -210l-74 65q98 131 155.5 269.5t57.5 310.5t-24 289l86 26q61 -154 61 -342z" />
    <glyph glyph-name="hyphen.dnom" horiz-adv-x="489" 
d="M39 311l22 103h295l-22 -103h-295z" />
    <glyph glyph-name="minus.dnom" horiz-adv-x="559" 
d="M39 311l22 103h365l-20 -103h-367z" />
    <glyph glyph-name="parenleft.dnom" horiz-adv-x="362" 
d="M6 207q0 253 109.5 408t152.5 210l74 -65q-98 -131 -155.5 -269.5t-57.5 -317.5t25 -282l-86 -26q-62 156 -62 342z" />
    <glyph glyph-name="period.dnom" horiz-adv-x="368" 
d="M61 -14q-84 0 -84 91q0 48 38 82t83 34q90 0 90 -82q0 -57 -36.5 -91t-90.5 -34z" />
    <glyph glyph-name="minus.sinf" horiz-adv-x="559" 
d="M-10 68l22 102h365l-21 -102h-366z" />
    <glyph glyph-name="plus.sinf" horiz-adv-x="501" 
d="M221 170h127l-20 -102h-129l-33 -154h-111l33 154h-127l23 102h125l32 149h111z" />
    <glyph glyph-name="glyph704" horiz-adv-x="1087" 
d="M963 1475l-103 -310h-174l4 21l139 289h134z" />
    <glyph glyph-name="glyph705" horiz-adv-x="1087" 
d="M668 1104l98 289h182l-4 -21l-139 -289h-141z" />
    <glyph glyph-name="glyph706" horiz-adv-x="1087" 
d="M346 -426l98 289h174l-4 -21l-139 -288h-133z" />
    <glyph glyph-name="glyph707" horiz-adv-x="1087" 
d="M770 1808h176l68 -247l-4 -21h-138l-106 248z" />
    <glyph glyph-name="glyph708" horiz-adv-x="1087" 
d="M1090 1788l-213 -248h-154l4 21l174 247h193z" />
    <glyph glyph-name="glyph709" horiz-adv-x="1087" 
d="M1145 1561l-4 -21h-146l-86 146l-145 -146h-162l4 21l228 247h190z" />
    <glyph glyph-name="glyph710" horiz-adv-x="1087" 
d="M655 1788l4 20h146l84 -145l147 145h162l-4 -20l-227 -248h-191z" />
    <glyph glyph-name="glyph711" horiz-adv-x="1085" 
d="M1184 1677q-102 -116 -176 -116q-42 0 -69.5 12t-78 40.5t-88.5 28.5q-67 0 -129 -71l-37 102q100 117 172 117q46 0 73.5 -13.5t78 -41t102 -27.5t115.5 72z" />
    <glyph glyph-name="glyph712" horiz-adv-x="1087" 
d="M1126 1784q88 0 88 -88q0 -61 -36.5 -99t-98.5 -38q-86 0 -86 86q0 59 37 99t96 40zM584 1645q0 59 37 99t87 40q98 0 97 -88q0 -61 -38 -99t-99 -38q-84 0 -84 86z" />
    <glyph glyph-name="glyph713" horiz-adv-x="1087" 
d="M637 1591l33 152h489l-33 -152h-489z" />
    <glyph glyph-name="glyph714" horiz-adv-x="1185" 
d="M1028 1372l-154 -289h-131l5 21l110 289h174z" />
    <glyph glyph-name="glyph715" horiz-adv-x="1085" 
d="M872 1563q-86 0 -146 36.5t-95 81.5l61 101q83 -66 203 -66t238 66l32 -115q-122 -104 -293 -104z" />
    <glyph glyph-name="glyph716" horiz-adv-x="1089" 
d="M709 1659q0 111 63.5 169t151.5 58t131 -41t43 -112q0 -109 -64 -169.5t-152 -60.5t-130.5 42t-42.5 114zM821 1675q0 -66 64 -65q43 0 72.5 28.5t29.5 77.5q0 63 -65 64q-43 0 -72 -28t-29 -77z" />
    <glyph glyph-name="glyph717" horiz-adv-x="1087" 
d="M1237 1788l-211 -248h-154l5 21l172 247h192zM924 1788l-211 -248h-154l4 21l172 247h193z" />
    <glyph glyph-name="glyph718" horiz-adv-x="1087" 
d="M922 1784q88 0 88 -88q0 -61 -38 -99t-100 -38q-84 0 -84 86q0 59 37 99t97 40z" />
    </font>
</defs>
</svg>
