<?xml version="1.0" standalone="no"?>
<!DOCTYPE svg PUBLIC "-//W3C//DTD SVG 1.1//EN" "http://www.w3.org/Graphics/SVG/1.1/DTD/svg11.dtd" >
<svg xmlns="http://www.w3.org/2000/svg">
<metadata>
Created by FontPrep 20130207 at Tue Apr  7 21:17:05 2015
 By Christoph
Copyright (c) 2015 by Volkswagen AG. All rights reserved.
</metadata>
<defs>
<font id="194f5394ae2e9c74dc3c441b92862d1d" >
  <font-face 
    font-family="Font"
    font-weight="700"
    font-stretch="normal"
    units-per-em="2048"
    panose-1="2 11 8 4 4 2 0 0 0 3"
    ascent="1638"
    descent="-410"
    x-height="987"
    cap-height="1393"
    bbox="-410 -451 2288 1931"
    underline-thickness="184"
    underline-position="-41"
    unicode-range="U+0020-FB02"
  />
<missing-glyph horiz-adv-x="1050" 
d="M829 119v1155h-608v-1155h608zM102 1393h846v-1393h-846v1393z" />
    <glyph glyph-name=".notdef" horiz-adv-x="1050" 
d="M829 119v1155h-608v-1155h608zM102 1393h846v-1393h-846v1393z" />
    <glyph glyph-name="glyph1" horiz-adv-x="0" 
 />
    <glyph glyph-name="glyph2" horiz-adv-x="460" 
 />
    <glyph glyph-name="space" unicode=" " horiz-adv-x="460" 
 />
    <glyph glyph-name="exclam" unicode="!" horiz-adv-x="561" 
d="M121 137q0 74 43 122t116 48t115.5 -48t42.5 -122t-43 -121t-115 -47t-115.5 47t-43.5 121zM143 1393h273v-316l-58 -596h-155l-60 596v316z" />
    <glyph glyph-name="quotedbl" unicode="&#x22;" horiz-adv-x="856" 
d="M477 1393h260v-195l-53 -369h-154l-53 369v195zM119 1393h260v-195l-53 -369h-154l-53 369v195z" />
    <glyph glyph-name="numbersign" unicode="#" horiz-adv-x="1380" 
d="M502 510h278l94 364h-278zM174 0v20l82 316h-180v174h225l94 364h-170v175h215l88 344h197v-21l-84 -323h279l88 344h198v-21l-84 -323h183v-175h-228l-94 -364h172v-174h-217l-86 -336h-197v20l80 316h-278l-86 -336h-197z" />
    <glyph glyph-name="dollar" unicode="$" 
d="M774 383q0 96 -115 160v-344q115 63 115 184zM506 1200q-125 -55 -125 -169.5t125 -178.5v348zM500 1577h166v-158q159 -22 299 -90l-78 -201q-106 54 -221 72v-399h2q256 -102 301 -213t45 -188q0 -154 -97.5 -269t-250.5 -147v-246h-166v233q-203 10 -389 133l84 197
q137 -95 305 -113v412l-60 25q-299 118 -299 374q0 257 137.5 329.5t221.5 86.5v162z" />
    <glyph glyph-name="percent" unicode="%" horiz-adv-x="1648" 
d="M684 1029q0 -257 -169 -344q-58 -30 -137 -30t-135 30q-165 88 -165 345q0 169 72 264q81 111 230 111t230 -111q74 -102 74 -265zM502 1030q0 217 -125 217q-51 0 -85 -53t-34 -167t34 -164t85 -50q125 0 125 217zM1571 357q0 -161 -78 -268t-227 -106q-150 1 -226 105
q-75 104 -75 270q0 260 164 345q55 30 135 30t138 -30q169 -87 169 -346zM1389 358q0 217 -125 217q-51 0 -85 -53t-34 -167t34 -164t85 -50q125 0 125 217zM256 0v20l934 1373h213v-21l-934 -1372h-213z" />
    <glyph glyph-name="ampersand" unicode="&#x26;" horiz-adv-x="1415" 
d="M489 1072q0 -104 74 -185l27 -33l55 37q117 77 117 172q0 72 -37 111.5t-101 39.5t-99.5 -45t-35.5 -97zM362 358q0 -74 48.5 -127t135.5 -53t143 34t116 87l-262 297q-181 -106 -181 -238zM512 -31q-183 0 -295.5 104t-112.5 284t49 213l255 171l-80 99q-80 98 -80 242
q0 137 104.5 239t265.5 102t267 -102t106 -258q0 -191 -215 -326l-43 -28l219 -238q32 45 101 147l92 142l172 -129l-86 -133q-84 -125 -133 -185l270 -293v-20h-303l-129 143q-199 -174 -424 -174z" />
    <glyph glyph-name="quotesingle" unicode="'" horiz-adv-x="497" 
d="M119 1393h260v-195l-53 -369h-154l-53 369v195z" />
    <glyph glyph-name="parenleft" unicode="(" horiz-adv-x="573" 
d="M332 514q0 -504 160 -885l-146 -67q-172 294 -210 548.5t-38 467.5t68.5 456t179.5 432l146 -67q-160 -381 -160 -885z" />
    <glyph glyph-name="parenright" unicode=")" horiz-adv-x="573" 
d="M227 1466q248 -425 248 -952t-248 -952l-145 67q160 381 160 885t-160 885z" />
    <glyph glyph-name="asterisk" unicode="*" horiz-adv-x="911" 
d="M379 946l-184 -137l-99 172l213 92v4l-213 92l97 172l184 -137l4 2l-25 228h199l-27 -228l4 -2l185 137l98 -172l-213 -90v-4l213 -94l-96 -172l-187 139l-4 -2l27 -231h-199l27 229z" />
    <glyph glyph-name="plus" unicode="+" 
d="M672 662h372v-211h-372v-398h-219v398h-371v211h371v395h219v-395z" />
    <glyph glyph-name="comma" unicode="," horiz-adv-x="528" 
d="M416 276v-20l-187 -586h-188v21l123 585h252z" />
    <glyph glyph-name="hyphen" unicode="-" horiz-adv-x="843" 
d="M133 451v211h578v-211h-578z" />
    <glyph glyph-name="period" unicode="." horiz-adv-x="542" 
d="M109 137q0 74 45.5 122t117.5 48t117 -48t45 -122t-45 -121t-118 -47t-117.5 47t-44.5 121z" />
    <glyph glyph-name="slash" unicode="/" horiz-adv-x="839" 
d="M51 0v20l522 1373h215v-21l-522 -1372h-215z" />
    <glyph glyph-name="zero" unicode="0" 
d="M51 886q0 537 511 537t511 -628t-187.5 -727t-323.5 -99q-264 0 -387.5 190t-123.5 727zM313 696q0 -125 13.5 -220t42 -159.5t77 -97.5t118 -33t116.5 33t75.5 97.5t42 159.5t13.5 220t-13.5 220.5t-42 160t-75.5 97t-116.5 32.5t-118 -32.5t-77 -97t-42 -160
t-13.5 -220.5z" />
    <glyph glyph-name="one" unicode="1" 
d="M215 1053v225l313 115h185v-1182h268v-211h-807v211h283v917h-4l-213 -75h-25z" />
    <glyph glyph-name="two" unicode="2" 
d="M535 1423q206 0 326 -118t120 -309t-87 -295.5t-114 -133.5l-338 -352v-4h553v-211h-874v193l467 507q71 82 101 140.5t30 122.5q0 112 -53 177.5t-142 65.5q-90 0 -153.5 -43t-120.5 -100l-133 162q172 198 418 198z" />
    <glyph glyph-name="three" unicode="3" 
d="M498 186q105 0 173 57.5t68 154.5q0 200 -241 200h-213v215h215q155 0 178.5 77t23.5 119q0 88 -51.5 142.5t-150.5 54.5q-150 0 -303 -69l-74 194q78 41 182.5 66.5t194.5 25.5q231 0 348 -104.5t117 -277.5t-82 -237.5t-115 -76.5v-4q94 -39 161.5 -126t67.5 -201
q0 -211 -129.5 -319t-364.5 -108t-409 105l68 198q154 -86 336 -86z" />
    <glyph glyph-name="four" unicode="4" 
d="M922 940v-428h143v-211h-143v-301h-256v301h-619v178l359 914h256l-334 -877v-4h338v428h256z" />
    <glyph glyph-name="five" unicode="5" 
d="M504 649q-115 0 -275 -16l-36 37l67 723h688v-211h-471l-26 -316q29 2 34 2h50q332 0 398 -160.5t66 -279.5q0 -221 -141 -340t-381 -119q-167 0 -375 78l58 211q167 -72 323 -72q254 0 254 242q0 221 -233 221z" />
    <glyph glyph-name="six" unicode="6" 
d="M568 702q-100 0 -160 -65.5t-60 -185.5t59 -192.5t160 -72.5t161 73t60 193t-60 185t-160 65zM668 920q72 0 143.5 -34t153.5 -132.5t82 -304.5t-126.5 -343t-352.5 -137t-354 136t-128 334t90 356l348 598h279v-21l-309 -502v-4q23 14 62.5 34t111.5 20z" />
    <glyph glyph-name="seven" unicode="7" 
d="M721 1182h-588v211h864v-191l-475 -1202h-270v20l469 1158v4z" />
    <glyph glyph-name="eight" unicode="8" 
d="M522 1206q-133 0 -133 -188t133 -187.5t176 52t43 136.5t-43 136t-176 51zM999 1038q0 -212 -176 -303v-4q98 -40 163 -134.5t65 -202.5q0 -109 -31 -184t-92.5 -128t-152.5 -83t-268 -30t-304 109.5t-127 297.5q0 189 90 262t137 93v4q-117 57 -146.5 150t-29.5 165
q0 166 109 269.5t326 103.5t327 -103.5t110 -281.5zM563 186q117 0 172.5 61.5t55.5 154.5t-55.5 153.5t-172.5 60.5t-170 -60t-53 -154t53 -155t170 -61z" />
    <glyph glyph-name="nine" unicode="9" 
d="M558 690q99 0 160.5 65.5t61.5 185.5t-60.5 192.5t-160.5 72.5t-159.5 -72t-59.5 -192q0 -121 59.5 -186.5t158.5 -65.5zM632 524q-1 0 -1 2q-23 -14 -62 -33.5t-111 -19.5t-144 34t-154 131.5t-82 305.5t127 343.5t355 135.5q227 0 352.5 -136t125.5 -335t-88 -356
l-348 -596h-280v20l311 502q0 2 -1 2z" />
    <glyph glyph-name="colon" unicode=":" horiz-adv-x="591" 
d="M133 848q0 74 45 122t118 48t118 -48t45 -122t-45 -121t-118 -47t-118 47t-45 121zM133 137q0 74 45 122t118 48t118 -48t45 -122t-45 -121t-118 -47t-118 47t-45 121z" />
    <glyph glyph-name="semicolon" unicode=";" horiz-adv-x="591" 
d="M432 276v-20l-186 -586h-189v21l123 585h252zM145 848q0 74 45 122t118 48t118 -48t45 -122t-45 -121t-118 -47t-118 47t-45 121z" />
    <glyph glyph-name="less" unicode="&#x3c;" 
d="M1016 1116v-223l-742 -336v-6l742 -336v-223h-19l-944 461v202l944 461h19z" />
    <glyph glyph-name="equal" unicode="=" 
d="M1044 430v-211h-962v211h962zM82 682v211h962v-211h-962z" />
    <glyph glyph-name="greater" unicode="&#x3e;" 
d="M111 -8v223l741 336v6l-741 336v223h18l944 -461v-202l-944 -461h-18z" />
    <glyph glyph-name="question" unicode="?" horiz-adv-x="948" 
d="M279 137q0 74 43 122t114.5 48t114.5 -48t43 -122t-43 -121t-114.5 -47t-114.5 47t-43 121zM548.5 1148q-43.5 54 -122.5 54q-80 0 -137.5 -36t-114.5 -87l-121 178q103 110 211.5 138t173.5 28q199 0 314.5 -102t115.5 -268t-85.5 -263t-219.5 -172l-24 -137h-203
l-12 267q132 52 200 116t68 147t-43.5 137z" />
    <glyph glyph-name="at" unicode="@" horiz-adv-x="1857" 
d="M725 494q0 -78 36 -127.5t105 -49.5t115.5 22.5t62.5 35.5l68 416q-57 53 -130 53q-125 0 -191 -101.5t-66 -248.5zM947 -287q-403 0 -629 224t-226 636q0 174 61.5 336t177 285t283.5 196.5t368 73.5t347.5 -60.5t247.5 -164.5t153.5 -243.5t53.5 -289.5t-38 -263
t-99.5 -190t-140.5 -116t-158 -39q-181 0 -252 131h-4q-137 -106 -277 -106t-227.5 100.5t-87.5 257.5q0 216 117 385.5t309 169.5q86 0 139 -31.5t92 -64.5h2l47 72h160l-98 -545q-8 -47 -8 -124t104 -77q99 0 170.5 113t71.5 319q0 261 -154.5 431.5t-468.5 170.5
q-315 0 -509.5 -210.5t-194.5 -525.5t170.5 -502t492.5 -187q131 0 330 53l41 -151q-166 -64 -366 -64z" />
    <glyph glyph-name="A" unicode="A" horiz-adv-x="1267" 
d="M631 1167l-94 -374l-84 -285h360l-86 285l-90 374h-6zM1245 0h-274l-86 305h-500l-88 -305h-272l458 1393h299z" />
    <glyph glyph-name="B" unicode="B" horiz-adv-x="1243" 
d="M428 811h193q167 0 190 64.5t23 115.5q0 104 -49.5 147.5t-168.5 43.5h-188v-371zM631 1393q227 0 346 -88t119 -283q0 -117 -53.5 -190.5t-120.5 -104.5v-4q102 -39 164.5 -120t62.5 -212q0 -193 -108.5 -292t-350.5 -99h-518v1393h459zM428 211h240q115 0 167 50.5
t52 152.5t-53.5 151t-180.5 49h-225v-403z" />
    <glyph glyph-name="C" unicode="C" horiz-adv-x="1155" 
d="M736 -31q-308 0 -469 197.5t-161 529.5q0 331 160 529t451 198q184 0 356 -90l-67 -194q-128 67 -288 67t-254.5 -142t-94.5 -368t95 -368t253 -142q159 0 289 68l67 -195q-171 -90 -337 -90z" />
    <glyph glyph-name="D" unicode="D" horiz-adv-x="1316" 
d="M541 211q234 0 318.5 113.5t84.5 371.5t-85 372t-318 114h-113v-971h113zM172 1393h393q505 0 573 -264.5t68 -433.5q0 -350 -149.5 -522.5t-491.5 -172.5h-393v1393z" />
    <glyph glyph-name="E" unicode="E" horiz-adv-x="1130" 
d="M1014 1393v-211h-586v-371h524v-211h-524v-389h592v-211h-848v1393h842z" />
    <glyph glyph-name="F" unicode="F" horiz-adv-x="1087" 
d="M1014 1393v-211h-586v-416h524v-211h-524v-555h-256v1393h842z" />
    <glyph glyph-name="G" unicode="G" horiz-adv-x="1300" 
d="M724 186q106 0 196 43v293l-224 37v174h480v-637q-132 -83 -271 -105t-205 -22q-284 0 -440 201.5t-156 522.5q0 320 160.5 525t472.5 205q216 0 424 -104l-71 -197q-173 84 -356 84t-275 -138t-92 -372q0 -364 125.5 -437t231.5 -73z" />
    <glyph glyph-name="H" unicode="H" horiz-adv-x="1382" 
d="M954 600h-526v-600h-256v1393h256v-582h526v582h256v-1393h-256v600z" />
    <glyph glyph-name="I" unicode="I" horiz-adv-x="600" 
d="M428 0h-256v1393h256v-1393z" />
    <glyph glyph-name="J" unicode="J" horiz-adv-x="927" 
d="M354 186q154 0 154 240v967h256v-983q0 -229 -109.5 -335t-300.5 -106q-115 0 -193.5 45t-133.5 101l116 178q43 -41 89.5 -74t121.5 -33z" />
    <glyph glyph-name="K" unicode="K" horiz-adv-x="1224" 
d="M428 627v-627h-256v1393h256v-676h4l453 676h286v-21l-489 -688l514 -664v-20h-299l-465 627h-4z" />
    <glyph glyph-name="L" unicode="L" horiz-adv-x="1026" 
d="M428 1393v-1172h541v-221h-797v1393h256z" />
    <glyph glyph-name="M" unicode="M" horiz-adv-x="1646" 
d="M1475 1393v-1393h-256v690l28 307h-2l-311 -647h-223l-310 647h-4l31 -305v-692h-256v1393h248l287 -553l114 -275h4l113 275l289 553h248z" />
    <glyph glyph-name="N" unicode="N" horiz-adv-x="1411" 
d="M983 1393h256v-1393h-270l-566 1049h-6l31 -271v-778h-256v1393h270l566 -1051h6l-31 270v781z" />
    <glyph glyph-name="O" unicode="O" horiz-adv-x="1419" 
d="M1313 696.5q0 -321.5 -151.5 -524.5t-451.5 -203q-299 0 -451.5 203t-152.5 524.5t152 524t452 202.5t451.5 -202.5t151.5 -524zM369 696.5q0 -106.5 18.5 -200t59 -162t106 -108.5t158 -40t158 40t105.5 108.5t58.5 162t18.5 200t-18.5 198.5t-58.5 161.5t-105.5 109.5
t-158 40t-158 -40t-106 -109.5t-59 -161.5t-18.5 -198.5z" />
    <glyph glyph-name="P" unicode="P" horiz-adv-x="1142" 
d="M428 694h184q94 0 145.5 71t51.5 174t-51 173t-146 70h-184v-488zM172 0v1393h461q213 0 325.5 -125t112.5 -330.5t-114 -330t-324 -124.5h-205v-483h-256z" />
    <glyph glyph-name="Q" unicode="Q" horiz-adv-x="1419" 
d="M369 696.5q0 -106.5 18.5 -200t59 -162t106 -108.5t158 -40t158 40t105.5 108.5t58.5 162t18.5 200t-18.5 198.5t-58.5 161.5t-105.5 109.5t-158 40t-158 -40t-106 -109.5t-59 -161.5t-18.5 -198.5zM711 -31q-300 0 -452.5 203t-152.5 524.5t152 524t452 202.5
t451.5 -202.5t151.5 -524.5q0 -411 -226 -602l322 -164l-115 -219l-485 264q-34 -6 -98 -6z" />
    <glyph glyph-name="R" unicode="R" horiz-adv-x="1263" 
d="M688 772q92 0 138 57.5t46 148.5t-46 147.5t-138 56.5h-260v-410h260zM1135 979q0 -331 -273 -399l342 -547v-33h-270l-332 561h-174v-561h-256v1393h528q223 0 329 -107.5t106 -306.5z" />
    <glyph glyph-name="S" unicode="S" horiz-adv-x="1067" 
d="M589 1206q-118 0 -166 -54t-48 -122q0 -127 129 -176l135 -53q170 -68 258 -161.5t88 -236.5q0 -187 -134.5 -310.5t-345.5 -123.5q-212 0 -423 135l84 197q68 -47 161 -81t191 -34t151.5 54.5t53.5 131.5t-41 118.5t-133 78.5l-137 56q-299 118 -299 383
q0 188 125.5 301.5t341.5 113.5q76 0 175 -26.5t181 -67.5l-78 -201q-151 78 -269 78z" />
    <glyph glyph-name="T" unicode="T" horiz-adv-x="1079" 
d="M1022 1393v-211h-354v-1182h-256v1182h-355v211h965z" />
    <glyph glyph-name="U" unicode="U" horiz-adv-x="1357" 
d="M416 1393v-840q0 -261 95 -314t168 -53q137 0 200 99t63 268v840h256v-846q0 -279 -123 -428.5t-396 -149.5t-396 150.5t-123 427.5v846h256z" />
    <glyph glyph-name="V" unicode="V" horiz-adv-x="1257" 
d="M31 1393h272l232 -795l92 -377h6l94 379l225 793h277v-21l-445 -1372h-311l-442 1372v21z" />
    <glyph glyph-name="W" unicode="W" horiz-adv-x="1904" 
d="M53 1393h275l161 -809l62 -346h4l61 346l187 809h299l186 -809l62 -346h4l61 346l162 809h274v-21l-340 -1372h-303l-192 819l-60 340h-4l-61 -340l-193 -819h-305l-340 1372v21z" />
    <glyph glyph-name="X" unicode="X" horiz-adv-x="1179" 
d="M1126 1393v-21l-358 -674l358 -678v-20h-272l-260 547h-4l-262 -547h-273v20l357 678l-357 674v21h273l262 -547h4l262 547h270z" />
    <glyph glyph-name="Y" unicode="Y" horiz-adv-x="1142" 
d="M1130 1393v-21l-430 -807v-565h-256v565l-432 807v21h275l282 -598h4l283 598h274z" />
    <glyph glyph-name="Z" unicode="Z" horiz-adv-x="1107" 
d="M1010 1393v-195l-629 -983v-4h629v-211h-928v195l627 983v4h-588v211h889z" />
    <glyph glyph-name="bracketleft" unicode="[" horiz-adv-x="657" 
d="M584 1434v-129l-213 -48v-1486l213 -47v-130h-426v1840h426z" />
    <glyph glyph-name="backslash" unicode="\" horiz-adv-x="839" 
d="M51 1393h215l522 -1373v-20h-215l-522 1372v21z" />
    <glyph glyph-name="bracketright" unicode="]" horiz-adv-x="661" 
d="M504 1434v-1840h-428v134l215 47v1478l-215 47v134h428z" />
    <glyph glyph-name="asciicircum" unicode="^" horiz-adv-x="958" 
d="M926 762h-250l-205 428h-6l-205 -428h-250v20l340 652h236l340 -652v-20z" />
    <glyph glyph-name="underscore" unicode="_" horiz-adv-x="972" 
d="M133 -219v174h707v-174h-707z" />
    <glyph glyph-name="grave" unicode="`" horiz-adv-x="1087" 
d="M340 1460h262l146 -278v-21h-218l-190 281v18z" />
    <glyph glyph-name="a" unicode="a" horiz-adv-x="1054" 
d="M525 1018q198 0 298.5 -108.5t100.5 -299.5v-610h-189l-35 88h-4q-51 -41 -133 -80t-172 -39q-154 0 -233.5 88t-79.5 224q0 315 438 315h156v45q0 96 -55 133t-121 37q-125 0 -308 -78l-67 193q206 92 404 92zM319 289q0 -123 127 -123q57 0 122 20.5t104 46.5v199h-144
q-209 0 -209 -143z" />
    <glyph glyph-name="b" unicode="b" horiz-adv-x="1132" 
d="M395 1434v-519h4q41 35 100.5 69t153.5 34q182 0 284.5 -148t102.5 -376t-102.5 -376.5t-286.5 -148.5q-122 0 -190 50.5t-90 68.5h-4l-37 -88h-187v1434h252zM782 530.5q0 183.5 -77.5 232t-133.5 48.5q-96 0 -176 -66v-503q80 -66 179 -66q100 0 154 85.5t54 269z" />
    <glyph glyph-name="c" unicode="c" horiz-adv-x="919" 
d="M88 493.5q0 236.5 126.5 380.5t352.5 144q146 0 273 -62l-49 -188q-120 43 -185 43t-110 -20.5t-79 -60.5t-52.5 -99.5t-18.5 -174t68.5 -197.5t162.5 -83t214 43l49 -188q-133 -62 -261 -62q-127 0 -216 38t-182 144t-93 342.5z" />
    <glyph glyph-name="d" unicode="d" horiz-adv-x="1132" 
d="M989 1434v-1434h-186l-35 88h-4q-47 -39 -115.5 -79t-166.5 -40q-184 0 -287 148t-103 377t103.5 376.5t285.5 147.5q92 0 152.5 -34t101.5 -69h2v519h252zM737 745q-80 66 -179 66t-153.5 -86.5t-54.5 -268.5t78 -231t133 -49q96 0 176 66v503z" />
    <glyph glyph-name="e" unicode="e" horiz-adv-x="1032" 
d="M719 596v40q0 76 -43 138t-136 62q-92 0 -144 -74t-56 -176h377q2 8 2 10zM948 590q0 -88 -12 -168h-602q8 -111 70.5 -181.5t160.5 -70.5q137 0 283 66l57 -179q-166 -88 -373 -88t-325.5 148.5t-118.5 372.5t117.5 376t325.5 152t312.5 -122.5t104.5 -305.5z" />
    <glyph glyph-name="f" unicode="f" horiz-adv-x="739" 
d="M557 1253q-51 0 -72.5 -30.5t-21.5 -100.5v-135h221v-196h-221v-791h-252v791h-156v139l156 57v141q0 170 84 243t223 73q88 0 156 -14v-193q-66 16 -117 16z" />
    <glyph glyph-name="g" unicode="g" 
d="M524 -246q209 0 209 252v76h-4q-39 -35 -98.5 -66.5t-154.5 -31.5q-185 0 -285.5 145t-100.5 370t101 372t286 147q87 0 144 -30t85.5 -51.5t53.5 -39.5h4l33 90h188v-936q0 -357 -175 -422t-323.5 -65t-312.5 92l74 178q142 -80 276 -80zM557 811q-156 0 -182.5 -123
t-26.5 -227t52.5 -187.5t155.5 -83.5t177 62v493q-80 66 -176 66z" />
    <glyph glyph-name="h" unicode="h" 
d="M741 604q0 207 -157 207q-90 0 -132 -41t-57 -55v-715h-252v1434h252v-527h4q71 70 145 90.5t120 20.5q160 0 244.5 -102.5t84.5 -282.5v-633h-252v604z" />
    <glyph glyph-name="i" unicode="i" horiz-adv-x="538" 
d="M125 1308.5q0 63.5 40.5 102.5t106.5 39t106 -39t40 -102.5t-40 -102.5t-107 -39t-106.5 39t-39.5 102.5zM143 0v987h252v-987h-252z" />
    <glyph glyph-name="j" unicode="j" horiz-adv-x="538" 
d="M125 1308.5q0 63.5 40 102.5t105.5 39t106.5 -39t41 -102.5t-41 -102.5t-106.5 -39t-105.5 39t-40 102.5zM55 -246q88 0 88 144v1089h252v-1075q0 -175 -84.5 -261.5t-236.5 -86.5q-64 0 -129 14v191q47 -15 110 -15z" />
    <glyph glyph-name="k" unicode="k" horiz-adv-x="1038" 
d="M395 459v-459h-252v1434h252v-891h4l310 444h274v-18l-344 -461l360 -488v-20h-288l-312 459h-4z" />
    <glyph glyph-name="l" unicode="l" horiz-adv-x="538" 
d="M143 0v1434h252v-1434h-252z" />
    <glyph glyph-name="m" unicode="m" horiz-adv-x="1732" 
d="M745 604q0 207 -146 207q-77 0 -124 -28.5t-80 -57.5v-725h-252v987h201l33 -94h4q125 125 300 125t261 -148h4q64 64 133.5 106t190.5 42q166 0 247.5 -101.5t81.5 -281.5v-635h-251v604q0 207 -147 207q-77 0 -127 -33t-83 -63q6 -27 6 -80v-635h-252v604z" />
    <glyph glyph-name="n" unicode="n" 
d="M666 1018q158 0 242.5 -101.5t84.5 -281.5v-635h-252v604q0 207 -157 207q-81 0 -127.5 -37t-61.5 -49v-725h-252v987h203l33 -94h4q125 125 283 125z" />
    <glyph glyph-name="o" unicode="o" horiz-adv-x="1116" 
d="M1028 493.5q0 -233.5 -123 -379t-346 -145.5q-224 0 -347.5 147.5t-123.5 377t123.5 377t347.5 147.5t346.5 -145.5t122.5 -379zM346 493.5q0 -73.5 14.5 -133t41 -100.5t65.5 -62.5t90 -21.5t91 21.5t66.5 62.5t41 100.5t14.5 133t-14.5 133t-41 100.5t-66.5 62.5
t-91 21.5t-90 -21.5t-65.5 -62.5t-41 -100.5t-14.5 -133z" />
    <glyph glyph-name="p" unicode="p" horiz-adv-x="1130" 
d="M649 1018q184 0 286.5 -148t102.5 -376t-102.5 -376.5t-284.5 -148.5q-117 0 -174 43t-78 60h-4v-478h-252v1393h185l37 -88h4q47 39 115.5 79t164.5 40zM780 532q0 183 -76.5 231t-132.5 48q-96 0 -176 -66v-503q80 -66 180 -66t152.5 86.5t52.5 269.5z" />
    <glyph glyph-name="q" unicode="q" horiz-adv-x="1130" 
d="M987 -406h-252v478h-4q-65 -52 -117.5 -77.5t-141.5 -25.5q-176 0 -278 149t-102 376q0 228 102 376t285 148q125 0 191.5 -50t91.5 -69h4l35 88h186v-1393zM735 745q-80 66 -179 66q-100 0 -153 -87t-53 -269t77 -230.5t132 -48.5q96 0 176 66v503z" />
    <glyph glyph-name="r" unicode="r" horiz-adv-x="747" 
d="M572 803q-60 0 -107 -33t-70 -70v-700h-252v987h205l35 -117h4q46 96 112.5 122t108.5 26t90 -12l-20 -211q-46 8 -106 8z" />
    <glyph glyph-name="s" unicode="s" horiz-adv-x="901" 
d="M402 166q106 0 139.5 30.5t33.5 78.5t-30.5 72t-89.5 40l-117 31q-167 43 -204.5 131.5t-37.5 156.5q0 141 99 226.5t271 85.5t333 -72l-68 -182q-125 57 -258 57q-68 0 -100.5 -28.5t-32.5 -74.5t29.5 -68.5t83.5 -39.5l114 -30q252 -67 252 -291q0 -151 -101 -235.5
t-288 -84.5t-354 94l74 185q146 -82 252 -82z" />
    <glyph glyph-name="t" unicode="t" horiz-adv-x="790" 
d="M512 -31q-150 0 -221.5 68.5t-71.5 212.5v541h-162v139l162 57v230h252v-230h256v-196h-256v-502q0 -113 107 -113q59 0 143 27v-203q-112 -31 -209 -31z" />
    <glyph glyph-name="u" unicode="u" horiz-adv-x="1116" 
d="M452 -31q-154 0 -236.5 101.5t-82.5 281.5v635h252v-604q0 -207 150 -207q82 0 126 37t60 49v725h252v-987h-205l-35 94h-2q-125 -125 -279 -125z" />
    <glyph glyph-name="v" unicode="v" horiz-adv-x="1036" 
d="M41 987h248l176 -571l51 -207h4l51 207l177 571h247v-20l-340 -967h-274l-340 967v20z" />
    <glyph glyph-name="w" unicode="w" horiz-adv-x="1595" 
d="M55 987h242l137 -581l29 -199h4l41 199l154 581h272l153 -581l41 -199h5l28 199l135 581h244v-20l-264 -967h-277l-163 584l-37 202h-4l-37 -202l-164 -584h-275l-264 967v20z" />
    <glyph glyph-name="x" unicode="x" horiz-adv-x="1026" 
d="M53 0v20l287 474l-287 473v20h266l193 -362h4l193 362h264v-20l-287 -473l287 -474v-20h-262l-195 360h-4l-193 -360h-266z" />
    <glyph glyph-name="y" unicode="y" horiz-adv-x="1021" 
d="M216 -246q50 0 83 34t57 108l39 114l-358 957v20h256l168 -545l49 -204h6l47 204l160 545h256v-20l-383 -1090q-110 -313 -330 -313q-101 0 -192 24v185q92 -19 142 -19z" />
    <glyph glyph-name="z" unicode="z" horiz-adv-x="903" 
d="M811 987v-139l-426 -653v-5h426v-190h-733v139l424 654v4h-396v190h705z" />
    <glyph glyph-name="braceleft" unicode="{" horiz-adv-x="714" 
d="M438 -45q0 -217 199 -217v-144h-68q-280 0 -312 143.5t-32 231.5v291q0 80 -46 120t-118 40v188q72 0 118 40t46 120v291q0 189 75.5 282t268.5 93h68v-144q-199 0 -199 -217v-297q0 -117 -35.5 -179t-121.5 -81v-4q86 -18 121.5 -80.5t35.5 -179.5v-297z" />
    <glyph glyph-name="bar" unicode="|" horiz-adv-x="481" 
d="M324 -406h-166v1840h166v-1840z" />
    <glyph glyph-name="braceright" unicode="}" horiz-adv-x="712" 
d="M653 420q-72 0 -119 -40t-47 -120v-291q0 -189 -73.5 -282t-268.5 -93h-67v144q156 0 176 83t20 134v297q0 117 36 179.5t122 80.5v4q-86 18 -122 80.5t-36 179.5v297q0 164 -71.5 190.5t-124.5 26.5v144h67q280 0 311 -143.5t31 -231.5v-291q0 -80 47.5 -120t118.5 -40
v-188z" />
    <glyph glyph-name="asciitilde" unicode="~" horiz-adv-x="1064" 
d="M329 539q-95 0 -149 -82l-90 125q63 101 135 129t122 28t103.5 -23.5t104.5 -53t103.5 -53t98.5 -23.5t72.5 15t55.5 56l90 -125q-100 -147 -238 -147q-81 0 -214 77t-194 77z" />
    <glyph glyph-name="uni00A0" unicode="&#xa0;" horiz-adv-x="460" 
 />
    <glyph glyph-name="exclamdown" unicode="&#xa1;" horiz-adv-x="534" 
d="M428 850q0 -74 -43 -122t-116 -48t-115.5 48t-42.5 122t43.5 121t115.5 47t115 -47t43 -121zM406 -406h-273v316l57 596h156l60 -596v-316z" />
    <glyph glyph-name="cent" unicode="&#xa2;" 
d="M580 201v583q-138 -71 -138 -292q0 -220 138 -291zM743 -197h-163v172q-190 27 -293 166.5t-103 350.5t103.5 350.5t292.5 169.5v172h163v-172q126 -21 193 -56l-49 -188q-90 31 -144 39v-627q54 8 144 39l49 -188q-68 -33 -193 -56v-172z" />
    <glyph glyph-name="sterling" unicode="&#xa3;" 
d="M539 463q0 -66 -28 -136.5t-65 -111.5v-4h558v-211h-852v184q124 77 124 230q0 37 -12 172h-153v194h127q-13 110 -13 216q0 204 113 315.5t315 111.5t373 -90l-68 -198q-151 71 -284 71q-86 0 -136.5 -49t-50.5 -142t19 -235h315v-194h-289q7 -57 7 -123z" />
    <glyph glyph-name="currency" unicode="&#xa4;" horiz-adv-x="1140" 
d="M468 414q36 -52 97 -52q96 0 116.5 73t20.5 140t-36 117.5t-101 50.5q-91 0 -112 -72.5t-21 -138.5t36 -118zM223 552.5q0 110.5 41 192.5l-170 187l135 141l170 -180q72 39 170 39t166 -43l178 184l134 -141l-175 -193q39 -84 39 -188t-39 -184l175 -189l-134 -143
l-174 182q-72 -43 -171 -43t-171 39l-168 -178l-135 143l168 184q-39 80 -39 190.5z" />
    <glyph glyph-name="yen" unicode="&#xa5;" 
d="M1032 604h-338v-158h338v-194h-338v-252h-256v252h-346v194h346v158h-346v195h246l-295 573v21h274l246 -557h4l242 557h274v-21l-290 -573h239v-195z" />
    <glyph glyph-name="brokenbar" unicode="&#xa6;" horiz-adv-x="485" 
d="M160 754v680h166v-680h-166zM326 274v-680h-166v680h166z" />
    <glyph glyph-name="section" unicode="&#xa7;" horiz-adv-x="1103" 
d="M188 -41q208 -113 352 -113q98 0 147.5 37t49.5 85t-27.5 87t-115.5 74l-215 86q-256 103 -256 307q0 152 162 242v4q-162 112 -162 280t118.5 271.5t334.5 103.5t372 -75l-76 -211q-154 71 -278 71q-123 0 -166 -43t-43 -88t25.5 -84t103.5 -67l178 -68
q162 -61 234.5 -142t72.5 -196t-163 -244v-4q78 -43 120.5 -115.5t42.5 -155.5q0 -168 -125 -269t-338 -101t-432 107zM377 578q0 -51 22.5 -86t79.5 -60l211 -88q55 44 55 110q0 114 -96 156l-217 90q-55 -37 -55 -122z" />
    <glyph glyph-name="dieresis" unicode="&#xa8;" horiz-adv-x="1087" 
d="M195 1310.5q0 63.5 39.5 102.5t106.5 39t106.5 -39t39.5 -102.5t-39.5 -102.5t-106.5 -39t-106.5 39t-39.5 102.5zM600 1310.5q0 63.5 40 102.5t106 39t106.5 -39t40.5 -102.5t-40 -102.5t-107 -39t-106.5 39t-39.5 102.5z" />
    <glyph glyph-name="copyright" unicode="&#xa9;" horiz-adv-x="1662" 
d="M844 297q-193 0 -294 109.5t-101 290t101 290t294 109.5q119 0 231 -49l-49 -148q-87 41 -178 41q-92 0 -148.5 -67.5t-56.5 -176t56.5 -176t148.5 -67.5t178 41l49 -148q-108 -49 -231 -49zM250 696q0 -125 46 -232.5t127 -186t189.5 -123.5t233.5 -45t228.5 45
t179 123.5t117.5 186t42 232.5t-44 232.5t-122 186.5t-184.5 124t-231 45t-231 -45t-184.5 -124t-122 -186.5t-44 -232.5zM104 696.5q0 153.5 55.5 286.5t154 231.5t231.5 153.5t286.5 55t286.5 -55t231.5 -153.5t154 -231.5t55.5 -286.5t-55.5 -287t-154 -231.5
t-231.5 -153.5t-286.5 -55.5t-286.5 55.5t-231.5 153.5t-154 231.5t-55.5 287z" />
    <glyph glyph-name="ordfeminine" unicode="&#xaa;" horiz-adv-x="833" 
d="M154 412v157h520v-157h-520zM417 1358q122 0 189.5 -72t67.5 -192v-377h-133l-29 55h-2q-27 -25 -75 -49.5t-101 -24.5q-104 0 -150.5 57.5t-46.5 139.5q0 203 254 203h103v22q0 88 -94 88t-195 -41l-37 142q127 49 249 49zM410 983q-93 -1 -93 -69t64 -68t113 39v98h-84
z" />
    <glyph glyph-name="guillemotleft" unicode="&#xab;" horiz-adv-x="1083" 
d="M74 565l301 449l168 -101l-187 -362l189 -361l-170 -98l-301 449v24zM516 565l301 449l168 -101l-186 -362l188 -361l-170 -98l-301 449v24z" />
    <glyph glyph-name="logicalnot" unicode="&#xac;" 
d="M866 451h-792v211h962v-459h-170v248z" />
    <glyph glyph-name="uni00AD" unicode="&#xad;" horiz-adv-x="843" 
d="M133 451v211h578v-211h-578z" />
    <glyph glyph-name="registered" unicode="&#xae;" horiz-adv-x="1138" 
d="M641 1235q0 49 -59 49h-84v-98h84q59 0 59 49zM754 1237q0 -104 -101 -133l123 -162v-10h-129l-108 164h-41v-164h-113v446h203q166 0 166 -141zM320.5 892q105.5 -104 257.5 -104t249 105.5t97 256t-100.5 255t-254.5 104.5t-254 -104t-100 -256.5t105.5 -256.5z
M569.5 1618q199.5 0 333 -135.5t133.5 -334.5q0 -198 -134 -332t-332.5 -134t-333 134.5t-134.5 331.5t134 333.5t333.5 136.5z" />
    <glyph glyph-name="macron" unicode="&#xaf;" horiz-adv-x="1087" 
d="M276 1186v211h535v-211h-535z" />
    <glyph glyph-name="degree" unicode="&#xb0;" horiz-adv-x="886" 
d="M194.5 1331q100.5 92 249.5 92q148 0 248.5 -92t100.5 -246.5t-99.5 -249t-249.5 -94.5t-250 94.5t-100 249t100.5 246.5zM285 1082q0 -75 47.5 -121t113.5 -46t111 46.5t45 120.5t-45 122.5t-112 48.5t-113.5 -48t-46.5 -123z" />
    <glyph glyph-name="plusminus" unicode="&#xb1;" 
d="M1044 211v-211h-962v211h962zM662 887h382v-211h-382v-295h-199v295h-381v211h381v395h199v-395z" />
    <glyph glyph-name="uni00B2" unicode="&#xb2;" horiz-adv-x="638" 
d="M567 1415q0 -76 -38 -130t-91 -99l-131 -111v-6h271v-151h-521v137l279 241q51 42 51 94q0 102 -88 103q-47 0 -80 -26t-65 -58l-99 119q93 120 254 123q111 0 184 -61q74 -61 74 -175z" />
    <glyph glyph-name="uni00B3" unicode="&#xb3;" horiz-adv-x="634" 
d="M286 1061q111 0 109 78q0 35 -25 48q-26 13 -79 13h-133v152h131q86 0 88 71q0 29 -22 49t-99 21q-77 0 -147 -35l-50 146q113 45 235 46q122 0 192 -52t71 -138q0 -86 -35 -122t-73 -44v-2q128 -42 126 -180q0 -94 -69 -153q-70 -58 -215 -58t-248 55l45 150
q87 -45 198 -45z" />
    <glyph glyph-name="acute" unicode="&#xb4;" horiz-adv-x="1087" 
d="M340 1161v21l145 278h263v-18l-191 -281h-217z" />
    <glyph glyph-name="mu" unicode="&#xb5;" horiz-adv-x="1114" 
d="M477 -31q-32 0 -86 17l15 -131v-261h-252v1393h252v-625q4 -92 38.5 -139t113.5 -47t123 37t60 49v725h252v-987h-205l-34 94h-2q-125 -125 -275 -125z" />
    <glyph glyph-name="paragraph" unicode="&#xb6;" horiz-adv-x="1114" 
d="M399 672q-145 0 -243.5 94.5t-98.5 263t99.5 266t242.5 97.5h658v-154h-176v-1645h-162v1645h-156v-1645h-164v1078z" />
    <glyph glyph-name="periodcentered" unicode="&#xb7;" horiz-adv-x="550" 
d="M113 588q0 74 45 122q46 48 118 48t117 -48t45 -122t-45 -121t-118 -47t-117 47t-45 121z" />
    <glyph glyph-name="cedilla" unicode="&#xb8;" horiz-adv-x="1087" 
d="M594 -92q127 -22 127 -163q0 -77 -56.5 -129t-148.5 -52t-149 24l24 129q40 -16 80 -16q64 0 64 51t-44.5 53t-62.5 2l-6 13l67 194h148z" />
    <glyph glyph-name="uni00B9" unicode="&#xb9;" horiz-adv-x="520" 
d="M39 1366v160l252 110h131v-718h-174v530h-2l-193 -82h-14z" />
    <glyph glyph-name="ordmasculine" unicode="&#xba;" horiz-adv-x="843" 
d="M160 412v157h522v-157h-522zM733 1028.5q0 -143.5 -85 -237t-227 -93.5t-226 94t-84 236.5t84 236t226 93.5q143 0 227.5 -93t84.5 -236.5zM295 1027q0 -93 38 -132t90 -39t89 39t37 132t-37 133t-89 40t-90 -40t-38 -133z" />
    <glyph glyph-name="guillemotright" unicode="&#xbb;" horiz-adv-x="1083" 
d="M567 541l-301 -449l-168 101l187 362l-189 360l170 99l301 -449v-24zM1010 541l-301 -449l-168 101l186 362l-188 360l170 99l301 -449v-24z" />
    <glyph glyph-name="onequarter" unicode="&#xbc;" horiz-adv-x="1486" 
d="M1327 487v-182h78v-153h-78v-152h-174v152h-330v139l166 428h178l-153 -412v-2h139v182h174zM74 1120v160l252 111h131v-719h-174v530h-2l-193 -82h-14zM170 0v20l934 1373h213v-21l-934 -1372h-213z" />
    <glyph glyph-name="onehalf" unicode="&#xbd;" horiz-adv-x="1533" 
d="M72 1116v160l252 110h131v-718h-174v530h-2l-193 -82h-14zM1251 473q0 105 -91 103q-44 0 -77 -26t-65 -58l-98 118q96 123 254 123q111 0 183 -60q73 -60 74 -156q1 -95 -37 -149t-91 -100l-132 -110v-6h271v-152h-520v137l278 242q51 43 51 94zM170 0v20l934 1373h213
v-21l-934 -1372h-213z" />
    <glyph glyph-name="threequarters" unicode="&#xbe;" horiz-adv-x="1613" 
d="M1458 487v-182h78v-153h-78v-152h-174v152h-330v139l166 428h178l-153 -412v-2h139v182h174zM432 887q0 35 -25 48q-26 13 -79 13h-133v152h131q86 0 88 71q0 29 -22 49t-98 21q-76 0 -149 -35l-49 146q113 45 235 46q123 1 193 -51q70 -53 70 -139t-35 -122t-74 -44v-2
q129 -42 127 -180q0 -94 -70 -152t-213 -58q-144 0 -249 55l45 149q87 -45 197 -45t110 78zM260 0v20l934 1373h213v-21l-934 -1372h-213z" />
    <glyph glyph-name="questiondown" unicode="&#xbf;" horiz-adv-x="935" 
d="M662 850q0 -74 -43.5 -122t-115 -48t-114.5 48t-43 122t43 121t114.5 47t115 -47t43.5 -121zM391.5 -161q43.5 -54 122.5 -54q80 0 137.5 36t114.5 87l121 -178q-103 -110 -211.5 -138t-173.5 -28q-199 0 -314.5 102.5t-115.5 268.5t88 265.5t217 168.5l24 137h203
l12 -266q-131 -51 -199.5 -117.5t-68.5 -147.5q0 -82 43.5 -136z" />
    <glyph glyph-name="Agrave" unicode="&#xc0;" horiz-adv-x="1267" 
d="M365 1835h278l129 -279v-20h-235l-172 281v18zM631 1167l-94 -374l-84 -285h360l-86 285l-90 374h-6zM1245 0h-274l-86 305h-500l-88 -305h-272l458 1393h299z" />
    <glyph glyph-name="Aacute" unicode="&#xc1;" horiz-adv-x="1267" 
d="M631 1167l-94 -374l-84 -285h360l-86 285l-90 374h-6zM1245 0h-274l-86 305h-500l-88 -305h-272l458 1393h299zM500 1536v20l129 279h278v-18l-172 -281h-235z" />
    <glyph glyph-name="Acircumflex" unicode="&#xc2;" horiz-adv-x="1267" 
d="M631 1167l-94 -374l-84 -285h360l-86 285l-90 374h-6zM1245 0h-274l-86 305h-500l-88 -305h-272l458 1393h299zM958 1536h-206l-117 162l-115 -162h-207v20l209 279h228l208 -279v-20z" />
    <glyph glyph-name="Atilde" unicode="&#xc3;" horiz-adv-x="1267" 
d="M631 1167l-94 -374l-84 -285h360l-86 285l-90 374h-6zM1245 0h-274l-86 305h-500l-88 -305h-272l458 1393h299zM487 1630q-73 0 -122 -71l-52 143q29 57 82 96t116 39t143 -46q32 -17 63 -31t67 -15q75 0 123 70l51 -140q-33 -65 -87 -101t-112 -36t-118 32
q-59 32 -91 46t-63 14z" />
    <glyph glyph-name="Adieresis" unicode="&#xc4;" horiz-adv-x="1267" 
d="M631 1167l-94 -374l-84 -285h360l-86 285l-90 374h-6zM1245 0h-274l-86 305h-500l-88 -305h-272l458 1393h299zM727 1675q0 63 40 103q41 40 107 39q66 0 106 -39q40 -38 40 -102t-40 -103t-107 -39t-107 39t-39 102zM248 1675q0 63 40 103t106 39q66 0 107 -39
q40 -38 40 -102t-40 -103t-107 -39q-66 0 -106 39t-40 102z" />
    <glyph glyph-name="Aring" unicode="&#xc5;" horiz-adv-x="1261" 
d="M549 1527q0 -38 21.5 -58.5t56.5 -20.5t55 20.5t20 58.5t-20 59.5t-55 21.5t-56.5 -21.5t-21.5 -59.5zM627 1167l-95 -374l-83 -285h360l-86 285l-90 374h-6zM401 1528q0 106 62.5 167.5t163 61.5t162 -61.5t61.5 -167.5q0 -53 -23.5 -100.5t-60.5 -75.5l475 -1352h-274
l-86 305h-500l-88 -305h-273l469 1348q-39 29 -63.5 78t-24.5 102z" />
    <glyph glyph-name="AE" unicode="&#xc6;" horiz-adv-x="1787" 
d="M829 508v342l17 307h-6l-150 -307l-172 -342h311zM1671 1393v-211h-586v-371h525v-211h-525v-389h592v-211h-848v305h-423l-160 -305h-266v20l743 1373h948z" />
    <glyph glyph-name="Ccedilla" unicode="&#xc7;" horiz-adv-x="1155" 
d="M717 -92q127 -22 127 -163q0 -77 -56.5 -129t-146.5 -52t-154 24l27 129q40 -16 80 -16q63 0 63 51t-44 53t-62 2l-8 13l53 160q-234 39 -362 229.5t-128 504.5q0 313 160 511t451 198q184 0 356 -90l-67 -194q-128 67 -288 67t-254.5 -142t-94.5 -368t95 -368t253 -142
q159 0 289 68l67 -195q-159 -82 -334 -90z" />
    <glyph glyph-name="Egrave" unicode="&#xc8;" horiz-adv-x="1130" 
d="M1014 1393v-211h-586v-371h524v-211h-524v-389h592v-211h-848v1393h842zM315 1835h279l129 -279v-20h-236l-172 281v18z" />
    <glyph glyph-name="Eacute" unicode="&#xc9;" horiz-adv-x="1130" 
d="M1014 1393v-211h-586v-371h524v-211h-524v-389h592v-211h-848v1393h842zM475 1536v20l129 279h279v-18l-172 -281h-236z" />
    <glyph glyph-name="Ecircumflex" unicode="&#xca;" horiz-adv-x="1130" 
d="M1014 1393v-211h-586v-371h524v-211h-524v-389h592v-211h-848v1393h842zM913 1536h-206l-117 162l-115 -162h-207v20l209 279h228l208 -279v-20z" />
    <glyph glyph-name="Edieresis" unicode="&#xcb;" horiz-adv-x="1130" 
d="M1014 1393v-211h-586v-371h524v-211h-524v-389h592v-211h-848v1393h842zM676 1675q0 63 40 103t106 39q66 0 107 -39q40 -38 40 -102t-40 -103t-107 -39q-66 0 -106 39t-40 102zM197 1675q0 63 40 103q41 40 107 39q66 0 106 -39q40 -38 40 -102t-40 -103t-107 -39
t-107 39t-39 102z" />
    <glyph glyph-name="Igrave" unicode="&#xcc;" horiz-adv-x="600" 
d="M428 0h-256v1393h256v-1393zM14 1835h279l129 -279v-20h-236l-172 281v18z" />
    <glyph glyph-name="Iacute" unicode="&#xcd;" horiz-adv-x="600" 
d="M428 0h-256v1393h256v-1393zM178 1536v20l129 279h279v-18l-172 -281h-236z" />
    <glyph glyph-name="Icircumflex" unicode="&#xce;" horiz-adv-x="600" 
d="M428 0h-256v1393h256v-1393zM621 1536h-207l-117 162l-115 -162h-207v20l209 279h228l209 -279v-20z" />
    <glyph glyph-name="Idieresis" unicode="&#xcf;" horiz-adv-x="600" 
d="M428 0h-256v1393h256v-1393zM387 1675q0 63 40 103q41 40 107 39q66 0 106 -39q40 -38 40 -102t-40 -103t-107 -39t-107 39t-39 102zM-92 1675q0 63 40 103t106 39q66 0 107 -39q40 -38 40 -102t-40 -103t-107 -39q-66 0 -106 39t-40 102z" />
    <glyph glyph-name="Eth" unicode="&#xd0;" horiz-adv-x="1320" 
d="M543 211q234 0 318.5 113.5t84.5 371.5t-85 372t-318 114h-113v-389h209v-211h-209v-371h113zM86 793h88v600h393q505 0 573 -264.5t68 -433.5q0 -350 -149.5 -522.5t-491.5 -172.5h-393v582h-88v211z" />
    <glyph glyph-name="Ntilde" unicode="&#xd1;" horiz-adv-x="1411" 
d="M983 1393h256v-1393h-270l-566 1049h-6l31 -271v-778h-256v1393h270l566 -1051h6l-31 270v781zM543 1630q-74 0 -123 -71l-51 143q29 57 82 96t115 39t144 -46q32 -17 62 -31t68 -15q73 0 123 70l51 -140q-33 -65 -87 -101t-113 -36t-147 46t-124 46z" />
    <glyph glyph-name="Ograve" unicode="&#xd2;" horiz-adv-x="1419" 
d="M106 696q0 323 153 525t452 202q300 0 456 -211q146 -193 146 -515t-152 -524t-452 -203t-457 210q-146 193 -146 516zM369 696q0 -358 184 -470q66 -40 158 -40q177 0 263 149q75 129 77 361q0 362 -183 470q-66 40 -158 40q-176 0 -258 -140q-83 -140 -83 -370z
M459 1835h278l129 -279v-20h-235l-172 281v18z" />
    <glyph glyph-name="Oacute" unicode="&#xd3;" horiz-adv-x="1419" 
d="M106 696q0 323 153 525t452 202q300 0 456 -211q146 -193 146 -515t-152 -524t-452 -203t-457 210q-146 193 -146 516zM369 696q0 -358 184 -470q66 -40 158 -40q177 0 263 149q75 129 77 361q0 362 -183 470q-66 40 -158 40q-176 0 -258 -140q-83 -140 -83 -370z
M590 1536v20l129 279h278v-18l-172 -281h-235z" />
    <glyph glyph-name="Ocircumflex" unicode="&#xd4;" horiz-adv-x="1419" 
d="M106 696q0 323 153 525t452 202q300 0 456 -211q146 -193 146 -515t-152 -524t-452 -203t-457 210q-146 193 -146 516zM369 696q0 -358 184 -470q66 -40 158 -40q177 0 263 149q75 129 77 361q0 362 -183 470q-66 40 -158 40q-176 0 -258 -140q-83 -140 -83 -370z
M1047 1536h-207l-117 162l-115 -162h-207v20l209 279h228l209 -279v-20z" />
    <glyph glyph-name="Otilde" unicode="&#xd5;" horiz-adv-x="1419" 
d="M106 696q0 323 153 525t452 202q300 0 456 -211q146 -193 146 -515t-152 -524t-452 -203t-457 210q-146 193 -146 516zM369 696q0 -358 184 -470q66 -40 158 -40q177 0 263 149q75 129 77 361q0 362 -183 470q-66 40 -158 40q-176 0 -258 -140q-83 -140 -83 -370z
M569 1630q-72 0 -123 -71l-51 143q29 57 82 96t116 39t143 -46q32 -17 63 -31t67 -15q75 0 123 70l51 -140q-33 -65 -87 -101t-112 -36t-118 32q-59 32 -91 46t-63 14z" />
    <glyph glyph-name="Odieresis" unicode="&#xd6;" horiz-adv-x="1419" 
d="M106 696q0 323 153 525t452 202q300 0 456 -211q146 -193 146 -515t-152 -524t-452 -203t-457 210q-146 193 -146 516zM369 696q0 -358 184 -470q66 -40 158 -40q177 0 263 149q75 129 77 361q0 362 -183 470q-66 40 -158 40q-176 0 -258 -140q-83 -140 -83 -370z
M809 1675q0 63 40 103q41 40 107 39q66 0 106 -39q40 -38 40 -102t-40 -103t-107 -39t-107 39t-39 102zM330 1675q0 63 40 103t106 39q66 0 107 -39q40 -38 40 -102t-40 -103t-107 -39q-66 0 -106 39t-40 102z" />
    <glyph glyph-name="multiply" unicode="&#xd7;" 
d="M561 696l305 322l135 -141l-305 -322l305 -322l-135 -141l-305 322l-303 -322l-133 141l301 322l-301 322l133 141z" />
    <glyph glyph-name="Oslash" unicode="&#xd8;" horiz-adv-x="1419" 
d="M713 1206q-179 0 -261.5 -141t-82.5 -345t47 -321l465 758q-74 49 -168 49zM1051 675q0 209 -56 337l-471 -768q76 -58 178 -58q186 -1 267.5 139.5t81.5 349.5zM268 158q-162 189 -162 525t152 538t453 202q170 0 290 -67l68 110l152 -90l-82 -131q174 -189 174 -529
t-151.5 -543.5t-450.5 -203.5q-171 0 -310 76l-71 -108l-144 92z" />
    <glyph glyph-name="Ugrave" unicode="&#xd9;" horiz-adv-x="1357" 
d="M416 1393v-840q0 -261 140 -339q50 -28 123 -28q263 0 263 367v840h256v-846q0 -279 -123 -429t-396 -149q-273 0 -396 151t-123 427v846h256zM397 1835h279l129 -279v-20h-236l-172 281v18z" />
    <glyph glyph-name="Uacute" unicode="&#xda;" horiz-adv-x="1357" 
d="M416 1393v-840q0 -261 140 -339q50 -28 123 -28q263 0 263 367v840h256v-846q0 -279 -123 -429t-396 -149q-273 0 -396 151t-123 427v846h256zM553 1536v20l129 279h279v-18l-173 -281h-235z" />
    <glyph glyph-name="Ucircumflex" unicode="&#xdb;" horiz-adv-x="1357" 
d="M416 1393v-840q0 -261 140 -339q50 -28 123 -28q263 0 263 367v840h256v-846q0 -279 -123 -429t-396 -149q-273 0 -396 151t-123 427v846h256zM993 1536h-207l-116 162l-115 -162h-207v20l209 279h227l209 -279v-20z" />
    <glyph glyph-name="Udieresis" unicode="&#xdc;" horiz-adv-x="1357" 
d="M416 1393v-840q0 -261 140 -339q50 -28 123 -28q263 0 263 367v840h256v-846q0 -279 -123 -429t-396 -149q-273 0 -396 151t-123 427v846h256zM762 1675q0 63 40 103t106 39q66 0 107 -39q40 -38 40 -102t-40 -103t-107 -39q-66 0 -106 39t-40 102zM283 1675q0 63 40 103
q41 40 107 39q66 0 106 -39q40 -38 40 -102t-40 -103t-107 -39t-107 39t-39 102z" />
    <glyph glyph-name="Yacute" unicode="&#xdd;" horiz-adv-x="1142" 
d="M1130 1393v-21l-430 -807v-565h-256v565l-432 807v21h275l282 -598h4l283 598h274zM451 1536v20l129 279h278v-18l-172 -281h-235z" />
    <glyph glyph-name="Thorn" unicode="&#xde;" horiz-adv-x="1163" 
d="M428 465h203q88 0 133 68t45 173t-42 175.5t-136 70.5h-203v-487zM172 0v1393h256v-230h223q217 0 318.5 -120.5t101.5 -388.5t-153.5 -334t-266.5 -66h-223v-254h-256z" />
    <glyph glyph-name="germandbls" unicode="&#xdf;" horiz-adv-x="1206" 
d="M635 186q227 0 227 224t-244 223h-49v225h47q70 0 111 46t41 136t-39 147.5t-142 57.5t-147.5 -63.5t-44.5 -202.5v-979h-252v987q0 222 119 339.5t321 117.5q203 0 322 -107.5t119 -274.5t-57.5 -222.5t-85.5 -69.5v-4q163 -65 201 -177t38 -188q0 -432 -485 -432
q-68 0 -100 8v213q46 -4 100 -4z" />
    <glyph glyph-name="agrave" unicode="&#xe0;" horiz-adv-x="1054" 
d="M525 1018q198 0 298 -109t101 -299v-610h-189l-35 88h-4q-51 -41 -133 -80t-172 -39q-153 0 -233 88t-80 224q0 315 438 315h156v45q0 97 -65 139q-48 31 -111 31q-119 0 -308 -78l-67 193q206 92 404 92zM319 289q0 -123 127 -123q57 0 122 20t104 47v199h-144
q-209 0 -209 -143zM250 1460h262l145 -278v-21h-217l-190 281v18z" />
    <glyph glyph-name="aacute" unicode="&#xe1;" horiz-adv-x="1054" 
d="M525 1018q198 0 298 -109t101 -299v-610h-189l-35 88h-4q-51 -41 -133 -80t-172 -39q-153 0 -233 88t-80 224q0 315 438 315h156v45q0 97 -65 139q-48 31 -111 31q-119 0 -308 -78l-67 193q206 92 404 92zM319 289q0 -123 127 -123q57 0 122 20t104 47v199h-144
q-209 0 -209 -143zM401 1161v21l146 278h262v-18l-191 -281h-217z" />
    <glyph glyph-name="acircumflex" unicode="&#xe2;" horiz-adv-x="1054" 
d="M525 1018q198 0 298 -109t101 -299v-610h-189l-35 88h-4q-51 -41 -133 -80t-172 -39q-153 0 -233 88t-80 224q0 315 438 315h156v45q0 97 -65 139q-48 31 -111 31q-119 0 -308 -78l-67 193q206 92 404 92zM319 289q0 -123 127 -123q57 0 122 20t104 47v199h-144
q-209 0 -209 -143zM838 1161h-207l-99 162l-96 -162h-207v21l168 278h273l168 -278v-21z" />
    <glyph glyph-name="atilde" unicode="&#xe3;" horiz-adv-x="1054" 
d="M525 1018q198 0 298 -109t101 -299v-610h-189l-35 88h-4q-51 -41 -133 -80t-172 -39q-153 0 -233 88t-80 224q0 315 438 315h156v45q0 97 -65 139q-48 31 -111 31q-119 0 -308 -78l-67 193q206 92 404 92zM319 289q0 -123 127 -123q57 0 122 20t104 47v199h-144
q-209 0 -209 -143zM383 1253q-74 0 -123 -71l-51 143q29 57 82 96t115 39t144 -46q32 -18 62 -32t67 -14q74 0 124 70l51 -140q-33 -66 -87 -102q-53 -36 -101 -35q-62 0 -155 46q-92 46 -128 46z" />
    <glyph glyph-name="adieresis" unicode="&#xe4;" horiz-adv-x="1054" 
d="M525 1018q198 0 298 -109t101 -299v-610h-189l-35 88h-4q-51 -41 -133 -80t-172 -39q-153 0 -233 88t-80 224q0 315 438 315h156v45q0 97 -65 139q-48 31 -111 31q-119 0 -308 -78l-67 193q206 92 404 92zM319 289q0 -123 127 -123q57 0 122 20t104 47v199h-144
q-209 0 -209 -143zM182 1311q0 63 40 102t107 39t107 -39t39 -102q0 -63 -40 -103q-41 -40 -107 -39q-66 -1 -106 39t-40 103zM588 1311q0 63 40 102t106 39t107 -39q40 -39 40 -102t-40 -103t-107 -39q-66 -1 -106 39t-40 103z" />
    <glyph glyph-name="aring" unicode="&#xe5;" horiz-adv-x="1054" 
d="M525 1018q198 0 298 -109t101 -299v-610h-189l-35 88h-4q-51 -41 -133 -80t-172 -39q-153 0 -233 88t-80 224q0 315 438 315h156v45q0 97 -65 139q-48 31 -111 31q-119 0 -308 -78l-67 193q206 92 404 92zM319 289q0 -123 127 -123q57 0 122 20t104 47v199h-144
q-209 0 -209 -143zM532 1540q100 0 162 -58t62 -166t-62 -166t-162 -58t-162 58t-63 166q1 108 63 166t162 58zM608 1316q0 38 -20 62t-56 23q-36 1 -56 -23q-21 -24 -21 -62q-1 -38 21 -60t56 -22t56 22q20 22 20 60z" />
    <glyph glyph-name="ae" unicode="&#xe6;" horiz-adv-x="1605" 
d="M1292 618q0 218 -174 218q-84 0 -132 -74t-52 -176h356q2 8 2 16v16zM78 281q0 315 432 315h162v45q0 95 -56 132.5t-124 37.5q-121 0 -304 -78l-67 193q205 92 385 92q100 0 181 -36t128 -101q110 137 307 137t298.5 -120t101.5 -306q0 -82 -13 -170h-581
q8 -111 64.5 -181.5t170.5 -70.5t258 66l58 -179q-166 -88 -351 -88q-230 0 -350 181q-70 -84 -155.5 -132.5t-231.5 -48.5t-229.5 85t-83.5 227zM319 293q0 -127 123 -127q88 0 158 73.5t70 192.5h-156q-94 0 -144.5 -36t-50.5 -103z" />
    <glyph glyph-name="ccedilla" unicode="&#xe7;" horiz-adv-x="923" 
d="M571 -92q127 -22 127 -163q0 -77 -56 -129t-147 -52t-151 24l25 129q40 -16 80 -16q63 0 63 51t-44 53t-62 2l-7 13l54 162q-173 36 -268 171.5t-95 355.5q0 221 126.5 365t352.5 144q146 0 273 -62l-49 -188q-120 43 -185 43t-110 -20.5t-79 -60.5t-52.5 -99.5
t-18.5 -174t68.5 -197.5t162.5 -83t214 43l49 -188q-127 -56 -248 -62z" />
    <glyph glyph-name="egrave" unicode="&#xe8;" horiz-adv-x="1032" 
d="M719 618q0 214 -184 218q-85 0 -138 -73t-57 -177h377q2 8 2 16v16zM905 57q-166 -88 -373 -88t-326 149q-118 149 -118 372q0 222 117 375t326 153q208 0 313 -122q104 -122 104 -306q0 -88 -12 -168h-602q8 -111 70 -181q62 -71 161 -71q144 0 283 66zM279 1460h262
l145 -278v-21h-217l-190 281v18z" />
    <glyph glyph-name="eacute" unicode="&#xe9;" horiz-adv-x="1032" 
d="M719 618q0 214 -184 218q-85 0 -138 -73t-57 -177h377q2 8 2 16v16zM905 57q-166 -88 -373 -88t-326 149q-118 149 -118 372q0 222 117 375t326 153q208 0 313 -122q104 -122 104 -306q0 -88 -12 -168h-602q8 -111 70 -181q62 -71 161 -71q144 0 283 66zM430 1161v21
l145 278h263v-18l-191 -281h-217z" />
    <glyph glyph-name="ecircumflex" unicode="&#xea;" horiz-adv-x="1032" 
d="M719 618q0 214 -184 218q-85 0 -138 -73t-57 -177h377q2 8 2 16v16zM905 57q-166 -88 -373 -88t-326 149q-118 149 -118 372q0 222 117 375t326 153q208 0 313 -122q104 -122 104 -306q0 -88 -12 -168h-602q8 -111 70 -181q62 -71 161 -71q144 0 283 66zM848 1161h-207
l-98 162l-97 -162h-206v21l168 278h272l168 -278v-21z" />
    <glyph glyph-name="edieresis" unicode="&#xeb;" horiz-adv-x="1032" 
d="M719 618q0 214 -184 218q-85 0 -138 -73t-57 -177h377q2 8 2 16v16zM905 57q-166 -88 -373 -88t-326 149q-118 149 -118 372q0 222 117 375t326 153q208 0 313 -122q104 -122 104 -306q0 -88 -12 -168h-602q8 -111 70 -181q62 -71 161 -71q144 0 283 66zM195 1311
q0 63 39 102q40 39 107 39t107 -39t39 -102q0 -63 -40 -103q-41 -40 -107 -39q-66 0 -106 39q-39 40 -39 103zM600 1311q0 63 40 102t106 39t107 -39q40 -39 40 -102t-40 -103t-107 -39q-66 -1 -106 39t-40 103z" />
    <glyph glyph-name="igrave" unicode="&#xec;" horiz-adv-x="538" 
d="M143 0v987h252v-987h-252zM-18 1460h262l145 -278v-21h-217l-190 281v18z" />
    <glyph glyph-name="iacute" unicode="&#xed;" horiz-adv-x="538" 
d="M143 0v987h252v-987h-252zM154 1161v21l145 278h262v-18l-190 -281h-217z" />
    <glyph glyph-name="icircumflex" unicode="&#xee;" horiz-adv-x="538" 
d="M143 0v987h252v-987h-252zM573 1161h-206l-99 162l-96 -162h-207v21l168 278h273l167 -278v-21z" />
    <glyph glyph-name="idieresis" unicode="&#xef;" horiz-adv-x="538" 
d="M143 0v987h252v-987h-252zM-80 1311q0 63 40 102t107 39t107 -39t39 -102q0 -63 -40 -103q-41 -40 -107 -39q-66 -1 -106 39t-40 103zM326 1311q0 63 40 102t106 39t107 -39q39 -39 39 -102t-39 -103q-40 -39 -107 -39q-66 -1 -106 39t-40 103z" />
    <glyph glyph-name="eth" unicode="&#xf0;" horiz-adv-x="1144" 
d="M569 768q-223 0 -223 -291t223 -291q228 0 228 291t-228 291zM1053 514q0 -243 -127 -394t-354 -151t-354.5 145t-127.5 368t115.5 363t298.5 140q135 0 221 -74l2 4q-29 53 -60.5 109.5t-78.5 110.5l-228 -62l-45 144l181 47q-72 87 -134 149v21h238l84 -103l176 47
l43 -141l-123 -33q273 -407 273 -690z" />
    <glyph glyph-name="ntilde" unicode="&#xf1;" 
d="M666 1018q158 0 242 -102t85 -281v-635h-252v604q0 207 -157 207q-90 0 -189 -86v-725h-252v987h203l33 -94h4q125 125 283 125zM412 1253q-74 0 -123 -71l-51 143q30 57 82 96t115 39t144 -46q33 -18 63 -32t66 -14q73 0 123 70l52 -140q-33 -66 -87 -102t-110 -35
q-56 -1 -118 31t-94 46t-62 15z" />
    <glyph glyph-name="ograve" unicode="&#xf2;" horiz-adv-x="1116" 
d="M906 116q-122 -147 -347 -147t-348 148q-123 149 -123 377t123 376t348 148t347 -147t122 -377t-122 -378zM346 494q0 -74 14 -134q43 -185 198 -184q154 0 198 184q14 60 14 134q0 150 -56 234q-56 85 -157 83q-153 0 -197 -184q-14 -59 -14 -133zM266 1460h262
l146 -278v-21h-217l-191 281v18z" />
    <glyph glyph-name="oacute" unicode="&#xf3;" horiz-adv-x="1116" 
d="M906 116q-122 -147 -347 -147t-348 148q-123 149 -123 377t123 376t348 148t347 -147t122 -377t-122 -378zM346 494q0 -74 14 -134q43 -185 198 -184q154 0 198 184q14 60 14 134q0 150 -56 234q-56 85 -157 83q-153 0 -197 -184q-14 -59 -14 -133zM446 1161v21l146 278
h262v-18l-190 -281h-218z" />
    <glyph glyph-name="ocircumflex" unicode="&#xf4;" horiz-adv-x="1116" 
d="M906 116q-122 -147 -347 -147t-348 148q-123 149 -123 377t123 376t348 148t347 -147t122 -377t-122 -378zM346 494q0 -74 14 -134q43 -185 198 -184q154 0 198 184q14 60 14 134q0 150 -56 234q-56 85 -157 83q-153 0 -197 -184q-14 -59 -14 -133zM860 1161h-207
l-98 162l-96 -162h-207v21l168 278h272l168 -278v-21z" />
    <glyph glyph-name="otilde" unicode="&#xf5;" horiz-adv-x="1116" 
d="M906 116q-122 -147 -347 -147t-348 148q-123 149 -123 377t123 376t348 148t347 -147t122 -377t-122 -378zM346 494q0 -74 14 -134q43 -185 198 -184q154 0 198 184q14 60 14 134q0 150 -56 234q-56 85 -157 83q-153 0 -197 -184q-14 -59 -14 -133zM408 1253
q-74 0 -123 -71l-52 143q29 57 82 96t116 39t143 -46q32 -18 63 -32t67 -14q73 0 123 70l52 -140q-33 -66 -87 -102t-110 -35q-56 -1 -118 31t-94 46t-62 15z" />
    <glyph glyph-name="odieresis" unicode="&#xf6;" horiz-adv-x="1116" 
d="M906 116q-122 -147 -347 -147t-348 148q-123 149 -123 377t123 376t348 148t347 -147t122 -377t-122 -378zM346 494q0 -74 14 -134q43 -185 198 -184q154 0 198 184q14 60 14 134q0 150 -56 234q-56 85 -157 83q-153 0 -197 -184q-14 -59 -14 -133zM209 1311q0 63 40 102
q41 39 107 39t106 -39t40 -102t-40 -103t-107 -39q-67 -1 -107 39t-39 103zM614 1311q0 63 40 102t107 39t107 -39t39 -102q0 -63 -40 -103q-41 -40 -107 -39q-66 -1 -106 39t-40 103z" />
    <glyph glyph-name="divide" unicode="&#xf7;" 
d="M399 137q0 74 45 122t118 48t118 -48t45 -122t-45 -121t-118 -47t-118 47t-45 121zM399 977q0 74 45 122t118 48t118 -48t45 -122t-45 -121t-118 -47t-118 47t-45 121zM1044 662v-211h-962v211h962z" />
    <glyph glyph-name="oslash" unicode="&#xf8;" horiz-adv-x="1116" 
d="M336 487.5q0 -79.5 12 -137.5l324 445q-50 33 -108 33t-100 -24t-70.5 -67t-43 -106.5t-14.5 -143zM548 160q111 0 171.5 86.5t60.5 253.5q0 71 -14 143l-326 -450q48 -33 108 -33zM195 137q-107 141 -107 364q0 222 123.5 369.5t345.5 147.5q134 0 236 -57l67 94
l137 -101l-77 -102q108 -143 108 -367q0 -225 -123 -370.5t-348 -145.5q-125 0 -240 62l-71 -101l-129 103z" />
    <glyph glyph-name="ugrave" unicode="&#xf9;" horiz-adv-x="1116" 
d="M133 352v635h252v-604q0 -207 150 -207q81 0 151 58q18 15 35 28v725h252v-987h-205l-35 94h-2q-122 -122 -278 -124t-238 100t-82 282zM260 1460h262l146 -278v-21h-217l-191 281v18z" />
    <glyph glyph-name="uacute" unicode="&#xfa;" horiz-adv-x="1116" 
d="M133 352v635h252v-604q0 -207 150 -207q81 0 151 58q18 15 35 28v725h252v-987h-205l-35 94h-2q-122 -122 -278 -124t-238 100t-82 282zM442 1161v21l146 278h262v-18l-191 -281h-217z" />
    <glyph glyph-name="ucircumflex" unicode="&#xfb;" horiz-adv-x="1116" 
d="M133 352v635h252v-604q0 -207 150 -207q81 0 151 58q18 15 35 28v725h252v-987h-205l-35 94h-2q-122 -122 -278 -124t-238 100t-82 282zM852 1161h-207l-98 162l-96 -162h-207v21l168 278h272l168 -278v-21z" />
    <glyph glyph-name="udieresis" unicode="&#xfc;" horiz-adv-x="1116" 
d="M133 352v635h252v-604q0 -207 150 -207q81 0 151 58q18 15 35 28v725h252v-987h-205l-35 94h-2q-122 -122 -278 -124t-238 100t-82 282zM205 1311q0 63 40 102q41 39 107 39t106 -39t40 -102t-40 -103t-107 -39q-67 -1 -107 39t-39 103zM610 1311q0 63 40 102t107 39
t107 -39t39 -102q0 -63 -40 -103q-41 -40 -107 -39q-66 -1 -106 39t-40 103z" />
    <glyph glyph-name="yacute" unicode="&#xfd;" horiz-adv-x="1021" 
d="M216 -246q50 0 83 34t57 108l39 114l-358 957v20h256l168 -545l49 -204h6l47 204l160 545h256v-20l-383 -1090q-111 -313 -329 -313q-100 0 -193 24v185q92 -19 142 -19zM399 1161v21l146 278h262v-18l-191 -281h-217z" />
    <glyph glyph-name="thorn" unicode="&#xfe;" horiz-adv-x="1130" 
d="M780 529q0 183 -77.5 232.5t-133.5 49.5q-94 0 -174 -66v-503q80 -66 178 -66t152.5 85t54.5 268zM395 72v-478h-252v1840h252v-519h4q41 33 100.5 68t153.5 35q182 0 283.5 -146.5t101.5 -375.5t-101 -378t-300 -149q-111 0 -238 103h-4z" />
    <glyph glyph-name="ydieresis" unicode="&#xff;" horiz-adv-x="1021" 
d="M216 -246q50 0 83 34t57 108l39 114l-358 957v20h256l168 -545l49 -204h6l47 204l160 545h256v-20l-383 -1090q-111 -313 -329 -313q-100 0 -193 24v185q92 -19 142 -19zM168 1311q0 63 40 102t106 39t107 -39q40 -39 40 -102t-40 -103t-107 -39q-66 -1 -106 39t-40 103z
M573 1311q0 63 40 102t107 39q66 0 106 -39t40 -102t-40 -103t-106 -39q-66 -1 -107 39q-40 40 -40 103z" />
    <glyph glyph-name="Amacron" unicode="&#x100;" horiz-adv-x="1267" 
d="M631 1167l-94 -374l-84 -285h360l-86 285l-90 374h-6zM1245 0h-274l-86 305h-500l-88 -305h-272l458 1393h299zM367 1554v211h534v-211h-534z" />
    <glyph glyph-name="amacron" unicode="&#x101;" horiz-adv-x="1054" 
d="M525 1018q198 0 298 -109t101 -299v-610h-189l-35 88h-4q-51 -41 -133 -80t-172 -39q-153 0 -233 88t-80 224q0 315 438 315h156v45q0 97 -65 139q-48 31 -111 31q-119 0 -308 -78l-67 193q206 92 404 92zM319 289q0 -123 127 -123q57 0 122 20t104 47v199h-144
q-209 0 -209 -143zM264 1186v211h535v-211h-535z" />
    <glyph glyph-name="Abreve" unicode="&#x102;" horiz-adv-x="1267" 
d="M631 1167l-94 -374l-84 -285h360l-86 285l-90 374h-6zM1245 0h-274l-86 305h-500l-88 -305h-272l458 1393h299zM938 1673q-137 -137 -303 -137t-303 137l59 152q111 -70 243 -70t245 70z" />
    <glyph glyph-name="abreve" unicode="&#x103;" horiz-adv-x="1054" 
d="M525 1018q198 0 298 -109t101 -299v-610h-189l-35 88h-4q-51 -41 -133 -80t-172 -39q-153 0 -233 88t-80 224q0 315 438 315h156v45q0 97 -65 139q-48 31 -111 31q-119 0 -308 -78l-67 193q206 92 404 92zM319 289q0 -123 127 -123q57 0 122 20t104 47v199h-144
q-209 0 -209 -143zM531 1380q133 0 243 70l60 -152q-134 -134 -299 -135q-165 -2 -308 135l60 152q111 -70 244 -70z" />
    <glyph glyph-name="Aogonek" unicode="&#x104;" horiz-adv-x="1267" 
d="M631 1167l-94 -374l-84 -285h360l-86 285l-90 374h-6zM1122 -258q49 0 88 37l21 -164q-29 -20 -80 -35.5t-99 -15.5q-93 0 -153.5 57.5t-60.5 153.5q0 137 131 227l-84 303h-500l-88 -305h-272l458 1393h299l463 -1393q-117 -25 -164 -78t-47 -99t19.5 -63.5t68.5 -17.5z
" />
    <glyph glyph-name="aogonek" unicode="&#x105;" horiz-adv-x="1054" 
d="M319 289q0 -123 127 -123q57 0 122 20.5t104 46.5v199h-144q-209 0 -209 -143zM525 1018q198 0 298.5 -108.5t100.5 -299.5v-610q-59 -24 -106.5 -78.5t-47.5 -99.5t19.5 -62.5t68.5 -17.5t88 37l21 -164q-29 -20 -80 -35.5t-94 -15.5q-104 0 -162 59.5t-58 151.5
q0 133 158 231l-31 82h-4q-51 -41 -133 -80t-172 -39q-154 0 -233.5 88t-79.5 224q0 315 438 315h156v45q0 96 -55 133t-121 37q-125 0 -308 -78l-67 193q206 92 404 92z" />
    <glyph glyph-name="Cacute" unicode="&#x106;" horiz-adv-x="1155" 
d="M736 -31q-308 0 -469 198t-161 528q0 331 160 530q160 198 451 198q184 0 356 -90l-67 -194q-128 67 -288 67q-161 0 -256 -144t-94 -368t96 -366t253 -142q159 0 289 68l67 -195q-171 -90 -337 -90zM569 1536v20l129 279h279v-18l-172 -281h-236z" />
    <glyph glyph-name="cacute" unicode="&#x107;" horiz-adv-x="919" 
d="M581 -30q-238 -2 -366 143q-127 145 -127 382q0 236 126 379q126 144 353 144q146 0 273 -62l-49 -188q-120 43 -185 43q-186 0 -241 -180q-19 -59 -19 -137q-1 -152 67 -234t166 -83t212 42l49 -188q-130 -60 -259 -61zM440 1161v21l146 278h262v-18l-191 -281h-217z
" />
    <glyph glyph-name="Ccircumflex" unicode="&#x108;" horiz-adv-x="1155" 
d="M736 -31q-308 0 -469 198t-161 528q0 331 160 530q160 198 451 198q184 0 356 -90l-67 -194q-128 67 -288 67q-161 0 -256 -144t-94 -368t96 -366t253 -142q159 0 289 68l67 -195q-171 -90 -337 -90zM1028 1536h-207l-116 162l-115 -162h-207v20l209 279h227l209 -279
v-20z" />
    <glyph glyph-name="ccircumflex" unicode="&#x109;" horiz-adv-x="919" 
d="M581 -30q-238 -2 -366 143q-127 145 -127 382q0 236 126 379q126 144 353 144q146 0 273 -62l-49 -188q-120 43 -185 43q-186 0 -241 -180q-19 -59 -19 -137q-1 -152 67 -234t166 -83t212 42l49 -188q-130 -60 -259 -61zM840 1161h-207l-98 162l-97 -162h-207v21l168 278
h273l168 -278v-21z" />
    <glyph glyph-name="Cdotaccent" unicode="&#x10a;" horiz-adv-x="1155" 
d="M736 -31q-308 0 -469 198t-161 528q0 331 160 530q160 198 451 198q184 0 356 -90l-67 -194q-128 67 -288 67q-161 0 -256 -144t-94 -368t96 -366t253 -142q159 0 289 68l67 -195q-171 -90 -337 -90zM565 1675q0 63 40 103t107 39q66 0 106 -39q40 -38 40 -102t-40 -103
t-106 -39t-107 39q-40 39 -40 102z" />
    <glyph glyph-name="cdotaccent" unicode="&#x10b;" horiz-adv-x="919" 
d="M581 -30q-238 -2 -366 143q-127 145 -127 382q0 236 126 379q126 144 353 144q146 0 273 -62l-49 -188q-120 43 -185 43q-186 0 -241 -180q-19 -59 -19 -137q-1 -152 67 -234t166 -83t212 42l49 -188q-130 -60 -259 -61zM387 1309q0 63 40 102q41 39 107 39t106 -39
t40 -102t-40 -103t-107 -39q-67 -1 -107 39t-39 103z" />
    <glyph glyph-name="Ccaron" unicode="&#x10c;" horiz-adv-x="1155" 
d="M736 -31q-308 0 -469 198t-161 528q0 331 160 530q160 198 451 198q184 0 356 -90l-67 -194q-128 67 -288 67q-161 0 -256 -144t-94 -368t96 -366t253 -142q159 0 289 68l67 -195q-171 -90 -337 -90zM379 1835h207l116 -162l115 162h207v-20l-209 -279h-227l-209 279v20z
" />
    <glyph glyph-name="ccaron" unicode="&#x10d;" horiz-adv-x="919" 
d="M581 -30q-238 -2 -366 143q-127 145 -127 382q0 236 126 379q126 144 353 144q146 0 273 -62l-49 -188q-120 43 -185 43q-186 0 -241 -180q-19 -59 -19 -137q-1 -152 67 -234t166 -83t212 42l49 -188q-130 -60 -259 -61zM231 1460h207l99 -162l96 162h207v-20l-168 -279
h-273l-168 279v20z" />
    <glyph glyph-name="Dcaron" unicode="&#x10e;" horiz-adv-x="1316" 
d="M541 211q233 0 318 113t85 373q0 259 -85 372t-318 113h-113v-971h113zM172 1393h393q506 0 607 -399q34 -130 34 -299q0 -347 -149 -521t-492 -174h-393v1393zM297 1835h207l117 -162l114 162h207v-20l-209 -279h-227l-209 279v20z" />
    <glyph glyph-name="dcaron" unicode="&#x10f;" horiz-adv-x="1132" 
d="M989 1434v-1434h-186l-35 88h-4q-47 -39 -116 -79t-166 -40t-170 42q-146 84 -195 279q-25 94 -25 202q0 226 102 376t287 150q93 0 153 -34t101 -69h2v519h252zM737 745q-80 66 -178 66t-154 -85q-55 -85 -55 -232q0 -221 117 -293q39 -25 94 -25q96 0 176 66v503z
M1376 1393v-21l-108 -319h-187v20l45 320h250z" />
    <glyph glyph-name="Dcroat" unicode="&#x110;" horiz-adv-x="1320" 
d="M543 211q233 0 318 113t85 373q0 259 -85 372t-318 113h-113v-389h209v-211h-209v-371h113zM86 793h88v600h393q504 0 608 -399q33 -130 33 -299q-1 -350 -150 -523q-149 -172 -491 -172h-393v582h-88v211z" />
    <glyph glyph-name="dcroat" unicode="&#x111;" horiz-adv-x="1132" 
d="M737 745q-80 66 -179 66t-153.5 -86.5t-54.5 -268.5t78 -231t133 -49q96 0 176 66v503zM989 1434v-125h88v-191h-88v-1118h-186l-35 88h-4q-47 -39 -115.5 -79t-166.5 -40q-184 0 -287 148t-103 377t103.5 376.5t285.5 147.5q92 0 152.5 -34t101.5 -69h2v203h-194v191
h194v125h252z" />
    <glyph glyph-name="Emacron" unicode="&#x112;" horiz-adv-x="1130" 
d="M1014 1393v-211h-586v-371h524v-211h-524v-389h592v-211h-848v1393h842zM324 1554v211h534v-211h-534z" />
    <glyph glyph-name="emacron" unicode="&#x113;" horiz-adv-x="1032" 
d="M719 618q0 214 -184 218q-85 0 -138 -73t-57 -177h377q2 8 2 16v16zM905 57q-166 -88 -373 -88t-326 149q-118 149 -118 372q0 222 117 375t326 153q208 0 313 -122q104 -122 104 -306q0 -88 -12 -168h-602q8 -111 70 -181q62 -71 161 -71q144 0 283 66zM276 1186v211
h535v-211h-535z" />
    <glyph glyph-name="Ebreve" unicode="&#x114;" horiz-adv-x="1130" 
d="M1014 1393v-211h-586v-371h524v-211h-524v-389h592v-211h-848v1393h842zM905 1673q-137 -137 -303 -137t-303 137l59 152q111 -70 243 -70t245 70z" />
    <glyph glyph-name="ebreve" unicode="&#x115;" horiz-adv-x="1032" 
d="M719 618q0 214 -184 218q-85 0 -138 -73t-57 -177h377q2 8 2 16v16zM905 57q-166 -88 -373 -88t-326 149q-118 149 -118 372q0 222 117 375t326 153q208 0 313 -122q104 -122 104 -306q0 -88 -12 -168h-602q8 -111 70 -181q62 -71 161 -71q144 0 283 66zM309 1450
q111 -70 243 -70t245 70l59 -152q-134 -134 -301 -135q-168 -2 -305 135z" />
    <glyph glyph-name="Edotaccent" unicode="&#x116;" horiz-adv-x="1130" 
d="M1014 1393v-211h-586v-371h524v-211h-524v-389h592v-211h-848v1393h842zM455 1675q0 63 40 103q41 40 107 39q66 0 106 -39q40 -38 40 -102t-40 -103t-107 -39t-107 39t-39 102z" />
    <glyph glyph-name="edotaccent" unicode="&#x117;" horiz-adv-x="1032" 
d="M719 618q0 214 -184 218q-85 0 -138 -73t-57 -177h377q2 8 2 16v16zM905 57q-166 -88 -373 -88t-326 149q-118 149 -118 372q0 222 117 375t326 153q208 0 313 -122q104 -122 104 -306q0 -88 -12 -168h-602q8 -111 70 -181q62 -71 161 -71q144 0 283 66zM397 1309
q0 63 40 102t107 39q66 0 106 -39t40 -102t-40 -103t-106 -39q-66 -1 -107 39q-40 40 -40 103z" />
    <glyph glyph-name="Eogonek" unicode="&#x118;" horiz-adv-x="1130" 
d="M944 -258q49 0 88 37l21 -164q-29 -20 -80 -35.5t-99 -15.5q-95 0 -155 58t-60 152t60.5 151t87.5 75h-635v1393h842v-211h-586v-371h524v-211h-524v-389h592v-211q-65 -24 -114.5 -77.5t-49.5 -99.5t19.5 -63.5t68.5 -17.5z" />
    <glyph glyph-name="eogonek" unicode="&#x119;" horiz-adv-x="1032" 
d="M719 596v40q0 76 -43 138t-136 62q-92 0 -144 -74t-56 -176h377q2 8 2 10zM545 -31q-220 0 -338.5 148.5t-118.5 372.5t117.5 376t325.5 152t312.5 -122t104.5 -304q0 -89 -12 -170h-602q8 -111 70.5 -181.5t160.5 -70.5q137 0 283 66l57 -179q-16 -10 -69.5 -36t-87 -84
t-33.5 -111q0 -84 76 -84q58 0 100 37l20 -164q-29 -20 -80 -35.5t-99 -15.5q-94 0 -154 58t-60 158t78 187v4z" />
    <glyph glyph-name="Ecaron" unicode="&#x11a;" horiz-adv-x="1130" 
d="M1014 1393v-211h-586v-371h524v-211h-524v-389h592v-211h-848v1393h842zM283 1835h206l117 -162l115 162h207v-20l-209 -279h-227l-209 279v20z" />
    <glyph glyph-name="ecaron" unicode="&#x11b;" horiz-adv-x="1032" 
d="M719 618q0 214 -184 218q-85 0 -138 -73t-57 -177h377q2 8 2 16v16zM905 57q-166 -88 -373 -88t-326 149q-118 149 -118 372q0 222 117 375t326 153q208 0 313 -122q104 -122 104 -306q0 -88 -12 -168h-602q8 -111 70 -181q62 -71 161 -71q144 0 283 66zM240 1460h206
l99 -162l96 162h207v-20l-168 -279h-272l-168 279v20z" />
    <glyph glyph-name="Gcircumflex" unicode="&#x11c;" horiz-adv-x="1300" 
d="M725 186q106 0 195 43v293l-224 37v174h480v-637q-135 -85 -343 -116q-67 -10 -133 -11q-286 0 -441 202t-155 522q0 321 161 525q161 205 472 205q219 0 424 -104l-71 -197q-176 86 -359 85q-182 -1 -274 -141t-90 -370q0 -365 186 -472q66 -38 172 -38zM1022 1536h-207
l-117 162l-114 -162h-207v20l209 279h227l209 -279v-20z" />
    <glyph glyph-name="gcircumflex" unicode="&#x11d;" 
d="M524 -246q209 0 209 252v76h-4q-39 -35 -98 -67q-59 -31 -155 -31q-186 1 -286 145q-100 145 -100 367t100 372t287 150q123 0 230 -81q29 -22 53 -40h4l33 90h188v-936q0 -355 -265 -455q-85 -32 -196 -32q-186 0 -350 92l74 178q142 -80 276 -80zM733 745
q-80 66 -179 66t-153 -85q-53 -85 -53 -228q0 -220 115 -285q39 -23 94 -23q101 0 176 62v493zM883 1161h-207l-98 162l-97 -162h-207v21l168 278h273l168 -278v-21z" />
    <glyph glyph-name="Gbreve" unicode="&#x11e;" horiz-adv-x="1300" 
d="M725 186q106 0 195 43v293l-224 37v174h480v-637q-135 -85 -343 -116q-67 -10 -133 -11q-286 0 -441 202t-155 522q0 321 161 525q161 205 472 205q219 0 424 -104l-71 -197q-176 86 -359 85q-182 -1 -274 -141t-90 -370q0 -365 186 -472q66 -38 172 -38zM1008 1673
q-137 -137 -301 -137t-306 137l60 152q111 -70 243 -70q133 0 244 70z" />
    <glyph glyph-name="gbreve" unicode="&#x11f;" 
d="M524 -246q209 0 209 252v76h-4q-39 -35 -98 -67q-59 -31 -155 -31q-186 1 -286 145q-100 145 -100 367t100 372t287 150q123 0 230 -81q29 -22 53 -40h4l33 90h188v-936q0 -355 -265 -455q-85 -32 -196 -32q-186 0 -350 92l74 178q142 -80 276 -80zM733 745
q-80 66 -179 66t-153 -85q-53 -85 -53 -228q0 -220 115 -285q39 -23 94 -23q101 0 176 62v493zM580 1380q133 0 243 70l60 -152q-134 -134 -299 -135q-165 -2 -308 135l60 152q111 -70 244 -70z" />
    <glyph glyph-name="Gdotaccent" unicode="&#x120;" horiz-adv-x="1300" 
d="M725 186q106 0 195 43v293l-224 37v174h480v-637q-135 -85 -343 -116q-67 -10 -133 -11q-286 0 -441 202t-155 522q0 321 161 525q161 205 472 205q219 0 424 -104l-71 -197q-176 86 -359 85q-182 -1 -274 -141t-90 -370q0 -365 186 -472q66 -38 172 -38zM555 1675
q0 63 40 103q41 40 107 39q66 0 106 -39q40 -38 40 -102t-40 -103t-107 -39t-107 39t-39 102z" />
    <glyph glyph-name="gdotaccent" unicode="&#x121;" 
d="M524 -246q209 0 209 252v76h-4q-39 -35 -98 -67q-59 -31 -155 -31q-186 1 -286 145q-100 145 -100 367t100 372t287 150q123 0 230 -81q29 -22 53 -40h4l33 90h188v-936q0 -355 -265 -455q-85 -32 -196 -32q-186 0 -350 92l74 178q142 -80 276 -80zM733 745
q-80 66 -179 66t-153 -85q-53 -85 -53 -228q0 -220 115 -285q39 -23 94 -23q101 0 176 62v493zM430 1309q0 63 40 102t106 39t107 -39q40 -39 40 -102t-40 -103t-107 -39q-66 -1 -106 39t-40 103z" />
    <glyph glyph-name="uni0122" unicode="&#x122;" horiz-adv-x="1300" 
d="M725 186q106 0 195 43v293l-224 37v174h480v-637q-135 -85 -343 -116q-67 -10 -133 -11q-286 0 -441 202t-155 522q0 321 161 525q161 205 472 205q219 0 424 -104l-71 -197q-176 86 -359 85q-182 -1 -274 -141t-90 -370q0 -365 186 -472q66 -38 172 -38zM829 -106v-21
l-108 -319h-186v20l45 320h249z" />
    <glyph glyph-name="uni0123" unicode="&#x123;" 
d="M524 -246q209 0 209 252v76h-4q-39 -35 -98 -67q-59 -31 -155 -31q-186 1 -286 145q-100 145 -100 367t100 372t287 150q123 0 230 -81q29 -22 53 -40h4l33 90h188v-936q0 -355 -265 -455q-85 -32 -196 -32q-186 0 -350 92l74 178q142 -80 276 -80zM733 745
q-80 66 -179 66t-153 -85q-53 -85 -53 -228q0 -220 115 -285q39 -23 94 -23q101 0 176 62v493zM451 1141v20l108 320h186v-21l-47 -319h-247z" />
    <glyph glyph-name="Hcircumflex" unicode="&#x124;" horiz-adv-x="1382" 
d="M954 600h-526v-600h-256v1393h256v-582h526v582h256v-1393h-256v600zM1008 1536h-207l-117 162l-115 -162h-207v20l209 279h228l209 -279v-20z" />
    <glyph glyph-name="hcircumflex" unicode="&#x125;" 
d="M741 604q0 207 -157 207q-63 0 -114 -33q-24 -14 -42 -32t-33 -31v-715h-252v1434h252v-527h4q70 70 181 101q39 10 84 10q160 0 244 -102t85 -283v-633h-252v604zM887 1536h-207l-117 162l-114 -162h-207v20l209 279h227l209 -279v-20z" />
    <glyph glyph-name="Hbar" unicode="&#x126;" horiz-adv-x="1392" 
d="M958 811v203h-526v-203h526zM1214 1014v-1014h-256v600h-526v-600h-256v1014h-96v211h96v168h256v-168h526v168h256v-168h99v-211h-99z" />
    <glyph glyph-name="hbar" unicode="&#x127;" 
d="M741 604q0 207 -157 207q-90 0 -132 -41t-57 -55v-715h-252v1116h-90v191h90v127h252v-127h193v-191h-193v-209h4q71 70 145 90.5t120 20.5q160 0 244.5 -102.5t84.5 -282.5v-633h-252v604z" />
    <glyph glyph-name="Itilde" unicode="&#x128;" horiz-adv-x="600" 
d="M428 0h-256v1393h256v-1393zM150 1630q-74 0 -123 -71l-52 143q29 57 82 96t116 39t143 -46q32 -17 63 -31t67 -15q75 0 123 70l52 -140q-33 -65 -87 -101t-113 -36t-147 46t-124 46z" />
    <glyph glyph-name="itilde" unicode="&#x129;" horiz-adv-x="538" 
d="M143 0v987h252v-987h-252zM121 1253q-74 0 -123 -71l-51 143q29 57 82 96t115 39t144 -46q32 -18 62 -32t67 -14q72 0 124 70l51 -140q-33 -66 -87 -102t-110 -35q-56 -1 -118 31t-94 46t-62 15z" />
    <glyph glyph-name="Imacron" unicode="&#x12a;" horiz-adv-x="600" 
d="M428 0h-256v1393h256v-1393zM27 1554v211h534v-211h-534z" />
    <glyph glyph-name="imacron" unicode="&#x12b;" horiz-adv-x="538" 
d="M143 0v987h252v-987h-252zM2 1186v211h535v-211h-535z" />
    <glyph glyph-name="Ibreve" unicode="&#x12c;" horiz-adv-x="600" 
d="M428 0h-256v1393h256v-1393zM298 1755q132 0 245 70l59 -152q-137 -137 -303 -137t-303 137l59 152q111 -70 243 -70z" />
    <glyph glyph-name="ibreve" unicode="&#x12d;" horiz-adv-x="538" 
d="M143 0v987h252v-987h-252zM270 1380q133 0 244 70l59 -152q-134 -134 -298 -135q-165 -2 -308 135l60 152q110 -70 243 -70z" />
    <glyph glyph-name="Iogonek" unicode="&#x12e;" horiz-adv-x="600" 
d="M327 -258q48 0 89 37l20 -164q-29 -20 -80 -35.5t-99 -15.5q-94 0 -154 58t-60 153q0 130 129 225v1393h256v-1393q-100 -25 -144 -78t-44 -99t19.5 -63.5t67.5 -17.5z" />
    <glyph glyph-name="iogonek" unicode="&#x12f;" horiz-adv-x="538" 
d="M125 1308.5q0 63.5 40.5 102.5t106.5 39t106 -39t40 -102.5t-40 -102.5t-107 -39t-106.5 39t-39.5 102.5zM297 -258q49 0 88 37l21 -164q-29 -20 -80.5 -35.5t-99.5 -15.5q-94 0 -154 58t-60 153q0 131 131 227v985h252v-987q-98 -25 -142 -78t-44 -99t19.5 -63.5
t68.5 -17.5z" />
    <glyph glyph-name="Idotaccent" unicode="&#x130;" horiz-adv-x="600" 
d="M428 0h-256v1393h256v-1393zM152 1675q0 63 39 103q40 39 107 39q66 0 106 -39q40 -38 40 -102t-40 -103t-106 -39t-107 39q-39 39 -39 102z" />
    <glyph glyph-name="dotlessi" unicode="&#x131;" horiz-adv-x="538" 
d="M143 0v987h252v-987h-252z" />
    <glyph glyph-name="IJ" unicode="&#x132;" horiz-adv-x="1527" 
d="M428 0h-256v1393h256v-1393zM954 186q154 0 154 240v967h256v-983q0 -228 -110 -334t-300 -107q-116 0 -194 45t-133 101l116 178q43 -41 89 -74t122 -33z" />
    <glyph glyph-name="ij" unicode="&#x133;" horiz-adv-x="1077" 
d="M125 1309q0 63 40 102q41 39 107 39t106 -39t40 -102t-40 -103t-107 -39q-67 -1 -107 39t-39 103zM143 0v987h252v-987h-252zM664 1309q0 63 39 102q40 39 106 39q67 0 107 -39t40 -102t-41 -103t-107 -39q-66 0 -105 39q-39 40 -39 103zM594 -246q88 0 88 144v1089h252
v-1075q0 -175 -85 -261q-85 -87 -237 -87q-61 0 -129 14v191q47 -15 111 -15z" />
    <glyph glyph-name="Jcircumflex" unicode="&#x134;" horiz-adv-x="927" 
d="M354 186q154 0 154 240v967h256v-983q0 -228 -110 -334t-300 -107q-116 0 -194 45t-133 101l116 178q43 -41 89 -74t122 -33zM965 1536h-207l-117 162l-115 -162h-207v20l209 279h228l209 -279v-20z" />
    <glyph glyph-name="jcircumflex" unicode="&#x135;" horiz-adv-x="538" 
d="M55 -246q88 0 88 144v1089h252v-1075q0 -176 -85 -262t-236 -86q-64 0 -129 14v191q47 -15 110 -15zM578 1161h-207l-99 162l-96 -162h-207v21l168 278h273l168 -278v-21z" />
    <glyph glyph-name="uni0136" unicode="&#x136;" horiz-adv-x="1224" 
d="M428 627v-627h-256v1393h256v-676h4l453 676h286v-21l-489 -688l514 -664v-20h-299l-465 627h-4zM739 -106v-21l-108 -319h-187v20l45 320h250z" />
    <glyph glyph-name="uni0137" unicode="&#x137;" horiz-adv-x="1038" 
d="M395 459v-459h-252v1434h252v-891h4l310 444h274v-18l-344 -461l360 -488v-20h-288l-312 459h-4zM657 -106v-21l-108 -319h-187v20l46 320h249z" />
    <glyph glyph-name="kgreenlandic" unicode="&#x138;" horiz-adv-x="1038" 
d="M395 453v-453h-252v987h252v-450h4l310 450h274v-18l-344 -467l360 -482v-20h-288l-312 453h-4z" />
    <glyph glyph-name="Lacute" unicode="&#x139;" horiz-adv-x="1026" 
d="M428 1393v-1172h541v-221h-797v1393h256zM178 1536v20l129 279h279v-18l-172 -281h-236z" />
    <glyph glyph-name="lacute" unicode="&#x13a;" horiz-adv-x="538" 
d="M143 0v1434h252v-1434h-252zM141 1536v20l129 279h279v-18l-172 -281h-236z" />
    <glyph glyph-name="uni013B" unicode="&#x13b;" horiz-adv-x="1026" 
d="M428 1393v-1172h541v-221h-797v1393h256zM700 -106v-21l-108 -319h-186v20l45 320h249z" />
    <glyph glyph-name="uni013C" unicode="&#x13c;" horiz-adv-x="538" 
d="M143 0v1434h252v-1434h-252zM387 -106v-21l-108 -319h-187v20l45 320h250z" />
    <glyph glyph-name="Lcaron" unicode="&#x13d;" horiz-adv-x="1026" 
d="M428 1393v-1172h541v-221h-797v1393h256zM879 1393v-21l-109 -319h-186v20l45 320h250z" />
    <glyph glyph-name="lcaron" unicode="&#x13e;" horiz-adv-x="538" 
d="M143 0v1434h252v-1434h-252zM776 1393v-21l-108 -319h-187v20l45 320h250z" />
    <glyph glyph-name="Ldot" unicode="&#x13f;" horiz-adv-x="1030" 
d="M428 1393v-1172h541v-221h-797v1393h256zM618 731q0 74 46 122t118 48t117 -48t45 -122t-45 -121t-118 -47t-118 47t-45 121z" />
    <glyph glyph-name="ldot" unicode="&#x140;" horiz-adv-x="755" 
d="M143 0v1434h252v-1434h-252zM485 731q0 74 45 122t118 48t118 -48t45 -122t-45 -121t-118 -47t-118 47t-45 121z" />
    <glyph glyph-name="Lslash" unicode="&#x141;" horiz-adv-x="1077" 
d="M479 1393v-514l197 110h18v-223l-215 -121v-424h541v-221h-797v504l-129 -72h-18v223l147 82v656h256z" />
    <glyph glyph-name="lslash" unicode="&#x142;" horiz-adv-x="641" 
d="M180 0v487l-112 -59h-19v223l131 70v713h252v-572l148 82h18v-223l-166 -92v-629h-252z" />
    <glyph glyph-name="Nacute" unicode="&#x143;" horiz-adv-x="1411" 
d="M983 1393h256v-1393h-270l-566 1049h-6l31 -271v-778h-256v1393h270l566 -1051h6l-31 270v781zM573 1536v20l129 279h279v-18l-172 -281h-236z" />
    <glyph glyph-name="nacute" unicode="&#x144;" 
d="M666 1018q158 0 242 -102t85 -281v-635h-252v604q0 207 -157 207q-90 0 -189 -86v-725h-252v987h203l33 -94h4q125 125 283 125zM461 1161v21l145 278h262v-18l-190 -281h-217z" />
    <glyph glyph-name="uni0145" unicode="&#x145;" horiz-adv-x="1411" 
d="M983 1393h256v-1393h-270l-566 1049h-6l31 -271v-778h-256v1393h270l566 -1051h6l-31 270v781zM821 -106v-21l-108 -319h-187v20l45 320h250z" />
    <glyph glyph-name="uni0146" unicode="&#x146;" 
d="M666 1018q158 0 242 -102t85 -281v-635h-252v604q0 207 -157 207q-90 0 -189 -86v-725h-252v987h203l33 -94h4q125 125 283 125zM686 -106v-21l-108 -319h-187v20l45 320h250z" />
    <glyph glyph-name="Ncaron" unicode="&#x147;" horiz-adv-x="1411" 
d="M983 1393h256v-1393h-270l-566 1049h-6l31 -271v-778h-256v1393h270l566 -1051h6l-31 270v781zM381 1835h207l117 -162l114 162h207v-20l-209 -279h-227l-209 279v20z" />
    <glyph glyph-name="ncaron" unicode="&#x148;" 
d="M666 1018q158 0 242 -102t85 -281v-635h-252v604q0 207 -157 207q-90 0 -189 -86v-725h-252v987h203l33 -94h4q125 125 283 125zM268 1460h207l98 -162l97 162h207v-20l-168 -279h-273l-168 279v20z" />
    <glyph glyph-name="napostrophe" unicode="&#x149;" 
d="M666 1018q158 0 242 -102t85 -281v-635h-252v604q0 207 -157 207q-90 0 -189 -86v-725h-252v987h203l33 -94h4q125 125 283 125zM238 1393v-21l-109 -319h-186v20l45 320h250z" />
    <glyph glyph-name="Eng" unicode="&#x14a;" horiz-adv-x="1411" 
d="M985 -102v108l-582 1043h-6l31 -271v-778h-256v1393h270l566 -1045h6l-31 264v781h256v-1481q0 -175 -84.5 -261.5t-236.5 -86.5q-62 0 -130 14v191q47 -15 111 -15q86 0 86 144z" />
    <glyph glyph-name="eng" unicode="&#x14b;" 
d="M666 1018q158 0 242.5 -101.5t84.5 -281.5v-723q0 -175 -84.5 -261.5t-236.5 -86.5q-64 0 -129 14v191q47 -15 110 -15q88 0 88 144v706q0 207 -157 207q-81 0 -127.5 -37t-61.5 -49v-725h-252v987h203l33 -94h4q125 125 283 125z" />
    <glyph glyph-name="Omacron" unicode="&#x14c;" horiz-adv-x="1419" 
d="M106 696q0 323 153 525t452 202q300 0 456 -211q146 -193 146 -515t-152 -524t-452 -203t-457 210q-146 193 -146 516zM369 696q0 -358 184 -470q66 -40 158 -40q177 0 263 149q75 129 77 361q0 362 -183 470q-66 40 -158 40q-176 0 -258 -140q-83 -140 -83 -370z
M444 1554v211h535v-211h-535z" />
    <glyph glyph-name="omacron" unicode="&#x14d;" horiz-adv-x="1116" 
d="M906 116q-122 -147 -347 -147t-348 148q-123 149 -123 377t123 376t348 148t347 -147t122 -377t-122 -378zM346 494q0 -74 14 -134q43 -185 198 -184q154 0 198 184q14 60 14 134q0 150 -56 234q-56 85 -157 83q-153 0 -197 -184q-14 -59 -14 -133zM287 1186v211h534
v-211h-534z" />
    <glyph glyph-name="Obreve" unicode="&#x14e;" horiz-adv-x="1419" 
d="M106 696q0 323 153 525t452 202q300 0 456 -211q146 -193 146 -515t-152 -524t-452 -203t-457 210q-146 193 -146 516zM369 696q0 -358 184 -470q66 -40 158 -40q177 0 263 149q75 129 77 361q0 362 -183 470q-66 40 -158 40q-176 0 -258 -140q-83 -140 -83 -370z
M716 1755q132 0 245 70l59 -152q-137 -137 -303 -137t-303 137l59 152q111 -70 243 -70z" />
    <glyph glyph-name="obreve" unicode="&#x14f;" horiz-adv-x="1116" 
d="M906 116q-122 -147 -347 -147t-348 148q-123 149 -123 377t123 376t348 148t347 -147t122 -377t-122 -378zM346 494q0 -74 14 -134q43 -185 198 -184q154 0 198 184q14 60 14 134q0 150 -56 234q-56 85 -157 83q-153 0 -197 -184q-14 -59 -14 -133zM554 1380
q132 0 245 70l59 -152q-134 -134 -301 -135q-168 -2 -305 135l59 152q111 -70 243 -70z" />
    <glyph glyph-name="Ohungarumlaut" unicode="&#x150;" horiz-adv-x="1419" 
d="M106 696q0 323 153 525t452 202q300 0 456 -211q146 -193 146 -515t-152 -524t-452 -203t-457 210q-146 193 -146 516zM369 696q0 -358 184 -470q66 -40 158 -40q177 0 263 149q75 129 77 361q0 362 -183 470q-66 40 -158 40q-176 0 -258 -140q-83 -140 -83 -370z
M811 1536v20l145 279h261v-20l-189 -279h-217zM424 1536v20l145 279h260v-20l-188 -279h-217z" />
    <glyph glyph-name="ohungarumlaut" unicode="&#x151;" horiz-adv-x="1116" 
d="M906 116q-122 -147 -347 -147t-348 148q-123 149 -123 377t123 376t348 148t347 -147t122 -377t-122 -378zM346 494q0 -74 14 -134q43 -185 198 -184q154 0 198 184q14 60 14 134q0 150 -56 234q-56 85 -157 83q-153 0 -197 -184q-14 -59 -14 -133zM635 1161v21l145 278
h260v-18l-188 -281h-217zM248 1161v21l145 278h260v-18l-188 -281h-217z" />
    <glyph glyph-name="OE" unicode="&#x152;" horiz-adv-x="1867" 
d="M724 1206q-107 0 -172 -41t-105.5 -110.5t-59 -162.5t-18.5 -256.5t82.5 -306.5t259.5 -143q121 0 200 47v926q-80 47 -187 47zM106 696.5q0 321.5 152 524t453 202.5q115 0 207 -30h833v-211h-584v-371h525v-211h-525v-389h590v-211h-842q-104 -31 -233 -31t-242.5 56.5
t-223.5 203t-110 468z" />
    <glyph glyph-name="oe" unicode="&#x153;" horiz-adv-x="1724" 
d="M1411 596v40q0 78 -42.5 139t-135.5 61t-145 -74t-56 -176h377q2 8 2 10zM346 493.5q0 -73.5 14.5 -133t41 -100.5t65.5 -62.5t90 -21.5t91 21.5t66.5 62.5t41 100.5t14.5 133t-14.5 133t-41 100.5t-66.5 62.5t-91 21.5t-90 -21.5t-65.5 -62.5t-41 -100.5t-14.5 -133z
M1640 590q0 -88 -12 -168h-602q8 -111 70.5 -181.5t160.5 -70.5q140 0 283 66l57 -179q-166 -88 -360 -88q-117 0 -207 47t-139 121q-55 -66 -140 -117t-197 -51q-218 0 -342 148t-124 377t124.5 376.5t344.5 147.5q109 0 194 -52.5t140 -117.5q53 72 138 121t195 49
t188.5 -35t128.5 -93.5t74.5 -135t24.5 -164.5z" />
    <glyph glyph-name="Racute" unicode="&#x154;" horiz-adv-x="1263" 
d="M688 772q92 0 138 57t46 149t-46 147q-46 56 -138 57h-260v-410h260zM1204 0h-270l-332 561h-174v-561h-256v1393h528q222 0 328 -108t107 -306q0 -329 -273 -399l342 -547v-33zM469 1536v20l129 279h279v-18l-172 -281h-236z" />
    <glyph glyph-name="racute" unicode="&#x155;" horiz-adv-x="747" 
d="M572 803q-60 0 -107 -33t-70 -70v-700h-252v987h205l35 -117h4q47 98 143 135q36 13 78 13t90 -12l-20 -211q-46 8 -106 8zM262 1161v21l146 278h262v-18l-191 -281h-217z" />
    <glyph glyph-name="uni0156" unicode="&#x156;" horiz-adv-x="1263" 
d="M688 772q92 0 138 57t46 149t-46 147q-46 56 -138 57h-260v-410h260zM1204 0h-270l-332 561h-174v-561h-256v1393h528q222 0 328 -108t107 -306q0 -329 -273 -399l342 -547v-33zM748 -106v-21l-109 -319h-186v20l45 320h250z" />
    <glyph glyph-name="uni0157" unicode="&#x157;" horiz-adv-x="747" 
d="M572 803q-60 0 -107 -33t-70 -70v-700h-252v987h205l35 -117h4q47 98 143 135q36 13 78 13t90 -12l-20 -211q-46 8 -106 8zM391 -106v-21l-108 -319h-187v20l45 320h250z" />
    <glyph glyph-name="Rcaron" unicode="&#x158;" horiz-adv-x="1263" 
d="M688 772q92 0 138 57t46 149t-46 147q-46 56 -138 57h-260v-410h260zM1204 0h-270l-332 561h-174v-561h-256v1393h528q222 0 328 -108t107 -306q0 -329 -273 -399l342 -547v-33zM279 1835h206l117 -162l115 162h207v-20l-209 -279h-228l-208 279v20z" />
    <glyph glyph-name="rcaron" unicode="&#x159;" horiz-adv-x="747" 
d="M572 803q-60 0 -107 -33t-70 -70v-700h-252v987h205l35 -117h4q47 98 143 135q36 13 78 13t90 -12l-20 -211q-46 8 -106 8zM100 1460h207l99 -162l96 162h207v-20l-168 -279h-273l-168 279v20z" />
    <glyph glyph-name="Sacute" unicode="&#x15a;" horiz-adv-x="1067" 
d="M375 1030q0 -126 129 -176l135 -53q170 -68 259 -162q89 -95 87 -236q0 -188 -134 -311t-346 -123t-423 135l84 197q68 -47 161 -81t191 -34t152 54t53 132q0 76 -41 118t-133 79l-137 56q-301 118 -299 383q0 190 127 304q127 113 340 111q76 -1 175 -27t181 -67
l-78 -201q-156 80 -271 79q-116 -1 -164 -55t-48 -122zM424 1536v20l129 279h278v-18l-172 -281h-235z" />
    <glyph glyph-name="sacute" unicode="&#x15b;" horiz-adv-x="901" 
d="M96 702q0 144 99 230t271 86t333 -72l-68 -182q-125 57 -258 57q-69 -1 -101 -29t-32 -74t30 -69t83 -39l114 -30q252 -67 252 -291q0 -149 -101 -234q-101 -86 -288 -86t-354 94l74 185q150 -84 286 -82q72 0 106 31t34 79t-31 71q-31 24 -90 40l-117 31
q-239 61 -242 284zM326 1161v21l145 278h262v-18l-190 -281h-217z" />
    <glyph glyph-name="Scircumflex" unicode="&#x15c;" horiz-adv-x="1067" 
d="M375 1030q0 -126 129 -176l135 -53q170 -68 259 -162q89 -95 87 -236q0 -188 -134 -311t-346 -123t-423 135l84 197q68 -47 161 -81t191 -34t152 54t53 132q0 76 -41 118t-133 79l-137 56q-301 118 -299 383q0 190 127 304q127 113 340 111q76 -1 175 -27t181 -67
l-78 -201q-156 80 -271 79q-116 -1 -164 -55t-48 -122zM862 1536h-207l-116 162l-115 -162h-207v20l209 279h227l209 -279v-20z" />
    <glyph glyph-name="scircumflex" unicode="&#x15d;" horiz-adv-x="901" 
d="M96 702q0 144 99 230t271 86t333 -72l-68 -182q-125 57 -258 57q-69 -1 -101 -29t-32 -74t30 -69t83 -39l114 -30q252 -67 252 -291q0 -149 -101 -234q-101 -86 -288 -86t-354 94l74 185q150 -84 286 -82q72 0 106 31t34 79t-31 71q-31 24 -90 40l-117 31
q-239 61 -242 284zM758 1161h-207l-98 162l-97 -162h-206v21l167 278h273l168 -278v-21z" />
    <glyph glyph-name="Scedilla" unicode="&#x15e;" horiz-adv-x="1069" 
d="M567 -92q127 -22 127 -163q0 -77 -56 -129t-147 -52t-151 24l25 129q40 -16 79 -16q64 0 64 51t-44 53t-63 2l-6 13l54 153q-195 17 -367 131l84 197q68 -47 161 -81t191 -34t151.5 54.5t53.5 131.5t-41 118.5t-133 78.5l-137 56q-299 118 -299 383q0 188 125.5 301.5
t341.5 113.5q76 0 175 -26.5t181 -67.5l-78 -201q-152 78 -269 78q-118 0 -166 -54t-48 -122q0 -127 129 -176l135 -53q170 -68 258 -161.5t88 -249.5t-107.5 -272t-283.5 -143z" />
    <glyph glyph-name="scedilla" unicode="&#x15f;" horiz-adv-x="903" 
d="M496 -92q127 -22 127 -163q0 -77 -57.5 -129t-148.5 -52t-151 24l27 129q36 -16 78 -16q65 0 65 51t-45 53t-61 2l-8 13l53 153q-153 10 -297 90l74 185q146 -82 252 -82t140 30.5t34 78.5t-31 72t-90 40l-117 31q-167 43 -204.5 131.5t-37.5 156.5q0 140 99 226t271 86
t333 -72l-68 -182q-125 57 -258 57q-68 0 -100.5 -28.5t-32.5 -74.5t29.5 -68.5t83.5 -39.5l114 -30q252 -67 252 -291q0 -135 -82 -216t-219 -100z" />
    <glyph glyph-name="Scaron" unicode="&#x160;" horiz-adv-x="1067" 
d="M375 1030q0 -126 129 -176l135 -53q170 -68 259 -162q89 -95 87 -236q0 -188 -134 -311t-346 -123t-423 135l84 197q68 -47 161 -81t191 -34t152 54t53 132q0 76 -41 118t-133 79l-137 56q-301 118 -299 383q0 190 127 304q127 113 340 111q76 -1 175 -27t181 -67
l-78 -201q-156 80 -271 79q-116 -1 -164 -55t-48 -122zM221 1835h207l117 -162l114 162h207v-20l-209 -279h-227l-209 279v20z" />
    <glyph glyph-name="scaron" unicode="&#x161;" horiz-adv-x="901" 
d="M96 702q0 144 99 230t271 86t333 -72l-68 -182q-125 57 -258 57q-69 -1 -101 -29t-32 -74t30 -69t83 -39l114 -30q252 -67 252 -291q0 -149 -101 -234q-101 -86 -288 -86t-354 94l74 185q150 -84 286 -82q72 0 106 31t34 79t-31 71q-31 24 -90 40l-117 31
q-239 61 -242 284zM152 1460h206l99 -162l96 162h207v-20l-168 -279h-273l-167 279v20z" />
    <glyph glyph-name="uni0162" unicode="&#x162;" horiz-adv-x="1079" 
d="M571 -92q127 -22 127 -163q0 -77 -56 -129t-147 -52t-151 24l25 129q40 -16 80 -16q63 0 63 51t-44 53t-62 2l-7 13l66 180h-53v1182h-355v211h965v-211h-354v-1182h-56z" />
    <glyph glyph-name="uni0163" unicode="&#x163;" horiz-adv-x="790" 
d="M494 -92q129 -22 129 -163q0 -77 -57.5 -129t-148.5 -52t-151 24l25 129q40 -16 80 -16q65 0 65 51t-45 53t-63 2l-6 13l57 168q-160 53 -160 262v541h-162v139l162 57v230h252v-230h256v-196h-256v-502q0 -113 107 -113q59 0 143 27v-203q-101 -28 -203 -31z" />
    <glyph glyph-name="Tcaron" unicode="&#x164;" horiz-adv-x="1079" 
d="M1022 1393v-211h-354v-1182h-256v1182h-355v211h965zM219 1835h207l117 -162l114 162h207v-20l-209 -279h-227l-209 279v20z" />
    <glyph glyph-name="tcaron" unicode="&#x165;" horiz-adv-x="790" 
d="M219 250v541h-162v139l162 57v230h252v-230h256v-196h-256v-502q0 -113 107 -113q67 0 143 27v-203q-107 -29 -233 -30t-198 68t-71 212zM909 1393v-21l-108 -319h-187v20l45 320h250z" />
    <glyph glyph-name="Tbar" unicode="&#x166;" horiz-adv-x="1079" 
d="M1022 1393v-211h-354v-334h213v-197h-213v-651h-256v651h-213v197h213v334h-355v211h965z" />
    <glyph glyph-name="tbar" unicode="&#x167;" horiz-adv-x="792" 
d="M514 -31q-150 0 -221.5 68.5t-71.5 212.5v188h-123v191h123v162h-162v139l162 57v230h252v-230h256v-196h-256v-162h160v-191h-160v-149q0 -113 107 -113q59 0 143 27v-203q-112 -31 -209 -31z" />
    <glyph glyph-name="Utilde" unicode="&#x168;" horiz-adv-x="1357" 
d="M416 1393v-840q0 -261 140 -339q50 -28 123 -28q263 0 263 367v840h256v-846q0 -279 -123 -429t-396 -149q-273 0 -396 151t-123 427v846h256zM522 1630q-72 0 -123 -71l-51 143q29 57 82 96t116 39t143 -46q32 -17 63 -31t67 -15q75 0 123 70l51 -140q-33 -65 -87 -101
t-112 -36t-118 32t-92 46t-62 14z" />
    <glyph glyph-name="utilde" unicode="&#x169;" horiz-adv-x="1116" 
d="M133 352v635h252v-604q0 -207 150 -207q81 0 151 58q18 15 35 28v725h252v-987h-205l-35 94h-2q-122 -122 -278 -124t-238 100t-82 282zM403 1253q-73 0 -122 -71l-52 143q29 57 82 96t116 39t143 -46q32 -18 63 -32t67 -14q74 0 123 70l51 -140q-33 -66 -87 -102
t-101 -35t-84 15t-71 31q-33 17 -65 31t-63 15z" />
    <glyph glyph-name="Umacron" unicode="&#x16a;" horiz-adv-x="1357" 
d="M416 1393v-840q0 -261 140 -339q50 -28 123 -28q263 0 263 367v840h256v-846q0 -279 -123 -429t-396 -149q-273 0 -396 151t-123 427v846h256zM403 1554v211h535v-211h-535z" />
    <glyph glyph-name="umacron" unicode="&#x16b;" horiz-adv-x="1116" 
d="M133 352v635h252v-604q0 -207 150 -207q81 0 151 58q18 15 35 28v725h252v-987h-205l-35 94h-2q-122 -122 -278 -124t-238 100t-82 282zM287 1186v211h534v-211h-534z" />
    <glyph glyph-name="Ubreve" unicode="&#x16c;" horiz-adv-x="1357" 
d="M416 1393v-840q0 -261 140 -339q50 -28 123 -28q263 0 263 367v840h256v-846q0 -279 -123 -429t-396 -149q-273 0 -396 151t-123 427v846h256zM670 1755q133 0 243 70l60 -152q-137 -137 -303 -137t-303 137l59 152q111 -70 244 -70z" />
    <glyph glyph-name="ubreve" unicode="&#x16d;" horiz-adv-x="1116" 
d="M133 352v635h252v-604q0 -207 150 -207q81 0 151 58q18 15 35 28v725h252v-987h-205l-35 94h-2q-122 -122 -278 -124t-238 100t-82 282zM554 1380q132 0 245 70l59 -152q-134 -134 -301 -135q-168 -2 -305 135l59 152q111 -70 243 -70z" />
    <glyph glyph-name="Uring" unicode="&#x16e;" horiz-adv-x="1357" 
d="M416 1393v-840q0 -261 140 -339q50 -28 123 -28q263 0 263 367v840h256v-846q0 -279 -123 -429t-396 -149q-273 0 -396 151t-123 427v846h256zM446 1706q0 108 62 166t164 59q100 0 162 -58t61 -166q0 -108 -61 -166q-62 -58 -162 -58t-163 58q-63 57 -63 165zM672 1792
q-34 0 -56 -24t-22 -61q0 -39 22 -61t56 -22q35 0 55 23q21 23 21 61t-20 60q-20 24 -56 24z" />
    <glyph glyph-name="uring" unicode="&#x16f;" horiz-adv-x="1116" 
d="M133 352v635h252v-604q0 -207 150 -207q81 0 151 58q18 15 35 28v725h252v-987h-205l-35 94h-2q-122 -122 -278 -124t-238 100t-82 282zM322 1316q0 108 62 166t162 58t162 -58t62 -166t-61 -166t-161 -58t-164 58q-62 58 -62 166zM547 1401q-35 1 -57 -23t-21 -62
q-1 -38 21 -60t57 -21q74 0 76 82q-1 37 -21 61t-55 23z" />
    <glyph glyph-name="Uhungarumlaut" unicode="&#x170;" horiz-adv-x="1357" 
d="M416 1393v-840q0 -261 140 -339q50 -28 123 -28q263 0 263 367v840h256v-846q0 -279 -123 -429t-396 -149q-273 0 -396 151t-123 427v846h256zM752 1536v20l145 279h260v-20l-188 -279h-217zM365 1536v20l145 279h260v-20l-188 -279h-217z" />
    <glyph glyph-name="uhungarumlaut" unicode="&#x171;" horiz-adv-x="1116" 
d="M133 352v635h252v-604q0 -207 150 -207q81 0 151 58q18 15 35 28v725h252v-987h-205l-35 94h-2q-122 -122 -278 -124t-238 100t-82 282zM631 1161v21l145 278h260v-18l-188 -281h-217zM244 1161v21l145 278h260v-18l-188 -281h-217z" />
    <glyph glyph-name="Uogonek" unicode="&#x172;" horiz-adv-x="1357" 
d="M160 547v846h256v-840q0 -261 95 -314t168 -53q137 0 200 99t63 268v840h256v-846q0 -256 -103.5 -403.5t-328.5 -170.5q-66 -20 -66 -141q0 -90 76 -90q57 0 96 37l21 -164q-29 -20 -78 -35.5t-96 -15.5q-96 0 -154.5 58.5t-58.5 165.5t98 185q-233 20 -338.5 169
t-105.5 405z" />
    <glyph glyph-name="uogonek" unicode="&#x173;" horiz-adv-x="1116" 
d="M813 -188q0 -70 88 -70q49 0 88 37l21 -164q-29 -20 -80 -35.5t-99 -15.5q-95 0 -155 58t-60 153q0 125 150 225l-33 94h-2q-125 -125 -279 -125t-236.5 101.5t-82.5 281.5v635h252v-604q0 -207 150 -207q82 0 126 37t60 49v725h252v-987q-100 -39 -130 -96.5t-30 -91.5z
" />
    <glyph glyph-name="Wcircumflex" unicode="&#x174;" horiz-adv-x="1904" 
d="M53 1393h275l161 -809l62 -346h4l61 346l187 809h299l186 -809l62 -346h4l61 346l162 809h274v-21l-340 -1372h-303l-192 819l-60 340h-4l-61 -340l-193 -819h-305l-340 1372v21zM1280 1536h-207l-117 162l-114 -162h-207v20l209 279h227l209 -279v-20z" />
    <glyph glyph-name="wcircumflex" unicode="&#x175;" horiz-adv-x="1595" 
d="M55 987h242l137 -581l29 -199h4l41 199l154 581h272l153 -581l41 -199h5l28 199l135 581h244v-20l-264 -967h-277l-163 584l-37 202h-4l-37 -202l-164 -584h-275l-264 967v20zM1102 1161h-207l-98 162l-97 -162h-206v21l168 278h272l168 -278v-21z" />
    <glyph glyph-name="Ycircumflex" unicode="&#x176;" horiz-adv-x="1142" 
d="M1130 1393v-21l-430 -807v-565h-256v565l-432 807v21h275l282 -598h4l283 598h274zM901 1536h-207l-116 162l-115 -162h-207v20l209 279h227l209 -279v-20z" />
    <glyph glyph-name="ycircumflex" unicode="&#x177;" horiz-adv-x="1021" 
d="M216 -246q50 0 83 34t57 108l39 114l-358 957v20h256l168 -545l49 -204h6l47 204l160 545h256v-20l-383 -1090q-111 -313 -329 -313q-100 0 -193 24v185q92 -19 142 -19zM821 1161h-207l-98 162l-96 -162h-207v21l168 278h272l168 -278v-21z" />
    <glyph glyph-name="Ydieresis" unicode="&#x178;" horiz-adv-x="1142" 
d="M1130 1393v-21l-430 -807v-565h-256v565l-432 807v21h275l282 -598h4l283 598h274zM670 1675q0 63 40 103t106 39q66 0 107 -39q40 -38 40 -102t-40 -103t-107 -39q-66 0 -106 39t-40 102zM190 1675q0 63 40 103t107 39q67 0 107 -39q40 -38 39 -102q0 -64 -40 -103
q-41 -39 -107 -39t-106 39t-40 102z" />
    <glyph glyph-name="Zacute" unicode="&#x179;" horiz-adv-x="1107" 
d="M1010 1393v-195l-629 -983v-4h629v-211h-928v195l627 983v4h-588v211h889zM434 1536v20l129 279h279v-18l-172 -281h-236z" />
    <glyph glyph-name="zacute" unicode="&#x17a;" horiz-adv-x="903" 
d="M811 987v-139l-426 -653v-5h426v-190h-733v139l424 654v4h-396v190h705zM344 1161v21l145 278h263v-18l-191 -281h-217z" />
    <glyph glyph-name="Zdotaccent" unicode="&#x17b;" horiz-adv-x="1107" 
d="M1010 1393v-195l-629 -983v-4h629v-211h-928v195l627 983v4h-588v211h889zM436 1675q0 63 40 103t107 39q67 0 107 -39q40 -38 39 -102q0 -64 -40 -103q-41 -39 -107 -39t-106 39t-40 102z" />
    <glyph glyph-name="zdotaccent" unicode="&#x17c;" horiz-adv-x="903" 
d="M811 987v-139l-426 -653v-5h426v-190h-733v139l424 654v4h-396v190h705zM317 1309q0 63 40 102t107 39q66 0 106 -39t40 -102t-40 -103t-106 -39q-66 -1 -107 39q-40 40 -40 103z" />
    <glyph glyph-name="Zcaron" unicode="&#x17d;" horiz-adv-x="1107" 
d="M1010 1393v-195l-629 -983v-4h629v-211h-928v195l627 983v4h-588v211h889zM250 1835h207l116 -162l115 162h207v-20l-209 -279h-227l-209 279v20z" />
    <glyph glyph-name="zcaron" unicode="&#x17e;" horiz-adv-x="903" 
d="M811 987v-139l-426 -653v-5h426v-190h-733v139l424 654v4h-396v190h705zM162 1460h207l98 -162l96 162h207v-20l-168 -279h-272l-168 279v20z" />
    <glyph glyph-name="florin" unicode="&#x192;" 
d="M227 -246q53 0 79 40t36 108l111 688h-166l30 196h166l49 312q27 172 112 248.5t204 76.5t184 -14l-26 -190q-54 14 -111 14t-82 -40t-35 -108l-45 -299h203l-33 -196h-203l-112 -701q-29 -172 -113 -248.5t-221 -76.5q-96 0 -164 14l27 191q57 -15 110 -15z" />
    <glyph glyph-name="Aringacute" unicode="&#x1fa;" horiz-adv-x="1261" 
d="M627 1448q75 0 75 80q0 36 -20 58t-55 22t-57 -22t-21 -59q0 -38 21 -59q22 -20 57 -20zM627 1167l-95 -374l-83 -285h360l-86 285l-90 374h-6zM401 1528q0 106 63 168q42 41 101 55l74 125h265v-14l-124 -159q4 -4 8 -7q61 -61 62 -168q0 -52 -24 -100t-60 -76
l475 -1352h-274l-86 305h-500l-88 -305h-273l469 1348q-39 29 -63 78t-25 102z" />
    <glyph glyph-name="aringacute" unicode="&#x1fb;" horiz-adv-x="1054" 
d="M525 1018q198 0 298.5 -108.5t100.5 -299.5v-610h-189l-35 88h-4q-51 -41 -133 -80t-172 -39q-154 0 -233.5 88t-79.5 224q0 315 438 315h156v45q0 96 -55 133t-121 37q-125 0 -308 -78l-67 193q206 92 404 92zM319 289q0 -123 127 -123q57 0 122 20.5t104 46.5v199h-144
q-209 0 -209 -143zM420 1577v16l123 209h264v-14l-164 -211h-223zM301 1298q0 108 62.5 165t163 57t162 -56.5t61.5 -165.5t-61.5 -164t-162 -55t-163 55.5t-62.5 163.5zM449 1299q0 -38 21.5 -58t55.5 -20q76 0 76 79q0 37 -20.5 58.5t-55 21.5t-56 -21.5t-21.5 -59.5z" />
    <glyph glyph-name="AEacute" unicode="&#x1fc;" horiz-adv-x="1787" 
d="M829 508v342l17 307h-6l-150 -307l-172 -342h311zM1671 1393v-211h-586v-371h525v-211h-525v-389h592v-211h-848v305h-423l-160 -305h-266v20l743 1373h948zM1057 1536v20l129 279h278v-18l-172 -281h-235z" />
    <glyph glyph-name="aeacute" unicode="&#x1fd;" horiz-adv-x="1605" 
d="M1292 602v34q0 79 -28 122q-49 77 -139 77q-91 1 -139 -72t-52 -177h356q2 8 2 16zM78 281q0 315 432 315h162v45q0 96 -67 139q-48 31 -138 31t-279 -78l-67 193q205 92 385 92q100 0 181 -36t128 -101q110 137 308 137t304 -128q95 -112 95 -298q0 -100 -13 -170h-581
q8 -112 64 -182t172 -70t257 66l58 -179q-166 -88 -351 -88q-230 0 -350 181q-70 -85 -128 -117q-110 -62 -257 -63t-231 84t-84 227zM514 432q-94 0 -144 -36t-50 -102q-1 -127 122 -128q90 0 158 73t70 193h-156zM727 1161v21l145 278h263v-18l-191 -281h-217z" />
    <glyph glyph-name="Oslashacute" unicode="&#x1fe;" horiz-adv-x="1419" 
d="M713 1206q-178 0 -261 -140t-83 -345t47 -322l465 758q-74 49 -168 49zM1051 688q0 197 -56 324l-471 -768q76 -58 178 -58t166 40q183 111 183 462zM268 158q-162 189 -162 525t153 538t452 202q170 0 290 -67l68 110l152 -90l-82 -131q174 -189 174 -530
q0 -340 -152 -542t-450 -204q-171 0 -310 76l-71 -108l-144 92zM610 1536v20l129 279h279v-18l-172 -281h-236z" />
    <glyph glyph-name="oslashacute" unicode="&#x1ff;" horiz-adv-x="1116" 
d="M336 487q0 -80 12 -137l324 445q-50 33 -108 33t-100 -24q-128 -72 -128 -317zM548 160q60 0 102 24q130 73 130 316q0 73 -14 143l-326 -450q48 -33 108 -33zM195 137q-107 141 -107 363t123 370t346 148q138 0 236 -57l67 94l137 -101l-77 -102q108 -143 108 -366
t-122 -370t-349 -147q-125 0 -240 62l-71 -101l-129 103zM446 1161v21l146 278h262v-18l-190 -281h-218z" />
    <glyph glyph-name="uni0218" unicode="&#x218;" horiz-adv-x="1067" 
d="M375 1030q0 -126 129 -176l135 -53q170 -68 259 -162q89 -95 87 -236q0 -188 -134 -311t-346 -123t-423 135l84 197q68 -47 161 -81t191 -34t152 54t53 132q0 76 -41 118t-133 79l-137 56q-301 118 -299 383q0 190 127 304q127 113 340 111q76 -1 175 -27t181 -67
l-78 -201q-156 80 -271 79q-116 -1 -164 -55t-48 -122zM676 -106v-21l-109 -319h-186v20l45 320h250z" />
    <glyph glyph-name="uni0219" unicode="&#x219;" horiz-adv-x="901" 
d="M96 702q0 144 99 230t271 86t333 -72l-68 -182q-125 57 -258 57q-69 -1 -101 -29t-32 -74t30 -69t83 -39l114 -30q252 -67 252 -291q0 -149 -101 -234q-101 -86 -288 -86t-354 94l74 185q150 -84 286 -82q72 0 106 31t34 79t-31 71q-31 24 -90 40l-117 31
q-239 61 -242 284zM604 -106v-21l-108 -319h-187v20l45 320h250z" />
    <glyph glyph-name="uni021A" unicode="&#x21a;" horiz-adv-x="1079" 
d="M1022 1393v-211h-354v-1182h-256v1182h-355v211h965zM668 -106v-21l-109 -319h-186v20l45 320h250z" />
    <glyph glyph-name="uni021B" unicode="&#x21b;" horiz-adv-x="790" 
d="M219 250v541h-162v139l162 57v230h252v-230h256v-196h-256v-502q0 -113 107 -113q67 0 143 27v-203q-107 -29 -233 -30t-198 68t-71 212zM571 -106v-21l-108 -319h-187v20l46 320h249z" />
    <glyph glyph-name="uni0237" unicode="&#x237;" horiz-adv-x="538" 
d="M55 -246q88 0 88 144v1089h252v-1075q0 -175 -84.5 -261.5t-236.5 -86.5q-64 0 -129 14v191q47 -15 110 -15z" />
    <glyph glyph-name="circumflex" unicode="&#x2c6;" horiz-adv-x="1087" 
d="M848 1161h-207l-98 162l-97 -162h-206v21l168 278h272l168 -278v-21z" />
    <glyph glyph-name="caron" unicode="&#x2c7;" horiz-adv-x="1087" 
d="M240 1460h206l99 -162l96 162h207v-20l-168 -279h-272l-168 279v20z" />
    <glyph glyph-name="uni02C9" unicode="&#x2c9;" horiz-adv-x="1087" 
d="M276 1206v211h535v-211h-535z" />
    <glyph glyph-name="breve" unicode="&#x2d8;" horiz-adv-x="1087" 
d="M848 1298q-137 -137 -303 -137t-303 137l59 152q111 -70 244 -70t243 70z" />
    <glyph glyph-name="dotaccent" unicode="&#x2d9;" horiz-adv-x="1087" 
d="M397 1308.5q0 63.5 40 102.5t107 39t106.5 -39t39.5 -102.5t-40 -102.5t-106 -39t-106.5 39t-40.5 102.5z" />
    <glyph glyph-name="ring" unicode="&#x2da;" horiz-adv-x="1087" 
d="M319 1316q0 108 62.5 166t163 58t162 -58t61.5 -166t-61.5 -166t-162 -58t-163 58t-62.5 166zM467 1316q0 -38 21.5 -59.5t56.5 -21.5t55.5 21.5t20.5 59.5t-20.5 61.5t-55.5 23.5t-56.5 -23.5t-21.5 -61.5z" />
    <glyph glyph-name="ogonek" unicode="&#x2db;" horiz-adv-x="1087" 
d="M631 -238q47 0 90 37l20 -184q-29 -20 -80 -35.5t-99 -15.5q-94 0 -154 58t-60 153q0 182 238 286l90 -49q-49 -21 -90 -71t-41 -97t19.5 -64.5t66.5 -17.5z" />
    <glyph glyph-name="tilde" unicode="&#x2dc;" horiz-adv-x="1087" 
d="M395 1253q-72 0 -123 -71l-51 143q29 57 82 96t105 39t87 -14t67 -31.5t62.5 -32t67.5 -14.5q73 0 123 70l51 -140q-33 -66 -87 -101.5t-101 -35.5q-65 0 -154 46t-129 46z" />
    <glyph glyph-name="hungarumlaut" unicode="&#x2dd;" horiz-adv-x="1087" 
d="M535 1161v21l145 278h260v-18l-188 -281h-217zM147 1161v21l146 278h260v-18l-188 -281h-218z" />
    <glyph glyph-name="tonos" unicode="&#x384;" horiz-adv-x="1208" 
d="M508 1145v20l65 320h246v-19l-114 -321h-197z" />
    <glyph glyph-name="dieresistonos" unicode="&#x385;" horiz-adv-x="1208" 
d="M494 1094v20l59 340h272v-18l-108 -342h-223zM848 1241.5q0 65.5 44 108.5t117 43t116.5 -43t43.5 -108.5t-44.5 -108.5t-116.5 -43t-116 43t-44 108.5zM121 1241.5q0 65.5 44 108.5t117 43t116.5 -43t43.5 -108.5t-44 -108.5t-116 -43t-116.5 43t-44.5 108.5z" />
    <glyph glyph-name="Alphatonos" unicode="&#x386;" horiz-adv-x="1374" 
d="M737 1167l-94 -374l-84 -285h361l-86 285l-91 374h-6zM1352 0h-275l-86 305h-499l-89 -305h-272l459 1393h299zM72 1053v20l59 320h260v-19l-108 -321h-211z" />
    <glyph glyph-name="anoteleia" unicode="&#x387;" horiz-adv-x="550" 
d="M113 588q0 74 45 122q46 48 118 48t117 -48t45 -122t-45 -121t-118 -47t-117 47t-45 121z" />
    <glyph glyph-name="Epsilontonos" unicode="&#x388;" horiz-adv-x="1427" 
d="M1311 1393v-211h-586v-371h524v-211h-524v-389h592v-211h-848v1393h842zM27 1053v20l59 320h260v-19l-108 -321h-211z" />
    <glyph glyph-name="Etatonos" unicode="&#x389;" horiz-adv-x="1679" 
d="M1251 600h-526v-600h-256v1393h256v-582h526v582h256v-1393h-256v600zM27 1053v20l59 320h260v-19l-108 -321h-211z" />
    <glyph glyph-name="Iotatonos" unicode="&#x38a;" horiz-adv-x="897" 
d="M725 0h-256v1393h256v-1393zM27 1053v20l59 320h260v-19l-108 -321h-211z" />
    <glyph glyph-name="Omicrontonos" unicode="&#x38c;" horiz-adv-x="1665" 
d="M352 696q0 323 153 525t452 202q300 0 456 -211q146 -193 146 -515t-152 -524t-452 -203t-457 210q-146 193 -146 516zM697 326q83 -140 260 -140t263 149q76 131 76 361q0 362 -182 470q-66 40 -158 40q-175 0 -259 -141q-83 -141 -83 -370t83 -369zM37 1053v20l59 320
h260v-19l-108 -321h-211z" />
    <glyph glyph-name="Upsilontonos" unicode="&#x38e;" horiz-adv-x="1605" 
d="M1593 1393v-21l-430 -807v-565h-256v565l-432 807v21h275l282 -598h4l283 598h274zM49 1053v20l60 320h260v-19l-109 -321h-211z" />
    <glyph glyph-name="Omegatonos" unicode="&#x38f;" horiz-adv-x="1685" 
d="M346 211h268q-108 66 -184 213t-76 302q0 305 153 501t451 196q297 0 458 -204q147 -184 147 -471q0 -173 -77 -323t-186 -214h269v-211h-531v190q129 82 193 200q63 118 63 306q0 359 -179 469q-65 41 -158 41q-174 0 -262 -151q-74 -130 -74 -338q1 -209 65 -327
t191 -200v-190h-531v211zM39 1053v20l59 320h260v-19l-108 -321h-211z" />
    <glyph glyph-name="iotadieresistonos" unicode="&#x390;" horiz-adv-x="600" 
d="M143 268v719h250v-715q0 -96 78 -96q40 0 80 14v-204q-76 -17 -152 -17q-256 0 -256 299zM168 1094v20l59 340h273v-18l-109 -342h-223zM522 1241q0 66 44 109t117 43t117 -43t44 -109q0 -67 -44 -109t-117 -42t-117 42t-44 109zM-205 1241q0 66 44 109t117 43t117 -43
t44 -109q0 -67 -44 -109t-117 -42t-117 42t-44 109z" />
    <glyph glyph-name="Alpha" unicode="&#x391;" horiz-adv-x="1267" 
d="M631 1167l-94 -374l-84 -285h360l-86 285l-90 374h-6zM1245 0h-274l-86 305h-500l-88 -305h-272l458 1393h299z" />
    <glyph glyph-name="Beta" unicode="&#x392;" horiz-adv-x="1243" 
d="M428 811h193q113 0 162 38t50 142q1 103 -49 147t-168 44h-188v-371zM631 1393q227 0 346 -88t119 -283q0 -117 -54 -191t-120 -104v-4q102 -39 164 -120t63 -212q0 -193 -109 -292t-350 -99h-518v1393h459zM428 211h240q115 0 167 50q52 51 52 153t-53 151t-181 49h-225
v-403z" />
    <glyph glyph-name="Gamma" unicode="&#x393;" horiz-adv-x="1024" 
d="M172 0v1393h797v-222h-541v-1171h-256z" />
    <glyph glyph-name="uni0394" unicode="&#x394;" horiz-adv-x="1265" 
d="M631 1167l-94 -368l-175 -596h549l-184 596l-90 368h-6zM1241 0h-1212v10l456 1383h299l457 -1383v-10z" />
    <glyph glyph-name="Epsilon" unicode="&#x395;" horiz-adv-x="1130" 
d="M1014 1393v-211h-586v-371h524v-211h-524v-389h592v-211h-848v1393h842z" />
    <glyph glyph-name="Zeta" unicode="&#x396;" horiz-adv-x="1107" 
d="M1010 1393v-195l-629 -983v-4h629v-211h-928v195l627 983v4h-588v211h889z" />
    <glyph glyph-name="Eta" unicode="&#x397;" horiz-adv-x="1382" 
d="M954 600h-526v-600h-256v1393h256v-582h526v582h256v-1393h-256v600z" />
    <glyph glyph-name="Theta" unicode="&#x398;" horiz-adv-x="1419" 
d="M1313 696.5q0 -321.5 -151.5 -524.5t-451.5 -203q-299 0 -451.5 203t-152.5 524.5t152 524t452 202.5t451.5 -202.5t151.5 -524zM369 696.5q0 -106.5 18.5 -200t59 -162t106 -108.5t158 -40t158 40t105.5 108.5t58.5 162t18.5 200t-18.5 198.5t-58.5 161.5t-105.5 109.5
t-158 40t-158 -40t-106 -109.5t-59 -161.5t-18.5 -198.5zM485 584v237h443v-237h-443z" />
    <glyph glyph-name="Iota" unicode="&#x399;" horiz-adv-x="600" 
d="M428 0h-256v1393h256v-1393z" />
    <glyph glyph-name="Kappa" unicode="&#x39a;" horiz-adv-x="1224" 
d="M428 627v-627h-256v1393h256v-676h4l453 676h286v-21l-489 -688l514 -664v-20h-299l-465 627h-4z" />
    <glyph glyph-name="Lambda" unicode="&#x39b;" horiz-adv-x="1267" 
d="M297 0h-272l458 1393h299l463 -1393h-274l-244 793l-90 354h-6l-94 -354z" />
    <glyph glyph-name="Mu" unicode="&#x39c;" horiz-adv-x="1646" 
d="M1475 1393v-1393h-256v690l28 307h-2l-311 -647h-223l-310 647h-4l31 -305v-692h-256v1393h248l287 -553l114 -275h4l113 275l289 553h248z" />
    <glyph glyph-name="Nu" unicode="&#x39d;" horiz-adv-x="1411" 
d="M983 1393h256v-1393h-270l-566 1049h-6l31 -271v-778h-256v1393h270l566 -1051h6l-31 270v781z" />
    <glyph glyph-name="Xi" unicode="&#x39e;" horiz-adv-x="1112" 
d="M117 1169v224h876v-224h-876zM178 590v223h756v-223h-756zM999 223v-223h-882v223h882z" />
    <glyph glyph-name="Omicron" unicode="&#x39f;" horiz-adv-x="1419" 
d="M106 696q0 323 153 525t452 202q300 0 456 -211q146 -193 146 -515t-152 -524t-452 -203t-457 210q-146 193 -146 516zM369 696q0 -358 184 -470q66 -40 158 -40q177 0 263 149q75 129 77 361q0 362 -183 470q-66 40 -158 40q-176 0 -258 -140q-83 -140 -83 -370z" />
    <glyph glyph-name="Pi" unicode="&#x3a0;" horiz-adv-x="1384" 
d="M956 1182h-528v-1182h-256v1393h1040v-1393h-256v1182z" />
    <glyph glyph-name="Rho" unicode="&#x3a1;" horiz-adv-x="1142" 
d="M428 694h184q94 0 146 71q51 71 51 174t-51 173t-146 70h-184v-488zM172 0v1393h461q212 0 325 -125t113 -328q0 -204 -114 -331q-114 -126 -324 -126h-205v-483h-256z" />
    <glyph glyph-name="Sigma" unicode="&#x3a3;" horiz-adv-x="1122" 
d="M115 1393h911v-211h-623l281 -465l-313 -506h655v-211h-940v190l320 519l-291 491v193z" />
    <glyph glyph-name="Tau" unicode="&#x3a4;" horiz-adv-x="1079" 
d="M1022 1393v-211h-354v-1182h-256v1182h-355v211h965z" />
    <glyph glyph-name="Upsilon" unicode="&#x3a5;" horiz-adv-x="1142" 
d="M1130 1393v-21l-430 -807v-565h-256v565l-432 807v21h275l282 -598h4l283 598h274z" />
    <glyph glyph-name="Phi" unicode="&#x3a6;" horiz-adv-x="1550" 
d="M905 315q297 48 297 383.5t-297 376.5v-760zM346 745.5q0 -291.5 106.5 -354.5t196.5 -76v762q-303 -40 -303 -331.5zM78 696q0 519 571 574v123h256v-123q294 -27 429.5 -178.5t135.5 -461t-205.5 -401.5t-359.5 -106v-123h-256v121q-298 27 -434.5 178.5t-136.5 396.5z
" />
    <glyph glyph-name="Chi" unicode="&#x3a7;" horiz-adv-x="1179" 
d="M1126 1393v-21l-358 -674l358 -678v-20h-272l-260 547h-4l-262 -547h-273v20l357 678l-357 674v21h273l262 -547h4l262 547h270z" />
    <glyph glyph-name="Psi" unicode="&#x3a8;" horiz-adv-x="1449" 
d="M1079 885v508h258v-508q0 -274 -114.5 -413.5t-368.5 -152.5v-319h-256v319q-256 8 -370.5 149.5t-114.5 416.5v508h256v-508q0 -174 51 -256t178 -90v854h256v-854q123 10 174 91t51 255z" />
    <glyph glyph-name="uni03A9" unicode="&#x3a9;" horiz-adv-x="1456" 
d="M119 211h268q-108 66 -185 215t-76 302q2 303 146 491q161 204 457 204q297 0 460 -204q146 -183 146 -471q0 -178 -77 -325t-185 -212h268v-211h-530v190q129 82 193 200q63 118 63 306q0 357 -179 469q-65 41 -158 41q-177 0 -262 -151q-73 -127 -74 -337t64 -328
t191 -200v-190h-530v211z" />
    <glyph glyph-name="Iotadieresis" unicode="&#x3aa;" horiz-adv-x="600" 
d="M428 0h-256v1393h256v-1393zM399 1675q0 63 40 103t107 39q66 0 106 -39q40 -38 40 -102t-40 -103t-106 -39t-107 39q-40 39 -40 102zM-80 1675q0 63 40 103t107 39q67 0 107 -39q40 -38 39 -102q0 -64 -40 -103q-41 -39 -107 -39t-106 39t-40 102z" />
    <glyph glyph-name="Upsilondieresis" unicode="&#x3ab;" horiz-adv-x="1142" 
d="M1130 1393v-21l-430 -807v-565h-256v565l-432 807v21h275l282 -598h4l283 598h274zM649 1675q0 63 40 103t107 39q66 0 106 -39q40 -38 40 -102t-40 -103t-106 -39t-107 39q-40 39 -40 102zM170 1675q0 63 40 103t106 39q66 0 107 -39q40 -38 40 -102t-40 -103t-107 -39
q-66 0 -106 39t-40 102z" />
    <glyph glyph-name="alphatonos" unicode="&#x3ac;" horiz-adv-x="1183" 
d="M528 811q-82 0 -133 -85q-51 -84 -51 -232q0 -147 51 -233q51 -85 135 -85q105 0 181 194q23 58 39 124q-16 66 -39 123q-77 194 -183 194zM90 494q0 237 117 380q117 144 317 144q201 0 293 -201h4l27 170h248l-125 -491l125 -496h-248l-27 170h-4q-90 -198 -303 -201
q-190 0 -307 144t-117 381zM526 1145v20l66 320h246v-19l-115 -321h-197z" />
    <glyph glyph-name="epsilontonos" unicode="&#x3ad;" horiz-adv-x="944" 
d="M524 -31q-434 0 -434 295q0 189 160 250v4q-129 55 -129 217q0 133 95 210t287 77t351 -68l-47 -184q-135 51 -285 51q-149 0 -149 -125q0 -102 121 -102h233v-197h-248q-135 0 -135 -98q0 -129 180 -129q78 0 166 17t148 46l43 -188q-152 -76 -357 -76zM449 1145v20
l65 320h246v-19l-115 -321h-196z" />
    <glyph glyph-name="etatonos" unicode="&#x3ae;" 
d="M666 1018q158 0 242 -102t85 -281v-1041h-252v1010q0 207 -157 207q-90 0 -189 -86v-725h-252v987h203l33 -94h4q125 125 283 125zM508 1145v20l65 320h246v-19l-114 -321h-197z" />
    <glyph glyph-name="iotatonos" unicode="&#x3af;" horiz-adv-x="600" 
d="M143 268v719h250v-715q0 -96 78 -96q40 0 80 14v-204q-76 -17 -152 -17q-256 0 -256 299zM182 1145v20l66 320h246v-19l-115 -321h-197z" />
    <glyph glyph-name="upsilondieresistonos" unicode="&#x3b0;" horiz-adv-x="1091" 
d="M737 518q0 182 -78 469h254q15 -57 29 -113q46 -177 45 -385q0 -272 -114 -396q-113 -124 -319 -124t-314 117t-109 320v581h250v-571q0 -238 172 -240q184 0 184 342zM451 1145v20l65 320h246v-19l-115 -321h-196z" />
    <glyph glyph-name="alpha" unicode="&#x3b1;" horiz-adv-x="1183" 
d="M528 811q-39 0 -73.5 -21.5t-59 -63.5t-38 -100.5t-13.5 -167.5t50.5 -195.5t135.5 -86.5q105 0 154.5 126t65.5 192q-54 221 -118.5 269t-103.5 48zM90 493.5q0 237.5 117 381t318 143.5q200 0 292 -201h4l27 170h248l-125 -491l125 -496h-248l-27 170h-4
q-92 -201 -292 -201t-317.5 143.5t-117.5 381z" />
    <glyph glyph-name="beta" unicode="&#x3b2;" 
d="M568 176q218 0 218 244q0 98 -60 161.5t-185 63.5h-56v191h54q72 0 111.5 52t39.5 146q0 133 -55 168t-92 35q-154 0 -154 -262v-735q65 -64 179 -64zM389 47v-453h-248v1375q0 248 107.5 361.5t300.5 113.5t294 -107t101 -271t-66.5 -226t-97.5 -76v-4
q171 -53 215.5 -168.5t44.5 -209.5q0 -194 -116 -303.5t-278 -109.5t-253 78h-4z" />
    <glyph glyph-name="gamma" unicode="&#x3b3;" horiz-adv-x="1024" 
d="M621 -406h-248v412l-332 961v20h250l158 -541l47 -206h4q10 20 19 47.5t18.5 55.5t18 54.5t38.5 100.5q79 193 129 489h250v-20q-76 -423 -352 -971v-402z" />
    <glyph glyph-name="delta" unicode="&#x3b4;" horiz-adv-x="1110" 
d="M340 440q0 -110 58.5 -187t154.5 -77t156.5 76t60.5 180q0 165 -93 255.5t-136 125.5q-201 -145 -201 -373zM680 1237q-143 0 -143 -113q0 -37 35.5 -72.5t90 -77.5t208 -164t153.5 -378q0 -186 -128 -324.5t-345 -138.5t-341 141t-124 326q0 327 297 492
q-35 41 -65.5 91t-30.5 122q0 144 102.5 223.5t251.5 79.5q49 0 182 -19v-206q-75 18 -143 18z" />
    <glyph glyph-name="epsilon" unicode="&#x3b5;" horiz-adv-x="944" 
d="M373 696q0 -102 121 -102h233v-197h-248q-135 0 -135 -98q0 -129 180 -129q78 0 166 17.5t148 45.5l43 -188q-152 -76 -357 -76q-335 0 -384.5 115t-49.5 180q0 189 160 250v4q-129 55 -129 217q0 133 95 210t287 77t351 -68l-47 -184q-135 51 -285 51q-149 0 -149 -125z
" />
    <glyph glyph-name="zeta" unicode="&#x3b6;" horiz-adv-x="894" 
d="M543 -125q0 53 -35 84t-86 58.5t-197.5 101.5t-146.5 309q0 159 99 304t189.5 253.5t200.5 247.5v4h-450v197h741v-179q-145 -182 -245.5 -308t-190.5 -255.5t-90 -226.5q0 -68 34.5 -110t86 -72.5t198 -94.5t146.5 -274q0 -88 -48.5 -165t-113.5 -130l-168 131
q76 72 76 125z" />
    <glyph glyph-name="eta" unicode="&#x3b7;" 
d="M666 1018q158 0 242.5 -101.5t84.5 -281.5v-1041h-252v1010q0 207 -157 207q-81 0 -127.5 -37t-61.5 -49v-725h-252v987h203l33 -94h4q125 125 283 125z" />
    <glyph glyph-name="theta" unicode="&#x3b8;" 
d="M354 606q17 -430 188 -430t198.5 163t31.5 267h-418zM493.5 1237q-122.5 0 -139.5 -438h420q-13 329 -85.5 383.5t-195 54.5zM104 706.5q0 737.5 460 737.5q356 0 407 -285t51 -545t-107.5 -452.5t-349.5 -192.5q-461 0 -461 737.5z" />
    <glyph glyph-name="iota" unicode="&#x3b9;" horiz-adv-x="600" 
d="M143 268v719h250v-715q0 -96 78 -96q40 0 80 14v-204q-76 -17 -152 -17q-256 0 -256 299z" />
    <glyph glyph-name="kappa" unicode="&#x3ba;" horiz-adv-x="1028" 
d="M385 432v-432h-242v987h242v-471h4l318 471h268v-14l-346 -486l362 -473v-14h-274l-328 432h-4z" />
    <glyph glyph-name="lambda" unicode="&#x3bb;" horiz-adv-x="1017" 
d="M278 1444q207 0 281 -227l418 -1197v-20h-258l-141 465l-62 248h-6l-66 -244l-147 -469h-258v20l358 957l-49 145q-16 49 -39.5 82t-62.5 33t-84 -10v198q64 19 116 19z" />
    <glyph glyph-name="uni03BC" unicode="&#x3bc;" 
d="M397 -406h-252v1393h252v-625q4 -92 39 -139t103 -47t104 22q37 22 55 36q18 15 35 28v725h252v-987h-205l-35 94h-2q-122 -122 -274 -125q-42 0 -86 17l14 -131v-261z" />
    <glyph glyph-name="nu" unicode="&#x3bd;" horiz-adv-x="1028" 
d="M45 987h250l158 -541l47 -206h4q10 20 19 47.5t18.5 56.5t18.5 56.5t39 101.5q77 190 128 485h250v-20q-77 -437 -340 -967h-270l-322 967v20z" />
    <glyph glyph-name="xi" unicode="&#x3be;" horiz-adv-x="927" 
d="M606 -120q0 46 -38 76t-95 55.5t-124.5 52t-163 94.5t-95.5 217q0 262 238 348v4q-132 43 -166.5 135t-34.5 152t34 127t93 98v4h-191v191h805v-191h-252q-171 0 -203 -88t-32 -134q0 -98 59 -155t178 -57h140v-197h-137q-215 0 -246 -74.5t-31 -129.5t38 -92t95.5 -63
t220 -80t162.5 -253q0 -88 -50 -168t-120 -133l-168 131q84 84 84 130z" />
    <glyph glyph-name="omicron" unicode="&#x3bf;" horiz-adv-x="1116" 
d="M906 116q-122 -147 -347 -147t-348 148q-123 149 -123 377t123 376t348 148t347 -147t122 -377t-122 -378zM346 494q0 -74 14 -134q43 -185 198 -184q154 0 198 184q14 60 14 134q0 150 -56 234q-56 85 -157 83q-153 0 -197 -184q-14 -59 -14 -133z" />
    <glyph glyph-name="pi" unicode="&#x3c0;" horiz-adv-x="1177" 
d="M707 268v523h-256v-791h-250v791h-181v196h1113v-196h-179v-519q0 -96 80 -96q42 0 80 14v-204q-82 -17 -151 -17q-256 0 -256 299z" />
    <glyph glyph-name="rho" unicode="&#x3c1;" horiz-adv-x="1116" 
d="M377 61v-467h-248v947q0 234 116.5 355.5t309.5 121.5q232 0 351.5 -146t119.5 -376q0 -229 -110 -378t-304 -149q-146 0 -231 92h-4zM559 176q55 0 97 24.5t68 67.5t37 101.5t11 250t-217 191.5q-82 0 -130 -73.5t-48 -190.5v-301q29 -29 78 -49.5t104 -20.5z" />
    <glyph glyph-name="sigma1" unicode="&#x3c2;" horiz-adv-x="888" 
d="M346 498q0 -76 34 -124t84 -83t109.5 -63.5t109.5 -67.5t84 -95.5t34 -144.5t-49.5 -168t-114.5 -133l-166 131q74 74 74 125t-34 81t-84 57.5t-109.5 60t-143.5 122.5t-84 312t122.5 366t350.5 144q135 0 277 -60l-52 -190q-120 43 -187 43q-120 0 -187.5 -82.5
t-67.5 -230.5z" />
    <glyph glyph-name="sigma" unicode="&#x3c3;" horiz-adv-x="1148" 
d="M342 479.5q0 -71.5 15.5 -125t44 -88.5t67.5 -52t88 -17t89 17t67.5 52t43 88.5t15.5 125t-15.5 124.5t-43 88t-67.5 51.5t-89 16.5t-88 -16.5t-67.5 -51.5t-44 -88t-15.5 -124.5zM1026 420q0 -70 -29.5 -155t-125.5 -190.5t-316 -105.5t-343.5 144t-123.5 366.5
t123.5 365t345.5 142.5h510v-211h-174v-4q133 -92 133 -352z" />
    <glyph glyph-name="tau" unicode="&#x3c4;" horiz-adv-x="927" 
d="M582 -31q-147 0 -209 70t-62 219v533h-258v196h805v-196h-299v-502q0 -53 17.5 -83t71.5 -30t143 29v-205q-112 -31 -209 -31z" />
    <glyph glyph-name="upsilon" unicode="&#x3c5;" horiz-adv-x="1091" 
d="M553 176q184 0 184 342q0 182 -78 469h254q14 -57 44 -174t30 -324q0 -272 -113.5 -396t-319.5 -124t-314.5 117t-108.5 320v581h250v-571q0 -240 172 -240z" />
    <glyph glyph-name="phi" unicode="&#x3c6;" horiz-adv-x="1374" 
d="M1030 515q0 131 -32 213.5t-87 82.5q-81 0 -92.5 -88t-11.5 -154v-389q223 45 223 335zM344 502q0 -288 215 -324v395q0 445 346 445q194 0 286.5 -151.5t92.5 -342.5q0 -346 -174 -434t-303 -104v-392h-248v388q-240 26 -351.5 163.5t-111.5 357.5q0 219 101 484h256
q-109 -266 -109 -485z" />
    <glyph glyph-name="chi" unicode="&#x3c7;" horiz-adv-x="1015" 
d="M985 987v-20l-319 -674l319 -678v-21h-260l-147 349l-68 198h-2l-68 -198l-147 -349h-260v21l317 678l-317 674v20h258l151 -352l66 -193h2l68 197l151 348h256z" />
    <glyph glyph-name="psi" unicode="&#x3c8;" horiz-adv-x="1417" 
d="M1065 489q0 207 -88 498h256q65 -231 73.5 -326t8.5 -201t-64.5 -295.5t-410.5 -189.5v-381h-250v381q-225 0 -341 115t-116 316v581h250v-571q0 -246 207 -246v1264h250v-1264q91 0 158 85t67 234z" />
    <glyph glyph-name="omega" unicode="&#x3c9;" horiz-adv-x="1560" 
d="M1466 489q0 -272 -107.5 -396t-297.5 -124q-102 0 -173 61.5t-106 141.5h-4q-35 -80 -105.5 -141.5t-172.5 -61.5q-188 0 -296 124t-108 396q0 135 32.5 240.5t102.5 257.5h265v-20q-68 -123 -110 -240t-42 -255t44 -217t113 -79t112.5 59.5t43.5 180.5v319h248v-332
q0 -115 44 -171t113 -56t112 80t43 217t-42 254t-110 240v20h266q72 -165 103.5 -260.5t31.5 -237.5z" />
    <glyph glyph-name="iotadieresis" unicode="&#x3ca;" horiz-adv-x="600" 
d="M143 268v719h250v-715q0 -96 78 -96q40 0 80 14v-204q-76 -17 -152 -17q-256 0 -256 299zM-78 1311q0 63 40 102t107 39t107 -39t39 -102q0 -63 -40 -103q-41 -40 -107 -39q-66 -1 -106 39t-40 103zM328 1311q0 63 40 102t106 39t107 -39q40 -39 40 -102t-40 -103
t-107 -39q-66 -1 -106 39t-40 103z" />
    <glyph glyph-name="upsilondieresis" unicode="&#x3cb;" horiz-adv-x="1091" 
d="M737 518q0 182 -78 469h254q15 -57 29 -113q46 -177 45 -385q0 -272 -114 -396q-113 -124 -319 -124t-314 117t-109 320v581h250v-571q0 -238 172 -240q184 0 184 342zM184 1311q0 63 40 102t107 39t107 -39t39 -102q0 -63 -40 -103q-41 -40 -107 -39q-66 -1 -106 39
t-40 103zM590 1311q0 63 40 102t106 39t107 -39q40 -39 40 -102t-40 -103t-107 -39q-66 -1 -106 39t-40 103z" />
    <glyph glyph-name="omicrontonos" unicode="&#x3cc;" horiz-adv-x="1118" 
d="M906 116q-122 -147 -347 -147t-348 148q-123 149 -123 377t123 376t348 148t347 -147t122 -377t-122 -378zM346 494q0 -74 14 -134q43 -185 198 -184q154 0 198 184q14 60 14 134q0 150 -56 234q-56 85 -157 83q-153 0 -197 -184q-14 -59 -14 -133zM465 1145v20l65 320
h246v-19l-114 -321h-197z" />
    <glyph glyph-name="upsilontonos" unicode="&#x3cd;" horiz-adv-x="1091" 
d="M737 518q0 182 -78 469h254q15 -57 29 -113q46 -177 45 -385q0 -272 -114 -396q-113 -124 -319 -124t-314 117t-109 320v581h250v-571q0 -238 172 -240q184 0 184 342zM463 1145v20l65 320h246v-19l-115 -321h-196z" />
    <glyph glyph-name="omegatonos" unicode="&#x3ce;" horiz-adv-x="1560" 
d="M1466 489q0 -272 -108 -396t-297 -124q-102 -1 -173 61t-106 142h-4q-36 -80 -106 -141t-172 -62q-188 0 -296 124t-108 396q0 196 84 384q25 56 51 114h265v-20q-68 -123 -110 -240t-42 -255t44 -216q44 -80 113 -80t113 60t43 180v319h248v-332q0 -115 44 -171t113 -56
t112 80t43 217t-42 254t-110 240v20h266q72 -165 104 -262q31 -97 31 -236zM694 1145v20l66 320h246v-19l-115 -321h-197z" />
    <glyph glyph-name="uni0400" unicode="&#x400;" horiz-adv-x="1130" 
d="M1014 1393v-211h-586v-371h524v-211h-524v-389h592v-211h-848v1393h842zM344 1835h279l129 -279v-20h-236l-172 281v18z" />
    <glyph glyph-name="uni0401" unicode="&#x401;" horiz-adv-x="1130" 
d="M1014 1393v-211h-586v-371h524v-211h-524v-389h592v-211h-848v1393h842zM692 1675q0 63 40 103t107 39q67 0 107 -39q40 -38 39 -102q0 -64 -40 -103q-41 -39 -107 -39t-106 39t-40 102zM213 1675q0 63 40 103q41 40 107 39q66 0 106 -39q40 -38 40 -102t-40 -103
t-107 -39t-107 39t-39 102z" />
    <glyph glyph-name="uni0402" unicode="&#x402;" horiz-adv-x="1333" 
d="M995 393q0 173 -73.5 210.5t-149.5 37.5t-211 -39v-602h-256v1182h-252v211h869v-211h-361v-369q129 39 252 39q228 0 339.5 -124t111.5 -335q0 -258 -131.5 -442t-174.5 -238l-190 158q227 285 227 522z" />
    <glyph glyph-name="uni0403" unicode="&#x403;" horiz-adv-x="1064" 
d="M1012 1393v-211h-584v-1182h-256v1393h840zM496 1536v20l129 279h278v-18l-172 -281h-235z" />
    <glyph glyph-name="uni0404" unicode="&#x404;" horiz-adv-x="1146" 
d="M734 -31q-308 0 -469 197.5t-161 529.5q0 331 160 529t451 198q184 0 356 -90l-67 -194q-128 67 -278 67q-151 0 -242 -110.5t-111 -292.5h497v-213h-497q20 -184 111.5 -294t240.5 -110t279 68l67 -195q-171 -90 -337 -90z" />
    <glyph glyph-name="uni0405" unicode="&#x405;" horiz-adv-x="1067" 
d="M375 1030q0 -126 129 -176l135 -53q170 -68 259 -162q89 -95 87 -236q0 -188 -134 -311t-346 -123t-423 135l84 197q68 -47 161 -81t191 -34t152 54t53 132q0 76 -41 118t-133 79l-137 56q-301 118 -299 383q0 190 127 304q127 113 340 111q76 -1 175 -27t181 -67
l-78 -201q-156 80 -271 79q-116 -1 -164 -55t-48 -122z" />
    <glyph glyph-name="uni0406" unicode="&#x406;" horiz-adv-x="600" 
d="M428 0h-256v1393h256v-1393z" />
    <glyph glyph-name="uni0407" unicode="&#x407;" horiz-adv-x="600" 
d="M428 0h-256v1393h256v-1393zM387 1675q0 63 40 103q41 40 107 39q66 0 106 -39q40 -38 40 -102t-40 -103t-107 -39t-107 39t-39 102zM-92 1675q0 63 40 103t106 39q66 0 107 -39q40 -38 40 -102t-40 -103t-107 -39q-66 0 -106 39t-40 102z" />
    <glyph glyph-name="uni0408" unicode="&#x408;" horiz-adv-x="927" 
d="M354 186q154 0 154 240v967h256v-983q0 -228 -110 -334t-300 -107q-116 0 -194 45t-133 101l116 178q43 -41 89 -74t122 -33z" />
    <glyph glyph-name="uni0409" unicode="&#x409;" horiz-adv-x="1894" 
d="M1112 211h242q98 0 142 63.5t44 158.5t-43 158.5t-143 63.5h-242v-444zM1372 866q436 0 436 -434q0 -213 -109.5 -322.5t-326.5 -109.5h-516v1182h-328l-22 -453q-23 -464 -116.5 -591t-188.5 -142.5t-168 -15.5v219q49 0 89 18.5t84.5 104.5t59.5 423l25 648h821v-527
h260z" />
    <glyph glyph-name="uni040A" unicode="&#x40a;" horiz-adv-x="1939" 
d="M1159 211h240q100 0 144 63.5t44 133.5q0 125 -45 187t-143 62h-240v-446zM1417 868q438 0 438 -436q0 -213 -110.5 -322.5t-327.5 -109.5h-516v657h-473v-657h-256v1393h256v-525h473v525h258v-525h258z" />
    <glyph glyph-name="uni040B" unicode="&#x40b;" horiz-adv-x="1361" 
d="M1260 559v-559h-256v522q0 209 -195 209q-118 0 -172.5 -22.5t-73.5 -30.5v-678h-256v1182h-254v211h871v-211h-361v-297q141 59 320 59q178 0 277.5 -102.5t99.5 -282.5z" />
    <glyph glyph-name="uni040C" unicode="&#x40c;" horiz-adv-x="1224" 
d="M428 627v-627h-256v1393h256v-676h4l453 676h286v-21l-489 -688l514 -664v-20h-299l-465 627h-4zM508 1536v20l129 279h278v-18l-172 -281h-235z" />
    <glyph glyph-name="uni040D" unicode="&#x40d;" horiz-adv-x="1390" 
d="M1219 1393v-1393h-256v778l30 271h-6l-538 -1049h-277v1393h256v-781l-31 -270h6l539 1051h277zM418 1835h278l129 -279v-20h-235l-172 281v18z" />
    <glyph glyph-name="uni040E" unicode="&#x40e;" horiz-adv-x="1083" 
d="M154 0v211h57q86 0 132 34t77 120l18 51l-399 956v21h283l157 -441l80 -268h4l78 268l150 441h270v-21l-389 -1034q-77 -202 -170 -270q-92 -68 -271 -68h-77zM564 1755q132 0 245 70l59 -152q-137 -137 -303 -137t-303 137l60 152q110 -70 242 -70z" />
    <glyph glyph-name="uni040F" unicode="&#x40f;" horiz-adv-x="1366" 
d="M172 0v1393h256v-1182h510v1182h256v-1393h-397l-21 -289h-186l-21 289h-397z" />
    <glyph glyph-name="uni0410" unicode="&#x410;" horiz-adv-x="1267" 
d="M631 1167l-94 -374l-84 -285h360l-86 285l-90 374h-6zM1245 0h-274l-86 305h-500l-88 -305h-272l458 1393h299z" />
    <glyph glyph-name="uni0411" unicode="&#x411;" horiz-adv-x="1212" 
d="M428 211h242q100 0 144 63.5t44 133.5q0 125 -45 187t-143 62h-242v-446zM688 868q436 0 436 -436q0 -213 -109.5 -322.5t-326.5 -109.5h-516v1393h858v-211h-602v-314h260z" />
    <glyph glyph-name="uni0412" unicode="&#x412;" horiz-adv-x="1243" 
d="M428 811h193q113 0 162 38t50 142q1 103 -49 147t-168 44h-188v-371zM631 1393q227 0 346 -88t119 -283q0 -117 -54 -191t-120 -104v-4q102 -39 164 -120t63 -212q0 -193 -109 -292t-350 -99h-518v1393h459zM428 211h240q115 0 167 50q52 51 52 153t-53 151t-181 49h-225
v-403z" />
    <glyph glyph-name="uni0413" unicode="&#x413;" horiz-adv-x="1064" 
d="M1012 1393v-211h-584v-1182h-256v1393h840z" />
    <glyph glyph-name="uni0414" unicode="&#x414;" horiz-adv-x="1370" 
d="M889 211v971h-350l-19 -346q-27 -487 -104 -625h473zM1145 1393v-1182h143l-37 -500h-186l-18 289h-789l-16 -289h-187l-37 500h115q100 140 120.5 330t27.5 297l24 555h840z" />
    <glyph glyph-name="uni0415" unicode="&#x415;" horiz-adv-x="1130" 
d="M1014 1393v-211h-586v-371h524v-211h-524v-389h592v-211h-848v1393h842z" />
    <glyph glyph-name="uni0416" unicode="&#x416;" horiz-adv-x="1853" 
d="M29 0v20l506 664l-482 688v21h287l455 -674h2v674h258v-674h4l454 674h287v-21l-481 -688l506 -664v-20h-299l-467 623h-4v-623h-258v623h-2l-467 -623h-299z" />
    <glyph glyph-name="uni0417" unicode="&#x417;" horiz-adv-x="1060" 
d="M471 598h-213v215h215q156 0 192 118q11 36 11 78q0 88 -52 143q-52 54 -151 54q-152 0 -303 -69l-74 194q78 41 182 67t195 25q231 0 348 -104t117 -289q0 -111 -62 -194t-135 -109v-4q94 -39 162 -126t68 -201q0 -311 -284 -398q-93 -29 -222 -29q-223 0 -397 105
l67 198q154 -86 336 -86q105 0 172 57q68 57 70 150q0 205 -242 205z" />
    <glyph glyph-name="uni0418" unicode="&#x418;" horiz-adv-x="1390" 
d="M1219 1393v-1393h-256v778l30 271h-6l-538 -1049h-277v1393h256v-781l-31 -270h6l539 1051h277z" />
    <glyph glyph-name="uni0419" unicode="&#x419;" horiz-adv-x="1390" 
d="M1030 1673q-137 -137 -303 -137t-303 137l59 152q111 -70 243 -70t245 70zM1219 1393v-1393h-256v778l30 271h-6l-538 -1049h-277v1393h256v-781l-31 -270h6l539 1051h277z" />
    <glyph glyph-name="uni041A" unicode="&#x41a;" horiz-adv-x="1224" 
d="M428 627v-627h-256v1393h256v-676h4l453 676h286v-21l-489 -688l514 -664v-20h-299l-465 627h-4z" />
    <glyph glyph-name="uni041B" unicode="&#x41b;" horiz-adv-x="1357" 
d="M930 1182h-402l-22 -453q-23 -464 -116.5 -591t-188.5 -142.5t-168 -15.5v217q49 0 89 18t84.5 106.5t59.5 423.5l25 648h895v-1393h-256v1182z" />
    <glyph glyph-name="uni041C" unicode="&#x41c;" horiz-adv-x="1646" 
d="M1475 1393v-1393h-256v690l28 307h-2l-311 -647h-223l-310 647h-4l31 -305v-692h-256v1393h248l287 -553l114 -275h4l113 275l289 553h248z" />
    <glyph glyph-name="uni041D" unicode="&#x41d;" horiz-adv-x="1382" 
d="M954 600h-526v-600h-256v1393h256v-582h526v582h256v-1393h-256v600z" />
    <glyph glyph-name="uni041E" unicode="&#x41e;" horiz-adv-x="1419" 
d="M106 696q0 323 153 525t452 202q300 0 456 -211q146 -193 146 -515t-152 -524t-452 -203t-457 210q-146 193 -146 516zM369 696q0 -358 184 -470q66 -40 158 -40q177 0 263 149q75 129 77 361q0 362 -183 470q-66 40 -158 40q-176 0 -258 -140q-83 -140 -83 -370z" />
    <glyph glyph-name="uni041F" unicode="&#x41f;" horiz-adv-x="1384" 
d="M956 1182h-528v-1182h-256v1393h1040v-1393h-256v1182z" />
    <glyph glyph-name="uni0420" unicode="&#x420;" horiz-adv-x="1142" 
d="M428 694h184q94 0 146 71q51 71 51 174t-51 173t-146 70h-184v-488zM172 0v1393h461q212 0 325 -125t113 -328q0 -204 -114 -331q-114 -126 -324 -126h-205v-483h-256z" />
    <glyph glyph-name="uni0421" unicode="&#x421;" horiz-adv-x="1155" 
d="M736 -31q-308 0 -469 198t-161 528q0 331 160 530q160 198 451 198q184 0 356 -90l-67 -194q-128 67 -288 67q-161 0 -256 -144t-94 -368t96 -366t253 -142q159 0 289 68l67 -195q-171 -90 -337 -90z" />
    <glyph glyph-name="uni0422" unicode="&#x422;" horiz-adv-x="1079" 
d="M1022 1393v-211h-354v-1182h-256v1182h-355v211h965z" />
    <glyph glyph-name="uni0423" unicode="&#x423;" horiz-adv-x="1083" 
d="M231 0h-77v211h57q86 0 132 34t77 120l18 51l-399 956v21h283l157 -441l80 -268h4l78 268l150 441h270v-21l-389 -1034q-77 -202 -169.5 -270t-271.5 -68z" />
    <glyph glyph-name="uni0424" unicode="&#x424;" horiz-adv-x="1550" 
d="M905 315q297 48 297 384q0 335 -297 376v-760zM346 696q0 -341 303 -381v762q-303 -40 -303 -381zM905 0h-256v121q-299 27 -441 186q-130 143 -130 389q0 375 307 511q109 48 264 63v123h256v-123q295 -27 431 -180t134 -394q0 -375 -304 -511q-108 -48 -261 -62v-123z
" />
    <glyph glyph-name="uni0425" unicode="&#x425;" horiz-adv-x="1179" 
d="M1126 1393v-21l-358 -674l358 -678v-20h-272l-260 547h-4l-262 -547h-273v20l357 678l-357 674v21h273l262 -547h4l262 547h270z" />
    <glyph glyph-name="uni0426" unicode="&#x426;" horiz-adv-x="1419" 
d="M172 0v1393h256v-1182h510v1182h256v-1182h143l-37 -500h-186l-18 289h-924z" />
    <glyph glyph-name="uni0427" unicode="&#x427;" horiz-adv-x="1247" 
d="M123 772v621h256v-596q0 -94 45 -144.5t147 -50.5q153 0 248 53v738h256v-1393h-256v446q-141 -59 -320 -59t-277.5 102.5t-98.5 282.5z" />
    <glyph glyph-name="uni0428" unicode="&#x428;" horiz-adv-x="1945" 
d="M172 0v1393h256v-1182h418v1182h256v-1182h416v1182h256v-1393h-1602z" />
    <glyph glyph-name="uni0429" unicode="&#x429;" horiz-adv-x="1998" 
d="M172 0v1393h256v-1182h418v1182h256v-1182h416v1182h256v-1182h143l-37 -500h-186l-19 289h-1503z" />
    <glyph glyph-name="uni042A" unicode="&#x42a;" horiz-adv-x="1333" 
d="M551 211h242q98 0 142 63.5t44 158.5t-43 159.5t-143 64.5h-242v-446zM811 868q436 0 436 -436q0 -213 -109.5 -322.5t-326.5 -109.5h-516v1182h-240v211h496v-525h260z" />
    <glyph glyph-name="uni042B" unicode="&#x42b;" horiz-adv-x="1705" 
d="M1534 0h-256v1393h256v-1393zM428 211h242q98 0 142 63q44 62 44 158t-43 161t-143 64h-242v-446zM688 868q438 0 436 -436q0 -212 -110 -322t-326 -110h-516v1393h256v-525h260z" />
    <glyph glyph-name="uni042C" unicode="&#x42c;" horiz-adv-x="1208" 
d="M428 211h242q98 0 142 63.5t44 158.5t-43 159.5t-143 64.5h-242v-446zM688 868q436 0 436 -436q0 -213 -109.5 -322.5t-326.5 -109.5h-516v1393h256v-525h260z" />
    <glyph glyph-name="uni042D" unicode="&#x42d;" horiz-adv-x="1155" 
d="M420 1423q309 0 469 -198t160 -529t-160.5 -529t-450.5 -198q-184 0 -356 90l68 195q130 -68 278 -68q149 0 240.5 110t111.5 294h-497v213h497q-20 182 -111 292.5t-242 110.5t-277 -67l-68 194q173 90 338 90z" />
    <glyph glyph-name="uni042E" unicode="&#x42e;" horiz-adv-x="2004" 
d="M954 696.5q0 -106.5 18.5 -200t59.5 -162t106.5 -108.5t158 -40t158 40t105 108.5t58 162t18.5 200t-18.5 198.5t-58 161.5t-105 109.5t-158 40t-158 -40t-106.5 -109.5t-59.5 -161.5t-18.5 -198.5zM1898 696.5q0 -322.5 -152 -525t-440 -202.5t-437.5 170t-172.5 457
h-268v-596h-256v1393h256v-586h268q40 432 248 524t358 92t263.5 -56t223 -202t109.5 -468.5z" />
    <glyph glyph-name="uni042F" unicode="&#x42f;" horiz-adv-x="1269" 
d="M842 756v426h-260q-92 0 -138.5 -60.5t-46.5 -151.5t46 -152.5t139 -61.5h260zM408 563q-273 69 -273 427q0 180 105.5 291.5t328.5 111.5h529v-1393h-256v545h-174l-332 -545h-270v33z" />
    <glyph glyph-name="uni0430" unicode="&#x430;" horiz-adv-x="1054" 
d="M525 1018q198 0 298 -109t101 -299v-610h-189l-35 88h-4q-51 -41 -133 -80t-172 -39q-153 0 -233 88t-80 224q0 315 438 315h156v45q0 97 -65 139q-48 31 -111 31q-119 0 -308 -78l-67 193q206 92 404 92zM319 289q0 -123 127 -123q57 0 122 20t104 47v199h-144
q-209 0 -209 -143z" />
    <glyph glyph-name="uni0431" unicode="&#x431;" horiz-adv-x="1138" 
d="M423 642q-58 -75 -58 -192t59.5 -195.5t155 -78.5t154.5 79.5t59 194.5t-58 191t-156 76t-156 -75zM656 924q74 0 150.5 -35t158.5 -131.5t82 -304.5q0 -207 -122 -345.5t-352 -138.5q-231 0 -346.5 156t-115.5 434q0 414 91 604t304 240q97 23 280 38t213 21v-229
q-29 -8 -82 -12t-113.5 -9.5t-120 -10.5t-117.5 -16q-118 -23 -169 -120t-51 -291h6q87 150 304 150z" />
    <glyph glyph-name="uni0432" unicode="&#x432;" horiz-adv-x="1032" 
d="M655 692q0 119 -133 119h-137v-227h137q84 0 108.5 33.5t24.5 74.5zM942 279q0 -279 -346 -279h-453v987h435q147 0 235 -63.5t88 -207.5t-123 -210v-2q68 -23 116 -78t48 -147zM563 176q133 0 133 140q0 34 -26.5 70t-106.5 36h-178v-246h178z" />
    <glyph glyph-name="uni0433" unicode="&#x433;" horiz-adv-x="864" 
d="M813 987v-196h-428v-791h-242v987h670z" />
    <glyph glyph-name="uni0434" unicode="&#x434;" horiz-adv-x="1157" 
d="M729 201v590h-252l-10 -166q-4 -59 -13 -199.5t-48 -224.5h323zM971 987v-786h100l-35 -447h-168l-22 246h-584l-20 -246h-168l-37 447h100q67 83 80.5 223.5t18.5 196.5l16 366h719z" />
    <glyph glyph-name="uni0435" unicode="&#x435;" horiz-adv-x="1034" 
d="M721 618q0 214 -184 218q-85 0 -138 -73t-57 -177h377q2 8 2 16v16zM907 57q-166 -88 -373 -88t-326 149q-118 149 -118 372q0 222 117 375t326 153q208 0 313 -122q104 -122 104 -306q0 -88 -12 -168h-602q8 -112 71 -182t160 -70q144 0 283 66z" />
    <glyph glyph-name="uni0436" unicode="&#x436;" horiz-adv-x="1529" 
d="M37 0v14l373 473l-357 486v14h269l317 -471h2v471h248v-471h4l317 471h267v-14l-355 -486l371 -473v-14h-274l-326 432h-4v-432h-248v432h-2l-328 -432h-274z" />
    <glyph glyph-name="uni0437" unicode="&#x437;" horiz-adv-x="933" 
d="M590 299q0 98 -129 98h-244v197h229q117 0 117 102q0 125 -146 125t-278 -51l-47 184q155 68 344 68t283 -77t94 -210q0 -165 -125 -217v-4q156 -61 156 -250q0 -212 -156 -253.5t-268 -41.5q-204 0 -354 76l43 188q128 -63 305 -63q176 0 176 129z" />
    <glyph glyph-name="uni0438" unicode="&#x438;" horiz-adv-x="1138" 
d="M995 987v-987h-241v467l8 192h-6l-88 -192l-252 -467h-273v987h242v-512l-10 -147h6l68 149l274 510h272z" />
    <glyph glyph-name="uni0439" unicode="&#x439;" horiz-adv-x="1138" 
d="M995 987v-987h-241v467l8 192h-6l-88 -192l-252 -467h-273v987h242v-512l-10 -147h6l68 149l274 510h272zM593 1380q132 0 245 70l59 -152q-134 -134 -301 -135q-168 -2 -305 135l59 152q111 -70 243 -70z" />
    <glyph glyph-name="uni043A" unicode="&#x43a;" horiz-adv-x="1028" 
d="M385 432v-432h-242v987h242v-471h4l318 471h268v-14l-346 -486l362 -473v-14h-274l-328 432h-4z" />
    <glyph glyph-name="uni043B" unicode="&#x43b;" horiz-adv-x="1134" 
d="M750 791h-275l-20 -289q-23 -305 -115.5 -410.5t-290.5 -105.5v202q80 0 125.5 72t56.5 264l21 463h739v-987h-241v791z" />
    <glyph glyph-name="uni043C" unicode="&#x43c;" horiz-adv-x="1314" 
d="M1171 987v-987h-241v426l10 180h-2l-76 -168l-106 -202h-197l-104 202l-76 168h-4l10 -180v-426h-242v987h234l221 -407l57 -127h4l58 127l221 407h233z" />
    <glyph glyph-name="uni043D" unicode="&#x43d;" 
d="M743 393h-358v-393h-242v987h242v-393h358v393h240v-987h-240v393z" />
    <glyph glyph-name="uni043E" unicode="&#x43e;" horiz-adv-x="1116" 
d="M906 116q-122 -147 -347 -147t-348 148q-123 149 -123 377t123 376t348 148t347 -147t122 -377t-122 -378zM346 494q0 -74 14 -134q43 -185 198 -184q154 0 198 184q14 60 14 134q0 150 -56 234q-56 85 -157 83q-153 0 -197 -184q-14 -59 -14 -133z" />
    <glyph glyph-name="uni043F" unicode="&#x43f;" 
d="M743 791h-358v-791h-242v987h840v-987h-240v791z" />
    <glyph glyph-name="uni0440" unicode="&#x440;" horiz-adv-x="1130" 
d="M649 1018q184 0 288 -150t102 -376q-1 -226 -103 -375q-102 -148 -285 -148q-87 0 -142 28t-110 75h-4v-478h-252v1393h185l37 -88h4q47 39 115 79t165 40zM780 494q0 220 -114 292q-39 25 -95 25q-99 0 -176 -66v-503q77 -64 178 -65t154 85t53 232z" />
    <glyph glyph-name="uni0441" unicode="&#x441;" horiz-adv-x="919" 
d="M581 -30q-238 -2 -366 143q-127 145 -127 382q0 236 126 379q126 144 353 144q146 0 273 -62l-49 -188q-120 43 -185 43q-186 0 -241 -180q-19 -59 -19 -137q-1 -152 67 -234t166 -83t212 42l49 -188q-130 -60 -259 -61z" />
    <glyph glyph-name="uni0442" unicode="&#x442;" horiz-adv-x="878" 
d="M825 987v-196h-266v-791h-242v791h-264v196h772z" />
    <glyph glyph-name="uni0443" unicode="&#x443;" horiz-adv-x="1021" 
d="M216 -246q50 0 83 34t57 108l39 114l-358 957v20h256l168 -545l49 -204h6l47 204l160 545h256v-20l-383 -1090q-111 -313 -329 -313q-100 0 -193 24v185q92 -19 142 -19z" />
    <glyph glyph-name="uni0444" unicode="&#x444;" horiz-adv-x="1630" 
d="M1150 1018q115 0 251.5 -82t136.5 -442t-136 -442.5t-228 -82.5t-141.5 22.5t-90.5 51.5h-2v-449h-250v449h-4q-41 -29 -90 -51.5t-140 -22.5q-178 0 -271 147t-93 378q0 360 136.5 442t248.5 82t209 -66h4v482h250v-482h4q91 66 206 66zM346 493.5q0 -317.5 191 -317.5
q82 0 153 39v557q-72 39 -153 39q-191 0 -191 -317.5zM1284 493.5q0 317.5 -192 317.5q-80 0 -152 -39v-557q76 -39 152 -39q192 0 192 317.5z" />
    <glyph glyph-name="uni0445" unicode="&#x445;" horiz-adv-x="1026" 
d="M53 0v20l287 474l-287 473v20h266l193 -362h4l193 362h264v-20l-287 -473l287 -474v-20h-262l-195 360h-4l-193 -360h-266z" />
    <glyph glyph-name="uni0446" unicode="&#x446;" horiz-adv-x="1165" 
d="M143 0v987h242v-792h342v792h244v-792h127l-37 -441h-168l-23 246h-727z" />
    <glyph glyph-name="uni0447" unicode="&#x447;" horiz-adv-x="1011" 
d="M433 266q-173 0 -253 84t-80 211v426h242v-405q0 -113 125 -113q100 0 160 35v483h241v-987h-241v311q-91 -45 -194 -45z" />
    <glyph glyph-name="uni0448" unicode="&#x448;" horiz-adv-x="1556" 
d="M143 0v987h242v-792h272v792h242v-792h270v792h244v-987h-1270z" />
    <glyph glyph-name="uni0449" unicode="&#x449;" horiz-adv-x="1607" 
d="M143 0v987h242v-792h272v792h242v-792h270v792h244v-792h127l-37 -441h-168l-22 246h-1170z" />
    <glyph glyph-name="uni044A" unicode="&#x44a;" horiz-adv-x="1083" 
d="M756 359.5q0 93.5 -111 93.5h-170v-265h170q61 0 86 39t25 132.5zM659 645q351 0 351 -244.5t-86 -322.5t-265 -78h-426v791h-174v196h416v-342h184z" />
    <glyph glyph-name="uni044B" unicode="&#x44b;" horiz-adv-x="1441" 
d="M385 453v-265h170q111 0 111 131t-111 134h-170zM569 643q351 0 351 -324q0 -163 -87 -241t-264 -78h-426v987h242v-344h184zM1047 0v987h251v-987h-251z" />
    <glyph glyph-name="uni044C" unicode="&#x44c;" horiz-adv-x="993" 
d="M666 361q0 92 -111 92h-170v-265h170q61 0 86 40.5t25 132.5zM569 643q351 0 351 -243.5t-87.5 -321.5t-263.5 -78h-426v987h242v-344h184z" />
    <glyph glyph-name="uni044D" unicode="&#x44d;" horiz-adv-x="937" 
d="M344 1010q135 0 226.5 -38t152.5 -105.5t93 -163t32 -270t-127.5 -315.5t-358.5 -141q-158 0 -284 66l63 190q120 -53 213 -53q94 0 154.5 57.5t77.5 155.5h-348v197h348q-16 98 -76.5 158.5t-148.5 60.5t-220 -55l-63 192q131 64 266 64z" />
    <glyph glyph-name="uni044E" unicode="&#x44e;" horiz-adv-x="1607" 
d="M836 493.5q0 -73.5 14 -133t41 -100.5t65.5 -62.5t90 -21.5t91.5 21.5t66.5 62.5t41 100.5t14.5 133t-14.5 133t-41 100.5t-66.5 62.5t-91.5 21.5t-90 -21.5t-65.5 -62.5t-41 -100.5t-14 -133zM1518 493.5q0 -232.5 -123.5 -378.5t-334.5 -146q-212 0 -331.5 115.5
t-144.5 312.5h-199v-397h-242v987h242v-393h199q25 191 145.5 307.5t331.5 116.5t334 -146t123 -378.5z" />
    <glyph glyph-name="uni044F" unicode="&#x44f;" horiz-adv-x="1054" 
d="M670 791h-191q-59 0 -86.5 -39t-27.5 -94.5t27.5 -95.5t86.5 -40h191v269zM670 0v326h-99l-256 -326h-254v23l256 321q-109 33 -157.5 118t-48.5 176q0 349 356 349h444v-987h-241z" />
    <glyph glyph-name="uni0450" unicode="&#x450;" horiz-adv-x="1034" 
d="M721 618q0 214 -184 218q-85 0 -138 -73t-57 -177h377q2 8 2 16v16zM907 57q-166 -88 -373 -88t-326 149q-118 149 -118 372q0 222 117 375t326 153q208 0 313 -122q104 -122 104 -306q0 -88 -12 -168h-602q8 -112 71 -182t160 -70q144 0 283 66zM289 1460h262l145 -278
v-21h-217l-190 281v18z" />
    <glyph glyph-name="uni0451" unicode="&#x451;" horiz-adv-x="1034" 
d="M721 618q0 214 -184 218q-85 0 -138 -73t-57 -177h377q2 8 2 16v16zM907 57q-166 -88 -373 -88t-326 149q-118 149 -118 372q0 222 117 375t326 153q208 0 313 -122q104 -122 104 -306q0 -88 -12 -168h-602q8 -112 71 -182t160 -70q144 0 283 66zM203 1311q0 63 40 102
q41 39 107 39t106 -39t40 -102t-40 -103t-107 -39q-67 -1 -107 39t-39 103zM608 1311q0 63 40 102t107 39t107 -39t39 -102q0 -63 -40 -103q-41 -40 -107 -39q-66 -1 -106 39t-40 103z" />
    <glyph glyph-name="uni0452" unicode="&#x452;" horiz-adv-x="1101" 
d="M741 522q0 289 -157 289q-59 0 -100.5 -22.5t-59.5 -40t-33 -31.5v-717h-248v1116h-92v191h92v127h248v-127h195v-191h-195v-211h4q69 69 145 91t139 22t189.5 -64.5t126.5 -440.5q0 -377 -184 -835l-205 105q63 166 99 362.5t36 376.5z" />
    <glyph glyph-name="uni0453" unicode="&#x453;" horiz-adv-x="864" 
d="M813 987v-196h-428v-791h-242v987h670zM375 1161v21l145 278h262v-18l-190 -281h-217z" />
    <glyph glyph-name="uni0454" unicode="&#x454;" horiz-adv-x="933" 
d="M90 493.5q0 234.5 127.5 375.5t357.5 141q155 0 285 -64l-63 -192q-124 55 -216 55t-152 -60.5t-77 -158.5h348v-197h-348q16 -98 76.5 -155.5t151.5 -57.5t217 53l63 -190q-128 -66 -265 -66t-228 38t-184 141t-93 337.5z" />
    <glyph glyph-name="uni0455" unicode="&#x455;" horiz-adv-x="901" 
d="M96 702q0 144 99 230t271 86t333 -72l-68 -182q-125 57 -258 57q-69 -1 -101 -29t-32 -74t30 -69t83 -39l114 -30q252 -67 252 -291q0 -149 -101 -234q-101 -86 -288 -86t-354 94l74 185q150 -84 286 -82q72 0 106 31t34 79t-31 71q-31 24 -90 40l-117 31
q-239 61 -242 284z" />
    <glyph glyph-name="uni0456" unicode="&#x456;" horiz-adv-x="538" 
d="M125 1309q0 63 40 102q41 39 107 39t106 -39t40 -102t-40 -103t-107 -39q-67 -1 -107 39t-39 103zM143 0v987h252v-987h-252z" />
    <glyph glyph-name="uni0457" unicode="&#x457;" horiz-adv-x="538" 
d="M143 0v987h252v-987h-252zM-80 1311q0 63 40 102t107 39t107 -39t39 -102q0 -63 -40 -103q-41 -40 -107 -39q-66 -1 -106 39t-40 103zM326 1311q0 63 40 102t106 39t107 -39q39 -39 39 -102t-39 -103q-40 -39 -107 -39q-66 -1 -106 39t-40 103z" />
    <glyph glyph-name="uni0458" unicode="&#x458;" horiz-adv-x="538" 
d="M125 1309q0 63 40 102q39 39 105 39t107 -39t41 -102t-41 -103t-107 -39q-66 -1 -106 39t-39 103zM55 -246q88 0 88 144v1089h252v-1075q0 -176 -85 -262t-236 -86q-64 0 -129 14v191q47 -15 110 -15z" />
    <glyph glyph-name="uni0459" unicode="&#x459;" horiz-adv-x="1533" 
d="M1096 195q110 0 110 125.5t-110 125.5h-170v-251h170zM1110 643q350 0 350 -243.5t-87 -321.5t-263 -78h-426v791h-209l-18 -289q-23 -306 -116.5 -411t-291.5 -105v202q80 0 125.5 72t56.5 264l23 463h672v-344h184z" />
    <glyph glyph-name="uni045A" unicode="&#x45a;" horiz-adv-x="1560" 
d="M1122 195q111 0 111 125.5t-111 125.5h-170v-251h170zM1137 643q350 0 350 -243.5t-87 -321.5t-263 -78h-426v446h-326v-446h-242v987h242v-344h326v344h241v-344h185z" />
    <glyph glyph-name="uni045B" unicode="&#x45b;" 
d="M741 604q0 207 -157 207q-63 0 -114 -33q-24 -14 -42 -32t-33 -31v-715h-252v1116h-90v191h90v127h252v-127h193v-191h-193v-209h4q70 70 181 101q39 10 84 10q160 0 244 -102t85 -283v-633h-252v604z" />
    <glyph glyph-name="uni045C" unicode="&#x45c;" horiz-adv-x="1028" 
d="M385 432v-432h-242v987h242v-471h4l318 471h268v-14l-346 -486l362 -473v-14h-274l-328 432h-4zM422 1161v21l145 278h262v-18l-190 -281h-217z" />
    <glyph glyph-name="uni045D" unicode="&#x45d;" horiz-adv-x="1138" 
d="M995 987v-987h-241v467l8 192h-6l-88 -192l-252 -467h-273v987h242v-512l-10 -147h6l68 149l274 510h272zM315 1460h263l145 -278v-21h-217l-191 281v18z" />
    <glyph glyph-name="uni045E" unicode="&#x45e;" horiz-adv-x="1021" 
d="M216 -246q50 0 83 34t57 108l39 114l-358 957v20h256l168 -545l49 -204h6l47 204l160 545h256v-20l-383 -1090q-111 -313 -329 -313q-100 0 -193 24v185q92 -19 142 -19zM538 1380q133 0 244 70l60 -152q-134 -134 -301 -135q-168 -2 -305 135l59 152q110 -70 243 -70z
" />
    <glyph glyph-name="uni045F" unicode="&#x45f;" horiz-adv-x="1114" 
d="M143 0v987h242v-792h342v792h244v-987h-303l-25 -246h-168l-26 246h-306z" />
    <glyph glyph-name="uni0462" unicode="&#x462;" horiz-adv-x="1351" 
d="M580 211h241q98 0 142.5 63.5t44.5 158.5t-43 159.5t-144 64.5h-241v-446zM840 868q436 0 436 -436q0 -213 -109.5 -322.5t-326.5 -109.5h-516v1057h-256v211h256v125h256v-125h356v-211h-356v-189h260z" />
    <glyph glyph-name="uni0463" unicode="&#x463;" horiz-adv-x="1077" 
d="M647 195q111 0 111 125.5t-111 125.5h-170v-251h170zM662 643q350 0 350 -243.5t-87 -321.5t-263 -78h-426v791h-177v196h177v449h241v-449h293v-196h-293v-148h185z" />
    <glyph glyph-name="uni0472" unicode="&#x472;" horiz-adv-x="1419" 
d="M710 1206q-153 0 -236.5 -108.5t-100.5 -294.5h674q-26 284 -141 343.5t-196 59.5zM710 186q155 0 238.5 111.5t98.5 306.5h-676q26 -297 141 -357.5t198 -60.5zM1313 696.5q0 -321.5 -151.5 -524.5t-451.5 -203q-299 0 -451.5 203t-152.5 524.5t152 524t452 202.5
t451.5 -202.5t151.5 -524z" />
    <glyph glyph-name="uni0473" unicode="&#x473;" horiz-adv-x="1118" 
d="M537.5 811q-62.5 0 -115.5 -57t-70 -168h412q-25 163 -94.5 194t-132 31zM578 176q64 0 117 59t69 166h-412q25 -162 93.5 -193.5t132.5 -31.5zM1028 493.5q0 -233.5 -123 -379t-346 -145.5q-224 0 -347.5 147.5t-123.5 377t123.5 377t347.5 147.5t346.5 -145.5
t122.5 -379z" />
    <glyph glyph-name="uni0474" unicode="&#x474;" horiz-adv-x="1286" 
d="M31 1393h272l232 -795l92 -377h6l94 379l154 543q40 147 119.5 213.5t240.5 66.5v-217q-53 0 -84 -42t-51 -109l-322 -1055h-311l-442 1372v21z" />
    <glyph glyph-name="uni0475" unicode="&#x475;" horiz-adv-x="1050" 
d="M993 1010v-201q-39 0 -59.5 -34t-30.5 -64l-248 -711h-274l-340 967v20h248l176 -571l51 -207h4l51 207l113 372q37 118 105.5 170t203.5 52z" />
    <glyph glyph-name="uni0490" unicode="&#x490;" horiz-adv-x="1058" 
d="M428 1182v-1182h-256v1393h580l30 288h199l31 -499h-584z" />
    <glyph glyph-name="uni0491" unicode="&#x491;" horiz-adv-x="860" 
d="M385 791v-791h-242v987h449l31 217h172l18 -413h-428z" />
    <glyph glyph-name="uni0E3F" unicode="&#xe3f;" 
d="M752 989q0 78 -28 128t-83 54v-350q53 2 82 46t29 122zM397 817h95v359h-95v-359zM397 217h95v395h-95v-395zM778 417q0 85 -30.5 137t-106.5 54v-389q72 0 104.5 56.5t32.5 141.5zM1001 1016q0 -113 -43 -184.5t-102 -104.5v-4q193 -82 193 -326q0 -195 -94.5 -292
t-313.5 -105v-221h-149v221h-355v1393h355v184h149v-188q360 -29 360 -373z" />
    <glyph glyph-name="Wgrave" unicode="&#x1e80;" horiz-adv-x="1904" 
d="M53 1393h275l161 -809l62 -346h4l61 346l187 809h299l186 -809l62 -346h4l61 346l162 809h274v-21l-340 -1372h-303l-192 819l-60 340h-4l-61 -340l-193 -819h-305l-340 1372v21zM666 1835h278l129 -279v-20h-235l-172 281v18z" />
    <glyph glyph-name="wgrave" unicode="&#x1e81;" horiz-adv-x="1595" 
d="M55 987h242l137 -581l29 -199h4l41 199l154 581h272l153 -581l41 -199h5l28 199l135 581h244v-20l-264 -967h-277l-163 584l-37 202h-4l-37 -202l-164 -584h-275l-264 967v20zM494 1460h262l145 -278v-21h-217l-190 281v18z" />
    <glyph glyph-name="Wacute" unicode="&#x1e82;" horiz-adv-x="1904" 
d="M53 1393h275l161 -809l62 -346h4l61 346l187 809h299l186 -809l62 -346h4l61 346l162 809h274v-21l-340 -1372h-303l-192 819l-60 340h-4l-61 -340l-193 -819h-305l-340 1372v21zM844 1536v20l129 279h278v-18l-172 -281h-235z" />
    <glyph glyph-name="wacute" unicode="&#x1e83;" horiz-adv-x="1595" 
d="M55 987h242l137 -581l29 -199h4l41 199l154 581h272l153 -581l41 -199h5l28 199l135 581h244v-20l-264 -967h-277l-163 584l-37 202h-4l-37 -202l-164 -584h-275l-264 967v20zM698 1161v21l146 278h262v-18l-191 -281h-217z" />
    <glyph glyph-name="Wdieresis" unicode="&#x1e84;" horiz-adv-x="1904" 
d="M53 1393h275l161 -809l62 -346h4l61 346l187 809h299l186 -809l62 -346h4l61 346l162 809h274v-21l-340 -1372h-303l-192 819l-60 340h-4l-61 -340l-193 -819h-305l-340 1372v21zM1049 1675q0 63 40 103q41 40 107 39q66 0 106 -39q40 -38 40 -102t-40 -103t-107 -39
t-107 39t-39 102zM569 1675q0 63 40 103t107 39q66 0 106 -39q40 -38 40 -102t-40 -103t-106 -39t-107 39q-40 39 -40 102z" />
    <glyph glyph-name="wdieresis" unicode="&#x1e85;" horiz-adv-x="1595" 
d="M55 987h242l137 -581l29 -199h4l41 199l154 581h272l153 -581l41 -199h5l28 199l135 581h244v-20l-264 -967h-277l-163 584l-37 202h-4l-37 -202l-164 -584h-275l-264 967v20zM449 1311q0 63 39 102q40 39 107 39t107 -39t39 -102q0 -63 -40 -103q-41 -40 -107 -39
q-66 0 -106 39q-39 40 -39 103zM854 1311q0 63 40 102t106 39t107 -39q40 -39 40 -102t-40 -103t-107 -39q-66 -1 -106 39t-40 103z" />
    <glyph glyph-name="uni1E9E" unicode="&#x1e9e;" horiz-adv-x="1329" 
d="M674 1200q-254 0 -254 -293v-907h-258v903q0 379 192.5 449.5t331.5 70.5q219 0 440 -145v-170l-208 -307v-4q235 -38 282 -171.5t47 -224.5q0 -192 -118.5 -312t-315.5 -120q-103 0 -221 21v215q122 -21 175 -21q102 0 156 63.5t54 153.5q0 205 -191 205h-133v180
l228 359q-93 55 -207 55z" />
    <glyph glyph-name="Ygrave" unicode="&#x1ef2;" horiz-adv-x="1142" 
d="M1130 1393v-21l-430 -807v-565h-256v565l-432 807v21h275l282 -598h4l283 598h274zM285 1835h278l129 -279v-20h-235l-172 281v18z" />
    <glyph glyph-name="ygrave" unicode="&#x1ef3;" horiz-adv-x="1021" 
d="M216 -246q50 0 83 34t57 108l39 114l-358 957v20h256l168 -545l49 -204h6l47 204l160 545h256v-20l-383 -1090q-111 -313 -329 -313q-100 0 -193 24v185q92 -19 142 -19zM213 1460h262l146 -278v-21h-218l-190 281v18z" />
    <glyph glyph-name="endash" unicode="&#x2013;" horiz-adv-x="1116" 
d="M133 451v211h850v-211h-850z" />
    <glyph glyph-name="emdash" unicode="&#x2014;" horiz-adv-x="1722" 
d="M133 451v211h1456v-211h-1456z" />
    <glyph glyph-name="quoteleft" unicode="&#x2018;" horiz-adv-x="552" 
d="M92 786v21l187 586h188v-21l-123 -586h-252z" />
    <glyph glyph-name="quoteright" unicode="&#x2019;" horiz-adv-x="546" 
d="M477 1393v-21l-186 -586h-189v21l123 586h252z" />
    <glyph glyph-name="quotesinglbase" unicode="&#x201a;" horiz-adv-x="528" 
d="M416 276v-20l-187 -586h-188v21l123 585h252z" />
    <glyph glyph-name="quotedblleft" unicode="&#x201c;" horiz-adv-x="980" 
d="M520 786v21l187 586h188v-21l-123 -586h-252zM92 786v21l187 586h188v-21l-123 -586h-252z" />
    <glyph glyph-name="quotedblright" unicode="&#x201d;" horiz-adv-x="976" 
d="M477 1393v-21l-186 -586h-189v21l123 586h252zM907 1393v-21l-186 -586h-189v21l123 586h252z" />
    <glyph glyph-name="quotedblbase" unicode="&#x201e;" horiz-adv-x="958" 
d="M416 276v-20l-187 -586h-188v21l123 585h252zM846 276v-20l-187 -586h-188v21l123 585h252z" />
    <glyph glyph-name="dagger" unicode="&#x2020;" horiz-adv-x="886" 
d="M362 987v447h164v-447h305v-166h-305v-1227h-164v1227h-307v166h307z" />
    <glyph glyph-name="daggerdbl" unicode="&#x2021;" horiz-adv-x="970" 
d="M406 987v447h163v-447h303v-166h-303v-614h303v-166h-303v-447h-163v447h-308v166h308v614h-308v166h308z" />
    <glyph glyph-name="bullet" unicode="&#x2022;" horiz-adv-x="774" 
d="M156 596q0 102 62.5 167.5t169 65.5t168.5 -65.5t62 -167.5t-62 -168t-168.5 -66t-169 66t-62.5 168z" />
    <glyph glyph-name="ellipsis" unicode="&#x2026;" horiz-adv-x="1529" 
d="M109 137q0 74 45 122q46 48 118 48t117 -48t45 -122t-45 -121t-118 -47t-117 47t-45 121zM604 137q0 74 45 122t118 48t118 -48t45 -122t-45 -121t-118 -47t-118 47t-45 121zM1096 137q0 74 45 122t117 48t118 -48q45 -48 45 -122t-45 -121t-118 -47q-74 0 -118 47
t-44 121z" />
    <glyph glyph-name="perthousand" unicode="&#x2030;" horiz-adv-x="2357" 
d="M2288 357q0 -161 -78 -268t-227 -106q-150 1 -225 104t-77 271q0 260 165 345q56 30 135 30t138 -30q169 -87 169 -346zM1980 575q-50 0 -84 -53t-34 -167t34 -164t84 -50q127 0 125 217q0 217 -125 217zM684 1029q0 -257 -169 -344q-58 -30 -137 -30t-135 30
q-165 88 -165 345q0 169 72 264q81 111 230 111t230 -111q74 -102 74 -265zM502 1030q0 217 -125 217q-51 0 -85 -53t-34 -167t34 -164t85 -50q125 0 125 217zM1571 357q0 -161 -78 -268t-227 -106q-150 1 -226 105q-75 104 -75 270q0 260 164 345q55 30 135 30t138 -30
q169 -87 169 -346zM1389 358q0 217 -125 217q-51 0 -85 -53t-34 -167t34 -164t85 -50q125 0 125 217zM256 0v20l934 1373h213v-21l-934 -1372h-213z" />
    <glyph glyph-name="guilsinglleft" unicode="&#x2039;" horiz-adv-x="641" 
d="M74 565l301 449l168 -101l-187 -362l189 -361l-170 -98l-301 449v24z" />
    <glyph glyph-name="guilsinglright" unicode="&#x203a;" horiz-adv-x="641" 
d="M567 541l-301 -449l-168 101l187 362l-189 360l170 99l301 -449v-24z" />
    <glyph glyph-name="fraction" unicode="&#x2044;" horiz-adv-x="327" 
d="M-410 0v20l934 1373h213v-21l-934 -1372h-213z" />
    <glyph glyph-name="uni2070" unicode="&#x2070;" horiz-adv-x="720" 
d="M666 1275q0 -163 -77 -269t-227 -105q-150 0 -226 104q-75 104 -77 271q0 257 165 345q56 30 135 30t138 -30q113 -59 151 -201q18 -68 18 -145zM358 1493q-50 0 -84 -53t-34 -167t34 -164t84 -50q127 0 125 217q0 217 -125 217z" />
    <glyph glyph-name="uni2074" unicode="&#x2074;" horiz-adv-x="669" 
d="M543 1405v-182h78v-154h-78v-151h-174v151h-330v139l166 428h178l-154 -411v-2h140v182h174z" />
    <glyph glyph-name="uni2075" unicode="&#x2075;" horiz-adv-x="614" 
d="M299 1384q258 0 258 -227q0 -123 -76 -189t-209 -67q-133 0 -233 35l39 162q83 -37 166 -37q83 -1 107 23t24 65q0 80 -111 80q-66 0 -151 -10l-21 16l33 401h407v-155h-256l-8 -97h31z" />
    <glyph glyph-name="uni2076" unicode="&#x2076;" horiz-adv-x="649" 
d="M426 1158q0 101 -98 99q-101 0 -101 -96q0 -53 27 -79t74 -25q98 0 98 101zM403 1395q81 1 141 -59t60 -177t-75 -186q-75 -70 -205 -71t-201 74q-70 75 -71 174t59 196l184 290h194v-12l-174 -240v-2q46 13 88 13z" />
    <glyph glyph-name="uni2077" unicode="&#x2077;" horiz-adv-x="589" 
d="M371 1481h-328v155h516v-143l-287 -575h-182v10l281 551v2z" />
    <glyph glyph-name="uni2078" unicode="&#x2078;" horiz-adv-x="667" 
d="M248 1436q0 -80 87 -80t89 80q0 30 -20 54t-68 24q-47 0 -68 -24q-20 -24 -20 -54zM335 901q-126 0 -202 57q-76 56 -76 142q0 147 129 194v2q-100 43 -100 142q0 98 68 156t183 57q117 1 183 -57t66 -154t-103 -144v-2q133 -47 131 -180q0 -98 -76 -156
q-77 -57 -203 -57zM227 1126q0 -36 24 -60t84 -24t84 25q23 25 23 59t-23 62q-24 26 -85 26t-84 -26t-23 -62z" />
    <glyph glyph-name="uni2079" unicode="&#x2079;" horiz-adv-x="647" 
d="M223 1395q0 -47 25 -74q26 -27 72 -27t74 27t28 74q0 104 -103 102q-96 0 -96 -102zM246 1159q-135 0 -185 131q-16 42 -16 100q0 119 75 190t205 72t202 -75q71 -76 71 -174q0 -97 -59 -195l-185 -290h-194v12l174 239v2q-48 -12 -88 -12z" />
    <glyph glyph-name="uni207A" unicode="&#x207a;" horiz-adv-x="497" 
d="M317 1354h125v-140h-125v-145h-141v145h-121v140h121v147h141v-147z" />
    <glyph glyph-name="uni207B" unicode="&#x207b;" horiz-adv-x="550" 
d="M84 1214v140h387v-140h-387z" />
    <glyph glyph-name="uni207D" unicode="&#x207d;" horiz-adv-x="352" 
d="M209 758q-158 252 -158 496t104 445q28 54 54 97l102 -59q-43 -102 -73 -210t-29 -250q0 -142 30 -250t72 -212z" />
    <glyph glyph-name="uni207E" unicode="&#x207e;" horiz-adv-x="350" 
d="M143 1796q158 -252 158 -519t-158 -519l-102 57q43 104 73 212t30 250t-30 250t-73 210z" />
    <glyph glyph-name="uni2080" unicode="&#x2080;" horiz-adv-x="722" 
d="M666 114q0 -77 -18 -145q-39 -143 -151 -199q-57 -30 -137 -30q-147 0 -223 103t-78 272q0 257 165 345q56 30 135 30t138 -30q113 -58 151 -200q18 -68 18 -146zM358 332q-50 0 -84 -53t-34 -167t34 -164t84 -50q127 0 125 217q0 217 -125 217z" />
    <glyph glyph-name="uni2081" unicode="&#x2081;" horiz-adv-x="518" 
d="M37 205v160l252 110h131v-719h-174v531h-2l-193 -82h-14z" />
    <glyph glyph-name="uni2082" unicode="&#x2082;" horiz-adv-x="638" 
d="M307 -92h271v-152h-521v138l279 241q51 43 51 95q0 102 -88 102q-47 0 -80 -26t-65 -58l-99 119q60 77 164 110q41 12 92 12q110 0 183 -61t73 -174q0 -76 -38 -130t-91 -99l-131 -111v-6z" />
    <glyph glyph-name="uni2083" unicode="&#x2083;" horiz-adv-x="634" 
d="M286 -100q111 0 109 77q0 35 -25 49q-26 13 -79 13h-133v151h131q86 0 88 72q0 29 -22 49q-22 21 -99 21t-147 -35l-50 145q118 47 237 47q120 0 190 -52t71 -138q0 -86 -35 -122t-73 -44v-2q128 -42 126 -180q0 -94 -69 -153q-70 -58 -215 -58t-248 55l45 150
q87 -45 198 -45z" />
    <glyph glyph-name="uni2084" unicode="&#x2084;" horiz-adv-x="669" 
d="M541 244v-183h77v-153h-77v-152h-174v152h-330v139l166 428h178l-154 -412v-2h140v183h174z" />
    <glyph glyph-name="uni2085" unicode="&#x2085;" horiz-adv-x="614" 
d="M297 223q258 0 258 -227q0 -123 -76 -190q-76 -66 -209 -66t-233 35l39 162q83 -37 166 -37t107 24t24 64q0 80 -111 80q-76 0 -151 -11l-21 17l33 401h407v-156h-256l-8 -96h31z" />
    <glyph glyph-name="uni2086" unicode="&#x2086;" horiz-adv-x="649" 
d="M426 -3q0 101 -98 99q-101 0 -101 -96q0 -53 27 -79t74 -25q98 0 98 101zM403 233q81 0 141 -59t60 -174q0 -177 -162 -241q-50 -19 -118 -19q-132 0 -202 75q-69 75 -70 175q-1 99 59 194l184 291h194v-12l-174 -240v-2q42 12 88 12z" />
    <glyph glyph-name="uni2087" unicode="&#x2087;" horiz-adv-x="591" 
d="M371 319h-328v156h516v-143l-287 -576h-182v11l281 550v2z" />
    <glyph glyph-name="uni2088" unicode="&#x2088;" horiz-adv-x="671" 
d="M248 274q0 -79 87 -79t89 79q0 31 -20 55q-20 23 -68 23q-47 0 -68 -23q-20 -24 -20 -55zM86 277q0 98 68 155t183 57q117 0 183 -57t66 -155t-103 -142v-2q133 -47 131 -180q0 -98 -76 -156q-77 -57 -203 -57t-202 57t-76 143q0 147 129 193v2q-100 44 -100 142z
M227 -35q0 -35 24 -59t84 -25q60 0 84 25q23 26 23 60t-23 61q-24 27 -85 27t-84 -28q-23 -26 -23 -61z" />
    <glyph glyph-name="uni2089" unicode="&#x2089;" horiz-adv-x="649" 
d="M319 336q-96 0 -96 -103q0 -47 25 -73q26 -26 72 -27q46 0 74 27q28 26 28 76t-28 75t-75 25zM246 -2q-40 0 -77 14q-36 14 -64 44t-44 73t-16 100q0 119 75 190t205 72t202 -75q71 -76 71 -174q0 -97 -59 -195l-185 -291h-194v13l174 239v2q-48 -12 -88 -12z" />
    <glyph glyph-name="uni208D" unicode="&#x208d;" horiz-adv-x="352" 
d="M209 -403q-158 252 -158 496t104 445q28 54 54 97l102 -60q-43 -101 -73 -209t-29 -250q0 -142 30 -250t72 -212z" />
    <glyph glyph-name="uni208E" unicode="&#x208e;" horiz-adv-x="350" 
d="M143 635q158 -252 158 -519t-158 -519l-102 57q43 104 73 212t30 250t-30 250t-73 209z" />
    <glyph glyph-name="colonmonetary" unicode="&#x20a1;" 
d="M336 730q0 -238 78 -386l129 842q-94 -53 -150.5 -182.5t-56.5 -273.5zM714 1200h-34l-160 -956q54 -33 88 -41l166 993q-36 4 -60 4zM698 -31h-4l-35 -190h-129l35 203q-17 3 -90 22l-39 -225h-131l49 284q-137 90 -208.5 253t-71.5 345q0 335 133.5 526.5t384.5 227.5
l29 162h131l-29 -154q62 -5 92 -10l29 164h131l-33 -195q67 -23 117 -49l-70 -205q-25 10 -46 19.5t-44 17.5l-162 -972q124 8 252 71l70 -205q-172 -90 -361 -90z" />
    <glyph glyph-name="lira" unicode="&#x20a4;" horiz-adv-x="1110" 
d="M494 997v-28h356v-195h-338l16 -158h322v-194h-311q-12 -84 -45 -137.5t-50 -69.5v-4h560v-211h-869v176q131 81 131 227v19h-149v194h129l-17 158h-112v195h100v28q0 223 111.5 324.5t315.5 101.5t388 -92l-69 -213q-161 74 -299 74q-170 0 -170 -195z" />
    <glyph glyph-name="uni20A6" unicode="&#x20a6;" horiz-adv-x="1300" 
d="M348 1206l14 -260h87l-95 260h-6zM940 199l-8 254h-88l90 -254h6zM371 776l6 -153h190l-53 153h-143zM778 623h148l-4 153h-197zM1161 453v-453h-370l-162 453h-250v-453h-242v453h-92v170h92v153h-92v170h92v447h373l152 -447h258v447h241v-447h94v-170h-94v-153h94
v-170h-94z" />
    <glyph glyph-name="uni20A8" unicode="&#x20a8;" 
d="M842 12h-281l-436 535v176h201q179 0 206 117h-434l56 204h378q-29 123 -206 123h-228l56 238h897l-56 -195h-340v-4q95 -45 131 -162h265l-56 -204h-198q-30 -211 -156.5 -265.5t-202.5 -62.5l404 -467v-33z" />
    <glyph glyph-name="uni20AA" unicode="&#x20aa;" horiz-adv-x="1433" 
d="M1348 1395v-858q0 -284 -109 -410.5t-387 -126.5h-401v995h227v-778h174q134 0 182.5 67.5t48.5 245.5v865h265zM768 397v465q0 174 -48.5 244t-182.5 70h-177v-1176h-264v1393h441q267 0 343 -97.5t94.5 -199t18.5 -240.5v-459h-225z" />
    <glyph glyph-name="dong" unicode="&#x20ab;" 
d="M139 0v166h809v-166h-809zM388.5 504.5q50.5 -62.5 146.5 -62.5q43 0 83.5 12.5t73.5 22.5v381q-83 35 -144 35q-62 0 -99 -16.5t-74 -60t-37 -146.5t50.5 -165.5zM473 1096q113 0 215 -64h4v146h-182v165h182v91h258v-91h84v-165h-84v-912h-205l-24 56h-4
q-121 -80 -264 -80q-180 0 -278.5 122t-98.5 304t99 305t298 123z" />
    <glyph glyph-name="Euro" unicode="&#x20ac;" 
d="M465 422q58 -221 284 -221q116 0 250 71l70 -213q-165 -90 -361 -90t-330 122t-188 331h-149l57 194h64q-2 18 -2 23v61q0 56 2 74h-121l55 195h94q86 331 258.5 392.5t268.5 61.5q200 0 352 -90l-70 -213q-140 72 -252 72q-221 0 -280 -223h485l-55 -195h-475v-158h448
l-55 -194h-350z" />
    <glyph glyph-name="uni20AD" unicode="&#x20ad;" 
d="M1094 0h-306l-321 588h-51v-588h-266v588h-101v194h101v611h266v-611h51l309 611h297v-21l-332 -590h283v-194h-276l346 -568v-20z" />
    <glyph glyph-name="uni20AE" unicode="&#x20ae;" 
d="M696 0h-266v326l-182 -68v170l182 68v137l-182 -68v170l182 68v373h-362v217h993v-217h-365v-277l185 70v-170l-185 -70v-137l185 70v-170l-185 -70v-422z" />
    <glyph glyph-name="uni20B1" unicode="&#x20b1;" 
d="M418 1067h260q-10 41 -53 77t-113 36h-94v-113zM512 518q70 0 116 37t56 80h-266v-117h94zM727 892q0 5 -2 15h-307v-112h307q2 10 2 15v82zM520 305h-94v-305h-264v631h-92v164h92v112h-92v164h92v322h358q176 0 285.5 -87t155.5 -235h124v-164h-96q2 -10 2 -15v-46
q0 -41 -2 -51h96v-164h-127q-45 -150 -154.5 -238t-283.5 -88z" />
    <glyph glyph-name="uni20B2" unicode="&#x20b2;" 
d="M336 693q0 -170 41.5 -305.5t114.5 -174.5v958q-156 -105 -156 -478zM711 748h315v-658q-70 -47 -171 -80t-206 -39v-192h-157v201q-202 36 -312 229t-110 475t107 478t315 247v168h157v-154q104 -4 201.5 -34.5t157.5 -65.5l-70 -201q-127 74 -289 78v-1007
q104 14 139 36v293l-77 23v203z" />
    <glyph glyph-name="uni20B4" unicode="&#x20b4;" 
d="M178 1323q180 100 397 100q73 0 153.5 -30.5t161.5 -108.5t81 -244q0 -47 -6 -71h69v-195h-203q-23 -20 -53 -47t-55 -43l-98 -68h409v-194h-628q-3 -15 -3 -37q0 -88 45.5 -142.5t149.5 -54.5t201.5 48.5t124.5 68.5l77 -203q-197 -133 -438 -133q-80 0 -163 30
t-166.5 112t-83.5 268v15q0 16 2 28h-68v194h199q23 23 56.5 50.5t53.5 44.5l84 63h-393v195h629q4 14 4 17v36q0 74 -44.5 128t-135.5 54q-53 0 -135.5 -25.5t-147.5 -62.5z" />
    <glyph glyph-name="uni20B5" unicode="&#x20b5;" 
d="M395.5 386q63.5 -139 161.5 -177v977q-99 -39 -162 -180.5t-63 -311t63.5 -308.5zM723 -221h-166v203q-236 46 -361.5 233.5t-125.5 479t127 482.5t360 234v166h166v-154q175 -9 334 -90l-70 -205q-136 64 -264 72v-1007q130 8 264 71l70 -205q-159 -81 -334 -90v-190z
" />
    <glyph glyph-name="uni2113" unicode="&#x2113;" horiz-adv-x="784" 
d="M485 1272q-63 0 -63 -113v-342q63 68 97 163.5t34 169.5q0 122 -68 122zM242 231v220q-31 -31 -68 -58.5t-51 -38.5l-84 152q63 45 126.5 103.5t76.5 72.5v440q0 255 103.5 298.5t162.5 43.5q109 0 169 -70.5t60 -203.5q0 -310 -315 -608v-301q0 -87 35 -102t55 -15
q73 0 154 61l59 -172q-100 -84 -227 -84q-256 0 -256 262z" />
    <glyph glyph-name="uni2116" unicode="&#x2116;" horiz-adv-x="2082" 
d="M983 1393h256v-1393h-270l-566 1049h-6l31 -271v-778h-256v1393h270l566 -1051h6l-31 270v781zM1417 412v157h522v-157h-522zM1991 1028q0 -220 -179 -303q-57 -27 -132 -27q-142 0 -226 92t-85 236t84 238t224 94q140 0 233 -97q81 -89 81 -233zM1552 1027
q0 -93 38 -132t90 -39t89 39t37 132t-37 133t-89 40t-90 -40t-38 -133z" />
    <glyph glyph-name="uni2117" unicode="&#x2117;" horiz-adv-x="1662" 
d="M770 702h102q55 0 78 29t23 85t-22.5 84t-78.5 28h-102v-226zM584 313v766h311q140 0 206 -71t66 -225t-99 -193t-173 -39h-125v-238h-186zM250 696q0 -125 46 -232.5t127 -186t189.5 -123.5t233.5 -45t228.5 45t179 123.5t117.5 186t42 232.5t-44 232.5t-122 186.5
t-184.5 124t-231 45t-231 -45t-184.5 -124t-122 -186.5t-44 -232.5zM104 696.5q0 153.5 55.5 286.5t154 231.5t231.5 153.5t286.5 55t286.5 -55t231.5 -153.5t154 -231.5t55.5 -286.5t-55.5 -287t-154 -231.5t-231.5 -153.5t-286.5 -55.5t-286.5 55.5t-231.5 153.5
t-154 231.5t-55.5 287z" />
    <glyph glyph-name="trademark" unicode="&#x2122;" horiz-adv-x="1521" 
d="M1376 1434v-574h-166v199l21 186h-2l-113 -268h-135l-115 268h-2l21 -186v-199h-162v574h180l88 -181l56 -135h2l55 131l94 185h178zM621 1434v-131h-168v-443h-164v443h-170v131h502z" />
    <glyph glyph-name="Omega" unicode="&#x2126;" horiz-adv-x="1466" 
d="M121 211h268q-108 66 -184 212.5t-76 302.5q0 306 152.5 501.5t449.5 195.5q298 0 452 -194t154 -481q0 -176 -76 -323t-186 -214h268v-211h-530v190q129 82 192.5 200t63.5 306q0 355 -122 432.5t-215 77.5q-175 0 -256 -141t-81 -349t64.5 -326t191.5 -200v-190h-530
v211z" />
    <glyph glyph-name="estimated" unicode="&#x212e;" horiz-adv-x="1361" 
d="M690 1135q-207 0 -334 -129v-330h678v330q-137 129 -344 129zM710 -31q-272 0 -434.5 180t-162.5 446t161.5 441.5t418.5 175.5t419 -165.5t170 -432.5l-14 -20h-912v-412q133 -127 338 -127q277 0 420 217l76 -55q-96 -133 -214 -190.5t-266 -57.5z" />
    <glyph glyph-name="onethird" unicode="&#x2153;" horiz-adv-x="1558" 
d="M1055 283v151h131q86 0 88 72q0 29 -22 49t-97 20t-149 -34l-50 145q118 47 237 47q121 0 191 -52q70 -53 70 -139t-35 -122t-73 -43v-2q127 -42 127 -180q0 -95 -70 -153t-214 -58t-249 55l45 149q84 -43 196 -44q113 -1 111 77q0 35 -25 48q-26 13 -79 14h-133z
M74 1120v160l252 111h131v-719h-174v530h-2l-193 -82h-14zM170 0v20l934 1373h213v-21l-934 -1372h-213z" />
    <glyph glyph-name="twothirds" unicode="&#x2154;" horiz-adv-x="1669" 
d="M1403 221q0 35 -26 48t-79 14h-133v151h131q88 0 88 70t-97 71q-97 0 -171 -34l-49 145q118 47 237 47t190 -52q71 -53 71 -139t-35 -122t-74 -43v-2q127 -42 127 -180q0 -95 -70 -153t-214 -58t-248 55l45 149q84 -43 195 -44q112 -1 112 77zM426 1141q0 105 -92 103
q-44 0 -76 -26q-33 -26 -65 -59l-99 119q61 78 164 111q41 12 92 12q110 0 183 -61t73 -175q0 -76 -38 -130t-91 -99l-131 -111v-6h270v-151h-520v137l279 242q51 43 51 94zM281 0v20l933 1373h213v-21l-933 -1372h-213z" />
    <glyph glyph-name="oneeighth" unicode="&#x215b;" horiz-adv-x="1556" 
d="M74 1120v160l252 111h131v-719h-174v530h-2l-193 -82h-14zM170 0v20l934 1373h213v-21l-934 -1372h-213zM1110 518q0 -80 88 -80q47 0 68 23q20 23 20 55t-20 56t-68 24t-68 -24t-20 -54zM1346 377q131 -45 131 -193q0 -84 -77 -142t-203 -58t-202 57t-75 156
q0 132 129 180v2q-101 44 -101 141q0 98 68 156t183 57q117 0 183 -57q66 -56 66 -134t-33 -112t-69 -51v-2zM1197 125q60 0 84 25q24 26 24 60t-24 60t-85 27q-61 0 -84 -27q-22 -28 -22 -62t24 -58t83 -25z" />
    <glyph glyph-name="threeeighths" unicode="&#x215c;" horiz-adv-x="1644" 
d="M1286 438q47 0 68 23q20 23 20 55t-20 56t-68 24t-67 -24q-21 -24 -21 -56t20 -56q20 -22 68 -22zM1434 377q131 -45 131 -193q0 -84 -77 -142t-203 -58t-202 57t-75 156q0 132 129 180v2q-101 44 -101 141q0 98 68 156t183 57q117 0 183 -57q66 -56 66 -134t-33 -112
t-69 -51v-2zM1285 125q60 0 84 25q24 26 24 60t-24 60t-85 27q-61 0 -84 -27q-22 -28 -22 -62t24 -58t83 -25zM432 887q0 35 -25 48q-26 13 -79 13h-133v152h131q86 0 88 71q0 29 -22 49t-98 21q-76 0 -149 -35l-49 146q113 45 235 46q123 1 193 -51q70 -53 70 -139
t-35 -122t-74 -44v-2q129 -42 127 -180q0 -94 -70 -152t-213 -58q-144 0 -249 55l45 149q87 -45 197 -45t110 78zM258 0v20l934 1373h213v-21l-934 -1372h-213z" />
    <glyph glyph-name="fiveeighths" unicode="&#x215d;" horiz-adv-x="1607" 
d="M1249 438q47 0 68 23q20 23 20 55t-20 56q-19 24 -67 24t-68 -24t-20 -56t20 -56q20 -22 67 -22zM1397 377q131 -45 131 -193q0 -84 -77 -142t-203 -58t-202 57t-75 143q0 86 37 128q37 44 92 65v2q-101 44 -101 141q-1 98 67 156t184 57q116 0 183 -57q67 -56 67 -134
t-34 -112q-33 -34 -69 -51v-2zM1248 125q60 0 84 25q24 26 24 60t-24 60t-85 27q-61 0 -84 -27q-23 -28 -23 -62t24 -58t84 -25zM569 1391v-156h-256l-8 -96h31q114 -1 186 -53t72 -175t-76 -189t-206 -67q-130 0 -236 35l39 162q83 -37 190 -37t107 88q0 82 -111 80
q-66 0 -151 -10l-21 16l33 402h407zM221 0v20l934 1373h213v-21l-934 -1372h-213z" />
    <glyph glyph-name="seveneighths" unicode="&#x215e;" horiz-adv-x="1523" 
d="M1165 438q47 0 68 23q20 23 20 55t-20 56q-19 24 -67 24t-68 -24t-20 -56t20 -56q20 -22 67 -22zM1313 377q131 -45 131 -193q0 -84 -77 -142t-203 -58t-202 57t-75 143q0 86 37 128q37 44 92 65v2q-101 44 -101 141q-1 98 67 156t184 57q116 0 183 -57q67 -56 67 -134
t-34 -112q-33 -34 -69 -51v-2zM1164 125q60 0 84 25q24 26 24 60t-24 60t-85 27q-61 0 -84 -27q-23 -28 -23 -62t24 -58t84 -25zM418 1235h-328v156h516v-144l-287 -575h-182v10l281 551v2zM137 0v20l934 1373h213v-21l-934 -1372h-213z" />
    <glyph glyph-name="arrowleft" unicode="&#x2190;" horiz-adv-x="1826" 
d="M1827 815v-242h-1292l507 -475l-182 -182l-778 778l778 779l182 -183l-507 -475h1292z" />
    <glyph glyph-name="arrowup" unicode="&#x2191;" horiz-adv-x="1826" 
d="M1731 784l-183 -182l-475 510l-2 -1292h-242l2 1292l-475 -510l-182 182l778 779z" />
    <glyph glyph-name="arrowright" unicode="&#x2192;" horiz-adv-x="1826" 
d="M82 573v242h1292l-508 475l183 183l778 -779l-778 -778l-183 182l508 475h-1292z" />
    <glyph glyph-name="arrowdown" unicode="&#x2193;" horiz-adv-x="1826" 
d="M174 598l182 182l475 -510l3 1293h241l-2 -1293l475 510l183 -182l-779 -778z" />
    <glyph glyph-name="uni2196" unicode="&#x2196;" horiz-adv-x="1818" 
d="M1427 1356v-258l-694 22l914 -911l-174 -174l-914 915l25 -696h-258v1102h1101z" />
    <glyph glyph-name="uni2197" unicode="&#x2197;" horiz-adv-x="1818" 
d="M1647 254h-258l22 694l-911 -913l-174 174l915 913l-696 -22v256h1102v-1102z" />
    <glyph glyph-name="uni2198" unicode="&#x2198;" horiz-adv-x="1818" 
d="M545 37v258l694 -23l-913 912l174 174l913 -916l-24 697h258v-1102h-1102z" />
    <glyph glyph-name="uni2199" unicode="&#x2199;" horiz-adv-x="1818" 
d="M326 1139h258l-23 -695l912 914l174 -174l-916 -914l696 25v-258h-1101v1102z" />
    <glyph glyph-name="partialdiff" unicode="&#x2202;" horiz-adv-x="1159" 
d="M555 768q-98 0 -156.5 -79t-58.5 -215t58 -212t161 -76t167.5 114t64.5 323q-104 145 -236 145zM910.5 165q-138.5 -196 -380.5 -196q-207 0 -327.5 143.5t-120.5 373.5t116 364.5t285 134.5t231 -64.5t81 -86.5l4 4q-37 265 -206 320.5t-276 58.5l31 217
q339 0 520 -203.5t181 -536.5t-138.5 -529z" />
    <glyph glyph-name="Delta" unicode="&#x2206;" horiz-adv-x="1318" 
d="M655 1167l-94 -368l-174 -596h549l-184 596l-90 368h-7zM1266 0h-1213v10l457 1383h299l457 -1383v-10z" />
    <glyph glyph-name="product" unicode="&#x220f;" horiz-adv-x="1372" 
d="M950 1223h-528v-1629h-256v1840h1040v-1840h-256v1629z" />
    <glyph glyph-name="summation" unicode="&#x2211;" horiz-adv-x="1157" 
d="M109 1434h938v-211h-670l485 -686l-518 -732h731v-211h-995v211l506 723l-477 693v213z" />
    <glyph glyph-name="minus" unicode="&#x2212;" 
d="M1044 662v-211h-962v211h962z" />
    <glyph glyph-name="uni2215" unicode="&#x2215;" horiz-adv-x="1179" 
d="M16 0v20l934 1373h213v-21l-934 -1372h-213z" />
    <glyph glyph-name="uni2219" unicode="&#x2219;" horiz-adv-x="550" 
d="M113 588q0 74 45 122q46 48 118 48t117 -48t45 -122t-45 -121t-118 -47t-117 47t-45 121z" />
    <glyph glyph-name="radical" unicode="&#x221a;" horiz-adv-x="1224" 
d="M37 455h233l154 -394l70 -241h4l59 248l420 1325h227l-575 -1799h-258l-334 840v21z" />
    <glyph glyph-name="infinity" unicode="&#x221e;" horiz-adv-x="1411" 
d="M412 432q43 0 77.5 28.5t85.5 94.5q-53 66 -85.5 93.5t-76.5 27.5t-75 -36t-31 -87t31 -86t74 -35zM999 432q43 0 74 36t31 85t-31 86t-74 37t-76.5 -27.5t-86.5 -95.5q55 -66 87.5 -93.5t75.5 -27.5zM412 242q-74 0 -127.5 21.5t-93 62.5t-62.5 99t-23 164.5t83.5 191.5
t213.5 85q86 0 147 -32t157 -140q96 108 155 140t133 32q141 0 225.5 -86t84.5 -225q0 -140 -84.5 -226.5t-201.5 -86.5q-98 0 -164.5 35t-145.5 135q-91 -103 -157 -136.5t-140 -33.5z" />
    <glyph glyph-name="integral" unicode="&#x222b;" horiz-adv-x="999" 
d="M166 -246q53 0 78.5 40t36.5 108l190 1196q29 172 113 248.5t202 76.5t185 -14l-27 -190q-54 14 -111 14t-81.5 -40t-34.5 -108l-191 -1196q-29 -172 -112.5 -248.5t-201.5 -76.5t-183 14l26 191q58 -15 111 -15z" />
    <glyph glyph-name="approxequal" unicode="&#x2248;" 
d="M332 487q87 0 197 -38.5t169.5 -56t107.5 -17.5t75.5 10t56.5 39l90 -129q-87 -131 -237 -131q-76 0 -191 39t-176.5 56t-129.5 17t-112 -51l-90 129q84 133 240 133zM332 948q84 0 195.5 -39t171 -56t107.5 -17t75.5 10t56.5 39l90 -129q-87 -131 -237 -131
q-79 0 -192.5 38.5t-175 56t-129.5 17.5t-112 -51l-90 129q84 133 240 133z" />
    <glyph glyph-name="notequal" unicode="&#x2260;" 
d="M80 682v211h504l82 215h202v-21l-73 -194h247v-211h-327l-97 -252h424v-211h-503l-82 -219h-203v20l74 199h-248v211h328l96 252h-424z" />
    <glyph glyph-name="lessequal" unicode="&#x2264;" 
d="M1032 211v-211h-960v211h960zM1032 1280v-223l-721 -275v-6l721 -274v-223h-18l-942 399v203l942 399h18z" />
    <glyph glyph-name="greaterequal" unicode="&#x2265;" 
d="M1055 211v-211h-961v211h961zM94 279v223l721 274v6l-721 275v223h19l942 -399v-203l-942 -399h-19z" />
    <glyph glyph-name="lozenge" unicode="&#x25ca;" horiz-adv-x="1081" 
d="M782 696l-245 437l-236 -453l248 -422zM53 670l391 723h187l399 -682l-389 -711h-190z" />
    <glyph glyph-name="circle" unicode="&#x25cb;" horiz-adv-x="1638" 
d="M416 294.5q160 -163.5 403 -163.5t402 164.5t159 400.5q0 237 -159 401.5t-402 164.5t-403 -164t-160 -402t160 -401.5zM123 696.5q0 147.5 53 275.5t146.5 221t221.5 146.5t275.5 53.5t275.5 -53.5t221 -146.5t146.5 -221t53.5 -275.5t-53.5 -275.5t-146.5 -221.5
t-221 -146.5t-275.5 -53t-275.5 53t-221.5 146.5t-146.5 221.5t-53 275.5z" />
    <glyph glyph-name="H18533" unicode="&#x25cf;" horiz-adv-x="1638" 
d="M123 698.5q0 147.5 53 274.5t146.5 220t220.5 146.5t274.5 53.5t275.5 -53.5t222 -146.5t147.5 -220t53.5 -274.5t-53.5 -275.5t-147.5 -222.5t-222 -147.5t-275.5 -53t-274.5 53t-220.5 147.5t-146.5 222.5t-53 275.5z" />
    <glyph glyph-name="uni25DC" unicode="&#x25dc;" horiz-adv-x="696" 
d="M696 1262q-243 0 -403 -164t-160 -402h-133q0 147 53 275.5t146.5 221.5t221.5 146.5t275 53.5v-131z" />
    <glyph glyph-name="uni25DD" unicode="&#x25dd;" horiz-adv-x="696" 
d="M0 1393q147 0 275 -53.5t221.5 -146.5t146.5 -221t53 -276h-135q0 237 -159 401.5t-402 164.5v131z" />
    <glyph glyph-name="uni25DE" unicode="&#x25de;" horiz-adv-x="696" 
d="M0 131q243 0 402 164.5t159 400.5h135q0 -147 -53 -275t-146.5 -221.5t-221.5 -146.5t-275 -53v131z" />
    <glyph glyph-name="uni25DF" unicode="&#x25df;" horiz-adv-x="696" 
d="M696 0q-147 0 -275 53t-221.5 146.5t-146.5 221.5t-53 275h133q0 -237 160 -401t403 -164v-131z" />
    <glyph glyph-name="uniEA01" unicode="&#xea01;" horiz-adv-x="2048" 
d="M1206 610h-360v-385h-238v961h238v-385h360v385h236v-961h-236v385zM1755 -47v1464h-1464v-1464h1464zM141 1567h1764v-1764h-1764v1764z" />
    <glyph glyph-name="uniEA02" unicode="&#xea02;" horiz-adv-x="2048" 
d="M1082 203q-128 0 -218 35.5t-151.5 102.5t-93 159t-31.5 262.5t127 307t356 136.5q149 0 283 -61l-62 -189q-66 31 -112.5 42.5t-108.5 11.5q-98 0 -165.5 -76t-67.5 -226t64 -228.5t169 -78.5t221 52l62 -189q-144 -61 -272 -61zM1755 -47v1464h-1464v-1464h1464z
M141 1567h1764v-1764h-1764v1764z" />
    <glyph glyph-name="uniEA03" unicode="&#xea03;" horiz-adv-x="2048" 
d="M1028 1014q-63 0 -91 -25.5t-28 -60.5t17.5 -54.5t70.5 -35.5l107 -33q139 -43 207.5 -106.5t68.5 -176.5q0 -147 -104.5 -233t-279.5 -86q-174 0 -341 86l60 188q87 -49 170.5 -64.5t120.5 -15.5q131 0 131 97q0 35 -25 54t-100 44l-111 35q-135 45 -185 116.5
t-50 161.5q0 141 98 221t264 80t305 -61l-61 -189q-118 58 -244 58zM1755 -47v1464h-1464v-1464h1464zM141 1567h1764v-1764h-1764v1764z" />
    <glyph glyph-name="uniEA04" unicode="&#xea04;" horiz-adv-x="2048" 
d="M1206 225h236v961h-236v-385h-360v385h-238v-961h238v385h360v-385zM141 1567h1764v-1764h-1764v1764z" />
    <glyph glyph-name="uniEA05" unicode="&#xea05;" horiz-adv-x="2048" 
d="M1087 1206q-133 0 -223 -36.5t-151.5 -102.5t-93 -158t-31.5 -262t125.5 -307t357.5 -137q135 0 283 61l-62 189q-118 -52 -221 -52q-162 0 -197.5 114t-35.5 190q0 154 67.5 229.5t170.5 75.5t216 -54l62 189q-134 61 -267 61zM141 1567h1764v-1764h-1764v1764z" />
    <glyph glyph-name="uniEA06" unicode="&#xea06;" horiz-adv-x="2048" 
d="M1380 522q0 113 -68.5 176.5t-207.5 106.5l-107 33q-53 16 -70.5 35.5t-17.5 54.5t28 60.5t91 25.5q124 0 244 -58l61 189q-138 61 -305 61q-166 0 -264 -79.5t-98 -221.5q0 -90 50 -161.5t185 -116.5l111 -35q76 -25 100.5 -44.5t24.5 -53.5q0 -96 -131 -97
q-103 0 -185 33t-106 47l-60 -188q164 -86 340 -86t280.5 86t104.5 233zM141 1567h1764v-1764h-1764v1764z" />
    <glyph glyph-name="uniF6C3" unicode="&#xf6c3;" horiz-adv-x="1087" 
d="M692 -106v-21l-108 -319h-187v20l45 320h250z" />
    <glyph glyph-name="uniF6E1" unicode="&#xf6e1;" horiz-adv-x="378" 
d="M309 6v-16l-123 -441h-153v17l73 440h203z" />
    <glyph glyph-name="uniF6E2" unicode="&#xf6e2;" horiz-adv-x="380" 
d="M309 1165v-16l-123 -440h-153v16l73 440h203z" />
    <glyph glyph-name="uniF6E5" unicode="&#xf6e5;" horiz-adv-x="518" 
d="M84 53v140h350v-140h-350z" />
    <glyph glyph-name="uniF6E6" unicode="&#xf6e6;" horiz-adv-x="514" 
d="M84 1214v140h350v-140h-350z" />
    <glyph glyph-name="uniF6E7" unicode="&#xf6e7;" horiz-adv-x="380" 
d="M63 -128q0 60 36 95t91 35q56 0 92 -35t36 -95t-36 -94t-92 -34t-91 34q-36 34 -36 94z" />
    <glyph glyph-name="uniF6E8" unicode="&#xf6e8;" horiz-adv-x="385" 
d="M66 1033q0 60 35 95t91 35t92 -35t36 -95t-36 -94t-91 -34t-92 34q-35 34 -35 94z" />
    <glyph glyph-name="uniF8FF" unicode="&#xf8ff;" horiz-adv-x="1169" 
d="M889 119v1155h-608v-1155h608zM162 1393h846v-1393h-846v1393z" />
    <glyph glyph-name="uniFB01" unicode="&#xfb01;" horiz-adv-x="1228" 
d="M821 1290.5q0 65.5 39 108.5t104.5 43t105.5 -43t40 -108.5t-40 -108.5t-105.5 -43t-104.5 43t-39 108.5zM558 1217q-54 0 -74.5 -21.5t-20.5 -89.5v-119h627v-987h-250v776h-377v-776h-250v776h-156v150l156 61v131q0 170 83 248t220 78q90 0 158 -14v-228
q-62 15 -116 15z" />
    <glyph glyph-name="uniFB02" unicode="&#xfb02;" horiz-adv-x="1243" 
d="M557 1253q-51 -1 -73 -31t-21 -100v-135h221v-196h-221v-791h-252v791h-156v139l156 57v141q0 170 84 243t223 73q88 0 156 -14v-193q-66 16 -117 16zM848 0v1434h252v-1434h-252z" />
    <glyph glyph-name="zero.pnum" horiz-adv-x="1255" 
d="M117 696q0 727 511 727t511 -727q0 -528 -278 -676q-97 -51 -233 -51q-388 0 -483 425q-29 134 -28 302zM379 696q0 -389 132 -477q48 -33 118 -33q194 0 234 290q13 95 14 220q0 385 -132 478q-47 32 -117 32t-117 -32q-48 -32 -77 -98q-55 -123 -55 -380z" />
    <glyph glyph-name="one.pnum" horiz-adv-x="802" 
d="M70 1036v224l376 133h185v-1393h-256v1137h-4l-277 -101h-24z" />
    <glyph glyph-name="two.pnum" horiz-adv-x="1081" 
d="M514 1423q205 0 326 -118t121 -322q0 -120 -74 -251q-42 -70 -127 -165l-338 -352v-4h553v-211h-875v193l467 507q71 82 101 141t30 122q0 168 -111 225q-37 18 -105 18t-132 -43t-121 -100l-133 162q172 198 418 198z" />
    <glyph glyph-name="three.pnum" horiz-adv-x="1095" 
d="M725 393q0 205 -242 205h-213v215h215q156 0 179.5 77t23.5 119q0 88 -52.5 142.5t-150.5 54.5q-148 0 -303 -69l-73 194q78 41 182 66.5t194 25.5q231 0 348 -104.5t117 -288.5q0 -110 -61 -192.5t-135 -110.5v-4q94 -39 161.5 -126t67.5 -201q0 -211 -129.5 -319
t-364.5 -108t-409 105l67 198q154 -86 336 -86q106 0 174 57.5t68 149.5z" />
    <glyph glyph-name="four.pnum" horiz-adv-x="1204" 
d="M967 940v-428h159v-211h-159v-301h-256v301h-645v178l366 914h256l-342 -877v-4h365v428h256z" />
    <glyph glyph-name="five.pnum" horiz-adv-x="1071" 
d="M477 649q-117 0 -274 -16l-37 37l67 723h689v-211h-471l-27 -316q29 2 34 2h50q331 0 398 -160.5t67 -279.5q0 -221 -141.5 -340t-380.5 -119q-171 0 -375 78l57 211q167 -72 324 -72q254 0 254 242q0 221 -234 221z" />
    <glyph glyph-name="six.pnum" horiz-adv-x="1124" 
d="M568 702q-100 0 -160 -65.5t-60 -185.5t59 -192.5t160 -72.5t161 73t60 193t-60 185t-160 65zM668 920q72 0 143.5 -34t153.5 -132.5t82 -304.5t-126.5 -343t-352.5 -137t-354 136t-128 334t90 356l348 598h279v-21l-309 -502v-4q23 14 62.5 34t111.5 20z" />
    <glyph glyph-name="seven.pnum" horiz-adv-x="1001" 
d="M659 1182h-587v211h864v-191l-475 -1202h-271v20l469 1158v4z" />
    <glyph glyph-name="eight.pnum" horiz-adv-x="1191" 
d="M596 1206q-174 0 -174 -188t174 -187q92 -1 135 51t43 137t-43 136t-135 51zM160 1038q0 272 239 356q82 28 196 29q218 0 328 -105q111 -105 109 -280q0 -218 -176 -303v-4q98 -40 162 -134q65 -94 65 -203q0 -306 -275 -395q-91 -30 -212 -30q-233 0 -361 110t-127 299
q1 188 139 299q42 34 89 54v4q-120 58 -161 193q-15 49 -15 110zM596 186q117 0 172 62t55 154q0 94 -55 154t-172 60t-170 -60t-53 -154t53 -154q53 -62 170 -62z" />
    <glyph glyph-name="nine.pnum" 
d="M558 690q99 0 160.5 65.5t61.5 185.5t-60.5 192.5t-160.5 72.5t-159.5 -72t-59.5 -192q0 -121 59.5 -186.5t158.5 -65.5zM632 524q-1 0 -1 2q-23 -14 -62 -33.5t-111 -19.5t-144 34t-154 131.5t-82 305.5t127 343.5t355 135.5q227 0 352.5 -136t125.5 -335t-88 -356
l-348 -596h-280v20l311 502q0 2 -1 2z" />
    <glyph glyph-name="a.salt" horiz-adv-x="1130" 
d="M987 0h-188l-33 88h-4q-25 -18 -53.5 -39.5t-86.5 -50.5t-148 -29q-178 0 -280 149t-102 376q0 228 102 376t285 148q125 0 191.5 -50t91.5 -69h4l33 88h188v-987zM559 801q-156 0 -182.5 -120t-26.5 -224t52 -187.5t152 -83.5t179 66v483q-80 66 -174 66z" />
    <glyph glyph-name="agrave.aalt" horiz-adv-x="1130" 
d="M987 0h-188l-33 88h-4q-26 -18 -54 -40t-85 -50t-148 -28q-92 -1 -165 41q-143 82 -193 279q-25 94 -25 202q0 224 101 375t286 151q126 0 230 -79q29 -22 53 -40h4l33 88h188v-987zM350 494q0 -220 115 -285q39 -23 94 -23q94 0 174 66v483q-77 64 -177 65t-153 -81
q-53 -83 -53 -225zM305 1460h262l146 -278v-21h-217l-191 281v18z" />
    <glyph glyph-name="aacute.aalt" horiz-adv-x="1130" 
d="M987 0h-188l-33 88h-4q-26 -18 -54 -40t-85 -50t-148 -28q-92 -1 -165 41q-143 82 -193 279q-25 94 -25 202q0 224 101 375t286 151q126 0 230 -79q29 -22 53 -40h4l33 88h188v-987zM350 494q0 -220 115 -285q39 -23 94 -23q94 0 174 66v483q-77 64 -177 65t-153 -81
q-53 -83 -53 -225zM469 1161v21l145 278h263v-18l-191 -281h-217z" />
    <glyph glyph-name="acircumflex.aalt" horiz-adv-x="1130" 
d="M987 0h-188l-33 88h-4q-26 -18 -54 -40t-85 -50t-148 -28q-92 -1 -165 41q-143 82 -193 279q-25 94 -25 202q0 224 101 375t286 151q126 0 230 -79q29 -22 53 -40h4l33 88h188v-987zM350 494q0 -220 115 -285q39 -23 94 -23q94 0 174 66v483q-77 64 -177 65t-153 -81
q-53 -83 -53 -225zM891 1161h-207l-98 162l-97 -162h-206v21l168 278h272l168 -278v-21z" />
    <glyph glyph-name="atilde.aalt" horiz-adv-x="1130" 
d="M987 0h-188l-33 88h-4q-26 -18 -54 -40t-85 -50t-148 -28q-92 -1 -165 41q-143 82 -193 279q-25 94 -25 202q0 224 101 375t286 151q126 0 230 -79q29 -22 53 -40h4l33 88h188v-987zM350 494q0 -220 115 -285q39 -23 94 -23q94 0 174 66v483q-77 64 -177 65t-153 -81
q-53 -83 -53 -225zM438 1253q-72 0 -123 -71l-51 143q29 57 82 96t116 39t143 -46q32 -18 63 -32q30 -14 66 -14q74 0 124 70l51 -140q-33 -66 -87 -102t-101 -35t-84 15t-71 31t-66 31t-62 15z" />
    <glyph glyph-name="adieresis.aalt" horiz-adv-x="1130" 
d="M987 0h-188l-33 88h-4q-26 -18 -54 -40t-85 -50t-148 -28q-92 -1 -165 41q-143 82 -193 279q-25 94 -25 202q0 224 101 375t286 151q126 0 230 -79q29 -22 53 -40h4l33 88h188v-987zM350 494q0 -220 115 -285q39 -23 94 -23q94 0 174 66v483q-77 64 -177 65t-153 -81
q-53 -83 -53 -225zM238 1311q0 63 40 102t106 39t106 -39t40 -102t-40 -103t-106 -39q-66 -1 -106 39t-40 103zM643 1311q0 63 40 102q41 39 107 39t106 -39t40 -102t-40 -103t-107 -39q-67 -1 -107 39t-39 103z" />
    <glyph glyph-name="aring.aalt" horiz-adv-x="1130" 
d="M987 0h-188l-33 88h-4q-26 -18 -54 -40t-85 -50t-148 -28q-92 -1 -165 41q-143 82 -193 279q-25 94 -25 202q0 224 101 375t286 151q126 0 230 -79q29 -22 53 -40h4l33 88h188v-987zM350 494q0 -220 115 -285q39 -23 94 -23q94 0 174 66v483q-77 64 -177 65t-153 -81
q-53 -83 -53 -225zM362 1316q0 108 62 166t164 58q100 0 162 -58t61 -166q0 -108 -61 -166q-62 -58 -162 -58t-163 58t-63 166zM588 1401q-34 1 -56 -23t-22 -62t22 -60t56 -21q74 0 76 82q0 37 -20 61t-56 23z" />
    <glyph glyph-name="amacron.aalt" horiz-adv-x="1130" 
d="M987 0h-188l-33 88h-4q-26 -18 -54 -40t-85 -50t-148 -28q-92 -1 -165 41q-143 82 -193 279q-25 94 -25 202q0 224 101 375t286 151q126 0 230 -79q29 -22 53 -40h4l33 88h188v-987zM350 494q0 -220 115 -285q39 -23 94 -23q94 0 174 66v483q-77 64 -177 65t-153 -81
q-53 -83 -53 -225zM319 1186v211h535v-211h-535z" />
    <glyph glyph-name="abreve.aalt" horiz-adv-x="1130" 
d="M987 0h-188l-33 88h-4q-26 -18 -54 -40t-85 -50t-148 -28q-92 -1 -165 41q-143 82 -193 279q-25 94 -25 202q0 224 101 375t286 151q126 0 230 -79q29 -22 53 -40h4l33 88h188v-987zM350 494q0 -220 115 -285q39 -23 94 -23q94 0 174 66v483q-77 64 -177 65t-153 -81
q-53 -83 -53 -225zM586 1380q133 0 243 70l60 -152q-134 -134 -301 -135q-168 -2 -305 135l59 152q111 -70 244 -70z" />
    <glyph glyph-name="aogonek.aalt" horiz-adv-x="1130" 
d="M559 801q-156 0 -182.5 -120t-26.5 -224t52 -187.5t152 -83.5t179 66v483q-80 66 -174 66zM940 -238q47 0 90 37l21 -184q-29 -20 -80 -35.5t-99 -15.5q-95 0 -155 58t-60 153q0 140 138 231l-29 82h-4q-25 -18 -53.5 -39.5t-86.5 -50.5t-148 -29q-178 0 -280 149
t-102 376q0 228 102 376t285 148q125 0 191.5 -50t91.5 -69h4l33 88h188v-987q-59 -25 -96 -68t-37 -89t19.5 -63.5t66.5 -17.5z" />
    <glyph glyph-name="aringacute.aalt" horiz-adv-x="1130" 
d="M481 1577v16l123 209h264v-14l-163 -211h-224zM987 0h-188l-33 88h-4q-25 -18 -53.5 -39.5t-86.5 -50.5t-148 -29q-178 0 -280 149t-102 376q0 228 102 376t285 148q125 0 191.5 -50t91.5 -69h4l33 88h188v-987zM559 801q-156 0 -182.5 -120t-26.5 -224t52 -187.5
t152 -83.5t179 66v483q-80 66 -174 66zM360 1298q0 108 62.5 165t163 57t162 -56.5t61.5 -164.5t-61.5 -164t-162 -56t-163 55.5t-62.5 163.5zM508 1299q0 -38 21.5 -58t56.5 -20t55.5 20.5t20.5 58.5t-20.5 59t-55.5 21t-56.5 -21.5t-21.5 -59.5z" />
    <glyph glyph-name="uni0444.aalt" horiz-adv-x="1366" 
d="M1022 526q0 92 -49 163t-166 95v-583q168 34 191.5 133.5t23.5 191.5zM557 786q-213 -36 -213 -293.5t213 -293.5v587zM205 840.5q115 137.5 352 165.5v428h250v-433q360 -45 414.5 -229t54.5 -279q0 -204 -112 -340.5t-357 -166.5v-392h-250v388q-239 26 -353 164.5
t-114 347.5t115 346.5z" />
    <glyph glyph-name="Euro.aalt" 
d="M467 422q58 -221 284 -221q116 0 250 71l70 -213q-165 -90 -361 -90t-330 122t-187 331h-130v194h101q-2 18 -2 23v61q0 56 2 74h-101v195h130q86 332 258 393t268 61q200 0 352 -90l-70 -213q-140 72 -252 72q-221 0 -280 -223h358v-195h-403v-158h403v-194h-360z" />
    <glyph glyph-name="uni20A8.aalt" 
d="M940 0h-305l-496 535v176h213q197 0 232 123h-445l-2 194h447q-16 59 -74.5 99t-157.5 40h-213l-2 226h860v-195h-268v-4q83 -56 117 -166h151v-194h-141q-52 -303 -369 -334l453 -467v-33z" />
    <glyph glyph-name="registered.aalt" horiz-adv-x="1662" 
d="M950 866.5q0 61.5 -96 61.5h-156v-174h156q53 0 74.5 25.5t21.5 87zM1145 842q0 -183 -168 -228l209 -282v-19h-205l-199 289h-84v-289h-186v766h350q150 0 216.5 -63.5t66.5 -173.5zM250 696q0 -125 46 -232.5t127 -186t189.5 -123.5t233.5 -45t228.5 45t179 123.5
t117.5 186t42 232.5t-44 232.5t-122 186.5t-184.5 124t-231 45t-231 -45t-184.5 -124t-122 -186.5t-44 -232.5zM104 696.5q0 153.5 55.5 286.5t154 231.5t231.5 153.5t286.5 55t286.5 -55t231.5 -153.5t154 -231.5t55.5 -286.5t-55.5 -287t-154 -231.5t-231.5 -153.5
t-286.5 -55.5t-286.5 55.5t-231.5 153.5t-154 231.5t-55.5 287z" />
    <glyph glyph-name="guillemotleft.aalt" horiz-adv-x="1085" 
d="M90 711l301 448l168 -100l-186 -363l188 -360l-170 -98l-301 448v25zM498 711l301 448l168 -100l-187 -363l189 -360l-170 -98l-301 448v25z" />
    <glyph glyph-name="bracketleft.aalt" horiz-adv-x="673" 
d="M592 1618v-129l-213 -47v-1487l213 -47v-129h-426v1839h426z" />
    <glyph glyph-name="guilsinglright.aalt" horiz-adv-x="675" 
d="M586 686l-301 -448l-168 100l186 362l-188 361l170 98l301 -448v-25z" />
    <glyph glyph-name="bar.aalt" horiz-adv-x="497" 
d="M332 -221h-166v1839h166v-1839z" />
    <glyph glyph-name="periodcentered.aalt" horiz-adv-x="567" 
d="M121 688q0 74 45 122t118 48q74 0 118 -48t44 -122t-45 -121t-117 -47t-118 47q-45 47 -45 121z" />
    <glyph glyph-name="bullet.aalt" horiz-adv-x="770" 
d="M156 696q0 102 62 168t168 66t170 -66q62 -66 62 -168t-62 -168t-168 -66t-170 66q-62 66 -62 168z" />
    <glyph glyph-name="emdash.aalt" horiz-adv-x="1742" 
d="M143 596v211h1456v-211h-1456z" />
    <glyph glyph-name="bracketright.aalt" horiz-adv-x="675" 
d="M510 1618v-1839h-428v133l215 47v1479l-215 47v133h428z" />
    <glyph glyph-name="endash.aalt" horiz-adv-x="1136" 
d="M143 596v211h850v-211h-850z" />
    <glyph glyph-name="hyphen.case" horiz-adv-x="864" 
d="M143 592v211h578v-211h-578z" />
    <glyph glyph-name="guillemotright.aalt" horiz-adv-x="1083" 
d="M586 686l-301 -448l-168 100l186 362l-188 361l170 98l301 -448v-25zM993 686l-301 -448l-168 100l187 362l-189 361l170 98l301 -448v-25z" />
    <glyph glyph-name="parenleft.case" horiz-adv-x="589" 
d="M340 698q0 -503 160 -884l-146 -68q-172 295 -227 667q-21 135 -21 285q0 523 248 953l146 -68q-160 -382 -160 -885z" />
    <glyph glyph-name="guilsinglleft.aalt" horiz-adv-x="677" 
d="M90 711l301 448l168 -100l-186 -363l188 -360l-170 -98l-301 448v25z" />
    <glyph glyph-name="braceright.aalt" horiz-adv-x="720" 
d="M659 604q-73 0 -119 -40t-46 -120v-290q0 -189 -74 -283t-268 -92h-68v143q159 0 186 125q10 41 11 92v297q0 117 35 179q36 62 122 81v4q-86 18 -122 80t-35 181v296q0 164 -106 203q-38 14 -91 15v143h68q195 0 267 -92t75 -283v-291q0 -80 47 -120t118 -39v-189z" />
    <glyph glyph-name="braceleft.aalt" horiz-adv-x="720" 
d="M61 793q72 0 118 40t46 119v291q0 190 75 282q75 93 269 93h68v-143q-156 0 -187 -125q-11 -41 -12 -93v-296q0 -117 -36 -179t-121 -82v-4q85 -18 121 -80t36 -180v-297q0 -165 108 -202q38 -14 91 -15v-143h-68q-282 0 -328 217q-15 70 -16 158v290q0 80 -46 120
t-118 40v189z" />
    <glyph glyph-name="parenright.case" horiz-adv-x="589" 
d="M236 1651q247 -423 247 -953q0 -529 -247 -952l-146 68q160 380 160 884q0 503 -160 885z" />
    <glyph glyph-name="minus.case" horiz-adv-x="1638" 
d="M362 594v190h912v-190h-912z" />
    <glyph glyph-name="zero.frac" horiz-adv-x="720" 
d="M666 1029q0 -161 -77 -267t-227 -107q-150 0 -226 104q-75 104 -77 271q0 257 165 345q56 30 135 30t138 -30q113 -59 151 -201q18 -68 18 -145zM358 1247q-50 0 -84 -53t-34 -167t34 -164t84 -50q127 0 125 217q0 217 -125 217z" />
    <glyph glyph-name="one.frac" horiz-adv-x="520" 
d="M39 1120v160l252 111h131v-719h-174v530h-2l-193 -82h-14z" />
    <glyph glyph-name="two.frac" horiz-adv-x="638" 
d="M387 1145q0 105 -91 103q-44 0 -77 -26t-65 -59l-99 119q61 78 164 111q41 12 92 12q110 0 183 -61t73 -175q0 -76 -38 -130t-91 -99l-131 -111v-6h271v-151h-521v137l279 242q51 43 51 94z" />
    <glyph glyph-name="three.frac" horiz-adv-x="634" 
d="M286 815q111 0 109 78q0 35 -25 48q-26 13 -79 13h-133v152h131q86 0 88 72q0 29 -22 49t-99 20t-147 -35l-50 146q117 47 237 47t190 -52q70 -53 71 -139q0 -86 -35 -122t-73 -43v-2q128 -42 126 -181q1 -94 -69 -152t-214 -58t-249 55l45 149q87 -45 198 -45z" />
    <glyph glyph-name="four.frac" horiz-adv-x="669" 
d="M543 1159v-182h78v-154h-78v-151h-174v151h-330v140l166 428h178l-154 -412v-2h140v182h174z" />
    <glyph glyph-name="five.frac" horiz-adv-x="614" 
d="M532 1391v-156h-256l-8 -96h31q115 -1 187 -53t71 -175q0 -123 -76 -189q-77 -66 -207 -67q-130 0 -235 35l39 162q83 -37 190 -37t107 88q0 82 -111 80q-66 0 -151 -10l-21 16l33 402h407z" />
    <glyph glyph-name="six.frac" horiz-adv-x="649" 
d="M426 912q0 100 -100 100t-99 -100q0 -50 27 -76t74 -25q98 1 98 101zM403 1149q81 0 141 -59t60 -176t-75 -187t-205 -71t-201 74q-70 75 -71 174t59 196l184 291h194v-13l-174 -239v-2q42 12 88 12z" />
    <glyph glyph-name="seven.frac" horiz-adv-x="589" 
d="M371 1235h-328v156h516v-144l-287 -575h-182v10l281 551v2z" />
    <glyph glyph-name="eight.frac" horiz-adv-x="667" 
d="M248 1190q0 -80 88 -80q47 0 67 23q21 23 21 55t-20 56t-68 24t-68 -24t-20 -54zM57 868q0 132 129 181v2q-100 43 -100 141t68 156t183 57q117 0 183 -57t66 -155t-103 -142v-2q57 -21 95 -65t36 -116q0 -98 -76 -155t-203 -57q-126 0 -202 56q-76 58 -76 156zM227 880
q0 -34 24 -58t84 -25q60 1 84 25t23 59q0 35 -24 61t-84 27q-61 0 -84 -27q-23 -28 -23 -62z" />
    <glyph glyph-name="nine.frac" horiz-adv-x="647" 
d="M223 1149q0 -47 25 -74q26 -27 72 -27t74 28q28 26 28 73q0 104 -103 102q-96 0 -96 -102zM45 1144q0 179 161 244q50 19 118 19q132 0 203 -76t71 -174t-59 -194l-185 -291h-194v12l174 240v2q-208 -52 -273 118q-16 42 -16 100z" />
    <glyph glyph-name="comma.numr" horiz-adv-x="380" 
d="M309 920v-17l-123 -440h-153v16l73 441h203z" />
    <glyph glyph-name="plus.numr" horiz-adv-x="497" 
d="M317 1108h125v-139h-125v-146h-141v146h-121v139h121v147h141v-147z" />
    <glyph glyph-name="hyphen.numr" horiz-adv-x="514" 
d="M84 969v139h350v-139h-350z" />
    <glyph glyph-name="minus.numr" horiz-adv-x="550" 
d="M84 969v139h387v-139h-387z" />
    <glyph glyph-name="parenleft.numr" horiz-adv-x="352" 
d="M209 512q-158 252 -158 496t104 445q28 54 54 97l102 -59q-43 -102 -73 -210t-29 -250q0 -142 30 -250t72 -212z" />
    <glyph glyph-name="period.numr" horiz-adv-x="385" 
d="M66 787q0 60 35 96q35 35 91 35t92 -35t36 -95t-36 -95q-36 -34 -91 -34t-92 34q-35 34 -35 94z" />
    <glyph glyph-name="parenright.numr" horiz-adv-x="350" 
d="M143 1550q158 -252 158 -519t-158 -519l-102 57q43 104 73 212t30 250t-30 250t-73 210z" />
    <glyph glyph-name="zero.dnom" horiz-adv-x="722" 
d="M589 90q-77 -106 -227 -106q-151 0 -227 104.5t-76 269.5q0 259 111.5 317t189.5 58t136.5 -29.5t114 -106.5t55.5 -239t-77 -268zM483 358q0 217 -125 217q-51 0 -84.5 -53t-33.5 -167t33.5 -164t84.5 -50q125 0 125 217z" />
    <glyph glyph-name="one.dnom" horiz-adv-x="518" 
d="M37 449v159l252 111h131v-719h-174v530h-2l-193 -81h-14z" />
    <glyph glyph-name="two.dnom" horiz-adv-x="638" 
d="M307 152h271v-152h-521v137l279 242q51 43 51 94q0 102 -88 102q-47 0 -80 -25.5t-65 -57.5l-99 118q96 123 254 123q110 0 184 -61t74 -174q0 -76 -37.5 -130.5t-91.5 -99.5l-131 -110v-6z" />
    <glyph glyph-name="three.dnom" horiz-adv-x="634" 
d="M285 143q110 0 110 78q0 35 -25.5 48.5t-78.5 13.5h-133v151h131q88 0 88 72q0 29 -21.5 49t-97.5 20t-149 -34l-50 145q118 47 237 47q120 0 190.5 -52.5t70.5 -138.5t-35 -121.5t-73 -43.5v-2q126 -41 126 -180q0 -94 -69.5 -152.5t-214.5 -58.5t-248 55l45 149
q87 -45 197 -45z" />
    <glyph glyph-name="four.dnom" horiz-adv-x="669" 
d="M541 487v-182h77v-153h-77v-152h-174v152h-330v139l166 428h178l-154 -412v-2h140v182h174z" />
    <glyph glyph-name="five.dnom" horiz-adv-x="614" 
d="M262 311q-66 0 -151 -10l-21 16l33 402h407v-156h-256l-8 -96h31q115 0 186.5 -52.5t71.5 -175.5t-76 -189t-209 -66t-233 34l39 162q83 -37 190 -37t107 88q0 80 -111 80z" />
    <glyph glyph-name="six.dnom" horiz-adv-x="649" 
d="M426 240q0 100 -100 100t-99 -99q0 -50 27 -76t74 -26q98 1 98 101zM403 477q80 0 140.5 -59.5t60.5 -173.5q0 -179 -106 -219.5t-174 -40.5q-131 0 -202 75.5t-71 173.5q0 97 60 195l184 291h194v-12l-174 -240v-2q42 12 88 12z" />
    <glyph glyph-name="seven.dnom" horiz-adv-x="591" 
d="M371 563h-328v156h516v-144l-287 -575h-182v10l281 551v2z" />
    <glyph glyph-name="eight.dnom" horiz-adv-x="671" 
d="M336 438q47 0 67.5 22.5t20.5 55.5t-20.5 56.5t-67.5 23.5t-67.5 -23.5t-20.5 -56.5t20.5 -55.5t67.5 -22.5zM483 377q131 -45 131 -193q0 -84 -76.5 -142t-202.5 -58t-202 57t-76 156q0 131 129 180v2q-100 43 -100 141t67.5 155.5t183.5 57.5t182.5 -57.5t66.5 -154.5
t-103 -142v-2zM335 125q60 0 83.5 24.5t23.5 59.5t-23.5 61.5t-84.5 26.5t-84 -26.5t-23 -61.5t24 -59.5t84 -24.5z" />
    <glyph glyph-name="nine.dnom" horiz-adv-x="649" 
d="M322.5 580q-99.5 0 -99.5 -102t72 -101.5t99.5 27t27.5 73.5q0 103 -99.5 103zM246 242q-40 0 -76.5 14t-64 44t-44 73t-16.5 131.5t76.5 159.5t206.5 71q131 0 200.5 -76.5t69.5 -172.5t-59 -195l-185 -291h-194v12l174 240v2q-48 -12 -88 -12z" />
    <glyph glyph-name="comma.dnom" horiz-adv-x="378" 
d="M309 250v-17l-123 -440h-153v17l73 440h203z" />
    <glyph glyph-name="plus.dnom" horiz-adv-x="497" 
d="M317 436h125v-139h-125v-145h-141v145h-121v139h121v148h141v-148z" />
    <glyph glyph-name="parenright.dnom" horiz-adv-x="350" 
d="M143 879q158 -252 158 -519.5t-158 -519.5l-102 58q43 104 72.5 211.5t29.5 249.5t-29.5 250t-72.5 210z" />
    <glyph glyph-name="hyphen.dnom" horiz-adv-x="518" 
d="M84 297v139h350v-139h-350z" />
    <glyph glyph-name="minus.dnom" horiz-adv-x="555" 
d="M84 297v139h387v-139h-387z" />
    <glyph glyph-name="parenleft.dnom" horiz-adv-x="352" 
d="M209 -160q-158 252 -158 519.5t158 519.5l102 -60q-43 -102 -72.5 -209.5t-29.5 -249.5t29.5 -250t72.5 -212z" />
    <glyph glyph-name="period.dnom" horiz-adv-x="380" 
d="M63 116q0 60 36 95t91.5 35t91 -35t35.5 -95t-35.5 -94t-91 -34t-91.5 34t-36 94z" />
    <glyph glyph-name="minus.sinf" horiz-adv-x="555" 
d="M84 53v140h387v-140h-387z" />
    <glyph glyph-name="plus.sinf" horiz-adv-x="497" 
d="M317 193h125v-140h-125v-145h-141v145h-121v140h121v147h141v-147z" />
    <glyph glyph-name="glyph715" horiz-adv-x="1087" 
d="M397 1141v20l109 320h186v-21l-47 -319h-248z" />
    <glyph glyph-name="glyph716" horiz-adv-x="1087" 
d="M692 1393v-21l-108 -319h-187v20l45 320h250z" />
    <glyph glyph-name="glyph717" horiz-adv-x="1087" 
d="M692 -106v-21l-108 -319h-187v20l45 320h250z" />
    <glyph glyph-name="glyph718" horiz-adv-x="1087" 
d="M330 1835h278l129 -279v-20h-235l-172 281v18z" />
    <glyph glyph-name="glyph719" horiz-adv-x="1087" 
d="M350 1536v20l129 279h279v-18l-172 -281h-236z" />
    <glyph glyph-name="glyph720" horiz-adv-x="1087" 
d="M866 1536h-207l-116 162l-115 -162h-207v20l209 279h227l209 -279v-20z" />
    <glyph glyph-name="glyph721" horiz-adv-x="1087" 
d="M221 1835h207l117 -162l114 162h207v-20l-209 -279h-227l-209 279v20z" />
    <glyph glyph-name="glyph722" horiz-adv-x="1087" 
d="M395 1630q-71 0 -123 -71l-51 143q29 57 82 96t105 39t87 -14.5t67 -31.5t62.5 -31.5t67.5 -14.5q73 0 123 70l51 -140q-33 -66 -87 -101.5t-101 -35.5q-65 0 -154 46t-129 46z" />
    <glyph glyph-name="glyph723" horiz-adv-x="1087" 
d="M637 1675.5q0 63.5 40.5 102.5t106.5 39t106 -39t40 -102.5t-40 -102.5t-107 -39t-106.5 39t-39.5 102.5zM158 1675.5q0 63.5 40 102.5t106 39t106.5 -39t40.5 -102.5t-40 -102.5t-107 -39t-106.5 39t-39.5 102.5z" />
    <glyph glyph-name="glyph724" horiz-adv-x="1087" 
d="M276 1554v211h535v-211h-535z" />
    <glyph glyph-name="glyph725" horiz-adv-x="1208" 
d="M489 1053v20l60 320h260v-19l-109 -321h-211z" />
    <glyph glyph-name="glyph726" horiz-adv-x="1087" 
d="M848 1673q-137 -137 -303 -137t-303 137l59 152q111 -70 243 -70q133 0 244 70z" />
    <glyph glyph-name="glyph727" horiz-adv-x="1087" 
d="M319 1706q0 108 62.5 166.5t163 58.5t162 -58t61.5 -166t-61.5 -166t-162 -58t-163 57.5t-62.5 165.5zM467 1707q0 -38 21.5 -60.5t56.5 -22.5t55.5 22.5t20.5 60.5t-20.5 61.5t-55.5 23.5t-56.5 -23.5t-21.5 -61.5z" />
    <glyph glyph-name="glyph728" horiz-adv-x="1087" 
d="M535 1536v20l145 279h260v-20l-188 -279h-217zM147 1536v20l146 279h260v-20l-188 -279h-218z" />
    <glyph glyph-name="glyph729" horiz-adv-x="1087" 
d="M397 1675.5q0 63.5 40 102.5t107 39t106.5 -39t39.5 -102.5t-40 -102.5t-106 -39t-106.5 39t-40.5 102.5z" />
    </font>
</defs>
</svg>
